<?xml version="1.0" encoding="UTF-8" standalone="no"?>
<!-- Created with Inkscape (http://www.inkscape.org/) -->

<svg
   xmlns:dc="http://purl.org/dc/elements/1.1/"
   xmlns:cc="http://creativecommons.org/ns#"
   xmlns:rdf="http://www.w3.org/1999/02/22-rdf-syntax-ns#"
   xmlns:svg="http://www.w3.org/2000/svg"
   xmlns="http://www.w3.org/2000/svg"
   xmlns:sodipodi="http://sodipodi.sourceforge.net/DTD/sodipodi-0.dtd"
   xmlns:inkscape="http://www.inkscape.org/namespaces/inkscape"
   width="22"
   height="22"
   id="svg4359"
   version="1.1"
   inkscape:version="0.91+devel r"
   sodipodi:docname="media-optical-burn.svg">
  <defs
     id="defs4361" />
  <sodipodi:namedview
     id="base"
     pagecolor="#ffffff"
     bordercolor="#666666"
     borderopacity="1.0"
     inkscape:pageopacity="0.0"
     inkscape:pageshadow="2"
     inkscape:zoom="13.594976"
     inkscape:cx="15.609059"
     inkscape:cy="6.66108"
     inkscape:current-layer="layer1"
     showgrid="true"
     inkscape:grid-bbox="true"
     inkscape:document-units="px"
     inkscape:window-width="1366"
     inkscape:window-height="670"
     inkscape:window-x="-4"
     inkscape:window-y="29"
     inkscape:window-maximized="1"
     inkscape:showpageshadow="false"
     borderlayer="true"
     showguides="true"
     inkscape:guide-bbox="true">
    <inkscape:grid
       type="xygrid"
       id="grid4105" />
    <sodipodi:guide
       position="0,22"
       orientation="22,0"
       id="guide4111" />
    <sodipodi:guide
       position="0,0"
       orientation="0,22"
       id="guide4113" />
    <sodipodi:guide
       position="22,0"
       orientation="-22,0"
       id="guide4115" />
    <sodipodi:guide
       position="11,10"
       orientation="16,0"
       id="guide4130" />
    <sodipodi:guide
       position="19,19"
       orientation="0,-16"
       id="guide4136" />
    <sodipodi:guide
       position="3,22"
       orientation="19.000011,0"
       id="guide4152" />
    <sodipodi:guide
       position="3,2.9999886"
       orientation="0,4"
       id="guide4154" />
    <sodipodi:guide
       position="15,3"
       orientation="0,4.0000019"
       id="guide4162" />
    <sodipodi:guide
       position="19.000002,3"
       orientation="-19,0"
       id="guide4164" />
    <sodipodi:guide
       position="19.000002,22"
       orientation="0,-4.0000019"
       id="guide4166" />
  </sodipodi:namedview>
  <metadata
     id="metadata4364">
    <rdf:RDF>
      <cc:Work
         rdf:about="">
        <dc:format>image/svg+xml</dc:format>
        <dc:type
           rdf:resource="http://purl.org/dc/dcmitype/StillImage" />
        <dc:title />
      </cc:Work>
    </rdf:RDF>
  </metadata>
  <g
     id="layer1"
     inkscape:label="Layer 1"
     inkscape:groupmode="layer"
     transform="translate(0,-26)">
    <rect
       style="color:#000000;clip-rule:nonzero;display:inline;overflow:visible;visibility:visible;opacity:1;isolation:auto;mix-blend-mode:normal;color-interpolation:sRGB;color-interpolation-filters:linearRGB;solid-color:#000000;solid-opacity:1;fill:#304050;fill-opacity:1;fill-rule:nonzero;stroke:none;stroke-width:1;stroke-linecap:butt;stroke-linejoin:miter;stroke-miterlimit:4;stroke-dasharray:none;stroke-dashoffset:0;stroke-opacity:1;color-rendering:auto;image-rendering:auto;shape-rendering:auto;text-rendering:auto;enable-background:accumulate"
       id="rect4147"
       width="2"
       height="2"
       x="-2"
       y="26" />
    <path
       style="opacity:1;fill:#304050;fill-opacity:1;stroke:none;stroke-width:0.1;stroke-linecap:round;stroke-linejoin:miter;stroke-miterlimit:4;stroke-dasharray:none;stroke-opacity:0.29943501"
       d="M 11 3 C 6.581722 3 3 6.581722 3 11 C 3 15.418278 6.581722 19 11 19 L 11 17 C 7.6862915 17 5 14.313708 5 11 C 5 10.792893 5.010766 10.588421 5.03125 10.386719 C 5.33851 7.3611821 7.8933983 5 11 5 C 14.313708 5 17 7.6862915 17 11 L 19 11 C 19 6.581722 15.418278 3 11 3 z M 11 8 C 9.5502526 8 8.3402857 9.0274824 8.0605469 10.394531 C 8.0205842 10.589824 8 10.792893 8 11 C 8 12.656854 9.3431458 14 11 14 L 11 12 C 10.447715 12 10 11.552285 10 11 C 10 10.861929 10.027522 10.730966 10.078125 10.611328 C 10.229933 10.252413 10.585786 10 11 10 C 11.552285 10 12 10.447715 12 11 L 14 11 C 14 9.3431458 12.656854 8 11 8 z M 15.005859 12 C 15.032847 12.1477 13 14.927725 14.025391 15.953125 C 14.797972 16.725725 14.884995 17 13.5 17 C 13.344281 17 13.192614 16.982078 13.044922 16.955078 C 13.257976 18.120978 14.270724 19 15.5 19 C 16.884995 19 18 18 18 16.5 C 18 14.7849 16.842858 14.9991 17 13 C 17 13 16.000955 17.0543 15.005859 12 z "
       transform="translate(0,26)"
       id="path4151" />
  </g>
</svg>
