<?xml version="1.0" encoding="UTF-8" standalone="no"?>
<!-- Created with Inkscape (http://www.inkscape.org/) -->

<svg
   xmlns:dc="http://purl.org/dc/elements/1.1/"
   xmlns:cc="http://creativecommons.org/ns#"
   xmlns:rdf="http://www.w3.org/1999/02/22-rdf-syntax-ns#"
   xmlns:svg="http://www.w3.org/2000/svg"
   xmlns="http://www.w3.org/2000/svg"
   xmlns:sodipodi="http://sodipodi.sourceforge.net/DTD/sodipodi-0.dtd"
   xmlns:inkscape="http://www.inkscape.org/namespaces/inkscape"
   width="22"
   height="22"
   id="svg4359"
   version="1.1"
   inkscape:version="0.91+devel r"
   sodipodi:docname="speaker.svg">
  <defs
     id="defs4361" />
  <sodipodi:namedview
     id="base"
     pagecolor="#ffffff"
     bordercolor="#666666"
     borderopacity="1.0"
     inkscape:pageopacity="0.0"
     inkscape:pageshadow="2"
     inkscape:zoom="23"
     inkscape:cx="9.0153456"
     inkscape:cy="10.541384"
     inkscape:current-layer="layer1"
     showgrid="true"
     inkscape:grid-bbox="true"
     inkscape:document-units="px"
     inkscape:window-width="1366"
     inkscape:window-height="670"
     inkscape:window-x="-4"
     inkscape:window-y="29"
     inkscape:window-maximized="1"
     inkscape:showpageshadow="false"
     borderlayer="true"
     showguides="true">
    <inkscape:grid
       type="xygrid"
       id="grid4105" />
    <sodipodi:guide
       position="0,22"
       orientation="22,0"
       id="guide4111" />
    <sodipodi:guide
       position="0,0"
       orientation="0,22"
       id="guide4113" />
    <sodipodi:guide
       position="22,0"
       orientation="-22,0"
       id="guide4115" />
    <sodipodi:guide
       position="11,10"
       orientation="16,0"
       id="guide4130" />
    <sodipodi:guide
       position="12,11"
       orientation="0,16"
       id="guide4132" />
    <sodipodi:guide
       position="19,19"
       orientation="0,-16"
       id="guide4136" />
    <sodipodi:guide
       position="3,22"
       orientation="19.000011,0"
       id="guide4152" />
    <sodipodi:guide
       position="15,3"
       orientation="0,4.0000019"
       id="guide4162" />
    <sodipodi:guide
       position="19.000002,3"
       orientation="-19,0"
       id="guide4164" />
    <sodipodi:guide
       position="19.000002,22"
       orientation="0,-4.0000019"
       id="guide4166" />
  </sodipodi:namedview>
  <metadata
     id="metadata4364">
    <rdf:RDF>
      <cc:Work
         rdf:about="">
        <dc:format>image/svg+xml</dc:format>
        <dc:type
           rdf:resource="http://purl.org/dc/dcmitype/StillImage" />
        <dc:title />
      </cc:Work>
    </rdf:RDF>
  </metadata>
  <g
     id="layer1"
     inkscape:label="Layer 1"
     inkscape:groupmode="layer"
     transform="translate(0,-26)">
    <rect
       style="color:#000000;clip-rule:nonzero;display:inline;overflow:visible;visibility:visible;opacity:1;isolation:auto;mix-blend-mode:normal;color-interpolation:sRGB;color-interpolation-filters:linearRGB;solid-color:#000000;solid-opacity:1;fill:#304050;fill-opacity:1;fill-rule:nonzero;stroke:none;stroke-width:1;stroke-linecap:butt;stroke-linejoin:miter;stroke-miterlimit:4;stroke-dasharray:none;stroke-dashoffset:0;stroke-opacity:1;color-rendering:auto;image-rendering:auto;shape-rendering:auto;text-rendering:auto;enable-background:accumulate"
       id="rect4147"
       width="2"
       height="2"
       x="-2"
       y="26" />
    <path
       style="opacity:1;fill:#304050;fill-opacity:1;stroke:none;stroke-width:0.1;stroke-linecap:round;stroke-linejoin:miter;stroke-miterlimit:4;stroke-dasharray:none;stroke-opacity:0.29943501"
       d="M 5.5 3 C 4.115 3 3 4.115 3 5.5 C 3 6.2612432 3.3435819 6.932821 3.8769531 7.390625 A 8 8 0 0 0 3 11 A 8 8 0 0 0 3.875 14.611328 C 3.3428386 15.069113 3 15.739751 3 16.5 C 3 17.885 4.115 19 5.5 19 C 6.2622377 19 6.9347567 18.655676 7.3925781 18.121094 A 8 8 0 0 0 11 19 A 8 8 0 0 0 14.611328 18.125 C 15.069113 18.657161 15.739751 19 16.5 19 C 17.885 19 19 17.885 19 16.5 C 19 15.737762 18.655676 15.065243 18.121094 14.607422 A 8 8 0 0 0 19 11 A 8 8 0 0 0 18.125 7.3886719 C 18.657161 6.9308872 19 6.2602487 19 5.5 C 19 4.115 17.885 3 16.5 3 C 15.737762 3 15.065243 3.3443242 14.607422 3.8789062 A 8 8 0 0 0 11 3 A 8 8 0 0 0 7.3886719 3.875 C 6.9308872 3.3428386 6.2602487 3 5.5 3 z M 5.5 5 C 5.5636567 5 5.6237855 5.0136534 5.6796875 5.0351562 C 5.6796875 5.0351562 5.6816406 5.0371094 5.6816406 5.0371094 C 5.7653138 5.0698331 5.8340204 5.1282122 5.8886719 5.1972656 C 5.8999233 5.211717 5.9102895 5.2265201 5.9199219 5.2421875 C 5.9668943 5.3179235 6 5.4036805 6 5.5 C 6 5.777 5.777 6 5.5 6 C 5.4032295 6 5.3178903 5.9653823 5.2421875 5.9179688 C 5.2280946 5.9092612 5.214281 5.9006494 5.2011719 5.890625 C 5.1307937 5.8355646 5.0702909 5.7667487 5.0371094 5.6816406 C 5.0150897 5.6251619 5 5.5644558 5 5.5 C 5 5.223 5.223 5 5.5 5 z M 11 5 A 6 6 0 0 1 14.033203 5.8300781 A 6 6 0 0 1 14.041016 5.8339844 A 6 6 0 0 1 14.535156 6.1601562 A 6 6 0 0 1 15 6.5371094 A 6 6 0 0 1 15.425781 6.9589844 A 6 6 0 0 1 15.806641 7.421875 A 6 6 0 0 1 16.167969 7.9667969 A 6 6 0 0 1 17 11 A 6 6 0 0 1 16.169922 14.033203 A 6 6 0 0 1 16.166016 14.041016 A 6 6 0 0 1 15.839844 14.535156 A 6 6 0 0 1 15.462891 15 A 6 6 0 0 1 15.041016 15.425781 A 6 6 0 0 1 14.578125 15.806641 A 6 6 0 0 1 14.033203 16.167969 A 6 6 0 0 1 11 17 A 6 6 0 0 1 7.9667969 16.169922 A 6 6 0 0 1 7.9589844 16.166016 A 6 6 0 0 1 7.4648438 15.839844 A 6 6 0 0 1 7 15.462891 A 6 6 0 0 1 6.5742188 15.041016 A 6 6 0 0 1 6.1933594 14.578125 A 6 6 0 0 1 5.8320312 14.033203 A 6 6 0 0 1 5 11 A 6 6 0 0 1 5.8300781 7.9667969 A 6 6 0 0 1 5.8339844 7.9589844 A 6 6 0 0 1 6.1601562 7.4648438 A 6 6 0 0 1 6.5371094 7 A 6 6 0 0 1 6.9589844 6.5742188 A 6 6 0 0 1 7.421875 6.1933594 A 6 6 0 0 1 7.9667969 5.8320312 A 6 6 0 0 1 11 5 z M 16.5 5 C 16.777 5 17 5.223 17 5.5 C 17 5.56925 16.986172 5.6354531 16.960938 5.6953125 C 16.935703 5.7551719 16.898703 5.8083281 16.853516 5.8535156 C 16.808328 5.8987031 16.755173 5.9357031 16.695312 5.9609375 C 16.635453 5.9861719 16.56925 6 16.5 6 C 16.43075 6 16.364547 5.9861719 16.304688 5.9609375 C 16.245334 5.9359164 16.193388 5.8981761 16.148438 5.8535156 A 0.5 0.5 0 0 1 16.146484 5.8535156 C 16.10232 5.809351 16.066177 5.7574555 16.041016 5.6992188 C 16.040433 5.6978699 16.039634 5.6966675 16.039062 5.6953125 A 0.5 0.5 0 0 1 16.039062 5.6933594 C 16.014286 5.6339612 16 5.5685841 16 5.5 C 16 5.43075 16.013828 5.3645469 16.039062 5.3046875 C 16.064084 5.2453339 16.101824 5.193388 16.146484 5.1484375 C 16.146484 5.1484375 16.146484 5.1464844 16.146484 5.1464844 C 16.190008 5.1029609 16.241603 5.0680718 16.298828 5.0429688 C 16.302844 5.0412071 16.306476 5.0387679 16.310547 5.0371094 C 16.368921 5.0133277 16.432881 5 16.5 5 z M 11 6 A 5 5 0 0 0 6 11 A 5 5 0 0 0 11 16 A 5 5 0 0 0 16 11 A 5 5 0 0 0 11 6 z M 11 8 A 3 3 0 0 1 14 11 A 3 3 0 0 1 11 14 A 3 3 0 0 1 8 11 A 3 3 0 0 1 11 8 z M 11 10 A 1 1 0 0 0 10 11 A 1 1 0 0 0 11 12 A 1 1 0 0 0 12 11 A 1 1 0 0 0 11 10 z M 5.5 16 C 5.56925 16 5.6354531 16.013828 5.6953125 16.039062 C 5.7546661 16.064084 5.806612 16.101824 5.8515625 16.146484 C 5.8515625 16.146484 5.8535156 16.146484 5.8535156 16.146484 C 5.8976802 16.190649 5.9338227 16.242544 5.9589844 16.300781 A 0.5 0.5 0 0 1 5.9609375 16.306641 C 5.9857138 16.366039 6 16.431416 6 16.5 C 6 16.56925 5.9861719 16.635453 5.9609375 16.695312 C 5.9359164 16.754666 5.8981761 16.806612 5.8535156 16.851562 A 0.5 0.5 0 0 1 5.8535156 16.853516 C 5.8099921 16.897039 5.7583968 16.931928 5.7011719 16.957031 A 0.5 0.5 0 0 1 5.6894531 16.962891 C 5.6310792 16.986672 5.5671192 17 5.5 17 C 5.223 17 5 16.777 5 16.5 C 5 16.43075 5.0138281 16.364547 5.0390625 16.304688 C 5.0642969 16.244827 5.1012969 16.191672 5.1464844 16.146484 C 5.1916719 16.101297 5.2448281 16.064297 5.3046875 16.039062 C 5.3645469 16.013828 5.43075 16 5.5 16 z M 16.5 16 C 16.56925 16 16.635453 16.013828 16.695312 16.039062 C 16.754666 16.064084 16.806612 16.101824 16.851562 16.146484 C 16.851562 16.146484 16.853516 16.146484 16.853516 16.146484 C 16.897039 16.190008 16.931928 16.241603 16.957031 16.298828 A 0.5 0.5 0 0 1 16.962891 16.310547 C 16.986672 16.368921 17 16.432881 17 16.5 C 17 16.777 16.777 17 16.5 17 C 16.43075 17 16.364547 16.986172 16.304688 16.960938 C 16.244827 16.935703 16.191672 16.898703 16.146484 16.853516 C 16.101297 16.808328 16.064297 16.755173 16.039062 16.695312 C 16.013828 16.635453 16 16.56925 16 16.5 C 16 16.43075 16.013828 16.364547 16.039062 16.304688 C 16.064084 16.245334 16.101824 16.193388 16.146484 16.148438 C 16.146484 16.148438 16.146484 16.146484 16.146484 16.146484 C 16.190649 16.10232 16.242544 16.066177 16.300781 16.041016 C 16.30213 16.040433 16.303332 16.039634 16.304688 16.039062 A 0.5 0.5 0 0 1 16.306641 16.039062 C 16.366039 16.014286 16.431416 16 16.5 16 z "
       transform="translate(0,26)"
       id="path4161" />
  </g>
</svg>
