<?xml version="1.0" encoding="UTF-8" standalone="no"?>
<!-- Created with Inkscape (http://www.inkscape.org/) -->

<svg
   xmlns:dc="http://purl.org/dc/elements/1.1/"
   xmlns:cc="http://creativecommons.org/ns#"
   xmlns:rdf="http://www.w3.org/1999/02/22-rdf-syntax-ns#"
   xmlns:svg="http://www.w3.org/2000/svg"
   xmlns="http://www.w3.org/2000/svg"
   xmlns:sodipodi="http://sodipodi.sourceforge.net/DTD/sodipodi-0.dtd"
   xmlns:inkscape="http://www.inkscape.org/namespaces/inkscape"
   width="48"
   height="48"
   id="svg2"
   version="1.1"
   inkscape:version="0.48+devel r12859"
   sodipodi:docname="dialog-question.svg">
  <defs
     id="defs4" />
  <sodipodi:namedview
     id="base"
     pagecolor="#ffffff"
     bordercolor="#666666"
     borderopacity="1.0"
     inkscape:pageopacity="0.0"
     inkscape:pageshadow="2"
     inkscape:zoom="6.9598906"
     inkscape:cx="27.400338"
     inkscape:cy="36.059204"
     inkscape:document-units="px"
     inkscape:current-layer="layer1"
     showgrid="false"
     inkscape:window-width="1366"
     inkscape:window-height="673"
     inkscape:window-x="0"
     inkscape:window-y="24"
     inkscape:window-maximized="1" />
  <metadata
     id="metadata7">
    <rdf:RDF>
      <cc:Work
         rdf:about="">
        <dc:format>image/svg+xml</dc:format>
        <dc:type
           rdf:resource="http://purl.org/dc/dcmitype/StillImage" />
        <dc:title />
      </cc:Work>
    </rdf:RDF>
  </metadata>
  <g
     inkscape:label="Capa 1"
     inkscape:groupmode="layer"
     id="layer1"
     transform="translate(0,-1004.3622)">
    <g
       id="layer1-8"
       inkscape:label="Capa 1"
       transform="translate(5.0000001e-7,5.0000003e-6)">
      <g
         transform="translate(-61.043672,-14.648105)"
         id="g846">
        <path
           style="fill:#4d4d4d;fill-opacity:1;stroke-width:0.2;stroke-linejoin:round"
           inkscape:connector-curvature="0"
           d="m 84.443686,1052.0103 c 1.656911,0 3.000049,1.3429 3.000049,3 0,1.6571 -1.343138,3 -3.000049,3 -1.656837,0 -2.99998,-1.3429 -2.99998,-3 0,-1.6571 1.343143,-3 2.99998,-3 z m 0.600027,-24 c 5.301931,0 9.599955,3.4293 9.599955,8.4 0,1.8 -1.199978,4.8 -3.599926,6 -2.400028,1.2 -3.600007,2.8115 -3.600007,4.8 l 0,2.4 -6.000029,0 0,-1.8 c 0,-4.0811 3.600007,-6.6 4.79998,-7.8 2.400028,-2.4 2.400028,-2.733 2.400028,-3.6 0,-1.9885 -1.611819,-3.6 -3.600001,-3.6 -1.988263,0 -3.600007,1.6115 -3.600007,3.6 l 0,1.8 -6.000031,0 0,-1.2 c 10e-7,-4.9707 4.298101,-9 9.600038,-9 z"
           id="path829" />
      </g>
    </g>
  </g>
</svg>
