<?xml version="1.0" encoding="UTF-8" standalone="no"?>
<!-- Created with Inkscape (http://www.inkscape.org/) -->

<svg
   xmlns:dc="http://purl.org/dc/elements/1.1/"
   xmlns:cc="http://creativecommons.org/ns#"
   xmlns:rdf="http://www.w3.org/1999/02/22-rdf-syntax-ns#"
   xmlns:svg="http://www.w3.org/2000/svg"
   xmlns="http://www.w3.org/2000/svg"
   xmlns:xlink="http://www.w3.org/1999/xlink"
   xmlns:sodipodi="http://sodipodi.sourceforge.net/DTD/sodipodi-0.dtd"
   xmlns:inkscape="http://www.inkscape.org/namespaces/inkscape"
   version="1.0"
   width="48"
   height="48"
   id="svg2"
   style="display:inline"
   inkscape:version="0.48+devel r"
   sodipodi:docname="gpm-primary-060.svg">
  <sodipodi:namedview
     pagecolor="#ffffff"
     bordercolor="#666666"
     borderopacity="1"
     objecttolerance="10"
     gridtolerance="10"
     guidetolerance="10"
     inkscape:pageopacity="0"
     inkscape:pageshadow="2"
     inkscape:window-width="1366"
     inkscape:window-height="668"
     id="namedview26"
     showgrid="true"
     inkscape:zoom="14.178043"
     inkscape:cx="29.4171"
     inkscape:cy="24.606052"
     inkscape:window-x="-2"
     inkscape:window-y="23"
     inkscape:window-maximized="1"
     inkscape:current-layer="svg2"
     showguides="true">
    <inkscape:grid
       type="xygrid"
       id="grid4104" />
    <sodipodi:guide
       position="9,39"
       orientation="30,0"
       id="guide4108" />
    <sodipodi:guide
       position="9,9"
       orientation="0,30"
       id="guide4110" />
    <sodipodi:guide
       position="39,9"
       orientation="-30,0"
       id="guide4112" />
    <sodipodi:guide
       position="39,39"
       orientation="0,-30"
       id="guide4114" />
  </sodipodi:namedview>
  <defs
     id="defs4">
    <linearGradient
       id="linearGradient4081">
      <stop
         id="stop4083"
         style="stop-color:#aaaaaa;stop-opacity:1"
         offset="0" />
      <stop
         id="stop4085"
         style="stop-color:#f0f0f0;stop-opacity:1"
         offset="1" />
    </linearGradient>
    <linearGradient
       x1="39"
       y1="72"
       x2="39.196381"
       y2="24.266857"
       id="linearGradient3763"
       xlink:href="#linearGradient4081"
       gradientUnits="userSpaceOnUse" />
    <linearGradient
       x1="44"
       y1="66"
       x2="44"
       y2="30.942904"
       id="linearGradient3636"
       xlink:href="#linearGradient4081"
       gradientUnits="userSpaceOnUse" />
    <linearGradient
       id="linearGradient4081-3">
      <stop
         offset="0"
         style="stop-color:#aaaaaa;stop-opacity:1"
         id="stop4083-2" />
      <stop
         offset="1"
         style="stop-color:#f0f0f0;stop-opacity:1"
         id="stop4085-3" />
    </linearGradient>
    <linearGradient
       id="linearGradient3295-9-7">
      <stop
         offset="0"
         style="stop-color:#559829;stop-opacity:1"
         id="stop3297-2-1" />
      <stop
         offset="1"
         style="stop-color:#86c837;stop-opacity:1"
         id="stop3299-0-9" />
    </linearGradient>
    <linearGradient
       gradientTransform="translate(0,-74)"
       gradientUnits="userSpaceOnUse"
       xlink:href="#linearGradient3295-9-7"
       id="linearGradient2891"
       y2="28"
       x2="39"
       y1="68"
       x1="39" />
  </defs>
  <metadata
     id="metadata7">
    <rdf:RDF>
      <cc:Work
         rdf:about="">
        <dc:format>image/svg+xml</dc:format>
        <dc:type
           rdf:resource="http://purl.org/dc/dcmitype/StillImage" />
        <dc:title></dc:title>
      </cc:Work>
    </rdf:RDF>
  </metadata>
  <path
     style="opacity:1;fill:#4d4d4d;fill-opacity:0.49803922;stroke:none;stroke-width:2.79999995;stroke-miterlimit:4;stroke-dasharray:none;stroke-opacity:0.55026455"
     d="M 24 9 C 15.69 9 9 15.69 9 24 C 9 32.31 15.69 39 24 39 C 32.31 39 39 32.31 39 24 C 39 15.69 32.31 9 24 9 z M 24 13 C 30.094 13 35 17.906 35 24 C 35 30.094 30.094 35 24 35 C 17.906 35 13 30.094 13 24 C 13 17.906 17.906 13 24 13 z M 24 16 L 20 26 L 24 26 L 24 33 L 28 23 L 24 23 L 24 16 z "
     id="rect4116" />
  <path
     style="opacity:1;fill:#2ecc71;fill-opacity:1;stroke:none;stroke-width:2.79999995;stroke-miterlimit:4;stroke-dasharray:none;stroke-opacity:0.55026455"
     d="M 9.3222656 21 C 9.1223847 21.969899 9 22.968606 9 24 C 9 32.31 15.69 39 24 39 C 32.31 39 39 32.31 39 24 C 39 22.968606 38.877615 21.969899 38.677734 21 L 34.576172 21 C 34.84682 21.953307 35 22.956837 35 24 C 35 30.094 30.094 35 24 35 C 17.906 35 13 30.094 13 24 C 13 22.956837 13.15318 21.953307 13.423828 21 L 9.3222656 21 z "
     id="path4219" />
</svg>
