<?xml version="1.0" encoding="UTF-8" standalone="no"?>
<!-- Created with Inkscape (http://www.inkscape.org/) -->

<svg
   xmlns:dc="http://purl.org/dc/elements/1.1/"
   xmlns:cc="http://creativecommons.org/ns#"
   xmlns:rdf="http://www.w3.org/1999/02/22-rdf-syntax-ns#"
   xmlns:svg="http://www.w3.org/2000/svg"
   xmlns="http://www.w3.org/2000/svg"
   xmlns:sodipodi="http://sodipodi.sourceforge.net/DTD/sodipodi-0.dtd"
   xmlns:inkscape="http://www.inkscape.org/namespaces/inkscape"
   version="1.1"
   width="48"
   height="48"
   id="svg3014"
   inkscape:version="0.48+devel r12662"
   sodipodi:docname="indicator-cpufreq-100.svg">
  <sodipodi:namedview
     pagecolor="#ffffff"
     bordercolor="#666666"
     borderopacity="1"
     objecttolerance="10"
     gridtolerance="10"
     guidetolerance="10"
     inkscape:pageopacity="0"
     inkscape:pageshadow="2"
     inkscape:window-width="1366"
     inkscape:window-height="718"
     id="namedview11"
     showgrid="false"
     inkscape:zoom="11.313709"
     inkscape:cx="15.762737"
     inkscape:cy="24.956923"
     inkscape:window-x="0"
     inkscape:window-y="28"
     inkscape:window-maximized="1"
     inkscape:current-layer="svg3014">
    <sodipodi:guide
       position="9,39"
       orientation="30,0"
       id="guide3281" />
    <sodipodi:guide
       position="9,9"
       orientation="0,30"
       id="guide3283" />
    <sodipodi:guide
       position="39,9"
       orientation="-30,0"
       id="guide3285" />
    <sodipodi:guide
       position="39,39"
       orientation="0,-30"
       id="guide3287" />
    <sodipodi:guide
       position="9,20"
       orientation="11,0"
       id="guide3301" />
    <sodipodi:guide
       position="9,9"
       orientation="0,11"
       id="guide3303" />
    <sodipodi:guide
       position="20,9"
       orientation="-11,0"
       id="guide3305" />
    <sodipodi:guide
       position="20,20"
       orientation="0,-11"
       id="guide3307" />
  </sodipodi:namedview>
  <defs
     id="defs11" />
  <metadata
     id="metadata3019">
    <rdf:RDF>
      <cc:Work
         rdf:about="">
        <dc:format>image/svg+xml</dc:format>
        <dc:type
           rdf:resource="http://purl.org/dc/dcmitype/StillImage" />
        <dc:title />
      </cc:Work>
    </rdf:RDF>
  </metadata>
  <rect
     style="fill:none;stroke:none"
     id="rect3277"
     width="30"
     height="30"
     x="9"
     y="9" />
  <path
     style="fill:#4d4d4d;fill-opacity:1;fill-rule:evenodd;stroke:none"
     d="M 23.994141 9 C 20.066877 9.0002328 16.165567 10.617701 13.390625 13.394531 C 10.615683 16.171361 9 20.073326 9 24 C 9 25.352084 9.2038652 26.698701 9.5683594 28 L 13.771484 28 C 13.273501 26.727501 13 25.367002 13 24 C 13 21.120439 14.183793 18.258999 16.21875 16.222656 C 18.253707 14.186314 21.114147 13.000171 23.994141 13 C 26.874134 12.999829 29.737836 14.18435 31.775391 16.220703 C 33.812945 18.257056 35 21.120118 35 24 C 35 26.879882 33.812945 29.742944 31.775391 31.779297 C 29.737836 33.81565 26.874134 35.000171 23.994141 35 C 23.661988 34.99998 23.33018 34.982902 23 34.951172 L 23 38.962891 C 23.330426 38.986908 23.66241 38.99998 23.994141 39 C 27.921404 39.000233 31.825033 37.384266 34.603516 34.607422 C 37.381999 31.830578 39 27.927112 39 24 C 39 20.072888 37.381999 16.169422 34.603516 13.392578 C 31.825033 10.615734 27.921404 8.9997672 23.994141 9 z "
     id="path3289" />
  <path
     d="m 25.999999,37 a 2.0013857,2.0000615 0 1 1 0,0 2.0013857,2.0000615 0 1 1 0,0 z"
     sodipodi:ry="2.0000615"
     sodipodi:rx="2.0013857"
     sodipodi:cy="37"
     sodipodi:cx="23.998613"
     id="path3291"
     style="fill:none;fill-opacity:1;fill-rule:evenodd;stroke:none"
     sodipodi:type="arc" />
  <path
     sodipodi:type="arc"
     style="fill:#800080;fill-opacity:1;fill-rule:evenodd;stroke:none"
     id="path3310"
     sodipodi:cx="23.998613"
     sodipodi:cy="24"
     sodipodi:rx="2.0013857"
     sodipodi:ry="2.0000615"
     d="m 25.999999,24 a 2.0013857,2.0000615 0 1 1 0,0 2.0013857,2.0000615 0 1 1 0,0 z" />
  <path
     d="m 25.999999,24 a 2.0013857,2.0000615 0 1 1 0,0 2.0013857,2.0000615 0 1 1 0,0 z"
     sodipodi:ry="2.0000615"
     sodipodi:rx="2.0013857"
     sodipodi:cy="24"
     sodipodi:cx="23.998613"
     id="path3312"
     style="fill:#e74c3c;fill-opacity:1;fill-rule:evenodd;stroke:none"
     sodipodi:type="arc" />
  <rect
     style="fill:#e74c3c;fill-opacity:1;fill-rule:evenodd;stroke:none"
     id="rect3322"
     width="2"
     height="15"
     x="23"
     y="24"
     inkscape:transform-center-y="7.501475" />
</svg>
