<?xml version="1.0" encoding="UTF-8" standalone="no"?>
<!-- Created with Inkscape (http://www.inkscape.org/) -->

<svg
   xmlns:dc="http://purl.org/dc/elements/1.1/"
   xmlns:cc="http://creativecommons.org/ns#"
   xmlns:rdf="http://www.w3.org/1999/02/22-rdf-syntax-ns#"
   xmlns:svg="http://www.w3.org/2000/svg"
   xmlns="http://www.w3.org/2000/svg"
   xmlns:sodipodi="http://sodipodi.sourceforge.net/DTD/sodipodi-0.dtd"
   xmlns:inkscape="http://www.inkscape.org/namespaces/inkscape"
   width="48"
   height="48"
   id="svg2"
   version="1.1"
   inkscape:version="0.48+devel r12662"
   sodipodi:docname="network-offline.svg">
  <defs
     id="defs4" />
  <sodipodi:namedview
     id="base"
     pagecolor="#ffffff"
     bordercolor="#666666"
     borderopacity="1.0"
     inkscape:pageopacity="0.0"
     inkscape:pageshadow="2"
     inkscape:zoom="11.477675"
     inkscape:cx="16.278403"
     inkscape:cy="29.168296"
     inkscape:document-units="px"
     inkscape:current-layer="layer1"
     showgrid="false"
     inkscape:window-width="1366"
     inkscape:window-height="714"
     inkscape:window-x="0"
     inkscape:window-y="30"
     inkscape:window-maximized="1">
    <inkscape:grid
       type="xygrid"
       id="grid3013"
       empspacing="5"
       visible="true"
       enabled="true"
       snapvisiblegridlinesonly="true" />
    <sodipodi:guide
       position="9,39.000017"
       orientation="30,0"
       id="guide3265" />
    <sodipodi:guide
       position="9,9.0000174"
       orientation="0,30"
       id="guide3267" />
    <sodipodi:guide
       position="39,9.0000174"
       orientation="-30,0"
       id="guide3269" />
    <sodipodi:guide
       position="39,39.000017"
       orientation="0,-30"
       id="guide3271" />
    <sodipodi:guide
       position="9,20.000017"
       orientation="11,0"
       id="guide3352" />
    <sodipodi:guide
       position="9,9.0000174"
       orientation="0,11"
       id="guide3354" />
    <sodipodi:guide
       position="20,9.0000174"
       orientation="-11,0"
       id="guide3356" />
    <sodipodi:guide
       position="20,20.000017"
       orientation="0,-11"
       id="guide3358" />
    <sodipodi:guide
       position="28,39.000017"
       orientation="11,0"
       id="guide3366" />
    <sodipodi:guide
       position="28,28.000017"
       orientation="0,11"
       id="guide3368" />
    <sodipodi:guide
       position="39,28.000017"
       orientation="-11,0"
       id="guide3370" />
    <sodipodi:guide
       position="39,39.000017"
       orientation="0,-11"
       id="guide3372" />
  </sodipodi:namedview>
  <metadata
     id="metadata7">
    <rdf:RDF>
      <cc:Work
         rdf:about="">
        <dc:format>image/svg+xml</dc:format>
        <dc:type
           rdf:resource="http://purl.org/dc/dcmitype/StillImage" />
        <dc:title></dc:title>
      </cc:Work>
    </rdf:RDF>
  </metadata>
  <g
     inkscape:label="Capa 1"
     inkscape:groupmode="layer"
     id="layer1"
     transform="translate(0,-1004.3622)">
    <rect
       style="fill:none;fill-opacity:1;fill-rule:evenodd;stroke:none"
       id="rect3261"
       width="30"
       height="30"
       x="9"
       y="1013.3622" />
    <rect
       y="1032.3622"
       x="9"
       height="11"
       width="11"
       id="rect3348"
       style="fill:none;fill-opacity:1;fill-rule:evenodd;stroke:none" />
    <path
       style="fill:#f1c40f;fill-opacity:1;fill-rule:evenodd;stroke:none"
       d="m 16.221826,1025.5338 c -2.938029,2.938 -2.938029,7.6685 0,10.6066 2.938028,2.938 7.668573,2.938 10.606601,0 l 4.949748,-4.9498 c 2.938028,-2.938 2.938028,-7.6685 0,-10.6066 -2.938029,-2.938 -7.668573,-2.938 -10.606602,0 l -4.949747,4.9498 z m 2.827046,2.9568 5.079568,-5.0795 c 1.335467,-1.3355 3.48584,-1.3341 4.821308,0 1.335468,1.3354 1.335467,3.4844 0,4.8199 l -5.079568,5.0795 c -1.335468,1.3355 -3.484459,1.3355 -4.819927,0 -1.335468,-1.3354 -1.336849,-3.4858 -0.0014,-4.8213 z"
       id="rect3336"
       inkscape:connector-curvature="0" />
    <path
       sodipodi:type="arc"
       style="fill:none;fill-opacity:1;fill-rule:evenodd;stroke:none"
       id="path3340"
       sodipodi:cx="-710.19269"
       sodipodi:cy="749.63245"
       sodipodi:rx="2.0013857"
       sodipodi:ry="2.0000615"
       d="m -708.1913,749.63245 a 2.0013857,2.0000615 0 1 1 0,0 2.0013857,2.0000615 0 1 1 0,0 z"
       transform="matrix(0.70710678,-0.70710678,0.70710678,0.70710678,0,0)" />
    <path
       d="m -699.1913,744.13245 a 2.0013857,2.0000615 0 1 1 0,0 2.0013857,2.0000615 0 1 1 0,0 z"
       sodipodi:ry="2.0000615"
       sodipodi:rx="2.0013857"
       sodipodi:cy="744.13245"
       sodipodi:cx="-701.19269"
       id="path3342"
       style="fill:none;fill-opacity:1;fill-rule:evenodd;stroke:none"
       sodipodi:type="arc"
       transform="matrix(0.70710678,-0.70710678,0.70710678,0.70710678,0,0)" />
    <path
       sodipodi:type="arc"
       style="fill:none;fill-opacity:1;fill-rule:evenodd;stroke:none"
       id="path3344"
       sodipodi:cx="-719.19269"
       sodipodi:cy="744.13245"
       sodipodi:rx="2.0013857"
       sodipodi:ry="2.0000615"
       d="m -717.1913,744.13245 a 2.0013857,2.0000615 0 1 1 0,0 2.0013857,2.0000615 0 1 1 0,0 z"
       transform="matrix(0.70710678,-0.70710678,0.70710678,0.70710678,0,0)" />
    <rect
       style="fill:#f1c40f;fill-opacity:1;fill-rule:evenodd;stroke:none"
       id="rect3346"
       width="4"
       height="11.557"
       x="742.13245"
       y="-729.40454"
       ry="0"
       transform="matrix(0.70710678,0.70710678,0.70710678,-0.70710678,0,0)" />
    <rect
       style="fill:none;fill-opacity:1;fill-rule:evenodd;stroke:none"
       id="rect3362"
       width="11"
       height="11"
       x="28"
       y="1013.3622" />
    <rect
       transform="matrix(0.70710678,0.70710678,0.70710678,-0.70710678,0,0)"
       ry="0"
       y="-702.53516"
       x="742.13245"
       height="11.557"
       width="4"
       id="rect3360"
       style="fill:#f1c40f;fill-opacity:1;fill-rule:evenodd;stroke:none" />
  </g>
</svg>
