<?xml version="1.0" encoding="UTF-8" standalone="no"?>
<!-- Generator: Adobe Illustrator 14.0.0, SVG Export Plug-In . SVG Version: 6.00 Build 43363)  -->

<svg
   xmlns:dc="http://purl.org/dc/elements/1.1/"
   xmlns:cc="http://creativecommons.org/ns#"
   xmlns:rdf="http://www.w3.org/1999/02/22-rdf-syntax-ns#"
   xmlns:svg="http://www.w3.org/2000/svg"
   xmlns="http://www.w3.org/2000/svg"
   xmlns:sodipodi="http://sodipodi.sourceforge.net/DTD/sodipodi-0.dtd"
   xmlns:inkscape="http://www.inkscape.org/namespaces/inkscape"
   id="Layer_1"
   enable-background="new 0 0 22 22"
   xml:space="preserve"
   height="48"
   viewBox="0 0 48 48"
   width="48"
   version="1.1"
   y="0px"
   x="0px"
   inkscape:version="0.48+devel r12662"
   sodipodi:docname="system-devices-panel.svg"><defs
   id="defs12" /><sodipodi:namedview
   pagecolor="#ffffff"
   bordercolor="#666666"
   borderopacity="1"
   objecttolerance="10"
   gridtolerance="10"
   guidetolerance="10"
   inkscape:pageopacity="0"
   inkscape:pageshadow="2"
   inkscape:window-width="1366"
   inkscape:window-height="714"
   id="namedview10"
   showgrid="false"
   inkscape:zoom="6.2894635"
   inkscape:cx="64.828057"
   inkscape:cy="36.378913"
   inkscape:window-x="0"
   inkscape:window-y="30"
   inkscape:window-maximized="1"
   inkscape:current-layer="Layer_1"><sodipodi:guide
     position="9,39"
     orientation="30,0"
     id="guide3263" /><sodipodi:guide
     position="9,9"
     orientation="0,30"
     id="guide3265" /><sodipodi:guide
     position="39,9"
     orientation="-30,0"
     id="guide3267" /><sodipodi:guide
     position="39,39"
     orientation="0,-30"
     id="guide3269" /></sodipodi:namedview><metadata
   id="metadata13"><rdf:RDF><cc:Work
       rdf:about=""><dc:format>image/svg+xml</dc:format><dc:type
         rdf:resource="http://purl.org/dc/dcmitype/StillImage" /><dc:title /></cc:Work></rdf:RDF></metadata>


<rect
   style="fill:none;fill-opacity:1;fill-rule:evenodd;stroke:none"
   id="rect3259"
   width="30"
   height="30"
   x="9"
   y="9" /><path
   style="fill:#4d4d4d;fill-opacity:1;fill-rule:evenodd;stroke:none"
   d="M 23.994141 9 C 20.066877 9.0002328 16.165567 10.617701 13.390625 13.394531 C 10.615683 16.171361 9 20.073326 9 24 C 9 27.926674 10.615683 31.828639 13.390625 34.605469 C 16.165567 37.382299 20.066877 38.999767 23.994141 39 C 27.921404 39.000233 31.825033 37.384266 34.603516 34.607422 C 37.381999 31.830578 39 27.927112 39 24 C 39 20.072888 37.381999 16.169422 34.603516 13.392578 C 31.825033 10.615734 27.921404 8.9997672 23.994141 9 z M 23.994141 13 C 26.874134 12.999829 29.737836 14.18435 31.775391 16.220703 C 33.812945 18.257056 35 21.120118 35 24 C 35 26.879882 33.812945 29.742944 31.775391 31.779297 C 29.737836 33.81565 26.874134 35.000171 23.994141 35 C 21.114147 34.999829 18.253707 33.813686 16.21875 31.777344 C 14.183793 29.741001 13 26.879561 13 24 C 13 21.120439 14.183793 18.258999 16.21875 16.222656 C 18.253707 14.186314 21.114147 13.000171 23.994141 13 z "
   id="path3271" /><path
   d="m 25.999999,37 a 2.0013857,2.0000615 0 1 1 0,0 2.0013857,2.0000615 0 1 1 0,0 z"
   sodipodi:ry="2.0000615"
   sodipodi:rx="2.0013857"
   sodipodi:cy="37"
   sodipodi:cx="23.998613"
   id="path3273"
   style="fill:none;fill-opacity:1;fill-rule:evenodd;stroke:none"
   sodipodi:type="arc" /><rect
   style="fill:#4d4d4d;fill-opacity:1;fill-rule:evenodd;stroke:none"
   id="rect3278"
   width="4"
   height="11"
   x="22"
   y="18.5" /></svg>