<?xml version="1.0" encoding="UTF-8" standalone="no"?>
<!-- Created with Inkscape (http://www.inkscape.org/) -->

<svg
   xmlns:dc="http://purl.org/dc/elements/1.1/"
   xmlns:cc="http://creativecommons.org/ns#"
   xmlns:rdf="http://www.w3.org/1999/02/22-rdf-syntax-ns#"
   xmlns:svg="http://www.w3.org/2000/svg"
   xmlns="http://www.w3.org/2000/svg"
   xmlns:sodipodi="http://sodipodi.sourceforge.net/DTD/sodipodi-0.dtd"
   xmlns:inkscape="http://www.inkscape.org/namespaces/inkscape"
   width="48"
   height="48"
   id="svg2"
   version="1.1"
   inkscape:version="0.48+devel r12662"
   sodipodi:docname="transmission-tray-icon.svg">
  <defs
     id="defs4" />
  <sodipodi:namedview
     id="base"
     pagecolor="#ffffff"
     bordercolor="#666666"
     borderopacity="1.0"
     inkscape:pageopacity="0.0"
     inkscape:pageshadow="2"
     inkscape:zoom="6.895137"
     inkscape:cx="42.870657"
     inkscape:cy="36.009135"
     inkscape:document-units="px"
     inkscape:current-layer="layer1"
     showgrid="false"
     inkscape:window-width="1366"
     inkscape:window-height="714"
     inkscape:window-x="0"
     inkscape:window-y="30"
     inkscape:window-maximized="1"
     width="0px"
     height="0px"
     fit-margin-top="0"
     fit-margin-left="0"
     fit-margin-right="0"
     fit-margin-bottom="0">
    <inkscape:grid
       type="xygrid"
       id="grid3850"
       empspacing="5"
       visible="true"
       enabled="true"
       snapvisiblegridlinesonly="true" />
    <sodipodi:guide
       position="9,39.000017"
       orientation="30,0"
       id="guide3265" />
    <sodipodi:guide
       position="9,9.0000174"
       orientation="0,30"
       id="guide3267" />
    <sodipodi:guide
       position="39,9.0000174"
       orientation="-30,0"
       id="guide3269" />
    <sodipodi:guide
       position="39,39.000017"
       orientation="0,-30"
       id="guide3271" />
  </sodipodi:namedview>
  <metadata
     id="metadata7">
    <rdf:RDF>
      <cc:Work
         rdf:about="">
        <dc:format>image/svg+xml</dc:format>
        <dc:type
           rdf:resource="http://purl.org/dc/dcmitype/StillImage" />
        <dc:title />
      </cc:Work>
    </rdf:RDF>
  </metadata>
  <g
     inkscape:label="Capa 1"
     inkscape:groupmode="layer"
     id="layer1"
     transform="translate(0,-1004.3622)">
    <rect
       style="fill:none;fill-opacity:1;fill-rule:evenodd;stroke:none"
       id="rect3261"
       width="30"
       height="30"
       x="9"
       y="1013.3622" />
    <rect
       y="1039.3622"
       x="9"
       height="4"
       width="30"
       id="rect3273"
       style="fill:#4d4d4d;fill-opacity:1;fill-rule:evenodd;stroke:none" />
    <rect
       y="1031.3615"
       x="22"
       height="7.9999957"
       width="4"
       id="rect3275"
       style="fill:#4d4d4d;fill-opacity:1;fill-rule:evenodd;stroke:none" />
    <path
       style="fill:#4d4d4d;fill-opacity:1;fill-rule:evenodd;stroke:none"
       d="M 22 9 C 17.014 9 13 13.014 13 18 C 13 22.986 17.014 27 22 27 L 26 27 C 30.986 27 35 22.986 35 18 C 35 13.014 30.986 9 26 9 L 22 9 z M 22 13 L 26 13 C 28.77 13 31 15.23 31 18 C 31 20.77 28.77 23 26 23 L 22 23 C 19.23 23 17 20.77 17 18 C 17 15.23 19.23 13 22 13 z "
       transform="translate(0,1004.3622)"
       id="rect3277" />
    <path
       sodipodi:type="arc"
       style="fill:none;fill-opacity:1;fill-rule:evenodd;stroke:none"
       id="path3281"
       sodipodi:cx="23.998613"
       sodipodi:cy="1029.3622"
       sodipodi:rx="2.0013857"
       sodipodi:ry="2.0000615"
       d="m 25.999999,1029.3622 a 2.0013857,2.0000615 0 1 1 0,0 2.0013857,2.0000615 0 1 1 0,0 z" />
    <path
       d="m 35.000001,1022.3622 a 2.0013857,2.0000615 0 1 1 0,0 2.0013857,2.0000615 0 1 1 0,0 z"
       sodipodi:ry="2.0000615"
       sodipodi:rx="2.0013857"
       sodipodi:cy="1022.3622"
       sodipodi:cx="32.998615"
       id="path3283"
       style="fill:none;fill-opacity:1;fill-rule:evenodd;stroke:none"
       sodipodi:type="arc" />
    <path
       sodipodi:type="arc"
       style="fill:none;fill-opacity:1;fill-rule:evenodd;stroke:none"
       id="path3285"
       sodipodi:cx="14.998614"
       sodipodi:cy="1022.3622"
       sodipodi:rx="2.0013857"
       sodipodi:ry="2.0000615"
       d="m 17,1022.3622 a 2.0013857,2.0000615 0 1 1 0,0 2.0013857,2.0000615 0 1 1 0,0 z" />
    <path
       d="m 25.999999,1015.3622 a 2.0013857,2.0000615 0 1 1 0,0 2.0013857,2.0000615 0 1 1 0,0 z"
       sodipodi:ry="2.0000615"
       sodipodi:rx="2.0013857"
       sodipodi:cy="1015.3622"
       sodipodi:cx="23.998613"
       id="path3287"
       style="fill:none;fill-opacity:1;fill-rule:evenodd;stroke:none"
       sodipodi:type="arc" />
  </g>
</svg>
