<?xml version="1.0" encoding="UTF-8" standalone="no"?>
<!-- Created using Karbon, part of Calligra: http://www.calligra.org/karbon -->

<svg
   xmlns:dc="http://purl.org/dc/elements/1.1/"
   xmlns:cc="http://creativecommons.org/ns#"
   xmlns:rdf="http://www.w3.org/1999/02/22-rdf-syntax-ns#"
   xmlns:svg="http://www.w3.org/2000/svg"
   xmlns="http://www.w3.org/2000/svg"
   xmlns:xlink="http://www.w3.org/1999/xlink"
   xmlns:sodipodi="http://sodipodi.sourceforge.net/DTD/sodipodi-0.dtd"
   xmlns:inkscape="http://www.inkscape.org/namespaces/inkscape"
   width="48"
   height="48"
   id="svg2"
   version="1.1"
   inkscape:version="0.91+devel r"
   sodipodi:docname="distributor-logo.svg">
  <metadata
     id="metadata13">
    <rdf:RDF>
      <cc:Work
         rdf:about="">
        <dc:format>image/svg+xml</dc:format>
        <dc:type
           rdf:resource="http://purl.org/dc/dcmitype/StillImage" />
        <dc:title></dc:title>
      </cc:Work>
    </rdf:RDF>
  </metadata>
  <sodipodi:namedview
     pagecolor="#ffffff"
     bordercolor="#666666"
     borderopacity="1"
     objecttolerance="10"
     gridtolerance="10"
     guidetolerance="10"
     inkscape:pageopacity="0"
     inkscape:pageshadow="2"
     inkscape:window-width="1366"
     inkscape:window-height="672"
     id="namedview11"
     showgrid="true"
     inkscape:showpageshadow="false"
     borderlayer="true"
     units="px"
     fit-margin-top="0"
     fit-margin-left="0"
     fit-margin-right="0"
     fit-margin-bottom="0"
     inkscape:zoom="10.273437"
     inkscape:cx="23.410335"
     inkscape:cy="21.111042"
     inkscape:window-x="-4"
     inkscape:window-y="25"
     inkscape:window-maximized="1"
     inkscape:current-layer="svg2">
    <inkscape:grid
       type="xygrid"
       id="grid4141"
       originx="0px"
       originy="1.4781952e-05px" />
    <sodipodi:guide
       position="0,48"
       orientation="48,0"
       id="guide4147" />
    <sodipodi:guide
       position="0,0"
       orientation="0,48"
       id="guide4149" />
    <sodipodi:guide
       position="48,0"
       orientation="-48,0"
       id="guide4151" />
    <sodipodi:guide
       position="48,48"
       orientation="0,-48"
       id="guide4153" />
    <sodipodi:guide
       position="2.0006936,41.000017"
       orientation="33.999987,0"
       id="guide4274" />
    <sodipodi:guide
       position="2.0006936,7.0000305"
       orientation="0,43.999993"
       id="guide4276" />
    <sodipodi:guide
       position="46.000687,7.0000305"
       orientation="-33.999987,0"
       id="guide4278" />
    <sodipodi:guide
       position="46.000687,41.000017"
       orientation="0,-43.999993"
       id="guide4280" />
    <sodipodi:guide
       position="14,34"
       orientation="20,0"
       id="guide4344" />
    <sodipodi:guide
       position="14,14"
       orientation="0,20"
       id="guide4346" />
    <sodipodi:guide
       position="34,14"
       orientation="-20,0"
       id="guide4348" />
    <sodipodi:guide
       position="34,34"
       orientation="0,-20"
       id="guide4350" />
  </sodipodi:namedview>
  <defs
     id="defs4">
    <linearGradient
       inkscape:collect="always"
       xlink:href="#linearGradient4470-6-6"
       id="linearGradient4341"
       x1="32"
       y1="59.999981"
       x2="32"
       y2="3.9999831"
       gradientUnits="userSpaceOnUse"
       gradientTransform="matrix(0.60714297,0,0,0.60714293,4.5714289,4.5714284)" />
    <linearGradient
       id="linearGradient4470-6-6"
       inkscape:collect="always">
      <stop
         id="stop4472-4-1"
         offset="0"
         style="stop-color:#282828;stop-opacity:1" />
      <stop
         id="stop4474-0-9"
         offset="1"
         style="stop-color:#323232;stop-opacity:1" />
    </linearGradient>
  </defs>
  <g
     inkscape:label="Capa 1"
     id="layer1"
     transform="matrix(0.60000004,0,0,0.60000004,4.7999993,-588.21736)">
    <g
       inkscape:label="Capa 1"
       id="layer1-7"
       transform="translate(-2.3162827e-8,1e-5)"
       style="opacity:0.5">
      <rect
         style="display:inline;opacity:0.5;fill:#a02c2c;fill-opacity:1;stroke:none"
         id="rect4040"
         width="56"
         height="56"
         x="3.999999"
         y="992.36218"
         ry="12.717864" />
      <circle
         style="display:inline;opacity:0.5;fill:#ff0000;fill-opacity:1;stroke:none"
         id="path4042"
         cx="32"
         cy="1020.3622"
         r="23"
         d="m 55,1020.3622 a 23,23 0 0 1 -23,23 23,23 0 0 1 -23,-23 23,23 0 0 1 23,-23.00002 23,23 0 0 1 23,23.00002 z" />
      <circle
         id="path4044"
         style="display:inline;opacity:0.5;fill:#ff6600;fill-opacity:1;stroke:none"
         cx="32"
         cy="1020.3622"
         r="15"
         d="m 47,1020.3622 a 15,15 0 0 1 -15,15 15,15 0 0 1 -15,-15 15,15 0 0 1 15,-15 15,15 0 0 1 15,15 z" />
    </g>
  </g>
  <rect
     style="opacity:1;fill:url(#linearGradient4341);fill-opacity:1;stroke:none;stroke-width:2.79999995;stroke-miterlimit:4;stroke-dasharray:none;stroke-opacity:0.55026455"
     id="rect4227"
     width="34"
     height="34"
     x="7"
     y="7"
     ry="0" />
  <path
     sodipodi:nodetypes="cccccccccccccccccccccsccccccccccccccccccccccccc"
     inkscape:connector-curvature="0"
     id="rect4454"
     d="m 14.093189,14.000124 8.7e-4,0.002 9.092395,12.910257 9.092838,-12.910257 0.435443,0 -5.993752,8.510851 c -0.01503,0.02061 -0.02837,0.04 -0.043,0.05988 l -0.09313,0.13113 c -0.15689,0.233643 -0.194366,0.624399 0.01003,0.912184 l 0.16008,0.227565 6.889912,9.784627 0.262062,0.371524 -0.262062,0 -2.456566,0 -0.435885,0 -5.291375,-7.513174 0,3.655862 0,3.857312 -0.435443,0 -3.19839,-4.542322 -0.217709,-0.308818 -5.657194,-8.035297 c -0.368394,-0.523254 -1.076202,-0.169689 -1.07084,0.364902 l 0,12.521645 -0.78841,0 0,-15.527089 0,-0.619077 0,-0.996269 0,-2.241979 0,-0.615247 z m 2.574957,0 0.435441,0 2.721289,0 0,0.0035 5.529487,7.851443 -0.217277,0.309289 -1.141816,1.621036 -0.217717,0.308847 -7.109406,-10.094234 z m 7.969647,11.807071 c -0.127653,0.0075 -0.25222,0.05747 -0.349864,0.156314 l -0.884628,1.256167 1.710282,2.42867 0,-3.64825 c -0.124311,-0.133157 -0.302509,-0.202845 -0.47579,-0.192901 z"
     style="display:inline;fill:#ffffff;fill-opacity:1;stroke:none" />
</svg>
