<?xml version="1.0" encoding="UTF-8" standalone="no"?>
<!-- Created with Inkscape (http://www.inkscape.org/) -->

<svg
   xmlns:dc="http://purl.org/dc/elements/1.1/"
   xmlns:cc="http://creativecommons.org/ns#"
   xmlns:rdf="http://www.w3.org/1999/02/22-rdf-syntax-ns#"
   xmlns:svg="http://www.w3.org/2000/svg"
   xmlns="http://www.w3.org/2000/svg"
   xmlns:sodipodi="http://sodipodi.sourceforge.net/DTD/sodipodi-0.dtd"
   xmlns:inkscape="http://www.inkscape.org/namespaces/inkscape"
   width="48"
   height="48"
   id="svg859"
   version="1.1"
   inkscape:version="0.48+devel r12662"
   sodipodi:docname="desktop.svg">
  <defs
     id="defs861" />
  <sodipodi:namedview
     id="base"
     pagecolor="#ffffff"
     bordercolor="#666666"
     borderopacity="1.0"
     inkscape:pageopacity="0.0"
     inkscape:pageshadow="2"
     inkscape:zoom="8.115942"
     inkscape:cx="28.940461"
     inkscape:cy="32.019681"
     inkscape:document-units="px"
     inkscape:current-layer="layer1"
     showgrid="false"
     width="0px"
     height="0px"
     fit-margin-top="0"
     fit-margin-left="0"
     fit-margin-right="0"
     fit-margin-bottom="0"
     inkscape:window-width="1366"
     inkscape:window-height="714"
     inkscape:window-x="0"
     inkscape:window-y="30"
     inkscape:window-maximized="1">
    <sodipodi:guide
       position="2,41.000017"
       orientation="34,0"
       id="guide3353" />
    <sodipodi:guide
       position="2,7.0000174"
       orientation="0,43.999992"
       id="guide3355" />
    <sodipodi:guide
       position="45.999992,7.0000174"
       orientation="-34,0"
       id="guide3357" />
    <sodipodi:guide
       position="45.999992,41.000017"
       orientation="0,-43.999992"
       id="guide3359" />
    <sodipodi:guide
       position="2,41.000017"
       orientation="4,0"
       id="guide3361" />
    <sodipodi:guide
       position="2,37.000017"
       orientation="0,43.999981"
       id="guide3363" />
    <sodipodi:guide
       position="45.999981,37.000017"
       orientation="-4,0"
       id="guide3365" />
    <sodipodi:guide
       position="45.999981,41.000017"
       orientation="0,-43.999981"
       id="guide3367" />
  </sodipodi:namedview>
  <metadata
     id="metadata864">
    <rdf:RDF>
      <cc:Work
         rdf:about="">
        <dc:format>image/svg+xml</dc:format>
        <dc:type
           rdf:resource="http://purl.org/dc/dcmitype/StillImage" />
        <dc:title />
      </cc:Work>
    </rdf:RDF>
  </metadata>
  <g
     inkscape:label="Capa 1"
     inkscape:groupmode="layer"
     id="layer1"
     transform="translate(0,-1004.3622)">
    <rect
       style="fill:#2980b9;fill-opacity:1;stroke:none"
       id="rect907"
       width="43.999992"
       height="33.999985"
       x="2"
       y="1011.3622" />
    <rect
       y="1011.3622"
       x="2"
       height="4"
       width="43.999981"
       id="rect920"
       style="fill:#37353a;fill-opacity:1;stroke:none" />
    <rect
       style="fill:none;fill-opacity:1;stroke:none"
       id="rect914"
       width="4.8251538"
       height="3.5553768"
       x="6"
       y="1019.3622" />
    <path
       sodipodi:type="arc"
       style="fill:none;stroke:none"
       id="path3290"
       sodipodi:cx="3.9986143"
       sodipodi:cy="1024.6736"
       sodipodi:rx="2.0013857"
       sodipodi:ry="2.0000615"
       d="m 6,1024.6736 a 2.0013857,2.0000615 0 1 1 0,0 2.0013857,2.0000615 0 1 1 0,0 z" />
    <path
       d="m 6,1017.3622 a 2.0013857,2.0000615 0 1 1 0,0 2.0013857,2.0000615 0 1 1 0,0 z"
       sodipodi:ry="2.0000615"
       sodipodi:rx="2.0013857"
       sodipodi:cy="1017.3622"
       sodipodi:cx="3.9986143"
       id="path3292"
       style="fill:none;stroke:none"
       sodipodi:type="arc" />
    <path
       sodipodi:type="arc"
       style="fill:none;stroke:none"
       id="path3294"
       sodipodi:cx="8.4118843"
       sodipodi:cy="1024.3622"
       sodipodi:rx="1.0006928"
       sodipodi:ry="1.0000308"
       d="m 9.4125772,1024.3622 a 1.0006928,1.0000308 0 1 1 0,0 1.0006928,1.0000308 0 1 1 0,0 z" />
    <path
       d="m 9.4125772,1030.3622 a 1.0006928,1.0000308 0 1 1 0,0 1.0006928,1.0000308 0 1 1 0,0 z"
       sodipodi:ry="1.0000308"
       sodipodi:rx="1.0006928"
       sodipodi:cy="1030.3622"
       sodipodi:cx="8.4118843"
       id="path3296"
       style="fill:none;stroke:none"
       sodipodi:type="arc" />
    <rect
       style="fill:#ffffff;fill-opacity:1;stroke:none"
       id="rect825"
       width="2.394315"
       height="2.394315"
       x="35.211349"
       y="1012.165" />
    <rect
       y="1012.165"
       x="39.605667"
       height="2.394315"
       width="2.394315"
       id="rect827"
       style="fill:#ffffff;fill-opacity:1;stroke:none" />
    <path
       sodipodi:type="arc"
       style="fill:none;stroke:none"
       id="path3303"
       sodipodi:cx="43.998596"
       sodipodi:cy="1013.3622"
       sodipodi:rx="2.0013857"
       sodipodi:ry="2.0000615"
       d="m 45.999982,1013.3622 a 2.0013857,2.0000615 0 1 1 0,0 2.0013857,2.0000615 0 1 1 0,0 z" />
    <path
       d="m 39.605666,1013.3622 a 1.0006928,1.0000308 0 1 1 0,0 1.0006928,1.0000308 0 1 1 0,0 z"
       sodipodi:ry="1.0000308"
       sodipodi:rx="1.0006928"
       sodipodi:cy="1013.3622"
       sodipodi:cx="38.604973"
       id="path3305"
       style="fill:none;stroke:none"
       sodipodi:type="arc" />
    <path
       sodipodi:type="arc"
       style="fill:none;stroke:none"
       id="path3307"
       sodipodi:cx="34.210655"
       sodipodi:cy="1013.3622"
       sodipodi:rx="1.0006928"
       sodipodi:ry="1.0000308"
       d="m 35.211348,1013.3622 a 1.0006928,1.0000308 0 1 1 0,0 1.0006928,1.0000308 0 1 1 0,0 z" />
    <rect
       y="1012.165"
       x="30.817032"
       height="2.394315"
       width="2.394315"
       id="rect3309"
       style="fill:#ffffff;fill-opacity:1;stroke:none" />
    <path
       sodipodi:type="arc"
       style="fill:none;stroke:none"
       id="path3311"
       sodipodi:cx="23.997576"
       sodipodi:cy="1048.8622"
       sodipodi:rx="3.502425"
       sodipodi:ry="3.5001078"
       d="m 27.500001,1048.8622 a 3.502425,3.5001078 0 1 1 0,0 3.502425,3.5001078 0 1 1 0,0 z" />
    <path
       d="m 27.500001,1007.8622 a 3.502425,3.5001078 0 1 1 0,0 3.502425,3.5001078 0 1 1 0,0 z"
       sodipodi:ry="3.5001078"
       sodipodi:rx="3.502425"
       sodipodi:cy="1007.8622"
       sodipodi:cx="23.997576"
       id="path3313"
       style="fill:none;stroke:none"
       sodipodi:type="arc" />
    <path
       d="m 1.9999999,1028.3622 a 1.0006928,1.0000308 0 1 1 0,0 1.0006928,1.0000308 0 1 1 0,0 z"
       sodipodi:ry="1.0000308"
       sodipodi:rx="1.0006928"
       sodipodi:cy="1028.3622"
       sodipodi:cx="0.9993071"
       id="path3315"
       style="fill:none;stroke:none"
       sodipodi:type="arc" />
    <path
       sodipodi:type="arc"
       style="fill:none;stroke:none"
       id="path3317"
       sodipodi:cx="46.999306"
       sodipodi:cy="1028.3622"
       sodipodi:rx="1.0006928"
       sodipodi:ry="1.0000308"
       d="m 47.999999,1028.3622 a 1.0006928,1.0000308 0 1 1 0,0 1.0006928,1.0000308 0 1 1 0,0 z" />
    <rect
       y="1019.3622"
       x="6"
       height="4"
       width="6"
       id="rect3369"
       style="fill:#1abc9c;fill-opacity:1;stroke:none" />
    <rect
       style="fill:#1abc9c;fill-opacity:1;stroke:none"
       id="rect3453"
       width="6"
       height="4"
       x="6"
       y="1025.3622" />
    <rect
       y="1031.3622"
       x="6"
       height="4"
       width="6"
       id="rect3455"
       style="fill:#1abc9c;fill-opacity:1;stroke:none" />
  </g>
</svg>
