<?xml version="1.0" encoding="UTF-8" standalone="no"?>
<!-- Created with Inkscape (http://www.inkscape.org/) -->

<svg
   xmlns:dc="http://purl.org/dc/elements/1.1/"
   xmlns:cc="http://creativecommons.org/ns#"
   xmlns:rdf="http://www.w3.org/1999/02/22-rdf-syntax-ns#"
   xmlns:svg="http://www.w3.org/2000/svg"
   xmlns="http://www.w3.org/2000/svg"
   xmlns:sodipodi="http://sodipodi.sourceforge.net/DTD/sodipodi-0.dtd"
   xmlns:inkscape="http://www.inkscape.org/namespaces/inkscape"
   width="48"
   height="48"
   id="svg2"
   version="1.1"
   inkscape:version="0.48+devel r12662"
   sodipodi:docname="edittrash.svg">
  <defs
     id="defs4" />
  <sodipodi:namedview
     id="base"
     pagecolor="#ffffff"
     bordercolor="#666666"
     borderopacity="1.0"
     inkscape:pageopacity="0.0"
     inkscape:pageshadow="2"
     inkscape:zoom="8"
     inkscape:cx="4.0904826"
     inkscape:cy="19.573089"
     inkscape:document-units="px"
     inkscape:current-layer="layer1"
     showgrid="false"
     inkscape:window-width="1366"
     inkscape:window-height="714"
     inkscape:window-x="0"
     inkscape:window-y="30"
     inkscape:window-maximized="1"
     showguides="true">
    <sodipodi:guide
       position="9,37.0002"
       orientation="29.999939,0"
       id="guide3288" />
    <sodipodi:guide
       position="9,7.0002615"
       orientation="0,30"
       id="guide3290" />
    <sodipodi:guide
       position="39,7.0002615"
       orientation="-29.999939,0"
       id="guide3292" />
    <sodipodi:guide
       position="39,37.0002"
       orientation="0,-30"
       id="guide3294" />
    <sodipodi:guide
       position="15,44.000017"
       orientation="7,0"
       id="guide3312" />
    <sodipodi:guide
       position="15,37.000017"
       orientation="0,18"
       id="guide3314" />
    <sodipodi:guide
       position="33,37.000017"
       orientation="-7,0"
       id="guide3316" />
    <sodipodi:guide
       position="17,39.000017"
       orientation="2,0"
       id="guide3322" />
    <sodipodi:guide
       position="17,37.000017"
       orientation="0,14"
       id="guide3324" />
    <sodipodi:guide
       position="31,37.000017"
       orientation="-2,0"
       id="guide3326" />
    <sodipodi:guide
       position="31,39.000017"
       orientation="0,-14"
       id="guide3328" />
    <sodipodi:guide
       position="15,44.099993"
       orientation="7.0999756,0"
       id="guide3344" />
    <sodipodi:guide
       position="15,37.000017"
       orientation="0,18"
       id="guide3346" />
    <sodipodi:guide
       position="33,37.000017"
       orientation="-7.0999756,0"
       id="guide3348" />
    <sodipodi:guide
       position="15,44.000017"
       orientation="7,0"
       id="guide3354" />
    <sodipodi:guide
       position="15,37.000017"
       orientation="0,18"
       id="guide3356" />
    <sodipodi:guide
       position="33,37.000017"
       orientation="-7,0"
       id="guide3358" />
    <sodipodi:guide
       position="33,44.000017"
       orientation="0,-18"
       id="guide3360" />
    <sodipodi:guide
       position="26,30.000017"
       orientation="11,0"
       id="guide3409" />
    <sodipodi:guide
       position="26,19.000017"
       orientation="0,9"
       id="guide3411" />
    <sodipodi:guide
       position="35,19.000017"
       orientation="-11,0"
       id="guide3413" />
    <sodipodi:guide
       position="35,30.000017"
       orientation="0,-9"
       id="guide3415" />
  </sodipodi:namedview>
  <metadata
     id="metadata7">
    <rdf:RDF>
      <cc:Work
         rdf:about="">
        <dc:format>image/svg+xml</dc:format>
        <dc:type
           rdf:resource="http://purl.org/dc/dcmitype/StillImage" />
        <dc:title></dc:title>
      </cc:Work>
    </rdf:RDF>
  </metadata>
  <g
     inkscape:label="Capa 1"
     inkscape:groupmode="layer"
     id="layer1"
     transform="translate(0,-1004.3622)">
    <path
       d="m 29.500001,1009.8622 a 5.5038104,5.5001698 0 1 1 0,0 5.5038104,5.5001698 0 1 1 0,0 z"
       sodipodi:ry="5.5001698"
       sodipodi:rx="5.5038104"
       sodipodi:cy="1009.8622"
       sodipodi:cx="23.996191"
       id="path3284"
       style="fill:none;stroke:none"
       sodipodi:type="arc" />
    <path
       d="m 27.500001,1048.8622 a 3.502425,3.5001078 0 1 1 0,0 3.502425,3.5001078 0 1 1 0,0 z"
       sodipodi:ry="3.5001078"
       sodipodi:rx="3.502425"
       sodipodi:cy="1048.8622"
       sodipodi:cx="23.997576"
       id="path3270"
       style="fill:none;stroke:none"
       sodipodi:type="arc" />
    <path
       d="m 1032.8622,-43.5 a 4.5031176,4.5001388 0 1 1 0,0 4.5031176,4.5001388 0 1 1 0,0 z"
       sodipodi:ry="4.5001388"
       sodipodi:rx="4.5031176"
       sodipodi:cy="-43.5"
       sodipodi:cx="1028.3591"
       id="path3272"
       style="fill:none;stroke:none"
       sodipodi:type="arc"
       transform="matrix(0,1,-1,0,0,0)" />
    <path
       sodipodi:type="arc"
       style="fill:none;stroke:none"
       id="path3274"
       sodipodi:cx="1028.3591"
       sodipodi:cy="-4.5"
       sodipodi:rx="4.5031176"
       sodipodi:ry="4.5001388"
       d="m 1032.8622,-4.5 a 4.5031176,4.5001388 0 1 1 0,0 4.5031176,4.5001388 0 1 1 0,0 z"
       transform="matrix(0,1,-1,0,0,0)" />
    <path
       transform="matrix(0,1,-1,0,0,0)"
       sodipodi:type="arc"
       style="fill:none;stroke:none"
       id="path3276"
       sodipodi:cx="1028.3602"
       sodipodi:cy="-45"
       sodipodi:rx="3.0020785"
       sodipodi:ry="3.0000923"
       d="m 1031.3623,-45 a 3.0020785,3.0000923 0 1 1 0,0 3.0020785,3.0000923 0 1 1 0,0 z" />
    <path
       d="m 1031.3623,-2.9999998 a 3.0020785,3.0000923 0 1 1 0,0 3.0020785,3.0000923 0 1 1 0,0 z"
       sodipodi:ry="3.0000923"
       sodipodi:rx="3.0020785"
       sodipodi:cy="-2.9999998"
       sodipodi:cx="1028.3602"
       id="path3278"
       style="fill:none;stroke:none"
       sodipodi:type="arc"
       transform="matrix(0,1,-1,0,0,0)" />
    <rect
       style="fill:#bdc3c7;fill-opacity:1;fill-rule:evenodd;stroke:none"
       id="rect3280"
       width="29.999998"
       height="29.999998"
       x="9"
       y="1015.362" />
    <rect
       style="fill:#7f8c8d;fill-opacity:1;fill-rule:evenodd;stroke:none"
       id="rect3340"
       width="4"
       height="20"
       x="33"
       y="1019.362" />
    <rect
       style="fill:#7f8c8d;fill-opacity:1;fill-rule:evenodd;stroke:none"
       id="rect3330"
       width="4"
       height="20"
       x="22"
       y="1019.362" />
    <rect
       y="1019.362"
       x="11"
       height="20"
       width="4"
       id="rect3334"
       style="fill:#7f8c8d;fill-opacity:1;fill-rule:evenodd;stroke:none" />
    <rect
       y="1015.3622"
       x="5.9999995"
       height="7"
       width="36"
       id="rect3282"
       style="fill:#bdc3c7;fill-opacity:1;fill-rule:evenodd;stroke:none" />
    <path
       transform="matrix(0,1,-1,0,0,0)"
       sodipodi:type="arc"
       style="fill:none;stroke:none"
       id="path3296"
       sodipodi:cx="1012.3601"
       sodipodi:cy="-12"
       sodipodi:rx="3.0020785"
       sodipodi:ry="3.0000923"
       d="m 1015.3622,-12 a 3.0020785,3.0000923 0 1 1 0,0 3.0020785,3.0000923 0 1 1 0,0 z" />
    <path
       d="m 1015.3622,-36 a 3.0020785,3.0000923 0 1 1 0,0 3.0020785,3.0000923 0 1 1 0,0 z"
       sodipodi:ry="3.0000923"
       sodipodi:rx="3.0020785"
       sodipodi:cy="-36"
       sodipodi:cx="1012.3601"
       id="path3298"
       style="fill:none;stroke:none"
       sodipodi:type="arc"
       transform="matrix(0,1,-1,0,0,0)" />
    <path
       style="fill:#bdc3c7;fill-opacity:1;fill-rule:evenodd;stroke:none"
       d="M 17 4 L 15 9 L 15 11 L 17 11 L 17 9 L 17 4 z M 31 4 L 31 9 L 31 11 L 33 11 L 33 9 L 31 4 z "
       transform="translate(0,1004.3622)"
       id="path3376" />
    <path
       style="fill:#7f8c8d;fill-opacity:1;fill-rule:evenodd;stroke:none"
       d="M 17 4 L 17 9 L 31 9 L 31 4 L 17 4 z "
       transform="translate(0,1004.3622)"
       id="path3381" />
    <path
       d="m 25,1014.3622 a 1.0006928,1.0000308 0 1 1 0,0 1.0006928,1.0000308 0 1 1 0,0 z"
       sodipodi:ry="1.0000308"
       sodipodi:rx="1.0006928"
       sodipodi:cy="1014.3622"
       sodipodi:cx="23.999308"
       id="path3302"
       style="fill:none;stroke:none"
       sodipodi:type="arc" />
    <path
       sodipodi:type="arc"
       style="fill:none;stroke:none"
       id="path3304"
       sodipodi:cx="15.999307"
       sodipodi:cy="1014.3622"
       sodipodi:rx="1.0006928"
       sodipodi:ry="1.0000308"
       d="m 17,1014.3622 a 1.0006928,1.0000308 0 1 1 0,0 1.0006928,1.0000308 0 1 1 0,0 z" />
    <path
       sodipodi:type="arc"
       style="fill:none;stroke:none"
       id="path3306"
       sodipodi:cx="31.999308"
       sodipodi:cy="1014.3622"
       sodipodi:rx="1.0006928"
       sodipodi:ry="1.0000308"
       d="m 33,1014.3622 a 1.0006928,1.0000308 0 1 1 0,0 1.0006928,1.0000308 0 1 1 0,0 z" />
    <path
       transform="matrix(0,1,-1,0,0,0)"
       sodipodi:type="arc"
       style="fill:none;stroke:none"
       id="path3332"
       sodipodi:cx="1042.3599"
       sodipodi:cy="-24"
       sodipodi:rx="3.0020785"
       sodipodi:ry="3.0000923"
       d="m 1045.3619,-24 a 3.0020785,3.0000923 0 1 1 0,0 3.0020785,3.0000923 0 1 1 0,0 z" />
    <path
       d="m 1045.3619,-18 a 3.0020785,3.0000923 0 1 1 0,0 3.0020785,3.0000923 0 1 1 0,0 z"
       sodipodi:ry="3.0000923"
       sodipodi:rx="3.0020785"
       sodipodi:cy="-18"
       sodipodi:cx="1042.3599"
       id="path3336"
       style="fill:none;stroke:none"
       sodipodi:type="arc"
       transform="matrix(0,1,-1,0,0,0)" />
    <path
       d="m 1045.3619,-30 a 3.0020785,3.0000923 0 1 1 0,0 3.0020785,3.0000923 0 1 1 0,0 z"
       sodipodi:ry="3.0000923"
       sodipodi:rx="3.0020785"
       sodipodi:cy="-30"
       sodipodi:cx="1042.3599"
       id="path3338"
       style="fill:none;stroke:none"
       sodipodi:type="arc"
       transform="matrix(0,1,-1,0,0,0)" />
    <path
       sodipodi:type="arc"
       style="fill:none;stroke:none"
       id="path3268"
       sodipodi:cx="23.998615"
       sodipodi:cy="1006.3622"
       sodipodi:rx="2.0013857"
       sodipodi:ry="2.0000615"
       d="m 26.000001,1006.3622 a 2.0013857,2.0000615 0 1 1 0,0 2.0013857,2.0000615 0 1 1 0,0 z" />
    <path
       style="fill:#e74c3c;fill-opacity:1;fill-rule:evenodd;stroke:none"
       d="M 30.5 18 L 30.5 25 L 35 29 L 35 18 L 30.5 18 z "
       id="path3423"
       transform="translate(0,1004.3622)" />
    <path
       style="fill:#c0392b;fill-opacity:1;fill-rule:evenodd;stroke:none"
       d="M 26 18 L 26 29 L 30.5 25 L 30.5 18 L 26 18 z "
       id="rect3405"
       transform="translate(0,1004.3622)" />
  </g>
</svg>
