<?xml version="1.0" encoding="UTF-8" standalone="no"?>
<!-- Created with Inkscape (http://www.inkscape.org/) -->

<svg
   xmlns:dc="http://purl.org/dc/elements/1.1/"
   xmlns:cc="http://creativecommons.org/ns#"
   xmlns:rdf="http://www.w3.org/1999/02/22-rdf-syntax-ns#"
   xmlns:svg="http://www.w3.org/2000/svg"
   xmlns="http://www.w3.org/2000/svg"
   xmlns:sodipodi="http://sodipodi.sourceforge.net/DTD/sodipodi-0.dtd"
   xmlns:inkscape="http://www.inkscape.org/namespaces/inkscape"
   width="48.000004"
   height="48.000015"
   id="svg3869"
   version="1.1"
   inkscape:version="0.49 r12742"
   sodipodi:docname="address-book-insert.svg">
  <defs
     id="defs3871" />
  <sodipodi:namedview
     id="base"
     pagecolor="#ffffff"
     bordercolor="#666666"
     borderopacity="1.0"
     inkscape:pageopacity="0.0"
     inkscape:pageshadow="2"
     inkscape:zoom="16"
     inkscape:cx="29.891932"
     inkscape:cy="27.385988"
     inkscape:document-units="px"
     inkscape:current-layer="layer1"
     showgrid="false"
     fit-margin-top="0"
     fit-margin-left="0"
     fit-margin-right="0"
     fit-margin-bottom="0"
     inkscape:window-width="1366"
     inkscape:window-height="718"
     inkscape:window-x="-2"
     inkscape:window-y="23"
     inkscape:window-maximized="1">
    <sodipodi:guide
       position="9,39.000013"
       orientation="30,0"
       id="guide3264" />
    <sodipodi:guide
       position="9,9.0000126"
       orientation="0,30"
       id="guide3266" />
    <sodipodi:guide
       position="39,9.0000126"
       orientation="-30,0"
       id="guide3268" />
    <sodipodi:guide
       position="39,39.000013"
       orientation="0,-30"
       id="guide3270" />
    <sodipodi:guide
       position="9,17.000013"
       orientation="4,0"
       id="guide3275" />
    <sodipodi:guide
       position="9,13.000013"
       orientation="0,30"
       id="guide3277" />
    <sodipodi:guide
       position="39,13.000013"
       orientation="-4,0"
       id="guide3279" />
    <sodipodi:guide
       position="39,17.000013"
       orientation="0,-30"
       id="guide3281" />
    <sodipodi:guide
       position="9,39.000013"
       orientation="4,0"
       id="guide3293" />
    <sodipodi:guide
       position="9,35.000013"
       orientation="0,15"
       id="guide3295" />
    <sodipodi:guide
       position="24,35.000013"
       orientation="-4,0"
       id="guide3297" />
    <sodipodi:guide
       position="22.000022,25.000013"
       orientation="-1.9999999,0"
       id="guide3303" />
    <sodipodi:guide
       position="22.000022,27.000013"
       orientation="0,2"
       id="guide3305" />
    <sodipodi:guide
       position="24.000021,25.000013"
       orientation="0,-2"
       id="guide3309" />
    <sodipodi:guide
       position="20.000022,35.000074"
       orientation="-1.9999999,0"
       id="guide3319" />
    <sodipodi:guide
       position="20.000022,37.000074"
       orientation="0,2"
       id="guide3321" />
    <sodipodi:guide
       position="22.000021,37.000074"
       orientation="1.9999999,0"
       id="guide3323" />
    <sodipodi:guide
       position="24,31.687513"
       orientation="0,-15"
       id="guide3337" />
    <sodipodi:guide
       position="9,32.000013"
       orientation="0,7"
       id="guide3345" />
    <sodipodi:guide
       position="16,32.000013"
       orientation="-7,0"
       id="guide3347" />
    <sodipodi:guide
       position="16,39.000013"
       orientation="0,-7"
       id="guide3349" />
  </sodipodi:namedview>
  <metadata
     id="metadata3874">
    <rdf:RDF>
      <cc:Work
         rdf:about="">
        <dc:format>image/svg+xml</dc:format>
        <dc:type
           rdf:resource="http://purl.org/dc/dcmitype/StillImage" />
        <dc:title />
      </cc:Work>
    </rdf:RDF>
  </metadata>
  <g
     inkscape:label="Capa 1"
     inkscape:groupmode="layer"
     id="layer1"
     transform="translate(-326,-508.36218)">
    <path
       style="fill:#4d4d4d;fill-opacity:1;fill-rule:evenodd;stroke:none"
       d="M 9 9 L 9 15.40625 L 9 16 L 9 16.3125 L 9 28.59375 L 9 35 L 15.40625 35 L 17.59375 35 L 20.5 35 L 24 39 L 27.5 35 L 30.40625 35 L 32.59375 35 L 39 35 L 39 28.59375 L 39 16.3125 L 39 16 L 39 15.40625 L 39 9 L 32.59375 9 L 32 9 L 30.40625 9 C 26.85719 9 24 11.85719 24 15.40625 C 24 11.857188 21.142812 9 17.59375 9 L 16 9 L 15.40625 9 L 9 9 z M 13 13 L 16.710938 13 L 17.076172 13 L 18.056641 13 C 20.225781 13 22 14.757386 22 16.941406 L 22 17.5 L 22 26.058594 L 22 31 L 18.056641 31 L 16.710938 31 L 13 31 L 13 26.058594 L 13 17.5 L 13 17.308594 L 13 16.941406 L 13 13 z M 29.943359 13 L 30.923828 13 L 31.289062 13 L 35 13 L 35 16.941406 L 35 17.308594 L 35 17.5 L 35 26.058594 L 35 31 L 31.289062 31 L 29.943359 31 L 26 31 L 26 26.058594 L 26 17.5 L 26 16.941406 C 26 14.757386 27.774219 13 29.943359 13 z "
       transform="translate(326,508.36218)"
       id="path3356" />
  </g>
</svg>
