<?xml version="1.0" encoding="UTF-8" standalone="no"?>
<!-- Created with Inkscape (http://www.inkscape.org/) -->

<svg
   xmlns:dc="http://purl.org/dc/elements/1.1/"
   xmlns:cc="http://creativecommons.org/ns#"
   xmlns:rdf="http://www.w3.org/1999/02/22-rdf-syntax-ns#"
   xmlns:svg="http://www.w3.org/2000/svg"
   xmlns="http://www.w3.org/2000/svg"
   xmlns:sodipodi="http://sodipodi.sourceforge.net/DTD/sodipodi-0.dtd"
   xmlns:inkscape="http://www.inkscape.org/namespaces/inkscape"
   width="48"
   height="48"
   id="svg3613"
   version="1.1"
   inkscape:version="0.49 r12742"
   sodipodi:docname="gnome-run.svg">
  <defs
     id="defs3615" />
  <sodipodi:namedview
     id="base"
     pagecolor="#ffffff"
     bordercolor="#666666"
     borderopacity="1.0"
     inkscape:pageopacity="0.0"
     inkscape:pageshadow="2"
     inkscape:zoom="8.0343727"
     inkscape:cx="30.900503"
     inkscape:cy="29.680577"
     inkscape:document-units="px"
     inkscape:current-layer="layer1"
     showgrid="false"
     inkscape:window-width="1366"
     inkscape:window-height="718"
     inkscape:window-x="-2"
     inkscape:window-y="23"
     inkscape:window-maximized="1">
    <sodipodi:guide
       position="9,39.000017"
       orientation="30,0"
       id="guide3269" />
    <sodipodi:guide
       position="9,9.0000174"
       orientation="0,30"
       id="guide3271" />
    <sodipodi:guide
       position="39,9.0000174"
       orientation="-30,0"
       id="guide3273" />
    <sodipodi:guide
       position="39,39.000017"
       orientation="0,-30"
       id="guide3275" />
  </sodipodi:namedview>
  <metadata
     id="metadata3618">
    <rdf:RDF>
      <cc:Work
         rdf:about="">
        <dc:format>image/svg+xml</dc:format>
        <dc:type
           rdf:resource="http://purl.org/dc/dcmitype/StillImage" />
        <dc:title />
      </cc:Work>
    </rdf:RDF>
  </metadata>
  <g
     inkscape:label="Capa 1"
     inkscape:groupmode="layer"
     id="layer1"
     transform="translate(0,-1004.3622)">
    <rect
       style="fill:none;fill-opacity:1;fill-rule:evenodd;stroke:none"
       id="rect3265"
       width="30"
       height="30"
       x="9"
       y="1013.3622" />
    <path
       inkscape:connector-curvature="0"
       id="path4151"
       d="m 15.649387,1029.3639 c -0.446644,0 -0.89354,0.036 -1.332972,0.1289 l -0.704502,1.7047 0,0.02 c -0.25551,0.1065 -0.50592,0.2109 -0.74359,0.3466 -0.236296,0.1355 -0.45758,0.2952 -0.670469,0.4654 l -0.02244,-0.01 -1.835457,-0.2451 c -0.5848708,0.6756 -1.0440904,1.4541 -1.3387592,2.294 l 1.1353052,1.4692 0.01876,0.01 c -0.07858,0.5376 -0.07602,1.0893 0.0039,1.627 l -0.02313,0.01 L 9,1038.6554 c 0.1444954,0.42 0.327125,0.8266 0.5502749,1.2143 0.2231498,0.3833 0.4859311,0.745 0.7790761,1.0799 l 1.845588,-0.2466 0.0231,-0.01 c 0.428757,0.3382 0.905226,0.6151 1.413343,0.8184 l 0,0.017 0.708837,1.7123 c 0.877842,0.1662 1.785038,0.1609 2.663044,-0.01 l 0.705945,-1.7062 0,-0.019 c 0.253897,-0.1049 0.502941,-0.2101 0.739252,-0.3455 0.23767,-0.1357 0.460756,-0.2973 0.674815,-0.4673 l 0.02245,0.01 1.833287,0.2426 c 0.585228,-0.6734 1.043867,-1.4552 1.338757,-2.2959 l -1.133854,-1.4643 -0.0187,-0.01 c 0.07867,-0.5398 0.07626,-1.0889 -0.0029,-1.6263 l 0.0231,-0.01 1.134584,-1.4698 c -0.144383,-0.42 -0.325649,-0.8272 -0.548819,-1.2129 -0.223175,-0.3853 -0.487236,-0.7464 -0.780521,-1.0812 l -1.84415,0.2458 -0.02313,0.011 c -0.428581,-0.3378 -0.905448,-0.6154 -1.413344,-0.8182 l -7.44e-4,-0.017 -0.707397,-1.7106 c -0.439383,-0.095 -0.885598,-0.1243 -1.332241,-0.1234 z m -7.44e-4,2.9402 c 1.067643,0 2.129256,0.4376 2.884595,1.1906 0.755345,0.7525 1.195402,1.8085 1.195402,2.8714 0,1.0636 -0.440057,2.1211 -1.195402,2.872 -0.755339,0.7538 -1.816952,1.1901 -2.884595,1.1901 -1.067651,0 -2.128051,-0.4369 -2.882434,-1.1905 -0.754378,-0.7515 -1.193227,-1.8082 -1.193227,-2.8716 0,-1.0628 0.438849,-2.1189 1.193227,-2.8714 0.754383,-0.753 1.814783,-1.1905 2.882434,-1.1906 z"
       style="fill:#4d4d4d;fill-opacity:1;fill-rule:evenodd;stroke:none" />
    <path
       style="fill:#4d4d4d;fill-opacity:1;fill-rule:evenodd;stroke:none"
       d="m 29.499032,1013.3618 c -0.638076,0 -1.276522,0.058 -1.90431,0.1839 l -1.006458,2.4337 0,0.034 c -0.365032,0.1417 -0.722773,0.3012 -1.062316,0.4955 -0.337572,0.194 -0.653702,0.4217 -0.95784,0.6643 l -0.03207,-0.017 -2.62217,-0.3494 c -0.835559,0.9616 -1.491616,2.0756 -1.912578,3.276 l 1.621912,2.0976 0.02682,0.013 c -0.112271,0.769 -0.108631,1.5538 0.0056,2.3252 l -0.03305,0.017 L 20,1026.6383 c 0.206423,0.6001 0.467334,1.1813 0.786133,1.7302 0.318799,0.5511 0.694217,1.0677 1.113004,1.5459 l 2.636651,-0.3513 0.03303,-0.017 c 0.61252,0.4837 1.29322,0.8788 2.019122,1.1677 l 0,0.029 1.012662,2.446 c 1.254105,0.2372 2.550134,0.2286 3.804477,-0.011 l 1.008528,-2.4357 0,-0.032 c 0.362719,-0.141 0.718515,-0.3002 1.056109,-0.4928 0.339544,-0.1957 0.658247,-0.4253 0.964047,-0.6688 l 0.03207,0.017 2.619064,0.3494 c 0.836074,-0.9647 1.491293,-2.0776 1.912586,-3.2788 l -1.619855,-2.0939 -0.02682,-0.015 c 0.112451,-0.7686 0.109143,-1.5555 -0.0047,-2.3241 l 0.03304,-0.017 1.620886,-2.0984 c -0.206276,-0.6003 -0.465233,-1.1825 -0.784066,-1.7315 -0.318831,-0.5509 -0.69606,-1.0663 -1.115067,-1.5445 l -2.634585,0.3502 -0.03309,0.018 c -0.612271,-0.4831 -1.293535,-0.8792 -2.019124,-1.1669 l -10e-4,-0.029 -1.010596,-2.4429 c -0.627713,-0.1187 -1.265196,-0.1766 -1.90327,-0.1746 z m -0.001,4.1994 c 1.525262,0 3.041896,0.6251 4.120997,1.6999 1.0791,1.0744 1.70777,2.5822 1.70777,4.1012 0,1.519 -0.62867,3.0281 -1.70777,4.1025 -1.079101,1.0746 -2.595735,1.6989 -4.120997,1.6988 -1.525262,0 -3.040168,-0.6251 -4.117893,-1.6997 -1.077725,-1.0744 -1.704671,-2.5828 -1.704671,-4.1016 0,-1.5188 0.626946,-3.0268 1.704671,-4.1012 1.077725,-1.0748 2.592631,-1.6998 4.117893,-1.6999 z"
       id="path4112"
       inkscape:connector-curvature="0" />
  </g>
</svg>
