<?xml version="1.0" encoding="UTF-8" standalone="no"?>
<!-- Created with Inkscape (http://www.inkscape.org/) -->

<svg
   xmlns:dc="http://purl.org/dc/elements/1.1/"
   xmlns:cc="http://creativecommons.org/ns#"
   xmlns:rdf="http://www.w3.org/1999/02/22-rdf-syntax-ns#"
   xmlns:svg="http://www.w3.org/2000/svg"
   xmlns="http://www.w3.org/2000/svg"
   xmlns:sodipodi="http://sodipodi.sourceforge.net/DTD/sodipodi-0.dtd"
   xmlns:inkscape="http://www.inkscape.org/namespaces/inkscape"
   width="48"
   height="48"
   id="svg18109"
   version="1.1"
   inkscape:version="0.49 r12742"
   sodipodi:docname="go-jump.svg">
  <defs
     id="defs18111" />
  <sodipodi:namedview
     id="base"
     pagecolor="#ffffff"
     bordercolor="#666666"
     borderopacity="1.0"
     inkscape:pageopacity="0.0"
     inkscape:pageshadow="2"
     inkscape:zoom="11.983972"
     inkscape:cx="20.563305"
     inkscape:cy="23.912564"
     inkscape:document-units="px"
     inkscape:current-layer="layer1"
     showgrid="false"
     inkscape:window-width="1366"
     inkscape:window-height="718"
     inkscape:window-x="-2"
     inkscape:window-y="23"
     inkscape:window-maximized="1">
    <sodipodi:guide
       position="9,39.000017"
       orientation="30,0"
       id="guide3262" />
    <sodipodi:guide
       position="9,9.0000174"
       orientation="0,30"
       id="guide3264" />
    <sodipodi:guide
       position="39,9.0000174"
       orientation="-30,0"
       id="guide3266" />
    <sodipodi:guide
       position="39,39.000017"
       orientation="11,0"
       id="guide4174" />
    <sodipodi:guide
       position="35,39.000017"
       orientation="0,4"
       id="guide4180" />
    <sodipodi:guide
       position="28,28.000017"
       orientation="-4,0"
       id="guide4188" />
    <sodipodi:guide
       position="39,9.0000174"
       orientation="-11,0"
       id="guide3406" />
    <sodipodi:guide
       position="39,20.000017"
       orientation="0,-4"
       id="guide3408" />
    <sodipodi:guide
       position="35,9.0000174"
       orientation="0,4"
       id="guide3412" />
    <sodipodi:guide
       position="28,16.000017"
       orientation="0,11"
       id="guide3414" />
    <sodipodi:guide
       position="39,16.000017"
       orientation="-4,0"
       id="guide3416" />
    <sodipodi:guide
       position="39,20.000017"
       orientation="0,-11"
       id="guide3418" />
    <sodipodi:guide
       position="28,20.000017"
       orientation="4,0"
       id="guide3420" />
    <sodipodi:guide
       position="35,24.000017"
       orientation="4,0"
       id="guide3426" />
    <sodipodi:guide
       position="35,20.000017"
       orientation="0,4"
       id="guide3428" />
    <sodipodi:guide
       position="39,20.000017"
       orientation="-4,0"
       id="guide3430" />
    <sodipodi:guide
       position="39,24.000017"
       orientation="0,-4"
       id="guide3432" />
  </sodipodi:namedview>
  <metadata
     id="metadata18114">
    <rdf:RDF>
      <cc:Work
         rdf:about="">
        <dc:format>image/svg+xml</dc:format>
        <dc:type
           rdf:resource="http://purl.org/dc/dcmitype/StillImage" />
        <dc:title />
      </cc:Work>
    </rdf:RDF>
  </metadata>
  <g
     inkscape:label="Capa 1"
     inkscape:groupmode="layer"
     id="layer1"
     transform="translate(0,-1004.3622)">
    <path
       style="fill:#4d4d4d;fill-opacity:1;fill-rule:evenodd;stroke:none"
       d="M 24 9 C 20.074714 9 16.173585 10.617078 13.396484 13.392578 C 10.618001 16.169378 9 20.0729 9 24 C 9 27.9271 10.618001 31.830622 13.396484 34.607422 C 16.174967 37.384322 20.078596 39.0002 24.005859 39 C 27.933123 38.9998 31.834433 37.382269 34.609375 34.605469 C 34.744266 34.470484 34.870765 34.327701 35 34.1875 L 35 39 L 39 39 L 39 28 L 28 28 L 28 32 L 31.535156 32 C 29.518555 33.894717 26.775092 34.999808 24.005859 35 C 21.125866 35.0002 18.262164 33.815597 16.224609 31.779297 C 14.187055 29.742897 13 26.8799 13 24 C 13 21.1201 14.187055 18.257103 16.224609 16.220703 C 18.260784 14.185703 21.121981 13.0014 24 13 L 24 9 z M 35.498047 17 C 33.665324 17 32 18.6675 32 20.5 C 32 22.3325 33.665324 24 35.498047 24 C 37.330771 24.0002 39 22.3327 39 20.5 C 39 18.6673 37.330771 16.9998 35.498047 17 z "
       transform="translate(0,1004.3622)"
       id="path3270" />
  </g>
</svg>
