<?xml version="1.0" encoding="UTF-8" standalone="no"?>
<!-- Created with Inkscape (http://www.inkscape.org/) -->

<svg
   xmlns:dc="http://purl.org/dc/elements/1.1/"
   xmlns:cc="http://creativecommons.org/ns#"
   xmlns:rdf="http://www.w3.org/1999/02/22-rdf-syntax-ns#"
   xmlns:svg="http://www.w3.org/2000/svg"
   xmlns="http://www.w3.org/2000/svg"
   xmlns:sodipodi="http://sodipodi.sourceforge.net/DTD/sodipodi-0.dtd"
   xmlns:inkscape="http://www.inkscape.org/namespaces/inkscape"
   width="48"
   height="48"
   id="svg2"
   version="1.1"
   inkscape:version="0.48+devel r12662"
   sodipodi:docname="gnome-help.svg">
  <defs
     id="defs4" />
  <sodipodi:namedview
     id="base"
     pagecolor="#ffffff"
     bordercolor="#666666"
     borderopacity="1.0"
     inkscape:pageopacity="0.0"
     inkscape:pageshadow="2"
     inkscape:zoom="7.0433438"
     inkscape:cx="34.461781"
     inkscape:cy="31.744626"
     inkscape:document-units="px"
     inkscape:current-layer="g846"
     showgrid="false"
     inkscape:window-width="1366"
     inkscape:window-height="714"
     inkscape:window-x="0"
     inkscape:window-y="30"
     inkscape:window-maximized="1">
    <sodipodi:guide
       position="23.400014,15.000005"
       orientation="0,0"
       id="guide3263" />
    <sodipodi:guide
       position="26.400063,19.800005"
       orientation="2.4,0"
       id="guide3265" />
    <sodipodi:guide
       position="26.400063,17.400005"
       orientation="0,-6.000029"
       id="guide3267" />
    <sodipodi:guide
       position="20.400034,17.400005"
       orientation="-1.8,0"
       id="guide3269" />
    <sodipodi:guide
       position="20.400034,30.600005"
       orientation="1.8,0"
       id="guide3271" />
    <sodipodi:guide
       position="20.400034,28.800005"
       orientation="0,-6.000031"
       id="guide3273" />
    <sodipodi:guide
       position="14.400003,28.800005"
       orientation="-1.2,0"
       id="guide3275" />
    <sodipodi:guide
       position="24.000041,39.000005"
       orientation="0,0"
       id="guide3277" />
  </sodipodi:namedview>
  <metadata
     id="metadata7">
    <rdf:RDF>
      <cc:Work
         rdf:about="">
        <dc:format>image/svg+xml</dc:format>
        <dc:type
           rdf:resource="http://purl.org/dc/dcmitype/StillImage" />
        <dc:title />
      </cc:Work>
    </rdf:RDF>
  </metadata>
  <g
     inkscape:label="Capa 1"
     inkscape:groupmode="layer"
     id="layer1"
     transform="translate(0,-1004.3622)">
    <g
       id="g846"
       transform="translate(-61.043672,-14.648105)">
      <path
         id="path829"
         d="m 84.443686,1052.0103 c 1.656911,0 3.000049,1.3429 3.000049,3 0,1.6571 -1.343138,3 -3.000049,3 -1.656837,0 -2.99998,-1.3429 -2.99998,-3 C 81.443706,1053.3532 82.786849,1052.0103 84.443686,1052.0103 z m 0.600027,-24 c 5.301931,0 9.599955,3.4293 9.599955,8.4 0,1.8 -1.199978,4.8 -3.599926,6 -2.400028,1.2 -3.600007,2.8115 -3.600007,4.8 l 0,2.4 -6.000029,0 0,-1.8 c 0,-4.0811 3.600007,-6.6 4.79998,-7.8 2.400028,-2.4 2.400028,-2.733 2.400028,-3.6 0,-1.9885 -1.611819,-3.6 -3.600001,-3.6 -1.988263,0 -3.600007,1.6115 -3.600007,3.6 l 0,1.8 -6.000031,0 0,-1.2 C 75.443676,1032.0396 79.741776,1028.0103 85.043713,1028.0103 Z"
         inkscape:connector-curvature="0"
         style="fill:#4d4d4d;fill-opacity:1;stroke-width:0.2;stroke-linejoin:round" />
    </g>
  </g>
</svg>
