<?xml version="1.0" encoding="UTF-8" standalone="no"?>
<!-- Created with Inkscape (http://www.inkscape.org/) -->

<svg
   xmlns:dc="http://purl.org/dc/elements/1.1/"
   xmlns:cc="http://creativecommons.org/ns#"
   xmlns:rdf="http://www.w3.org/1999/02/22-rdf-syntax-ns#"
   xmlns:svg="http://www.w3.org/2000/svg"
   xmlns="http://www.w3.org/2000/svg"
   xmlns:sodipodi="http://sodipodi.sourceforge.net/DTD/sodipodi-0.dtd"
   xmlns:inkscape="http://www.inkscape.org/namespaces/inkscape"
   width="48"
   height="48"
   id="svg2"
   version="1.1"
   inkscape:version="0.48+devel r12861"
   sodipodi:docname="kdenlive-split-audio.svg">
  <defs
     id="defs4" />
  <sodipodi:namedview
     id="base"
     pagecolor="#ffffff"
     bordercolor="#666666"
     borderopacity="1.0"
     inkscape:pageopacity="0.0"
     inkscape:pageshadow="2"
     inkscape:zoom="5.4481491"
     inkscape:cx="-6.4191899"
     inkscape:cy="33.222635"
     inkscape:document-units="px"
     inkscape:current-layer="layer1"
     showgrid="false"
     showguides="true"
     inkscape:window-width="1366"
     inkscape:window-height="673"
     inkscape:window-x="0"
     inkscape:window-y="24"
     inkscape:window-maximized="1" />
  <metadata
     id="metadata7">
    <rdf:RDF>
      <cc:Work
         rdf:about="">
        <dc:format>image/svg+xml</dc:format>
        <dc:type
           rdf:resource="http://purl.org/dc/dcmitype/StillImage" />
        <dc:title />
      </cc:Work>
    </rdf:RDF>
  </metadata>
  <g
     inkscape:label="Capa 1"
     inkscape:groupmode="layer"
     id="layer1"
     transform="translate(0,-1004.3622)">
    <path
       style="fill:#4d4d4d;fill-opacity:1;fill-rule:evenodd;stroke:none"
       d="m 23.994141,9 c -3.927264,2e-4 -7.828574,1.617731 -10.603516,4.394531 -2.30145,2.303 -3.7900591,5.382369 -4.2363281,8.605469 -0.023002,0.166131 -0.037842,0.333403 -0.056641,0.5 l 4.0253908,0 c 0.02421,-0.166598 0.04105,-0.334642 0.07226,-0.5 0.409343,-2.1683 1.462762,-4.215644 3.023438,-5.777344 C 18.253707,14.186256 21.114147,13.0002 23.994141,13 25.362916,12.9999 26.725526,13.274137 28,13.773438 c 1.407102,0.551399 2.706226,1.378765 3.775391,2.447265 1.562667,1.5617 2.618952,3.610397 3.029297,5.779297 L 28,22 28,15.238281 c -1.63918,0.3798 -3.175383,1.207838 -4.365234,2.398438 C 22.818145,18.453919 22.17241,19.4359 21.722656,20.5 L 19,20.5 l 0,2 19.839395,0 0,-0.5 0.0044,0 C 38.396819,18.7764 36.907859,15.695578 34.603516,13.392578 32.78321,11.573278 30.476418,10.265013 28,9.5703125 26.696455,9.2047125 25.348484,8.9999 23.994141,9 Z"
       transform="translate(0,1004.3622)"
       id="path4325"
       inkscape:connector-curvature="0"
       sodipodi:nodetypes="cssccscscsccccccccccccc" />
    <path
       inkscape:connector-curvature="0"
       style="fill:#4d4d4d;fill-opacity:1;fill-rule:evenodd;stroke:none"
       d="m 15.00137,1030.3622 0,9 18,0 0,-9 z"
       id="rect3311"
       sodipodi:nodetypes="ccccc" />
    <path
       style="fill:#4d4d4d;fill-opacity:1;fill-rule:evenodd;stroke:none"
       d="M 9.0019531 25.5 L 9.0019531 39 L 39.001953 39 L 39.001953 25.5 L 35.001953 25.5 L 35.001953 37 L 13.001953 37 L 13.001953 25.5 L 9.0019531 25.5 z "
       transform="translate(0,1004.3622)"
       id="rect3260" />
  </g>
</svg>
