<?xml version="1.0" encoding="UTF-8" standalone="no"?>
<!-- Created with Inkscape (http://www.inkscape.org/) -->

<svg
   xmlns:dc="http://purl.org/dc/elements/1.1/"
   xmlns:cc="http://creativecommons.org/ns#"
   xmlns:rdf="http://www.w3.org/1999/02/22-rdf-syntax-ns#"
   xmlns:svg="http://www.w3.org/2000/svg"
   xmlns="http://www.w3.org/2000/svg"
   xmlns:sodipodi="http://sodipodi.sourceforge.net/DTD/sodipodi-0.dtd"
   xmlns:inkscape="http://www.inkscape.org/namespaces/inkscape"
   width="48"
   height="48"
   id="svg2"
   version="1.1"
   inkscape:version="0.49 r12742"
   sodipodi:docname="mail-encrytped-part.svg">
  <defs
     id="defs4" />
  <sodipodi:namedview
     id="base"
     pagecolor="#ffffff"
     bordercolor="#666666"
     borderopacity="1.0"
     inkscape:pageopacity="0.0"
     inkscape:pageshadow="2"
     inkscape:zoom="11.644018"
     inkscape:cx="23.831366"
     inkscape:cy="23.152086"
     inkscape:document-units="px"
     inkscape:current-layer="layer1"
     showgrid="true"
     inkscape:window-width="1366"
     inkscape:window-height="718"
     inkscape:window-x="-2"
     inkscape:window-y="23"
     inkscape:window-maximized="1">
    <sodipodi:guide
       position="9,39.000017"
       orientation="30,0"
       id="guide3264" />
    <sodipodi:guide
       position="9,9.0000174"
       orientation="0,30"
       id="guide3266" />
    <sodipodi:guide
       position="39,9.0000174"
       orientation="-30,0"
       id="guide3268" />
    <sodipodi:guide
       position="39,39.000017"
       orientation="0,-30"
       id="guide3270" />
    <sodipodi:guide
       position="16,24.000017"
       orientation="0,4"
       id="guide3326" />
    <sodipodi:guide
       position="20,28.000017"
       orientation="0,-4"
       id="guide3330" />
  </sodipodi:namedview>
  <metadata
     id="metadata7">
    <rdf:RDF>
      <cc:Work
         rdf:about="">
        <dc:format>image/svg+xml</dc:format>
        <dc:type
           rdf:resource="http://purl.org/dc/dcmitype/StillImage" />
        <dc:title />
      </cc:Work>
    </rdf:RDF>
  </metadata>
  <g
     inkscape:label="Capa 1"
     inkscape:groupmode="layer"
     id="layer1"
     transform="translate(0,-1004.3622)">
    <path
       style="fill:#4d4d4d;fill-opacity:1;fill-rule:evenodd;stroke:none"
       d="M 23.5 9 C 19.345 9 16 12.345 16 16.5 L 16 24 L 13 24 L 13 39 L 35 39 L 35 24 L 32 24 L 32 16.5 C 32 12.345 28.655 9 24.5 9 L 23.5 9 z M 24 13 C 26.215998 13 28 14.784 28 17 C 28 17.006691 27.998079 17.012848 27.998047 17.019531 L 28 17.019531 L 28 24 L 20 24 L 20 17.019531 L 20.001953 17.019531 C 20.001921 17.012848 20 17.006691 20 17 C 20 14.784 21.784002 13 24 13 z "
       transform="translate(0,1004.3622)"
       id="rect3272" />
  </g>
</svg>
