<?xml version="1.0" encoding="UTF-8" standalone="no"?>
<!-- Created with Inkscape (http://www.inkscape.org/) -->

<svg
   xmlns:dc="http://purl.org/dc/elements/1.1/"
   xmlns:cc="http://creativecommons.org/ns#"
   xmlns:rdf="http://www.w3.org/1999/02/22-rdf-syntax-ns#"
   xmlns:svg="http://www.w3.org/2000/svg"
   xmlns="http://www.w3.org/2000/svg"
   xmlns:sodipodi="http://sodipodi.sourceforge.net/DTD/sodipodi-0.dtd"
   xmlns:inkscape="http://www.inkscape.org/namespaces/inkscape"
   width="48"
   height="48"
   id="svg3529"
   version="1.1"
   inkscape:version="0.48+devel r12660"
   sodipodi:docname="audio-cd-new.svg">
  <defs
     id="defs3531" />
  <sodipodi:namedview
     id="base"
     pagecolor="#ffffff"
     bordercolor="#666666"
     borderopacity="1.0"
     inkscape:pageopacity="0.0"
     inkscape:pageshadow="2"
     inkscape:zoom="8.1159424"
     inkscape:cx="29.664903"
     inkscape:cy="29.804313"
     inkscape:document-units="px"
     inkscape:current-layer="layer1"
     showgrid="false"
     fit-margin-top="0"
     fit-margin-left="0"
     fit-margin-right="0"
     fit-margin-bottom="0"
     inkscape:window-width="1366"
     inkscape:window-height="714"
     inkscape:window-x="0"
     inkscape:window-y="30"
     inkscape:window-maximized="1">
    <sodipodi:guide
       position="8.9999928,38.999997"
       orientation="30,0"
       id="guide3264" />
    <sodipodi:guide
       position="8.9999928,8.9999974"
       orientation="0,30"
       id="guide3266" />
    <sodipodi:guide
       position="38.999993,8.9999974"
       orientation="-30,0"
       id="guide3268" />
    <sodipodi:guide
       position="38.999993,38.999997"
       orientation="0,-30"
       id="guide3270" />
  </sodipodi:namedview>
  <metadata
     id="metadata3534">
    <rdf:RDF>
      <cc:Work
         rdf:about="">
        <dc:format>image/svg+xml</dc:format>
        <dc:type
           rdf:resource="http://purl.org/dc/dcmitype/StillImage" />
        <dc:title />
      </cc:Work>
    </rdf:RDF>
  </metadata>
  <g
     inkscape:label="Capa 1"
     inkscape:groupmode="layer"
     id="layer1"
     transform="translate(-453.14286,-628.36218)">
    <path
       style="fill:#4d4d4d;fill-opacity:1;fill-rule:evenodd;stroke:none"
       d="M 24 9 C 15.69 9 9 15.69 9 24 L 9 24.001953 L 9 39.001953 L 39 39.001953 L 39 24.001953 L 39 24 C 39 15.69 32.31 9 24 9 z M 24 13 C 30.094 13 35 17.906 35 24 L 35 28 L 35 39 L 24 39 L 13 39 L 13 28 L 13 24 C 13 17.906 17.906 13 24 13 z "
       transform="translate(453.14286,628.36218)"
       id="rect3301" />
    <path
       sodipodi:type="arc"
       style="fill:none;fill-opacity:1;fill-rule:evenodd;stroke:none"
       id="path3296"
       sodipodi:cx="477.14148"
       sodipodi:cy="639.36218"
       sodipodi:rx="2.0013857"
       sodipodi:ry="2.0000615"
       d="m 479.14287,639.36218 a 2.0013857,2.0000615 0 1 1 0,0 2.0013857,2.0000615 0 1 1 0,0 z" />
    <path
       d="m 492.14287,652.36218 a 2.0013857,2.0000615 0 1 1 0,0 2.0013857,2.0000615 0 1 1 0,0 z"
       sodipodi:ry="2.0000615"
       sodipodi:rx="2.0013857"
       sodipodi:cy="652.36218"
       sodipodi:cx="490.14148"
       id="path3298"
       style="fill:none;fill-opacity:1;fill-rule:evenodd;stroke:none"
       sodipodi:type="arc" />
    <rect
       y="656.36218"
       x="462.14285"
       height="11"
       width="7"
       id="rect3272"
       style="fill:#4d4d4d;fill-opacity:1;fill-rule:evenodd;stroke:none" />
    <rect
       style="fill:#4d4d4d;fill-opacity:1;fill-rule:evenodd;stroke:none"
       id="rect3274"
       width="7"
       height="11"
       x="485.14285"
       y="656.36218" />
  </g>
</svg>
