<?xml version="1.0" encoding="UTF-8" standalone="no"?>
<!-- Created with Inkscape (http://www.inkscape.org/) -->

<svg
   xmlns:dc="http://purl.org/dc/elements/1.1/"
   xmlns:cc="http://creativecommons.org/ns#"
   xmlns:rdf="http://www.w3.org/1999/02/22-rdf-syntax-ns#"
   xmlns:svg="http://www.w3.org/2000/svg"
   xmlns="http://www.w3.org/2000/svg"
   xmlns:sodipodi="http://sodipodi.sourceforge.net/DTD/sodipodi-0.dtd"
   xmlns:inkscape="http://www.inkscape.org/namespaces/inkscape"
   width="48"
   height="48"
   id="svg18109"
   version="1.1"
   inkscape:version="0.49 r12742"
   sodipodi:docname="object-rotate-left.svg">
  <defs
     id="defs18111" />
  <sodipodi:namedview
     id="base"
     pagecolor="#ffffff"
     bordercolor="#666666"
     borderopacity="1.0"
     inkscape:pageopacity="0.0"
     inkscape:pageshadow="2"
     inkscape:zoom="11.983972"
     inkscape:cx="14.127932"
     inkscape:cy="24.165355"
     inkscape:document-units="px"
     inkscape:current-layer="layer1"
     showgrid="false"
     inkscape:window-width="1366"
     inkscape:window-height="718"
     inkscape:window-x="-2"
     inkscape:window-y="23"
     inkscape:window-maximized="1">
    <sodipodi:guide
       position="9,39.000017"
       orientation="30,0"
       id="guide3262" />
    <sodipodi:guide
       position="9,9.0000174"
       orientation="0,30"
       id="guide3264" />
    <sodipodi:guide
       position="39,9.0000174"
       orientation="-30,0"
       id="guide3266" />
    <sodipodi:guide
       position="39,39.000017"
       orientation="11,0"
       id="guide4174" />
    <sodipodi:guide
       position="35,39.000017"
       orientation="0,4"
       id="guide4180" />
    <sodipodi:guide
       position="39,9.0000174"
       orientation="-11,0"
       id="guide3406" />
    <sodipodi:guide
       position="35,9.0000174"
       orientation="0,4"
       id="guide3412" />
    <sodipodi:guide
       position="39,16.000017"
       orientation="-4,0"
       id="guide3416" />
    <sodipodi:guide
       position="39,20.000017"
       orientation="-4,0"
       id="guide3430" />
    <sodipodi:guide
       position="9,39.000017"
       orientation="11,0"
       id="guide3287" />
    <sodipodi:guide
       position="9,28.000017"
       orientation="0,4"
       id="guide3289" />
    <sodipodi:guide
       position="13,28.000017"
       orientation="-11,0"
       id="guide3291" />
    <sodipodi:guide
       position="13,39.000017"
       orientation="0,-4"
       id="guide3293" />
    <sodipodi:guide
       position="20,32.000017"
       orientation="0,-11"
       id="guide3295" />
    <sodipodi:guide
       position="9,32.000017"
       orientation="4,0"
       id="guide3297" />
    <sodipodi:guide
       position="9,28.000017"
       orientation="0,11"
       id="guide3299" />
    <sodipodi:guide
       position="20,28.000017"
       orientation="-4,0"
       id="guide3301" />
  </sodipodi:namedview>
  <metadata
     id="metadata18114">
    <rdf:RDF>
      <cc:Work
         rdf:about="">
        <dc:format>image/svg+xml</dc:format>
        <dc:type
           rdf:resource="http://purl.org/dc/dcmitype/StillImage" />
        <dc:title />
      </cc:Work>
    </rdf:RDF>
  </metadata>
  <g
     inkscape:label="Capa 1"
     inkscape:groupmode="layer"
     id="layer1"
     transform="translate(0,-1004.3622)">
    <path
       style="fill:#4d4d4d;fill-opacity:1;fill-rule:evenodd;stroke:none"
       d="M 9 9 L 9 16 L 9 20 L 9.5683594 20 L 13 20 L 20 20 L 20 16 L 16.464844 16 C 18.481445 14.105283 21.224908 13.000192 23.994141 13 C 26.874134 12.9998 29.737836 14.184403 31.775391 16.220703 C 33.812945 18.257103 35 21.1201 35 24 C 35 26.8799 33.812945 29.742897 31.775391 31.779297 C 29.739216 33.814297 26.878019 34.9986 24 35 L 24 39 C 27.925286 39 31.826415 37.382922 34.603516 34.607422 C 37.381999 31.830622 39 27.9271 39 24 C 39 20.0729 37.381999 16.169378 34.603516 13.392578 C 31.825033 10.615678 27.921404 8.9998 23.994141 9 C 20.066877 9.0002 16.165567 10.617731 13.390625 13.394531 C 13.255734 13.529516 13.129235 13.672299 13 13.8125 L 13 9 L 9 9 z M 23.998047 20.5 C 22.165324 20.5 20.5 22.1675 20.5 24 C 20.5 25.8325 22.165324 27.5 23.998047 27.5 C 25.830771 27.5002 27.5 25.8327 27.5 24 C 27.5 22.1673 25.830771 20.4998 23.998047 20.5 z "
       transform="translate(0,1004.3622)"
       id="path3270" />
  </g>
</svg>
