<?xml version="1.0" encoding="UTF-8" standalone="no"?>
<!-- Created with Inkscape (http://www.inkscape.org/) -->

<svg
   xmlns:dc="http://purl.org/dc/elements/1.1/"
   xmlns:cc="http://creativecommons.org/ns#"
   xmlns:rdf="http://www.w3.org/1999/02/22-rdf-syntax-ns#"
   xmlns:svg="http://www.w3.org/2000/svg"
   xmlns="http://www.w3.org/2000/svg"
   xmlns:sodipodi="http://sodipodi.sourceforge.net/DTD/sodipodi-0.dtd"
   xmlns:inkscape="http://www.inkscape.org/namespaces/inkscape"
   width="48"
   height="48"
   id="svg18109"
   version="1.1"
   inkscape:version="0.49 r12742"
   sodipodi:docname="object-rotate-right.svg">
  <defs
     id="defs18111" />
  <sodipodi:namedview
     id="base"
     pagecolor="#ffffff"
     bordercolor="#666666"
     borderopacity="1.0"
     inkscape:pageopacity="0.0"
     inkscape:pageshadow="2"
     inkscape:zoom="11.983972"
     inkscape:cx="20.803515"
     inkscape:cy="24.165355"
     inkscape:document-units="px"
     inkscape:current-layer="layer1"
     showgrid="false"
     inkscape:window-width="1366"
     inkscape:window-height="718"
     inkscape:window-x="-2"
     inkscape:window-y="23"
     inkscape:window-maximized="1">
    <sodipodi:guide
       position="9,39.000017"
       orientation="30,0"
       id="guide3262" />
    <sodipodi:guide
       position="9,9.0000174"
       orientation="0,30"
       id="guide3264" />
    <sodipodi:guide
       position="39,9.0000174"
       orientation="-30,0"
       id="guide3266" />
    <sodipodi:guide
       position="39,39.000017"
       orientation="11,0"
       id="guide4174" />
    <sodipodi:guide
       position="35,39.000017"
       orientation="0,4"
       id="guide4180" />
    <sodipodi:guide
       position="39,9.0000174"
       orientation="-11,0"
       id="guide3406" />
    <sodipodi:guide
       position="35,9.0000174"
       orientation="0,4"
       id="guide3412" />
    <sodipodi:guide
       position="39,16.000017"
       orientation="-4,0"
       id="guide3416" />
    <sodipodi:guide
       position="39,20.000017"
       orientation="-4,0"
       id="guide3430" />
    <sodipodi:guide
       position="9,39.000017"
       orientation="11,0"
       id="guide3287" />
    <sodipodi:guide
       position="9,32.000017"
       orientation="4,0"
       id="guide3297" />
    <sodipodi:guide
       position="39,39.000017"
       orientation="11,0"
       id="guide3364" />
    <sodipodi:guide
       position="39,28.000017"
       orientation="0,-4"
       id="guide3366" />
    <sodipodi:guide
       position="35,28.000017"
       orientation="-11,0"
       id="guide3368" />
    <sodipodi:guide
       position="35,39.000017"
       orientation="0,4"
       id="guide3370" />
    <sodipodi:guide
       position="28,32.000017"
       orientation="0,11"
       id="guide3372" />
    <sodipodi:guide
       position="39,32.000017"
       orientation="4,0"
       id="guide3374" />
    <sodipodi:guide
       position="39,28.000017"
       orientation="0,-11"
       id="guide3376" />
    <sodipodi:guide
       position="28,28.000017"
       orientation="-4,0"
       id="guide3378" />
  </sodipodi:namedview>
  <metadata
     id="metadata18114">
    <rdf:RDF>
      <cc:Work
         rdf:about="">
        <dc:format>image/svg+xml</dc:format>
        <dc:type
           rdf:resource="http://purl.org/dc/dcmitype/StillImage" />
        <dc:title />
      </cc:Work>
    </rdf:RDF>
  </metadata>
  <g
     inkscape:label="Capa 1"
     inkscape:groupmode="layer"
     id="layer1"
     transform="translate(0,-1004.3622)">
    <path
       style="fill:#4d4d4d;fill-opacity:1;fill-rule:evenodd;stroke:none"
       d="M 24.005859 9 C 20.078596 8.9998 16.174967 10.615678 13.396484 13.392578 C 10.618001 16.169378 9 20.0729 9 24 C 9 27.9271 10.618001 31.830622 13.396484 34.607422 C 16.173585 37.382922 20.074714 39 24 39 L 24 35 C 21.121981 34.9986 18.260784 33.814297 16.224609 31.779297 C 14.187055 29.742897 13 26.8799 13 24 C 13 21.1201 14.187055 18.257103 16.224609 16.220703 C 18.262164 14.184403 21.125866 12.9998 24.005859 13 C 26.775092 13.000192 29.518555 14.105283 31.535156 16 L 28 16 L 28 20 L 34.228516 20 L 39 20 L 39 16 L 39 9 L 35 9 L 35 13.8125 C 34.870765 13.672299 34.744266 13.529516 34.609375 13.394531 C 31.834433 10.617731 27.933123 9.0002 24.005859 9 z M 24.001953 20.5 C 22.169229 20.4998 20.5 22.1673 20.5 24 C 20.5 25.8327 22.169229 27.5002 24.001953 27.5 C 25.834676 27.5 27.5 25.8325 27.5 24 C 27.5 22.1675 25.834676 20.5 24.001953 20.5 z "
       transform="translate(0,1004.3622)"
       id="path3270" />
  </g>
</svg>
