<?xml version="1.0" encoding="UTF-8" standalone="no"?>
<!-- Created using Karbon, part of Calligra: http://www.calligra.org/karbon -->

<svg
   xmlns:dc="http://purl.org/dc/elements/1.1/"
   xmlns:cc="http://creativecommons.org/ns#"
   xmlns:rdf="http://www.w3.org/1999/02/22-rdf-syntax-ns#"
   xmlns:svg="http://www.w3.org/2000/svg"
   xmlns="http://www.w3.org/2000/svg"
   xmlns:sodipodi="http://sodipodi.sourceforge.net/DTD/sodipodi-0.dtd"
   xmlns:inkscape="http://www.inkscape.org/namespaces/inkscape"
   width="38.4pt"
   height="38.4pt"
   id="svg2"
   version="1.1"
   inkscape:version="0.49 r12742"
   sodipodi:docname="speaker.svg">
  <metadata
     id="metadata11">
    <rdf:RDF>
      <cc:Work
         rdf:about="">
        <dc:format>image/svg+xml</dc:format>
        <dc:type
           rdf:resource="http://purl.org/dc/dcmitype/StillImage" />
        <dc:title></dc:title>
      </cc:Work>
    </rdf:RDF>
  </metadata>
  <sodipodi:namedview
     pagecolor="#ffffff"
     bordercolor="#666666"
     borderopacity="1"
     objecttolerance="10"
     gridtolerance="10"
     guidetolerance="10"
     inkscape:pageopacity="0"
     inkscape:pageshadow="2"
     inkscape:window-width="1366"
     inkscape:window-height="718"
     id="namedview9"
     showgrid="false"
     inkscape:showpageshadow="false"
     borderlayer="true"
     inkscape:zoom="3.4766082"
     inkscape:cx="57.546813"
     inkscape:cy="52.002533"
     inkscape:window-x="-2"
     inkscape:window-y="23"
     inkscape:window-maximized="1"
     inkscape:current-layer="svg2">
    <sodipodi:guide
       position="9.5367432e-07,48.000001"
       orientation="47.999999,0"
       id="guide4069" />
    <sodipodi:guide
       position="9.5367432e-07,1.9073486e-06"
       orientation="0,47.999999"
       id="guide4071" />
    <sodipodi:guide
       position="48,1.9073486e-06"
       orientation="-47.999999,0"
       id="guide4073" />
    <sodipodi:guide
       position="48,48.000001"
       orientation="0,-47.999999"
       id="guide4075" />
    <sodipodi:guide
       position="9.000001,39.000001"
       orientation="29.999999,0"
       id="guide4077" />
    <sodipodi:guide
       position="39,39.000001"
       orientation="0,-29.999999"
       id="guide4083" />
    <sodipodi:guide
       position="9.0000038,38.999998"
       orientation="10,0"
       id="guide4113" />
    <sodipodi:guide
       position="9.0000038,28.999998"
       orientation="0,10"
       id="guide4115" />
    <sodipodi:guide
       position="19.000004,28.999998"
       orientation="-10,0"
       id="guide4117" />
    <sodipodi:guide
       position="19.000004,38.999998"
       orientation="0,-10"
       id="guide4119" />
    <sodipodi:guide
       position="29.000004,38.999998"
       orientation="10,0"
       id="guide4121" />
    <sodipodi:guide
       position="29.000004,28.999998"
       orientation="0,10"
       id="guide4123" />
    <sodipodi:guide
       position="39.000004,28.999998"
       orientation="-10,0"
       id="guide4125" />
    <sodipodi:guide
       position="39.000004,38.999998"
       orientation="0,-10"
       id="guide4127" />
    <sodipodi:guide
       position="9.0000038,8.9999981"
       orientation="0,10"
       id="guide4131" />
    <sodipodi:guide
       position="19.000004,8.9999981"
       orientation="-10,0"
       id="guide4133" />
    <sodipodi:guide
       position="19.000004,18.999998"
       orientation="0,-10"
       id="guide4135" />
    <sodipodi:guide
       position="29.000004,18.999998"
       orientation="10,0"
       id="guide4137" />
    <sodipodi:guide
       position="39.000004,8.9999981"
       orientation="-10,0"
       id="guide4141" />
    <sodipodi:guide
       position="39.000004,18.999998"
       orientation="0,-10"
       id="guide4143" />
    <sodipodi:guide
       position="31.000265,39.000002"
       orientation="8,0"
       id="guide4180" />
    <sodipodi:guide
       position="31.000265,31.000002"
       orientation="0,8.0000019"
       id="guide4182" />
    <sodipodi:guide
       position="39.000267,31.000002"
       orientation="-8,0"
       id="guide4184" />
    <sodipodi:guide
       position="8.9999981,31.000002"
       orientation="0,8"
       id="guide4190" />
    <sodipodi:guide
       position="16.999998,31.000002"
       orientation="-8,0"
       id="guide4192" />
    <sodipodi:guide
       position="16.999998,9.0000019"
       orientation="-8,0"
       id="guide4200" />
    <sodipodi:guide
       position="16.999998,17.000002"
       orientation="0,-8"
       id="guide4202" />
    <sodipodi:guide
       position="31.000265,17.000002"
       orientation="8,0"
       id="guide4204" />
    <sodipodi:guide
       position="39.000267,17.000002"
       orientation="0,-8.0000019"
       id="guide4210" />
  </sodipodi:namedview>
  <defs
     id="defs4" />
  <path
     style="fill:#4d4d4d;fill-opacity:1;stroke:none"
     d="M 14.003906 9 C 12.72581 9 11.448093 9.4894075 10.46875 10.46875 C 8.5100638 12.427435 8.5100638 15.582331 10.46875 17.541016 L 11.21875 18.291016 C 10.442275 20.034457 10 21.961873 10 24 C 10 26.038127 10.442275 27.965543 11.21875 29.708984 L 10.46875 30.458984 C 8.5100642 32.41767 8.5100642 35.572564 10.46875 37.53125 C 12.427436 39.489936 15.58233 39.489936 17.541016 37.53125 L 18.291016 36.78125 C 20.034457 37.557725 21.961873 38 24 38 C 26.038127 38 27.965543 37.557725 29.708984 36.78125 L 30.458984 37.53125 C 32.41767 39.489936 35.572564 39.489936 37.53125 37.53125 C 39.489936 35.572564 39.489936 32.41767 37.53125 30.458984 L 36.78125 29.710938 C 37.558178 27.967076 38 26.038755 38 24 C 38 21.961245 37.558178 20.032924 36.78125 18.289062 L 37.53125 17.541016 C 39.489936 15.582331 39.489936 12.427435 37.53125 10.46875 C 36.551907 9.4894075 35.272236 9 33.994141 9 C 32.716045 9 31.438327 9.4894075 30.458984 10.46875 L 29.708984 11.21875 C 27.965543 10.442275 26.038127 10 24 10 C 21.961873 10 20.034457 10.442275 18.291016 11.21875 L 17.541016 10.46875 C 16.561673 9.4894075 15.282002 9 14.003906 9 z M 13 11.576172 C 13.788746 11.576172 14.423828 12.211254 14.423828 13 C 14.423828 13.788746 13.788746 14.423828 13 14.423828 C 12.211254 14.423828 11.576172 13.788746 11.576172 13 C 11.576172 12.211254 12.211254 11.576172 13 11.576172 z M 35 11.576172 C 35.788746 11.576172 36.423828 12.211254 36.423828 13 C 36.423828 13.788746 35.788746 14.423828 35 14.423828 C 34.211254 14.423828 33.576172 13.788746 33.576172 13 C 33.576172 12.211254 34.211254 11.576172 35 11.576172 z M 24 14 C 24.980353 14 25.924376 14.145655 26.818359 14.40625 C 27.226354 14.52518 27.623583 14.668507 28.007812 14.835938 C 28.37032 14.993903 28.720297 15.17692 29.058594 15.375 C 29.106046 15.40281 29.152275 15.432371 29.199219 15.460938 C 29.498816 15.643095 29.786847 15.841014 30.064453 16.052734 C 30.104106 16.082995 30.146367 16.109786 30.185547 16.140625 C 30.808122 16.630397 31.369603 17.191878 31.859375 17.814453 C 31.890214 17.853633 31.917005 17.895894 31.947266 17.935547 C 32.158986 18.213153 32.356905 18.501184 32.539062 18.800781 C 32.567629 18.847725 32.59719 18.893954 32.625 18.941406 C 32.82308 19.279703 33.006097 19.62968 33.164062 19.992188 C 33.331493 20.376417 33.47482 20.773646 33.59375 21.181641 C 33.854345 22.075624 34 23.019647 34 24 C 34 24.980353 33.854345 25.924376 33.59375 26.818359 C 33.47482 27.226354 33.331493 27.623583 33.164062 28.007812 C 33.006097 28.37032 32.82308 28.720297 32.625 29.058594 C 32.59719 29.106046 32.567629 29.152275 32.539062 29.199219 C 32.356905 29.498816 32.158986 29.786847 31.947266 30.064453 C 31.917005 30.104106 31.890214 30.146367 31.859375 30.185547 C 31.369603 30.808122 30.808122 31.369603 30.185547 31.859375 C 30.146367 31.890214 30.104106 31.917005 30.064453 31.947266 C 29.786847 32.158986 29.498816 32.356905 29.199219 32.539062 C 29.152275 32.567629 29.106046 32.59719 29.058594 32.625 C 28.720297 32.82308 28.37032 33.006097 28.007812 33.164062 C 27.623583 33.331493 27.226354 33.47482 26.818359 33.59375 C 25.924376 33.854345 24.980353 34 24 34 C 23.019647 34 22.075624 33.854345 21.181641 33.59375 C 20.773646 33.47482 20.376417 33.331493 19.992188 33.164062 C 19.62968 33.006097 19.279703 32.82308 18.941406 32.625 C 18.893954 32.59719 18.847725 32.567629 18.800781 32.539062 C 18.501184 32.356905 18.213153 32.158986 17.935547 31.947266 C 17.895894 31.917005 17.853633 31.890214 17.814453 31.859375 C 17.191878 31.369603 16.630397 30.808122 16.140625 30.185547 C 16.109786 30.146367 16.082995 30.104106 16.052734 30.064453 C 15.841014 29.786847 15.643095 29.498816 15.460938 29.199219 C 15.432371 29.152275 15.40281 29.106046 15.375 29.058594 C 15.17692 28.720297 14.993903 28.37032 14.835938 28.007812 C 14.668507 27.623583 14.52518 27.226354 14.40625 26.818359 C 14.145655 25.924376 14 24.980353 14 24 C 14 23.019647 14.145655 22.075624 14.40625 21.181641 C 14.52518 20.773646 14.668507 20.376417 14.835938 19.992188 C 14.993903 19.62968 15.17692 19.279703 15.375 18.941406 C 15.40281 18.893954 15.432371 18.847725 15.460938 18.800781 C 15.643095 18.501184 15.841014 18.213153 16.052734 17.935547 C 16.082995 17.895894 16.109786 17.853633 16.140625 17.814453 C 16.630397 17.191878 17.191878 16.630397 17.814453 16.140625 C 17.853633 16.109786 17.895894 16.082995 17.935547 16.052734 C 18.213153 15.841014 18.501184 15.643095 18.800781 15.460938 C 18.847725 15.432371 18.893954 15.40281 18.941406 15.375 C 19.279703 15.17692 19.62968 14.993903 19.992188 14.835938 C 20.376417 14.668507 20.773646 14.52518 21.181641 14.40625 C 22.075624 14.145655 23.019647 14 24 14 z M 24 22 C 22.892 22 22 22.892 22 24 C 22 25.108 22.892 26 24 26 C 25.108 26 26 25.108 26 24 C 26 22.892 25.108 22 24 22 z M 13 33.576172 C 13.788746 33.576172 14.423828 34.211254 14.423828 35 C 14.423828 35.788746 13.788746 36.423828 13 36.423828 C 12.211254 36.423828 11.576172 35.788746 11.576172 35 C 11.576172 34.211254 12.211254 33.576172 13 33.576172 z M 35 33.576172 C 35.788746 33.576172 36.423828 34.211254 36.423828 35 C 36.423828 35.788746 35.788746 36.423828 35 36.423828 C 34.211254 36.423828 33.576172 35.788746 33.576172 35 C 33.576172 34.211254 34.211254 33.576172 35 33.576172 z "
     id="rect4145" />
</svg>
