<?xml version="1.0" standalone="no"?>
<!DOCTYPE svg PUBLIC "-//W3C//DTD SVG 20010904//EN" "http://www.w3.org/TR/2001/REC-SVG-20010904/DTD/svg10.dtd">
<!-- Created using Karbon, part of Calligra: http://www.calligra.org/karbon -->
<svg xmlns="http://www.w3.org/2000/svg" xmlns:xlink="http://www.w3.org/1999/xlink" width="38.4pt" height="38.4pt">
<defs/>
<g id="layer0">
  <path id="path4064" transform="matrix(1 0 0 -1 3.99998 44)" fill="#ecf0f1" d="M39.9969 19.6471C39.8026 8.63759 30.7456 -0.143937 19.7353 0.00178772C8.72504 0.147512 -0.0963566 9.16567 0.000794807 20.1765C0.0979462 31.1873 9.0771 40.0484 20.0882 39.9998C31.0994 39.9513 40 31.0113 40 20"/>
  <path id="circle3331" transform="matrix(1 0 0 -1 6.99998 41)" fill="#f39c12" d="M33.9963 16.6459C33.8015 7.29368 26.0876 -0.144023 16.7344 0.00211718C7.38129 0.148258 -0.0964879 7.82333 0.000941343 17.1771C0.0983706 26.5309 7.73439 34.0485 17.0886 33.9998C26.4427 33.9511 34 26.3543 34 17"/>
  <path id="path3283" transform="translate(12.5571, 12.2832)" fill="#ecf0f1" fill-rule="evenodd" d="M11.4516 1.90025e-08C8.45224 0.000175916 5.47262 1.22229 3.3533 3.32038C1.23396 5.41847 0 8.36666 0 11.3336C0 14.3004 1.23396 17.2486 3.3533 19.3467C5.47262 21.4448 8.45224 22.667 11.4516 22.6671C12.2231 22.6671 12.9925 22.5837 13.7474 22.428L13.7474 19.3157C13.0011 19.5277 12.2281 19.6449 11.4516 19.6449C9.25206 19.6448 7.06742 18.7484 5.51324 17.2099C3.95906 15.6713 3.05496 13.5092 3.05496 11.3336C3.05496 9.15781 3.95906 6.99583 5.51324 5.45722C7.06742 3.91862 9.25206 3.02241 11.4516 3.02228C13.6512 3.02215 15.8384 3.91714 17.3945 5.45575C18.4024 6.45228 19.133 7.71248 19.526 9.06684L22.6706 9.06684C22.2161 6.90889 21.1316 4.87845 19.5544 3.3189C17.4323 1.2208 14.4509 -0.000175878 11.4516 1.90025e-08Z"/>
  <rect id="rect3280" transform="matrix(-0.894267 0.447534 0.447534 0.894267 26.8231 32.1992)" fill="#ecf0f1" fill-rule="evenodd" width="6.64901658428pt" height="2.41782421246pt"/>
  <rect id="rect3282" transform="matrix(-0.447534 -0.894267 -0.894267 0.447534 28.1756 34.9019)" fill="#ecf0f1" fill-rule="evenodd" width="6.64901658428pt" height="2.41782421246pt"/>
 </g>
</svg>
