<?xml version="1.0" standalone="no"?>
<!DOCTYPE svg PUBLIC "-//W3C//DTD SVG 20010904//EN" "http://www.w3.org/TR/2001/REC-SVG-20010904/DTD/svg10.dtd">
<!-- Created using Karbon, part of Calligra: http://www.calligra.org/karbon -->
<svg xmlns="http://www.w3.org/2000/svg" xmlns:xlink="http://www.w3.org/1999/xlink" width="38.4pt" height="38.4pt">
<defs/>
<g id="layer0">
  <path id="path4064" transform="matrix(1 0 0 -1 3.99998 44)" fill="#ecf0f1" d="M39.9969 19.6471C39.8026 8.63759 30.7456 -0.143937 19.7353 0.00178772C8.72504 0.147512 -0.0963566 9.16567 0.000794807 20.1765C0.0979462 31.1873 9.0771 40.0484 20.0882 39.9998C31.0994 39.9513 40 31.0113 40 20"/>
  <path id="circle3331" transform="matrix(1 0 0 -1 6.99998 41)" fill="#3498db" d="M33.9963 16.6459C33.8015 7.29368 26.0876 -0.144023 16.7344 0.00211718C7.38129 0.148258 -0.0964879 7.82333 0.000941343 17.1771C0.0983706 26.5309 7.73439 34.0485 17.0886 33.9998C26.4427 33.9511 34 26.3543 34 17"/>
  <path id="path3286" transform="translate(14.3836, 11.9777)" fill="#ecf0f1" fill-rule="evenodd" d="M10.4491 8.4258e-09C7.53015 0.00017316 4.87749 2.65583 4.87749 5.57427C4.87749 6.86592 5.39787 8.1055 6.23022 9.08676L6.23022 9.82849C5.05398 10.3478 3.96696 11.0704 3.05796 11.9801C1.12442 13.915 0 16.6351 0 19.3711L0 20.9035L0.129287 20.9035L2.0019 20.9035L2.94773 20.9035L6.96784 20.9035L8.36141 20.9035L11.1485 20.9035L11.1485 18.1164L8.36141 18.1164L6.96784 18.1164L6.11319 18.1164L2.90145 18.1164C3.1668 16.5541 3.90932 15.072 5.02991 13.9507C5.57413 13.406 6.20285 12.9495 6.88483 12.5938C9.36669 10.7343 9.05819 10.7348 9.05819 7.93816C8.2466 7.43329 7.66462 6.5367 7.66462 5.57427C7.66462 4.11505 8.99095 2.78722 10.4504 2.78714C11.9099 2.78705 13.2389 4.11488 13.2389 5.57427C13.2389 6.53641 12.6572 7.43321 11.8453 7.93816C11.8453 9.77144 11.74 10.4066 12.3475 11.1485L16.8779 11.1485C16.1981 10.6244 15.4581 10.1786 14.6719 9.83119L14.6719 9.08537C15.5047 8.10436 16.026 6.86542 16.026 5.57427C16.026 2.6555 13.3679 -0.000172724 10.4491 8.4258e-09ZM13.2389 15.8913L17.0712 20.7688L20.9035 15.8913Z"/>
 </g>
</svg>
