<?xml version="1.0" standalone="no"?>
<!DOCTYPE svg PUBLIC "-//W3C//DTD SVG 20010904//EN" "http://www.w3.org/TR/2001/REC-SVG-20010904/DTD/svg10.dtd">
<!-- Created using Karbon, part of Calligra: http://www.calligra.org/karbon -->
<svg xmlns="http://www.w3.org/2000/svg" xmlns:xlink="http://www.w3.org/1999/xlink" width="38.4pt" height="38.4pt">
<defs/>
<g id="layer0">
  <path id="path4064" transform="matrix(1 0 0 -1 3.99998 44)" fill="#ecf0f1" d="M39.9969 19.6471C39.8026 8.63759 30.7456 -0.143937 19.7353 0.00178772C8.72504 0.147512 -0.0963566 9.16567 0.000794807 20.1765C0.0979462 31.1873 9.0771 40.0484 20.0882 39.9998C31.0994 39.9513 40 31.0113 40 20"/>
  <path id="circle3331" transform="matrix(1 0 0 -1 6.99998 41)" fill="#1abc9c" d="M33.9963 16.6459C33.8015 7.29368 26.0876 -0.144023 16.7344 0.00211718C7.38129 0.148258 -0.0964879 7.82333 0.000941343 17.1771C0.0983706 26.5309 7.73439 34.0485 17.0886 33.9998C26.4427 33.9511 34 26.3543 34 17"/>
  <path id="rect4215" transform="translate(12.8317, 12.4158)" fill="#ecf0f1" d="M9.78218 0L9.78218 7.65408L4.36935 2.24126L2.24126 4.36935L7.65408 9.78218L0 9.78218L0 12.7921L7.65408 12.7921L2.24126 18.2049L4.36935 20.333L9.78218 14.9202L9.78218 22.5743L12.7921 22.5743L12.7921 14.9202L18.2049 20.333L20.333 18.2049L14.9202 12.7921L22.5743 12.7921L22.5743 9.78218L14.9202 9.78218L20.333 4.36935L18.2049 2.24126L12.7921 7.65408L12.7921 0ZM10.0408 8.27723L12.5334 8.27723L14.297 10.0408L14.297 12.5334L12.5334 14.297L10.0408 14.297L8.27723 12.5334L8.27723 10.0408Z"/>
 </g>
</svg>
