<?xml version="1.0" standalone="no"?>
<!DOCTYPE svg PUBLIC "-//W3C//DTD SVG 20010904//EN" "http://www.w3.org/TR/2001/REC-SVG-20010904/DTD/svg10.dtd">
<!-- Created using Karbon, part of Calligra: http://www.calligra.org/karbon -->
<svg xmlns="http://www.w3.org/2000/svg" xmlns:xlink="http://www.w3.org/1999/xlink" width="38.4pt" height="38.4pt">
<defs/>
<g id="layer0">
  <path id="path4064" transform="matrix(1 0 0 -1 3.99998 44)" fill="#ecf0f1" d="M39.9969 19.6471C39.8026 8.63759 30.7456 -0.143937 19.7353 0.00178772C8.72504 0.147512 -0.0963566 9.16567 0.000794807 20.1765C0.0979462 31.1873 9.0771 40.0484 20.0882 39.9998C31.0994 39.9513 40 31.0113 40 20"/>
  <path id="circle3331" transform="matrix(1 0 0 -1 6.99998 41)" fill="#3498db" d="M33.9963 16.6459C33.8015 7.29368 26.0876 -0.144023 16.7344 0.00211718C7.38129 0.148258 -0.0964879 7.82333 0.000941343 17.1771C0.0983706 26.5309 7.73439 34.0485 17.0886 33.9998C26.4427 33.9511 34 26.3543 34 17"/>
  <path id="path4096" transform="translate(12.565, 12.4759)" fill="#ecf0f1" d="M11.3611 0C5.06704 0 0 5.06704 0 11.3611C0 17.6551 5.06704 22.7222 11.3611 22.7222L11.3611 19.6925C6.74545 19.6925 3.02962 15.9767 3.02962 11.3611C3.02962 6.74545 6.74545 3.02962 11.3611 3.02962ZM17.4203 7.19535L17.4203 9.84627L11.3611 9.84627L11.3611 12.8759L17.4203 12.8759L17.4203 15.5268L22.7222 11.3611Z"/>
 </g>
</svg>
