<?xml version="1.0" encoding="UTF-8" standalone="no"?>
<!-- Created using Karbon, part of Calligra: http://www.calligra.org/karbon -->

<svg
   xmlns:dc="http://purl.org/dc/elements/1.1/"
   xmlns:cc="http://creativecommons.org/ns#"
   xmlns:rdf="http://www.w3.org/1999/02/22-rdf-syntax-ns#"
   xmlns:svg="http://www.w3.org/2000/svg"
   xmlns="http://www.w3.org/2000/svg"
   xmlns:sodipodi="http://sodipodi.sourceforge.net/DTD/sodipodi-0.dtd"
   xmlns:inkscape="http://www.inkscape.org/namespaces/inkscape"
   width="38.4pt"
   height="38.4pt"
   id="svg2"
   version="1.1"
   inkscape:version="0.49 r12742"
   sodipodi:docname="tools-media-optical-erase.svg">
  <metadata
     id="metadata13">
    <rdf:RDF>
      <cc:Work
         rdf:about="">
        <dc:format>image/svg+xml</dc:format>
        <dc:type
           rdf:resource="http://purl.org/dc/dcmitype/StillImage" />
        <dc:title></dc:title>
      </cc:Work>
    </rdf:RDF>
  </metadata>
  <sodipodi:namedview
     pagecolor="#ffffff"
     bordercolor="#666666"
     borderopacity="1"
     objecttolerance="10"
     gridtolerance="10"
     guidetolerance="10"
     inkscape:pageopacity="0"
     inkscape:pageshadow="2"
     inkscape:window-width="1366"
     inkscape:window-height="718"
     id="namedview11"
     showgrid="false"
     inkscape:showpageshadow="false"
     borderlayer="true"
     inkscape:zoom="6.9532164"
     inkscape:cx="22.946967"
     inkscape:cy="16.227787"
     inkscape:window-x="-2"
     inkscape:window-y="23"
     inkscape:window-maximized="1"
     inkscape:current-layer="svg2">
    <sodipodi:guide
       position="9.5367432e-07,48.000001"
       orientation="47.999999,0"
       id="guide4071" />
    <sodipodi:guide
       position="9.5367432e-07,1.9073486e-06"
       orientation="0,47.999999"
       id="guide4073" />
    <sodipodi:guide
       position="48,1.9073486e-06"
       orientation="-47.999999,0"
       id="guide4075" />
    <sodipodi:guide
       position="48,48.000001"
       orientation="0,-47.999999"
       id="guide4077" />
    <sodipodi:guide
       position="9.000001,39.000001"
       orientation="29.999999,0"
       id="guide4079" />
    <sodipodi:guide
       position="9.000001,9.0000019"
       orientation="0,29.999999"
       id="guide4081" />
    <sodipodi:guide
       position="39,9.0000019"
       orientation="-29.999999,0"
       id="guide4083" />
    <sodipodi:guide
       position="39,39.000001"
       orientation="0,-29.999999"
       id="guide4085" />
  </sodipodi:namedview>
  <defs
     id="defs4" />
  <path
     style="fill:#e74c3c;fill-opacity:1;fill-rule:evenodd;stroke:none"
     d="m 23.992191,9.000001 c -3.92727,2.3e-4 -7.82858,1.61575 -10.60352,4.39258 -2.77494,2.77683 -4.38867,6.68075 -4.38867,10.60742 0,3.92667 1.61373,7.82864 4.38867,10.60547 2.77494,2.77683 6.67625,4.3943 10.60352,4.39453 3.92726,2.3e-4 7.83284,-1.61769 10.61133,-4.39453 2.77848,-2.77684 4.39648,-6.67836 4.39648,-10.60547 0,-3.92711 -1.618,-7.83058 -4.39648,-10.60742 -2.77849,-2.77685 -6.68407,-4.39281 -10.61133,-4.39258 z m 0.002,4 c 2.87999,-1.7e-4 5.7437,1.18435 7.78125,3.2207 2.03755,2.03636 3.22461,4.89942 3.22461,7.7793 0,2.87988 -1.18706,5.74099 -3.22461,7.77734 -2.03755,2.03636 -4.90126,3.22283 -7.78125,3.22266 -2.87999,-1.7e-4 -5.74043,-1.18631 -7.77539,-3.22266 -2.03496,-2.03634 -3.21875,-4.89778 -3.21875,-7.77734 0,-2.87956 1.18379,-5.741 3.21875,-7.77734 2.03496,-2.03635 4.8954,-3.22249 7.77539,-3.22266 z"
     id="path3272"
     inkscape:connector-curvature="0" />
  <rect
     style="fill:#e74c3c;fill-opacity:1;fill-rule:evenodd;stroke:none"
     id="rect3282-5"
     width="24"
     height="4"
     x="-11.99999"
     y="-35.941097"
     transform="matrix(0.70710678,-0.70710678,-0.70710678,-0.70710678,0,0)" />
</svg>
