<?xml version="1.0" encoding="UTF-8" standalone="no"?>
<!-- Created with Inkscape (http://www.inkscape.org/) -->

<svg
   xmlns:dc="http://purl.org/dc/elements/1.1/"
   xmlns:cc="http://creativecommons.org/ns#"
   xmlns:rdf="http://www.w3.org/1999/02/22-rdf-syntax-ns#"
   xmlns:svg="http://www.w3.org/2000/svg"
   xmlns="http://www.w3.org/2000/svg"
   xmlns:sodipodi="http://sodipodi.sourceforge.net/DTD/sodipodi-0.dtd"
   xmlns:inkscape="http://www.inkscape.org/namespaces/inkscape"
   width="48"
   height="48"
   id="svg4251"
   version="1.1"
   inkscape:version="0.49 r12742"
   viewBox="0 0 48.000003 48.000001"
   sodipodi:docname="tools-report-bug.svg">
  <defs
     id="defs4253" />
  <sodipodi:namedview
     id="base"
     pagecolor="#ffffff"
     bordercolor="#666666"
     borderopacity="1.0"
     inkscape:pageopacity="0.0"
     inkscape:pageshadow="2"
     inkscape:zoom="7.9195959"
     inkscape:cx="13.561402"
     inkscape:cy="31.756178"
     inkscape:document-units="px"
     inkscape:current-layer="layer1"
     showgrid="false"
     units="px"
     inkscape:showpageshadow="false"
     borderlayer="true"
     inkscape:window-width="1366"
     inkscape:window-height="718"
     inkscape:window-x="-2"
     inkscape:window-y="23"
     inkscape:window-maximized="1">
    <sodipodi:guide
       position="-4.0734861e-07,48.000016"
       orientation="47.999997,0"
       id="guide4821" />
    <sodipodi:guide
       position="-4.0734861e-07,1.9382811e-05"
       orientation="0,48.000001"
       id="guide4823" />
    <sodipodi:guide
       position="48.000001,1.9382811e-05"
       orientation="-47.999997,0"
       id="guide4825" />
    <sodipodi:guide
       position="48.000001,48.000016"
       orientation="0,-48.000001"
       id="guide4827" />
    <sodipodi:guide
       position="8.9999994,39.000017"
       orientation="29.999998,0"
       id="guide4829" />
    <sodipodi:guide
       position="8.9999994,9.0000188"
       orientation="0,30.000002"
       id="guide4831" />
    <sodipodi:guide
       position="39.000001,9.0000188"
       orientation="-29.999998,0"
       id="guide4833" />
    <sodipodi:guide
       position="39.000001,39.000017"
       orientation="0,-30.000002"
       id="guide4835" />
  </sodipodi:namedview>
  <metadata
     id="metadata4256">
    <rdf:RDF>
      <cc:Work
         rdf:about="">
        <dc:format>image/svg+xml</dc:format>
        <dc:type
           rdf:resource="http://purl.org/dc/dcmitype/StillImage" />
        <dc:title></dc:title>
      </cc:Work>
    </rdf:RDF>
  </metadata>
  <g
     inkscape:label="Capa 1"
     inkscape:groupmode="layer"
     id="layer1"
     transform="translate(0,-1004.3622)">
    <path
       inkscape:connector-curvature="0"
       style="fill:#4d4d4d;fill-opacity:1;stroke:none"
       d="m 23.999999,1013.3622 c -5.20233,0 -9.45242,3.9331 -9.95117,9 l 19.90234,0 c -0.49874,-5.0669 -4.74883,-9 -9.95117,-9 z"
       id="rect4162" />
    <rect
       style="fill:#4d4d4d;fill-opacity:1;stroke:none"
       id="rect4210"
       width="34"
       height="4"
       x="7.0000014"
       y="1023.7622"
       ry="2" />
    <path
       style="fill:#4d4d4d;fill-opacity:1;stroke:none"
       d="m 9.9999987,1031.3622 c -1.108,0 -2,0.892 -2,2 0,1.108 0.892,2 2,2 l 12.5000003,0 0,-4 z"
       id="path4228"
       inkscape:connector-curvature="0"
       sodipodi:nodetypes="sssccs" />
    <path
       style="fill:#4d4d4d;fill-opacity:1;stroke:none"
       d="m 25.499999,1031.3622 0,4 12.5,0 c 1.108,0 2,-0.892 2,-2 0,-1.108 -0.892,-2 -2,-2 z"
       id="rect4212"
       inkscape:connector-curvature="0"
       sodipodi:nodetypes="ccsssc" />
    <path
       style="fill:#4d4d4d;fill-opacity:1;stroke:none"
       d="m 22.499999,1033.2782 -10.99805,6.3496 c -0.95955,0.554 -1.28642,1.7729 -0.73242,2.7324 0.554,0.9596 1.77287,1.2864 2.73242,0.7324 l 8.99805,-5.1953 z"
       id="rect4214"
       inkscape:connector-curvature="0"
       sodipodi:nodetypes="cssccc" />
    <path
       style="fill:#4d4d4d;fill-opacity:1;stroke:none"
       d="m 25.499999,1033.2782 0,4.6191 8.99805,5.1953 c 0.95956,0.554 2.17842,0.2272 2.73242,-0.7324 0.554,-0.9595 0.22714,-2.1784 -0.73242,-2.7324 z"
       id="rect4216"
       inkscape:connector-curvature="0"
       sodipodi:nodetypes="cccssc" />
    <path
       inkscape:connector-curvature="0"
       style="fill:#e74c3c;fill-opacity:1;stroke:none"
       d="m 11.999999,1023.7626 0,9 0.006,0 c -3.2e-4,0.034 -0.006,0.066 -0.006,0.1 0,5.817 4.32187,10.5 9.69141,10.5 l 0.80859,0 0,-14 3,0 0,14 0.8086,0 c 5.36953,0 9.6914,-4.683 9.6914,-10.5 0,-0.034 -0.006,-0.066 -0.006,-0.1 l 0.006,0 0,-9 -24,0 z"
       id="rect4191" />
  </g>
</svg>
