<?xml version="1.0" encoding="UTF-8" standalone="no"?>
<!-- Created using Karbon, part of Calligra: http://www.calligra.org/karbon -->

<svg
   xmlns:dc="http://purl.org/dc/elements/1.1/"
   xmlns:cc="http://creativecommons.org/ns#"
   xmlns:rdf="http://www.w3.org/1999/02/22-rdf-syntax-ns#"
   xmlns:svg="http://www.w3.org/2000/svg"
   xmlns="http://www.w3.org/2000/svg"
   xmlns:sodipodi="http://sodipodi.sourceforge.net/DTD/sodipodi-0.dtd"
   xmlns:inkscape="http://www.inkscape.org/namespaces/inkscape"
   width="38.4pt"
   height="38.4pt"
   id="svg2"
   version="1.1"
   inkscape:version="0.49 r12742"
   sodipodi:docname="tools-check-spelling.svg">
  <metadata
     id="metadata14">
    <rdf:RDF>
      <cc:Work
         rdf:about="">
        <dc:format>image/svg+xml</dc:format>
        <dc:type
           rdf:resource="http://purl.org/dc/dcmitype/StillImage" />
        <dc:title />
      </cc:Work>
    </rdf:RDF>
  </metadata>
  <sodipodi:namedview
     pagecolor="#ffffff"
     bordercolor="#666666"
     borderopacity="1"
     objecttolerance="10"
     gridtolerance="10"
     guidetolerance="10"
     inkscape:pageopacity="0"
     inkscape:pageshadow="2"
     inkscape:window-width="1366"
     inkscape:window-height="718"
     id="namedview12"
     showgrid="false"
     borderlayer="true"
     inkscape:showpageshadow="false"
     inkscape:zoom="16"
     inkscape:cx="21.52997"
     inkscape:cy="24.550237"
     inkscape:window-x="-2"
     inkscape:window-y="23"
     inkscape:window-maximized="1"
     inkscape:current-layer="svg2">
    <sodipodi:guide
       position="9.5367432e-07,48.000001"
       orientation="47.999999,0"
       id="guide4072" />
    <sodipodi:guide
       position="9.5367432e-07,1.9073486e-06"
       orientation="0,47.999999"
       id="guide4074" />
    <sodipodi:guide
       position="48,1.9073486e-06"
       orientation="-47.999999,0"
       id="guide4076" />
    <sodipodi:guide
       position="48,48.000001"
       orientation="0,-47.999999"
       id="guide4078" />
    <sodipodi:guide
       position="9.000001,39.000001"
       orientation="29.999999,0"
       id="guide4080" />
    <sodipodi:guide
       position="9.000001,9.0000019"
       orientation="0,29.999999"
       id="guide4082" />
    <sodipodi:guide
       position="39,9.0000019"
       orientation="-29.999999,0"
       id="guide4084" />
    <sodipodi:guide
       position="39,39.000001"
       orientation="0,-29.999999"
       id="guide4086" />
    <sodipodi:guide
       position="9.000001,17.000002"
       orientation="4,0"
       id="guide4092" />
    <sodipodi:guide
       position="9.000001,13.000002"
       orientation="0,29.999999"
       id="guide4094" />
    <sodipodi:guide
       position="39,13.000002"
       orientation="-4,0"
       id="guide4096" />
    <sodipodi:guide
       position="39,17.000002"
       orientation="0,-29.999999"
       id="guide4098" />
  </sodipodi:namedview>
  <defs
     id="defs4" />
  <rect
     style="fill:#2ecc71;fill-opacity:1;stroke:none"
     id="rect4088"
     width="29.999998"
     height="4"
     x="9.000001"
     y="35" />
  <path
     style="fill:#4d4d4d;fill-opacity:1;stroke:none"
     d="M 10.5,20 C 7.453,20 5,22.453 5,25.5 5,28.547 7.453,31 10.5,31 13.547,31 16,28.547 16,25.5 16,22.453 13.547,20 10.5,20 Z m 0,3 C 11.885,23 13,24.115 13,25.5 13,26.885 11.885,28 10.5,28 9.115,28 8,26.885 8,25.5 8,24.115 9.115,23 10.5,23 Z"
     id="rect4100"
     inkscape:connector-curvature="0" />
  <rect
     style="fill:#4d4d4d;fill-opacity:1;stroke:none"
     id="rect4105"
     width="3"
     height="5.4000006"
     x="13"
     y="25.600006"
     ry="0" />
  <path
     inkscape:connector-curvature="0"
     id="path4111"
     d="m 24.5,31.000007 c 3.047,0 5.5,-2.453 5.5,-5.5 0,-3.047 -2.453,-5.5 -5.5,-5.5 -3.047,0 -5.5,2.453 -5.5,5.5 0,3.047 2.453,5.5 5.5,5.5 z m 0,-3 c -1.385,0 -2.5,-1.115 -2.5,-2.5 0,-1.385 1.115,-2.5 2.5,-2.5 1.385,0 2.5,1.115 2.5,2.5 0,1.385 -1.115,2.5 -2.5,2.5 z"
     style="fill:#4d4d4d;fill-opacity:1;stroke:none" />
  <rect
     ry="0"
     y="-25.400002"
     x="-22"
     height="16.400002"
     width="3"
     id="rect4113"
     style="fill:#4d4d4d;fill-opacity:1;stroke:none"
     transform="scale(-1,-1)" />
  <g
     id="g4078">
    <path
       id="path4115"
       d="M 38.5 20 C 35.453 20 33 22.453 33 25.5 C 33 28.547 35.453 31 38.5 31 C 40.660683 31 42.51755 29.763079 43.417969 27.958984 L 40.728516 26.615234 C 40.318967 27.434505 39.481562 28 38.5 28 C 37.115 28 36 26.885 36 25.5 C 36 24.115 37.115 23 38.5 23 C 39.481562 23 40.318967 23.565495 40.728516 24.384766 L 43.417969 23.041016 C 42.51755 21.236921 40.660683 20 38.5 20 z "
       style="fill:#4d4d4d;fill-opacity:1;stroke:none" />
    <path
       style="fill:#4d4d4d;fill-opacity:0;stroke:none"
       d="M 38.5,20 C 35.453,20 33,22.453 33,25.5 33,28.547 35.453,31 38.5,31 41.547,31 44,28.547 44,25.5 44,22.453 41.547,20 38.5,20 Z m 0,3 C 39.885,23 41,24.115 41,25.5 41,26.885 39.885,28 38.5,28 37.115,28 36,26.885 36,25.5 36,24.115 37.115,23 38.5,23 Z"
       id="path4076"
       inkscape:connector-curvature="0" />
  </g>
</svg>
