<?xml version="1.0" encoding="UTF-8" standalone="no"?>
<!-- Created using Karbon, part of Calligra: http://www.calligra.org/karbon -->

<svg
   xmlns:dc="http://purl.org/dc/elements/1.1/"
   xmlns:cc="http://creativecommons.org/ns#"
   xmlns:rdf="http://www.w3.org/1999/02/22-rdf-syntax-ns#"
   xmlns:svg="http://www.w3.org/2000/svg"
   xmlns="http://www.w3.org/2000/svg"
   xmlns:sodipodi="http://sodipodi.sourceforge.net/DTD/sodipodi-0.dtd"
   xmlns:inkscape="http://www.inkscape.org/namespaces/inkscape"
   width="38.4pt"
   height="38.4pt"
   id="svg2"
   version="1.1"
   inkscape:version="0.49 r12742"
   sodipodi:docname="view-sidetree.svg">
  <metadata
     id="metadata16">
    <rdf:RDF>
      <cc:Work
         rdf:about="">
        <dc:format>image/svg+xml</dc:format>
        <dc:type
           rdf:resource="http://purl.org/dc/dcmitype/StillImage" />
      </cc:Work>
    </rdf:RDF>
  </metadata>
  <sodipodi:namedview
     pagecolor="#ffffff"
     bordercolor="#666666"
     borderopacity="1"
     objecttolerance="10"
     gridtolerance="10"
     guidetolerance="10"
     inkscape:pageopacity="0"
     inkscape:pageshadow="2"
     inkscape:window-width="1366"
     inkscape:window-height="718"
     id="namedview14"
     showgrid="false"
     inkscape:zoom="9.8333329"
     inkscape:cx="19.396347"
     inkscape:cy="23.838395"
     inkscape:window-x="-2"
     inkscape:window-y="23"
     inkscape:window-maximized="1"
     inkscape:current-layer="svg2">
    <sodipodi:guide
       position="9.5367432e-07,48.000001"
       orientation="47.999999,0"
       id="guide4074" />
    <sodipodi:guide
       position="9.5367432e-07,1.9073486e-06"
       orientation="0,47.999999"
       id="guide4076" />
    <sodipodi:guide
       position="48,1.9073486e-06"
       orientation="-47.999999,0"
       id="guide4078" />
    <sodipodi:guide
       position="48,48.000001"
       orientation="0,-47.999999"
       id="guide4080" />
    <sodipodi:guide
       position="9.000001,39.000001"
       orientation="29.999999,0"
       id="guide4082" />
    <sodipodi:guide
       position="9.000001,9.0000019"
       orientation="0,29.999999"
       id="guide4084" />
    <sodipodi:guide
       position="39,9.0000019"
       orientation="-29.999999,0"
       id="guide4086" />
    <sodipodi:guide
       position="39,39.000001"
       orientation="0,-29.999999"
       id="guide4088" />
  </sodipodi:namedview>
  <defs
     id="defs4" />
  <path
     style="fill:#4d4d4d;fill-rule:evenodd"
     d="M 32 9 L 32 10.5 L 27 10.5 L 23 10.5 L 23 14.5 L 23 22 L 16 22 L 16 20.5 L 9 20.5 L 9 27.5 L 16 27.5 L 16 26 L 23 26 L 23 37.5 L 27 37.5 L 32 37.5 L 32 39 L 39 39 L 39 32 L 32 32 L 32 33.5 L 27 33.5 L 27 26 L 32 26 L 32 27.5 L 39 27.5 L 39 20.5 L 32 20.5 L 32 22 L 27 22 L 27 14.5 L 32 14.5 L 32 16 L 39 16 L 39 9 L 32 9 z "
     id="rect3278" />
</svg>
