<?xml version="1.0" encoding="UTF-8" standalone="no"?>
<!-- Created with Inkscape (http://www.inkscape.org/) -->

<svg
   xmlns:dc="http://purl.org/dc/elements/1.1/"
   xmlns:cc="http://creativecommons.org/ns#"
   xmlns:rdf="http://www.w3.org/1999/02/22-rdf-syntax-ns#"
   xmlns:svg="http://www.w3.org/2000/svg"
   xmlns="http://www.w3.org/2000/svg"
   xmlns:sodipodi="http://sodipodi.sourceforge.net/DTD/sodipodi-0.dtd"
   xmlns:inkscape="http://www.inkscape.org/namespaces/inkscape"
   width="48"
   height="48"
   id="svg4355"
   version="1.1"
   inkscape:version="0.49 r12742"
   sodipodi:docname="page-zoom.svg">
  <defs
     id="defs4357" />
  <sodipodi:namedview
     id="base"
     pagecolor="#ffffff"
     bordercolor="#666666"
     borderopacity="1.0"
     inkscape:pageopacity="0.0"
     inkscape:pageshadow="2"
     inkscape:zoom="16.301626"
     inkscape:cx="24.215534"
     inkscape:cy="25.064866"
     inkscape:document-units="px"
     inkscape:current-layer="layer1"
     showgrid="false"
     width="0px"
     height="0px"
     fit-margin-top="0"
     fit-margin-left="0"
     fit-margin-right="0"
     fit-margin-bottom="0"
     inkscape:window-width="1366"
     inkscape:window-height="718"
     inkscape:window-x="-2"
     inkscape:window-y="23"
     inkscape:window-maximized="1">
    <sodipodi:guide
       position="9.0000011,38.999996"
       orientation="30,0"
       id="guide3298" />
    <sodipodi:guide
       position="9.0000011,8.9999962"
       orientation="0,30"
       id="guide3300" />
    <sodipodi:guide
       position="39.000001,8.9999962"
       orientation="-30,0"
       id="guide3302" />
    <sodipodi:guide
       position="39.000001,38.999996"
       orientation="0,-30"
       id="guide3304" />
    <sodipodi:guide
       position="18.500001,29.499996"
       orientation="11,0"
       id="guide4086" />
    <sodipodi:guide
       position="18.500001,18.499996"
       orientation="0,11"
       id="guide4088" />
    <sodipodi:guide
       position="29.500001,18.499996"
       orientation="-11,0"
       id="guide4090" />
    <sodipodi:guide
       position="29.500001,29.499996"
       orientation="0,-11"
       id="guide4092" />
  </sodipodi:namedview>
  <metadata
     id="metadata4360">
    <rdf:RDF>
      <cc:Work
         rdf:about="">
        <dc:format>image/svg+xml</dc:format>
        <dc:type
           rdf:resource="http://purl.org/dc/dcmitype/StillImage" />
        <dc:title />
      </cc:Work>
    </rdf:RDF>
  </metadata>
  <g
     inkscape:label="Capa 1"
     inkscape:groupmode="layer"
     id="layer1"
     transform="translate(-544.57141,-716.93359)">
    <path
       style="fill:#4d4d4d;stroke:none"
       d="M 9 9 L 9 13 L 9 20 L 13 20 L 13 13 L 20 13 L 20 9 L 13 9 L 9 9 z M 28 9 L 28 13 L 35 13 L 35 20 L 39 20 L 39 9 L 28 9 z M 26.671875 18.5 L 21.300781 23.871094 L 19.927734 22.5 L 17.099609 25.328125 L 21.271484 29.5 L 21.300781 29.472656 L 21.328125 29.5 L 29.5 21.328125 L 26.671875 18.5 z M 9 28 L 9 39 L 13 39 L 20 39 L 20 35 L 13 35 L 13 28 L 9 28 z M 35 28 L 35 35 L 28 35 L 28 39 L 39 39 L 39 35 L 39 28 L 35 28 z "
       transform="translate(544.57141,716.93359)"
       id="rect3308" />
  </g>
</svg>
