#define max_toggled_width 6
#define max_toggled_height 6
static unsigned char max_toggled_bits[] = {
0x33, 0x3b, 0x1f, 0x0f, 0x3f, 0x3f };
