<?xml version="1.0" encoding="UTF-8" standalone="no"?>
<!-- Created with Inkscape (http://www.inkscape.org/) -->

<svg
   xmlns:dc="http://purl.org/dc/elements/1.1/"
   xmlns:cc="http://creativecommons.org/ns#"
   xmlns:rdf="http://www.w3.org/1999/02/22-rdf-syntax-ns#"
   xmlns:svg="http://www.w3.org/2000/svg"
   xmlns="http://www.w3.org/2000/svg"
   xmlns:sodipodi="http://sodipodi.sourceforge.net/DTD/sodipodi-0.dtd"
   xmlns:inkscape="http://www.inkscape.org/namespaces/inkscape"
   width="48"
   height="48"
   id="svg2"
   version="1.1"
   inkscape:version="0.49 r12742"
   sodipodi:docname="accessories-calculator.svg">
  <defs
     id="defs4" />
  <sodipodi:namedview
     id="base"
     pagecolor="#ffffff"
     bordercolor="#666666"
     borderopacity="1.0"
     inkscape:pageopacity="0.0"
     inkscape:pageshadow="2"
     inkscape:zoom="11.835812"
     inkscape:cx="18.007476"
     inkscape:cy="26.089406"
     inkscape:document-units="px"
     inkscape:current-layer="layer1"
     showgrid="false"
     inkscape:window-width="1366"
     inkscape:window-height="718"
     inkscape:window-x="-2"
     inkscape:window-y="23"
     inkscape:window-maximized="1">
    <sodipodi:guide
       position="9,39.000017"
       orientation="30,0"
       id="guide3288" />
    <sodipodi:guide
       position="39,9.0000174"
       orientation="-30,0"
       id="guide3292" />
    <sodipodi:guide
       position="39,39.000017"
       orientation="0,-30"
       id="guide3294" />
    <sodipodi:guide
       position="7,42.000078"
       orientation="35.999939,0"
       id="guide3316" />
    <sodipodi:guide
       position="7,6.0001395"
       orientation="0,34"
       id="guide3318" />
    <sodipodi:guide
       position="41,6.0001395"
       orientation="-35.999939,0"
       id="guide3320" />
    <sodipodi:guide
       position="41,42.000078"
       orientation="0,-34"
       id="guide3322" />
  </sodipodi:namedview>
  <metadata
     id="metadata7">
    <rdf:RDF>
      <cc:Work
         rdf:about="">
        <dc:format>image/svg+xml</dc:format>
        <dc:type
           rdf:resource="http://purl.org/dc/dcmitype/StillImage" />
        <dc:title />
      </cc:Work>
    </rdf:RDF>
  </metadata>
  <g
     inkscape:label="Capa 1"
     inkscape:groupmode="layer"
     id="layer1"
     transform="translate(0,-1004.3622)">
    <g
       id="g4194">
      <rect
         y="1008.3621"
         x="4"
         height="40"
         width="40"
         id="rect4034"
         style="fill:#585e69;fill-opacity:1;stroke:none" />
      <path
         inkscape:connector-curvature="0"
         id="rect4056"
         d="m 30,1023.3621 0,10.3215 0,2.3569 0,10.3216 11,0 0,-10.3216 0,-2.3569 0,-10.3215 -11,0 z"
         style="fill:#de6143;fill-opacity:1;stroke:none" />
      <rect
         style="fill:#303339;fill-opacity:1;stroke:none"
         id="rect4036"
         width="34"
         height="11"
         x="7"
         y="1010.3621" />
      <rect
         y="1023.3621"
         x="7"
         height="9"
         width="9"
         id="rect3330"
         style="fill:#abaeb3;fill-opacity:1;stroke:none" />
      <rect
         style="fill:#abaeb3;fill-opacity:1;stroke:none"
         id="rect3324"
         width="9"
         height="9"
         x="7"
         y="1037.3621" />
      <rect
         y="1037.3621"
         x="18"
         height="9"
         width="9"
         id="rect3328"
         style="fill:#abaeb3;fill-opacity:1;stroke:none" />
      <g
         transform="matrix(1.0027217,0,0,1.0027217,0.78600029,-3.0180589)"
         id="text4056"
         style="font-size:24.8214283px;font-style:normal;font-variant:normal;font-weight:500;font-stretch:normal;text-align:start;line-height:125%;letter-spacing:0px;word-spacing:0px;writing-mode:lr-tb;text-anchor:start;fill:#ffffff;fill-opacity:1;stroke:none;font-family:Helvetica 65 Medium;-inkscape-font-specification:'Helvetica 65 Medium, Medium'">
        <path
           inkscape:connector-curvature="0"
           id="path4061"
           style="font-weight:normal;font-family:Game Over;-inkscape-font-specification:Game Over"
           d="m 36.558936,1018.8294 0,-5.4297 -1.551339,0 0,5.4297 1.551339,0 z m -2.327009,0.7757 0,-0.7757 -0.77567,0 0,-5.4297 0.77567,0 0,-0.7756 3.102679,0 0,0.7756 0.775669,0 0,5.4297 -0.775669,0 0,0.7757 -3.102679,0 z" />
      </g>
      <path
         id="rect3334"
         d="m 11,1025.8622 0,1.5 -1.5,0 0,1 1.5,0 0,1.5 1,0 0,-1.5 1.5,0 0,-1 -1.5,0 0,-1.5 -1,0 z"
         style="fill:#ffffff;fill-opacity:1;stroke:none"
         inkscape:connector-curvature="0" />
      <rect
         style="fill:#abaeb3;fill-opacity:1;stroke:none"
         id="rect3338"
         width="9"
         height="9"
         x="18"
         y="1023.3621" />
      <rect
         style="fill:#ffffff;fill-opacity:1;stroke:none"
         id="rect3344"
         width="1"
         height="4"
         x="1027.3621"
         y="-24.5"
         transform="matrix(0,1,-1,0,0,0)" />
      <path
         id="rect3346"
         d="m 11.5,1039.8622 a 0.50001538,0.50034642 0 0 0 -0.5,0.5 0.50001538,0.50034642 0 0 0 0.5,0.5 0.50001538,0.50034642 0 0 0 0.5,-0.5 0.50001538,0.50034642 0 0 0 -0.5,-0.5 z m -2,1.5 0,1 4,0 0,-1 -4,0 z m 2,1.5 a 0.50001538,0.50034642 0 0 0 -0.5,0.5 0.50001538,0.50034642 0 0 0 0.5,0.5 0.50001538,0.50034642 0 0 0 0.5,-0.5 0.50001538,0.50034642 0 0 0 -0.5,-0.5 z"
         style="fill:#ffffff;fill-opacity:1;stroke:none"
         inkscape:connector-curvature="0" />
      <path
         id="rect3358"
         d="m 33.5,1032.8622 0,1 4,0 0,-1 -4,0 z m 0,3 0,1 4,0 0,-1 -4,0 z"
         style="fill:#ffffff;fill-opacity:1;stroke:none"
         inkscape:connector-curvature="0" />
      <path
         id="rect3372"
         d="m 21.207031,1039.8622 -0.707031,0.707 1.292969,1.293 -1.292969,1.293 0.707031,0.707 1.292969,-1.293 1.292969,1.293 0.707031,-0.707 -1.292969,-1.293 1.292969,-1.293 -0.707031,-0.707 -1.292969,1.293 -1.292969,-1.293 z"
         style="fill:#ffffff;fill-opacity:1;stroke:none"
         inkscape:connector-curvature="0" />
    </g>
  </g>
</svg>
