<?xml version="1.0" encoding="UTF-8" standalone="no"?>
<!-- Created with Inkscape (http://www.inkscape.org/) -->

<svg
   xmlns:dc="http://purl.org/dc/elements/1.1/"
   xmlns:cc="http://creativecommons.org/ns#"
   xmlns:rdf="http://www.w3.org/1999/02/22-rdf-syntax-ns#"
   xmlns:svg="http://www.w3.org/2000/svg"
   xmlns="http://www.w3.org/2000/svg"
   xmlns:sodipodi="http://sodipodi.sourceforge.net/DTD/sodipodi-0.dtd"
   xmlns:inkscape="http://www.inkscape.org/namespaces/inkscape"
   width="48"
   height="48"
   id="svg2"
   version="1.1"
   inkscape:version="0.49 r12742"
   viewBox="0 0 13.546666 13.546668"
   sodipodi:docname="accessories-character-map.svg">
  <defs
     id="defs4" />
  <sodipodi:namedview
     id="base"
     pagecolor="#ffffff"
     bordercolor="#666666"
     borderopacity="1.0"
     inkscape:pageopacity="0"
     inkscape:pageshadow="2"
     inkscape:zoom="8.9002327"
     inkscape:cx="23.413711"
     inkscape:cy="29.166117"
     inkscape:document-units="px"
     inkscape:current-layer="layer1"
     showgrid="false"
     inkscape:showpageshadow="false"
     borderlayer="true"
     units="px"
     fit-margin-top="0"
     fit-margin-left="0"
     fit-margin-right="0"
     fit-margin-bottom="0"
     showguides="true"
     inkscape:window-width="1366"
     inkscape:window-height="718"
     inkscape:window-x="-2"
     inkscape:window-y="23"
     inkscape:window-maximized="1">
    <sodipodi:guide
       position="-6.6748425e-06,47.999999"
       orientation="47.999977,0"
       id="guide4120" />
    <sodipodi:guide
       position="-6.6748425e-06,2.2810037e-05"
       orientation="0,48.000004"
       id="guide4122" />
    <sodipodi:guide
       position="47.999997,2.2810037e-05"
       orientation="-47.999977,0"
       id="guide4124" />
    <sodipodi:guide
       position="47.999997,47.999999"
       orientation="0,-48.000004"
       id="guide4126" />
    <sodipodi:guide
       position="3.9999733,44.000154"
       orientation="39.999962,0"
       id="guide4138" />
    <sodipodi:guide
       position="3.9999733,4.0001921"
       orientation="0,40.000003"
       id="guide4140" />
    <sodipodi:guide
       position="43.999976,4.0001921"
       orientation="-39.999962,0"
       id="guide4142" />
    <sodipodi:guide
       position="43.999976,44.000154"
       orientation="0,-40.000003"
       id="guide4144" />
    <sodipodi:guide
       position="6.9999922,47.999999"
       orientation="39.999962,0"
       id="guide4148" />
    <sodipodi:guide
       position="6.9999922,8.0000369"
       orientation="0,34.000006"
       id="guide4150" />
    <sodipodi:guide
       position="40.999998,8.0000369"
       orientation="-39.999962,0"
       id="guide4152" />
    <sodipodi:guide
       position="40.999998,47.999999"
       orientation="0,-34.000006"
       id="guide4154" />
    <sodipodi:guide
       position="14.999993,32.999986"
       orientation="17.999951,0"
       id="guide4158" />
    <sodipodi:guide
       position="14.999993,15.000036"
       orientation="0,17.999998"
       id="guide4160" />
    <sodipodi:guide
       position="32.999991,15.000036"
       orientation="-17.999951,0"
       id="guide4162" />
    <sodipodi:guide
       position="32.999991,32.999986"
       orientation="0,-17.999998"
       id="guide4164" />
    <sodipodi:guide
       position="1.9999969,44.000046"
       orientation="39.999962,0"
       id="guide3279" />
    <sodipodi:guide
       position="1.9999969,4.0000839"
       orientation="0,44.000003"
       id="guide3281" />
    <sodipodi:guide
       position="46,4.0000839"
       orientation="-39.999962,0"
       id="guide3283" />
    <sodipodi:guide
       position="46,44.000046"
       orientation="0,-44.000003"
       id="guide3285" />
  </sodipodi:namedview>
  <metadata
     id="metadata7">
    <rdf:RDF>
      <cc:Work
         rdf:about="">
        <dc:format>image/svg+xml</dc:format>
        <dc:type
           rdf:resource="http://purl.org/dc/dcmitype/StillImage" />
        <dc:title></dc:title>
      </cc:Work>
    </rdf:RDF>
  </metadata>
  <g
     inkscape:label="Capa 1"
     inkscape:groupmode="layer"
     id="layer1"
     transform="translate(38.119153,-397.84494)">
    <rect
       style="fill:#2c3e50;fill-opacity:1;stroke:none"
       id="rect4034"
       width="11.28889"
       height="11.28889"
       x="-36.990265"
       y="398.97382" />
    <g
       style="font-size:8.46666718px;font-style:normal;font-variant:normal;font-weight:normal;font-stretch:normal;line-height:125%;letter-spacing:0px;word-spacing:0px;fill:#ecf0f1;fill-opacity:1;stroke:none;font-family:STIX;-inkscape-font-specification:STIX"
       id="text4085"
       transform="matrix(0.87719307,0,0,0.87719307,-3.7616532,49.689932)">
      <path
         d="m -30.437372,407.4292 0,-0.16087 c -0.440267,-0.0508 -0.5588,-0.2286 -0.795867,-0.77893 l -2.0828,-4.76673 -0.169333,0 -1.744133,4.13173 c -0.499534,1.18533 -0.575734,1.36313 -1.066801,1.41393 l 0,0.16087 1.684867,0 0,-0.16087 c -0.4064,0 -0.592666,-0.0847 -0.592666,-0.34713 0,-0.1016 0.03387,-0.24553 0.0762,-0.3556 l 0.389466,-0.9652 2.218267,0 0.347133,0.79587 c 0.1016,0.23706 0.160867,0.46566 0.160867,0.59266 0,0.0762 -0.0508,0.16934 -0.118533,0.2032 -0.1016,0.0593 -0.160867,0.0762 -0.465667,0.0762 l 0,0.16087 2.159,0 z m -2.201333,-2.17593 -1.9558,0 0.973666,-2.32834 0.982134,2.32834 z"
         id="path4090"
         inkscape:connector-curvature="0" />
      <path
         d="m -26.595622,406.8704 c -0.143933,0.11853 -0.2286,0.16087 -0.364067,0.16087 -0.1524,0 -0.262466,-0.16934 -0.262466,-0.5588 l 0,-1.61714 c 0,-0.51646 -0.03387,-0.69426 -0.237067,-0.9398 -0.2032,-0.24553 -0.524933,-0.381 -0.999067,-0.381 -0.381,0 -0.7366,0.1016 -0.973666,0.254 -0.296334,0.18627 -0.4318,0.4572 -0.4318,0.67734 0,0.2286 0.186266,0.38946 0.364066,0.38946 0.220134,0 0.389467,-0.18626 0.389467,-0.34713 0,-0.1778 -0.0508,-0.2032 -0.0508,-0.3556 0,-0.2286 0.254,-0.41487 0.592667,-0.41487 0.381,0 0.6604,0.23707 0.6604,0.762 l 0,0.4572 c -0.956734,0.3556 -1.27,0.51647 -1.524,0.6858 -0.3302,0.22014 -0.592667,0.55034 -0.592667,0.9906 0,0.5588 0.364067,0.88054 0.889,0.88054 0.364067,0 0.778933,-0.11007 1.227667,-0.61807 l 0.0085,0 c 0.04233,0.44873 0.2286,0.61807 0.541867,0.61807 0.287867,0 0.508,-0.0847 0.762,-0.4064 l 0,-0.23707 z m -1.312333,-0.51647 c 0,0.24554 -0.0508,0.36407 -0.296334,0.5334 -0.143933,0.0931 -0.321733,0.13547 -0.491066,0.13547 -0.3302,0 -0.5842,-0.2032 -0.5842,-0.65193 0,-0.26247 0.08467,-0.46567 0.287866,-0.65194 0.211667,-0.19473 0.5588,-0.37253 1.083734,-0.5588 l 0,1.1938 z"
         id="path4092"
         inkscape:connector-curvature="0" />
    </g>
  </g>
</svg>
