<?xml version="1.0" encoding="UTF-8" standalone="no"?>
<!-- Created with Inkscape (http://www.inkscape.org/) -->

<svg
   xmlns:dc="http://purl.org/dc/elements/1.1/"
   xmlns:cc="http://creativecommons.org/ns#"
   xmlns:rdf="http://www.w3.org/1999/02/22-rdf-syntax-ns#"
   xmlns:svg="http://www.w3.org/2000/svg"
   xmlns="http://www.w3.org/2000/svg"
   xmlns:sodipodi="http://sodipodi.sourceforge.net/DTD/sodipodi-0.dtd"
   xmlns:inkscape="http://www.inkscape.org/namespaces/inkscape"
   width="48"
   height="48"
   id="svg4230"
   version="1.1"
   inkscape:version="0.49 r12742"
   sodipodi:docname="amarok.svg">
  <defs
     id="defs4232" />
  <sodipodi:namedview
     id="base"
     pagecolor="#ffffff"
     bordercolor="#666666"
     borderopacity="1.0"
     inkscape:pageopacity="0.0"
     inkscape:pageshadow="2"
     inkscape:zoom="7.1252405"
     inkscape:cx="34.562861"
     inkscape:cy="28.250623"
     inkscape:document-units="px"
     inkscape:current-layer="layer1"
     showgrid="false"
     inkscape:showpageshadow="false"
     borderlayer="true"
     inkscape:window-width="1366"
     inkscape:window-height="718"
     inkscape:window-x="-2"
     inkscape:window-y="23"
     inkscape:window-maximized="1">
    <sodipodi:guide
       position="0,48.000017"
       orientation="48,0"
       id="guide4065" />
    <sodipodi:guide
       position="0,1.7382813e-05"
       orientation="0,48"
       id="guide4067" />
    <sodipodi:guide
       position="48,1.7382813e-05"
       orientation="-48,0"
       id="guide4069" />
    <sodipodi:guide
       position="48,48.000017"
       orientation="0,-48"
       id="guide4071" />
    <sodipodi:guide
       position="3,45.000017"
       orientation="42,0"
       id="guide4073" />
    <sodipodi:guide
       position="3,3.0000174"
       orientation="0,42"
       id="guide4075" />
    <sodipodi:guide
       position="45,3.0000174"
       orientation="-42,0"
       id="guide4077" />
    <sodipodi:guide
       position="45,45.000017"
       orientation="0,-42"
       id="guide4079" />
  </sodipodi:namedview>
  <metadata
     id="metadata4235">
    <rdf:RDF>
      <cc:Work
         rdf:about="">
        <dc:format>image/svg+xml</dc:format>
        <dc:type
           rdf:resource="http://purl.org/dc/dcmitype/StillImage" />
        <dc:title />
      </cc:Work>
    </rdf:RDF>
  </metadata>
  <g
     inkscape:label="Capa 1"
     inkscape:groupmode="layer"
     id="layer1"
     transform="translate(0,-1004.3622)">
    <rect
       style="fill:#ecf0f1;fill-opacity:1;stroke:none"
       id="rect4081"
       width="42"
       height="42"
       x="3"
       y="1007.3622"
       ry="21" />
    <path
       style="fill:#000000"
       d=""
       id="path906"
       inkscape:connector-curvature="0" />
    <path
       style="fill:#3498db;fill-opacity:1"
       d="m 31.998701,1014.508 c -7.651411,-4.417 -17.435317,-1.7962 -21.852756,5.855 -4.4175636,7.6517 -1.7960867,17.4356 5.855325,21.8534 7.651401,4.417 17.435309,1.7962 21.852867,-5.8555 4.417443,-7.6512 1.795967,-17.4351 -5.855436,-21.8529 z m -0.99995,1.732 c 6.694981,3.8653 8.988936,12.426 5.123624,19.121 -3.306704,5.7268 -10.048432,8.2384 -16.119727,6.4234 0.0078,-0.1395 0.01181,-0.2963 0.116788,-0.4518 0.307476,-0.4638 0.68578,-1.0769 1.058137,-1.5826 0.372265,-0.5062 3.209762,-4.9151 4.685033,-5.6657 1.475056,-0.7501 4.532313,-0.9055 5.400441,-0.6045 0.867569,0.3004 0.918291,-0.091 1.074355,-0.3616 0.156197,-0.27 0.361917,-0.9408 0.203508,-1.1524 -0.158807,-0.2136 -1.281218,-0.1524 -1.586263,-0.2526 -0.305168,-0.097 -1.671276,-0.7378 -1.677957,-1.1425 -0.0072,-0.4051 3.397925,-2.522 3.816316,-2.7612 0.418664,-0.2393 0.796688,-0.677 0.700775,-1.4137 -0.09549,-0.7366 -0.06313,-1.3932 -0.213374,-1.4799 -0.495552,-0.2874 -2.116137,0.2963 -2.580803,0.2701 -0.464794,-0.042 -4.493749,0.3614 -4.972468,0.5641 -0.478712,0.2001 -0.919045,0.1436 -1.292276,-0.1135 -0.372656,-0.2569 -1.609445,-0.99 -2.169054,-0.9918 -0.559547,0 -3.628352,0.8461 -4.248074,0.8091 -0.619452,-0.042 -1.326682,-0.2571 -1.64444,-0.4009 -0.318432,-0.1394 -1.941492,0.3877 -2.333492,0.4421 -0.391872,0.056 -3.063654,-0.2482 -3.468206,-0.244 -0.404704,0 0.628611,3.9776 0.954591,4.2459 0.308519,0.257 -0.936232,1.1671 -1.656625,0.9195 -0.4519925,-3.021 0.06236,-6.2067 1.708478,-9.0582 3.864978,-6.6897 12.425729,-8.9841 19.120713,-5.1183 z m -7.36964,10.4653 c 0.407442,0.1827 0.680731,0.4224 0.680731,0.4224 -0.04762,0.4005 -1.266651,1.0192 -1.941302,0.8131 -0.674277,-0.2049 -3.21927,1.0321 -3.000548,0.547 0.21842,-0.4844 1.687631,-1.6593 2.771115,-1.9504 0.541188,-0.1458 1.083294,-0.012 1.490004,0.1679 z"
       id="path894-4"
       inkscape:connector-curvature="0"
       sodipodi:nodetypes="ccccccccccccccccccccccccccccccccccccc" />
  </g>
</svg>
