<?xml version="1.0" encoding="UTF-8" standalone="no"?>
<!-- Created with Inkscape (http://www.inkscape.org/) -->

<svg
   xmlns:dc="http://purl.org/dc/elements/1.1/"
   xmlns:cc="http://creativecommons.org/ns#"
   xmlns:rdf="http://www.w3.org/1999/02/22-rdf-syntax-ns#"
   xmlns:svg="http://www.w3.org/2000/svg"
   xmlns="http://www.w3.org/2000/svg"
   xmlns:sodipodi="http://sodipodi.sourceforge.net/DTD/sodipodi-0.dtd"
   xmlns:inkscape="http://www.inkscape.org/namespaces/inkscape"
   width="48"
   height="48"
   id="svg2"
   version="1.1"
   inkscape:version="0.48.4 r9939"
   viewBox="0 0 13.546666 13.546668"
   sodipodi:docname="atom.svg">
  <defs
     id="defs4" />
  <sodipodi:namedview
     id="base"
     pagecolor="#ffffff"
     bordercolor="#666666"
     borderopacity="1.0"
     inkscape:pageopacity="0"
     inkscape:pageshadow="2"
     inkscape:zoom="8.9002328"
     inkscape:cx="17.194447"
     inkscape:cy="19.204844"
     inkscape:document-units="px"
     inkscape:current-layer="layer1"
     showgrid="false"
     inkscape:showpageshadow="false"
     borderlayer="true"
     units="px"
     fit-margin-top="0"
     fit-margin-left="0"
     fit-margin-right="0"
     fit-margin-bottom="0"
     showguides="true"
     inkscape:window-width="1440"
     inkscape:window-height="836"
     inkscape:window-x="0"
     inkscape:window-y="26"
     inkscape:window-maximized="1">
    <sodipodi:guide
       position="-6.6748425e-06,47.999999"
       orientation="47.999977,0"
       id="guide4120" />
    <sodipodi:guide
       position="-6.6748425e-06,2.2810037e-05"
       orientation="0,48.000004"
       id="guide4122" />
    <sodipodi:guide
       position="47.999997,2.2810037e-05"
       orientation="-47.999977,0"
       id="guide4124" />
    <sodipodi:guide
       position="47.999997,47.999999"
       orientation="0,-48.000004"
       id="guide4126" />
    <sodipodi:guide
       position="3.9999733,44.000154"
       orientation="39.999962,0"
       id="guide4138" />
    <sodipodi:guide
       position="3.9999733,4.0001921"
       orientation="0,40.000003"
       id="guide4140" />
    <sodipodi:guide
       position="43.999976,4.0001921"
       orientation="-39.999962,0"
       id="guide4142" />
    <sodipodi:guide
       position="43.999976,44.000154"
       orientation="0,-40.000003"
       id="guide4144" />
    <sodipodi:guide
       position="6.9999922,47.999999"
       orientation="39.999962,0"
       id="guide4148" />
    <sodipodi:guide
       position="6.9999922,8.0000369"
       orientation="0,34.000006"
       id="guide4150" />
    <sodipodi:guide
       position="40.999998,8.0000369"
       orientation="-39.999962,0"
       id="guide4152" />
    <sodipodi:guide
       position="40.999998,47.999999"
       orientation="0,-34.000006"
       id="guide4154" />
    <sodipodi:guide
       position="14.999993,32.999986"
       orientation="17.999951,0"
       id="guide4158" />
    <sodipodi:guide
       position="14.999993,15.000036"
       orientation="0,17.999998"
       id="guide4160" />
    <sodipodi:guide
       position="32.999991,15.000036"
       orientation="-17.999951,0"
       id="guide4162" />
    <sodipodi:guide
       position="32.999991,32.999986"
       orientation="0,-17.999998"
       id="guide4164" />
    <sodipodi:guide
       position="1.9999969,44.000046"
       orientation="39.999962,0"
       id="guide3279" />
    <sodipodi:guide
       position="1.9999969,4.0000839"
       orientation="0,44.000003"
       id="guide3281" />
    <sodipodi:guide
       position="46,4.0000839"
       orientation="-39.999962,0"
       id="guide3283" />
    <sodipodi:guide
       position="46,44.000046"
       orientation="0,-44.000003"
       id="guide3285" />
  </sodipodi:namedview>
  <metadata
     id="metadata7">
    <rdf:RDF>
      <cc:Work
         rdf:about="">
        <dc:format>image/svg+xml</dc:format>
        <dc:type
           rdf:resource="http://purl.org/dc/dcmitype/StillImage" />
        <dc:title />
      </cc:Work>
    </rdf:RDF>
  </metadata>
  <g
     inkscape:label="Capa 1"
     inkscape:groupmode="layer"
     id="layer1"
     transform="translate(38.119153,-397.84494)">
    <rect
       style="fill:#27ae60;fill-opacity:1;stroke:none"
       id="rect4118"
       width="11.288891"
       height="11.288849"
       x="-36.990273"
       y="398.97382"
       ry="5.6444244" />
    <g
       id="g3948"
       transform="matrix(0.20447891,0,0,0.20710395,-2.0550657,335.75319)"
       style="fill:#ecf0f1;fill-opacity:1">
      <path
         inkscape:connector-curvature="0"
         id="path3070-3"
         d="m -145.96875,325.4375 c -1.94497,-0.0226 -3.86341,0.0822 -5.625,0.34375 -3.52318,0.52317 -6.5371,1.61038 -8.125,3.75 -0.63587,0.85681 -0.86814,1.80435 -0.75,2.625 0.11814,0.82065 0.5394,1.50208 1.03125,2.0625 0.9837,1.12083 2.22225,1.77032 2.84375,2 a 0.73702978,0.73702978 0 1 0 0.53125,-1.375 c -0.26598,-0.0983 -1.51485,-0.75611 -2.25,-1.59375 -0.36758,-0.41882 -0.62385,-0.87039 -0.6875,-1.3125 -0.0636,-0.44211 0.0185,-0.92451 0.46875,-1.53125 1.18448,-1.59602 3.82232,-2.69244 7.15625,-3.1875 3.33393,-0.49506 7.31512,-0.41246 11.0625,0.0937 3.74738,0.50621 7.28232,1.44471 9.6875,2.59375 1.20259,0.57452 2.10735,1.22238 2.625,1.8125 0.51765,0.59012 0.64626,1.01652 0.5,1.53125 -0.59781,2.10379 -3.40625,2.96875 -3.40625,2.96875 a 0.7338512,0.7338512 0 1 0 0.40625,1.4063 c 0,0 3.53018,-0.88574 4.40625,-3.96875 0.2951,-1.03849 -0.0852,-2.0771 -0.8125,-2.90625 -0.72733,-0.82915 -1.78156,-1.52937 -3.09375,-2.15625 -2.62438,-1.25377 -6.26288,-2.19704 -10.125,-2.71875 -1.93106,-0.26085 -3.89878,-0.41486 -5.84375,-0.4375 z"
         style="font-size:medium;font-style:normal;font-variant:normal;font-weight:normal;font-stretch:normal;text-indent:0;text-align:start;text-decoration:none;line-height:normal;letter-spacing:normal;word-spacing:normal;text-transform:none;direction:ltr;block-progression:tb;writing-mode:lr-tb;text-anchor:start;baseline-shift:baseline;color:#000000;fill:#ecf0f1;fill-opacity:1;stroke:none;stroke-width:1.46755564;marker:none;visibility:visible;display:inline;overflow:visible;enable-background:accumulate;font-family:Sans;-inkscape-font-specification:Sans" />
      <path
         inkscape:connector-curvature="0"
         id="path3941"
         d="m -148.4375,316.9375 c -0.67512,-0.1353 -1.41048,-0.13314 -2.1875,0.0625 -1.04693,0.2636 -1.77052,1.11182 -2.125,2.15625 -0.35448,1.04443 -0.42558,2.30016 -0.3125,3.75 0.22617,2.89968 1.20854,6.51933 2.6875,10.125 1.47896,3.60567 3.44181,7.21024 5.65625,10 2.21444,2.78976 4.69686,4.81943 7.34375,5.125 1.05994,0.12237 1.94208,-0.14367 2.59375,-0.65625 0.65167,-0.51258 1.04178,-1.20011 1.28125,-1.90625 0.45815,-1.351 0.4138,-2.65857 0.3125,-3.34375 l 0.0312,0 c 7.7e-4,-0.0324 -0.0317,-0.092 -0.0312,-0.125 0.0366,-2.97464 -1.39929,-8.35806 -3.5,-11.96875 a 0.7338512,0.7338512 0 1 0 -1.25,0.75 c 1.93473,3.3254 3.36903,8.93761 3.3125,11.3125 a 0.7338512,0.7338512 0 0 0 0,0.15625 c 0.0478,0.2795 0.10792,1.69455 -0.25,2.75 -0.17896,0.52773 -0.46142,0.97385 -0.8125,1.25 -0.35108,0.27615 -0.78066,0.4304 -1.53125,0.34375 -1.97441,-0.22794 -4.24826,-1.98509 -6.34375,-4.625 -2.09549,-2.63991 -4.00248,-6.12645 -5.4375,-9.625 -1.43502,-3.49855 -2.38648,-6.99877 -2.59375,-9.65625 -0.10364,-1.32874 -0.0335,-2.44417 0.21875,-3.1875 0.25229,-0.74333 0.57484,-1.0881 1.09375,-1.21875 2.1209,-0.534 4.28125,1.46875 4.28125,1.46875 a 0.74033486,0.74033486 0 1 0 1.03125,-1.0625 c 0,0 -1.4434,-1.46909 -3.46875,-1.875 z"
         style="font-size:medium;font-style:normal;font-variant:normal;font-weight:normal;font-stretch:normal;text-indent:0;text-align:start;text-decoration:none;line-height:normal;letter-spacing:normal;word-spacing:normal;text-transform:none;direction:ltr;block-progression:tb;writing-mode:lr-tb;text-anchor:start;baseline-shift:baseline;color:#000000;fill:#ecf0f1;fill-opacity:1;stroke:none;stroke-width:1.46755564;marker:none;visibility:visible;display:inline;overflow:visible;enable-background:accumulate;font-family:Sans;-inkscape-font-specification:Sans" />
      <path
         inkscape:connector-curvature="0"
         id="path3070-3-5"
         d="m -136.84375,317.4375 c -1.07924,0.22745 -2.21658,0.81988 -3.40625,1.65625 -2.37934,1.67273 -4.96442,4.35833 -7.3125,7.46875 -2.34808,3.11042 -4.44753,6.64151 -5.71875,9.96875 -1.27122,3.32724 -1.77391,6.47333 -0.6875,8.90625 0.44501,0.99656 1.22491,1.63893 2.0625,1.875 0.83759,0.23607 1.67993,0.12653 2.46875,-0.0937 1.57764,-0.44056 2.87348,-1.29253 3.375,-1.71875 A 0.7338512,0.7338512 0 1 0 -147,344.375 c -0.21943,0.18649 -1.55513,1.08638 -2.8125,1.4375 -0.62868,0.17556 -1.2596,0.22316 -1.71875,0.0937 -0.45915,-0.12941 -0.79563,-0.39489 -1.09375,-1.0625 -0.81039,-1.81481 -0.48418,-4.63273 0.71875,-7.78125 1.20293,-3.14852 3.22168,-6.57574 5.5,-9.59375 2.27832,-3.01801 4.8194,-5.65448 7,-7.1875 1.0903,-0.76651 2.10689,-1.24437 2.875,-1.40625 0.76811,-0.16188 1.21683,-0.0673 1.59375,0.3125 1.54057,1.5524 0.90625,4.40625 0.90625,4.40625 a 0.74280402,0.74280402 0 1 0 1.4375,0.375 c 0,0 0.94513,-3.53752 -1.3125,-5.8125 -0.76047,-0.76632 -1.85826,-0.9462 -2.9375,-0.71875 z"
         style="font-size:medium;font-style:normal;font-variant:normal;font-weight:normal;font-stretch:normal;text-indent:0;text-align:start;text-decoration:none;line-height:normal;letter-spacing:normal;word-spacing:normal;text-transform:none;direction:ltr;block-progression:tb;writing-mode:lr-tb;text-anchor:start;baseline-shift:baseline;color:#000000;fill:#ecf0f1;fill-opacity:1;stroke:none;stroke-width:1.46755564;marker:none;visibility:visible;display:inline;overflow:visible;enable-background:accumulate;font-family:Sans;-inkscape-font-specification:Sans" />
      <path
         id="path3933"
         d="m -363.13657,-230.08261 c 0,3.90933 -3.21944,7.07847 -7.19082,7.07847 -3.97138,0 -7.19083,-3.16914 -7.19083,-7.07847 0,-3.90933 3.21945,-7.07847 7.19083,-7.07847 3.97138,0 7.19082,3.16914 7.19082,7.07847 z"
         style="opacity:0.9;fill:#ecf0f1;fill-opacity:1;stroke:none"
         transform="matrix(0.28222225,0,0,0.28222225,-38.626506,397.46443)"
         inkscape:connector-curvature="0" />
    </g>
  </g>
</svg>
