<?xml version="1.0" encoding="UTF-8" standalone="no"?>
<!-- Created with Inkscape (http://www.inkscape.org/) -->

<svg
   xmlns:dc="http://purl.org/dc/elements/1.1/"
   xmlns:cc="http://creativecommons.org/ns#"
   xmlns:rdf="http://www.w3.org/1999/02/22-rdf-syntax-ns#"
   xmlns:svg="http://www.w3.org/2000/svg"
   xmlns="http://www.w3.org/2000/svg"
   xmlns:sodipodi="http://sodipodi.sourceforge.net/DTD/sodipodi-0.dtd"
   xmlns:inkscape="http://www.inkscape.org/namespaces/inkscape"
   width="48"
   height="48"
   id="svg2"
   version="1.1"
   inkscape:version="0.49 r12742"
   viewBox="0 0 47.999998 48.000001"
   sodipodi:docname="bitcoin-qt.svg">
  <defs
     id="defs4" />
  <sodipodi:namedview
     id="base"
     pagecolor="#ffffff"
     bordercolor="#666666"
     borderopacity="1.0"
     inkscape:pageopacity="0.0"
     inkscape:pageshadow="2"
     inkscape:zoom="7.919596"
     inkscape:cx="24.443616"
     inkscape:cy="28.905588"
     inkscape:document-units="px"
     inkscape:current-layer="layer1"
     showgrid="false"
     borderlayer="true"
     inkscape:showpageshadow="false"
     units="px"
     inkscape:window-width="1366"
     inkscape:window-height="718"
     inkscape:window-x="-2"
     inkscape:window-y="23"
     inkscape:window-maximized="1">
    <sodipodi:guide
       position="9.0000004,39.000018"
       orientation="29.999999,0"
       id="guide3266" />
    <sodipodi:guide
       position="9.0000004,9.0000182"
       orientation="0,30"
       id="guide3268" />
    <sodipodi:guide
       position="39.000001,9.0000182"
       orientation="-29.999999,0"
       id="guide3270" />
    <sodipodi:guide
       position="39.000001,39.000018"
       orientation="0,-30"
       id="guide3272" />
    <sodipodi:guide
       position="4.0000005,44.000017"
       orientation="39.999999,0"
       id="guide3276" />
    <sodipodi:guide
       position="4.0000005,4.0000183"
       orientation="0,40"
       id="guide3278" />
    <sodipodi:guide
       position="44.000001,4.0000183"
       orientation="-39.999999,0"
       id="guide3280" />
    <sodipodi:guide
       position="44.000001,44.000017"
       orientation="0,-40"
       id="guide3282" />
    <sodipodi:guide
       position="15,33.000018"
       orientation="18,0"
       id="guide4157" />
    <sodipodi:guide
       position="15,15.000018"
       orientation="0,18.000001"
       id="guide4159" />
    <sodipodi:guide
       position="33.000001,15.000018"
       orientation="-18,0"
       id="guide4161" />
    <sodipodi:guide
       position="33.000001,33.000018"
       orientation="0,-18.000001"
       id="guide4163" />
  </sodipodi:namedview>
  <metadata
     id="metadata7">
    <rdf:RDF>
      <cc:Work
         rdf:about="">
        <dc:format>image/svg+xml</dc:format>
        <dc:type
           rdf:resource="http://purl.org/dc/dcmitype/StillImage" />
        <dc:title />
      </cc:Work>
    </rdf:RDF>
  </metadata>
  <g
     inkscape:label="Capa 1"
     inkscape:groupmode="layer"
     id="layer1"
     transform="translate(0,-1004.3622)">
    <rect
       style="opacity:1;fill:#f29c33;fill-opacity:1;fill-rule:evenodd;stroke:none"
       id="rect3262"
       width="40"
       height="40"
       x="3.999999"
       y="1008.3622"
       ry="20" />
    <path
       style="fill:#ffffff;fill-opacity:1;fill-rule:evenodd;stroke:none"
       d="m 22.200554,1019.3622 0,2.3999 -0.0013,0 -2.399041,0 -2.400214,0 0,1.1998 2.400214,0 0,2.3602 c -3.6e-5,0.014 -0.0013,0.026 -0.0013,0.039 0,0.011 0.0013,0.015 0.0013,0.024 l 0,6.3044 c -1.8e-5,0.012 -0.0013,0.021 -0.0013,0.032 0,0.02 0.0013,0.037 0.0013,0.056 l 0,1.985 -2.400214,0 0,1.1998 2.400214,0 2.039244,0 0.360968,0 0,2.3999 1.200107,0 0,-2.3999 1.200106,0 0,2.3999 1.200106,0 0,-2.3999 1.559905,0 c 1.795119,0 3.23935,-1.4452 3.23935,-3.2398 0,-1.7216 -1.329025,-3.118 -3.021363,-3.2298 1.088667,-0.6176 1.821256,-1.7839 1.821256,-3.1298 0,-1.9938 -1.605119,-3.5991 -3.599148,-3.5997 l 0,-2.3998 -1.200106,0 0,2.3998 -1.200106,0 0,-2.3998 -1.200107,0 z m 1.648975,3.7497 1.500133,0 c 1.246612,0 2.250201,1.0035 2.250201,2.25 0,1.2464 -1.003589,2.2498 -2.250201,2.2498 l -1.500133,0 c -0.154627,0 -0.304334,-0.015 -0.45004,-0.046 l 0,-4.4082 c 0.145706,-0.031 0.295413,-0.046 0.45004,-0.046 z m -0.08906,6.4496 2.879554,0 c 1.196745,0 2.159956,0.9632 2.159956,2.1597 0,1.1966 -0.963211,2.1597 -2.159956,2.1597 l -2.879554,0 c -0.123543,0 -0.243202,-0.017 -0.360968,-0.037 l 0,-4.2469 c 0.117766,-0.021 0.237425,-0.037 0.360968,-0.037 z"
       id="rect3278"
       inkscape:connector-curvature="0" />
  </g>
</svg>
