<?xml version="1.0" encoding="UTF-8" standalone="no"?>
<!-- Created using Karbon, part of Calligra: http://www.calligra.org/karbon -->

<svg
   xmlns:dc="http://purl.org/dc/elements/1.1/"
   xmlns:cc="http://creativecommons.org/ns#"
   xmlns:rdf="http://www.w3.org/1999/02/22-rdf-syntax-ns#"
   xmlns:svg="http://www.w3.org/2000/svg"
   xmlns="http://www.w3.org/2000/svg"
   xmlns:sodipodi="http://sodipodi.sourceforge.net/DTD/sodipodi-0.dtd"
   xmlns:inkscape="http://www.inkscape.org/namespaces/inkscape"
   width="38.4pt"
   height="38.4pt"
   id="svg2"
   version="1.1"
   inkscape:version="0.48.4 r9939"
   sodipodi:docname="calibre-gui.svg">
  <metadata
     id="metadata11">
    <rdf:RDF>
      <cc:Work
         rdf:about="">
        <dc:format>image/svg+xml</dc:format>
        <dc:type
           rdf:resource="http://purl.org/dc/dcmitype/StillImage" />
        <dc:title />
      </cc:Work>
    </rdf:RDF>
  </metadata>
  <sodipodi:namedview
     pagecolor="#ffffff"
     bordercolor="#666666"
     borderopacity="1"
     objecttolerance="10"
     gridtolerance="10"
     guidetolerance="10"
     inkscape:pageopacity="0"
     inkscape:pageshadow="2"
     inkscape:window-width="1440"
     inkscape:window-height="836"
     id="namedview9"
     showgrid="false"
     inkscape:showpageshadow="false"
     borderlayer="true"
     inkscape:zoom="9.8333329"
     inkscape:cx="11.460086"
     inkscape:cy="22.757829"
     inkscape:window-x="0"
     inkscape:window-y="26"
     inkscape:window-maximized="1"
     inkscape:current-layer="svg2"
     showguides="true"
     inkscape:guide-bbox="true">
    <sodipodi:guide
       position="9.5367432e-07,48.000001"
       orientation="47.999999,0"
       id="guide4069" />
    <sodipodi:guide
       position="9.5367432e-07,1.9073486e-06"
       orientation="0,47.999999"
       id="guide4071" />
    <sodipodi:guide
       position="48,1.9073486e-06"
       orientation="-47.999999,0"
       id="guide4073" />
    <sodipodi:guide
       position="48,48.000001"
       orientation="0,-47.999999"
       id="guide4075" />
    <sodipodi:guide
       position="4.000001,44.000001"
       orientation="39.999999,0"
       id="guide4077" />
    <sodipodi:guide
       position="4.000001,4.0000019"
       orientation="0,39.999999"
       id="guide4079" />
    <sodipodi:guide
       position="44,4.0000019"
       orientation="-39.999999,0"
       id="guide4081" />
    <sodipodi:guide
       position="44,44.000001"
       orientation="0,-39.999999"
       id="guide4083" />
    <sodipodi:guide
       position="7.0000181,44.000431"
       orientation="40.000002,0"
       id="guide4170" />
    <sodipodi:guide
       position="7.0000181,4.0004292"
       orientation="0,33.999986"
       id="guide4172" />
    <sodipodi:guide
       position="41.000004,4.0004292"
       orientation="-40.000002,0"
       id="guide4174" />
    <sodipodi:guide
       position="41.000004,44.000431"
       orientation="0,-33.999986"
       id="guide4176" />
    <sodipodi:guide
       position="7.0000181,44.000431"
       orientation="40.000002,0"
       id="guide4182" />
    <sodipodi:guide
       position="7.0000181,4.0004292"
       orientation="0,7"
       id="guide4184" />
    <sodipodi:guide
       position="14.000018,4.0004292"
       orientation="-40.000002,0"
       id="guide4186" />
    <sodipodi:guide
       position="14.000018,44.000431"
       orientation="0,-7"
       id="guide4188" />
    <sodipodi:guide
       position="18.500011,33.000215"
       orientation="17.999999,0"
       id="guide4196" />
    <sodipodi:guide
       position="18.500011,15.000216"
       orientation="0,18"
       id="guide4198" />
    <sodipodi:guide
       position="36.500011,15.000216"
       orientation="-17.999999,0"
       id="guide4200" />
    <sodipodi:guide
       position="36.500011,33.000215"
       orientation="0,-18"
       id="guide4202" />
    <sodipodi:guide
       orientation="0,1"
       position="11.237289,30.025425"
       id="guide3866" />
  </sodipodi:namedview>
  <defs
     id="defs4" />
  <rect
     style="fill:#2c3e50;fill-opacity:1;stroke:none"
     id="rect853"
     width="32"
     height="40"
     x="8"
     y="3.9995708" />
  <path
     style="fill:#ecf0f1;fill-opacity:1;stroke:none"
     d="m 11,6.0000001 25.5,0 L 36.5,36 11,36 z"
     id="rect853-9"
     inkscape:connector-curvature="0" />
  <path
     style="fill:#425c76;fill-opacity:1;stroke:none"
     d="m 16,38 4,0 0,4 -4,0 z"
     id="rect853-9-0-7-8"
     inkscape:connector-curvature="0" />
  <path
     style="fill:#425c76;fill-opacity:1;stroke:none"
     d="m 10,38 4,0 0,4 -4,0 z"
     id="rect853-9-0-7-8-6"
     inkscape:connector-curvature="0" />
  <path
     style="fill:#425c76;fill-opacity:1;stroke:none"
     d="m 34,38 4,0 0,4 -4,0 z"
     id="rect853-9-0-7-8-0"
     inkscape:connector-curvature="0" />
  <path
     style="fill:#425c76;fill-opacity:1;stroke:none"
     d="m 28,38 4,0 0,4 -4,0 z"
     id="rect853-9-0-7-8-6-6"
     inkscape:connector-curvature="0" />
  <g
     style="font-size:3.5522666px;font-style:normal;font-variant:normal;font-weight:normal;font-stretch:normal;line-height:125%;letter-spacing:0px;word-spacing:0px;fill:#2c3e50;fill-opacity:1;stroke:none;font-family:Ubuntu;-inkscape-font-specification:Ubuntu"
     id="text4021"
     transform="matrix(1.3333334,0,0,1.3333334,-8.6878383,-6.5341036)">
    <path
       d="m 18.370526,18.038752 c -0.354996,0 -0.66952,-0.113321 -0.943571,-0.339963 -0.274052,-0.226642 -0.411077,-0.540009 -0.411077,-0.940102 0,-0.389684 0.132978,-0.701895 0.398936,-0.936633 0.267113,-0.23589 0.585683,-0.353836 0.955712,-0.353839 0.132977,3e-6 0.27405,0.01503 0.423219,0.0451 0.150322,0.02891 0.29313,0.08673 0.428423,0.173451 l -0.04163,0.364246 c -0.0046,0.02082 -0.01619,0.03122 -0.03469,0.03122 l -0.0052,0 c -0.01388,-0.0012 -0.02891,-0.01734 -0.0451,-0.04857 -0.06707,-0.14454 -0.16767,-0.250923 -0.301804,-0.319149 -0.124886,-0.06128 -0.257864,-0.09193 -0.398936,-0.09193 l -0.03642,0 c -0.312212,0.01388 -0.556199,0.138763 -0.731961,0.374653 -0.158419,0.211612 -0.237628,0.44577 -0.237628,0.702475 0,0.02891 0.0012,0.05782 0.0035,0.08673 0.01619,0.265958 0.109852,0.508211 0.28099,0.726758 0.171137,0.218548 0.403561,0.334759 0.697271,0.348635 0.02775,0.0012 0.05435,0.0017 0.07979,0.0017 0.14801,0 0.270003,-0.02255 0.365981,-0.06765 0.111006,-0.05319 0.204091,-0.160152 0.279255,-0.320883 0.01503,-0.03238 0.03353,-0.04857 0.05551,-0.04857 0.0046,10e-7 0.0092,5.79e-4 0.01388,0.0017 0.0185,0.0069 0.02775,0.02024 0.02775,0.03989 -3e-6,0.0093 -0.0023,0.01966 -0.0069,0.03122 l -0.150902,0.421484 c -0.111011,0.04625 -0.223753,0.07747 -0.338229,0.09366 -0.114479,0.01619 -0.223174,0.02428 -0.326087,0.02428"
       style="fill:#2c3e50;fill-opacity:1;font-family:Caudex;-inkscape-font-specification:Caudex"
       id="path4026"
       inkscape:connector-curvature="0" />
    <path
       d="m 20.788426,15.499436 c 0.05782,0.13645 0.12893,0.303541 0.213345,0.501272 0.08557,0.197736 0.173448,0.401251 0.263644,0.610546 0.09135,0.209298 0.17923,0.412813 0.263645,0.610546 0.08557,0.197734 0.157838,0.364246 0.216813,0.499537 0.01734,0.04279 0.05146,0.08152 0.102336,0.116212 0.02659,0.01735 0.05261,0.0318 0.07805,0.04336 0.02659,0.01156 0.04798,0.02255 0.06418,0.03296 0.01156,0.0081 0.01908,0.01619 0.02255,0.02428 0.0023,0.0046 0.0035,0.0093 0.0035,0.01388 -3e-6,0.0035 -0.0012,0.0075 -0.0035,0.01214 -0.0035,0.0069 -0.01041,0.01041 -0.02081,0.01041 l -0.586263,0 c -0.01041,0 -0.02082,-0.0035 -0.03122,-0.01041 -0.01157,-0.0081 -0.0185,-0.01677 -0.02081,-0.02602 -0.0023,-0.0035 -0.0035,-0.0069 -0.0035,-0.01041 -2e-6,-0.01041 0.0069,-0.02139 0.02081,-0.03296 0.0104,-0.01041 0.02313,-0.02139 0.03816,-0.03296 0.01503,-0.01156 0.02602,-0.02717 0.03296,-0.04683 0.0035,-0.0093 0.0052,-0.01966 0.0052,-0.03122 -2e-6,-0.01966 -0.0046,-0.04105 -0.01388,-0.06418 l -0.256706,-0.593201 -1.011217,0 c -0.04163,0.09945 -0.08326,0.198891 -0.124884,0.298335 -0.04047,0.09829 -0.08152,0.196578 -0.12315,0.294866 -0.01041,0.02313 -0.01619,0.04394 -0.01735,0.06244 -0.0012,0.0081 -0.0017,0.01619 -0.0017,0.02428 0,0.01156 0.0017,0.02255 0.0052,0.03296 0.0035,0.01503 0.0092,0.02775 0.01734,0.03816 0.0081,0.0093 0.01387,0.01908 0.01734,0.02949 0.0012,0.0093 0.0017,0.01561 0.0017,0.01908 0,0.0035 -0.0012,0.0075 -0.0035,0.01214 -0.0081,0.02428 -0.02081,0.03643 -0.03816,0.03643 l -0.447502,0 c -0.01156,0 -0.01966,-0.0035 -0.02428,-0.01041 0,-0.0012 -0.0012,-0.004 -0.0035,-0.0087 0,-0.0023 0.0012,-0.0081 0.0035,-0.01734 0.0069,-0.01503 0.0266,-0.03006 0.05897,-0.0451 0.01734,-0.0081 0.03585,-0.01677 0.0555,-0.02602 0.02081,-0.01041 0.04163,-0.02255 0.06244,-0.03642 0.04278,-0.03006 0.07401,-0.06649 0.09366,-0.109274 l 0.983464,-2.221901 0.107539,0 m 0.327822,1.486471 -0.452706,-1.056314 c -0.07401,0.176922 -0.148012,0.353263 -0.222017,0.529025 -0.07285,0.175764 -0.145699,0.351527 -0.218547,0.527289 l 0.89327,0"
       style="fill:#2c3e50;fill-opacity:1;font-family:Caudex;-inkscape-font-specification:Caudex"
       id="path4028"
       inkscape:connector-curvature="0" />
    <path
       d="m 22.852488,17.811532 0.740633,0 c 0.107538,0 0.19831,-0.04105 0.272318,-0.12315 0.07516,-0.08326 0.13182,-0.148011 0.169981,-0.194265 0.02081,-0.02544 0.037,-0.03816 0.04857,-0.03816 0.02428,10e-7 0.03642,0.01214 0.03643,0.03643 -2e-6,0.01503 -0.0012,0.02717 -0.0035,0.03642 l -0.126619,0.445768 -1.588807,0 c -0.02428,0 -0.03643,-0.01214 -0.03642,-0.03643 -1e-6,-0.02891 0.02891,-0.05319 0.08672,-0.07285 0.05782,-0.02081 0.08673,-0.0688 0.08673,-0.143964 l 0,-1.927035 c 0,-0.074 -0.02891,-0.121413 -0.08673,-0.142229 -0.05782,-0.02081 -0.08673,-0.04625 -0.08672,-0.07632 -1e-6,-0.02428 0.01214,-0.03642 0.03642,-0.03642 l 0.587998,0 c 0.02313,2e-6 0.03469,0.01214 0.03469,0.03642 -1e-6,0.03007 -0.02891,0.05551 -0.08673,0.07632 -0.05782,0.02082 -0.08673,0.06823 -0.08672,0.142229 l 0.0017,2.01723"
       style="fill:#2c3e50;fill-opacity:1;font-family:Caudex;-inkscape-font-specification:Caudex"
       id="path4030"
       inkscape:connector-curvature="0" />
    <path
       d="m 25.022354,15.794302 0,1.925301 c -1e-6,0.07632 0.02891,0.124884 0.08673,0.145698 0.05782,0.01966 0.08672,0.04394 0.08672,0.07285 0,0.02428 -0.01214,0.03643 -0.03642,0.03643 l -0.587997,0 c -0.02313,0 -0.03469,-0.01214 -0.03469,-0.03643 -1e-6,-0.02891 0.02891,-0.05319 0.08673,-0.07285 0.05782,-0.02081 0.08672,-0.0688 0.08672,-0.143964 l 0,-1.927035 c 0,-0.07516 -0.02891,-0.122569 -0.08672,-0.142229 -0.05782,-0.02081 -0.08673,-0.04625 -0.08673,-0.07632 -1e-6,-0.02428 0.01214,-0.03642 0.03642,-0.03642 l 0.586263,0 c 0.02428,2e-6 0.03642,0.01214 0.03642,0.03642 0,0.03007 -0.02891,0.05551 -0.08672,0.07632 -0.05782,0.01966 -0.08673,0.06707 -0.08673,0.142229"
       style="fill:#2c3e50;fill-opacity:1;font-family:Caudex;-inkscape-font-specification:Caudex"
       id="path4032"
       inkscape:connector-curvature="0" />
    <path
       d="m 26.689213,15.53933 c 0.11332,2e-6 0.231266,0.02024 0.353839,0.06071 0.123727,0.03932 0.218546,0.116793 0.284459,0.232424 0.05319,0.09251 0.07978,0.204674 0.07979,0.336494 -0.0023,0.124886 -0.03816,0.235894 -0.107539,0.333025 -0.04972,0.07285 -0.126621,0.13298 -0.230689,0.180389 0.164198,0.05319 0.284457,0.145121 0.360777,0.275786 0.05782,0.102915 0.08672,0.226643 0.08673,0.371184 -0.0023,0.137605 -0.04163,0.260176 -0.117946,0.367715 -0.06591,0.09366 -0.158998,0.163622 -0.279256,0.209875 -0.12026,0.0451 -0.23069,0.06765 -0.33129,0.06765 l -1.087535,0 c -0.02428,0 -0.03643,-0.01214 -0.03642,-0.03643 -1e-6,-0.02891 0.02891,-0.05377 0.08672,-0.07458 0.05782,-0.02081 0.08673,-0.06822 0.08673,-0.14223 l 0,-1.928769 c 0,-0.07285 -0.02891,-0.119679 -0.08673,-0.140495 -0.05782,-0.02081 -0.08673,-0.04625 -0.08672,-0.07632 -1e-6,-0.02428 0.01214,-0.03642 0.03642,-0.03642 l 0.988668,0 m -0.539431,1.24364 0,1.064986 0.391998,0 c 0.08441,0 0.169402,-0.01214 0.254972,-0.03642 0.08672,-0.02544 0.161308,-0.0688 0.223752,-0.130088 0.09597,-0.09366 0.143962,-0.217391 0.143964,-0.371184 -2e-6,-0.148011 -0.0503,-0.271739 -0.150902,-0.371185 -0.108697,-0.104069 -0.253818,-0.156104 -0.435361,-0.156105 l -0.428423,0 m 0,-0.150902 0.478723,0 c 0.136447,-0.01503 0.246299,-0.06244 0.329556,-0.142229 0.08672,-0.08441 0.130087,-0.196576 0.130088,-0.336494 -10e-7,-0.136446 -0.04568,-0.248611 -0.137026,-0.336494 -0.09829,-0.09366 -0.228955,-0.140493 -0.391998,-0.140495 l -0.409343,0 0,0.955712"
       style="fill:#2c3e50;fill-opacity:1;font-family:Caudex;-inkscape-font-specification:Caudex"
       id="path4034"
       inkscape:connector-curvature="0" />
    <path
       d="m 29.809588,17.849691 c 0.03237,0.0266 0.07458,0.04221 0.126619,0.04683 0.03238,0.0035 0.04856,0.01561 0.04857,0.03642 l 0,0.0052 c -0.0035,0.02428 -0.01561,0.03643 -0.03643,0.03643 l -0.463113,0 c -0.01041,0 -0.04972,-0.0451 -0.117946,-0.135291 -0.06822,-0.09019 -0.147434,-0.197734 -0.237627,-0.322618 -0.0902,-0.124884 -0.182703,-0.252659 -0.277521,-0.383326 -0.09482,-0.130665 -0.17403,-0.235892 -0.237627,-0.31568 l -0.277521,0 0,0.903677 c -10e-7,0.07516 0.02891,0.12315 0.08673,0.143964 0.05782,0.01966 0.08672,0.04394 0.08673,0.07285 -1e-6,0.02428 -0.01157,0.03643 -0.03469,0.03643 l -0.587997,0 c -0.02428,0 -0.03643,-0.01214 -0.03642,-0.03643 -10e-7,-0.02891 0.02891,-0.05319 0.08673,-0.07285 0.05782,-0.02081 0.08672,-0.0688 0.08672,-0.143964 l 0,-1.927035 c 0,-0.074 -0.02891,-0.121413 -0.08672,-0.142229 -0.05782,-0.02081 -0.08673,-0.04625 -0.08673,-0.07632 -10e-7,-0.02428 0.01214,-0.03642 0.03642,-0.03642 l 1.023358,0 c 0.119102,2e-6 0.243408,0.02139 0.372919,0.06418 0.129508,0.04163 0.229531,0.123153 0.300069,0.244566 0.0555,0.09829 0.08325,0.216237 0.08326,0.353839 -0.0023,0.130667 -0.0399,0.248036 -0.112743,0.352104 -0.05782,0.0821 -0.138184,0.145122 -0.241097,0.189061 -0.102915,0.04279 -0.200625,0.06707 -0.293131,0.07285 l 0.7892,1.033765 m -1.472595,-2.166397 0,1.012951 0.402405,0 c 0.07979,1e-6 0.16073,-0.01156 0.242831,-0.03469 0.0821,-0.02313 0.152635,-0.06418 0.21161,-0.12315 0.0925,-0.08904 0.138758,-0.206983 0.13876,-0.353839 -2e-6,-0.141071 -0.04799,-0.259018 -0.143964,-0.353839 C 29.085732,15.73244 28.94755,15.683299 28.7741,15.683297 l -0.437095,0"
       style="fill:#2c3e50;fill-opacity:1;font-family:Caudex;-inkscape-font-specification:Caudex"
       id="path4036"
       inkscape:connector-curvature="0" />
    <path
       d="m 30.747955,17.811532 0.740634,0 c 0.107537,0 0.19831,-0.04105 0.272317,-0.12315 0.07516,-0.08326 0.13182,-0.148011 0.169981,-0.194265 0.02081,-0.02544 0.037,-0.03816 0.04857,-0.03816 0.02428,10e-7 0.03642,0.01214 0.03642,0.03643 -2e-6,0.01503 -0.0012,0.02717 -0.0035,0.03642 l -0.126619,0.445768 -1.59401,0 c -0.02081,0 -0.03122,-0.01214 -0.03122,-0.03643 0,-0.02891 0.02891,-0.05319 0.08672,-0.07285 0.05782,-0.02081 0.08673,-0.0688 0.08673,-0.143964 l 0,-1.927035 c 0,-0.07516 -0.02891,-0.122569 -0.08673,-0.142229 -0.05782,-0.02081 -0.08672,-0.04625 -0.08672,-0.07632 0,-0.02428 0.01214,-0.03642 0.03642,-0.03642 l 1.60962,0 0,0.445768 c -2e-6,0.02428 -0.01214,0.03643 -0.03642,0.03642 -0.01157,2e-6 -0.03296,-0.02313 -0.06418,-0.06938 -0.05782,-0.07979 -0.108119,-0.141649 -0.150902,-0.185592 -0.04163,-0.04394 -0.09713,-0.06591 -0.166512,-0.06591 l -0.740634,0 0,0.941836 0.397202,0 c 0.074,1e-6 0.12257,-0.02949 0.145698,-0.08846 0.02313,-0.06013 0.04972,-0.09019 0.07979,-0.09019 0.02313,2e-6 0.03469,0.01214 0.03469,0.03643 l 0,0.440564 c -1e-6,0.02428 -0.01156,0.03643 -0.03469,0.03643 -0.03007,10e-7 -0.0584,-0.02949 -0.08499,-0.08846 -0.0266,-0.05897 -0.0769,-0.08846 -0.150902,-0.08846 l -0.386795,0 0,1.011217"
       style="fill:#2c3e50;fill-opacity:1;font-family:Caudex;-inkscape-font-specification:Caudex"
       id="path4038"
       inkscape:connector-curvature="0" />
  </g>
  <g
     style="font-size:40px;font-style:normal;font-variant:normal;font-weight:normal;font-stretch:normal;line-height:125%;letter-spacing:0px;word-spacing:0px;fill:#2c3e50;fill-opacity:1;stroke:none;font-family:Ubuntu;-inkscape-font-specification:Ubuntu"
     id="text4040"
     transform="matrix(0.06999317,0,0,0.06999317,21.842008,12.202202)">
    <path
       d="m 28.536539,11.398234 c -0.273445,0 -0.410163,-0.136718 -0.410156,-0.410156 -7e-6,-0.312499 0.325513,-0.585936 0.976562,-0.820312 0.651033,-0.2343739 0.976554,-0.774738 0.976563,-1.6210941 l 0,-21.6015629 -3.964844,0 0,-0.917968 7.5,-3.203125 0,25.7226559 c -1.3e-5,0.859377 0.318998,1.399741 0.957031,1.6210941 0.651028,0.221355 0.976548,0.494792 0.976563,0.820312 -1.5e-5,0.273438 -0.130223,0.410156 -0.390625,0.410156 l -6.621094,0"
       style="fill:#2c3e50;fill-opacity:1;font-family:Caudex;-inkscape-font-specification:Caudex"
       id="path4045"
       inkscape:connector-curvature="0" />
  </g>
  <path
     style="fill:#425c76;fill-opacity:1;stroke:none"
     d="m 12,23 23,0 0,1 -23,0 z"
     id="rect853-9-0-7-8-6-63-4"
     inkscape:connector-curvature="0" />
  <path
     style="fill:#425c76;fill-opacity:1;stroke:none"
     d="m 12,25 9,0 0,1 -9,0 z"
     id="rect853-9-0-7-8-6-63-53"
     inkscape:connector-curvature="0" />
  <path
     style="fill:#425c76;fill-opacity:1;stroke:none"
     d="m 12,21 23,0 0,1 -23,0 z"
     id="rect853-9-0-7-8-6-63-4-6"
     inkscape:connector-curvature="0" />
  <path
     style="fill:#425c76;fill-opacity:1;stroke:none"
     d="m 12,19 23,0 0,1 -23,0 z"
     id="rect853-9-0-7-8-6-63-4-6-0"
     inkscape:connector-curvature="0" />
  <path
     style="fill:#425c76;fill-opacity:1;stroke:none"
     d="m 12,31 23,0 0,1 -23,0 z"
     id="rect853-9-0-7-8-6-63-4-0"
     inkscape:connector-curvature="0" />
  <path
     style="fill:#425c76;fill-opacity:1;stroke:none"
     d="m 12,33 15,0 0,1 -15,0 z"
     id="rect853-9-0-7-8-6-63-53-0"
     inkscape:connector-curvature="0" />
  <path
     style="fill:#425c76;fill-opacity:1;stroke:none"
     d="m 12,29 23,0 0,1 -23,0 z"
     id="rect853-9-0-7-8-6-63-4-6-08"
     inkscape:connector-curvature="0" />
  <path
     style="fill:#425c76;fill-opacity:1;stroke:none"
     d="m 12,27 23,0 0,1 -23,0 z"
     id="rect853-9-0-7-8-6-63-4-6-0-9"
     inkscape:connector-curvature="0" />
  <path
     style="fill:#7b98b5;fill-opacity:1;stroke:none"
     d="m 22,37.864407 4,0 0,4 -4,0 z"
     id="rect853-9-0-7-8-6-6-0"
     inkscape:connector-curvature="0" />
</svg>
