<?xml version="1.0" encoding="UTF-8" standalone="no"?>
<!-- Created using Karbon, part of Calligra: http://www.calligra.org/karbon -->

<svg
   xmlns:dc="http://purl.org/dc/elements/1.1/"
   xmlns:cc="http://creativecommons.org/ns#"
   xmlns:rdf="http://www.w3.org/1999/02/22-rdf-syntax-ns#"
   xmlns:svg="http://www.w3.org/2000/svg"
   xmlns="http://www.w3.org/2000/svg"
   xmlns:sodipodi="http://sodipodi.sourceforge.net/DTD/sodipodi-0.dtd"
   xmlns:inkscape="http://www.inkscape.org/namespaces/inkscape"
   width="38.4pt"
   height="38.4pt"
   id="svg2"
   version="1.1"
   inkscape:version="0.49 r12742"
   sodipodi:docname="calligrakarbon.svg">
  <metadata
     id="metadata15">
    <rdf:RDF>
      <cc:Work
         rdf:about="">
        <dc:format>image/svg+xml</dc:format>
        <dc:type
           rdf:resource="http://purl.org/dc/dcmitype/StillImage" />
        <dc:title></dc:title>
      </cc:Work>
    </rdf:RDF>
  </metadata>
  <sodipodi:namedview
     pagecolor="#ffffff"
     bordercolor="#666666"
     borderopacity="1"
     objecttolerance="10"
     gridtolerance="10"
     guidetolerance="10"
     inkscape:pageopacity="0"
     inkscape:pageshadow="2"
     inkscape:window-width="1366"
     inkscape:window-height="718"
     id="namedview13"
     showgrid="false"
     borderlayer="true"
     inkscape:showpageshadow="false"
     inkscape:zoom="3.4766082"
     inkscape:cx="2.3906527"
     inkscape:cy="34.839109"
     inkscape:window-x="-2"
     inkscape:window-y="23"
     inkscape:window-maximized="1"
     inkscape:current-layer="svg2">
    <sodipodi:guide
       position="9.5367432e-07,48.000001"
       orientation="47.999999,0"
       id="guide4073" />
    <sodipodi:guide
       position="9.5367432e-07,1.9073486e-06"
       orientation="0,47.999999"
       id="guide4075" />
    <sodipodi:guide
       position="48,1.9073486e-06"
       orientation="-47.999999,0"
       id="guide4077" />
    <sodipodi:guide
       position="48,48.000001"
       orientation="0,-47.999999"
       id="guide4079" />
    <sodipodi:guide
       position="4.000001,44.000001"
       orientation="39.999999,0"
       id="guide4081" />
    <sodipodi:guide
       position="4.000001,4.0000019"
       orientation="0,39.999999"
       id="guide4083" />
    <sodipodi:guide
       position="44,4.0000019"
       orientation="-39.999999,0"
       id="guide4085" />
    <sodipodi:guide
       position="44,44.000001"
       orientation="0,-39.999999"
       id="guide4087" />
  </sodipodi:namedview>
  <defs
     id="defs4" />
  <rect
     style="fill:#2c3e50;fill-opacity:1;stroke:none"
     id="rect4089"
     width="40"
     height="40"
     x="4.000001"
     y="4.000001"
     ry="20" />
  <path
     style="fill:#ecf0f1;fill-opacity:1;stroke:none"
     d="m 16.000001,15.000001 0,1 0,0.0098 a 7.4999888,7.4999888 0 0 1 0.300782,-0.0098 7.4999888,7.4999888 0 0 1 7.5,7.5 7.4999888,7.4999888 0 0 1 -4.800782,6.996093 l 0,-1.496093 -4,0 0,4 4,0 0,-1.447266 a 8.4999889,8.4999889 0 0 0 0.134766,-0.05273 l 9.93164,0 a 2.0000008,2.0000008 0 0 0 1.933594,1.5 2.0000008,2.0000008 0 0 0 2,-2 2.0000008,2.0000008 0 0 0 -2,-2 2.0000008,2.0000008 0 0 0 -1.935547,1.5 l -7.964843,0 a 8.4999889,8.4999889 0 0 0 3.701172,-7 8.4999889,8.4999889 0 0 0 -4.515626,-7.5 l 9.714844,0 0,-1 -14,0 z m 0,15 2,0 0,2 -2,0 0,-2 z m 15,0 a 1.0000003,1.0000003 0 0 1 1,1 1.0000003,1.0000003 0 0 1 -1,1 1.0000003,1.0000003 0 0 1 -1,-1 1.0000003,1.0000003 0 0 1 1,-1 z"
     id="rect4254-2"
     inkscape:connector-curvature="0" />
</svg>
