<?xml version="1.0" encoding="UTF-8" standalone="no"?>
<!-- Created with Inkscape (http://www.inkscape.org/) -->

<svg
   xmlns:dc="http://purl.org/dc/elements/1.1/"
   xmlns:cc="http://creativecommons.org/ns#"
   xmlns:rdf="http://www.w3.org/1999/02/22-rdf-syntax-ns#"
   xmlns:svg="http://www.w3.org/2000/svg"
   xmlns="http://www.w3.org/2000/svg"
   xmlns:sodipodi="http://sodipodi.sourceforge.net/DTD/sodipodi-0.dtd"
   xmlns:inkscape="http://www.inkscape.org/namespaces/inkscape"
   width="48"
   height="48"
   id="svg2"
   version="1.1"
   inkscape:version="0.48+devel r12923"
   sodipodi:docname="checkbox.svg">
  <defs
     id="defs4" />
  <sodipodi:namedview
     id="base"
     pagecolor="#ffffff"
     bordercolor="#666666"
     borderopacity="1.0"
     inkscape:pageopacity="0.0"
     inkscape:pageshadow="2"
     inkscape:zoom="8.0624999"
     inkscape:cx="21.230717"
     inkscape:cy="32.04139"
     inkscape:document-units="px"
     inkscape:current-layer="layer1"
     showgrid="false"
     inkscape:window-width="1366"
     inkscape:window-height="669"
     inkscape:window-x="0"
     inkscape:window-y="26"
     inkscape:window-maximized="1"
     inkscape:object-paths="true">
    <sodipodi:guide
       position="4,44.000017"
       orientation="40,0"
       id="guide4081" />
    <sodipodi:guide
       position="4,4.0000174"
       orientation="0,40"
       id="guide4083" />
    <sodipodi:guide
       position="44,4.0000174"
       orientation="-40,0"
       id="guide4085" />
    <sodipodi:guide
       position="44,44.000017"
       orientation="0,-40"
       id="guide4087" />
    <sodipodi:guide
       position="9,39.000017"
       orientation="30,0"
       id="guide4093" />
    <sodipodi:guide
       position="9,9.0000174"
       orientation="0,30"
       id="guide4095" />
    <sodipodi:guide
       position="39,9.0000174"
       orientation="-30,0"
       id="guide4097" />
    <sodipodi:guide
       position="39,39.000017"
       orientation="0,-30"
       id="guide4099" />
    <sodipodi:guide
       position="15,33.000017"
       orientation="18,0"
       id="guide4103" />
    <sodipodi:guide
       position="15,15.000017"
       orientation="0,18"
       id="guide4105" />
    <sodipodi:guide
       position="33,15.000017"
       orientation="-18,0"
       id="guide4107" />
    <sodipodi:guide
       position="33,33.000017"
       orientation="0,-18"
       id="guide4109" />
  </sodipodi:namedview>
  <metadata
     id="metadata7">
    <rdf:RDF>
      <cc:Work
         rdf:about="">
        <dc:format>image/svg+xml</dc:format>
        <dc:type
           rdf:resource="http://purl.org/dc/dcmitype/StillImage" />
        <dc:title />
      </cc:Work>
    </rdf:RDF>
  </metadata>
  <g
     inkscape:label="Capa 1"
     inkscape:groupmode="layer"
     id="layer1"
     transform="translate(0,-1004.3622)">
    <rect
       style="fill:#27ae60;fill-opacity:1;stroke:none"
       id="rect4077"
       width="40"
       height="40"
       x="4"
       y="1008.3622"
       ry="0" />
    <g
       transform="translate(-366.57144,504.57145)"
       id="layer1-7"
       inkscape:label="Capa 1">
      <rect
         y="508.79074"
         x="373.57144"
         height="30"
         width="30"
         id="rect3260"
         style="fill:none;stroke:none" />
      <rect
         style="fill:none;stroke:none"
         id="rect3272"
         width="15"
         height="15"
         x="388.57144"
         y="508.79074" />
      <rect
         y="519.29077"
         x="384.07144"
         height="9"
         width="9"
         id="rect3322"
         style="fill:none;stroke:none" />
      <rect
         transform="matrix(0.70710678,-0.70710678,0.70710678,0.70710678,0,0)"
         y="640.7735"
         x="-97.614502"
         height="8.7279997"
         width="4"
         id="rect3284"
         style="fill:#ff8080;fill-opacity:1;fill-rule:evenodd;stroke:none" />
      <path
         id="path3304"
         transform="translate(364.57143,499.79075)"
         d="M 23.994141,9 C 20.066877,9.0002328 16.165567,10.617701 13.390625,13.394531 10.615683,16.171361 9,20.073326 9,24 c 0,3.926674 1.615683,7.828639 4.390625,10.605469 2.774942,2.77683 6.676252,4.394298 10.603516,4.394531 3.927263,2.33e-4 7.830892,-1.615734 10.609375,-4.392578 C 37.381999,31.830578 39,27.927112 39,24 l -4,0 c 0,2.879882 -1.187055,5.742944 -3.224609,7.779297 C 29.737836,33.81565 26.874134,35.000171 23.994141,35 21.114147,34.999829 18.253707,33.813686 16.21875,31.777344 14.183793,29.741001 13,26.879561 13,24 13,21.120439 14.183793,18.258999 16.21875,16.222656 18.253707,14.186314 21.114147,13.000171 23.994141,13 c 0.002,0 0.0039,-10e-7 0.0059,0 l 0,-4 c -0.002,-7e-7 -0.0039,-10e-8 -0.0059,0 z"
         style="fill:#ecf0f1;fill-opacity:1;fill-rule:evenodd;stroke:none"
         inkscape:connector-curvature="0" />
      <rect
         y="508.79074"
         x="403.57144"
         height="15.00003"
         width="4"
         id="rect3331"
         style="fill:none;stroke:none" />
      <path
         id="path4149"
         d="m 404.74331,508.79075 -17,17 2.82812,2.82812 17,-17 -2.82812,-2.82812 z"
         style="fill:#ecf0f1;fill-opacity:1;fill-rule:evenodd;stroke:none"
         inkscape:connector-curvature="0" />
      <rect
         style="fill:#ecf0f1;fill-opacity:1;fill-rule:evenodd;stroke:none"
         id="rect3339"
         width="4"
         height="8.7279997"
         x="-97.614502"
         y="640.7735"
         transform="matrix(0.70710678,-0.70710678,0.70710678,0.70710678,0,0)" />
    </g>
  </g>
</svg>
