<?xml version="1.0" encoding="UTF-8" standalone="no"?>
<!-- Created with Inkscape (http://www.inkscape.org/) -->

<svg
   xmlns:dc="http://purl.org/dc/elements/1.1/"
   xmlns:cc="http://creativecommons.org/ns#"
   xmlns:rdf="http://www.w3.org/1999/02/22-rdf-syntax-ns#"
   xmlns:svg="http://www.w3.org/2000/svg"
   xmlns="http://www.w3.org/2000/svg"
   xmlns:sodipodi="http://sodipodi.sourceforge.net/DTD/sodipodi-0.dtd"
   xmlns:inkscape="http://www.inkscape.org/namespaces/inkscape"
   width="48"
   height="48"
   id="svg2"
   version="1.1"
   inkscape:version="0.49 r12742"
   sodipodi:docname="chromium.svg">
  <defs
     id="defs4" />
  <sodipodi:namedview
     id="base"
     pagecolor="#ffffff"
     bordercolor="#666666"
     borderopacity="1.0"
     inkscape:pageopacity="0.0"
     inkscape:pageshadow="2"
     inkscape:zoom="11.477676"
     inkscape:cx="18.008604"
     inkscape:cy="24.287109"
     inkscape:document-units="px"
     inkscape:current-layer="layer1"
     showgrid="false"
     fit-margin-top="0"
     fit-margin-left="0"
     fit-margin-right="0"
     fit-margin-bottom="0"
     inkscape:window-width="1366"
     inkscape:window-height="718"
     inkscape:window-x="-2"
     inkscape:window-y="23"
     inkscape:window-maximized="1">
    <sodipodi:guide
       position="8.9999928,39"
       orientation="30,0"
       id="guide3290" />
    <sodipodi:guide
       position="8.9999928,9"
       orientation="0,30"
       id="guide3292" />
    <sodipodi:guide
       position="38.999993,9"
       orientation="-30,0"
       id="guide3294" />
    <sodipodi:guide
       position="38.999993,39"
       orientation="0,-30"
       id="guide3296" />
    <sodipodi:guide
       position="21.999993,48"
       orientation="4,0"
       id="guide3314" />
    <sodipodi:guide
       position="21.999993,44"
       orientation="0,4"
       id="guide3316" />
    <sodipodi:guide
       position="25.999993,44"
       orientation="-4,0"
       id="guide3318" />
    <sodipodi:guide
       position="25.999993,48"
       orientation="0,-4"
       id="guide3320" />
    <sodipodi:guide
       position="21.999993,44"
       orientation="4,0"
       id="guide3322" />
    <sodipodi:guide
       position="21.999993,40"
       orientation="0,4"
       id="guide3324" />
    <sodipodi:guide
       position="25.999993,40"
       orientation="-4,0"
       id="guide3326" />
    <sodipodi:guide
       position="-19.25,44"
       orientation="0,-4"
       id="guide3328" />
    <sodipodi:guide
       position="21.999993,4"
       orientation="4,0"
       id="guide3330" />
    <sodipodi:guide
       position="21.999993,0"
       orientation="0,4"
       id="guide3332" />
    <sodipodi:guide
       position="25.999993,0"
       orientation="-4,0"
       id="guide3334" />
    <sodipodi:guide
       position="25.999993,4"
       orientation="0,-4"
       id="guide3336" />
    <sodipodi:guide
       position="21.999993,8"
       orientation="4,0"
       id="guide3338" />
    <sodipodi:guide
       position="21.999993,4"
       orientation="0,4"
       id="guide3340" />
    <sodipodi:guide
       position="25.999993,4"
       orientation="-4,0"
       id="guide3342" />
    <sodipodi:guide
       position="25.999993,8"
       orientation="0,-4"
       id="guide3344" />
    <sodipodi:guide
       position="47.999993,26"
       orientation="0,-4"
       id="guide3346" />
    <sodipodi:guide
       position="43.999993,26"
       orientation="4,0"
       id="guide3348" />
    <sodipodi:guide
       position="43.999993,22"
       orientation="0,4"
       id="guide3350" />
    <sodipodi:guide
       position="47.999993,22"
       orientation="-4,0"
       id="guide3352" />
    <sodipodi:guide
       position="3.9999928,26"
       orientation="0,-4"
       id="guide3354" />
    <sodipodi:guide
       position="-7.2167969e-06,26"
       orientation="4,0"
       id="guide3356" />
    <sodipodi:guide
       position="-7.2167969e-06,22"
       orientation="0,4"
       id="guide3358" />
    <sodipodi:guide
       position="3.9999928,22"
       orientation="-4,0"
       id="guide3360" />
    <sodipodi:guide
       position="43.999993,26"
       orientation="0,-4"
       id="guide3362" />
    <sodipodi:guide
       position="39.999993,26"
       orientation="4,0"
       id="guide3364" />
    <sodipodi:guide
       position="39.999993,22"
       orientation="0,4"
       id="guide3366" />
    <sodipodi:guide
       position="43.999993,22"
       orientation="-4,0"
       id="guide3368" />
    <sodipodi:guide
       position="7.9999928,26"
       orientation="0,-4"
       id="guide3370" />
    <sodipodi:guide
       position="3.9999928,26"
       orientation="4,0"
       id="guide3372" />
    <sodipodi:guide
       position="3.9999928,22"
       orientation="0,4"
       id="guide3374" />
    <sodipodi:guide
       position="7.9999928,22"
       orientation="-4,0"
       id="guide3376" />
    <sodipodi:guide
       position="14.999993,33"
       orientation="18,0"
       id="guide3413" />
    <sodipodi:guide
       position="14.999993,15"
       orientation="0,18"
       id="guide3415" />
    <sodipodi:guide
       position="32.999993,15"
       orientation="-18,0"
       id="guide3417" />
    <sodipodi:guide
       position="32.999993,33"
       orientation="0,-18"
       id="guide3419" />
  </sodipodi:namedview>
  <metadata
     id="metadata7">
    <rdf:RDF>
      <cc:Work
         rdf:about="">
        <dc:format>image/svg+xml</dc:format>
        <dc:type
           rdf:resource="http://purl.org/dc/dcmitype/StillImage" />
        <dc:title />
      </cc:Work>
    </rdf:RDF>
  </metadata>
  <g
     inkscape:label="Capa 1"
     inkscape:groupmode="layer"
     id="layer1"
     transform="translate(-180.23661,-689.8125)">
    <g
       id="g4112">
      <path
         transform="translate(180.23661,689.8125)"
         id="path3511"
         d="M 24 4 C 17.434554 4 11.6461 7.1464574 8.0039062 12.003906 L 15.109375 22.660156 C 15.246063 21.739614 15.520321 20.866707 15.912109 20.060547 C 16.01009 19.858937 16.114323 19.66151 16.226562 19.46875 C 16.55927 18.897359 16.952263 18.368525 17.398438 17.886719 C 17.408172 17.876192 17.41795 17.865949 17.427734 17.855469 C 18.020857 17.221059 18.702003 16.673533 19.457031 16.232422 C 19.476747 16.220895 19.495812 16.208647 19.515625 16.197266 C 19.677558 16.104311 19.84359 16.018517 20.011719 15.935547 C 20.058476 15.912466 20.105124 15.889476 20.152344 15.867188 C 20.325527 15.785454 20.50059 15.707531 20.679688 15.636719 C 20.709286 15.625017 20.739777 15.614913 20.769531 15.603516 C 21.167268 15.451153 21.577042 15.323927 22 15.228516 C 22.308062 15.159022 22.622051 15.105554 22.941406 15.068359 C 22.943448 15.068122 22.945224 15.066643 22.947266 15.066406 C 22.959176 15.065006 22.970492 15.061947 22.982422 15.060547 C 22.984998 15.060259 22.987657 15.060833 22.990234 15.060547 C 23.322294 15.023715 23.6578 15 24 15 L 41.857422 15 C 38.57269 8.4700485 31.834723 4 24 4 z "
         style="fill:#6795b1;fill-opacity:1;fill-rule:evenodd;stroke:none" />
      <path
         id="rect3426"
         transform="translate(180.23661,689.8125)"
         d="M 24 4 C 24.446956 4 24.888746 4.0201802 25.328125 4.0488281 C 24.888511 4.0202248 24.447092 4 24 4 z M 25.625 4.0703125 C 25.985042 4.0991094 26.343027 4.1380414 26.697266 4.1855469 C 26.343036 4.1381737 25.984968 4.0990314 25.625 4.0703125 z M 26.951172 4.2167969 C 27.357017 4.276491 27.75698 4.3500068 28.154297 4.4335938 C 27.756927 4.3502479 27.356992 4.2763169 26.951172 4.2167969 z M 29.789062 4.8515625 C 29.972213 4.9066946 30.151179 4.9710558 30.332031 5.03125 C 30.150877 4.9711497 29.972508 4.9066 29.789062 4.8515625 z M 31.425781 5.4316406 C 31.628334 5.5125776 31.832077 5.5904256 32.03125 5.6777344 C 31.831755 5.5905595 31.62865 5.5124435 31.425781 5.4316406 z M 33.181641 6.2304688 C 33.485142 6.3875181 33.782096 6.5546407 34.076172 6.7265625 C 33.781629 6.5549121 33.485601 6.3872456 33.181641 6.2304688 z M 34.832031 7.1855469 C 35.085934 7.3495365 35.336274 7.518317 35.582031 7.6933594 C 35.335807 7.518518 35.086409 7.3493241 34.832031 7.1855469 z M 36.125 8.0996094 C 36.619527 8.4777951 37.096272 8.8768769 37.552734 9.2988281 C 37.095486 8.8773119 36.620377 8.4773046 36.125 8.0996094 z M 37.865234 9.5839844 C 38.131798 9.8410537 38.388664 10.109369 38.640625 10.380859 C 38.387785 10.109047 38.132773 9.8412923 37.865234 9.5839844 z M 41.21875 13.833984 C 41.442654 14.213878 41.656386 14.60054 41.855469 14.996094 C 41.656218 14.600205 41.44298 14.214116 41.21875 13.833984 z M 6.59375 14.166016 C 6.230478 14.810392 5.900859 15.477027 5.609375 16.164062 C 5.9013836 15.477547 6.2310348 14.81098 6.59375 14.166016 z M 24 15 C 28.986 15 33 19.014 33 24 C 33 25.815607 32.462542 27.499203 31.544922 28.910156 L 24 44 C 35.08 44 44 35.08 44 24 C 44 20.754723 43.218014 17.704818 41.857422 15 L 24 15 z M 20.152344 15.867188 C 20.105124 15.889476 20.058476 15.912466 20.011719 15.935547 C 20.058411 15.912505 20.105194 15.88944 20.152344 15.867188 z M 19.515625 16.197266 C 19.495812 16.208647 19.476747 16.220895 19.457031 16.232422 C 19.476725 16.220916 19.495836 16.208625 19.515625 16.197266 z M 5.0292969 17.673828 C 4.9198241 18.004145 4.8249518 18.33992 4.7324219 18.677734 C 4.8257741 18.340398 4.918967 18.003641 5.0292969 17.673828 z M 17.427734 17.855469 C 17.41795 17.865949 17.408172 17.876192 17.398438 17.886719 C 17.408139 17.876243 17.417984 17.865898 17.427734 17.855469 z M 4.53125 19.462891 C 4.4414461 19.852324 4.3519803 20.240758 4.2851562 20.638672 C 4.3526536 20.241477 4.4406696 19.851513 4.53125 19.462891 z M 4.2695312 20.726562 C 4.1904255 21.210838 4.1278933 21.70173 4.0839844 22.197266 C 4.1284547 21.701729 4.1895197 21.210591 4.2695312 20.726562 z M 4.0605469 22.501953 C 4.0241609 22.997114 4 23.495234 4 24 C 4 23.494953 4.0237076 22.997062 4.0605469 22.501953 z M 33 26 L 32.998047 26.003906 L 32.994141 26.003906 L 33 26 z M 21.816406 32.724609 L 21.820312 32.730469 L 21.837891 32.730469 C 21.830665 32.728696 21.823625 32.726399 21.816406 32.724609 z "
         style="fill:#93b7cd;fill-opacity:1;fill-rule:evenodd;stroke:none" />
      <path
         transform="translate(180.23661,689.8125)"
         id="rect3423"
         d="M 8.0039062 12.003906 C 5.4994492 15.344001 4 19.485446 4 24 C 4 35.08 12.92 44 24 44 L 31.544922 28.910156 C 29.942584 31.373948 27.170393 33 24 33 C 23.252663 33 22.53131 32.900583 21.837891 32.730469 L 21.820312 32.730469 L 21.816406 32.724609 C 17.894564 31.752121 15 28.230876 15 24 C 15 23.543767 15.044489 23.099735 15.109375 22.662109 L 8.0039062 12.003906 z M 33 26 L 32.994141 26.003906 L 32.998047 26.003906 L 33 26 z "
         style="fill:#b2ccdb;fill-opacity:1;fill-rule:evenodd;stroke:none" />
      <rect
         ry="9"
         y="704.8125"
         x="195.2366"
         height="18"
         width="18"
         id="rect3431"
         style="fill:#ecf0f1;fill-opacity:1;fill-rule:evenodd;stroke:none" />
      <rect
         style="fill:#a9cfe4;fill-opacity:1;fill-rule:evenodd;stroke:none"
         id="rect3400"
         width="15"
         height="15"
         x="196.7366"
         y="706.3125"
         ry="7.5" />
    </g>
  </g>
</svg>
