<?xml version="1.0" encoding="UTF-8" standalone="no"?>
<!-- Created with Inkscape (http://www.inkscape.org/) -->

<svg
   xmlns:dc="http://purl.org/dc/elements/1.1/"
   xmlns:cc="http://creativecommons.org/ns#"
   xmlns:rdf="http://www.w3.org/1999/02/22-rdf-syntax-ns#"
   xmlns:svg="http://www.w3.org/2000/svg"
   xmlns="http://www.w3.org/2000/svg"
   xmlns:sodipodi="http://sodipodi.sourceforge.net/DTD/sodipodi-0.dtd"
   xmlns:inkscape="http://www.inkscape.org/namespaces/inkscape"
   width="48"
   height="48"
   id="svg2"
   version="1.1"
   inkscape:version="0.49 r12742"
   sodipodi:docname="dragonplayer.svg">
  <defs
     id="defs4" />
  <sodipodi:namedview
     id="base"
     pagecolor="#ffffff"
     bordercolor="#666666"
     borderopacity="1.0"
     inkscape:pageopacity="0.0"
     inkscape:pageshadow="2"
     inkscape:zoom="8"
     inkscape:cx="15.680648"
     inkscape:cy="24.003066"
     inkscape:document-units="px"
     inkscape:current-layer="layer1"
     showgrid="false"
     inkscape:window-width="1366"
     inkscape:window-height="718"
     inkscape:window-x="-2"
     inkscape:window-y="23"
     inkscape:window-maximized="1"
     inkscape:showpageshadow="false"
     borderlayer="true">
    <sodipodi:guide
       position="0,48.000017"
       orientation="48,0"
       id="guide4063" />
    <sodipodi:guide
       position="0,1.7382813e-05"
       orientation="0,48"
       id="guide4065" />
    <sodipodi:guide
       position="48,1.7382813e-05"
       orientation="-48,0"
       id="guide4067" />
    <sodipodi:guide
       position="48,48.000017"
       orientation="0,-48"
       id="guide4069" />
    <sodipodi:guide
       position="4,44.000017"
       orientation="40,0"
       id="guide4071" />
    <sodipodi:guide
       position="4,4.0000174"
       orientation="0,40"
       id="guide4073" />
    <sodipodi:guide
       position="44,4.0000174"
       orientation="-40,0"
       id="guide4075" />
    <sodipodi:guide
       position="44,44.000017"
       orientation="0,-40"
       id="guide4077" />
  </sodipodi:namedview>
  <metadata
     id="metadata7">
    <rdf:RDF>
      <cc:Work
         rdf:about="">
        <dc:format>image/svg+xml</dc:format>
        <dc:type
           rdf:resource="http://purl.org/dc/dcmitype/StillImage" />
        <dc:title></dc:title>
      </cc:Work>
    </rdf:RDF>
  </metadata>
  <g
     inkscape:label="Capa 1"
     inkscape:groupmode="layer"
     id="layer1"
     transform="translate(0,-1004.3622)">
    <path
       inkscape:connector-curvature="0"
       style="fill:#2c3e50;fill-opacity:1;stroke:none"
       d="m 4,1008.3622 0,40 40,0 0,-40 -40,0 z m 1,5 5,0 0,5 -5,0 0,-5 z m 33,0 5,0 0,5 -5,0 0,-5 z m -33,8.5 5,0 0,5 -5,0 0,-5 z m 33,0 5,0 0,5 -5,0 0,-5 z m -33,8 5,0 0,5 -5,0 0,-5 z m 33,0 5,0 0,5 -5,0 0,-5 z m -33,8.5 5,0 0,5 -5,0 0,-5 z m 33,0 5,0 0,5 -5,0 0,-5 z"
       id="rect4068" />
    <rect
       style="fill:#2ecc71;fill-opacity:1;stroke:none"
       id="rect4160"
       width="26"
       height="15.499999"
       x="11"
       y="1011.3622" />
    <rect
       style="fill:#2ecc71;fill-opacity:1;stroke:none"
       id="rect4160-2"
       width="26"
       height="15.499999"
       x="11"
       y="1029.8622" />
  </g>
</svg>
