<?xml version="1.0" encoding="UTF-8" standalone="no"?>
<!-- Created with Inkscape (http://www.inkscape.org/) -->

<svg
   xmlns:dc="http://purl.org/dc/elements/1.1/"
   xmlns:cc="http://creativecommons.org/ns#"
   xmlns:rdf="http://www.w3.org/1999/02/22-rdf-syntax-ns#"
   xmlns:svg="http://www.w3.org/2000/svg"
   xmlns="http://www.w3.org/2000/svg"
   xmlns:sodipodi="http://sodipodi.sourceforge.net/DTD/sodipodi-0.dtd"
   xmlns:inkscape="http://www.inkscape.org/namespaces/inkscape"
   width="48"
   height="48"
   id="svg2"
   version="1.1"
   inkscape:version="0.49 r12742"
   sodipodi:docname="eclipse.svg">
  <defs
     id="defs4" />
  <sodipodi:namedview
     id="base"
     pagecolor="#ffffff"
     bordercolor="#666666"
     borderopacity="1.0"
     inkscape:pageopacity="0.0"
     inkscape:pageshadow="2"
     inkscape:zoom="8.3691828"
     inkscape:cx="17.335172"
     inkscape:cy="25.645112"
     inkscape:document-units="px"
     inkscape:current-layer="layer1"
     showgrid="false"
     fit-margin-top="0"
     fit-margin-left="0"
     fit-margin-right="0"
     fit-margin-bottom="0"
     inkscape:window-width="1366"
     inkscape:window-height="718"
     inkscape:window-x="-2"
     inkscape:window-y="23"
     inkscape:window-maximized="1">
    <sodipodi:guide
       position="8.9999928,39"
       orientation="30,0"
       id="guide3312" />
    <sodipodi:guide
       position="8.9999928,9"
       orientation="0,30"
       id="guide3314" />
    <sodipodi:guide
       position="38.999993,9"
       orientation="-30,0"
       id="guide3316" />
    <sodipodi:guide
       position="38.999993,39"
       orientation="0,-30"
       id="guide3318" />
    <sodipodi:guide
       position="5.9999821,5.9999991"
       orientation="-36.000002,0"
       id="guide3341" />
    <sodipodi:guide
       position="5.9999821,42.000001"
       orientation="0,36.000001"
       id="guide3343" />
    <sodipodi:guide
       position="41.999983,42.000001"
       orientation="36.000002,0"
       id="guide3345" />
    <sodipodi:guide
       position="41.999983,5.9999991"
       orientation="0,-36.000001"
       id="guide3347" />
    <sodipodi:guide
       position="3.9999956,3.9999996"
       orientation="-40.000001,0"
       id="guide3351" />
    <sodipodi:guide
       position="3.9999956,44"
       orientation="0,39.999999"
       id="guide3353" />
    <sodipodi:guide
       position="43.999995,44"
       orientation="40.000001,0"
       id="guide3355" />
    <sodipodi:guide
       position="43.999995,3.9999996"
       orientation="0,-39.999999"
       id="guide3357" />
  </sodipodi:namedview>
  <metadata
     id="metadata7">
    <rdf:RDF>
      <cc:Work
         rdf:about="">
        <dc:format>image/svg+xml</dc:format>
        <dc:type
           rdf:resource="http://purl.org/dc/dcmitype/StillImage" />
        <dc:title />
      </cc:Work>
    </rdf:RDF>
  </metadata>
  <g
     inkscape:label="Capa 1"
     inkscape:groupmode="layer"
     id="layer1"
     transform="translate(-180.23661,-689.8125)">
    <g
       id="g4080">
      <ellipse
         d="m 224.2366,713.8125 a 20.013857,20.000616 0 0 1 -20.01385,20.00062 20.013857,20.000616 0 0 1 -20.01386,-20.00062 20.013857,20.000616 0 0 1 20.01386,-20.00062 20.013857,20.000616 0 0 1 20.01385,20.00062 z"
         style="fill:#d580ff;fill-opacity:1;fill-rule:evenodd;stroke:none"
         id="ellipse3331"
         cx="204.22275"
         cy="713.8125"
         rx="20.013857"
         ry="20.000616" />
      <ellipse
         d="m 222.23659,713.8125 a 18.012472,18.000555 0 0 1 -18.01247,18.00056 18.012472,18.000555 0 0 1 -18.01247,-18.00056 18.012472,18.000555 0 0 1 18.01247,-18.00056 18.012472,18.000555 0 0 1 18.01247,18.00056 z"
         ry="18.000555"
         rx="18.012472"
         cy="713.8125"
         cx="204.22412"
         id="ellipse3337"
         style="fill:#0e0b0f;fill-opacity:1;fill-rule:evenodd;stroke:none" />
      <path
         id="ellipse3359"
         transform="translate(180.23661,689.8125)"
         d="M 23.994141 9 C 20.066877 9.0002328 16.165567 10.617701 13.390625 13.394531 C 10.615683 16.171361 9 20.073326 9 24 C 9 27.926674 10.615683 31.828639 13.390625 34.605469 C 13.727695 34.942768 14.080882 35.262201 14.449219 35.564453 C 12.254541 32.89608 11 29.458456 11 26 C 11 22.073326 12.615683 18.171361 15.390625 15.394531 C 18.165567 12.617701 22.066877 11.000233 25.994141 11 C 29.448951 10.999795 32.884184 12.25198 35.552734 14.443359 C 35.252871 14.078626 34.93777 13.726635 34.603516 13.392578 C 31.825032 10.615734 27.921404 8.9997672 23.994141 9 z "
         style="fill:#ae95ff;fill-opacity:1;fill-rule:evenodd;stroke:none" />
    </g>
  </g>
</svg>
