<?xml version="1.0" encoding="UTF-8" standalone="no"?>
<!-- Created with Inkscape (http://www.inkscape.org/) -->

<svg
   xmlns:dc="http://purl.org/dc/elements/1.1/"
   xmlns:cc="http://creativecommons.org/ns#"
   xmlns:rdf="http://www.w3.org/1999/02/22-rdf-syntax-ns#"
   xmlns:svg="http://www.w3.org/2000/svg"
   xmlns="http://www.w3.org/2000/svg"
   xmlns:sodipodi="http://sodipodi.sourceforge.net/DTD/sodipodi-0.dtd"
   xmlns:inkscape="http://www.inkscape.org/namespaces/inkscape"
   width="48"
   height="48"
   id="svg2"
   version="1.1"
   inkscape:version="0.49 r12742"
   viewBox="0 0 13.546666 13.546667"
   sodipodi:docname="eStudio.svg">
  <defs
     id="defs4" />
  <sodipodi:namedview
     id="base"
     pagecolor="#ffffff"
     bordercolor="#666666"
     borderopacity="1.0"
     inkscape:pageopacity="0.0"
     inkscape:pageshadow="2"
     inkscape:zoom="8.1002711"
     inkscape:cx="25.913853"
     inkscape:cy="22.995042"
     inkscape:document-units="px"
     inkscape:current-layer="layer1"
     showgrid="false"
     units="px"
     inkscape:showpageshadow="false"
     borderlayer="true"
     inkscape:window-width="1366"
     inkscape:window-height="718"
     inkscape:window-x="-2"
     inkscape:window-y="23"
     inkscape:window-maximized="1">
    <sodipodi:guide
       position="8.9999997,38.999975"
       orientation="30.000028,0"
       id="guide3274" />
    <sodipodi:guide
       position="8.9999997,8.9999467"
       orientation="0,29.999999"
       id="guide3276" />
    <sodipodi:guide
       position="38.999999,8.9999467"
       orientation="-30.000028,0"
       id="guide3278" />
    <sodipodi:guide
       position="38.999999,38.999975"
       orientation="0,-29.999999"
       id="guide3280" />
    <sodipodi:guide
       position="3.999999,44.000052"
       orientation="39.999965,0"
       id="guide3370" />
    <sodipodi:guide
       position="3.999999,4.0000862"
       orientation="0,40.000003"
       id="guide3372" />
    <sodipodi:guide
       position="44.000002,4.0000862"
       orientation="-39.999965,0"
       id="guide3374" />
    <sodipodi:guide
       position="44.000002,44.000052"
       orientation="0,-40.000003"
       id="guide3376" />
  </sodipodi:namedview>
  <metadata
     id="metadata7">
    <rdf:RDF>
      <cc:Work
         rdf:about="">
        <dc:format>image/svg+xml</dc:format>
        <dc:type
           rdf:resource="http://purl.org/dc/dcmitype/StillImage" />
        <dc:title />
      </cc:Work>
    </rdf:RDF>
  </metadata>
  <g
     inkscape:label="Capa 1"
     inkscape:groupmode="layer"
     id="layer1"
     transform="translate(0,-283.45334)">
    <rect
       ry="0"
       y="284.58221"
       x="1.1288881"
       height="11.28889"
       width="11.28889"
       id="rect3282"
       style="fill:#3498db;fill-opacity:1;fill-rule:evenodd;stroke:none" />
    <path
       inkscape:connector-curvature="0"
       style="fill:#ecf0f1;fill-opacity:1;fill-rule:evenodd;stroke:none"
       d="m 1.6652209,284.58223 0,0.53633 -0.5363325,0 0,0.0562 0.5363325,0 0,1.6371 -0.5363325,0 0,0.0562 0.5363325,0 0,1.63711 -0.5363325,0 0,0.0562 0.5363325,0 0,1.63711 -0.5363325,0 0,0.0562 0.5363325,0 0,1.63711 -0.5363325,0 0,0.0562 0.5363325,0 0,1.63711 -0.5363325,0 0,0.0562 0.5363325,0 0,1.63711 -0.5363325,0 0,0.0562 0.5363325,0 0,0.53633 0.056224,0 0,-0.53633 1.6371095,0 0,0.53633 0.056224,0 0,-0.53633 1.6371097,0 0,0.53633 0.056224,0 0,-0.53633 1.6371096,0 0,0.53633 0.056224,0 0,-0.53633 1.6371096,0 0,0.53633 0.056224,0 0,-0.53633 1.6371097,0 0,0.53633 0.05622,0 0,-0.53633 1.637109,0 0,0.53633 0.05622,0 0,-0.53633 0.536333,0 0,-0.0562 -0.536333,0 0,-1.63711 0.536333,0 0,-0.0562 -0.536333,0 0,-1.63711 0.536333,0 0,-0.0562 -0.536333,0 0,-1.63711 0.536333,0 0,-0.0562 -0.536333,0 0,-1.63711 0.536333,0 0,-0.0562 -0.536333,0 0,-1.63711 0.536333,0 0,-0.0562 -0.536333,0 0,-1.6371 0.536333,0 0,-0.0562 -0.536333,0 0,-0.53633 -0.05622,0 0,0.53633 -1.637109,0 0,-0.53633 -0.05622,0 0,0.53633 -1.6371097,0 0,-0.53633 -0.056224,0 0,0.53633 -1.6371096,0 0,-0.53633 -0.056224,0 0,0.53633 -1.6371096,0 0,-0.53633 -0.056224,0 0,0.53633 -1.6371097,0 0,-0.53633 -0.056224,0 0,0.53633 -1.6371095,0 0,-0.53633 -0.056224,0 z m 0.056224,0.59256 1.6371095,0 0,1.6371 -1.6371095,0 0,-1.6371 z m 1.6933332,0 1.6371097,0 0,1.6371 -1.6371097,0 0,-1.6371 z m 1.6933334,0 1.6371096,0 0,1.6371 -1.6371096,0 0,-1.6371 z m 1.6933334,0 1.6371096,0 0,1.6371 -1.6371096,0 0,-1.6371 z m 1.6933334,0 1.6371097,0 0,1.6371 -1.6371097,0 0,-1.6371 z m 1.6933337,0 1.637109,0 0,1.6371 -1.637109,0 0,-1.6371 z m -8.4666671,1.69333 1.6371095,0 0,1.63711 -1.6371095,0 0,-1.63711 z m 1.6933332,0 1.6371097,0 0,1.63711 -1.6371097,0 0,-1.63711 z m 1.6933334,0 1.6371096,0 0,1.63711 -1.6371096,0 0,-1.63711 z m 1.6933334,0 1.6371096,0 0,1.63711 -1.6371096,0 0,-1.63711 z m 1.6933334,0 1.6371097,0 0,1.63711 -1.6371097,0 0,-1.63711 z m 1.6933337,0 1.637109,0 0,1.63711 -1.637109,0 0,-1.63711 z m -8.4666671,1.69333 1.6371095,0 0,1.63711 -1.6371095,0 0,-1.63711 z m 1.6933332,0 1.6371097,0 0,1.63711 -1.6371097,0 0,-1.63711 z m 1.6933334,0 1.6371096,0 0,1.63711 -1.6371096,0 0,-1.63711 z m 1.6933334,0 1.6371096,0 0,1.63711 -1.6371096,0 0,-1.63711 z m 1.6933334,0 1.6371097,0 0,1.63711 -1.6371097,0 0,-1.63711 z m 1.6933337,0 1.637109,0 0,1.63711 -1.637109,0 0,-1.63711 z m -8.4666671,1.69334 1.6371095,0 0,1.63711 -1.6371095,0 0,-1.63711 z m 1.6933332,0 1.6371097,0 0,1.63711 -1.6371097,0 0,-1.63711 z m 1.6933334,0 1.6371096,0 0,1.63711 -1.6371096,0 0,-1.63711 z m 1.6933334,0 1.6371096,0 0,1.63711 -1.6371096,0 0,-1.63711 z m 1.6933334,0 1.6371097,0 0,1.63711 -1.6371097,0 0,-1.63711 z m 1.6933337,0 1.637109,0 0,1.63711 -1.637109,0 0,-1.63711 z m -8.4666671,1.69333 1.6371095,0 0,1.63711 -1.6371095,0 0,-1.63711 z m 1.6933332,0 1.6371097,0 0,1.63711 -1.6371097,0 0,-1.63711 z m 1.6933334,0 1.6371096,0 0,1.63711 -1.6371096,0 0,-1.63711 z m 1.6933334,0 1.6371096,0 0,1.63711 -1.6371096,0 0,-1.63711 z m 1.6933334,0 1.6371097,0 0,1.63711 -1.6371097,0 0,-1.63711 z m 1.6933337,0 1.637109,0 0,1.63711 -1.637109,0 0,-1.63711 z m -8.4666671,1.69333 1.6371095,0 0,1.63711 -1.6371095,0 0,-1.63711 z m 1.6933332,0 1.6371097,0 0,1.63711 -1.6371097,0 0,-1.63711 z m 1.6933334,0 1.6371096,0 0,1.63711 -1.6371096,0 0,-1.63711 z m 1.6933334,0 1.6371096,0 0,1.63711 -1.6371096,0 0,-1.63711 z m 1.6933334,0 1.6371097,0 0,1.63711 -1.6371097,0 0,-1.63711 z m 1.6933337,0 1.637109,0 0,1.63711 -1.637109,0 0,-1.63711 z"
       id="rect3299" />
    <path
       inkscape:connector-curvature="0"
       id="path4151"
       d="m 4.0073681,291.35569 c -0.098572,0 -0.1972007,0.0102 -0.2941831,0.0287 l -0.1554804,0.37743 0,0.006 c -0.056392,0.0223 -0.1116564,0.0468 -0.1641098,0.077 -0.052149,0.0301 -0.1009861,0.0654 -0.1479703,0.10293 l -0.00495,-0.003 -0.4050808,-0.054 c -0.1290801,0.14927 -0.2304287,0.32198 -0.2954612,0.50819 l 0.2505588,0.32537 0.00415,0.003 c -0.017343,0.11949 -0.016782,0.24135 9.876e-4,0.36088 l -0.00511,0.003 -0.2507194,0.32579 c 0.03189,0.0931 0.072195,0.18329 0.1214443,0.26866 0.049248,0.0853 0.1072444,0.16536 0.1719397,0.23954 l 0.4073178,-0.0544 0.00511,-0.003 c 0.094624,0.0751 0.1997805,0.13634 0.31192,0.18107 l 0,0.005 0.1564398,0.37955 c 0.1937376,0.0367 0.3939519,0.0352 0.5877263,-0.003 l 0.1558001,-0.37777 0,-0.005 c 0.056034,-0.0217 0.1109981,-0.0466 0.163151,-0.0767 0.052454,-0.0303 0.1016877,-0.0657 0.148929,-0.10357 l 0.00496,0.003 0.4046016,0.054 c 0.1291593,-0.14941 0.2303798,-0.32229 0.2954612,-0.50866 l -0.2502394,-0.32474 -0.00415,-0.003 c 0.017372,-0.11938 0.016864,-0.24124 -8.184e-4,-0.36068 l 0.00512,-0.003 0.2503992,-0.3255 c -0.031866,-0.0931 -0.07187,-0.18348 -0.121125,-0.26878 -0.049254,-0.0854 -0.1075296,-0.16524 -0.172259,-0.23941 l -0.4069983,0.0542 -0.00512,0.003 c -0.094585,-0.075 -0.1998293,-0.13643 -0.3119204,-0.18106 l -1.638e-4,-0.005 -0.1561201,-0.37906 c -0.096971,-0.0183 -0.1954511,-0.0274 -0.2940229,-0.0271 z m -1.64e-4,0.65152 c 0.2356268,0 0.469921,0.0971 0.6366239,0.26367 0.1667027,0.16662 0.2638218,0.40073 0.2638218,0.63635 0,0.23567 -0.097119,0.46991 -0.2638218,0.63654 -0.1667029,0.16661 -0.4009971,0.26349 -0.6366239,0.26349 -0.2356269,0 -0.4696542,-0.0971 -0.6361446,-0.26363 -0.1664902,-0.16663 -0.2633427,-0.40079 -0.2633427,-0.6364 0,-0.23559 0.096852,-0.46973 0.2633427,-0.63635 0.1664904,-0.16658 0.4005177,-0.26364 0.6361446,-0.26367 z"
       style="fill:#ecf0f1;fill-opacity:1;fill-rule:evenodd;stroke:none" />
    <path
       style="fill:#ecf0f1;fill-opacity:1;fill-rule:evenodd;stroke:none"
       d="m 8.6041378,285.99335 c -0.1613504,0 -0.3227942,0.0164 -0.4815424,0.0468 l -0.2545034,0.6178 0,0.01 c -0.092305,0.036 -0.1827678,0.0765 -0.2686279,0.12609 -0.085363,0.0493 -0.1653021,0.10693 -0.2422097,0.16842 l -0.00811,-0.005 -0.6630687,-0.0884 c -0.2112889,0.24427 -0.3771844,0.52701 -0.483635,0.83177 l 0.410135,0.53254 0.0068,0.004 c -0.028391,0.19557 -0.027469,0.39504 0.00158,0.59066 l -0.00837,0.005 -0.4103966,0.53305 c 0.0522,0.15243 0.1181762,0.30005 0.1987899,0.43971 0.080614,0.13961 0.1755459,0.27069 0.2814447,0.39209 l 0.6667307,-0.089 0.00837,-0.005 c 0.1548882,0.12295 0.3270166,0.22314 0.510576,0.29634 l 0,0.008 0.2560728,0.62125 c 0.3171255,0.0602 0.6448521,0.0577 0.9620383,-0.003 l 0.2550261,-0.61833 0,-0.009 c 0.09172,-0.0358 0.1816901,-0.0763 0.2670585,-0.12553 0.085861,-0.0496 0.166451,-0.10757 0.2437791,-0.16952 l 0.00811,0.005 0.6622838,0.0884 c 0.211419,-0.24455 0.377105,-0.52749 0.483635,-0.83256 l -0.409612,-0.5315 -0.0068,-0.004 c 0.02844,-0.19543 0.0276,-0.3949 -0.0013,-0.59035 l 0.0084,-0.005 0.409874,-0.5328 c -0.05216,-0.15244 -0.117643,-0.3003 -0.198267,-0.43993 -0.08062,-0.13969 -0.176013,-0.27044 -0.281968,-0.39184 l -0.6662067,0.0887 -0.00837,0.005 c -0.154825,-0.12279 -0.3270965,-0.22328 -0.5105763,-0.29635 l -2.684e-4,-0.008 -0.2555495,-0.62043 c -0.1587307,-0.0301 -0.3199304,-0.0448 -0.4812806,-0.0442 z m -2.686e-4,1.06638 c 0.3856932,0 0.7692046,0.15891 1.0420771,0.43163 0.2728727,0.27266 0.4318447,0.65584 0.4318447,1.04151 0,0.38571 -0.158972,0.76914 -0.4318447,1.04183 -0.2728725,0.27271 -0.6563839,0.43133 -1.0420771,0.4313 -0.3856933,0 -0.7687679,-0.15885 -1.0412926,-0.43155 -0.2725248,-0.27269 -0.4310602,-0.65593 -0.4310602,-1.04158 0,-0.38561 0.1585354,-0.76885 0.4310602,-1.04151 0.2725247,-0.27272 0.6555993,-0.4316 1.0412926,-0.43163 z"
       id="path4112"
       inkscape:connector-curvature="0" />
    <path
       d="m 9.4544444,291.35557 c -0.8572683,0 -1.5522216,0.69495 -1.5522216,1.55222 0,0.85727 0.6949533,1.55222 1.5522216,1.55222 0.8572686,0 1.5522216,-0.69495 1.5522216,-1.55222 0,-0.85727 -0.694953,-1.55222 -1.5522216,-1.55222 z m 0,0.12935 c 0.6517646,0 1.2011806,0.43823 1.3696736,1.0361 -0.145123,0.29934 -0.351623,0.56884 -0.603103,0.78663 -0.120808,0.10462 -0.2527056,0.19788 -0.3984031,0.26355 -0.1456975,0.0657 -0.305954,0.10293 -0.4655047,0.0938 -0.1198736,-0.007 -0.2382895,-0.0403 -0.3432674,-0.0985 0.2782105,-0.15075 0.5292346,-0.35175 0.7347183,-0.59243 0.1348752,-0.15798 0.2528809,-0.33751 0.2983179,-0.54021 0.02272,-0.10134 0.02657,-0.20748 0.0053,-0.30915 -0.02123,-0.10166 -0.068239,-0.19855 -0.1393761,-0.27422 -0.069497,-0.0739 -0.1607303,-0.1263 -0.258542,-0.15328 -0.097812,-0.027 -0.2019003,-0.0291 -0.301713,-0.0108 -0.1996255,0.0365 -0.3778546,0.1525 -0.5208027,0.29654 -0.251967,0.25389 -0.4077357,0.61213 -0.3791625,0.96868 0.014287,0.17828 0.07403,0.35346 0.1764035,0.50011 0.022851,0.0327 0.047973,0.0639 0.074862,0.0935 -0.1491371,0.0522 -0.3035562,0.0893 -0.460169,0.11027 -0.1344629,-0.21727 -0.212137,-0.47336 -0.212137,-0.74765 0,-0.78583 0.6370405,-1.42287 1.4228698,-1.42287 z m 0.00905,0.28748 c 0.1000221,1.3e-4 0.2007238,0.0304 0.2805318,0.0907 0.071903,0.0543 0.1251811,0.1316 0.1553838,0.2165 0.030203,0.0849 0.037954,0.1771 0.027649,0.26663 -0.02061,0.17905 -0.110934,0.34325 -0.2200597,0.48668 -0.193221,0.25398 -0.4500503,0.45725 -0.7356885,0.59955 -0.029237,0.0146 -0.058938,0.0284 -0.088768,0.0417 -0.062153,-0.0544 -0.1154243,-0.1189 -0.1560307,-0.1908 -0.084848,-0.15023 -0.1128289,-0.32868 -0.096367,-0.50043 0.016462,-0.17174 0.075401,-0.33727 0.1545754,-0.49056 0.0918,-0.17774 0.21693,-0.3461 0.3920976,-0.44271 0.087584,-0.0483 0.1866538,-0.0774 0.2866759,-0.0773 z m 1.401042,0.94492 c 0.0083,0.0623 0.01277,0.12588 0.01277,0.19047 0,0.78583 -0.63704,1.42287 -1.4228696,1.42287 -0.4413297,0 -0.8357561,-0.20091 -1.0967416,-0.51628 0.1610876,-0.0366 0.3185312,-0.0891 0.4695471,-0.15603 0.06604,0.0503 0.1389742,0.0916 0.2165025,0.12127 0.2232665,0.0856 0.4767485,0.0732 0.7027038,-0.005 0.225955,-0.0782 0.4263268,-0.21863 0.6010008,-0.38192 0.208082,-0.19451 0.383523,-0.42379 0.517084,-0.67537 z"
       inkscape:connector-curvature="0"
       id="path2993"
       style="fill:#ecf0f1;fill-opacity:1;stroke:none" />
  </g>
</svg>
