<?xml version="1.0" encoding="UTF-8" standalone="no"?>
<!-- Created using Karbon, part of Calligra: http://www.calligra.org/karbon -->

<svg
   xmlns:dc="http://purl.org/dc/elements/1.1/"
   xmlns:cc="http://creativecommons.org/ns#"
   xmlns:rdf="http://www.w3.org/1999/02/22-rdf-syntax-ns#"
   xmlns:svg="http://www.w3.org/2000/svg"
   xmlns="http://www.w3.org/2000/svg"
   xmlns:xlink="http://www.w3.org/1999/xlink"
   xmlns:sodipodi="http://sodipodi.sourceforge.net/DTD/sodipodi-0.dtd"
   xmlns:inkscape="http://www.inkscape.org/namespaces/inkscape"
   width="48.000004"
   height="48.000004"
   id="svg2"
   version="1.1"
   inkscape:version="0.48.4 r9939"
   sodipodi:docname="evince.svg">
  <metadata
     id="metadata13">
    <rdf:RDF>
      <cc:Work
         rdf:about="">
        <dc:format>image/svg+xml</dc:format>
        <dc:type
           rdf:resource="http://purl.org/dc/dcmitype/StillImage" />
        <dc:title />
      </cc:Work>
    </rdf:RDF>
  </metadata>
  <sodipodi:namedview
     pagecolor="#ffffff"
     bordercolor="#666666"
     borderopacity="1"
     objecttolerance="10"
     gridtolerance="10"
     guidetolerance="10"
     inkscape:pageopacity="0"
     inkscape:pageshadow="2"
     inkscape:window-width="1440"
     inkscape:window-height="836"
     id="namedview11"
     showgrid="false"
     inkscape:zoom="9.8333325"
     inkscape:cx="21.366613"
     inkscape:cy="24.881163"
     inkscape:window-x="0"
     inkscape:window-y="26"
     inkscape:window-maximized="1"
     inkscape:current-layer="svg2"
     inkscape:showpageshadow="false"
     borderlayer="true"
     units="px">
    <sodipodi:guide
       position="1.9073486e-06,48.000002"
       orientation="47.999998,0"
       id="guide4064" />
    <sodipodi:guide
       position="1.9073486e-06,3.8146973e-06"
       orientation="0,47.999998"
       id="guide4066" />
    <sodipodi:guide
       position="48,3.8146973e-06"
       orientation="-47.999998,0"
       id="guide4068" />
    <sodipodi:guide
       position="48,48.000002"
       orientation="0,-47.999998"
       id="guide4070" />
    <sodipodi:guide
       position="7.0000019,44.000002"
       orientation="39.999998,0"
       id="guide4072" />
    <sodipodi:guide
       position="7.0000019,4.0000038"
       orientation="0,33.999998"
       id="guide4074" />
    <sodipodi:guide
       position="41,4.0000038"
       orientation="-39.999998,0"
       id="guide4076" />
    <sodipodi:guide
       position="41,44.000002"
       orientation="0,-33.999998"
       id="guide4078" />
    <sodipodi:guide
       position="7.0000019,33.000002"
       orientation="17.999998,0"
       id="guide4080" />
    <sodipodi:guide
       position="15.000002,33.000002"
       orientation="17.999998,0"
       id="guide4073" />
    <sodipodi:guide
       position="15.000002,15.000004"
       orientation="0,17.999998"
       id="guide4075" />
    <sodipodi:guide
       position="33,15.000004"
       orientation="-17.999998,0"
       id="guide4077" />
    <sodipodi:guide
       position="33,33.000002"
       orientation="0,-17.999998"
       id="guide4079" />
    <sodipodi:guide
       position="19,33.000002"
       orientation="17.999998,0"
       id="guide4234" />
    <sodipodi:guide
       position="19,15.000004"
       orientation="0,18"
       id="guide4236" />
    <sodipodi:guide
       position="37,15.000004"
       orientation="-17.999998,0"
       id="guide4238" />
    <sodipodi:guide
       position="37,33.000002"
       orientation="0,-18"
       id="guide4240" />
  </sodipodi:namedview>
  <defs
     id="defs4">
    <linearGradient
       gradientTransform="translate(0,0.140625)"
       gradientUnits="userSpaceOnUse"
       y2="1042.9716"
       x2="13.765625"
       y1="1051.1434"
       x1="13.765625"
       id="linearGradient1577"
       xlink:href="#linearGradient1440"
       inkscape:collect="always" />
    <linearGradient
       gradientUnits="userSpaceOnUse"
       y2="38.875"
       x2="24.3125"
       y1="48.0625"
       x1="24.3125"
       id="linearGradient1520"
       xlink:href="#linearGradient1514"
       inkscape:collect="always" />
    <linearGradient
       gradientTransform="matrix(1,0,0,-1,0,-1004.3622)"
       y2="-1004.6122"
       x2="24.124998"
       y1="-1052.8622"
       x1="24.124998"
       gradientUnits="userSpaceOnUse"
       id="linearGradient1437"
       xlink:href="#linearGradient1440"
       inkscape:collect="always" />
    <linearGradient
       gradientTransform="matrix(1,0,0,-1,0,-1004.3622)"
       gradientUnits="userSpaceOnUse"
       y2="-1004.6122"
       x2="24.124998"
       y1="-1052.8622"
       x1="24.124998"
       id="linearGradient1431"
       xlink:href="#linearGradient1425"
       inkscape:collect="always" />
    <linearGradient
       id="linearGradient1425"
       inkscape:collect="always">
      <stop
         id="stop1427"
         offset="0"
         style="stop-color:#a40606;stop-opacity:1" />
      <stop
         id="stop1429"
         offset="1"
         style="stop-color:#ed2f2f;stop-opacity:1" />
    </linearGradient>
    <linearGradient
       inkscape:collect="always"
       id="linearGradient1440">
      <stop
         style="stop-color:#600303;stop-opacity:1"
         offset="0"
         id="stop1442" />
      <stop
         style="stop-color:#d71a1a;stop-opacity:1"
         offset="1"
         id="stop1444" />
    </linearGradient>
    <linearGradient
       id="linearGradient1514"
       inkscape:collect="always">
      <stop
         id="stop1516"
         offset="0"
         style="stop-color:#e6e6e6;stop-opacity:1" />
      <stop
         id="stop1518"
         offset="1"
         style="stop-color:#ffffff;stop-opacity:1" />
    </linearGradient>
    <linearGradient
       inkscape:collect="always"
       xlink:href="#linearGradient1440"
       id="linearGradient3858"
       gradientUnits="userSpaceOnUse"
       gradientTransform="matrix(1,0,0,-1,124.06781,-1061.7181)"
       x1="24.124998"
       y1="-1052.8622"
       x2="24.124998"
       y2="-1004.6122" />
    <linearGradient
       inkscape:collect="always"
       xlink:href="#linearGradient1425"
       id="linearGradient3864"
       gradientUnits="userSpaceOnUse"
       gradientTransform="matrix(1,0,0,-1,124.06781,-1061.7181)"
       x1="24.124998"
       y1="-1052.8622"
       x2="24.124998"
       y2="-1004.6122" />
    <linearGradient
       inkscape:collect="always"
       xlink:href="#linearGradient1440"
       id="linearGradient3867"
       gradientUnits="userSpaceOnUse"
       gradientTransform="translate(124.06781,-1061.5775)"
       x1="13.765625"
       y1="1051.1434"
       x2="13.765625"
       y2="1042.9716" />
    <linearGradient
       inkscape:collect="always"
       xlink:href="#linearGradient1514"
       id="linearGradient3871"
       gradientUnits="userSpaceOnUse"
       x1="24.3125"
       y1="48.0625"
       x2="24.3125"
       y2="38.875"
       gradientTransform="translate(124.06781,-57.3559)" />
  </defs>
  <rect
     ry="0"
     y="4.000001"
     x="7.0000029"
     height="40"
     width="34"
     id="rect4119"
     style="fill:#ecf0f1;fill-opacity:1;stroke:none" />
  <rect
     style="fill:#34495e;fill-opacity:1;stroke:none"
     id="rect4141"
     width="7.9999967"
     height="40"
     x="7.0000029"
     y="4.000001"
     ry="0" />
  <path
     style="fill:#c0392b;fill-opacity:1;stroke:none"
     d="M 33,4 41,4 41,15 37,12.00002 33,15 Z"
     id="rect4153"
     inkscape:connector-curvature="0"
     sodipodi:nodetypes="cccccc" />
  <g
     id="g4061"
     style="font-size:40px;font-style:normal;font-variant:normal;font-weight:normal;font-stretch:normal;line-height:125%;letter-spacing:0px;word-spacing:0px;fill:#c0392b;fill-opacity:1;stroke:none;font-family:Segoe Script;-inkscape-font-specification:Segoe Script"
     transform="matrix(0.94114043,0,0,0.84702639,7.4293084,4.2613794)">
    <path
       style="fill:#c0392b;fill-opacity:1"
       inkscape:connector-curvature="0"
       id="path4063"
       d="m 33.227802,21.037403 q 0,0.292969 -0.429687,1.035156 -1.015625,1.464844 -2.285156,2.929688 -1.25,1.464844 -2.675782,2.792969 -1.40625,1.308593 -2.949218,2.460937 -1.523438,1.132813 -3.085938,1.972656 -1.5625,0.820313 -3.125,1.269532 -1.542969,0.449218 -2.988281,0.429687 -3.125,0 -4.863281,-1.816406 -1.7187505,-1.816406 -1.7187505,-5.488281 0,-3.066407 0.9375005,-5.957032 0.957031,-2.890625 3.242187,-5.566406 0.429688,-0.46875 0.957031,-0.898437 0.546875,-0.429688 1.132813,-0.761719 0.605469,-0.332031 1.230469,-0.527344 0.644531,-0.195312 1.289062,-0.234375 0.15625,0 0.429688,0.03906 0.273437,0.03906 0.585937,0.136718 0.3125,0.09766 0.605469,0.253907 0.292969,0.136718 0.46875,0.351562 0.546875,0.625 0.859375,1.289063 0.332031,0.664062 0.371094,1.464843 0.03906,0.898438 -0.214844,1.777344 -0.234375,0.859375 -0.820313,1.777344 -0.566406,0.898437 -1.503906,1.875 -0.9375,0.957031 -2.265625,2.070312 -0.839844,0.703125 -1.875,1.5625 -1.015625,0.839844 -2.460937,1.777344 0,1.894531 1.132812,2.890625 1.152344,0.976563 3.144531,0.976563 1.113282,0 2.246094,-0.292969 1.132813,-0.292969 2.226563,-0.761719 1.09375,-0.488281 2.109375,-1.09375 1.035156,-0.625 1.933593,-1.269531 1.660157,-1.210938 3.007813,-2.402344 1.347656,-1.210937 2.675781,-2.539062 l 1.054688,-1.054688 q 0.957031,-0.839844 1.386718,-0.839844 0.234375,0 0.234375,0.371094 z M 18.305927,17.150684 q -0.01953,-0.292968 -0.09766,-0.566406 -0.05859,-0.292969 -0.195312,-0.507812 -0.136719,-0.214844 -0.3125,-0.332032 -0.175782,-0.136718 -0.410157,-0.136718 -1.035156,0.05859 -2.070312,1.269531 -1.035156,1.191406 -1.953125,3.164062 -0.214844,0.429688 -0.390625,0.976563 -0.15625,0.527344 -0.3125,1.09375 -0.136719,0.546875 -0.253906,1.09375 -0.09766,0.546875 -0.175782,0.976562 1.015625,-0.761718 1.875,-1.40625 0.859375,-0.644531 1.601563,-1.328125 0.46875,-0.429687 0.957031,-0.917968 0.488281,-0.507813 0.878906,-1.054688 0.410157,-0.546875 0.644532,-1.132812 0.234375,-0.585938 0.214843,-1.191407 z" />
  </g>
</svg>
