<?xml version="1.0" encoding="UTF-8" standalone="no"?>
<!-- Created with Inkscape (http://www.inkscape.org/) -->

<svg
   xmlns:dc="http://purl.org/dc/elements/1.1/"
   xmlns:cc="http://creativecommons.org/ns#"
   xmlns:rdf="http://www.w3.org/1999/02/22-rdf-syntax-ns#"
   xmlns:svg="http://www.w3.org/2000/svg"
   xmlns="http://www.w3.org/2000/svg"
   xmlns:sodipodi="http://sodipodi.sourceforge.net/DTD/sodipodi-0.dtd"
   xmlns:inkscape="http://www.inkscape.org/namespaces/inkscape"
   width="48"
   height="48"
   id="svg2"
   version="1.1"
   inkscape:version="0.49 r12742"
   sodipodi:docname="agenda.svg">
  <defs
     id="defs4" />
  <sodipodi:namedview
     id="base"
     pagecolor="#ffffff"
     bordercolor="#666666"
     borderopacity="1.0"
     inkscape:pageopacity="0.0"
     inkscape:pageshadow="2"
     inkscape:zoom="11.313708"
     inkscape:cx="12.323324"
     inkscape:cy="25.150099"
     inkscape:document-units="px"
     inkscape:current-layer="layer1"
     showgrid="false"
     fit-margin-top="0"
     fit-margin-left="0"
     fit-margin-right="0"
     fit-margin-bottom="0"
     inkscape:window-width="1366"
     inkscape:window-height="718"
     inkscape:window-x="-2"
     inkscape:window-y="23"
     inkscape:window-maximized="1"
     borderlayer="true"
     inkscape:showpageshadow="false">
    <sodipodi:guide
       position="8.9999928,39"
       orientation="30,0"
       id="guide3312" />
    <sodipodi:guide
       position="8.9999928,9"
       orientation="0,30"
       id="guide3314" />
    <sodipodi:guide
       position="38.999993,9"
       orientation="-30,0"
       id="guide3316" />
    <sodipodi:guide
       position="38.999993,39"
       orientation="0,-30"
       id="guide3318" />
    <sodipodi:guide
       position="3.9999928,44"
       orientation="40,0"
       id="guide4132" />
    <sodipodi:guide
       position="3.9999928,4"
       orientation="0,40"
       id="guide4134" />
    <sodipodi:guide
       position="43.999993,4"
       orientation="-40,0"
       id="guide4136" />
    <sodipodi:guide
       position="43.999993,44"
       orientation="0,-40"
       id="guide4138" />
  </sodipodi:namedview>
  <metadata
     id="metadata7">
    <rdf:RDF>
      <cc:Work
         rdf:about="">
        <dc:format>image/svg+xml</dc:format>
        <dc:type
           rdf:resource="http://purl.org/dc/dcmitype/StillImage" />
        <dc:title />
      </cc:Work>
    </rdf:RDF>
  </metadata>
  <g
     inkscape:label="Capa 1"
     inkscape:groupmode="layer"
     id="layer1"
     transform="translate(-180.23661,-689.8125)">
    <g
       id="g4106">
      <rect
         y="693.8125"
         x="184.2366"
         height="40"
         width="40"
         id="rect853"
         style="fill:#fcefcf;fill-opacity:1;stroke:none" />
      <circle
         d="m 187.7366,706.8125 a 1,1 0 0 1 -1,1 1,1 0 0 1 -1,-1 1,1 0 0 1 1,-1 1,1 0 0 1 1,1 z"
         r="1"
         cy="706.8125"
         cx="186.7366"
         id="path4088"
         style="fill:#b28138;fill-opacity:1;stroke:none" />
      <g
         transform="translate(3.1999928,0)"
         id="g4281">
        <rect
           style="fill:#b28138;fill-opacity:1;fill-rule:evenodd;stroke:none"
           id="rect3284"
           width="2.3999994"
           height="5.2367983"
           x="-362.37311"
           y="645.69183"
           transform="matrix(0.70710678,-0.70710678,0.70710678,0.70710678,0,0)" />
        <g
           id="g4277">
          <path
             id="path3304"
             d="m 203.03309,704.81251 c -2.35636,1.4e-4 -4.69714,0.97062 -6.36211,2.63672 -1.66496,1.66609 -2.63437,4.00727 -2.63437,6.36328 0,2.356 0.96941,4.69718 2.63437,6.36328 1.66497,1.66609 4.00575,2.63657 6.36211,2.63671 2.35636,1.4e-4 4.69853,-0.96944 6.36562,-2.63554 1.66709,-1.66611 2.63789,-4.00819 2.63789,-6.36445 l -2.4,0 c 0,1.72792 -0.71223,3.44576 -1.93476,4.66757 -1.22253,1.22181 -2.94075,1.93253 -4.66875,1.93242 -1.728,-10e-5 -3.44426,-0.71178 -4.66523,-1.93359 -1.22098,-1.2218 -1.93125,-2.93867 -1.93125,-4.6664 0,-1.72774 0.71027,-3.4446 1.93125,-4.66641 1.22097,-1.2218 2.93723,-1.93349 4.66523,-1.93359 0.001,0 0.002,0 0.004,0 l 0,-2.4 c -0.001,0 -0.002,0 -0.004,0 z"
             style="fill:#b28138;fill-opacity:1;fill-rule:evenodd;stroke:none"
             inkscape:connector-curvature="0" />
          <path
             id="path4149"
             d="m 212.73973,704.81251 -10.19999,10.2 1.69687,1.69687 10.19999,-10.2 -1.69687,-1.69687 z"
             style="fill:#b28138;fill-opacity:1;fill-rule:evenodd;stroke:none"
             inkscape:connector-curvature="0" />
        </g>
      </g>
      <circle
         d="m 187.7366,720.8125 a 1,1 0 0 1 -1,1 1,1 0 0 1 -1,-1 1,1 0 0 1 1,-1 1,1 0 0 1 1,1 z"
         style="fill:#b28138;fill-opacity:1;stroke:none"
         id="circle4150"
         cx="186.7366"
         cy="720.8125"
         r="1" />
      <rect
         y="190.9866"
         x="-697.8125"
         height="0.5"
         width="2"
         id="rect4098"
         style="fill:#b18060;fill-opacity:1;stroke:none"
         transform="matrix(0,-1,1,0,0,0)" />
      <rect
         transform="matrix(0,-1,1,0,0,0)"
         style="fill:#b18060;fill-opacity:1;stroke:none"
         id="rect4171"
         width="2"
         height="0.5"
         x="-701.8125"
         y="190.9866" />
      <rect
         transform="matrix(0,-1,1,0,0,0)"
         style="fill:#b18060;fill-opacity:1;stroke:none"
         id="rect4181"
         width="2"
         height="0.5"
         x="-705.8125"
         y="190.9866" />
      <rect
         y="190.9866"
         x="-709.8125"
         height="0.5"
         width="2"
         id="rect4187"
         style="fill:#b18060;fill-opacity:1;stroke:none"
         transform="matrix(0,-1,1,0,0,0)" />
      <rect
         transform="matrix(0,-1,1,0,0,0)"
         style="fill:#b18060;fill-opacity:1;stroke:none"
         id="rect4205"
         width="2"
         height="0.5"
         x="-713.8125"
         y="190.9866" />
      <rect
         y="190.9866"
         x="-717.8125"
         height="0.5"
         width="2"
         id="rect4211"
         style="fill:#b18060;fill-opacity:1;stroke:none"
         transform="matrix(0,-1,1,0,0,0)" />
      <rect
         y="190.9866"
         x="-721.8125"
         height="0.5"
         width="2"
         id="rect4215"
         style="fill:#b18060;fill-opacity:1;stroke:none"
         transform="matrix(0,-1,1,0,0,0)" />
      <rect
         transform="matrix(0,-1,1,0,0,0)"
         style="fill:#b18060;fill-opacity:1;stroke:none"
         id="rect4221"
         width="2"
         height="0.5"
         x="-725.8125"
         y="190.9866" />
      <rect
         y="190.9866"
         x="-729.8125"
         height="0.5"
         width="2"
         id="rect4261"
         style="fill:#b18060;fill-opacity:1;stroke:none"
         transform="matrix(0,-1,1,0,0,0)" />
      <rect
         transform="matrix(0,-1,1,0,0,0)"
         style="fill:#b18060;fill-opacity:1;stroke:none"
         id="rect4265"
         width="2"
         height="0.5"
         x="-733.8125"
         y="190.9866" />
    </g>
  </g>
</svg>
