<?xml version="1.0" encoding="UTF-8" standalone="no"?>
<!-- Created with Inkscape (http://www.inkscape.org/) -->

<svg
   xmlns:dc="http://purl.org/dc/elements/1.1/"
   xmlns:cc="http://creativecommons.org/ns#"
   xmlns:rdf="http://www.w3.org/1999/02/22-rdf-syntax-ns#"
   xmlns:svg="http://www.w3.org/2000/svg"
   xmlns="http://www.w3.org/2000/svg"
   xmlns:sodipodi="http://sodipodi.sourceforge.net/DTD/sodipodi-0.dtd"
   xmlns:inkscape="http://www.inkscape.org/namespaces/inkscape"
   width="48"
   height="48"
   id="svg2"
   version="1.1"
   inkscape:version="0.49 r12742"
   sodipodi:docname="accessories-archiver.svg">
  <defs
     id="defs4">
    <inkscape:perspective
       id="perspective35"
       inkscape:persp3d-origin="150 : 100 : 1"
       inkscape:vp_z="300 : 150 : 1"
       inkscape:vp_y="0 : 1000 : 0"
       inkscape:vp_x="0 : 150 : 1"
       sodipodi:type="inkscape:persp3d" />
  </defs>
  <sodipodi:namedview
     id="base"
     pagecolor="#ffffff"
     bordercolor="#666666"
     borderopacity="1.0"
     inkscape:pageopacity="0.0"
     inkscape:pageshadow="2"
     inkscape:zoom="8.1825098"
     inkscape:cx="17.798727"
     inkscape:cy="29.378057"
     inkscape:document-units="px"
     inkscape:current-layer="layer1"
     showgrid="false"
     fit-margin-top="0"
     fit-margin-left="0"
     fit-margin-right="0"
     fit-margin-bottom="0"
     inkscape:window-width="1366"
     inkscape:window-height="718"
     inkscape:window-x="-2"
     inkscape:window-y="23"
     inkscape:window-maximized="1"
     inkscape:showpageshadow="false"
     borderlayer="true">
    <sodipodi:guide
       position="8.9999928,39"
       orientation="30,0"
       id="guide3319" />
    <sodipodi:guide
       position="8.9999928,9"
       orientation="0,30"
       id="guide3321" />
    <sodipodi:guide
       position="38.999993,9"
       orientation="-30,0"
       id="guide3323" />
    <sodipodi:guide
       position="38.999993,39"
       orientation="0,-30"
       id="guide3325" />
    <sodipodi:guide
       position="8.9999928,44"
       orientation="4,0"
       id="guide3350" />
    <sodipodi:guide
       position="8.9999928,40"
       orientation="0,30"
       id="guide3352" />
    <sodipodi:guide
       position="38.999993,40"
       orientation="-4,0"
       id="guide3354" />
    <sodipodi:guide
       position="38.999993,44"
       orientation="0,-30"
       id="guide3356" />
  </sodipodi:namedview>
  <metadata
     id="metadata7">
    <rdf:RDF>
      <cc:Work
         rdf:about="">
        <dc:format>image/svg+xml</dc:format>
        <dc:type
           rdf:resource="http://purl.org/dc/dcmitype/StillImage" />
        <dc:title />
      </cc:Work>
    </rdf:RDF>
  </metadata>
  <g
     inkscape:label="Capa 1"
     inkscape:groupmode="layer"
     id="layer1"
     transform="translate(-180.23661,-689.8125)">
    <g
       id="g4085">
      <path
         style="fill:#222222;fill-opacity:1;fill-rule:evenodd;stroke:none"
         d="M 9 4 L 9 8 L 9 14 L 13 14 L 13 8 L 35 8 L 35 14 L 39 14 L 39 8 L 39 4 L 9 4 z "
         transform="translate(180.23661,689.8125)"
         id="rect3313" />
      <rect
         y="698.8125"
         x="189.2366"
         height="30"
         width="30"
         id="rect3315"
         style="fill:none;fill-opacity:1;fill-rule:evenodd;stroke:none" />
      <rect
         style="fill:#c74640;fill-opacity:1;fill-rule:evenodd;stroke:none"
         id="rect3327"
         width="43.999977"
         height="30"
         x="182.2366"
         y="703.8125" />
      <rect
         y="703.8125"
         x="182.2366"
         height="11"
         width="43.999977"
         id="rect3335"
         style="fill:#cc524c;fill-opacity:1;fill-rule:evenodd;stroke:none" />
      <ellipse
         d="m 710.81248,-204.23659 a 3.502425,3.5001078 0 0 1 -3.50242,3.50011 3.502425,3.5001078 0 0 1 -3.50243,-3.50011 3.502425,3.5001078 0 0 1 3.50243,-3.50011 3.502425,3.5001078 0 0 1 3.50242,3.50011 z"
         ry="3.5001078"
         rx="3.502425"
         cy="-204.23659"
         cx="707.31006"
         id="ellipse3329"
         style="fill:none;stroke:none"
         transform="matrix(0,1,-1,0,0,0)" />
      <ellipse
         d="m 205.23659,711.8125 a 1.0006928,1.0000308 0 0 1 -1.00069,1.00003 1.0006928,1.0000308 0 0 1 -1.00069,-1.00003 1.0006928,1.0000308 0 0 1 1.00069,-1.00003 1.0006928,1.0000308 0 0 1 1.00069,1.00003 z"
         ry="1.0000308"
         rx="1.0006928"
         cy="711.8125"
         cx="204.2359"
         id="ellipse3376"
         style="fill:none;stroke:none" />
      <rect
         style="fill:#ad2824;fill-opacity:1;fill-rule:evenodd;stroke:none"
         id="rect3389"
         width="4"
         height="7"
         x="202.23659"
         y="712.8125" />
      <ellipse
         d="m 205.23659,713.8125 a 1.0006928,1.0000308 0 0 1 -1.00069,1.00003 1.0006928,1.0000308 0 0 1 -1.00069,-1.00003 1.0006928,1.0000308 0 0 1 1.00069,-1.00003 1.0006928,1.0000308 0 0 1 1.00069,1.00003 z"
         style="fill:none;stroke:none"
         id="ellipse3391"
         cx="204.2359"
         cy="713.8125"
         rx="1.0006928"
         ry="1.0000308" />
      <rect
         y="714.8125"
         x="200.73659"
         height="7"
         width="7"
         id="rect3372"
         style="fill:#dedfe2;fill-opacity:1;fill-rule:evenodd;stroke:none" />
      <path
         inkscape:connector-curvature="0"
         id="rect3393"
         d="m 201.73661,715.8125 0,5 5,0 0,-5 -5,0 z m 0.71429,0.71429 3.57142,0 0,3.57142 -3.57142,0 0,-3.57142 z"
         style="fill:#c0c0c0;fill-opacity:1;fill-rule:evenodd;stroke:none" />
    </g>
  </g>
</svg>
