<?xml version="1.0" encoding="UTF-8" standalone="no"?>
<!-- Created with Inkscape (http://www.inkscape.org/) -->

<svg
   xmlns:dc="http://purl.org/dc/elements/1.1/"
   xmlns:cc="http://creativecommons.org/ns#"
   xmlns:rdf="http://www.w3.org/1999/02/22-rdf-syntax-ns#"
   xmlns:svg="http://www.w3.org/2000/svg"
   xmlns="http://www.w3.org/2000/svg"
   xmlns:sodipodi="http://sodipodi.sourceforge.net/DTD/sodipodi-0.dtd"
   xmlns:inkscape="http://www.inkscape.org/namespaces/inkscape"
   width="48"
   height="48"
   id="svg2"
   version="1.1"
   inkscape:version="0.49 r12742"
   sodipodi:docname="firefox-4.0.svg">
  <defs
     id="defs4">
    <clipPath
       id="clipPath16"
       clipPathUnits="userSpaceOnUse">
      <path
         id="path18"
         d="m 0,706.465 1490.926,0 L 1490.926,0 0,0 0,706.465 Z" />
    </clipPath>
    <clipPath
       id="clipPath24"
       clipPathUnits="userSpaceOnUse">
      <path
         id="path26"
         d="m 22.1953,686.117 1447.7347,0 0,-667.1902 -1447.7347,0 L 22.1953,686.117 Z" />
    </clipPath>
  </defs>
  <sodipodi:namedview
     id="base"
     pagecolor="#ffffff"
     bordercolor="#666666"
     borderopacity="1.0"
     inkscape:pageopacity="0.0"
     inkscape:pageshadow="2"
     inkscape:zoom="16"
     inkscape:cx="20.267479"
     inkscape:cy="29.351221"
     inkscape:document-units="px"
     inkscape:current-layer="layer1"
     showgrid="false"
     fit-margin-top="0"
     fit-margin-left="0"
     fit-margin-right="0"
     fit-margin-bottom="0"
     inkscape:window-width="1366"
     inkscape:window-height="718"
     inkscape:window-x="-2"
     inkscape:window-y="23"
     inkscape:window-maximized="1"
     showguides="true">
    <sodipodi:guide
       position="8.9999928,39"
       orientation="30,0"
       id="guide3268" />
    <sodipodi:guide
       position="8.9999928,9"
       orientation="0,30"
       id="guide3270" />
    <sodipodi:guide
       position="38.999993,9"
       orientation="-30,0"
       id="guide3272" />
    <sodipodi:guide
       position="38.999993,39"
       orientation="0,-30"
       id="guide3274" />
    <sodipodi:guide
       position="3.9999928,44"
       orientation="40,0"
       id="guide3308" />
    <sodipodi:guide
       position="3.9999928,4"
       orientation="0,40"
       id="guide3310" />
    <sodipodi:guide
       position="43.999993,4"
       orientation="-40,0"
       id="guide3312" />
    <sodipodi:guide
       position="43.999993,44"
       orientation="0,-40"
       id="guide3314" />
  </sodipodi:namedview>
  <metadata
     id="metadata7">
    <rdf:RDF>
      <cc:Work
         rdf:about="">
        <dc:format>image/svg+xml</dc:format>
        <dc:type
           rdf:resource="http://purl.org/dc/dcmitype/StillImage" />
        <dc:title />
      </cc:Work>
    </rdf:RDF>
  </metadata>
  <g
     inkscape:label="Capa 1"
     inkscape:groupmode="layer"
     id="layer1"
     transform="translate(-180.23661,-689.8125)">
    <g
       id="g4081">
      <path
         id="rect3304"
         transform="translate(180.23661,689.8125)"
         d="M 24 4 C 17.802491 4 12.284049 6.7929061 8.6210938 11.191406 C 8.8361534 11.646399 9.1945514 12.027952 9.8398438 12.449219 C 11.741274 11.722789 13.405058 11.613154 14.798828 12.121094 C 16.480828 10.508274 18.356646 9.57105 20.447266 9.3125 C 19.322256 10.06887 18.574191 10.776724 18.175781 11.433594 L 18.085938 11.523438 C 17.687928 12.190506 17.38789 12.947526 17.21875 13.853516 L 17.189453 14.001953 L 17.578125 14.300781 L 18.802734 15.496094 C 19.280684 15.954044 19.66 16.214534 19.96875 16.302734 L 19.96875 16.273438 C 20.71533 16.422372 21.462424 16.491172 22.208984 16.451172 C 22.567284 16.669952 22.656076 16.919896 22.447266 17.228516 C 22.436966 17.238516 22.399272 17.242066 22.388672 17.259766 C 22.378672 17.259766 22.368022 17.273163 22.357422 17.289062 C 22.287682 17.677312 22.088899 17.967 21.730469 18.15625 C 20.924339 18.61405 19.957678 19.321021 18.892578 20.306641 L 18.892578 20.337891 C 19.579202 21.502541 19.827912 22.629804 19.638672 23.714844 C 18.504232 23.386174 17.497074 23.195988 16.621094 23.117188 C 15.844724 23.236847 15.465181 23.755179 15.425781 24.730469 L 15.425781 24.759766 L 15.724609 25.208984 C 16.521009 26.194194 17.348728 26.981889 18.205078 27.568359 C 19.509098 28.404505 20.844481 28.445073 22.238281 27.658203 C 23.701381 26.732353 25.107162 26.632918 26.451172 27.330078 C 27.068572 27.678308 27.566556 28.058164 27.884766 28.496094 C 28.103316 29.083124 27.853846 29.451116 27.197266 29.541016 C 26.878366 29.390516 26.561161 29.379906 26.212891 29.509766 L 23.523438 31.244141 C 21.886897 32.072121 20.033404 32.427506 17.996094 32.259766 C 19.302404 33.576776 20.768422 34.525359 22.388672 35.068359 C 23.493322 35.427339 24.670344 35.589569 25.914062 35.605469 C 29.060463 35.485539 31.870021 33.591937 34.337891 29.898438 C 34.428361 30.784838 34.259288 31.901911 33.861328 33.275391 C 35.961438 31.025871 36.730489 27.577113 36.162109 22.908203 C 36.570649 23.226773 37.037676 24.113943 37.535156 25.626953 C 38.261826 23.357163 38.163858 20.505474 37.267578 17.021484 C 37.994238 17.240254 38.57185 17.669156 39 18.335938 C 39.31881 15.160577 36.546549 12.399104 30.693359 10.089844 C 31.509769 9.7716935 32.417459 9.7230294 33.443359 9.9121094 C 33.104249 9.1654094 32.396046 8.5169069 31.291016 8.0292969 C 30.574896 7.7006369 29.677473 7.4606731 28.632812 7.2519531 C 31.011693 7.3218031 33.083806 7.6017806 34.816406 8.1191406 C 35.993247 8.4757601 37.035774 9.0090245 37.949219 9.6601562 C 34.350634 6.1597074 29.440061 4 24 4 z M 37.949219 9.6601562 C 38.190614 9.8949687 38.419426 10.141963 38.648438 10.388672 C 38.418981 10.141725 38.190825 9.8951732 37.949219 9.6601562 z M 39.056641 10.839844 C 39.288365 11.105357 39.516878 11.374646 39.734375 11.652344 C 39.516262 11.374365 39.288928 11.105613 39.056641 10.839844 z M 39.96875 11.966797 C 40.462017 12.622748 40.920361 13.305656 41.332031 14.021484 C 40.920501 13.305933 40.462828 12.622572 39.96875 11.966797 z M 41.347656 14.046875 C 41.435307 14.280538 41.531028 14.511194 41.599609 14.751953 C 41.598349 14.653829 41.585778 14.535849 41.580078 14.429688 C 41.508564 14.298119 41.422017 14.17662 41.347656 14.046875 z M 41.580078 14.429688 C 41.604368 14.474375 41.624479 14.521512 41.648438 14.566406 C 41.624473 14.521499 41.604375 14.474388 41.580078 14.429688 z M 41.390625 15.199219 C 41.438182 15.297909 41.465166 15.397267 41.509766 15.498047 C 41.509766 15.517447 41.528463 15.536041 41.539062 15.556641 C 41.543062 15.540341 41.535063 15.515847 41.539062 15.498047 C 41.488326 15.401837 41.444825 15.297319 41.390625 15.199219 z M 42.328125 15.984375 C 42.383449 16.11126 42.441382 16.236979 42.494141 16.365234 C 42.441322 16.236804 42.383518 16.111431 42.328125 15.984375 z M 5.59375 16.142578 C 5.5647238 16.210809 5.5400076 16.280988 5.5117188 16.349609 C 5.5399926 16.281053 5.5647402 16.210744 5.59375 16.142578 z M 4.9609375 17.863281 C 4.9340628 17.947225 4.9027491 18.028852 4.8769531 18.113281 C 4.9027262 18.028995 4.9340891 17.947083 4.9609375 17.863281 z M 43.064453 17.931641 C 43.099327 18.0419 43.129096 18.154537 43.162109 18.265625 C 43.129081 18.1544 43.099347 18.042034 43.064453 17.931641 z M 43.535156 19.724609 C 43.564145 19.858511 43.598693 19.990096 43.625 20.125 C 43.598707 19.99006 43.564131 19.858548 43.535156 19.724609 z M 4.4570312 19.751953 C 4.4187663 19.930069 4.3792178 20.107236 4.3457031 20.287109 C 4.3791932 20.107537 4.4188043 19.929773 4.4570312 19.751953 z M 43.673828 20.398438 C 43.722178 20.666085 43.765083 20.935721 43.802734 21.207031 C 43.765099 20.9355 43.722175 20.666303 43.673828 20.398438 z M 4.2851562 20.628906 C 4.2442001 20.872069 4.2098907 21.117165 4.1777344 21.363281 C 4.2099338 21.117112 4.2441475 20.87212 4.2851562 20.628906 z M 43.863281 21.679688 C 43.892971 21.938487 43.915761 22.199163 43.935547 22.460938 C 43.9158 22.199454 43.892904 21.938207 43.863281 21.679688 z M 4.1269531 21.757812 C 4.0989295 22.011121 4.0771419 22.267306 4.0585938 22.523438 C 4.0771725 22.267009 4.0988699 22.011409 4.1269531 21.757812 z M 43.962891 22.804688 C 43.986044 23.20045 44 23.598223 44 24 C 44 23.598054 43.986045 23.200626 43.962891 22.804688 z M 4.0332031 22.869141 C 4.012483 23.243868 4 23.619916 4 24 C 4 23.620279 4.0125048 23.24351 4.0332031 22.869141 z "
         style="fill:#2f7cbc;fill-opacity:1;fill-rule:evenodd;stroke:none" />
      <path
         sodipodi:nodetypes="cccccccccccccccccsccccccccccccccccccccccccccccccccccccccccccccccccccccccccccccccccccccccccccccccccccccccccccccccccccccccccccccccccccccccccccccccccccccccccccccccccccccccccccccccccccccccscccccccccccccccccccccccccccccccccccccccccccccccccccccccccccccccccccccccccccccccccccccccccccccccccccccccccccccccccccccccccccccccccccccccccc"
         inkscape:connector-curvature="0"
         id="path34"
         transform="translate(180.23661,689.8125)"
         d="m 28.111328,4.8652344 c -0.11062,0.011 -0.200203,0.061453 -0.283203,0.064453 -0.0649,0.003 -0.192681,-0.028484 -0.238281,-0.021484 -0.1293,0.0192 -0.255618,0.1444656 -0.392578,0.1972657 -0.22937,0.088 -0.495228,0.056005 -0.742188,0.109375 -0.23648,0.0512 -0.435704,0.3141562 -0.652344,0.3476562 -0.15844,0.0253 -0.4296,-0.087347 -0.5,0.064453 -0.0424,0.15727 0.126613,0.1989106 0.06445,0.3066407 -0.140231,0.24368 -0.486642,0.3289831 -0.675782,0.5644531 -0.0517,0.0643 -0.05619,0.1704345 -0.107422,0.2402343 -0.0737,0.1006201 -0.207218,0.1528344 -0.261718,0.2402344 -0.0874,0.13922 -0.0528,0.2573719 -0.173828,0.3261719 -0.19133,0.10946 -0.480542,0.037405 -0.675782,0.109375 -0.11601,0.0434 -0.200157,0.1612969 -0.304687,0.2167969 -0.27664,0.14735 -0.661485,0.1944587 -0.828125,0.4804687 -0.0462,0.24641 0.05954,0.431165 0.08594,0.609375 0.018,0.12211 -0.01726,0.2310163 0.02344,0.3476563 0.0715,0.20398 0.359139,0.4140625 0.630859,0.4140625 0.41359,0 0.736709,-0.5208313 1.06836,-0.4570313 0.16225,0.0308 0.178365,0.2886669 0.259765,0.4355469 0.0754,0.13531 0.420094,0.3635107 0.371094,0.5878905 -0.0391,0.17994 -0.451867,0.242235 -0.654297,0.240234 -0.0176,-0.196868 0.0301,-0.520082 -0.128906,-0.632812 -0.32945,0.15679 -0.562997,0.1120336 -0.654297,0.371094 -0.11554,0.32782 0.199044,0.566953 0.152344,0.871094 -0.0495,0.319498 -0.709925,0.208318 -1.001953,0.261718 -0.21836,0.0395 -0.298666,0.305865 -0.478516,0.521485 -0.12484,0.15016 -0.359532,0.312778 -0.544922,0.392578 -0.0907,0.0391 -0.200203,0.03349 -0.283203,0.08789 -0.12266,0.0809 -0.165548,0.275041 -0.304688,0.369141 -0.10015,0.0677 -0.48226,0.259719 -0.58789,0.261719 -0.12375,0.002 -0.237072,-0.114078 -0.326172,-0.08594 -0.13085,0.0412 -0.114299,0.295457 -0.261719,0.347657 -0.28875,0.102368 -0.772427,-0.256252 -0.873047,0.173828 0.12375,0.24912 0.438197,0.190625 0.654297,0.328125 0.13585,0.0858 0.421231,0.463595 0.457031,0.609375 0.0302,0.1232 -0.01385,0.609374 -0.06445,0.740234 -0.13476,0.34757 -0.449759,0.225797 -0.849609,0.216797 -0.10945,-0.003 -0.225002,0.02848 -0.326172,0.02148 -0.101482,-0.0069 -0.190679,-0.01685 -0.291016,-0.0293 l 0.390625,0.38086 c 0.47795,0.45795 0.857266,0.71844 1.166016,0.80664 l 0,-0.0293 c 0.196387,0.03918 0.393405,0.05642 0.589844,0.08398 0.164917,-0.170024 0.341117,-0.36638 0.539062,-0.470703 0.15406,-0.0814 0.364647,-0.0746 0.435547,-0.197266 0.016,-0.13969 -0.02448,-0.220626 -0.02148,-0.347656 0.0946,-0.0864 0.161034,-0.156828 0.240234,-0.173828 0.23485,-0.0506 0.466874,0.163944 0.740235,0.152343 0.1182,-0.005 0.222579,-0.0916 0.349609,-0.175781 0.10672,-0.0709 0.221642,-0.120528 0.326172,-0.173828 0.11492,-0.0594 0.22946,-0.186312 0.36914,-0.195312 0.34266,-0.0215 0.477113,0.360076 0.632813,0.566406 0.13031,0.17156 0.50484,0.467419 0.71875,0.587891 0.12047,0.0676 0.281482,0.071 0.414062,0.130859 0.28273,0.12703 0.84061,0.548982 0.84961,0.826172 0.005,0.13859 -0.130875,0.243514 -0.109375,0.371093 0.21391,0.0352 0.452031,-0.199532 0.457031,-0.414062 0.003,-0.13422 -0.135275,-0.206256 -0.109375,-0.347656 0.10008,-0.21552 0.394137,1.19e-4 0.523437,-0.08789 -0.0248,-0.24359 -0.358516,-0.266098 -0.566406,-0.392578 -0.11219,-0.0682 -0.188127,-0.211866 -0.304687,-0.259766 -0.16883,-0.0693 -0.348989,-0.0506 -0.480469,-0.152343 -0.1232,-0.0952 -0.183118,-0.314295 -0.304688,-0.458985 -0.176559,-0.21062 -0.563201,-0.241557 -0.457031,-0.716797 0.0528,-0.0715 0.179719,-0.184498 0.261719,-0.154296 0.16175,0.0391 0.142349,0.178118 0.261719,0.261718 0.0869,0.0605 0.207387,0.0483 0.304687,0.109375 0.11437,0.072 0.175478,0.262194 0.304688,0.371094 0.18266,0.15344 0.50438,0.268045 0.761718,0.390625 0.24094,0.11445 0.628482,0.272579 0.675782,0.480469 0.0264,0.11719 -0.03688,0.245936 -0.02148,0.347656 0.0192,0.1293 0.111628,0.261856 0.173829,0.347656 0.16828,0.23211 0.4025,0.439133 0.58789,0.720703 -0.006,0.38281 0.136796,0.616052 0.566406,0.564454 0.15508,-0.0826 0.07369,-0.196882 0.195313,-0.326172 0.11437,-0.12149 0.369094,-0.105542 0.371094,-0.283204 0.003,-0.27336 -0.652307,-0.316169 -0.566407,-0.71875 0.0253,-0.128699 0.168832,-0.06545 0.283204,-0.06445 0.185939,-0.21444 0.574054,-0.485623 0.828124,-0.152343 0.109451,0.65609 0.316884,1.234603 0.783204,1.589843 0.33055,-0.11875 0.473826,0.18806 0.785156,0.13086 0.15125,-0.0275 0.222342,-0.218235 0.36914,-0.240235 0.266252,-0.0407 0.446486,0.251903 0.697266,0.283204 0.40813,0.0512 0.709298,-0.416329 1.111328,-0.173829 0.0198,0.33055 0.119522,0.506405 0.107422,0.740235 -0.009,0.18203 -0.159681,0.34648 -0.238281,0.58789 -0.11336,0.34703 -0.04049,0.688598 -0.371094,0.804688 -0.44929,0.15781 -0.715932,-0.178244 -1.132812,-0.152344 -0.21671,0.0138 -0.381715,0.228219 -0.609375,0.261719 -0.35859,0.0534 -0.736877,-0.257388 -1.154297,-0.304688 -0.0968,-0.0111 -0.207303,0.0192 -0.283203,0 -0.10063,-0.0259 -0.178744,-0.139728 -0.283204,-0.173828 -0.181008,-0.0585 -0.319605,-0.02411 -0.478515,-0.06641 -0.21453,-0.37789 -1.301631,-0.401723 -1.394531,0.154297 -0.0413,0.24531 0.126408,0.588559 -0.238282,0.630859 -0.23156,0.027 -0.467816,-0.235887 -0.785156,-0.304687 -0.12977,-0.0286 -0.312882,-0.01002 -0.414062,-0.04492 -0.23757,-0.082 -0.209533,-0.312891 -0.414063,-0.457031 -0.11883,-0.0835 -0.421795,-0.196497 -0.609375,-0.216797 -0.11656,-0.0127 -0.224456,0.03518 -0.347656,0.02148 -0.14633,-0.0159 -0.356719,-0.119912 -0.480469,-0.195312 -0.11821,-0.072 -0.360425,-0.179762 -0.390625,-0.283204 -0.0462,-0.160548 0.293088,-0.343988 0.304688,-0.480468 0.008,-0.10281 -0.127044,-0.167812 -0.152344,-0.326172 -0.0148,-0.0957 0.03968,-0.197919 0.02148,-0.261719 -0.0319,-0.11219 -0.217188,-0.235281 -0.392578,-0.238281 -0.15515,-0.002 -0.302967,0.126859 -0.435547,0.130859 -0.19141,0.006 -0.503194,-0.10658 -0.740234,-0.08789 -0.14523,0.0115 -0.278753,0.099 -0.414063,0.109375 -0.01437,0.0011 -0.02295,-9.33e-4 -0.03711,0 -0.105232,0.160146 -0.248145,0.294443 -0.441406,0.396484 -0.80613,0.4578 -1.772791,1.164771 -2.837891,2.150391 l 0,0.03125 c 0.686624,1.16465 0.935334,2.291913 0.746094,3.376953 -1.13444,-0.32867 -2.141598,-0.518856 -3.017578,-0.597656 -0.77637,0.119659 -1.155913,0.637991 -1.195313,1.613281 l 0,0.0293 0.298828,0.449218 c 0.7964,0.98521 1.624119,1.772905 2.480469,2.359375 1.30402,0.836146 2.639403,0.876714 4.033203,0.08984 1.4631,-0.92585 2.868881,-1.025285 4.212891,-0.328125 0.6174,0.34823 1.115384,0.728086 1.433594,1.166016 0.21855,0.58703 -0.03092,0.955022 -0.6875,1.044922 -0.3189,-0.1505 -0.636105,-0.16111 -0.984375,-0.03125 l -2.494141,1.609375 c 0.08978,0.111296 0.157671,0.23312 0.167969,0.318359 0.0226,0.18906 -0.10336,0.471321 -0.13086,0.587891 -0.06,0.25406 -0.0638,0.55766 -0.109375,0.71875 -0.0352,0.12485 -0.132859,0.201332 -0.130859,0.326171 0.002,0.114461 0.144609,0.395242 0.261719,0.544922 0.14305,0.18368 0.371092,0.324298 0.544922,0.523438 0.31898,0.36461 0.453288,0.802493 0.673828,1.283203 0.01876,0.04074 0.04425,0.09723 0.06836,0.146484 0.279972,0.01989 0.562457,0.03344 0.849609,0.03711 3.146401,-0.11993 5.955959,-2.013532 8.423829,-5.707031 0.09047,0.8864 -0.0786,2.003473 -0.476563,3.376953 1.455382,-1.558924 2.256869,-3.708022 2.431641,-6.425782 -0.03502,-0.03071 -0.06348,-0.06888 -0.101563,-0.0957 -0.26727,-0.1875 -0.631399,-0.30851 -0.761718,-0.58789 -0.0891,-0.19086 -0.0892,-0.475002 -0.216797,-0.675782 -0.1568,-0.24586 -0.536527,-0.396013 -0.611329,-0.652343 -0.0782,-0.26671 -0.0071,-0.45203 -0.06445,-0.71875 -0.0858,-0.3982 -0.517336,-0.50422 -0.654297,-0.84961 -0.0374,-0.0952 -0.03035,-0.213987 -0.06445,-0.304687 -0.0913,-0.24531 -0.281022,-0.479996 -0.414062,-0.697266 -0.14578,-0.23867 -0.282494,-0.476879 -0.371094,-0.761719 0.0886,-0.11499 0.279381,-0.126443 0.457031,-0.152343 0.34102,0.28437 0.654384,0.64062 0.871094,1.044922 0.0539,0.100069 0.0676,0.232171 0.13086,0.326171 0.0951,0.1425 0.266609,0.207888 0.349609,0.304688 0.11,0.12648 0.218819,0.295861 0.261719,0.457031 0.0255,0.0979 -0.006,0.199925 0.02148,0.328125 0.0995,0.47133 0.611484,0.667022 0.871094,1.044922 0.0769,0.11218 0.107328,0.250356 0.173828,0.347656 0.04442,0.06523 0.100228,0.116339 0.154297,0.169922 -0.01308,-0.785407 -0.0562,-1.598744 -0.16211,-2.46875 0.40854,0.31857 0.875567,1.20574 1.373047,2.71875 0.72667,-2.26979 0.628702,-5.121479 -0.267578,-8.605469 0.72666,0.21877 1.304272,0.647672 1.732422,1.314454 0.022,-0.219128 0.02502,-0.435218 0.01758,-0.650391 -0.06285,-0.03488 -0.125674,-0.07123 -0.189453,-0.09961 -0.22664,-0.101251 -0.475038,-0.11031 -0.523437,-0.34961 -0.0226,-0.11164 0.02571,-0.416252 0.06641,-0.544922 0.0407,-0.13149 0.158344,-0.158903 0.152344,-0.283203 -0.008,-0.14898 -0.372114,-0.420082 -0.501954,-0.544922 -0.18368,-0.17656 -0.428237,-0.311404 -0.523437,-0.521484 -0.0346,-0.0765 -0.02535,-0.191303 -0.06445,-0.283203 -0.0764,-0.1782 -0.269403,-0.257888 -0.283203,-0.392578 -0.01,-0.0935 0.107312,-0.279457 0.195312,-0.347657 0.02856,-0.02214 0.09434,-0.05914 0.136719,-0.08398 -1.36106,-1.509728 -3.619288,-2.89396 -6.789063,-4.144531 0.81641,-0.3181505 1.7241,-0.3668146 2.75,-0.1777346 -0.33911,-0.7467 -1.047313,-1.3952025 -2.152343,-1.8828125 -0.71612,-0.32866 -1.613543,-0.5686238 -2.658204,-0.7773438 2.378881,0.06985 4.450994,0.3498275 6.183594,0.8671875 1.176841,0.3566195 2.219368,0.8898839 3.132813,1.5410156 0.33188,0.3228295 0.652596,0.6568068 0.960937,1.0019528 C 37.390485,8.9592191 35.589325,7.5148639 33.566406,6.4160156 33.348342,6.454484 33.154133,6.5743413 32.990234,6.6738281 32.959434,6.7948381 32.979335,6.9676 32.859375,7 c -0.30688,0.0445 -0.565933,-0.2303263 -0.783203,-0.066406 -0.0352,0.22383 0.281181,0.096595 0.238281,0.328125 -0.48618,0.0599 -1.018437,-0.3138207 -1.023437,-0.8066407 0.3575,-0.11324 0.811638,0.087891 1.154296,0.087891 0.198364,0 0.646876,-0.083427 0.666016,-0.3476563 C 32.623259,5.9460078 32.127693,5.7093981 31.617188,5.5 c -0.08712,-0.02496 -0.17565,-0.05809 -0.259766,-0.068359 -0.10015,-0.0127 -0.205941,0.01 -0.306641,0 -0.28266,-0.0286 -0.50531,-0.1750125 -0.71875,-0.1953125 -0.14414,-0.0138 -0.27174,0.0352 -0.36914,0 -0.19359,-0.0694 -0.175932,-0.2411406 -0.326172,-0.3066406 -0.28648,-0.12544 -0.614695,-0.013484 -0.958985,-0.021484 -0.20797,-0.004 -0.406406,-0.058969 -0.566406,-0.042969 z m 10.798828,5.7968746 c 0.308341,0.345147 0.604829,0.702136 0.888672,1.06836 -0.283902,-0.366313 -0.580518,-0.723053 -0.888672,-1.06836 z m 0.888672,1.06836 c 0.567686,0.732447 1.084894,1.505135 1.548828,2.314453 -0.463688,-0.809124 -0.98088,-1.581643 -1.548828,-2.314453 z m 1.548828,2.314453 c 0.03304,0.08812 0.06235,0.17763 0.0957,0.265625 0.01516,-0.01008 0.026,-0.0225 0.04687,-0.0293 -0.04471,-0.08056 -0.0968,-0.156453 -0.142578,-0.236328 z M 27.955078,6.6640625 c 0.18287,-0.009 0.367458,0.027497 0.460938,0.1171875 0,0.49063 -0.979954,0.5657044 -1.001954,0.9589844 -0.005,0.0858 0.06809,0.2319537 0.08789,0.3710937 0.018,0.12539 -0.001,0.21415 0.02148,0.28125 0.0715,0.21226 0.36508,0.3782782 0.58789,0.3925781 0.52195,0.0341 1.303822,-0.5015649 1.763672,-0.109375 -0.20133,0.4400002 -0.91937,0.079699 -1.4375,0.2617188 -0.10336,0.0368 -0.167366,0.1369281 -0.259766,0.1738281 -0.12429,0.0495 -0.349059,-0.00199 -0.349609,0.1972657 0.10227,0.2040398 0.267108,-0.041922 0.392578,-0.044922 0.14078,-0.003 0.344872,0.153195 0.326172,0.328125 -0.0429,0.40257 -0.395469,-0.0138 -0.630859,0 -0.34267,0.0203 -0.41561,0.5042141 -0.34961,0.8710941 -0.15562,0.0863 -0.332808,0.327856 -0.542968,0.347656 -0.13141,0.0127 -0.236963,-0.112661 -0.414063,-0.130859 -0.39211,-0.0401 -0.758831,0.31714 -1.132813,0.30664 -0.16227,-0.005 -0.32992,-0.199264 -0.58789,-0.197266 -0.13313,0.002 -0.234144,0.09619 -0.371094,0.109376 -0.17265,0.017 -0.448147,-0.05729 -0.435547,-0.195313 0.0193,-0.21504 0.311326,-0.03731 0.478516,-0.06641 0.21013,-0.0368 0.163671,-0.211281 0.306641,-0.238281 0.0957,-0.0187 0.182661,0.07985 0.326171,0.06445 0.15508,-0.0166 0.293047,-0.243088 0.435547,-0.304688 0.27883,-0.12093 0.500422,-0.0544 0.544922,-0.283203 0.0243,-0.12703 -0.07792,-0.3157013 -0.04492,-0.4570312 0.0737,-0.3124201 0.658113,-0.2676626 0.632813,-0.6328126 -0.0148,-0.2167199 -0.471738,-0.2722656 -0.523438,-0.4785156 -0.033,-0.13367 0.04389,-0.3546469 0.08789,-0.4355468 0.19742,-0.36406 0.828197,-0.3997657 1.023437,-0.6972657 0.0913,-0.13922 0.088,-0.2783562 0.152344,-0.3476562 0.0897,-0.0962 0.270255,-0.1528994 0.453125,-0.1621094 z m -8.316406,2.4707031 c -0.11164,0.14542 -0.30977,0.085204 -0.5,0.1523438 -0.15352,0.0538 -0.438916,0.3181094 -0.478516,0.4121094 -0.0033,0.00782 6.33e-4,0.017469 -0.002,0.025391 0.318111,-0.1064958 0.639625,-0.2004953 0.96875,-0.2714844 -0.0017,-0.00615 -0.0088,-0.00676 -0.0098,-0.013672 0.0142,-0.1232 0.129859,-0.1457031 0.130859,-0.2832031 -0.0253,-0.0185 -0.05939,-0.028484 -0.109375,-0.021484 z m 0.347656,0.5097656 c -0.415545,0.3042068 -0.772422,0.6010738 -1.064453,0.8886718 0.04569,0.05206 0.08315,0.109576 0.150391,0.146485 0.0803,0.044 0.190118,0.02621 0.261718,0.06641 0.12433,0.0698 0.222566,0.223356 0.197266,0.347656 -0.0368,0.17875 -0.271098,0.129219 -0.392578,0.261719 0.0209,0.25359 -0.177035,0.287651 -0.240234,0.457031 0.038,0.10726 0.20175,0.0901 0.21875,0.21875 -0.0242,0.13859 -0.27265,0.158437 -0.21875,0.304688 0.2332,0.182079 0.476715,-0.03831 0.697265,-0.06641 0.48727,-0.061 0.985936,0.061 1.285156,-0.173828 -0.0407,-0.23265 0.242097,-0.313594 0.216797,-0.521484 -0.0193,-0.15672 -0.276175,-0.174923 -0.390625,-0.283203 -0.061,-0.0578 -0.0775,-0.191948 -0.152343,-0.304688 -0.0858,-0.12921 -0.25391,-0.223669 -0.34961,-0.349609 -0.12812,-0.17 -0.393038,-0.415622 -0.392578,-0.544922 0.002,-0.1484402 0.18575,-0.1890584 0.21875,-0.3925782 -0.0056,-0.027732 -0.02767,-0.038617 -0.04492,-0.054688 z m -1.263672,1.0976568 c -0.218249,0.235746 -0.41102,0.467418 -0.546875,0.691406 l -0.08984,0.08984 c -0.04687,0.07854 -0.08677,0.163005 -0.13086,0.24414 0.03503,-0.01336 0.0855,-0.03211 0.115234,-0.04102 0.123211,-0.0368 0.304494,-0.0314 0.371094,-0.130859 0.0759,-0.115 0.0081,-0.313829 0.06445,-0.480469 0.0632,-0.18312 0.24015,-0.20579 0.21875,-0.36914 -1.79e-4,-0.0014 -0.0017,-0.0025 -0.002,-0.0039 z m 14.8125,3.033203 c 0.10762,-0.006 0.208673,0.001 0.283203,0.01953 0.17266,0.36023 -0.265718,0.428202 -0.261718,0.632812 0.004,0.18703 0.586794,0.363532 0.740234,0.457032 0.26461,0.16118 0.535079,0.278742 0.761719,0.414062 0.29912,0.17828 0.568685,0.676483 -0.02148,0.783203 -0.2068,0.0374 -0.562658,0.04697 -0.761718,0.04297 -0.60227,-0.0132 -1.049218,-0.464147 -1.742188,-0.435547 -0.15844,0.007 -0.299692,0.04499 -0.414062,0.08789 -0.18703,0.0698 -0.315156,0.22592 -0.478516,0.261718 -0.20242,0.044 -0.516331,-0.0534 -0.675781,0 -0.19859,0.066 -0.219455,0.538597 -0.609375,0.216797 -0.0215,-0.203 0.247318,-0.116023 0.261719,-0.283203 -0.0144,-0.16227 -0.219835,-0.246947 -0.240235,-0.435547 -0.0225,-0.21398 0.186919,-0.302893 0.261719,-0.544921 0.0235,-0.0781 -0.001,-0.162897 0.02148,-0.216797 0.038,-0.0891 0.147497,-0.141235 0.216797,-0.240235 0.13086,-0.18859 0.267108,-0.55979 0.523438,-0.58789 0.24421,-0.0264 0.38047,0.180828 0.58789,0.173828 0.14352,0.19687 0.211796,0.524606 0.478516,0.566406 0.22391,0.0352 0.483837,-0.162381 0.697265,-0.238281 -0.0517,-0.1985 -0.276687,-0.0934 -0.304687,-0.283203 -0.0367,-0.24627 0.352901,-0.373685 0.675781,-0.390625 z m 7.855469,1.423828 c 0.04756,0.09869 0.07454,0.198048 0.119141,0.298828 0,0.0194 0.0187,0.03799 0.0293,0.05859 0.004,-0.0163 -0.004,-0.04079 0,-0.05859 -0.05074,-0.09621 -0.09424,-0.200728 -0.148437,-0.298828 z m -17.792969,0.259765 c -0.14123,0.0464 -0.20962,0.344863 0.0059,0.382813 0.10004,-0.06 0.177143,-0.141952 0.152343,-0.326172 -0.0553,-0.0598 -0.111133,-0.07214 -0.158203,-0.05664 z m -0.05664,0.607422 c -0.0698,0.019 -0.145894,0.0684 -0.220704,0.146485 0.006,0.24312 0.02446,0.398125 -0.02344,0.609375 0.14031,0.26835 0.451838,0.02801 0.523437,-0.152344 0.0841,-0.45334 -0.07001,-0.660586 -0.279296,-0.603516 z m 1.859375,1.201172 c -0.19387,-0.007 -0.376645,0.008 -0.490235,0.09961 0.15953,0.26125 0.49265,0.349762 0.84961,0.414062 0.12862,-0.0963 0.136512,-0.313909 0.195312,-0.480469 -0.15648,0.003 -0.360817,-0.0258 -0.554687,-0.0332 z m 7.203125,1.105469 c -0.11383,0.0191 -0.217657,0.08 -0.222657,0.169922 0.0841,0.20841 0.4731,0.08886 0.5,-0.08594 -0.0402,-0.0795 -0.163523,-0.103084 -0.277343,-0.08398 z M 6.4746094,33.662109 c 0.2268934,0.412125 0.4742968,0.811195 0.7304687,1.203125 C 6.9505925,34.47164 6.7015146,34.074256 6.4746094,33.662109 Z m 1.1875,1.876953 c 0.088061,0.123155 0.1807118,0.242227 0.2714844,0.363282 -0.089977,-0.121477 -0.1842233,-0.239699 -0.2714844,-0.363282 z"
         style="fill:#0d5887;fill-opacity:1;fill-rule:nonzero;stroke:none" />
      <path
         transform="translate(180.23661,689.8125)"
         sodipodi:nodetypes="cccccccccccccccccccccccccccccccccccccccccccccssssccccccccccc"
         inkscape:connector-curvature="0"
         id="path28"
         d="m 28.632812,7.2519531 c 1.04466,0.20872 1.942084,0.4486838 2.658204,0.7773438 1.10503,0.48761 1.813233,1.1361125 2.152343,1.8828125 -1.0259,-0.18908 -1.93359,-0.1404157 -2.75,0.1777346 5.85319,2.30926 8.625451,5.070733 8.306641,8.246094 -0.42815,-0.666781 -1.005762,-1.095684 -1.732422,-1.314454 0.89628,3.48399 0.994248,6.335679 0.267578,8.605469 -0.49748,-1.51301 -0.964507,-2.40018 -1.373047,-2.71875 0.56838,4.66891 -0.200671,8.117668 -2.300781,10.367188 0.39796,-1.37348 0.567033,-2.490553 0.476563,-3.376953 -2.46787,3.693499 -5.277429,5.587101 -8.423829,5.707031 -1.243719,-0.0159 -2.42074,-0.17813 -3.52539,-0.53711 -1.62025,-0.543 -3.086268,-1.491583 -4.392578,-2.808593 2.03731,0.16774 3.890804,-0.187645 5.527344,-1.015625 l 2.689453,-1.734375 c 0.34827,-0.12986 0.665475,-0.11925 0.984375,0.03125 0.65658,-0.0899 0.90605,-0.457892 0.6875,-1.044922 -0.31821,-0.43793 -0.816194,-0.817786 -1.433594,-1.166016 -1.34401,-0.69716 -2.749791,-0.597725 -4.212891,0.328125 -1.3938,0.78687 -2.729183,0.746306 -4.033203,-0.08984 -0.85635,-0.58647 -1.684069,-1.374165 -2.480469,-2.359375 l -0.298828,-0.449218 0,-0.0293 c 0.0394,-0.97529 0.418943,-1.493622 1.195313,-1.613281 0.87598,0.0788 1.883138,0.268986 3.017578,0.597656 0.18924,-1.08504 -0.05947,-2.212303 -0.746094,-3.376953 l 0,-0.03125 c 1.0651,-0.98562 2.031761,-1.692591 2.837891,-2.150391 0.35843,-0.18925 0.557213,-0.478938 0.626953,-0.867188 0.0106,-0.0159 0.02125,-0.0293 0.03125,-0.0293 0.0106,-0.0177 0.04829,-0.02125 0.05859,-0.03125 0.20881,-0.30862 0.120018,-0.558564 -0.238282,-0.777344 -0.74656,0.04 -1.493654,-0.0288 -2.240234,-0.177734 l 0,0.0293 c -0.30875,-0.0882 -0.688066,-0.34869 -1.166016,-0.80664 l -1.224609,-1.195313 -0.388672,-0.298828 c 0,0 0.01851,-0.09378 0.02929,-0.14843 0.16914,-0.90599 0.469178,-1.663009 0.867188,-2.330078 l 0.08984,-0.08984 c 0.39841,-0.65687 1.146475,-1.364724 2.271485,-2.121094 -2.09062,0.25855 -3.966438,1.195774 -5.648438,2.808594 -1.39377,-0.50794 -3.057554,-0.398305 -4.9589842,0.328125 l 1.4e-5,-1.2e-5 C 8.2660746,11.421814 8.3483365,10.660004 8.2500575,8.3790641 5.1611714,11.467782 6.4428096,14.35969 6.1101462,15.023865 4.7596072,17.720265 4,20.768119 4,24 c 0,11.08 8.92,20 20,20 11.08,0 20,-8.92 20,-20 0,-3.471644 -0.876458,-6.730712 -2.419922,-9.570312 0.0057,0.106161 0.01827,0.224141 0.01953,0.322265 -0.06875,-0.241351 -0.164124,-0.47278 -0.251953,-0.707031 C 40.419787,12.426286 39.276739,10.951474 37.949219,9.6601562 37.035774,9.0090244 35.993247,8.4757601 34.816406,8.1191406 33.083806,7.6017806 31.011693,7.3218031 28.632812,7.2519531 Z m 12.757813,7.9472659 c 0.0542,0.0981 0.0977,0.202618 0.148437,0.298828 -0.004,0.0178 0.004,0.04229 0,0.05859 -0.0106,-0.0206 -0.0293,-0.03919 -0.0293,-0.05859 -0.0446,-0.10078 -0.07158,-0.200138 -0.119137,-0.298828 z"
         style="fill:#e17927;fill-opacity:1;fill-rule:nonzero;stroke:none;display:inline" />
      <path
         inkscape:connector-curvature="0"
         id="path4132"
         d="m 200.55156,707.70337 c -0.68626,0.0329 -1.40598,0.2094 -2.09235,0.60569 -0.32486,0.18756 -0.62269,0.42303 -0.88099,0.66075 0.42215,0.48724 0.94825,0.89706 1.54174,1.1563 0.0151,0.007 0.0399,-0.007 0.0551,0 1.05167,-0.96925 2.01063,-1.6945 2.80817,-2.14742 0.0256,-0.0136 0.0312,-0.0404 0.0551,-0.0551 -0.44684,-0.18995 -0.94244,-0.24628 -1.48673,-0.22022 z"
         style="fill:#fff0d5;fill-opacity:1;fill-rule:nonzero;stroke:none;display:inline" />
      <path
         inkscape:connector-curvature="0"
         id="path4137"
         d="m 200.77182,706.2167 c 0.0236,0.58776 0.25365,1.11891 0.60568,1.54174 0.22803,0.0357 0.45367,0.0772 0.66074,0.16518 0.30919,-0.19074 0.48587,-0.4654 0.55062,-0.82593 0.0106,-0.0159 0.0451,0 0.0551,0 0.0106,-0.0177 0.0449,-0.0453 0.0551,-0.0551 0.2088,-0.30863 0.083,-0.5521 -0.27532,-0.77087 -0.55861,0.03 -1.10385,0.0213 -1.65191,-0.055 z"
         style="fill:#22464b;fill-opacity:1;fill-rule:nonzero;stroke:none;display:inline" />
    </g>
  </g>
</svg>
