<?xml version="1.0" encoding="UTF-8" standalone="no"?>
<!-- Created with Inkscape (http://www.inkscape.org/) -->

<svg
   xmlns:dc="http://purl.org/dc/elements/1.1/"
   xmlns:cc="http://creativecommons.org/ns#"
   xmlns:rdf="http://www.w3.org/1999/02/22-rdf-syntax-ns#"
   xmlns:svg="http://www.w3.org/2000/svg"
   xmlns="http://www.w3.org/2000/svg"
   xmlns:sodipodi="http://sodipodi.sourceforge.net/DTD/sodipodi-0.dtd"
   xmlns:inkscape="http://www.inkscape.org/namespaces/inkscape"
   width="48"
   height="48"
   id="svg2"
   version="1.1"
   inkscape:version="0.49 r12742"
   sodipodi:docname="fluxgui.svg">
  <defs
     id="defs4" />
  <sodipodi:namedview
     id="base"
     pagecolor="#ffffff"
     bordercolor="#666666"
     borderopacity="1.0"
     inkscape:pageopacity="0.0"
     inkscape:pageshadow="2"
     inkscape:zoom="8.0625005"
     inkscape:cx="19.519929"
     inkscape:cy="33.185869"
     inkscape:document-units="px"
     inkscape:current-layer="layer1"
     showgrid="false"
     inkscape:window-width="1366"
     inkscape:window-height="718"
     inkscape:window-x="-2"
     inkscape:window-y="23"
     inkscape:window-maximized="1"
     inkscape:showpageshadow="false"
     borderlayer="true">
    <inkscape:grid
       type="xygrid"
       id="grid3850" />
    <sodipodi:guide
       position="4,44.000017"
       orientation="40,0"
       id="guide4072" />
    <sodipodi:guide
       position="4,4.0000174"
       orientation="0,40"
       id="guide4074" />
    <sodipodi:guide
       position="44,4.0000174"
       orientation="-40,0"
       id="guide4076" />
    <sodipodi:guide
       position="44,44.000017"
       orientation="0,-40"
       id="guide4078" />
    <sodipodi:guide
       position="9,39.000017"
       orientation="30,0"
       id="guide4082" />
    <sodipodi:guide
       position="9,9.0000174"
       orientation="0,30"
       id="guide4084" />
    <sodipodi:guide
       position="39,9.0000174"
       orientation="-30,0"
       id="guide4086" />
    <sodipodi:guide
       position="39,39.000017"
       orientation="0,-30"
       id="guide4088" />
    <sodipodi:guide
       position="15,33.000017"
       orientation="18,0"
       id="guide4090" />
    <sodipodi:guide
       position="15,15.000017"
       orientation="0,18"
       id="guide4092" />
    <sodipodi:guide
       position="33,15.000017"
       orientation="-18,0"
       id="guide4094" />
    <sodipodi:guide
       position="33,33.000017"
       orientation="0,-18"
       id="guide4096" />
  </sodipodi:namedview>
  <metadata
     id="metadata7">
    <rdf:RDF>
      <cc:Work
         rdf:about="">
        <dc:format>image/svg+xml</dc:format>
        <dc:type
           rdf:resource="http://purl.org/dc/dcmitype/StillImage" />
        <dc:title></dc:title>
      </cc:Work>
    </rdf:RDF>
  </metadata>
  <g
     inkscape:label="Capa 1"
     inkscape:groupmode="layer"
     id="layer1"
     transform="translate(0,-1004.3622)">
    <g
       id="g4075">
      <path
         id="rect2991-1"
         transform="translate(0,1004.3622)"
         d="M 24 4 A 20 20 0 0 0 4 24 A 20 20 0 0 0 24 44 A 20 20 0 0 0 44 24 A 20 20 0 0 0 24 4 z "
         style="fill:#ffce7b;fill-opacity:1;stroke:none" />
      <circle
         d="m 42.650013,1031.3622 a 9.25,9.25 0 0 1 -9.25,9.25 9.25,9.25 0 0 1 -9.25,-9.25 9.25,9.25 0 0 1 9.25,-9.25 9.25,9.25 0 0 1 9.25,9.25 z"
         id="path864"
         style="fill:#ff9f30;fill-opacity:1;fill-rule:nonzero;stroke:none"
         cx="33.400013"
         cy="1031.3622"
         r="9.25" />
      <path
         id="rect857"
         transform="translate(0,1004.3622)"
         d="M 17.25 19.96875 C 11.810118 19.96875 7.452767 22.213373 4.0449219 25.232422 A 20 20 0 0 0 24 44 A 20 20 0 0 0 42.0625 32.53125 C 32.059917 23.311365 23.857678 19.96875 17.25 19.96875 z "
         style="fill:#869fcb;fill-opacity:1;stroke:none" />
    </g>
  </g>
</svg>
