<?xml version="1.0" encoding="UTF-8" standalone="no"?>
<!-- Created with Inkscape (http://www.inkscape.org/) -->

<svg
   xmlns:dc="http://purl.org/dc/elements/1.1/"
   xmlns:cc="http://creativecommons.org/ns#"
   xmlns:rdf="http://www.w3.org/1999/02/22-rdf-syntax-ns#"
   xmlns:svg="http://www.w3.org/2000/svg"
   xmlns="http://www.w3.org/2000/svg"
   xmlns:sodipodi="http://sodipodi.sourceforge.net/DTD/sodipodi-0.dtd"
   xmlns:inkscape="http://www.inkscape.org/namespaces/inkscape"
   width="48"
   height="48"
   id="svg5453"
   version="1.1"
   inkscape:version="0.49 r12742"
   sodipodi:docname="goa-account-owncloud.svg">
  <defs
     id="defs5455" />
  <sodipodi:namedview
     id="base"
     pagecolor="#ffffff"
     bordercolor="#666666"
     borderopacity="1.0"
     inkscape:pageopacity="0"
     inkscape:pageshadow="2"
     inkscape:zoom="8.399168"
     inkscape:cx="23.737905"
     inkscape:cy="27.589116"
     inkscape:document-units="px"
     inkscape:current-layer="layer1"
     showgrid="false"
     fit-margin-top="0"
     fit-margin-left="0"
     fit-margin-right="0"
     fit-margin-bottom="0"
     inkscape:window-width="1366"
     inkscape:window-height="718"
     inkscape:window-x="-2"
     inkscape:window-y="23"
     inkscape:window-maximized="1"
     inkscape:showpageshadow="false"
     borderlayer="true">
    <sodipodi:guide
       position="1.1650391e-05,47.999996"
       orientation="47.999969,0"
       id="guide4063" />
    <sodipodi:guide
       position="1.1650391e-05,2.6367188e-05"
       orientation="0,48"
       id="guide4065" />
    <sodipodi:guide
       position="48.000012,2.6367188e-05"
       orientation="-47.999969,0"
       id="guide4067" />
    <sodipodi:guide
       position="48.000012,47.999996"
       orientation="0,-48"
       id="guide4069" />
    <sodipodi:guide
       position="4.0000117,43.999996"
       orientation="39.999969,0"
       id="guide4071" />
    <sodipodi:guide
       position="4.0000117,4.0000264"
       orientation="0,40"
       id="guide4073" />
    <sodipodi:guide
       position="44.000012,4.0000264"
       orientation="-39.999969,0"
       id="guide4075" />
    <sodipodi:guide
       position="44.000012,43.999996"
       orientation="0,-40"
       id="guide4077" />
  </sodipodi:namedview>
  <metadata
     id="metadata5458">
    <rdf:RDF>
      <cc:Work
         rdf:about="">
        <dc:format>image/svg+xml</dc:format>
        <dc:type
           rdf:resource="http://purl.org/dc/dcmitype/StillImage" />
        <dc:title />
      </cc:Work>
    </rdf:RDF>
  </metadata>
  <g
     inkscape:label="Capa 1"
     inkscape:groupmode="layer"
     id="layer1"
     transform="translate(-384.57143,-499.798)">
    <rect
       style="fill:#2c3e50;fill-opacity:1;stroke:none"
       id="rect4259"
       width="40"
       height="39.999969"
       x="388.57144"
       y="503.798"
       ry="19.999985" />
    <path
       inkscape:connector-curvature="0"
       style="fill:#1e2022;fill-opacity:0.31372549;stroke:none"
       d="m 421.48158,527.93602 c -0.0121,0.0991 -0.0131,0.20112 -0.0293,0.29883 0.0163,-0.02 0.0378,-0.0353 0.0547,-0.0547 -0.003,-0.0829 -0.0176,-0.16252 -0.0254,-0.24414 z"
       id="path4728" />
    <path
       style="fill:#ecf0f1;fill-opacity:1;stroke:none"
       d="m 407.0296,514.79803 c -1.89251,0 -3.51286,1.16094 -4.1918,2.80877 -0.34736,-0.18587 -0.73802,-0.30222 -1.15938,-0.30222 -1.36568,0 -2.47239,1.10806 -2.47239,2.4741 0,0.58737 0.21304,1.1193 0.55492,1.54354 -0.8006,0.52186 -1.42577,1.28547 -1.76892,2.19237 -0.20451,-0.0282 -0.41098,-0.0478 -0.62322,-0.0478 -2.50379,0 -4.5333,2.02882 -4.5333,4.53329 0,2.50446 2.02951,4.535 4.5333,4.535 0.8939,0 1.72197,-0.26871 2.42458,-0.71542 0.52844,0.59546 1.291,0.97837 2.14969,0.97837 1.16853,0 2.16877,-0.69806 2.62266,-1.69721 1.06934,0.88482 2.44105,1.41548 3.9374,1.41548 1.67453,0 3.19222,-0.66694 4.3062,-1.74843 0.83026,0.9324 2.0256,1.53158 3.37222,1.53158 1.08146,0 2.06154,-0.39409 2.84121,-1.02618 0.51738,0.77394 1.39824,1.28401 2.39898,1.28401 1.59332,0 2.8856,-1.29187 2.8856,-2.8856 0,-1.59377 -1.29228,-2.8856 -2.8856,-2.8856 -0.27455,0 -0.53559,0.0513 -0.78714,0.12294 -0.39272,-2.05225 -2.16886,-3.60852 -4.31986,-3.67103 2e-5,-0.007 0.002,-0.0136 0.002,-0.0205 0,-2.50447 -2.03121,-4.5333 -4.53501,-4.5333 -0.0897,0 -0.17791,0.007 -0.26636,0.0119 -0.31041,-2.20225 -2.19825,-3.89812 -4.48549,-3.89812 z m 0,0.8247 c 2.04858,0 3.7103,1.6612 3.7103,3.7103 0,0.4099 -0.0821,0.79755 -0.20489,1.1662 -0.63718,-0.22187 -1.3193,-0.34832 -2.03187,-0.34832 -1.62963,0 -3.10798,0.63415 -4.2123,1.66477 -0.59695,-0.65848 -0.96983,-1.52364 -0.96983,-2.48265 0,-2.0491 1.66005,-3.7103 3.70859,-3.7103 z m -5.35118,2.46557 c 0.34096,0 0.6581,0.10289 0.92375,0.27661 -0.068,0.31229 -0.10587,0.63545 -0.10587,0.96812 0,0.4462 0.084,0.86858 0.20489,1.27547 -0.15525,-0.0161 -0.31348,-0.0256 -0.47296,-0.0256 -0.62814,0 -1.22506,0.12931 -1.76893,0.36028 -0.2891,-0.3034 -0.46955,-0.71212 -0.46955,-1.16449 0,-0.93345 0.75547,-1.69038 1.68867,-1.69038 z m 10.10303,1.4189 c 2.04858,0 3.7103,1.66119 3.7103,3.7103 0,0.0251 -0.006,0.0484 -0.007,0.0734 -0.49302,0.0763 -0.9509,0.2427 -1.37791,0.46443 -0.5831,-1.25819 -1.5688,-2.29048 -2.80194,-2.91975 0.14515,-0.41265 0.23001,-0.85212 0.24929,-1.30962 0.0762,-0.005 0.14963,-0.0188 0.22708,-0.0188 z m -3.27831,1.46841 c 2.95901,0 5.36141,2.39818 5.36141,5.35799 0,2.95982 -2.4024,5.35971 -5.36141,5.35971 -2.95902,0 -5.35629,-2.39989 -5.35629,-5.35971 0,-2.95981 2.39727,-5.35799 5.35629,-5.35799 z m -6.2749,0.43198 c 0.70214,0 1.35231,0.2057 1.91235,0.54468 -1.12366,1.11961 -1.81845,2.6694 -1.81845,4.38133 0,0.24945 0.019,0.49424 0.0478,0.73592 -0.1406,-0.0211 -0.28041,-0.0427 -0.42686,-0.0427 -0.0526,0 -0.1018,0.0126 -0.15367,0.0154 -0.33972,-1.57036 -1.48214,-2.84007 -2.98634,-3.34149 0.55664,-1.34559 1.87871,-2.29312 3.42516,-2.29312 z m 13.95332,2.64827 c 2.04858,0 3.71201,1.66119 3.71201,3.7103 0,2.0491 -1.66343,3.70859 -3.71201,3.70859 -1.13504,0 -2.13868,-0.51998 -2.81901,-1.32327 0.82791,-1.05166 1.32499,-2.37578 1.32499,-3.81788 0,-0.63109 -0.094,-1.23979 -0.26978,-1.81331 0.52688,-0.28748 1.12132,-0.46443 1.7638,-0.46443 z m -18.81274,0.23392 c 1.77373,0 3.25346,1.24705 3.6198,2.91121 -1.12196,0.39529 -1.93113,1.45388 -1.93113,2.71144 0,0.43801 0.10547,0.84899 0.28002,1.22083 -0.57189,0.35997 -1.24334,0.57712 -1.96869,0.57712 -2.04854,0 -3.7086,-1.66119 -3.7086,-3.7103 0,-2.04912 1.66006,-3.7103 3.7086,-3.7103 z m 24.05293,3.321 c 1.13811,0 2.0609,0.92249 2.0609,2.0609 0,1.13838 -0.92279,2.0609 -2.0609,2.0609 -0.77164,0 -1.43634,-0.42893 -1.78942,-1.05692 0.66722,-0.78948 1.08594,-1.79505 1.08594,-2.9095 0,-0.008 -0.002,-0.0159 -0.002,-0.0239 0.22064,-0.0807 0.45659,-0.13148 0.70517,-0.13148 z m -19.47866,0.24075 c 1.1381,0 2.0609,0.9225 2.0609,2.0609 0,1.13839 -0.9228,2.0609 -2.0609,2.0609 -1.13807,0 -2.0609,-0.92251 -2.0609,-2.0609 0,-1.1384 0.92283,-2.0609 2.0609,-2.0609 z"
       id="path4217"
       inkscape:connector-curvature="0" />
  </g>
</svg>
