<?xml version="1.0" encoding="UTF-8" standalone="no"?>
<!-- Created with Inkscape (http://www.inkscape.org/) -->

<svg
   xmlns:dc="http://purl.org/dc/elements/1.1/"
   xmlns:cc="http://creativecommons.org/ns#"
   xmlns:rdf="http://www.w3.org/1999/02/22-rdf-syntax-ns#"
   xmlns:svg="http://www.w3.org/2000/svg"
   xmlns="http://www.w3.org/2000/svg"
   xmlns:sodipodi="http://sodipodi.sourceforge.net/DTD/sodipodi-0.dtd"
   xmlns:inkscape="http://www.inkscape.org/namespaces/inkscape"
   width="48"
   height="48"
   id="svg2"
   version="1.1"
   inkscape:version="0.48.4 r9939"
   sodipodi:docname="gtk-recordmydesktop.svg">
  <defs
     id="defs4" />
  <sodipodi:namedview
     id="base"
     pagecolor="#ffffff"
     bordercolor="#666666"
     borderopacity="1.0"
     inkscape:pageopacity="0.0"
     inkscape:pageshadow="2"
     inkscape:zoom="11.313709"
     inkscape:cx="25.138697"
     inkscape:cy="20.848952"
     inkscape:document-units="px"
     inkscape:current-layer="g3913"
     showgrid="true"
     inkscape:window-width="1440"
     inkscape:window-height="836"
     inkscape:window-x="0"
     inkscape:window-y="26"
     inkscape:window-maximized="1"
     showguides="true">
    <sodipodi:guide
       position="4,44.000017"
       orientation="40,0"
       id="guide4083" />
    <sodipodi:guide
       position="4,4.0000174"
       orientation="0,40"
       id="guide4085" />
    <sodipodi:guide
       position="44,4.0000174"
       orientation="-40,0"
       id="guide4087" />
    <sodipodi:guide
       position="44,44.000017"
       orientation="0,-40"
       id="guide4089" />
    <sodipodi:guide
       position="9,39.000017"
       orientation="30,0"
       id="guide4115" />
    <sodipodi:guide
       position="9,9.0000174"
       orientation="0,30"
       id="guide4117" />
    <sodipodi:guide
       position="39,9.0000174"
       orientation="-30,0"
       id="guide4119" />
    <sodipodi:guide
       position="39,39.000017"
       orientation="0,-30"
       id="guide4121" />
    <sodipodi:guide
       position="14,34.000017"
       orientation="20,0"
       id="guide4125" />
    <sodipodi:guide
       position="14,14.000017"
       orientation="0,20"
       id="guide4127" />
    <sodipodi:guide
       position="34,14.000017"
       orientation="-20,0"
       id="guide4129" />
    <sodipodi:guide
       position="34,34.000017"
       orientation="0,-20"
       id="guide4131" />
    <inkscape:grid
       type="xygrid"
       id="grid3958" />
  </sodipodi:namedview>
  <metadata
     id="metadata7">
    <rdf:RDF>
      <cc:Work
         rdf:about="">
        <dc:format>image/svg+xml</dc:format>
        <dc:type
           rdf:resource="http://purl.org/dc/dcmitype/StillImage" />
        <dc:title />
      </cc:Work>
    </rdf:RDF>
  </metadata>
  <g
     inkscape:label="Capa 1"
     inkscape:groupmode="layer"
     id="layer1"
     transform="translate(0,-1004.3622)">
    <g
       transform="matrix(1.6786866,0,0,1.6786866,58.840454,346.76352)"
       id="g3058" />
    <g
       id="g3913"
       transform="translate(-1.9e-6,1004.3622)">
      <path
         id="rect4197"
         d="m 4.0000019,4.0000019 0,40.0000001 40.0000001,0 0,-40.0000001 -40.0000001,0 z m 3,3 3.0000001,0 0,3.0000001 -3.0000001,0 0,-3.0000001 z m 31.0000001,0 3,0 0,3.0000001 -3,0 0,-3.0000001 z m -31.0000001,7.5000001 3.0000001,0 0,3 -3.0000001,0 0,-3 z m 31.0000001,0 3,0 0,3 -3,0 0,-3 z m -31.0000001,8 3.0000001,0 0,3 -3.0000001,0 0,-3 z m 31.0000001,0 3,0 0,3 -3,0 0,-3 z m -31.0000001,8 3.0000001,0 0,3 -3.0000001,0 0,-3 z m 31.0000001,0 3,0 0,3 -3,0 0,-3 z m -31.0000001,7.5 3.0000001,0 0,3 -3.0000001,0 0,-3 z m 31.0000001,0 3,0 0,3 -3,0 0,-3 z"
         style="fill:#2c3e50;fill-opacity:1;stroke:none"
         inkscape:connector-curvature="0" />
      <path
         style="fill:#3498db;fill-opacity:1;stroke:none"
         d="M 13 7 L 13 15 L 35 15 L 35 7 L 28.9375 7 L 28.9375 9.15625 L 28.9375 10.03125 L 28.9375 10.0625 L 24.4375 10.0625 L 24.4375 11.1875 L 26.03125 11.1875 L 26.03125 11.625 L 21.96875 11.625 L 21.96875 11.1875 L 23.5625 11.1875 L 23.5625 10.0625 L 19.0625 10.0625 L 19.0625 10.03125 L 19.0625 9.15625 L 19.0625 7 L 13 7 z M 19.5 7 L 19.5 9.15625 L 28.5 9.15625 L 28.5 7 L 19.5 7 z "
         id="rect4323"
         transform="translate(1.9e-6,0)" />
      <path
         style="fill:#3498db;fill-opacity:1;stroke:none"
         d="M 13 33 L 13 41 L 19.0625 41 L 19.0625 35.46875 L 28.9375 35.46875 L 28.9375 41 L 35 41 L 35 33 L 13 33 z M 19.5 36.15625 L 19.5 41 L 28.5 41 L 28.5 36.15625 L 19.5 36.15625 z "
         transform="translate(1.9e-6,0)"
         id="rect4325" />
      <rect
         style="fill:#3498db;fill-opacity:1;stroke:none"
         id="rect4186"
         width="21.99999"
         height="14"
         x="13.000008"
         y="17.000002" />
      <rect
         style="fill:#e74c3c;fill-opacity:1;stroke:none"
         id="rect4069"
         width="4.232233"
         height="4.232233"
         x="21.883886"
         y="20.93371"
         ry="2.1161165" />
      <path
         style="fill:#e74c3c;fill-opacity:1;stroke:none"
         d="m 24.000002,37.815665 c -1.172329,0 -2.125,0.952672 -2.125,2.125 0,0.397621 0.123265,0.745368 0.3125,1.0625 l 3.625,0 c 0.189235,-0.317132 0.3125,-0.664879 0.3125,-1.0625 0,-1.172328 -0.952671,-2.125 -2.125,-2.125 z"
         id="path4110"
         inkscape:connector-curvature="0" />
      <path
         style="fill:#e74c3c;fill-opacity:1;stroke:none"
         d="m 22.250002,7 c 0.379537,0.5627134 1.017295,0.9375 1.75,0.9375 0.732705,0 1.370463,-0.3747866 1.75,-0.9375 l -3.5,0 z"
         id="rect4069-5" />
    </g>
    <g
       transform="matrix(0.79724129,0,0,0.79724129,48.990184,705.78379)"
       id="layer1-3"
       inkscape:label="Capa 1">
      <path
         style="fill:#2c3e50;fill-opacity:1;stroke:none"
         d="m 19.0625,19.5 0,6.53125 0,0.875 0,0.03125 4.5,0 0,1.125 -1.59375,0 0,0.4375 4.0625,0 0,-0.4375 -1.59375,0 0,-1.125 4.5,0 0,-0.03125 0,-0.875 0,-6.53125 -9.875,0 z m 0.4375,0.6875 9,0 0,5.84375 -9,0 0,-5.84375 z"
         id="rect4118"
         transform="matrix(1.2543254,0,0,1.2543254,-61.449631,374.51448)"
         inkscape:connector-curvature="0" />
    </g>
    <g
       id="g3991"
       transform="translate(-35.062502,996.7997)" />
  </g>
</svg>
