<?xml version="1.0" encoding="UTF-8" standalone="no"?>
<!-- Created with Inkscape (http://www.inkscape.org/) -->

<svg
   xmlns:dc="http://purl.org/dc/elements/1.1/"
   xmlns:cc="http://creativecommons.org/ns#"
   xmlns:rdf="http://www.w3.org/1999/02/22-rdf-syntax-ns#"
   xmlns:svg="http://www.w3.org/2000/svg"
   xmlns="http://www.w3.org/2000/svg"
   xmlns:sodipodi="http://sodipodi.sourceforge.net/DTD/sodipodi-0.dtd"
   xmlns:inkscape="http://www.inkscape.org/namespaces/inkscape"
   width="48"
   height="48"
   id="svg2"
   version="1.1"
   inkscape:version="0.48.4 r9939"
   sodipodi:docname="guake-prefs.svg">
  <defs
     id="defs4" />
  <sodipodi:namedview
     id="base"
     pagecolor="#ffffff"
     bordercolor="#666666"
     borderopacity="1.0"
     inkscape:pageopacity="0.0"
     inkscape:pageshadow="2"
     inkscape:zoom="8"
     inkscape:cx="15.652338"
     inkscape:cy="24.5"
     inkscape:document-units="px"
     inkscape:current-layer="layer1"
     showgrid="false"
     fit-margin-top="0"
     fit-margin-left="0"
     fit-margin-right="0"
     fit-margin-bottom="0"
     inkscape:window-width="1440"
     inkscape:window-height="836"
     inkscape:window-x="0"
     inkscape:window-y="26"
     inkscape:window-maximized="1"
     showguides="true">
    <sodipodi:guide
       position="8.9999928,39"
       orientation="30,0"
       id="guide3276" />
    <sodipodi:guide
       position="8.9999928,9"
       orientation="0,30"
       id="guide3278" />
    <sodipodi:guide
       position="38.999993,9"
       orientation="-30,0"
       id="guide3280" />
    <sodipodi:guide
       position="10,35"
       orientation="0,1"
       id="guide3282" />
    <sodipodi:guide
       position="8.9999928,39"
       orientation="11,0"
       id="guide3292" />
    <sodipodi:guide
       position="8.9999928,24"
       orientation="0,1"
       id="guide3294" />
    <sodipodi:guide
       position="21.999993,28"
       orientation="-11,0"
       id="guide3296" />
  </sodipodi:namedview>
  <metadata
     id="metadata7">
    <rdf:RDF>
      <cc:Work
         rdf:about="">
        <dc:format>image/svg+xml</dc:format>
        <dc:type
           rdf:resource="http://purl.org/dc/dcmitype/StillImage" />
        <dc:title />
      </cc:Work>
    </rdf:RDF>
  </metadata>
  <g
     inkscape:label="Capa 1"
     inkscape:groupmode="layer"
     id="layer1"
     transform="translate(-180.23661,-689.8125)">
    <rect
       y="693.8125"
       x="183.2366"
       height="40"
       width="42"
       id="rect813"
       style="fill:#27ae6f;fill-opacity:1;stroke:none" />
    <ellipse
       style="fill:none;stroke:none"
       id="path3266"
       cx="691.8125"
       cy="-204.2366"
       rx="2"
       ry="2.0000615"
       transform="matrix(0,1,-1,0,0,0)"
       d="m 693.8125,-204.2366 c 0,1.1046 -0.89543,2.00006 -2,2.00006 -1.10457,0 -2,-0.89546 -2,-2.00006 0,-1.10461 0.89543,-2.00006 2,-2.00006 1.10457,0 2,0.89545 2,2.00006 z" />
    <ellipse
       transform="scale(-1,-1)"
       ry="1.0000308"
       rx="1"
       cy="-713.8125"
       cx="-227.2366"
       id="ellipse3270"
       style="fill:none;stroke:none"
       d="m -226.2366,-713.8125 c 0,0.5523 -0.44772,1.00003 -1,1.00003 -0.55229,0 -1,-0.44773 -1,-1.00003 0,-0.5523 0.44771,-1.00003 1,-1.00003 0.55228,0 1,0.44773 1,1.00003 z" />
    <ellipse
       transform="scale(-1,-1)"
       style="fill:none;stroke:none"
       id="ellipse3272"
       cx="-181.2366"
       cy="-713.8125"
       rx="1"
       ry="1.0000308"
       d="m -180.2366,-713.8125 c 0,0.5523 -0.44772,1.00003 -1,1.00003 -0.55229,0 -1,-0.44773 -1,-1.00003 0,-0.5523 0.44771,-1.00003 1,-1.00003 0.55228,0 1,0.44773 1,1.00003 z" />
    <rect
       y="698.8125"
       x="189.2366"
       height="30"
       width="30"
       id="rect3286"
       style="fill:none;fill-opacity:1;fill-rule:evenodd;stroke:none" />
    <rect
       style="fill:none;fill-opacity:1;fill-rule:evenodd;stroke:none"
       id="rect3284"
       width="13.000007"
       height="11"
       x="189.2366"
       y="698.8125" />
    <g
       style="font-size:7.54072046px;font-style:normal;font-variant:normal;font-weight:800;font-stretch:normal;text-align:start;line-height:125%;letter-spacing:0px;word-spacing:0px;writing-mode:lr-tb;text-anchor:start;fill:#ffffff;fill-opacity:1;stroke:none;font-family:Segoe WP Black;-inkscape-font-specification:'Segoe WP Black, Ultra-Bold'"
       id="text854"
       transform="matrix(1.9803549,0,0,1.6334143,-181.25324,-450.55589)">
      <path
         d="m 189.11133,712.04428 0,0.79899 -0.53757,0 0,-0.7769 q -0.74744,-0.004 -1.39179,-0.33874 l 0,-1.01991 q 0.21355,0.17305 0.63698,0.32033 0.42343,0.14728 0.75481,0.16937 l 0,-1.34024 q -0.86159,-0.32033 -1.17824,-0.69222 -0.31297,-0.37556 -0.31297,-0.91313 0,-0.57807 0.40871,-0.98309 0.4087,-0.4087 1.0825,-0.47498 l 0,-0.68485 0.53757,0 0,0.67012 q 0.7769,0.0368 1.15983,0.25038 l 0,0.99414 q -0.51548,-0.31297 -1.15983,-0.38293 l 0,1.39547 q 0.80636,0.29088 1.15615,0.66644 0.34979,0.37189 0.34979,0.90209 0,0.61121 -0.39029,0.98678 -0.3903,0.37188 -1.11565,0.45288 z m -0.53757,-3.22174 0,-1.16719 q -0.5118,0.092 -0.5118,0.53389 0,0.37924 0.5118,0.6333 z m 0.53757,1.24451 0,1.11565 q 0.52653,-0.081 0.52653,-0.52653 0,-0.36083 -0.52653,-0.58912 z"
         style="font-weight:bold;fill:#ffffff;font-family:Segoe WP;-inkscape-font-specification:Segoe WP Bold"
         id="path815"
         inkscape:connector-curvature="0" />
    </g>
    <rect
       style="fill:#ffffff;fill-opacity:1;stroke:none"
       id="rect868"
       width="4"
       height="11"
       x="198.2366"
       y="702.8125" />
    <rect
       y="698.8125"
       x="196.2366"
       height="11"
       width="2"
       id="rect3288"
       style="fill:none;fill-opacity:1;fill-rule:evenodd;stroke:none" />
    <rect
       y="693.8125"
       x="182.2366"
       height="4"
       width="44.000008"
       id="rect813-3"
       style="fill:#2c3e5f;fill-opacity:1;stroke:none" />
    <path
       inkscape:connector-curvature="0"
       id="path4151"
       d="m 205.78653,720.50915 c -0.37196,0 -0.74413,0.0292 -1.11007,0.10779 l -0.58667,1.41966 0,0.0225 c -0.21288,0.0876 -0.42131,0.17516 -0.61924,0.28856 -0.19672,0.11228 -0.38106,0.24589 -0.55833,0.38759 l -0.018,0 -1.52849,-0.20435 c -0.48705,0.56275 -0.86948,1.21106 -1.11488,1.91034 l 0.94545,1.22362 0.0157,0 c -0.0653,0.44755 -0.0633,0.907 0.002,1.35477 l -0.0202,0 -0.94605,1.22498 c 0.12036,0.34964 0.27241,0.68828 0.45826,1.0112 0.18594,0.3191 0.40466,0.62046 0.64878,0.89936 l 1.53693,-0.20435 0.0202,0 c 0.35705,0.2816 0.75385,0.51222 1.17699,0.68131 l 0,0.0225 0.5903,1.42596 c 0.73103,0.13923 1.4865,0.13473 2.21767,0 l 0.5879,-1.42079 0,-0.0225 c 0.21153,-0.0876 0.41882,-0.17516 0.61561,-0.28766 0.19783,-0.11228 0.3837,-0.24769 0.56196,-0.38916 l 0.018,0 1.5267,0.2021 c 0.48736,-0.56073 0.86929,-1.21195 1.11487,-1.91191 l -0.94423,-1.21958 -0.0157,0 c 0.0656,-0.44935 0.0635,-0.90678 -0.002,-1.35432 l 0.0202,0 0.94484,-1.22386 c -0.12014,-0.34986 -0.27118,-0.68895 -0.45705,-1.01007 -0.18594,-0.3209 -0.40574,-0.62158 -0.64999,-0.90049 l -1.53572,0.20435 -0.0202,0 c -0.35692,-0.28115 -0.75403,-0.51244 -1.17699,-0.68131 l -5.9e-4,-0.0225 -0.58909,-1.42438 c -0.3659,-0.0786 -0.73748,-0.1033 -1.10944,-0.1033 z m -6e-4,2.4486 c 0.88911,0 1.77318,0.36446 2.40219,0.99143 0.62902,0.62675 0.99548,1.50613 0.99548,2.39112 0,0.88589 -0.36646,1.76639 -0.99548,2.39179 -0.62901,0.62765 -1.51308,0.99099 -2.40219,0.99099 -0.8891,0 -1.77216,-0.36379 -2.40039,-0.99144 -0.6282,-0.62562 -0.99365,-1.50567 -0.99365,-2.39134 0,-0.88499 0.36545,-1.76437 0.99365,-2.39112 0.62823,-0.62697 1.51129,-0.99143 2.40039,-0.99143 z"
       style="fill:#ffffff;fill-opacity:1;fill-rule:evenodd;stroke:none" />
    <path
       style="fill:#ffffff;fill-opacity:1;fill-rule:evenodd;stroke:none"
       d="m 215.44498,708.68325 c -0.53135,0 -1.06302,0.0483 -1.58584,0.15315 l -0.83813,2.0267 0,0.0283 c -0.30398,0.11789 -0.60191,0.25083 -0.88465,0.41265 -0.28113,0.16146 -0.54438,0.35117 -0.79766,0.5532 l -0.0267,-0.0135 -2.18364,-0.29096 c -0.69582,0.80078 -1.24216,1.72848 -1.59272,2.72813 l 1.35067,1.74679 0.0224,0.0112 c -0.0934,0.64037 -0.0905,1.29394 0.005,1.93633 l -0.0276,0.0135 -1.35123,1.75105 c 0.17179,0.49974 0.38919,0.98371 0.65466,1.44091 0.2655,0.45878 0.57813,0.88904 0.92688,1.28741 l 2.1957,-0.2926 0.0274,-0.0225 c 0.51009,0.40286 1.07694,0.73184 1.68144,0.97234 l 0,0.0247 0.84331,2.03698 c 1.04438,0.19762 2.12367,0.19088 3.16823,0 l 0.83985,-2.02845 0,-0.027 c 0.30208,-0.11677 0.59837,-0.24993 0.87949,-0.41027 0.28277,-0.16393 0.54818,-0.35413 0.80283,-0.55691 l 0.0267,0.0225 2.18106,0.2908 c 0.69625,-0.80325 1.24189,-1.73001 1.59274,-2.7304 l -1.34895,-1.74371 -0.0225,-0.0135 c 0.0936,-0.64007 0.0909,-1.29538 -0.004,-1.93544 l 0.0274,-0.0135 1.34981,-1.74748 c -0.17179,-0.49989 -0.38743,-0.98474 -0.65293,-1.44192 -0.26552,-0.45878 -0.57966,-0.88798 -0.9286,-1.28619 l -2.19398,0.29163 -0.0276,0.0157 c -0.50988,-0.4023 -1.07721,-0.73215 -1.68146,-0.97174 l -7.9e-4,-0.0243 -0.84158,-2.03436 c -0.52274,-0.0988 -1.05362,-0.14709 -1.58497,-0.14551 z m -7.9e-4,3.4971 c 1.27018,0 2.53318,0.52057 3.43182,1.41563 0.89862,0.89471 1.42216,2.15034 1.42216,3.41531 0,1.26497 -0.52354,2.5217 -1.42216,3.41641 -0.89864,0.89497 -2.16164,1.41482 -3.43182,1.4146 -1.27018,0 -2.53173,-0.52053 -3.42923,-1.41534 -0.89748,-0.89473 -1.41958,-2.15086 -1.41958,-3.41567 0,-1.26479 0.5221,-2.5206 1.41958,-3.41531 0.8975,-0.89506 2.15905,-1.41554 3.42923,-1.41563 z"
       id="path4112"
       inkscape:connector-curvature="0" />
  </g>
</svg>
