<?xml version="1.0" encoding="UTF-8" standalone="no"?>
<!-- Created with Inkscape (http://www.inkscape.org/) -->

<svg
   xmlns:dc="http://purl.org/dc/elements/1.1/"
   xmlns:cc="http://creativecommons.org/ns#"
   xmlns:rdf="http://www.w3.org/1999/02/22-rdf-syntax-ns#"
   xmlns:svg="http://www.w3.org/2000/svg"
   xmlns="http://www.w3.org/2000/svg"
   xmlns:sodipodi="http://sodipodi.sourceforge.net/DTD/sodipodi-0.dtd"
   xmlns:inkscape="http://www.inkscape.org/namespaces/inkscape"
   width="48"
   height="48"
   id="svg2"
   version="1.1"
   inkscape:version="0.49 r12742"
   sodipodi:docname="inkscape.svg">
  <defs
     id="defs4" />
  <sodipodi:namedview
     id="base"
     pagecolor="#ffffff"
     bordercolor="#666666"
     borderopacity="1.0"
     inkscape:pageopacity="0.0"
     inkscape:pageshadow="2"
     inkscape:zoom="8.1825096"
     inkscape:cx="10.475777"
     inkscape:cy="25.824471"
     inkscape:document-units="px"
     inkscape:current-layer="layer1"
     showgrid="false"
     fit-margin-top="0"
     fit-margin-left="0"
     fit-margin-right="0"
     fit-margin-bottom="0"
     inkscape:window-width="1366"
     inkscape:window-height="718"
     inkscape:window-x="-2"
     inkscape:window-y="23"
     inkscape:window-maximized="1">
    <sodipodi:guide
       position="1.9999928,43.999207"
       orientation="40,0"
       id="guide3282" />
    <sodipodi:guide
       position="1.9999928,3.9992065"
       orientation="0,44"
       id="guide3284" />
    <sodipodi:guide
       position="45.999993,3.9992065"
       orientation="-40,0"
       id="guide3286" />
    <sodipodi:guide
       position="45.999993,43.999207"
       orientation="0,-44"
       id="guide3288" />
    <sodipodi:guide
       position="8.9999928,39"
       orientation="30,0"
       id="guide3292" />
    <sodipodi:guide
       position="8.9999928,9"
       orientation="0,30"
       id="guide3294" />
    <sodipodi:guide
       position="38.999993,9"
       orientation="-30,0"
       id="guide3296" />
    <sodipodi:guide
       position="38.999993,39"
       orientation="0,-30"
       id="guide3298" />
    <sodipodi:guide
       position="34.999993,43.999207"
       orientation="11,0"
       id="guide3932" />
    <sodipodi:guide
       position="34.999993,32.999207"
       orientation="0,11"
       id="guide3934" />
    <sodipodi:guide
       position="45.999993,32.999207"
       orientation="-11,0"
       id="guide3936" />
    <sodipodi:guide
       position="45.999993,43.999207"
       orientation="0,-11"
       id="guide3938" />
    <sodipodi:guide
       position="14.999993,33"
       orientation="18,0"
       id="guide3958" />
    <sodipodi:guide
       position="14.999993,15"
       orientation="0,18"
       id="guide3960" />
    <sodipodi:guide
       position="32.999993,15"
       orientation="-18,0"
       id="guide3962" />
    <sodipodi:guide
       position="32.999993,33"
       orientation="0,-18"
       id="guide3964" />
  </sodipodi:namedview>
  <metadata
     id="metadata7">
    <rdf:RDF>
      <cc:Work
         rdf:about="">
        <dc:format>image/svg+xml</dc:format>
        <dc:type
           rdf:resource="http://purl.org/dc/dcmitype/StillImage" />
        <dc:title />
      </cc:Work>
    </rdf:RDF>
  </metadata>
  <g
     inkscape:label="Capa 1"
     inkscape:groupmode="layer"
     id="layer1"
     transform="translate(-180.23661,-689.8125)">
    <g
       id="g4085">
      <path
         id="rect3278"
         transform="translate(180.23661,689.8125)"
         d="M 2 4 L 2 44 L 46 44 L 46 15 L 35 4 L 2 4 z "
         style="fill:#006cff;fill-opacity:1;fill-rule:evenodd;stroke:none" />
      <path
         id="rect3300"
         transform="translate(180.23661,689.8125)"
         d="M 5.8496094 4 L 5.8496094 5.8496094 L 2 5.8496094 L 2 6.1503906 L 5.8496094 6.1503906 L 5.8496094 11.849609 L 2 11.849609 L 2 12.150391 L 5.8496094 12.150391 L 5.8496094 17.849609 L 2 17.849609 L 2 18.150391 L 5.8496094 18.150391 L 5.8496094 23.849609 L 2 23.849609 L 2 24.150391 L 5.8496094 24.150391 L 5.8496094 29.849609 L 2 29.849609 L 2 30.150391 L 5.8496094 30.150391 L 5.8496094 35.849609 L 2 35.849609 L 2 36.150391 L 5.8496094 36.150391 L 5.8496094 41.849609 L 2 41.849609 L 2 42.150391 L 5.8496094 42.150391 L 5.8496094 44 L 6.1503906 44 L 6.1503906 42.150391 L 11.849609 42.150391 L 11.849609 44 L 12.150391 44 L 12.150391 42.150391 L 17.849609 42.150391 L 17.849609 44 L 18.150391 44 L 18.150391 42.150391 L 23.849609 42.150391 L 23.849609 44 L 24.150391 44 L 24.150391 42.150391 L 29.849609 42.150391 L 29.849609 44 L 30.150391 44 L 30.150391 42.150391 L 35.849609 42.150391 L 35.849609 44 L 36.150391 44 L 36.150391 42.150391 L 41.849609 42.150391 L 41.849609 44 L 42.150391 44 L 42.150391 42.150391 L 46 42.150391 L 46 41.849609 L 42.150391 41.849609 L 42.150391 36.150391 L 46 36.150391 L 46 35.849609 L 42.150391 35.849609 L 42.150391 30.150391 L 46 30.150391 L 46 29.849609 L 42.150391 29.849609 L 42.150391 24.150391 L 46 24.150391 L 46 23.849609 L 42.150391 23.849609 L 42.150391 18.150391 L 46 18.150391 L 46 17.849609 L 42.150391 17.849609 L 42.150391 12.150391 L 43.150391 12.150391 L 42.849609 11.849609 L 42.150391 11.849609 L 42.150391 11.150391 L 41.849609 10.849609 L 41.849609 11.849609 L 36.150391 11.849609 L 36.150391 6.1503906 L 37.150391 6.1503906 L 36.849609 5.8496094 L 36.150391 5.8496094 L 36.150391 5.1503906 L 35.849609 4.8496094 L 35.849609 5.8496094 L 30.150391 5.8496094 L 30.150391 4 L 29.849609 4 L 29.849609 5.8496094 L 24.150391 5.8496094 L 24.150391 4 L 23.849609 4 L 23.849609 5.8496094 L 18.150391 5.8496094 L 18.150391 4 L 17.849609 4 L 17.849609 5.8496094 L 12.150391 5.8496094 L 12.150391 4 L 11.849609 4 L 11.849609 5.8496094 L 6.1503906 5.8496094 L 6.1503906 4 L 5.8496094 4 z M 6.1503906 6.1503906 L 11.849609 6.1503906 L 11.849609 11.849609 L 6.1503906 11.849609 L 6.1503906 6.1503906 z M 12.150391 6.1503906 L 17.849609 6.1503906 L 17.849609 11.849609 L 12.150391 11.849609 L 12.150391 6.1503906 z M 18.150391 6.1503906 L 23.849609 6.1503906 L 23.849609 11.849609 L 18.150391 11.849609 L 18.150391 6.1503906 z M 24.150391 6.1503906 L 29.849609 6.1503906 L 29.849609 11.849609 L 24.150391 11.849609 L 24.150391 6.1503906 z M 30.150391 6.1503906 L 35.849609 6.1503906 L 35.849609 11.849609 L 30.150391 11.849609 L 30.150391 6.1503906 z M 6.1503906 12.150391 L 11.849609 12.150391 L 11.849609 17.849609 L 6.1503906 17.849609 L 6.1503906 12.150391 z M 12.150391 12.150391 L 17.849609 12.150391 L 17.849609 17.849609 L 12.150391 17.849609 L 12.150391 12.150391 z M 18.150391 12.150391 L 23.849609 12.150391 L 23.849609 17.849609 L 18.150391 17.849609 L 18.150391 12.150391 z M 24.150391 12.150391 L 29.849609 12.150391 L 29.849609 17.849609 L 24.150391 17.849609 L 24.150391 12.150391 z M 30.150391 12.150391 L 35.849609 12.150391 L 35.849609 17.849609 L 30.150391 17.849609 L 30.150391 12.150391 z M 36.150391 12.150391 L 41.849609 12.150391 L 41.849609 17.849609 L 36.150391 17.849609 L 36.150391 12.150391 z M 6.1503906 18.150391 L 11.849609 18.150391 L 11.849609 23.849609 L 6.1503906 23.849609 L 6.1503906 18.150391 z M 12.150391 18.150391 L 17.849609 18.150391 L 17.849609 23.849609 L 12.150391 23.849609 L 12.150391 18.150391 z M 18.150391 18.150391 L 23.849609 18.150391 L 23.849609 23.849609 L 18.150391 23.849609 L 18.150391 18.150391 z M 24.150391 18.150391 L 29.849609 18.150391 L 29.849609 23.849609 L 24.150391 23.849609 L 24.150391 18.150391 z M 30.150391 18.150391 L 35.849609 18.150391 L 35.849609 23.849609 L 30.150391 23.849609 L 30.150391 18.150391 z M 36.150391 18.150391 L 41.849609 18.150391 L 41.849609 23.849609 L 36.150391 23.849609 L 36.150391 18.150391 z M 6.1503906 24.150391 L 11.849609 24.150391 L 11.849609 29.849609 L 6.1503906 29.849609 L 6.1503906 24.150391 z M 12.150391 24.150391 L 17.849609 24.150391 L 17.849609 29.849609 L 12.150391 29.849609 L 12.150391 24.150391 z M 18.150391 24.150391 L 23.849609 24.150391 L 23.849609 29.849609 L 18.150391 29.849609 L 18.150391 24.150391 z M 24.150391 24.150391 L 29.849609 24.150391 L 29.849609 29.849609 L 24.150391 29.849609 L 24.150391 24.150391 z M 30.150391 24.150391 L 35.849609 24.150391 L 35.849609 29.849609 L 30.150391 29.849609 L 30.150391 24.150391 z M 36.150391 24.150391 L 41.849609 24.150391 L 41.849609 29.849609 L 36.150391 29.849609 L 36.150391 24.150391 z M 6.1503906 30.150391 L 11.849609 30.150391 L 11.849609 35.849609 L 6.1503906 35.849609 L 6.1503906 30.150391 z M 12.150391 30.150391 L 17.849609 30.150391 L 17.849609 35.849609 L 12.150391 35.849609 L 12.150391 30.150391 z M 18.150391 30.150391 L 23.849609 30.150391 L 23.849609 35.849609 L 18.150391 35.849609 L 18.150391 30.150391 z M 24.150391 30.150391 L 29.849609 30.150391 L 29.849609 35.849609 L 24.150391 35.849609 L 24.150391 30.150391 z M 30.150391 30.150391 L 35.849609 30.150391 L 35.849609 35.849609 L 30.150391 35.849609 L 30.150391 30.150391 z M 36.150391 30.150391 L 41.849609 30.150391 L 41.849609 35.849609 L 36.150391 35.849609 L 36.150391 30.150391 z M 6.1503906 36.150391 L 11.849609 36.150391 L 11.849609 41.849609 L 6.1503906 41.849609 L 6.1503906 36.150391 z M 12.150391 36.150391 L 17.849609 36.150391 L 17.849609 41.849609 L 12.150391 41.849609 L 12.150391 36.150391 z M 18.150391 36.150391 L 23.849609 36.150391 L 23.849609 41.849609 L 18.150391 41.849609 L 18.150391 36.150391 z M 24.150391 36.150391 L 29.849609 36.150391 L 29.849609 41.849609 L 24.150391 41.849609 L 24.150391 36.150391 z M 30.150391 36.150391 L 35.849609 36.150391 L 35.849609 41.849609 L 30.150391 41.849609 L 30.150391 36.150391 z M 36.150391 36.150391 L 41.849609 36.150391 L 41.849609 41.849609 L 36.150391 41.849609 L 36.150391 36.150391 z "
         style="fill:#2e86ff;fill-opacity:1;fill-rule:evenodd;stroke:none" />
      <path
         id="rect3334"
         transform="translate(180.23661,689.8125)"
         d="M 8 4 L 8 8 L 4 8 L 4 9 L 8 9 L 8 39 L 4 39 L 4 40 L 8 40 L 8 44 L 9 44 L 9 40 L 39 40 L 39 44 L 40 44 L 40 40 L 44 40 L 44 39 L 40 39 L 40 9 L 39 8 L 9 8 L 9 4 L 8 4 z M 9 9 L 39 9 L 39 39 L 9 39 L 9 9 z "
         style="fill:#72aeff;fill-opacity:1;fill-rule:evenodd;stroke:none" />
      <path
         transform="translate(180.23661,689.8125)"
         id="path3943"
         d="M 35 4 L 35 15 L 46 15 L 35 4 z "
         style="fill:#d4e8f4;fill-opacity:1;fill-rule:evenodd;stroke:none" />
      <path
         id="path3969"
         transform="translate(180.23661,689.8125)"
         d="M 15 15 L 15 18 L 15 27 L 21 27 L 21 33 L 30 33 L 33 33 L 33 30 L 33 21 L 27 21 L 27 15 L 18 15 L 15 15 z M 30 15 L 30 18 L 33 18 L 33 15 L 30 15 z M 15.75 15.75 L 17.25 15.75 L 17.25 17.25 L 15.75 17.25 L 15.75 15.75 z M 30.75 15.75 L 32.25 15.75 L 32.25 17.25 L 30.75 17.25 L 30.75 15.75 z M 18 17 L 25 17 L 25 21 L 21 21 L 21 25 L 17 25 L 17 18 L 18 18 L 18 17 z M 23 23 L 25 23 L 25 25 L 23 25 L 23 23 z M 27 23 L 31 23 L 31 30 L 30 30 L 30 31 L 23 31 L 23 27 L 27 27 L 27 23 z M 15 30 L 15 33 L 18 33 L 18 30 L 15 30 z M 15.75 30.75 L 17.25 30.75 L 17.25 32.25 L 15.75 32.25 L 15.75 30.75 z M 30.75 30.75 L 32.25 30.75 L 32.25 32.25 L 30.75 32.25 L 30.75 30.75 z "
         style="fill:#72aeff;fill-opacity:1;fill-rule:evenodd;stroke:none" />
    </g>
  </g>
</svg>
