<?xml version="1.0" encoding="UTF-8" standalone="no"?>
<!-- Created using Karbon, part of Calligra: http://www.calligra.org/karbon -->

<svg
   xmlns:dc="http://purl.org/dc/elements/1.1/"
   xmlns:cc="http://creativecommons.org/ns#"
   xmlns:rdf="http://www.w3.org/1999/02/22-rdf-syntax-ns#"
   xmlns:svg="http://www.w3.org/2000/svg"
   xmlns="http://www.w3.org/2000/svg"
   xmlns:sodipodi="http://sodipodi.sourceforge.net/DTD/sodipodi-0.dtd"
   xmlns:inkscape="http://www.inkscape.org/namespaces/inkscape"
   width="38.4pt"
   height="38.4pt"
   id="svg2"
   version="1.1"
   inkscape:version="0.49 r12742"
   sodipodi:docname="k3b.svg">
  <metadata
     id="metadata15">
    <rdf:RDF>
      <cc:Work
         rdf:about="">
        <dc:format>image/svg+xml</dc:format>
        <dc:type
           rdf:resource="http://purl.org/dc/dcmitype/StillImage" />
        <dc:title></dc:title>
      </cc:Work>
    </rdf:RDF>
  </metadata>
  <sodipodi:namedview
     pagecolor="#ffffff"
     bordercolor="#666666"
     borderopacity="1"
     objecttolerance="10"
     gridtolerance="10"
     guidetolerance="10"
     inkscape:pageopacity="0"
     inkscape:pageshadow="2"
     inkscape:window-width="1366"
     inkscape:window-height="718"
     id="namedview13"
     showgrid="false"
     inkscape:showpageshadow="false"
     borderlayer="true"
     inkscape:zoom="9.8333329"
     inkscape:cx="26.189146"
     inkscape:cy="27.080729"
     inkscape:window-x="-2"
     inkscape:window-y="23"
     inkscape:window-maximized="1"
     inkscape:current-layer="svg2">
    <sodipodi:guide
       position="9.5367432e-07,48.000001"
       orientation="47.999999,0"
       id="guide4073" />
    <sodipodi:guide
       position="9.5367432e-07,1.9073486e-06"
       orientation="0,47.999999"
       id="guide4075" />
    <sodipodi:guide
       position="48,1.9073486e-06"
       orientation="-47.999999,0"
       id="guide4077" />
    <sodipodi:guide
       position="48,48.000001"
       orientation="0,-47.999999"
       id="guide4079" />
    <sodipodi:guide
       position="4.000001,44.000001"
       orientation="39.999999,0"
       id="guide4081" />
    <sodipodi:guide
       position="4.000001,4.0000019"
       orientation="0,39.999999"
       id="guide4083" />
    <sodipodi:guide
       position="44,4.0000019"
       orientation="-39.999999,0"
       id="guide4085" />
    <sodipodi:guide
       position="44,44.000001"
       orientation="0,-39.999999"
       id="guide4087" />
    <sodipodi:guide
       position="20.5,44.000001"
       orientation="39.999999,0"
       id="guide4112" />
    <sodipodi:guide
       position="20.5,4.0000019"
       orientation="0,7"
       id="guide4114" />
    <sodipodi:guide
       position="27.5,4.0000019"
       orientation="-39.999999,0"
       id="guide4116" />
    <sodipodi:guide
       position="27.5,44.000001"
       orientation="0,-7"
       id="guide4118" />
    <sodipodi:guide
       position="20.5,44.000002"
       orientation="1,0"
       id="guide4134" />
    <sodipodi:guide
       position="20.5,43.000002"
       orientation="0,7"
       id="guide4136" />
    <sodipodi:guide
       position="27.5,43.000002"
       orientation="-1,0"
       id="guide4138" />
    <sodipodi:guide
       position="27.5,44.000002"
       orientation="0,-7"
       id="guide4140" />
    <sodipodi:guide
       position="20.5,5.0000019"
       orientation="1,0"
       id="guide4142" />
    <sodipodi:guide
       position="20.5,4.0000019"
       orientation="0,7"
       id="guide4144" />
    <sodipodi:guide
       position="27.5,4.0000019"
       orientation="-1,0"
       id="guide4146" />
    <sodipodi:guide
       position="27.5,5.0000019"
       orientation="0,-7"
       id="guide4148" />
    <sodipodi:guide
       position="20.5,32.29883"
       orientation="1,0"
       id="guide4154" />
    <sodipodi:guide
       position="20.5,31.29883"
       orientation="0,7"
       id="guide4156" />
    <sodipodi:guide
       position="27.5,31.29883"
       orientation="-1,0"
       id="guide4158" />
    <sodipodi:guide
       position="27.5,32.29883"
       orientation="0,-7"
       id="guide4160" />
    <sodipodi:guide
       position="20.5,16.701174"
       orientation="1,0"
       id="guide4162" />
    <sodipodi:guide
       position="20.5,15.701174"
       orientation="0,7"
       id="guide4164" />
    <sodipodi:guide
       position="27.5,15.701174"
       orientation="-1,0"
       id="guide4166" />
    <sodipodi:guide
       position="27.5,16.701174"
       orientation="0,-7"
       id="guide4168" />
    <sodipodi:guide
       position="20.5,16.701174"
       orientation="1,0"
       id="guide4178" />
    <sodipodi:guide
       position="20.5,15.701174"
       orientation="0,2"
       id="guide4180" />
    <sodipodi:guide
       position="22.5,15.701174"
       orientation="-1,0"
       id="guide4182" />
    <sodipodi:guide
       position="22.5,16.701174"
       orientation="0,-2"
       id="guide4184" />
    <sodipodi:guide
       position="25.5,16.701174"
       orientation="1,0"
       id="guide4186" />
    <sodipodi:guide
       position="25.5,15.701174"
       orientation="0,2"
       id="guide4188" />
    <sodipodi:guide
       position="27.5,15.701174"
       orientation="-1,0"
       id="guide4190" />
    <sodipodi:guide
       position="27.5,16.701174"
       orientation="0,-2"
       id="guide4192" />
  </sodipodi:namedview>
  <defs
     id="defs4" />
  <path
     style="fill:#001826;fill-opacity:1;stroke:none"
     d="M 24,4 C 12.92,4 4,12.92 4,24 4,35.08 12.92,44 24,44 35.08,44 44,35.08 44,24 44,12.92 35.08,4 24,4 Z m 0,16 c 2.216,0 4,1.784 4,4 0,2.216 -1.784,4 -4,4 -2.216,0 -4,-1.784 -4,-4 0,-2.216 1.784,-4 4,-4 z"
     id="rect4089"
     inkscape:connector-curvature="0"
     sodipodi:nodetypes="ssssssssss" />
  <path
     style="fill:#bdc3c7;fill-opacity:1;stroke:none"
     d="m 10.564971,10.564971 c -0.7926432,0.792644 -1.4810967,1.64613 -2.1033665,2.531498 l 8.1524445,5.771483 c 0.301188,-0.431371 0.636448,-0.846371 1.02199,-1.231913 0.385542,-0.385542 0.800542,-0.720802 1.231913,-1.02199 L 13.096469,8.4616045 c -0.885368,0.6222698 -1.738854,1.3107233 -2.531498,2.1033665 z"
     id="path4128"
     inkscape:connector-curvature="0" />
  <path
     style="fill:#1abc9c;fill-opacity:1;stroke:none"
     d="M 24 16 C 19.568 16 16 19.568 16 24 C 16 28.432 19.568 32 24 32 C 28.432 32 32 28.432 32 24 C 32 19.568 28.432 16 24 16 z M 24 21 C 25.662 21 27 22.338 27 24 C 27 25.662 25.662 27 24 27 C 22.338 27 21 25.662 21 24 C 21 22.338 22.338 21 24 21 z "
     id="rect4091" />
  <path
     id="path4197"
     d="m 37.435029,37.435029 c -0.792644,0.792643 -1.64613,1.481097 -2.531498,2.103367 l -5.771483,-8.152445 c 0.431368,-0.30119 0.846371,-0.636448 1.231913,-1.02199 0.385542,-0.385542 0.720799,-0.800546 1.02199,-1.231913 l 8.152445,5.771483 c -0.62227,0.885368 -1.310724,1.738854 -2.103367,2.531498 z"
     style="fill:#bdc3c7;fill-opacity:1;stroke:none"
     inkscape:connector-curvature="0" />
  <g
     id="g4229"
     transform="translate(-7.1391277e-7,0.39161251)">
    <path
       inkscape:connector-curvature="0"
       id="path4227"
       d="m 24.686282,43.270228 c 1.8132,-0.918309 3.361277,-2.325655 4.011841,-3.647133 0.290736,-0.590575 0.370522,-0.903199 0.4116,-1.612742 0.0855,-1.477062 -0.242487,-2.466999 -1.383692,-4.176224 -1.197187,-1.793078 -1.416598,-3.168512 -0.828197,-5.191788 l 0.07291,-0.250727 -0.424259,0.244836 c -1.001263,0.577818 -2.563101,1.634646 -3.323792,2.249067 -0.981657,0.792894 -2.549247,2.40039 -3.045873,3.123408 -0.581791,0.847 -1.097157,2.050719 -1.240723,2.897885 -0.296233,1.748065 0.537438,3.543226 2.318481,4.992426 0.492246,0.400534 2.568241,1.704773 2.720493,1.70915 0.02263,5.5e-4 0.342689,-0.151521 0.711208,-0.338158 z"
       style="fill:#e74c3c;fill-opacity:1" />
    <path
       inkscape:connector-curvature="0"
       id="path4223"
       d="m 23.107413,41.379428 c -1.32268,-0.887316 -1.84778,-1.714829 -1.851813,-2.918301 -0.0042,-1.241101 0.708531,-2.319774 2.225613,-3.36853 l 0.819545,-0.566553 0.16931,0.582402 c 0.178134,0.612757 0.579112,1.240255 1.293882,2.024812 0.974749,1.06992 1.003146,2.253065 0.08199,3.41612 -0.367025,0.463405 -1.558233,1.309529 -1.843615,1.309529 -0.0991,0 -0.501811,-0.215765 -0.894914,-0.479479 z"
       style="fill:#f1c40f;fill-opacity:1" />
  </g>
</svg>
