<?xml version="1.0" encoding="UTF-8" standalone="no"?>
<!-- Created with Inkscape (http://www.inkscape.org/) -->

<svg
   xmlns:dc="http://purl.org/dc/elements/1.1/"
   xmlns:cc="http://creativecommons.org/ns#"
   xmlns:rdf="http://www.w3.org/1999/02/22-rdf-syntax-ns#"
   xmlns:svg="http://www.w3.org/2000/svg"
   xmlns="http://www.w3.org/2000/svg"
   xmlns:sodipodi="http://sodipodi.sourceforge.net/DTD/sodipodi-0.dtd"
   xmlns:inkscape="http://www.inkscape.org/namespaces/inkscape"
   width="48"
   height="48"
   id="svg2"
   version="1.1"
   inkscape:version="0.48.4 r9939"
   viewBox="0 0 13.546666 13.546668"
   sodipodi:docname="krdc.svg">
  <defs
     id="defs4" />
  <sodipodi:namedview
     id="base"
     pagecolor="#ffffff"
     bordercolor="#666666"
     borderopacity="1.0"
     inkscape:pageopacity="0"
     inkscape:pageshadow="2"
     inkscape:zoom="142.40372"
     inkscape:cx="10.982757"
     inkscape:cy="36.072283"
     inkscape:document-units="px"
     inkscape:current-layer="layer1"
     showgrid="false"
     inkscape:showpageshadow="false"
     borderlayer="true"
     units="px"
     fit-margin-top="0"
     fit-margin-left="0"
     fit-margin-right="0"
     fit-margin-bottom="0"
     showguides="true"
     inkscape:window-width="1920"
     inkscape:window-height="991"
     inkscape:window-x="-2"
     inkscape:window-y="59"
     inkscape:window-maximized="1">
    <sodipodi:guide
       position="-6.6748425e-06,47.999999"
       orientation="47.999977,0"
       id="guide4120" />
    <sodipodi:guide
       position="-6.6748425e-06,2.2810037e-05"
       orientation="0,48.000004"
       id="guide4122" />
    <sodipodi:guide
       position="47.999997,2.2810037e-05"
       orientation="-47.999977,0"
       id="guide4124" />
    <sodipodi:guide
       position="47.999997,47.999999"
       orientation="0,-48.000004"
       id="guide4126" />
    <sodipodi:guide
       position="3.9999733,44.000154"
       orientation="39.999962,0"
       id="guide4138" />
    <sodipodi:guide
       position="3.9999733,4.0001921"
       orientation="0,40.000003"
       id="guide4140" />
    <sodipodi:guide
       position="43.999976,4.0001921"
       orientation="-39.999962,0"
       id="guide4142" />
    <sodipodi:guide
       position="43.999976,44.000154"
       orientation="0,-40.000003"
       id="guide4144" />
    <sodipodi:guide
       position="6.9999922,47.999999"
       orientation="39.999962,0"
       id="guide4148" />
    <sodipodi:guide
       position="6.9999922,8.0000369"
       orientation="0,34.000006"
       id="guide4150" />
    <sodipodi:guide
       position="40.999998,8.0000369"
       orientation="-39.999962,0"
       id="guide4152" />
    <sodipodi:guide
       position="40.999998,47.999999"
       orientation="0,-34.000006"
       id="guide4154" />
    <sodipodi:guide
       position="14.999993,32.999986"
       orientation="17.999951,0"
       id="guide4158" />
    <sodipodi:guide
       position="14.999993,15.000036"
       orientation="0,17.999998"
       id="guide4160" />
    <sodipodi:guide
       position="32.999991,15.000036"
       orientation="-17.999951,0"
       id="guide4162" />
    <sodipodi:guide
       position="32.999991,32.999986"
       orientation="0,-17.999998"
       id="guide4164" />
    <sodipodi:guide
       position="1.9999969,44.000046"
       orientation="39.999962,0"
       id="guide3279" />
    <sodipodi:guide
       position="1.9999969,4.0000839"
       orientation="0,44.000003"
       id="guide3281" />
    <sodipodi:guide
       position="46,4.0000839"
       orientation="-39.999962,0"
       id="guide3283" />
    <sodipodi:guide
       position="46,44.000046"
       orientation="0,-44.000003"
       id="guide3285" />
  </sodipodi:namedview>
  <metadata
     id="metadata7">
    <rdf:RDF>
      <cc:Work
         rdf:about="">
        <dc:format>image/svg+xml</dc:format>
        <dc:type
           rdf:resource="http://purl.org/dc/dcmitype/StillImage" />
        <dc:title></dc:title>
      </cc:Work>
    </rdf:RDF>
  </metadata>
  <g
     inkscape:label="Capa 1"
     inkscape:groupmode="layer"
     id="layer1"
     transform="translate(38.119153,-397.84494)">
    <path
       style="fill:#2c3e50;fill-opacity:1;stroke:none"
       d="m -37.542207,398.99252 0,7.37573 0,0.98526 0,0.0189 0.01849,0 c 4.308533,0.0101 5.78215,0.0227 5.959296,0.003 0,-0.002 -9.71e-4,-0.003 -0.0025,-0.003 l 4.965374,0 0.01849,0 0,-0.0188 0,-0.98526 0,-7.37571 z"
       id="rect4118"
       inkscape:connector-curvature="0"
       sodipodi:nodetypes="ccccccccccccc" />
    <rect
       style="fill:#3498db;fill-opacity:1;stroke:none"
       id="rect4181"
       width="9.9628553"
       height="6.5958328"
       x="-37.044064"
       y="399.75357"
       ry="0" />
    <path
       style="fill:#2c3e50;fill-opacity:1;stroke:none"
       d="m -36.096404,400.12561 0,7.37573 0,0.98526 0,0.0189 0.01849,0 4.965375,0 c -0.0014,0 -0.0025,9e-4 -0.0025,0.003 l 0,1.2553 c 0,0.002 9.6e-4,0.003 0.0025,0.003 l -1.7435,0 c -0.0014,0 -0.0025,9e-4 -0.0025,0.003 l 0,0.50242 c 0,0.002 9.6e-4,0.003 0.0025,0.003 l 4.478421,0 c 0.0014,0 0.0025,-9e-4 0.0025,-0.003 l 0,-0.50242 c -8e-6,-0.002 -9.6e-4,-0.003 -0.0025,-0.003 l -1.7435,0 c 0.0014,0 0.0025,-9e-4 0.0025,-0.003 l 0,-1.2553 c 0,-0.002 -9.6e-4,-0.003 -0.0025,-0.003 l 4.965374,0 0.01849,0 0,-0.0188 0,-0.98526 0,-7.37571 z"
       id="rect4118-4"
       inkscape:connector-curvature="0"
       sodipodi:nodetypes="ccccccsscsssssssscssccccccc" />
    <rect
       style="fill:#3498db;fill-opacity:1;stroke:none"
       id="rect4181-7"
       width="9.9628553"
       height="6.5958328"
       x="-35.598259"
       y="400.88663"
       ry="0" />
    <rect
       y="400.88132"
       x="-35.605225"
       height="0.83034873"
       width="9.9893436"
       id="rect920"
       style="fill:#37353a;fill-opacity:1;stroke:none" />
    <rect
       style="fill:none;stroke:none"
       id="rect914"
       width="1.0943711"
       height="0.73805064"
       x="-34.688091"
       y="402.54199" />
    <path
       transform="matrix(0.22680543,0,0,0.20758718,-36.048925,190.93549)"
       sodipodi:type="arc"
       style="fill:none;stroke:none"
       id="path3290"
       sodipodi:cx="3.9986143"
       sodipodi:cy="1024.6736"
       sodipodi:rx="2.0013857"
       sodipodi:ry="2.0000615"
       d="m 6,1024.6736 a 2.0013857,2.0000615 0 1 1 -4.0027714,0 2.0013857,2.0000615 0 1 1 4.0027714,0 z" />
    <path
       transform="matrix(0.22680543,0,0,0.20758718,-36.048925,190.93549)"
       d="m 6,1017.3622 a 2.0013857,2.0000615 0 1 1 -4.0027714,0 2.0013857,2.0000615 0 1 1 4.0027714,0 z"
       sodipodi:ry="2.0000615"
       sodipodi:rx="2.0013857"
       sodipodi:cy="1017.3622"
       sodipodi:cx="3.9986143"
       id="path3292"
       style="fill:none;stroke:none"
       sodipodi:type="arc" />
    <path
       transform="matrix(0.22680543,0,0,0.20758718,-36.048925,190.93549)"
       sodipodi:type="arc"
       style="fill:none;stroke:none"
       id="path3294"
       sodipodi:cx="8.4118843"
       sodipodi:cy="1024.3622"
       sodipodi:rx="1.0006928"
       sodipodi:ry="1.0000308"
       d="m 9.4125772,1024.3622 a 1.0006928,1.0000308 0 1 1 -2.0013857,0 1.0006928,1.0000308 0 1 1 2.0013857,0 z" />
    <path
       transform="matrix(0.22680543,0,0,0.20758718,-36.048925,190.93549)"
       d="m 9.4125772,1030.3622 a 1.0006928,1.0000308 0 1 1 -2.0013857,0 1.0006928,1.0000308 0 1 1 2.0013857,0 z"
       sodipodi:ry="1.0000308"
       sodipodi:rx="1.0006928"
       sodipodi:cy="1030.3622"
       sodipodi:cx="8.4118843"
       id="path3296"
       style="fill:none;stroke:none"
       sodipodi:type="arc" />
    <rect
       style="fill:#ffffff;fill-opacity:1;stroke:none"
       id="rect825"
       width="0.54304367"
       height="0.4970291"
       x="-28.062801"
       y="401.04794" />
    <rect
       y="401.04794"
       x="-27.066145"
       height="0.4970291"
       width="0.54304367"
       id="rect827"
       style="fill:#ffffff;fill-opacity:1;stroke:none" />
    <path
       transform="matrix(0.22680543,0,0,0.20758718,-36.048925,190.93549)"
       sodipodi:type="arc"
       style="fill:none;stroke:none"
       id="path3303"
       sodipodi:cx="43.998596"
       sodipodi:cy="1013.3622"
       sodipodi:rx="2.0013857"
       sodipodi:ry="2.0000615"
       d="m 45.999982,1013.3622 a 2.0013857,2.0000615 0 1 1 -4.002771,0 2.0013857,2.0000615 0 1 1 4.002771,0 z" />
    <path
       transform="matrix(0.22680543,0,0,0.20758718,-36.048925,190.93549)"
       d="m 39.605666,1013.3622 a 1.0006928,1.0000308 0 1 1 -2.001386,0 1.0006928,1.0000308 0 1 1 2.001386,0 z"
       sodipodi:ry="1.0000308"
       sodipodi:rx="1.0006928"
       sodipodi:cy="1013.3622"
       sodipodi:cx="38.604973"
       id="path3305"
       style="fill:none;stroke:none"
       sodipodi:type="arc" />
    <path
       transform="matrix(0.22680543,0,0,0.20758718,-36.048925,190.93549)"
       sodipodi:type="arc"
       style="fill:none;stroke:none"
       id="path3307"
       sodipodi:cx="34.210655"
       sodipodi:cy="1013.3622"
       sodipodi:rx="1.0006928"
       sodipodi:ry="1.0000308"
       d="m 35.211348,1013.3622 a 1.0006928,1.0000308 0 1 1 -2.001386,0 1.0006928,1.0000308 0 1 1 2.001386,0 z" />
    <rect
       y="401.04794"
       x="-29.059456"
       height="0.4970291"
       width="0.54304367"
       id="rect3309"
       style="fill:#ffffff;fill-opacity:1;stroke:none" />
    <path
       transform="matrix(0.22680543,0,0,0.20758718,-36.048925,190.93549)"
       sodipodi:type="arc"
       style="fill:none;stroke:none"
       id="path3311"
       sodipodi:cx="23.997576"
       sodipodi:cy="1048.8622"
       sodipodi:rx="3.502425"
       sodipodi:ry="3.5001078"
       d="m 27.500001,1048.8622 a 3.502425,3.5001078 0 1 1 -7.00485,0 3.502425,3.5001078 0 1 1 7.00485,0 z" />
    <path
       transform="matrix(0.22680543,0,0,0.20758718,-36.048925,190.93549)"
       d="m 1.9999999,1028.3622 a 1.0006928,1.0000308 0 1 1 -2.00138565,0 1.0006928,1.0000308 0 1 1 2.00138565,0 z"
       sodipodi:ry="1.0000308"
       sodipodi:rx="1.0006928"
       sodipodi:cy="1028.3622"
       sodipodi:cx="0.9993071"
       id="path3315"
       style="fill:none;stroke:none"
       sodipodi:type="arc" />
    <path
       transform="matrix(0.22680543,0,0,0.20758718,-36.048925,190.93549)"
       sodipodi:type="arc"
       style="fill:none;stroke:none"
       id="path3317"
       sodipodi:cx="46.999306"
       sodipodi:cy="1028.3622"
       sodipodi:rx="1.0006928"
       sodipodi:ry="1.0000308"
       d="m 47.999999,1028.3622 a 1.0006928,1.0000308 0 1 1 -2.001386,0 1.0006928,1.0000308 0 1 1 2.001386,0 z" />
    <rect
       y="402.54199"
       x="-34.688091"
       height="0.83034873"
       width="1.3608326"
       id="rect3369"
       style="fill:#1abc9c;fill-opacity:1;stroke:none" />
    <rect
       style="fill:#1abc9c;fill-opacity:1;stroke:none"
       id="rect3453"
       width="1.3608326"
       height="0.83034873"
       x="-34.688091"
       y="403.78754" />
    <rect
       y="405.03305"
       x="-34.688091"
       height="0.83034873"
       width="1.3608326"
       id="rect3455"
       style="fill:#1abc9c;fill-opacity:1;stroke:none" />
  </g>
</svg>
