<?xml version="1.0" encoding="UTF-8" standalone="no"?>
<!-- Created with Inkscape (http://www.inkscape.org/) -->

<svg
   xmlns:dc="http://purl.org/dc/elements/1.1/"
   xmlns:cc="http://creativecommons.org/ns#"
   xmlns:rdf="http://www.w3.org/1999/02/22-rdf-syntax-ns#"
   xmlns:svg="http://www.w3.org/2000/svg"
   xmlns="http://www.w3.org/2000/svg"
   xmlns:sodipodi="http://sodipodi.sourceforge.net/DTD/sodipodi-0.dtd"
   xmlns:inkscape="http://www.inkscape.org/namespaces/inkscape"
   width="48"
   height="48"
   id="svg2"
   version="1.1"
   inkscape:version="0.49 r12742"
   sodipodi:docname="lyx.svg"
   inkscape:export-filename="/home/uri/Iconos/NITRUX/apps/16/accessories-text-editor.png"
   inkscape:export-xdpi="30"
   inkscape:export-ydpi="30">
  <defs
     id="defs4" />
  <sodipodi:namedview
     id="base"
     pagecolor="#ffffff"
     bordercolor="#666666"
     borderopacity="1.0"
     inkscape:pageopacity="0.0"
     inkscape:pageshadow="2"
     inkscape:zoom="8"
     inkscape:cx="34.614947"
     inkscape:cy="19.693157"
     inkscape:document-units="px"
     inkscape:current-layer="layer1"
     showgrid="false"
     inkscape:window-width="1366"
     inkscape:window-height="718"
     inkscape:window-x="-2"
     inkscape:window-y="23"
     inkscape:window-maximized="1"
     showguides="true"
     inkscape:showpageshadow="false"
     borderlayer="true">
    <inkscape:grid
       type="xygrid"
       id="grid3797" />
    <sodipodi:guide
       position="0,48.000017"
       orientation="48,0"
       id="guide4066" />
    <sodipodi:guide
       position="0,1.7382813e-05"
       orientation="0,48"
       id="guide4068" />
    <sodipodi:guide
       position="48,1.7382813e-05"
       orientation="-48,0"
       id="guide4070" />
    <sodipodi:guide
       position="48,48.000017"
       orientation="0,-48"
       id="guide4072" />
    <sodipodi:guide
       position="4,44.000017"
       orientation="40,0"
       id="guide4074" />
    <sodipodi:guide
       position="4,4.0000174"
       orientation="0,40"
       id="guide4076" />
    <sodipodi:guide
       position="44,4.0000174"
       orientation="-40,0"
       id="guide4078" />
    <sodipodi:guide
       position="44,44.000017"
       orientation="0,-40"
       id="guide4080" />
    <sodipodi:guide
       position="15,33.000017"
       orientation="18,0"
       id="guide4082" />
    <sodipodi:guide
       position="15,15.000017"
       orientation="0,18"
       id="guide4084" />
    <sodipodi:guide
       position="33,15.000017"
       orientation="-18,0"
       id="guide4086" />
    <sodipodi:guide
       position="33,33.000017"
       orientation="0,-18"
       id="guide4088" />
    <sodipodi:guide
       position="7,44.000017"
       orientation="40,0"
       id="guide4110" />
    <sodipodi:guide
       position="41,4.0000174"
       orientation="-40,0"
       id="guide4114" />
  </sodipodi:namedview>
  <metadata
     id="metadata7">
    <rdf:RDF>
      <cc:Work
         rdf:about="">
        <dc:format>image/svg+xml</dc:format>
        <dc:type
           rdf:resource="http://purl.org/dc/dcmitype/StillImage" />
        <dc:title />
      </cc:Work>
    </rdf:RDF>
  </metadata>
  <g
     inkscape:label="Capa 1"
     inkscape:groupmode="layer"
     id="layer1"
     transform="translate(0,-1004.3622)">
    <rect
       style="fill:#ecf0f1;fill-opacity:1;stroke:none"
       id="rect4043"
       width="34"
       height="40"
       x="7"
       y="1008.3622" />
    <path
       id="path4411-2"
       d="m 25.889648,1023.3622 0.675781,2.543 0.957032,0.1299 -2.547852,3.8564 1.803711,0.5967 1.183594,-1.7139 0.46582,2.083 2.620117,0.2696 -1.234375,-3.8428 L 32,1024.705 l -2.433594,-0.5439 -0.976562,1.1796 -0.47754,-1.5263 -2.222656,-0.4522 z m -7.805664,1.086 -0.0498,0.069 -2.034179,1.0098 2.526367,6.1982 3.458984,-1.8125 -0.866211,-2.0039 -1.394531,0.752 -1.640625,-4.2129 z m 2.198242,1.0273 1.919922,4.4395 -0.410156,3.0468 2.378906,0.4004 0.574219,-3.3945 2.345703,-3.5527 -2.55957,-0.3477 -0.951172,1.4453 -0.754883,-1.6719 -2.542969,-0.3652 z"
       style="fill:#bac3c8;fill-opacity:1;fill-rule:evenodd"
       inkscape:connector-curvature="0" />
    <rect
       y="8.25"
       x="-1015.3622"
       height="0.5"
       width="2"
       id="rect4171"
       style="fill:#34495e;fill-opacity:1;stroke:none"
       transform="matrix(0,-1,1,0,0,0)" />
    <rect
       y="8.25"
       x="-1019.3622"
       height="0.5"
       width="2"
       id="rect4181"
       style="fill:#34495e;fill-opacity:1;stroke:none"
       transform="matrix(0,-1,1,0,0,0)" />
    <rect
       transform="matrix(0,-1,1,0,0,0)"
       style="fill:#34495e;fill-opacity:1;stroke:none"
       id="rect4187"
       width="2"
       height="0.5"
       x="-1023.3622"
       y="8.25" />
    <rect
       y="8.25"
       x="-1027.3622"
       height="0.5"
       width="2"
       id="rect4205"
       style="fill:#34495e;fill-opacity:1;stroke:none"
       transform="matrix(0,-1,1,0,0,0)" />
    <rect
       transform="matrix(0,-1,1,0,0,0)"
       style="fill:#34495e;fill-opacity:1;stroke:none"
       id="rect4211"
       width="2"
       height="0.5"
       x="-1031.3622"
       y="8.25" />
    <rect
       transform="matrix(0,-1,1,0,0,0)"
       style="fill:#34495e;fill-opacity:1;stroke:none"
       id="rect4215"
       width="2"
       height="0.5"
       x="-1035.3622"
       y="8.25" />
    <rect
       y="8.25"
       x="-1039.3622"
       height="0.5"
       width="2"
       id="rect4221"
       style="fill:#34495e;fill-opacity:1;stroke:none"
       transform="matrix(0,-1,1,0,0,0)" />
    <rect
       transform="matrix(0,-1,1,0,0,0)"
       style="fill:#34495e;fill-opacity:1;stroke:none"
       id="rect4261"
       width="2"
       height="0.5"
       x="-1043.3622"
       y="8.25" />
    <rect
       y="8.25"
       x="-1047.3622"
       height="0.5"
       width="2"
       id="rect4265"
       style="fill:#34495e;fill-opacity:1;stroke:none"
       transform="matrix(0,-1,1,0,0,0)" />
    <rect
       style="fill:#3498db;fill-opacity:1;stroke:none"
       id="rect4118"
       width="34"
       height="4"
       x="7"
       y="1008.3622" />
    <path
       style="fill:#bdc3c7;fill-opacity:1;stroke:none"
       d="m 39,1013.3622 0,1 -28,0 0,-1 z"
       id="rect4051"
       inkscape:connector-curvature="0"
       sodipodi:nodetypes="ccccc" />
    <path
       sodipodi:nodetypes="ccccc"
       inkscape:connector-curvature="0"
       id="path4356"
       d="m 39,1013.3622 0,1 -28,0 0,-1 z"
       style="fill:#bdc3c7;fill-opacity:1;stroke:none" />
    <path
       style="fill:#bdc3c7;fill-opacity:1;stroke:none"
       d="m 39,1046.3622 0,1 -28,0 0,-1 z"
       id="path4368"
       inkscape:connector-curvature="0"
       sodipodi:nodetypes="ccccc" />
  </g>
</svg>
