<?xml version="1.0" encoding="UTF-8" standalone="no"?>
<!-- Created with Inkscape (http://www.inkscape.org/) -->

<svg
   xmlns:dc="http://purl.org/dc/elements/1.1/"
   xmlns:cc="http://creativecommons.org/ns#"
   xmlns:rdf="http://www.w3.org/1999/02/22-rdf-syntax-ns#"
   xmlns:svg="http://www.w3.org/2000/svg"
   xmlns="http://www.w3.org/2000/svg"
   xmlns:sodipodi="http://sodipodi.sourceforge.net/DTD/sodipodi-0.dtd"
   xmlns:inkscape="http://www.inkscape.org/namespaces/inkscape"
   width="48"
   height="48"
   id="svg4230"
   version="1.1"
   inkscape:version="0.49 r12742"
   sodipodi:docname="marble.svg">
  <defs
     id="defs4232" />
  <sodipodi:namedview
     id="base"
     pagecolor="#ffffff"
     bordercolor="#666666"
     borderopacity="1.0"
     inkscape:pageopacity="0.0"
     inkscape:pageshadow="2"
     inkscape:zoom="4.7727299"
     inkscape:cx="35.034879"
     inkscape:cy="35.546591"
     inkscape:document-units="px"
     inkscape:current-layer="layer1"
     showgrid="false"
     inkscape:showpageshadow="false"
     borderlayer="true"
     inkscape:window-width="1366"
     inkscape:window-height="718"
     inkscape:window-x="-2"
     inkscape:window-y="23"
     inkscape:window-maximized="1"
     showguides="true">
    <sodipodi:guide
       position="0,48.000017"
       orientation="48,0"
       id="guide4065" />
    <sodipodi:guide
       position="0,1.7382813e-05"
       orientation="0,48"
       id="guide4067" />
    <sodipodi:guide
       position="48,1.7382813e-05"
       orientation="-48,0"
       id="guide4069" />
    <sodipodi:guide
       position="48,48.000017"
       orientation="0,-48"
       id="guide4071" />
    <sodipodi:guide
       position="4,44.000017"
       orientation="40,0"
       id="guide4073" />
    <sodipodi:guide
       position="4,4.0000174"
       orientation="0,40"
       id="guide4075" />
    <sodipodi:guide
       position="44,4.0000174"
       orientation="-40,0"
       id="guide4077" />
    <sodipodi:guide
       position="44,44.000017"
       orientation="0,-40"
       id="guide4079" />
    <sodipodi:guide
       position="15,33.000017"
       orientation="18,0"
       id="guide4081" />
    <sodipodi:guide
       position="15,15.000017"
       orientation="0,18"
       id="guide4083" />
    <sodipodi:guide
       position="33,15.000017"
       orientation="-18,0"
       id="guide4085" />
    <sodipodi:guide
       position="33,33.000017"
       orientation="0,-18"
       id="guide4087" />
  </sodipodi:namedview>
  <metadata
     id="metadata4235">
    <rdf:RDF>
      <cc:Work
         rdf:about="">
        <dc:format>image/svg+xml</dc:format>
        <dc:type
           rdf:resource="http://purl.org/dc/dcmitype/StillImage" />
        <dc:title></dc:title>
      </cc:Work>
    </rdf:RDF>
  </metadata>
  <g
     inkscape:label="Capa 1"
     inkscape:groupmode="layer"
     id="layer1"
     transform="translate(0,-1004.3622)">
    <rect
       style="fill:#74c8f4;fill-opacity:1;stroke:none"
       id="rect4096"
       width="40"
       height="40"
       x="4"
       y="1008.3622"
       ry="20" />
    <path
       inkscape:connector-curvature="0"
       style="fill:#f4f4ef;fill-opacity:1;fill-rule:nonzero;stroke:none"
       d="m 19.841796,1008.8036 c -0.01111,-6e-4 -0.02383,0 -0.03516,0 -0.808187,0.1712 -1.591025,0.4048 -2.359375,0.6699 -0.01931,0.054 -0.04552,0.1118 -0.03516,0.1484 0.0538,0.1913 0.407484,0.053 0.501953,0.2344 -0.02169,0.222 -0.26111,0.3324 -0.449218,0.4277 -0.175401,0.089 -0.40038,0.3128 -0.589844,0.1992 -0.0741,-0.1929 0.214601,-0.1943 0.144531,-0.3593 -0.05201,-0.1235 -0.277472,-0.043 -0.376953,-0.1602 -0.04437,-0.053 -0.05371,-0.1149 -0.05273,-0.1797 -6.8031971,2.7029 -11.7534597,9.0094 -12.4921848,16.5977 0.081325,0.024 0.1820771,0.037 0.2617188,0.072 0.127935,0.057 0.228505,0.1925 0.375,0.2675 0.181305,0.093 0.42482,0.1479 0.6445312,0.25 0.2116186,0.098 0.4954096,0.2335 0.6640626,0.2344 0.169551,0 0.3499603,-0.1747 0.5371093,-0.1797 0.439037,-0.012 0.629856,0.5585 0.984375,0.7344 0.08901,0.045 0.2074316,0.046 0.3222657,0.072 0.09313,0.02 0.1628741,0.057 0.2519531,0.088 0.189459,0.064 0.4208276,0.058 0.5722656,0.125 0.228318,0.1012 0.3955259,0.5297 0.5917969,0.6445 0.0095,0.1157 -0.020882,0.273 0.017578,0.3594 0.09269,0.1257 0.222212,0.096 0.375,0.1777 0.182653,0.099 0.2388987,0.3539 0.4121096,0.4316 0.05917,0.027 0.208262,0.024 0.302734,0.053 0.237374,0.072 0.316068,0.3452 0.519532,0.2851 0.133395,-0.039 0.123273,-0.1752 0.144531,-0.3027 0.08816,-0.096 0.184827,-0.2492 0.322265,-0.252 0.222472,-0 0.241347,0.2331 0.322266,0.4493 0.04568,0.122 0.166117,0.2285 0.197266,0.3574 0.05469,0.2225 0.0281,0.8865 -0.01758,1.0195 -0.05604,0.1632 -0.275952,0.2332 -0.41211,0.4141 -0.06371,0.084 -0.09369,0.2079 -0.142578,0.2675 -0.08719,0.1067 -0.221541,0.1338 -0.287109,0.2325 -0.03704,0.055 -0.0717,0.1749 -0.107422,0.25 -0.108089,0.2278 -0.252471,0.3886 -0.16211,0.6621 0.03711,0.1126 0.214397,0.1916 0.214844,0.3242 3.87e-4,0.156 -0.331669,0.292 -0.357422,0.4629 -0.01945,0.1266 0.102375,0.356 0.142578,0.5215 0.03033,0.1252 0.266114,0.2039 0.339844,0.2871 0.125686,0.141 0.226965,0.3403 0.341797,0.5176 0.226968,0.3486 0.403941,0.7716 0.625,1.1093 0.11625,0.1768 0.2816,0.338 0.359375,0.5215 0.03975,0.093 0.03522,0.2019 0.07227,0.2852 0.127996,0.2889 0.692736,0.591 0.984375,0.7344 0.13654,0.067 0.286872,0.092 0.412109,0.1621 0.18985,0.1058 0.566287,0.3882 0.662109,0.5546 0.08592,0.1497 0.136183,0.5142 0.177735,0.752 0.05514,0.3143 0.0034,0.5541 0.01758,0.8945 0.0078,0.1841 0.07003,0.3702 0.07226,0.5547 0.0011,0.065 -0.03293,0.1137 -0.03516,0.1797 -0.0079,0.2234 0.05416,0.4745 0.03516,0.6992 -0.01043,0.1226 -0.0442,0.2182 -0.03516,0.3203 0.0095,0.1112 0.06166,0.2094 0.07031,0.3067 0.009,0.1049 -0.02614,0.2389 -0.01758,0.3203 0.02443,0.2261 0.19006,0.4027 0.234375,0.6094 0.03524,0.1646 0.05631,0.5021 0.03516,0.6992 -0.01089,0.1035 -0.07403,0.2087 -0.08984,0.3223 -0.01185,0.089 0.01267,0.1835 0,0.2675 -0.01811,0.1253 -0.09701,0.2252 -0.08984,0.3418 0.01587,0.2415 0.284309,0.4382 0.322266,0.6797 0.01312,0.081 -0.02123,0.1718 -0.01758,0.25 0.007,0.1492 0.07576,0.2738 0.107422,0.4121 0.01607,0.07 0.02152,0.1479 0.0293,0.2246 0.08549,0.041 0.169701,0.084 0.255859,0.1231 -0.01914,-0.071 -0.03516,-0.1414 0.01953,-0.1875 0.121386,0.037 0.165052,0.1515 0.1875,0.2871 0.700236,0.3109 1.413914,0.5939 2.154297,0.8242 0.105786,-0.074 0.245015,-0.1291 0.273438,-0.2695 0.02168,-0.1067 -0.03215,-0.1518 -0.03711,-0.3223 0.04024,-0.175 0.230971,-0.1988 0.267578,-0.3769 -0.07463,-0.1276 -0.244837,-0.04 -0.357422,-0.1055 -0.109374,-0.063 -0.158375,-0.2066 -0.142578,-0.3418 0.186765,-0.079 0.545909,0.1915 0.679688,-0.07 0.06655,-0.1235 -0.07467,-0.43 0.01758,-0.5547 0.0629,-0.084 0.404615,-0.087 0.537109,-0.1094 0.18991,-0.032 0.412342,-0.073 0.519532,-0.1426 0.117081,-0.077 0.289826,-0.2989 0.269531,-0.5195 -0.01,-0.1054 -0.0816,-0.1393 -0.16211,-0.2324 -0.06736,-0.078 -0.09369,-0.1758 -0.142578,-0.25 -0.08361,-0.1258 -0.21288,-0.1077 -0.25,-0.2871 0.256831,-0.05 0.647867,0.2118 1.019532,0.1074 0.176296,-0.05 0.420132,-0.4264 0.501953,-0.5918 0.02624,-0.052 0.02374,-0.1316 0.05273,-0.1953 0.03123,-0.069 0.09709,-0.124 0.107422,-0.1602 0.02764,-0.098 0.01305,-0.1729 0.03516,-0.2343 0.06513,-0.1818 0.234155,-0.2407 0.341797,-0.375 0.08137,-0.1013 0.11994,-0.223 0.197266,-0.3243 0.08413,-0.1103 0.159224,-0.2055 0.214844,-0.3027 0.0529,-0.3269 -0.131111,-0.5555 -0.05469,-0.8418 0.08592,-0.3214 0.53031,-0.519 0.841797,-0.6641 0.107193,-0.05 0.217408,-0.1298 0.304687,-0.1601 0.215602,-0.076 0.482519,-0.035 0.679688,-0.1074 0.335509,-0.1226 0.371668,-0.4815 0.537109,-0.7871 0.0787,-0.1447 0.18185,-0.2915 0.197266,-0.3946 0.01401,-0.093 -0.03533,-0.1758 -0.01953,-0.2851 0.0158,-0.1077 0.117073,-0.2054 0.146484,-0.3242 0.03882,-0.1551 0.05273,-0.382 0.05273,-0.5547 0,-0.1419 -0.06592,-0.2647 -0.07227,-0.3926 -0.02303,-0.4644 0.168046,-0.5187 0.339843,-0.7715 0.08547,-0.1257 0.117625,-0.2674 0.177735,-0.3574 0.288496,-0.4304 0.790125,-0.6385 0.753906,-1.2891 -0.0117,-0.2153 -0.145986,-0.7008 -0.304687,-0.7695 -0.09042,-0.039 -0.298607,-0 -0.429688,-0.053 -0.423238,-0.1578 -0.670851,-0.6833 -1.109375,-0.7168 -0.09364,-0.01 -0.181717,0.037 -0.287109,0.035 -0.173598,-0 -0.434796,-0.1224 -0.626953,-0.1445 -0.122091,-0.014 -0.284145,0.036 -0.357422,0 -0.112136,-0.054 -0.123965,-0.2589 -0.214844,-0.3203 -0.07276,-0.049 -0.212893,-0.065 -0.322266,-0.1074 -0.176361,-0.068 -0.316067,-0.1481 -0.519531,-0.1622 -0.06282,-0 -0.142076,0.029 -0.214844,0.018 -0.112583,-0.018 -0.20071,-0.1516 -0.304687,-0.2148 -0.129798,-0.079 -0.248976,-0.1194 -0.302735,-0.2324 0.117531,-0.3857 -0.209938,-0.492 -0.289062,-0.7149 -0.03703,-0.1044 -0.02017,-0.2311 -0.05273,-0.3242 -0.04658,-0.1334 -0.177569,-0.209 -0.322266,-0.3203 -0.259081,-0.1994 -0.489056,-0.3859 -0.859375,-0.4317 -0.162742,-0.02 -0.322877,0.05 -0.519531,0.037 -0.208409,-0.013 -0.469065,-0.1988 -0.625,-0.377 -0.151506,-0.174 -0.227331,-0.327 -0.359375,-0.4102 -0.125238,-0.08 -0.291531,-0.081 -0.376953,-0.1621 -0.03792,-0.036 -0.03158,-0.096 -0.07227,-0.1797 -0.06282,-0.1301 -0.16617,-0.2014 -0.08789,-0.3574 -0.1429,-0.073 -0.148622,0.1346 -0.304687,0.1074 -0.139238,-0.1975 -0.256218,-0.2923 -0.572266,-0.2343 -0.144245,0.027 -0.225881,0.2122 -0.394531,0.2168 -0.138341,0 -0.247034,-0.1534 -0.429687,-0.1797 -0.137889,-0.019 -0.294445,0.037 -0.392579,0.018 -0.152792,-0.03 -0.202108,-0.1582 -0.341797,-0.25 -0.10218,-0.067 -0.300004,-0.1815 -0.357421,-0.1797 -0.179893,0.01 -0.306462,0.3815 -0.554688,0.25 -0.121129,-0.1528 0.195625,-0.2321 0.05274,-0.375 -0.10854,-0.1085 -0.198388,0.048 -0.285157,0.1074 -0.09904,0.068 -0.194866,0.139 -0.304687,0.1797 -0.245978,0.092 -0.399576,0.043 -0.591797,0.1426 -0.178093,0.092 -0.184322,0.2465 -0.285156,0.4297 -0.08271,0.15 -0.270645,0.3679 -0.394532,0.3769 -0.150092,0.011 -0.295548,-0.2107 -0.43164,-0.2695 -0.410072,-0.1777 -0.606752,0.1556 -0.947266,0.1601 -0.316048,0 -0.7678171,-0.5076 -0.7519531,-0.8047 0.01,-0.1813 0.1032921,-0.4554 0.1250001,-0.6796 0.01759,-0.1782 0.140842,-0.2865 0.142578,-0.4493 0.0025,-0.2174 -0.2885865,-0.3844 -0.4296875,-0.4101 -0.334544,-0.062 -0.7962685,0.1348 -1.1796875,-0.018 -0.07327,-0.1211 0.083905,-0.2062 0.125,-0.3242 0.02305,-0.067 0.007,-0.1568 0.035156,-0.2305 0.04251,-0.1134 0.1614087,-0.2035 0.2148437,-0.3242 0.04021,-0.092 0.047221,-0.2255 0.087891,-0.3399 0.04657,-0.1302 0.1345762,-0.2133 0.1445312,-0.3046 0.01311,-0.1212 -0.03248,-0.2603 -0.1269531,-0.3399 -0.297487,0.015 -0.4930084,0.031 -0.6621094,0.1074 -0.387465,0.1764 -0.3101866,0.7004 -0.6972656,0.8243 -0.133844,0.043 -0.3174488,0.044 -0.4648438,0.07 -0.127035,0.023 -0.2810274,0.093 -0.4121093,0.09 -0.1551081,-0 -0.4273053,-0.151 -0.5195313,-0.25 -0.08227,-0.089 -0.2820805,-0.5311 -0.3046875,-0.6094 -0.152405,-0.5276 0.014083,-1.0122 0.2148438,-1.3789 0.04252,-0.078 0.1128692,-0.1486 0.1445312,-0.2304 0.04791,-0.1244 0.015164,-0.315 0.052734,-0.4493 0.06865,-0.2495 0.3958741,-0.3992 0.6269531,-0.5195 0.261777,-0.1361 0.4823014,-0.3546 0.7871094,-0.375 0.15189,-0.01 0.3735502,0.042 0.5195312,0.072 0.134806,0.028 0.242741,0.1164 0.359375,0.125 0.330946,0.025 0.4096875,-0.2327 0.6796875,-0.377 0.278925,0.039 0.4649102,-0.047 0.7167969,-0.018 0.171799,0.02 0.295845,0.2045 0.429687,0.2149 0.112585,0.01 0.211389,-0.107 0.320313,-0.09 0.105776,0.017 0.28943,0.2477 0.30664,0.377 0.02124,0.1609 -0.1184,0.3056 -0.07227,0.4824 0.168654,0.1718 0.47583,0.2057 0.716797,0.3047 0.156901,-0.1293 0.02123,-0.3675 0,-0.5547 -0.009,-0.083 0.0085,-0.1565 0,-0.2324 -0.01401,-0.1289 -0.07181,-0.249 -0.07226,-0.3594 -0.0024,-0.5095 0.410151,-0.748 0.751953,-0.9492 0.147844,-0.087 0.264194,-0.2405 0.392578,-0.3047 0.181305,-0.091 0.316705,-0.1108 0.466797,-0.1953 0.271283,-0.1523 0.502775,-0.2765 0.714844,-0.4492 0.09807,-0.231 0.0061,-0.5412 0.01758,-0.7695 0.09813,-0.06 0.185083,0.027 0.289062,0.018 0.163708,-0.035 0.17484,-0.2652 0.267578,-0.3574 0.05327,-0.053 0.20261,-0.092 0.269532,-0.1445 0.163258,-0.1279 0.214973,-0.3179 0.357422,-0.3731 0.05104,-0.02 0.169528,-0.015 0.25,-0.037 0.106678,-0.029 0.25699,-0.1556 0.429687,-0.2148 0.112135,-0.038 0.369143,-0.046 0.412109,-0.09 0.05283,-0.054 4.32e-4,-0.2042 0.01758,-0.2851 0.08681,-0.4042 0.696728,-0.4909 1.056641,-0.627 0.252271,-0.096 0.511873,-0.2686 0.789063,-0.2148 -0.05424,0.1922 -0.313332,0.1241 -0.269532,0.3574 0.06111,0.3238 0.493038,-0.095 0.607422,-0.1426 0.218428,-0.092 0.592273,-0.1479 0.878906,-0.2519 0.251374,-0.091 0.701768,-0.2301 0.464844,-0.5176 -0.197616,-0.011 -0.292595,0.2291 -0.464844,0.3027 -0.118943,0.018 -0.09605,-0.098 -0.197265,-0.1074 -0.09589,-0.01 -0.150966,0.09 -0.25,0.072 -0.09852,-0.017 -0.23654,-0.17 -0.251953,-0.2852 -0.03928,-0.2989 0.25313,-0.4216 0.376953,-0.6445 -0.08182,-0.2704 -0.455572,-0.058 -0.681641,-0.1641 0.02168,-0.1609 0.188841,-0.2719 0.376953,-0.3027 0.154138,-0.025 0.500021,-0.01 0.591797,0.07 0.0538,0.045 0.0069,0.1574 0.08984,0.2324 0.09135,0.083 0.201882,0.074 0.320312,0.055 0.04301,-0.2039 -0.265882,-0.1519 -0.232421,-0.2871 0.241867,-0.1582 0.63355,-0.026 0.929687,-0.07 0.170452,-0.025 0.350897,-0.1475 0.501953,-0.2324 0.143732,-0.082 0.33197,-0.2257 0.484375,-0.092 0.04162,0.146 -0.133472,0.1967 -0.214844,0.2695 -0.27398,0.2437 -0.558518,0.5236 -0.771484,0.8066 0.130698,0.1275 0.370738,0.062 0.591797,0.088 0.08637,0.01 0.195717,0.038 0.287109,0.055 0.106675,0.019 0.219119,0.014 0.302735,0.035 0.150606,0.037 0.192991,0.1992 0.341797,0.1992 0.245017,-4e-4 0.246211,-0.2661 0.107422,-0.4316 0.0439,-0.1691 0.112394,-0.2566 0.05273,-0.375 -0.110338,-0.2207 -0.516295,-0 -0.53711,-0.2871 -0.01312,-0.1787 0.150175,-0.171 0.214844,-0.3047 -0.02944,-0.345 0.28535,-0.3705 0.251953,-0.6797 -0.01401,-0.1294 -0.123967,-0.1288 -0.214843,-0.25 -0.04702,-0.062 -0.07052,-0.1845 -0.126954,-0.2324 -0.187212,-0.1583 -0.566787,-0.1277 -0.589843,-0.4297 -0.0085,-0.1782 0.04244,-0.328 0.01758,-0.5215 -0.02303,-0.1804 -0.146887,-0.6805 -0.304686,-0.7149 -0.199866,-0.043 -0.404911,0.2987 -0.644531,0.4121 -0.130247,0.062 -0.316571,0.1319 -0.447266,0.1075 -0.08498,-0.016 -0.254476,-0.1425 -0.267578,-0.3067 -0.01448,-0.1881 0.125343,-0.1918 0.160157,-0.3926 -0.02988,-0.1184 -0.151397,-0.091 -0.267579,-0.1797 -0.131593,-0.1 -0.237098,-0.3134 -0.412109,-0.3378 -0.08721,-0.012 -0.200281,0.064 -0.287109,0.07 -0.266336,0.018 -0.496659,-0.1707 -0.699219,-0.125 -0.241873,0.055 -0.231063,0.4301 -0.464844,0.5019 0.03167,0.175 -0.206222,0.2894 -0.232422,0.4278 -0.01766,0.093 0.02973,0.2045 0.03516,0.289 0.0538,0.8564 -0.650171,1.2574 -1.484375,1.2344 -0.163643,0.1564 -0.125764,0.4474 -0.214844,0.6621 -0.07505,0.1804 -0.339123,0.3728 -0.519531,0.3574 -0.133391,-0.011 -0.28666,-0.196 -0.28711,-0.3203 -4.53e-4,-0.1533 0.222333,-0.239 0.08984,-0.4141 0.019,-0.1188 0.282563,-0.1856 0.25,-0.375 -0.03344,-0.1971 -0.308707,-0.096 -0.554687,-0.1269 -0.179052,-0.023 -0.415516,-0.1252 -0.574218,-0.2129 -0.209755,-0.1162 -0.388583,-0.343 -0.66211,-0.3769 -0.15555,-0.019 -0.30172,0.052 -0.375,-0.035 -0.0804,-0.096 0.03257,-0.2387 0.03711,-0.3047 -0.0051,-0.1089 -0.207676,-0.1433 -0.216797,-0.25 -0.007,-0.075 0.193105,-0.3109 0.269531,-0.3769 0.141488,-0.123 0.399086,-0.2536 0.626953,-0.377 0.222922,-0.1207 0.481149,-0.2479 0.697266,-0.3203 0.09229,-0.031 0.198478,-0.02 0.287109,-0.053 0.226521,-0.084 0.375529,-0.2438 0.589844,-0.3067 0.11169,-0.033 0.234586,-0.025 0.359375,-0.053 0.297039,-0.067 0.516809,-0.2793 0.769531,-0.3223 -0.05604,0.2062 -0.286027,0.2384 -0.339844,0.4473 0.216564,0.3943 0.587726,-0.092 0.841797,-0.09 0.230628,0 0.461824,0.3269 0.607422,0.018 -0.05286,-0.1668 -0.208675,-0.2616 -0.357422,-0.3574 -0.137434,-0.089 -0.354291,-0.1677 -0.339843,-0.3594 0.165059,-0.073 0.227088,0.1261 0.375,0.127 0.08048,4e-4 0.186361,-0.099 0.269531,-0.127 0.186312,-0.064 0.497525,-0.083 0.644531,-0.2129 0.08857,-0.078 0.07385,-0.2038 0.142578,-0.3047 0.05879,-0.086 0.205153,-0.1105 0.267578,-0.1972 0.07599,-0.1059 0.01217,-0.1944 0.109375,-0.25 0.20892,-0.093 0.467757,0.022 0.699219,0 0.109438,-0.01 0.182074,-0.098 0.285156,-0.09 0.200313,0.016 0.307068,0.3383 0.447266,0.4297 0.102635,0.067 0.287027,0.064 0.304688,0.1953 0.0348,0.2614 -0.342689,0.282 -0.574219,0.4141 -0.11528,0.065 -0.161634,0.2137 -0.302735,0.2676 -0.37886,0.1447 -0.954983,-0.1602 -1.076172,0.25 0.175009,0.2576 0.495671,-0.017 0.716797,-0.018 0.157799,-9e-4 0.350546,0.146 0.447266,0.25 0.08368,0.089 0.113111,0.2654 0.214844,0.3242 0.06781,0.039 0.187263,0.028 0.269531,0.053 0.262678,0.08 0.482001,0.2213 0.769531,0.1602 0.09859,-0.1731 -0.202269,-0.2213 -0.08789,-0.3574 0.192668,0.016 0.316545,0.102 0.464843,0.1621 0.207121,-0.1515 0.347101,-0.1689 0.339844,-0.4121 -0.0056,-0.2035 -0.271178,-0.2141 -0.267578,-0.4492 0.0023,-0.1325 0.09499,-0.1913 0.195312,-0.1954 0.230562,-0.01 0.29763,0.3345 0.466797,0.3594 0.102121,0.015 0.403759,-0.1342 0.464844,-0.164 0.08629,-0.043 0.348882,-0.1966 0.357422,-0.2852 0.01318,-0.132 -0.276463,-0.3038 -0.412109,-0.3594 -0.193054,-0.079 -0.385629,-0.066 -0.462891,-0.2324 -0.04115,-0.091 0.02261,-0.1843 -0.05469,-0.248 -0.009,-0.097 0.118308,-0.1603 0.08984,-0.2539 -0.02897,-0.095 -0.133889,-0.079 -0.269531,-0.1407 -0.09538,-0.044 -0.184468,-0.1422 -0.267578,-0.1621 -0.112195,-0.027 -0.221157,-0 -0.306641,-0.035 -0.314695,-0.1167 -0.254479,-0.3791 -0.46289,-0.502 -0.270386,0.033 -0.504806,-0.096 -0.699219,0.018 -0.06048,-0.033 -0.130251,-0.047 -0.203125,-0.051 z m -0.02734,1.4688 c -0.173379,-0.023 -0.407755,0.1246 -0.378906,0.248 0.04836,0.2058 0.557036,-0 0.519531,-0.1621 -0.03243,-0.052 -0.08282,-0.078 -0.140625,-0.086 z m 0.972656,0.4433 c 0.021,-4e-4 0.04453,0.01 0.06445,0.019 0.01267,0.09 -0.03886,0.1164 -0.126953,0.1055 -0.05292,-0.067 -9.2e-4,-0.1237 0.0625,-0.125 z m -3.947265,1.125 c -0.0682,-0.013 -0.149554,-0.01 -0.197266,0.024 -0.07004,0.042 -0.07858,0.1091 -0.07227,0.1425 0.03839,0.1904 0.398123,0.026 0.394532,-0.072 -0.0022,-0.048 -0.05677,-0.081 -0.125,-0.094 z m 18.998047,0.4063 c -0.02466,0.1877 0.0497,0.3354 0.07031,0.4746 0.01491,0.1004 -0.01587,0.1912 0.01758,0.2871 0.05879,0.1677 0.296156,0.3398 0.519531,0.3398 0.187484,0 0.35057,-0.1262 0.50586,-0.2343 -0.358429,-0.3045 -0.733618,-0.5884 -1.113281,-0.8672 z m -2.220703,0.8164 c -0.09179,0.1194 -0.255721,0.07 -0.41211,0.125 -0.126201,0.044 -0.361971,0.2606 -0.394531,0.3379 -0.0538,0.1275 0.01312,0.2706 0,0.4668 0.102179,0.044 0.165285,0.2459 0.339844,0.3418 0.06602,0.036 0.156013,0.02 0.214843,0.053 0.102182,0.057 0.18291,0.183 0.16211,0.2851 -0.03026,0.147 -0.222401,0.1079 -0.322266,0.2168 0.01714,0.2085 -0.145305,0.2358 -0.197266,0.375 0.03123,0.088 0.16374,0.072 0.177735,0.1778 -0.01989,0.1139 -0.222054,0.1317 -0.177735,0.2519 0.191713,0.1497 0.390958,-0.03 0.572266,-0.053 0.400567,-0.05 0.810663,0.049 1.056641,-0.1445 -0.03346,-0.1913 0.200496,-0.2588 0.179687,-0.4297 -0.01588,-0.1289 -0.230123,-0.1434 -0.324218,-0.2324 -0.05015,-0.048 -0.06151,-0.1574 -0.123047,-0.25 -0.07049,-0.1063 -0.208434,-0.1836 -0.28711,-0.2871 -0.105327,-0.1398 -0.322643,-0.341 -0.322265,-0.4473 0.0017,-0.122 0.15063,-0.1569 0.177734,-0.3242 -0.03115,-0.1537 -0.315801,-0.05 -0.337891,-0.2129 0.0117,-0.1013 0.104559,-0.1194 0.105469,-0.2324 -0.02079,-0.015 -0.04674,-0.024 -0.08789,-0.018 z m 3.580078,0.4277 c -0.270838,0.1289 -0.462092,0.092 -0.53711,0.3047 -0.09499,0.2695 0.163408,0.4668 0.125,0.7168 -0.04068,0.2627 -0.584146,0.171 -0.824218,0.2148 -0.179505,0.033 -0.244734,0.2525 -0.392579,0.4297 -0.102626,0.1235 -0.296815,0.2567 -0.449218,0.3223 -0.07459,0.032 -0.164161,0.027 -0.232422,0.072 -0.100833,0.067 -0.135622,0.2255 -0.25,0.3028 -0.08235,0.056 -0.395591,0.213 -0.482422,0.2148 -0.101731,0 -0.196317,-0.093 -0.269531,-0.07 -0.107578,0.034 -0.09364,0.2442 -0.214844,0.2871 -0.237375,0.084 -0.634079,-0.211 -0.716797,0.1426 0.101729,0.2048 0.361418,0.1545 0.539063,0.2676 0.11169,0.071 0.345585,0.3821 0.375,0.5019 0.02485,0.1013 -0.01308,0.5018 -0.05469,0.6094 -0.110787,0.2857 -0.368569,0.1855 -0.697266,0.1777 -0.08997,-0 -0.184408,0.024 -0.267578,0.018 -0.55432,-0.037 -1.110854,-0.2306 -1.361328,0.1641 0.02023,0.3038 0.08449,0.5054 0.01758,0.7695 -0.04926,0.194 -0.223387,0.3689 -0.214844,0.5371 0.004,0.086 0.10413,0.168 0.125,0.2852 0.01089,0.062 -0.02899,0.1954 0,0.2519 0.09089,0.1763 0.340044,0.027 0.501954,0.053 0.158247,0.026 0.341654,0.2524 0.339843,0.4297 -0.0016,0.1234 -0.120993,0.3283 -0.199218,0.4472 -0.156386,0.2374 -0.36602,0.2503 -0.589844,0.377 -0.186699,0.1058 -0.265562,0.2808 -0.375,0.4648 -0.118495,0.1989 -0.191389,0.3194 -0.142578,0.6074 -0.160048,0.3174 -0.402912,0.5131 -0.734375,0.6641 -0.09807,0.044 -0.232287,0.06 -0.322266,0.125 -0.07138,0.052 -0.113112,0.1903 -0.214844,0.3047 -0.125235,0.1402 -0.256245,0.198 -0.322265,0.3047 -0.05104,0.083 -0.06893,0.2466 -0.125,0.3574 -0.07644,0.1501 -0.241416,0.2245 -0.341797,0.377 -0.04614,0.07 -0.07392,0.2105 -0.125,0.3027 -0.113488,0.2062 -0.305975,0.3558 -0.28516,0.5371 0.02072,0.1755 0.216911,0.2066 0.230468,0.3594 0.0079,0.086 -0.05633,0.1383 -0.05273,0.2324 0.0061,0.1374 0.09657,0.2341 0.107422,0.3398 0.02713,0.2659 -0.09241,0.373 -0.142578,0.5547 -0.02399,0.087 -0.01254,0.1842 -0.03516,0.252 -0.0439,0.1329 -0.228799,0.2528 -0.232422,0.4101 -0.0023,0.1122 0.115493,0.2025 0.125,0.3594 0.007,0.108 -0.0561,0.2208 -0.03711,0.3203 0.038,0.1949 0.385671,0.4228 0.53711,0.5742 0.202563,0.2026 0.467408,0.3589 0.554687,0.5723 0.0737,0.1813 0.07576,0.42 0.216797,0.5567 0.104431,0.1003 0.276313,0.1626 0.410156,0.2675 0.124724,0.097 0.261201,0.1832 0.394532,0.2871 0.217977,0.1706 0.54727,0.5087 0.894531,0.4825 0.181305,-0.013 0.366556,-0.1607 0.572265,-0.1973 0.211618,-0.038 0.485804,-0.057 0.699219,-0.035 0.163709,0.017 0.329997,0.1156 0.5,0.1075 0.179443,-0.01 0.387886,-0.1434 0.591797,-0.2325 0.353104,-0.1537 0.880637,-0.3606 1.396484,-0.2851 0.392925,0.057 0.372349,0.5074 0.644532,0.6797 0.316047,0.026 0.574192,-0.1166 0.824218,-0.055 0.189008,0.047 0.411639,0.3327 0.429688,0.4824 0.01855,0.1554 -0.08481,0.3886 -0.107422,0.4844 -0.04934,0.2088 -0.05236,0.4574 -0.08984,0.5898 -0.02899,0.1026 -0.109233,0.1689 -0.107422,0.2715 0.0022,0.094 0.118571,0.3223 0.214844,0.4453 0.117595,0.151 0.306321,0.2679 0.449219,0.4317 0.262228,0.2997 0.373381,0.6614 0.554687,1.0566 0.06602,0.1433 0.192183,0.3666 0.195313,0.5176 0.0023,0.1116 -0.06314,0.2097 -0.05273,0.3222 0.02257,0.2401 0.171959,0.3456 0.197266,0.5567 0.0588,0.4978 -0.391096,0.6454 -0.482422,1.0547 -0.02159,0.098 4.49e-4,0.1993 -0.01953,0.2871 -0.03078,0.1329 -0.125068,0.2317 -0.144531,0.3574 -0.01945,0.1284 -0.04739,0.3718 -0.03516,0.502 0.01811,0.1917 0.223449,0.368 0.324218,0.5371 0.107188,0.1799 0.194176,0.4829 0.320313,0.7148 0.07004,0.1285 0.187894,0.2369 0.216797,0.3418 0.03747,0.1361 -0.0023,0.3174 0.01758,0.4824 0.0158,0.1339 0.0893,0.2499 0.107422,0.3574 0.05558,0.3297 0.06746,0.6588 0.232422,0.9336 0.0061,0.01 0.0186,0.02 0.02539,0.029 3.149262,-3.532 5.076164,-8.1803 5.076164,-13.3066 0,-2.188 -0.360301,-4.2864 -1.003906,-6.2539 -0.235474,-0.049 -0.482935,-0.2061 -0.75,-0.2363 -0.07959,-0.01 -0.17,0.016 -0.232422,0 -0.08272,-0.021 -0.146555,-0.1166 -0.232422,-0.1446 -0.148808,-0.048 -0.2639,-0.018 -0.394531,-0.053 -0.176359,-0.3106 -1.070122,-0.3321 -1.146485,0.125 -0.03398,0.2017 0.104483,0.4847 -0.195312,0.5195 -0.190365,0.022 -0.385607,-0.1934 -0.646484,-0.25 -0.106677,-0.023 -0.256674,-0.01 -0.339844,-0.037 -0.195307,-0.067 -0.171703,-0.2565 -0.339844,-0.375 -0.09768,-0.069 -0.347752,-0.163 -0.501953,-0.1797 -0.09582,-0.01 -0.183876,0.029 -0.285156,0.018 -0.120294,-0.013 -0.292806,-0.098 -0.394532,-0.1601 -0.09717,-0.059 -0.29741,-0.1494 -0.322265,-0.2344 -0.038,-0.132 0.242445,-0.2804 0.251953,-0.3926 0.007,-0.085 -0.106137,-0.1393 -0.126953,-0.2695 -0.01223,-0.079 0.03446,-0.1604 0.01953,-0.2129 -0.02624,-0.092 -0.180039,-0.1951 -0.324219,-0.1973 -0.127552,-0 -0.248436,0.1038 -0.357422,0.1074 -0.157352,0 -0.412565,-0.088 -0.607422,-0.072 -0.119393,0.01 -0.230562,0.081 -0.341796,0.09 -0.312,0.025 -0.563269,-0.014 -0.804688,0 -0.175844,0.01 -0.480889,0.068 -0.644531,0.1426 -0.08316,0.038 -0.144828,0.1239 -0.251953,0.1777 -0.04836,0.024 -0.11553,0.026 -0.179688,0.055 -0.101732,0.046 -0.20601,0.1554 -0.302734,0.1797 -0.1402,0.036 -0.356204,-0.028 -0.609375,-0.018 -0.181756,0.01 -0.479703,0.01 -0.482422,-0.2168 -0.0045,-0.3314 0.562102,-0.2092 0.875,-0.2676 0.117981,-0.022 0.18318,-0.1312 0.324219,-0.2148 0.06744,-0.04 0.151514,-0.046 0.214844,-0.09 0.108471,-0.075 0.271244,-0.2535 0.287109,-0.3399 0.01402,-0.08 -0.04655,-0.1908 -0.03711,-0.25 0.0123,-0.076 0.100093,-0.1561 0.197265,-0.2519 0.15099,-0.1492 0.316602,-0.3496 0.501953,-0.4473 0.126649,-0.067 0.299105,-0.059 0.357422,-0.1602 0.01312,-0.1148 -0.02028,-0.1807 -0.01758,-0.2851 0.0778,-0.071 0.132145,-0.1325 0.197266,-0.1465 0.193056,-0.042 0.382703,0.1365 0.607422,0.127 0.09717,-0 0.182678,-0.075 0.287109,-0.1446 0.08771,-0.058 0.181645,-0.099 0.267578,-0.1426 0.09448,-0.049 0.191808,-0.1529 0.306641,-0.1601 0.281686,-0.018 0.389577,0.2972 0.517578,0.4668 0.107126,0.141 0.415951,0.3814 0.591797,0.4805 0.09903,0.056 0.230853,0.06 0.339843,0.1093 0.232426,0.1045 0.689532,0.4519 0.697266,0.6797 0.0039,0.114 -0.105547,0.1998 -0.08789,0.3047 0.175848,0.029 0.372425,-0.1635 0.376953,-0.3398 0.0024,-0.1104 -0.111181,-0.1709 -0.08984,-0.2871 0.08227,-0.1772 0.321443,0 0.427734,-0.072 -0.02034,-0.2003 -0.293943,-0.2163 -0.464844,-0.3203 -0.09224,-0.056 -0.154176,-0.1774 -0.25,-0.2168 -0.138789,-0.057 -0.286441,-0.041 -0.394531,-0.125 -0.101284,-0.078 -0.152021,-0.258 -0.251953,-0.377 -0.145147,-0.1731 -0.462283,-0.1991 -0.375,-0.5898 0.04344,-0.059 0.147476,-0.1499 0.214844,-0.125 0.132942,0.032 0.11671,0.1461 0.214843,0.2148 0.07138,0.05 0.171932,0.04 0.251954,0.09 0.09403,0.059 0.143769,0.2132 0.25,0.3027 0.150155,0.1261 0.415394,0.2235 0.626953,0.3242 0.198062,0.094 0.515836,0.2217 0.554687,0.3926 0.02168,0.096 -0.03025,0.2035 -0.01758,0.2871 0.0158,0.1063 0.09144,0.2146 0.142578,0.2852 0.138335,0.1908 0.331969,0.3603 0.484375,0.5918 -0.0045,0.3147 0.111669,0.5092 0.464844,0.4668 0.127485,-0.068 0.0622,-0.1633 0.162109,-0.2696 0.09402,-0.1 0.300925,-0.086 0.302735,-0.2324 0.0023,-0.2247 -0.535424,-0.2608 -0.464844,-0.5918 0.02078,-0.1058 0.138396,-0.054 0.232422,-0.053 0.08038,-0.093 0.206016,-0.1949 0.337891,-0.2344 -0.847099,-1.5734 -1.909781,-3.0083 -3.13086,-4.291 -0.02408,0 -0.04812,0.014 -0.07227,0.014 -0.133392,-0 -0.270349,-0.164 -0.482421,-0.1621 -0.109438,0 -0.192106,0.079 -0.304688,0.09 -0.141936,0.014 -0.367761,-0.047 -0.357422,-0.1602 0.01588,-0.1767 0.255141,-0.031 0.392578,-0.055 0.172767,-0.03 0.134423,-0.1751 0.251953,-0.1972 0.04973,-0.01 0.100598,0.014 0.158204,0.033 -0.09015,-0.089 -0.189416,-0.1684 -0.28125,-0.2559 -0.101742,0.096 -0.348304,0.134 -0.486328,0.1328 -0.01446,-0.1618 0.02326,-0.4268 -0.107422,-0.5195 z m -4.810547,0.6875 c -0.0732,0.01 -0.143331,0.028 -0.203125,0.065 -0.136089,0.083 -0.181719,0.2117 -0.28711,0.2519 -0.145147,0.055 -0.245938,0.01 -0.267578,0.1426 -0.01766,0.1103 0.09299,0.164 0.08984,0.2676 -0.0529,0.1316 -0.208172,0.1654 -0.234375,0.3242 0.181305,0.2961 0.618579,0.03 0.84375,-0.037 0.101285,-0.03 0.248015,-0.024 0.302734,-0.1055 0.06245,-0.095 0.0066,-0.2595 0.05273,-0.3965 0.05193,-0.1505 0.19924,-0.1684 0.18164,-0.3027 -0.01731,-0.1333 -0.259029,-0.2309 -0.47851,-0.209 z m -21.939457,0.5117 c 0.334997,-0.078 0.199806,0.5143 0,0.5215 -0.278536,0.01 -0.224332,-0.4691 0,-0.5215 z m 2.255859,1.5782 c 0.162298,0.043 0.589187,0.5101 0.232422,0.6621 -0.03383,0.014 -0.524795,0.067 -0.609375,0.053 -0.123829,-0.021 -0.195078,-0.1926 -0.320313,-0.2148 -0.247327,-0.043 -0.582402,0.2979 -0.751953,0.017 0.04292,-0.1591 0.221212,-0.1632 0.410156,-0.2148 0.33551,-0.091 0.748775,-0.3787 1.039063,-0.3027 z m 0.681641,0.8574 c 0.08361,0.01 0.183869,0.1 0.285156,0.1074 0.09582,0.01 0.175609,-0.05 0.234375,-0.035 0.14965,0.039 0.210954,0.2662 0.07031,0.377 -0.117084,0.014 -0.161819,-0.051 -0.25,-0.035 -0.243219,0.042 -0.337774,0.5158 -0.519531,0.5 -0.171415,-0.015 -0.26389,-0.4303 -0.08984,-0.5547 0.0069,-0.1085 -0.07775,-0.1271 -0.07226,-0.2343 0.05246,-0.067 0.198961,-0.1372 0.341797,-0.125 z m -0.806641,0.057 c 0.04989,0 0.08887,0.011 0.107422,0.033 -0.02398,0.1908 -0.174867,0.1805 -0.322266,0.2695 -0.254585,0.1537 -0.401436,0.3886 -0.482422,0.7168 -0.02351,0.096 -0.273341,0.3457 -0.394531,0.3204 -0.28393,-0.06 0.07788,-0.5826 0.142578,-0.6622 0.07139,-0.088 0.167433,-0.1658 0.251953,-0.2675 0.08182,-0.099 0.133767,-0.2324 0.212891,-0.2871 0.08646,-0.059 0.334774,-0.1287 0.484375,-0.1231 z m 2.119141,0.6445 c 0.09085,0 0.169712,0.014 0.207031,0.051 -0.05835,0.2365 -0.565633,0.1753 -0.751953,0.09 0.01223,-0.089 0.152386,-0.1132 0.269531,-0.125 0.08299,-0.01 0.184507,-0.018 0.275391,-0.016 z m -1.160157,0.4356 c 0.06113,-0 0.123863,0 0.1875,0.027 -0.164992,0.1379 -0.343917,0.2152 -0.626953,0.3047 -0.136094,0.043 -0.371472,0.097 -0.394531,-0.055 -0.02847,-0.1862 0.197927,-0.1434 0.322266,-0.1601 0.156355,-0.021 0.328448,-0.1113 0.511718,-0.1172 z m 23.332032,0 c -0.116102,0.038 -0.171235,0.2832 0.0059,0.3144 0.08226,-0.049 0.145361,-0.1161 0.125,-0.2675 -0.04541,-0.049 -0.0902,-0.06 -0.128906,-0.047 l -0.002,0 z m -0.04492,0.5 c -0.05739,0.016 -0.120145,0.055 -0.181641,0.1191 0.0045,0.1999 0.02176,0.3283 -0.01758,0.502 0.115348,0.2206 0.368911,0.021 0.427734,-0.127 0.06915,-0.3726 -0.05649,-0.541 -0.228515,-0.4941 z m 1.527343,0.9863 c -0.15937,-0.01 -0.308964,0.01 -0.402343,0.082 0.131146,0.2148 0.405776,0.287 0.699219,0.3399 0.105772,-0.079 0.111799,-0.2576 0.160156,-0.3945 -0.128641,0 -0.297658,-0.021 -0.457032,-0.027 z m -24.484374,9.3028 c 0.171792,-0.079 0.213853,0.2445 0.07226,0.2675 -0.133842,0.021 -0.202102,-0.2074 -0.07226,-0.2675 z"
       id="path34" />
    <path
       style="fill:#ef7b89;fill-opacity:1;stroke:none"
       d="M 24 15 C 22.080531 15 20.161643 15.727544 18.697266 17.183594 C 15.768507 20.094894 15.768507 24.817216 18.697266 27.728516 L 24 33 L 29.302734 27.728516 C 32.231489 24.817216 32.232112 20.095494 29.302734 17.183594 C 27.838356 15.727544 25.919469 15 24 15 z M 24 17.5 C 25.152843 17.5 26.305867 17.938556 27.183594 18.816406 C 28.939046 20.571906 28.939046 23.428794 27.183594 25.183594 C 25.428141 26.939194 22.571857 26.939194 20.816406 25.183594 C 19.060954 23.428794 19.060956 20.572006 20.816406 18.816406 C 21.694131 17.938556 22.847157 17.5 24 17.5 z "
       transform="translate(0,1004.3622)"
       id="path4155" />
  </g>
</svg>
