<?xml version="1.0" standalone="no"?>
<!DOCTYPE svg PUBLIC "-//W3C//DTD SVG 20010904//EN" "http://www.w3.org/TR/2001/REC-SVG-20010904/DTD/svg10.dtd">
<!-- Created using Karbon, part of Calligra: http://www.calligra.org/karbon -->
<svg xmlns="http://www.w3.org/2000/svg" xmlns:xlink="http://www.w3.org/1999/xlink" width="38.4pt" height="38.4pt">
<defs/>
<g id="layer0">
  <path id="shape0" transform="translate(4.00393, 4.00391)" fill="#2c3e50" fill-rule="evenodd" stroke="#000000" stroke-width="0.00000000000" stroke-linecap="square" stroke-linejoin="miter" stroke-miterlimit="2.01260191180" d="M40.0007 19.6367C39.7996 8.62737 30.7381 -0.148937 19.728 0.00191591C8.71788 0.152769 -0.0997184 9.17404 0.000851808 20.1847C0.101422 31.1954 9.08233 40.0541 20.0934 40.0038C31.1044 39.9536 40.004 31.0132 40.004 20.002"/>
  <path id="path4128-0-9" transform="matrix(-0.707107 0.707107 -0.707107 -0.707107 41.2509 17.7154)" fill="#1abc9c" d="M6.57933 7.65621e-07C6.16266 -0.00153361 0.496164 2.30367 0.150237 2.61635C-0.261548 2.98863 0.203108 5.59155 1.17822 8.37139C3.38713 14.6697 9.07646 20.4001 15.4839 22.7805C17.3401 23.4701 20.9414 24.3369 21.4443 24.2154C21.5922 24.1796 22.3145 22.6745 23.0501 20.8693L23.0516 20.8693C23.7871 19.0642 24.3884 17.5504 24.3884 17.5048C24.3884 17.4594 22.7367 16.6027 20.7175 15.6013L17.0466 13.7808L15.2841 15.5091L13.5232 17.236L12.4153 16.4755C11.1669 15.6192 8.26957 12.7059 7.49361 11.5255L6.98346 10.7481L8.72442 9.00743L10.4654 7.26832L8.62607 3.63493C7.61429 1.63657 6.69348 0.000629858 6.57933 7.65621e-07Z"/>
  <rect id="shape1" transform="matrix(1 0 0 1 15.7853 23.2501)" fill="#1abc9c" fill-rule="evenodd" stroke="#000000" stroke-width="0.00000000000" stroke-linecap="square" stroke-linejoin="miter" stroke-miterlimit="2.01260191180" width="3.92524686358pt" height="2.98337730351pt" rx="0.95614987703pt" ry="1.18092018264pt"/>
  <rect id="shape2" transform="matrix(1 0 0 1 21.4745 23.2224)" fill="#1abc9c" fill-rule="evenodd" stroke="#000000" stroke-width="0.00000000000" stroke-linecap="square" stroke-linejoin="miter" stroke-miterlimit="2.00000000000" width="3.92524686358pt" height="2.98337730351pt" rx="0.95614987703pt" ry="1.18092018264pt"/>
  <rect id="shape3" transform="matrix(1 0 0 1 27.1256 23.1593)" fill="#1abc9c" fill-rule="evenodd" stroke="#000000" stroke-width="0.00000000000" stroke-linecap="square" stroke-linejoin="miter" stroke-miterlimit="2.00000000000" width="3.92524686358pt" height="2.98337730351pt" rx="0.95614987703pt" ry="1.18092018264pt"/>
  <rect id="shape4" transform="matrix(1 0 0 1 15.8163 27.9893)" fill="#1abc9c" fill-rule="evenodd" stroke="#000000" stroke-width="0.00000000000" stroke-linecap="square" stroke-linejoin="miter" stroke-miterlimit="2.00000000000" width="3.92524686358pt" height="2.98337730351pt" rx="0.95614987703pt" ry="1.18092018264pt"/>
  <rect id="shape5" transform="matrix(1 0 0 1 21.5055 27.9616)" fill="#1abc9c" fill-rule="evenodd" stroke="#000000" stroke-width="0.00000000000" stroke-linecap="square" stroke-linejoin="miter" stroke-miterlimit="2.00000000000" width="3.92524686358pt" height="2.98337730351pt" rx="0.95614987703pt" ry="1.18092018264pt"/>
  <rect id="shape6" transform="matrix(1 0 0 1 27.1566 27.8986)" fill="#1abc9c" fill-rule="evenodd" stroke="#000000" stroke-width="0.00000000000" stroke-linecap="square" stroke-linejoin="miter" stroke-miterlimit="2.00000000000" width="3.92524686358pt" height="2.98337730351pt" rx="0.95614987703pt" ry="1.18092018264pt"/>
  <rect id="shape7" transform="matrix(1 0 0 1 15.7925 32.7294)" fill="#1abc9c" fill-rule="evenodd" stroke="#000000" stroke-width="0.00000000000" stroke-linecap="square" stroke-linejoin="miter" stroke-miterlimit="2.00000000000" width="3.92524686358pt" height="2.98337730351pt" rx="0.95614987703pt" ry="1.18092018264pt"/>
  <rect id="shape8" transform="matrix(1 0 0 1 21.4817 32.7017)" fill="#1abc9c" fill-rule="evenodd" stroke="#000000" stroke-width="0.00000000000" stroke-linecap="square" stroke-linejoin="miter" stroke-miterlimit="2.00000000000" width="3.92524686358pt" height="2.98337730351pt" rx="0.95614987703pt" ry="1.18092018264pt"/>
  <rect id="shape9" transform="matrix(1 0 0 1 27.1328 32.6386)" fill="#1abc9c" fill-rule="evenodd" stroke="#000000" stroke-width="0.00000000000" stroke-linecap="square" stroke-linejoin="miter" stroke-miterlimit="2.00000000000" width="3.92524686358pt" height="2.98337730351pt" rx="0.95614987703pt" ry="1.18092018264pt"/>
 </g>
</svg>
