<?xml version="1.0" standalone="no"?>
<!DOCTYPE svg PUBLIC "-//W3C//DTD SVG 20010904//EN" "http://www.w3.org/TR/2001/REC-SVG-20010904/DTD/svg10.dtd">
<!-- Created using Karbon, part of Calligra: http://www.calligra.org/karbon -->
<svg xmlns="http://www.w3.org/2000/svg" xmlns:xlink="http://www.w3.org/1999/xlink" width="38.4pt" height="38.4pt">
<defs/>
<g id="layer1">
  <rect id="rect3264" transform="matrix(3.54331 0 0 3.54331 5.55112e-16 22)" fill="none" width="0.90311120000pt" height="0.90311120000pt" rx="0.45047569600pt" ry="0.45047569600pt"/>
  <rect id="rect4066" transform="matrix(3.54331 0 0 3.54331 44 22)" fill="none" width="0.90311120000pt" height="0.90311120000pt" rx="0.45047569600pt" ry="0.45047569600pt"/>
  <rect id="rect4068" transform="matrix(0 -3.54331 3.54331 0 22 48)" fill="none" width="0.90311120000pt" height="0.90311120000pt" rx="0.45047569600pt" ry="0.45047569600pt"/>
  <rect id="rect4070" transform="matrix(0 -3.54331 3.54331 0 22 4.00007)" fill="none" width="0.90311120000pt" height="0.90311120000pt" rx="0.45047569600pt" ry="0.45047569600pt"/>
  <rect id="rect4072" transform="matrix(3.54331 0 0 3.54331 4 3.99997)" fill="#3498db" fill-rule="evenodd" width="9.03111120000pt" height="9.03111120000pt"/>
  <rect id="rect4094" transform="matrix(0 -3.54331 3.54331 0 23 5.99946)" fill="none" width="0.45155558400pt" height="0.45155558400pt" rx="0.22523784800pt" ry="0.22523784800pt"/>
  <rect id="rect4096" transform="matrix(0 -3.54331 3.54331 0 23 6.00013)" fill="none" width="0.45155558400pt" height="0.45155558400pt" rx="0.22523784800pt" ry="0.22523784800pt"/>
  <rect id="rect4098" transform="matrix(3.54331 0 0 3.54331 6 6.00002)" fill="#2c2c2c" fill-rule="evenodd" width="8.12800080000pt" height="2.03199960000pt"/>
  <rect id="rect4100" transform="matrix(0 -3.54331 3.54331 0 4 9.32088)" fill="none" width="0.45155558400pt" height="0.45155558400pt" rx="0.22523784800pt" ry="0.22523784800pt"/>
  <rect id="rect4102" transform="matrix(0 -3.54331 3.54331 0 42 9.32088)" fill="none" width="0.45155558400pt" height="0.45155558400pt" rx="0.22523784800pt" ry="0.22523784800pt"/>
  <rect id="rect4104" transform="matrix(3.54331 0 0 3.54331 4 19.4995)" fill="none" width="2.03200096000pt" height="2.03200096000pt" rx="1.01356984000pt" ry="1.01356984000pt"/>
  <rect id="rect4106" transform="matrix(3.54331 0 0 3.54331 35 19.4995)" fill="none" width="2.03200096000pt" height="2.03200096000pt" rx="1.01356984000pt" ry="1.01356984000pt"/>
  <rect id="rect4125" transform="matrix(3.54331 0 0 3.54331 13 17)" fill="#2c2c2c" fill-rule="evenodd" width="0.90311120000pt" height="0.90311120000pt" rx="0.45047569600pt" ry="0.45047569600pt"/>
  <rect id="rect4127" transform="matrix(3.54331 0 0 3.54331 31 17)" fill="#2c2c2c" fill-rule="evenodd" width="0.90311120000pt" height="0.90311120000pt" rx="0.45047569600pt" ry="0.45047569600pt"/>
  <rect id="rect4129" transform="matrix(0 -3.54331 3.54331 0 23 16.9994)" fill="none" width="0.45155558400pt" height="0.45155558400pt" rx="0.22523784800pt" ry="0.22523784800pt"/>
  <rect id="rect4226" transform="matrix(0 -3.54331 3.54331 0 14 20.9999)" fill="none" width="0.45155558400pt" height="0.45155558400pt" rx="0.22523784800pt" ry="0.22523784800pt"/>
  <rect id="rect4228" transform="matrix(0 -3.54331 3.54331 0 32 20.9999)" fill="none" width="0.45155558400pt" height="0.45155558400pt" rx="0.22523784800pt" ry="0.22523784800pt"/>
  <rect id="rect4230" transform="matrix(0 -3.54331 3.54331 0 14 28.4995)" fill="#ffffff" fill-rule="evenodd" width="2.03200000000pt" height="0.45155558400pt" rx="0.22577779200pt" ry="0.22577779200pt"/>
  <rect id="rect4232" transform="matrix(0 -3.54331 3.54331 0 32 28.5201)" fill="#ffffff" fill-rule="evenodd" width="2.03200000000pt" height="0.45155558400pt" rx="0.22577779200pt" ry="0.22577779200pt"/>
  <rect id="rect4234" transform="matrix(3.54331 0 0 3.54331 14 26.5201)" fill="#ffffff" fill-rule="evenodd" width="4.51555480000pt" height="0.45155558400pt" rx="0.22577779200pt" ry="0.22577779200pt"/>
  <path id="shape0" transform="matrix(1 0 0 1 32.9845 32.9967)" fill="#ffffff" d="M10.9803 5.49021C11.0144 7.64839 9.62206 9.72972 7.62692 10.5464C5.66691 11.395 3.23255 10.9581 1.70298 9.46297C0.153749 8.02382 -0.411743 5.65268 0.311538 3.66684C1.01088 1.60856 3.03271 0.09189 5.20793 0.01036C7.32276 -0.126211 9.4354 1.09921 10.3797 2.99283C10.775 3.76125 10.9814 4.62518 10.9803 5.49021Z"/>
  <path id="shape1" transform="matrix(1 0 0 1 34.0393 35.2721)" fill="#3498db" d="M2.58464 5.1453C2.6449 3.80414 2.70622 2.46407 2.76755 1.12291C2.36193 0.748606 1.9563 0.374303 1.55175 0C1.36024 0.0196427 1.2505 0.265177 1.09449 0.38085C0.918035 0.504163 0.813671 0.682039 0.99873 0.854458C1.18056 1.15892 1.36347 1.46338 1.5453 1.76784C1.34948 2.0483 1.36885 2.51099 0.94063 2.47607C0.636143 2.55137 0.315517 2.58629 0.0201749 2.68778C-0.00629289 2.98024 -0.00715363 3.29234 0.0201749 3.5848C0.41235 3.71902 0.829809 3.79104 1.23221 3.90126C1.26556 4.27338 1.68947 4.61495 1.33549 4.92377C1.17195 5.19659 0.967528 5.45194 0.829809 5.73676C1.01487 5.96266 1.23113 6.18309 1.45492 6.37188C1.68194 6.21255 1.84871 5.9452 2.05206 5.74331C2.22959 5.54361 2.40712 5.345 2.58572 5.1453Z"/>
  <path id="shape2" transform="matrix(1 0 0 1 37.2885 34.1094)" fill="#3498db" d="M0.328129 1.86095C1.47603 2.56993 2.62285 3.28002 3.77075 3.989C4.30928 3.87029 4.8478 3.75048 5.38632 3.63176C5.47026 3.45479 5.31983 3.23055 5.30238 3.0338C5.29039 2.81615 5.19337 2.63149 4.94918 2.70294C4.59271 2.70294 4.23733 2.70294 3.88086 2.70294C3.74459 2.38417 3.34015 2.15883 3.59415 1.80489C3.69008 1.49821 3.83071 1.20033 3.89939 0.890353C3.66283 0.713382 3.39793 0.549601 3.13303 0.419895C2.81253 0.691398 2.53128 1.01786 2.22604 1.31135C1.89028 1.14647 1.37574 1.33773 1.29834 0.86727C1.15118 0.581478 1.04107 0.269304 0.871012 0C0.581038 0.0428689 0.277983 0.116515 0 0.213245C0.0130815 0.549601 0.136266 0.892552 0.192953 1.23111C0.237648 1.44105 0.283433 1.6521 0.328129 1.86205Z"/>
  <path id="shape3" transform="matrix(1 0 0 1 37.0963 39.0492)" fill="#3498db" d="M3.90672 0C2.7452 0.63157 1.58369 1.26206 0.42217 1.89254C0.281082 2.41903 0.141088 2.94552 0 3.4731C0.113745 3.63018 0.382797 3.60418 0.562164 3.68326C0.759031 3.77534 0.966835 3.77859 1.02261 3.53159C1.19433 3.22177 1.36604 2.91194 1.53775 2.60211C1.88117 2.63353 2.27381 2.38762 2.46084 2.77869C2.68067 3.00619 2.87316 3.27052 3.11159 3.47635C3.37846 3.35501 3.64969 3.20118 3.89031 3.03327C3.80828 2.62486 3.65954 2.22404 3.55126 1.81888C3.8564 1.60547 3.93843 1.06706 4.38576 1.22198C4.70621 1.23281 5.03214 1.28047 5.34931 1.26097C5.45103 0.986896 5.53305 0.688986 5.58337 0.400825C5.32963 0.279494 5.01354 0.264328 4.73574 0.184163C4.45904 0.123497 4.18233 0.0617487 3.90672 0Z"/>
  <path id="shape4" transform="matrix(1 0 0 1 35.8196 35.8337)" fill="#ffffff" d="M5.25893 2.63234C5.29049 3.96289 4.16182 5.1813 2.83398 5.25207C1.5094 5.386 0.208764 4.3527 0.0357092 3.03303C-0.192854 1.74277 0.701807 0.388266 1.97523 0.0877493C3.23777 -0.26721 4.67446 0.489528 5.09893 1.7297C5.20451 2.01824 5.25893 2.32529 5.25893 2.63234Z"/>
 </g>
</svg>
