<?xml version="1.0" encoding="UTF-8" standalone="no"?>
<!-- Created with Inkscape (http://www.inkscape.org/) -->

<svg
   xmlns:dc="http://purl.org/dc/elements/1.1/"
   xmlns:cc="http://creativecommons.org/ns#"
   xmlns:rdf="http://www.w3.org/1999/02/22-rdf-syntax-ns#"
   xmlns:svg="http://www.w3.org/2000/svg"
   xmlns="http://www.w3.org/2000/svg"
   xmlns:sodipodi="http://sodipodi.sourceforge.net/DTD/sodipodi-0.dtd"
   xmlns:inkscape="http://www.inkscape.org/namespaces/inkscape"
   width="48"
   height="48"
   id="svg2"
   version="1.1"
   inkscape:version="0.48.4 r9939"
   viewBox="0 0 13.546666 13.546668"
   sodipodi:docname="qtassistant.svg">
  <defs
     id="defs4" />
  <sodipodi:namedview
     id="base"
     pagecolor="#ffffff"
     bordercolor="#666666"
     borderopacity="1.0"
     inkscape:pageopacity="0"
     inkscape:pageshadow="2"
     inkscape:zoom="19.923256"
     inkscape:cx="37.672161"
     inkscape:cy="7.7608897"
     inkscape:document-units="px"
     inkscape:current-layer="layer1-2"
     showgrid="false"
     inkscape:showpageshadow="false"
     borderlayer="true"
     units="px"
     fit-margin-top="0"
     fit-margin-left="0"
     fit-margin-right="0"
     fit-margin-bottom="0"
     showguides="true"
     inkscape:window-width="1920"
     inkscape:window-height="991"
     inkscape:window-x="-2"
     inkscape:window-y="59"
     inkscape:window-maximized="1">
    <sodipodi:guide
       position="-6.6748425e-06,47.999999"
       orientation="47.999977,0"
       id="guide4120" />
    <sodipodi:guide
       position="-6.6748425e-06,2.2810037e-05"
       orientation="0,48.000004"
       id="guide4122" />
    <sodipodi:guide
       position="47.999997,2.2810037e-05"
       orientation="-47.999977,0"
       id="guide4124" />
    <sodipodi:guide
       position="47.999997,47.999999"
       orientation="0,-48.000004"
       id="guide4126" />
    <sodipodi:guide
       position="3.9999733,44.000154"
       orientation="39.999962,0"
       id="guide4138" />
    <sodipodi:guide
       position="3.9999733,4.0001921"
       orientation="0,40.000003"
       id="guide4140" />
    <sodipodi:guide
       position="43.999976,4.0001921"
       orientation="-39.999962,0"
       id="guide4142" />
    <sodipodi:guide
       position="43.999976,44.000154"
       orientation="0,-40.000003"
       id="guide4144" />
    <sodipodi:guide
       position="6.9999922,47.999999"
       orientation="39.999962,0"
       id="guide4148" />
    <sodipodi:guide
       position="6.9999922,8.0000369"
       orientation="0,34.000006"
       id="guide4150" />
    <sodipodi:guide
       position="40.999998,8.0000369"
       orientation="-39.999962,0"
       id="guide4152" />
    <sodipodi:guide
       position="40.999998,47.999999"
       orientation="0,-34.000006"
       id="guide4154" />
    <sodipodi:guide
       position="14.999993,32.999986"
       orientation="17.999951,0"
       id="guide4158" />
    <sodipodi:guide
       position="14.999993,15.000036"
       orientation="0,17.999998"
       id="guide4160" />
    <sodipodi:guide
       position="32.999991,15.000036"
       orientation="-17.999951,0"
       id="guide4162" />
    <sodipodi:guide
       position="32.999991,32.999986"
       orientation="0,-17.999998"
       id="guide4164" />
    <sodipodi:guide
       position="1.9999969,44.000046"
       orientation="39.999962,0"
       id="guide3279" />
    <sodipodi:guide
       position="1.9999969,4.0000839"
       orientation="0,44.000003"
       id="guide3281" />
    <sodipodi:guide
       position="46,4.0000839"
       orientation="-39.999962,0"
       id="guide3283" />
    <sodipodi:guide
       position="46,44.000046"
       orientation="0,-44.000003"
       id="guide3285" />
  </sodipodi:namedview>
  <metadata
     id="metadata7">
    <rdf:RDF>
      <cc:Work
         rdf:about="">
        <dc:format>image/svg+xml</dc:format>
        <dc:type
           rdf:resource="http://purl.org/dc/dcmitype/StillImage" />
        <dc:title />
      </cc:Work>
    </rdf:RDF>
  </metadata>
  <g
     inkscape:label="Capa 1"
     inkscape:groupmode="layer"
     id="layer1"
     transform="translate(38.119153,-397.84494)">
    <g
       transform="matrix(0.2775131,0,0,0.27096456,-38.115833,398.17898)"
       id="layer1-2">
      <path
         style="fill:#8bc941;fill-opacity:1;stroke:none"
         d="m 15.242555,2.9334043 c 6.389295,0.021457 18.305476,1e-7 29.492121,1.124e-4 0,11.4480553 0,24.6380083 0,30.1810813 0,5.500493 -5.758359,11.447943 -11.186645,11.447831 -6.581293,0.01284 -22.911767,0.06701 -29.4921216,0 0,-11.447831 0,-19.737416 0,-30.180857 0,-5.7274073 5.211019,-11.4481676 11.1866456,-11.4481677 z"
         id="rect3032"
         inkscape:connector-curvature="0"
         sodipodi:nodetypes="ccccccc" />
      <path
         style="fill:#f2f2f2"
         inkscape:connector-curvature="0"
         id="path2400"
         d="m 23.7826,40.225872 c 0.50988,0 0.53672,-0.07892 0.53672,-1.579119 0,-1.404615 -0.04877,-1.579221 -0.441382,-1.579221 -0.837068,0 -1.548495,-0.544531 -1.944277,-1.488088 -0.218382,-0.520504 -0.355665,-0.980632 -0.305158,-1.022264 0.0505,-0.04153 0.572412,-0.371374 1.159735,-0.733117 2.916031,-1.794735 4.223247,-5.821446 4.231617,-13.034459 0.01,-8.675759 -2.02201,-12.7886123 -6.839988,-13.8443303 -1.514967,-0.3319651 -3.233319,-0.15382 -4.581585,0.4750028 -2.013966,0.939289 -3.547857,3.4535135 -4.302709,7.0525835 -0.536826,2.559626 -0.530328,9.566322 0.01141,12.269092 0.794717,3.965092 2.670226,6.902948 4.921653,7.709594 0.833788,0.298778 0.950031,0.446665 1.300501,1.654202 0.545042,1.877999 1.032063,2.789347 1.808215,3.383382 0.776326,0.594344 2.313276,0.990676 3.258766,0.839993 0.357301,-0.05676 0.891231,-0.103251 1.18648,-0.103251 z m -5.109561,-9.063361 c -0.689059,-0.3692 -1.516286,-1.66083 -1.804349,-2.81731 -0.941843,-3.781061 -0.862966,-13.142329 0.13331,-15.819116 0.452244,-1.215076 1.496631,-2.183425 2.354903,-2.183425 0.949723,0 2.14413,1.231108 2.587918,2.667413 0.784734,2.539887 0.916917,11.066185 0.227136,14.649856 -0.548457,2.849414 -2.0022,4.304672 -3.498918,3.502582 z m 15.138124,1.762941 c 2.138512,-0.510458 2.260018,-0.623445 2.260018,-2.099104 0,-1.146436 -0.05282,-1.306129 -0.395494,-1.19687 -1.355414,0.432786 -1.671251,0.435893 -2.09955,0.01916 -0.418101,-0.406896 -0.442921,-0.78262 -0.442921,-6.710114 l 0,-6.279088 1.355991,0 1.355894,0 0,-1.426313 0,-1.426343 -1.355894,-0.164932 -1.355991,-0.164914 0,-2.281654 c 0,-1.2549164 -0.07629,-2.3315603 -0.169511,-2.3926008 -0.09322,-0.061011 -0.670348,-0.1494506 -1.282203,-0.1965503 L 30.568713,8.5205249 30.18082,10.221194 c -0.212995,0.935366 -0.451581,2.001322 -0.529891,2.368782 -0.121793,0.571612 -0.255901,0.668122 -0.928942,0.668122 l -0.786754,0 0,1.579191 0,1.579201 0.678043,0 0.677948,0 0,7.055278 c 0,8.620735 0.09014,8.95172 2.59904,9.545133 0.721431,0.17067 0.848613,0.16456 1.920899,-0.09145 z" />
      <path
         style="fill:#f2f2f2;fill-rule:evenodd;stroke:#003bc3;stroke-width:0;stroke-linecap:square;stroke-linejoin:bevel"
         inkscape:connector-curvature="0"
         id="path9"
         d="m 13.763097,68.86537 c -0.374415,-1.650217 0.678677,-2.87847 2.267287,-2.86485 1.588618,0.01362 2.371226,0.814408 2.19644,2.86485 -0.174776,2.050451 -3.165052,4.242751 -4.298404,4.946347 2.385678,-4.757525 0.189548,-3.382257 -0.165323,-4.946347 z" />
      <path
         style="fill:#f2f2f2;fill-rule:evenodd;stroke:#003bc3;stroke-width:0;stroke-linecap:square;stroke-linejoin:bevel"
         inkscape:connector-curvature="0"
         id="shape1"
         d="m 20.204783,68.86537 c -0.374415,-1.650217 0.678676,-2.87847 2.267287,-2.86485 1.588618,0.01362 2.371227,0.814408 2.19644,2.86485 -0.174776,2.050451 -3.165052,4.242751 -4.298404,4.946347 2.385678,-4.757525 0.189547,-3.382257 -0.165323,-4.946347 z" />
      <path
         style="fill:#f2f2f2"
         inkscape:connector-curvature="0"
         id="path829"
         d="m 36.056788,40.349208 c 0.461482,0 0.835569,0.404147 0.835569,0.902871 0,0.498733 -0.374087,0.902835 -0.835569,0.902835 -0.461457,0 -0.835543,-0.404102 -0.835543,-0.902835 0,-0.498724 0.374086,-0.902871 0.835543,-0.902871 z m 0.167109,-7.223 c 1.476683,0 2.67374,1.032073 2.67374,2.528051 0,0.54172 -0.33421,1.444599 -1.002619,1.805749 -0.668477,0.361151 -1.002661,0.846144 -1.002661,1.444601 l 0,0.722299 -1.671112,0 0,-0.541729 c 0,-1.228241 1.002652,-1.986321 1.33687,-2.34747 0.668426,-0.722301 0.668426,-0.822522 0.668426,-1.08345 0,-0.598458 -0.44891,-1.08345 -1.002644,-1.08345 -0.553759,0 -1.002652,0.484992 -1.002652,1.08345 l 0,0.54172 -1.671104,0 0,-0.36115 c 0,-1.495969 1.19709,-2.708621 2.673756,-2.708621 z" />
    </g>
  </g>
</svg>
