<?xml version="1.0" encoding="UTF-8" standalone="no"?>
<!-- Created with Inkscape (http://www.inkscape.org/) -->

<svg
   xmlns:dc="http://purl.org/dc/elements/1.1/"
   xmlns:cc="http://creativecommons.org/ns#"
   xmlns:rdf="http://www.w3.org/1999/02/22-rdf-syntax-ns#"
   xmlns:svg="http://www.w3.org/2000/svg"
   xmlns="http://www.w3.org/2000/svg"
   xmlns:sodipodi="http://sodipodi.sourceforge.net/DTD/sodipodi-0.dtd"
   xmlns:inkscape="http://www.inkscape.org/namespaces/inkscape"
   width="48px"
   height="48px"
   id="svg7412"
   sodipodi:version="0.32"
   inkscape:version="0.48.4 r9939"
   sodipodi:docname="sage-notebook.svg"
   inkscape:output_extension="org.inkscape.output.svg.inkscape"
   version="1.1">
  <defs
     id="defs7414">
    <inkscape:perspective
       id="perspective10"
       inkscape:persp3d-origin="372.04724 : 350.78739 : 1"
       inkscape:vp_z="744.09448 : 526.18109 : 1"
       inkscape:vp_y="0 : 1000 : 0"
       inkscape:vp_x="0 : 526.18109 : 1"
       sodipodi:type="inkscape:persp3d" />
  </defs>
  <sodipodi:namedview
     id="base"
     pagecolor="#ffffff"
     bordercolor="#666666"
     borderopacity="1.0"
     inkscape:pageopacity="0.0"
     inkscape:pageshadow="2"
     inkscape:zoom="9.8994949"
     inkscape:cx="17.164041"
     inkscape:cy="17.313289"
     inkscape:current-layer="layer1"
     showgrid="true"
     inkscape:grid-bbox="true"
     inkscape:document-units="px"
     inkscape:window-width="1440"
     inkscape:window-height="843"
     inkscape:window-x="0"
     inkscape:window-y="27"
     inkscape:window-maximized="1"
     inkscape:showpageshadow="false"
     borderlayer="true">
    <sodipodi:guide
       position="0,48"
       orientation="48,0"
       id="guide4108" />
    <sodipodi:guide
       position="0,0"
       orientation="0,48"
       id="guide4110" />
    <sodipodi:guide
       position="48,0"
       orientation="-48,0"
       id="guide4112" />
    <sodipodi:guide
       position="48,48"
       orientation="0,-48"
       id="guide4114" />
    <sodipodi:guide
       position="4,44"
       orientation="40,0"
       id="guide4116" />
    <sodipodi:guide
       position="4,4"
       orientation="0,40"
       id="guide4118" />
    <sodipodi:guide
       position="44,4"
       orientation="-40,0"
       id="guide4120" />
    <sodipodi:guide
       position="44,44"
       orientation="0,-40"
       id="guide4122" />
    <sodipodi:guide
       position="15,33"
       orientation="18,0"
       id="guide4125" />
    <sodipodi:guide
       position="15,15"
       orientation="0,18"
       id="guide4127" />
    <sodipodi:guide
       position="33,15"
       orientation="-18,0"
       id="guide4129" />
    <sodipodi:guide
       position="33,33"
       orientation="0,-18"
       id="guide4131" />
  </sodipodi:namedview>
  <metadata
     id="metadata7417">
    <rdf:RDF>
      <cc:Work
         rdf:about="">
        <dc:format>image/svg+xml</dc:format>
        <dc:type
           rdf:resource="http://purl.org/dc/dcmitype/StillImage" />
        <dc:title />
      </cc:Work>
    </rdf:RDF>
  </metadata>
  <g
     id="layer1"
     inkscape:label="Layer 1"
     inkscape:groupmode="layer">
    <rect
       style="fill:#8e44ad;fill-opacity:1;stroke:none"
       id="rect4105"
       width="40"
       height="40"
       x="4"
       y="4"
       ry="0" />
    <path
       style="opacity:0.98999999;fill:#ecf0f1;fill-opacity:1;stroke:none"
       d="m 19.917087,11.500002 c -0.521045,0 -0.942211,0.418838 -0.942211,0.93599 0,0.203445 0.07741,0.389903 0.188443,0.543479 l -2.355527,2.687198 c -0.09414,-0.02479 -0.180665,-0.06039 -0.282663,-0.06039 -0.63365,0 -1.162061,0.518428 -1.162061,1.147343 0,0.02378 0.02996,0.03698 0.0314,0.06039 l -2.072863,1.358695 c -0.152792,-0.105753 -0.333523,-0.181159 -0.53392,-0.181159 -0.521046,0 -0.94221,0.418838 -0.94221,0.93599 0,0.315273 0.167688,0.585137 0.408291,0.754831 L 11.876881,26.6872 c -0.229605,0.124573 -0.376884,0.386229 -0.376884,0.664251 0,0.405401 0.345327,0.724637 0.753769,0.724637 0.02163,0 0.04166,0.0018 0.06282,0 l 5.150752,5.22343 c -4.6e-4,0.01062 0,0.01946 0,0.03019 0,0.405401 0.313919,0.754831 0.722361,0.754831 0.144884,0 0.294197,-0.0493 0.408292,-0.120773 l 2.826633,1.479469 c -0.0058,0.04209 -0.0314,0.07709 -0.0314,0.120773 0,0.517167 0.421165,0.93599 0.942211,0.93599 0.487829,0 0.861631,-0.374108 0.910804,-0.845411 l 7.537685,-2.204106 c 0.171201,0.236822 0.469101,0.392512 0.785176,0.392512 0.521033,0 0.942211,-0.418824 0.942211,-0.935989 0,-0.218649 -0.09331,-0.414313 -0.219849,-0.573673 l 3.26633,-7.155797 c 0.521034,0 0.942211,-0.418824 0.942211,-0.93599 0,-0.453776 -0.322069,-0.81987 -0.753768,-0.905797 l -1.036434,-3.411835 c 0.162593,-0.134648 0.282663,-0.316864 0.282663,-0.543478 0,-0.405392 -0.345335,-0.724638 -0.753769,-0.724638 -0.03484,0 -0.06066,0.02557 -0.09422,0.03019 l -4.742462,-5.736715 c 0.0066,-0.0391 0.0314,-0.07985 0.0314,-0.120773 0,-0.405392 -0.345335,-0.724637 -0.753769,-0.724637 -0.243229,0 -0.43054,0.122037 -0.565326,0.301932 L 20.796484,12.13406 c -0.128653,-0.365259 -0.4675,-0.634058 -0.879397,-0.634058 z m 0.879397,1.268116 7.192209,0.271739 c 0.04726,0.16397 0.14524,0.297186 0.282663,0.392512 l -0.188442,0.815218 c -0.336563,0.07816 -0.603777,0.303581 -0.753769,0.603864 l -8.040198,0.966184 0.533919,-2.475846 c 0.0354,0.004 0.05775,0.03019 0.09422,0.03019 0.401337,0 0.743072,-0.253226 0.879397,-0.603865 z m 8.197234,0.724638 4.616833,5.585748 c -0.04839,0.09763 -0.09422,0.185781 -0.09422,0.301933 0,0.2027 0.08602,0.38045 0.219849,0.513285 l -0.376884,1.056763 -4.0201,-5.072464 c 0.08831,-0.161356 0.157036,-0.346937 0.157036,-0.543478 0,-0.492284 -0.313138,-0.897801 -0.753769,-1.056763 l 0.157035,-0.754831 c 0.03237,-0.01053 0.06399,-0.01552 0.09422,-0.03019 z m -9.547736,0.150966 -0.502513,2.204106 -1.538943,0.18116 c -0.0092,-0.0111 -0.02183,-0.01944 -0.0314,-0.03019 l 2.072864,-2.355072 z m 7.914571,2.506038 -2.32412,8.997585 c -0.0728,0.01639 -0.151735,0.03343 -0.21985,0.06039 l -5.967335,-6.733091 2.795225,-0.301933 c 0.125509,0.227896 0.379434,0.392512 0.659548,0.392512 0.408434,0 0.722362,-0.34943 0.722362,-0.754831 0,-0.05604 -0.01943,-0.09853 -0.0314,-0.150966 l 4.020099,-1.479468 0.345478,-0.03019 z m -1.727386,0.181159 -2.795227,1.02657 c -0.135656,-0.161383 -0.30561,-0.271739 -0.533919,-0.271739 -0.408442,0 -0.753768,0.319245 -0.753768,0.724637 0,0.0097 -3.8e-4,0.02054 0,0.03019 l -2.763819,0.332125 0.21985,-1.086956 6.626883,-0.754831 z m 2.983667,0.150966 4.365576,5.555556 -0.910804,2.536231 -5.464822,1.268116 c -0.0807,-0.147453 -0.188143,-0.252295 -0.314071,-0.362317 l 2.324121,-8.997586 z m -9.987435,0.664251 -0.188442,0.875604 -0.690955,-0.785024 0.879397,-0.09058 z m -2.983668,0.301934 c 0.05575,0.06705 0.118823,0.12828 0.188443,0.181159 l -0.157036,0.875604 -1.978642,0.241546 c -0.002,-0.0099 0.0023,-0.02042 0,-0.03019 l 1.947235,-1.268115 z m 0.816583,0.422705 c 0.02135,0.0012 0.04118,0 0.06282,0 0.02164,0 0.04147,0.0012 0.06282,0 l 0.439699,0.483092 -0.659547,0.09058 0.09422,-0.573672 z m 0.84799,0.785024 0.816583,0.905797 -0.376885,1.660628 c -0.392921,0.01735 -0.690954,0.330369 -0.690954,0.724637 0,0.228723 0.117449,0.408858 0.282663,0.543478 l -2.481155,3.743962 1.444723,-7.457729 1.005025,-0.120773 z m -1.695979,0.18116 -1.570352,8.12198 c -0.278429,0.05542 -0.496986,0.242602 -0.628141,0.483092 l -0.439698,-0.09058 c 0,-0.304045 -0.174268,-0.583012 -0.439698,-0.694444 l 0.376885,-6.823673 c 0.417251,-0.05695 0.727798,-0.370869 0.785175,-0.785024 l 1.915829,-0.211352 z m 2.763818,1.056763 5.590451,6.25 c -0.01082,0.03904 -0.02395,0.08046 -0.0314,0.120773 l -9.045223,0.966183 c -0.05844,-0.05801 -0.116362,-0.10972 -0.188443,-0.150966 l 2.889446,-4.438406 c 0.06194,0.01671 0.12117,0.03019 0.188442,0.03019 0.408434,0 0.753769,-0.319237 0.753769,-0.724638 0,-0.289855 -0.193922,-0.544943 -0.439698,-0.664251 l 0.282663,-1.388889 z m 15.640699,0.181159 c 0.01957,0.0062 0.04259,-0.0045 0.06282,0 l 0.847991,2.898551 -1.319096,-1.721015 0.408292,-1.177536 z m -0.816582,2.264492 1.319095,1.660628 -2.072864,0.483092 0.753769,-2.14372 z m 1.413315,2.596618 -2.983667,6.491546 0.06282,-4.045893 c 0.315322,-0.06405 0.565326,-0.332337 0.565326,-0.664252 0,-0.269114 -0.181208,-0.491209 -0.408291,-0.603864 l 0.21985,-0.573672 2.543969,-0.603865 z m -2.889446,0.694446 -0.157035,0.392512 c -0.382177,0 -0.690955,0.315121 -0.690955,0.694444 0,0.316852 0.208574,0.58498 0.502513,0.664252 l -0.09422,4.619565 c -0.230442,0.07047 -0.416189,0.249009 -0.53392,0.452897 l -4.11432,-0.905797 c 0,-0.405392 -0.345335,-0.724638 -0.753769,-0.724638 -0.397629,0 -0.736877,0.303912 -0.753768,0.694446 l -1.005025,0.241546 1.256281,-3.804349 c 0.687234,-0.01517 1.26257,-0.525936 1.381909,-1.177536 l 4.96231,-1.147342 z m -7.631907,1.570048 c 0.08623,0.157547 0.208083,0.308346 0.345478,0.422705 l -1.444724,4.408213 -3.015075,0.754831 -4.868089,-4.559179 c 0.0073,-0.0184 0.02537,-0.04145 0.0314,-0.06039 l 8.951003,-0.966184 z m -10.898238,0.785024 0.125628,0.03019 c 0.0059,0.03721 -0.01019,0.08516 0,0.120773 l -0.125628,-0.150966 z m 0.753768,0.75483 c 0.08932,0.02784 0.184087,0.06039 0.282664,0.06039 0.02113,0 0.04204,0.0014 0.06282,0 l 4.11432,3.834541 c -0.06474,-0.01839 -0.149158,-0.03019 -0.219849,-0.03019 -0.144887,0 -0.262788,0.0493 -0.376884,0.120773 l -3.863065,-3.985507 z m 11.243715,3.079711 c 0.105794,0.276989 0.374806,0.452899 0.690955,0.452899 0.306324,0 0.578686,-0.159247 0.690955,-0.422705 l 3.580401,0.785024 -6.97236,2.022947 0.847989,-2.566426 1.16206,-0.271739 z m -2.292712,0.573672 -0.753769,2.264493 c -0.04149,0.0084 -0.08632,0.01655 -0.125628,0.03019 l -1.7902,-1.660626 2.669597,-0.634058 z m -3.768843,0.905797 0.471105,0.452898 -0.659548,-0.362319 c 0.0015,-0.01911 0,-0.0409 0,-0.06039 l 0.188443,-0.03019 z"
       id="path5088"
       inkscape:connector-curvature="0" />
  </g>
</svg>
