<?xml version="1.0" encoding="UTF-8" standalone="no"?>
<!-- Created with Inkscape (http://www.inkscape.org/) -->

<svg
   xmlns:dc="http://purl.org/dc/elements/1.1/"
   xmlns:cc="http://creativecommons.org/ns#"
   xmlns:rdf="http://www.w3.org/1999/02/22-rdf-syntax-ns#"
   xmlns:svg="http://www.w3.org/2000/svg"
   xmlns="http://www.w3.org/2000/svg"
   xmlns:sodipodi="http://sodipodi.sourceforge.net/DTD/sodipodi-0.dtd"
   xmlns:inkscape="http://www.inkscape.org/namespaces/inkscape"
   width="48"
   height="48"
   id="svg2"
   version="1.1"
   inkscape:version="0.48.4 r9939"
   viewBox="0 0 13.546666 13.546668"
   sodipodi:docname="sigil.svg">
  <defs
     id="defs4" />
  <sodipodi:namedview
     id="base"
     pagecolor="#ffffff"
     bordercolor="#666666"
     borderopacity="1.0"
     inkscape:pageopacity="0"
     inkscape:pageshadow="2"
     inkscape:zoom="7.6897862"
     inkscape:cx="9.2443385"
     inkscape:cy="22.33505"
     inkscape:document-units="px"
     inkscape:current-layer="layer1"
     showgrid="false"
     inkscape:showpageshadow="false"
     borderlayer="true"
     units="px"
     fit-margin-top="0"
     fit-margin-left="0"
     fit-margin-right="0"
     fit-margin-bottom="0"
     showguides="false"
     inkscape:window-width="1440"
     inkscape:window-height="836"
     inkscape:window-x="0"
     inkscape:window-y="26"
     inkscape:window-maximized="1">
    <sodipodi:guide
       position="-6.6748425e-06,47.999999"
       orientation="47.999977,0"
       id="guide4120" />
    <sodipodi:guide
       position="-6.6748425e-06,2.2810037e-05"
       orientation="0,48.000004"
       id="guide4122" />
    <sodipodi:guide
       position="47.999997,2.2810037e-05"
       orientation="-47.999977,0"
       id="guide4124" />
    <sodipodi:guide
       position="47.999997,47.999999"
       orientation="0,-48.000004"
       id="guide4126" />
    <sodipodi:guide
       position="3.9999733,44.000154"
       orientation="39.999962,0"
       id="guide4138" />
    <sodipodi:guide
       position="3.9999733,4.0001921"
       orientation="0,40.000003"
       id="guide4140" />
    <sodipodi:guide
       position="43.999976,4.0001921"
       orientation="-39.999962,0"
       id="guide4142" />
    <sodipodi:guide
       position="43.999976,44.000154"
       orientation="0,-40.000003"
       id="guide4144" />
    <sodipodi:guide
       position="6.9999922,47.999999"
       orientation="39.999962,0"
       id="guide4148" />
    <sodipodi:guide
       position="6.9999922,8.0000369"
       orientation="0,34.000006"
       id="guide4150" />
    <sodipodi:guide
       position="40.999998,8.0000369"
       orientation="-39.999962,0"
       id="guide4152" />
    <sodipodi:guide
       position="40.999998,47.999999"
       orientation="0,-34.000006"
       id="guide4154" />
    <sodipodi:guide
       position="14.999993,32.999986"
       orientation="17.999951,0"
       id="guide4158" />
    <sodipodi:guide
       position="14.999993,15.000036"
       orientation="0,17.999998"
       id="guide4160" />
    <sodipodi:guide
       position="32.999991,15.000036"
       orientation="-17.999951,0"
       id="guide4162" />
    <sodipodi:guide
       position="32.999991,32.999986"
       orientation="0,-17.999998"
       id="guide4164" />
    <sodipodi:guide
       position="1.9999969,44.000046"
       orientation="39.999962,0"
       id="guide3279" />
    <sodipodi:guide
       position="1.9999969,4.0000839"
       orientation="0,44.000003"
       id="guide3281" />
    <sodipodi:guide
       position="46,4.0000839"
       orientation="-39.999962,0"
       id="guide3283" />
    <sodipodi:guide
       position="46,44.000046"
       orientation="0,-44.000003"
       id="guide3285" />
  </sodipodi:namedview>
  <metadata
     id="metadata7">
    <rdf:RDF>
      <cc:Work
         rdf:about="">
        <dc:format>image/svg+xml</dc:format>
        <dc:type
           rdf:resource="http://purl.org/dc/dcmitype/StillImage" />
        <dc:title />
      </cc:Work>
    </rdf:RDF>
  </metadata>
  <g
     inkscape:label="Capa 1"
     inkscape:groupmode="layer"
     id="layer1"
     transform="translate(38.119153,-397.84494)">
    <rect
       style="fill:#95a5a6;fill-opacity:1;stroke:none"
       id="rect4118"
       width="11.288891"
       height="11.288879"
       x="-36.990273"
       y="398.97379"
       ry="5.6444397" />
    <g
       style="font-size:8.87578582999999988px;font-style:normal;font-variant:normal;font-weight:normal;font-stretch:normal;line-height:125%;letter-spacing:0px;word-spacing:0px;fill:#9a2e22;fill-opacity:1;stroke:none;font-family:Iceberg;-inkscape-font-specification:Iceberg"
       id="text3005">
      <path
         d="m -29.213551,401.09049 c 0.03467,0.0116 0.04333,0.0347 0.026,0.0693 -0.01156,0.0347 -0.02023,0.0665 -0.026,0.0953 -0.01156,0.0405 -0.01734,0.0838 -0.01734,0.13002 0.0058,0.0405 0.0058,0.0809 0,0.12135 -0.0058,0.0751 -0.01156,0.15313 -0.01734,0.23402 -4e-6,0.0809 -0.0087,0.15892 -0.026,0.23403 -0.0058,0.0347 -0.01445,0.0693 -0.026,0.10402 -0.01156,0.0289 -0.02312,0.0607 -0.03467,0.0953 -0.0058,0.0289 -0.0087,0.0607 -0.0087,0.0953 -4e-6,0.0347 -0.0058,0.0665 -0.01734,0.0953 -0.01156,0.0578 -0.02023,0.11558 -0.026,0.17336 -0.0058,0.0578 -0.01445,0.11846 -0.026,0.18202 -0.0058,0.0289 -0.01156,0.0607 -0.01734,0.0953 -4e-6,0.0347 -0.0029,0.0693 -0.0087,0.10401 -0.0058,0.0289 -0.01156,0.0578 -0.01734,0.0867 -0.0058,0.0289 -0.01445,0.0578 -0.026,0.0867 -0.01156,0.0578 -0.02312,0.11557 -0.03467,0.17335 -0.01156,0.0578 -0.02312,0.11846 -0.03467,0.18202 -0.02312,0.0636 -0.03757,0.10402 -0.04334,0.12135 -4e-6,0.0116 -0.0058,0.0202 -0.01734,0.026 -0.0289,0 -0.04045,-0.0116 -0.03467,-0.0347 0.0058,-0.0289 0.0058,-0.0578 0,-0.0867 -0.0058,-0.0231 -0.01156,-0.0433 -0.01733,-0.0607 -4e-6,-0.0173 -4e-6,-0.0376 0,-0.0607 -0.0058,-0.0231 -0.0087,-0.0433 -0.0087,-0.0607 -4e-6,-0.0231 -0.0029,-0.0462 -0.0087,-0.0693 -4e-6,-0.0173 -4e-6,-0.0347 0,-0.052 -4e-6,-0.0231 -0.0029,-0.0433 -0.0087,-0.0607 -0.0058,-0.0231 -0.01445,-0.0433 -0.026,-0.0607 -0.01156,-0.0231 -0.02312,-0.0491 -0.03467,-0.078 -0.01156,-0.0289 -0.02312,-0.0578 -0.03467,-0.0867 -0.01156,-0.0347 -0.02312,-0.0665 -0.03467,-0.0953 -0.01156,-0.0173 -0.02601,-0.0347 -0.04334,-0.052 -0.01156,-0.0173 -0.02312,-0.0376 -0.03467,-0.0607 -0.01734,-0.0578 -0.0289,-0.0896 -0.03467,-0.0953 -0.0058,-0.006 -0.01156,-0.0144 -0.01734,-0.026 -0.01156,-0.0289 -0.01734,-0.0549 -0.01734,-0.078 -3e-6,-0.0231 -0.0058,-0.0462 -0.01734,-0.0693 -0.01734,-0.0231 -0.02601,-0.0404 -0.026,-0.052 -4e-6,-0.0173 -0.0058,-0.0318 -0.01734,-0.0433 -0.06935,-0.0693 -0.121352,-0.11557 -0.15602,-0.13869 -0.05201,-0.0462 -0.08668,-0.0722 -0.104013,-0.078 -0.01156,-0.006 -0.0289,-0.0144 -0.05201,-0.026 -0.02312,-0.0115 -0.0549,-0.0231 -0.09535,-0.0347 -0.04045,-0.0173 -0.07512,-0.0318 -0.104013,-0.0433 -0.02312,-0.0231 -0.04334,-0.0318 -0.06067,-0.026 -0.01734,0 -0.03178,-0.003 -0.04334,-0.009 -0.0289,-0.0115 -0.05779,-0.0231 -0.08668,-0.0347 -0.02889,-0.0173 -0.05779,-0.0289 -0.08668,-0.0347 -0.02889,-0.0115 -0.0549,-0.0173 -0.07801,-0.0173 -0.02312,1e-5 -0.04623,-0.003 -0.06934,-0.009 -0.03467,-0.0115 -0.06934,-0.0202 -0.104013,-0.026 -0.03467,-0.0115 -0.06646,-0.0231 -0.09535,-0.0347 -0.01734,-0.0115 -0.03756,-0.0202 -0.06067,-0.026 -0.01734,-0.0116 -0.03178,-0.0202 -0.04334,-0.026 -0.02312,0.006 -0.04334,0.006 -0.06067,0 -0.01156,-0.006 -0.02312,-0.009 -0.03467,-0.009 -0.0289,-0.006 -0.06357,-0.0115 -0.104013,-0.0173 -0.03467,-0.006 -0.06645,-0.0115 -0.09534,-0.0173 -0.07512,1e-5 -0.132908,-0.003 -0.173356,-0.009 -0.04045,-0.0116 -0.08379,-0.0116 -0.130016,0 -0.04623,0.006 -0.08957,0.0202 -0.130016,0.0433 -0.04045,0.0231 -0.07801,0.0491 -0.112681,0.078 -0.03467,0.0405 -0.06934,0.0722 -0.104013,0.0953 -0.03467,0.0173 -0.06356,0.0376 -0.08668,0.0607 -0.04045,0.0578 -0.06934,0.10113 -0.08668,0.13002 -0.01156,0.0289 -0.02312,0.0607 -0.03467,0.0953 -0.02889,0.0462 -0.04334,0.0751 -0.04334,0.0867 0.0058,0.0116 0.0058,0.0231 0,0.0347 -0.01156,0.0231 -0.02312,0.0434 -0.03467,0.0607 -0.0058,0.0173 -0.01156,0.0318 -0.01734,0.0433 -0.01734,0.0867 -0.026,0.14158 -0.026,0.16468 0.0058,0.0231 0.01445,0.0491 0.026,0.078 0.0058,0.0289 0.0058,0.0549 0,0.078 -10e-7,0.0231 -10e-7,0.0491 0,0.078 0.0058,0.0462 0.0058,0.0722 0,0.078 -0.0058,0.006 -0.0087,0.0145 -0.0087,0.026 -0.02311,0.0693 -0.03178,0.14735 -0.026,0.23403 0.02311,0.0925 0.03467,0.15602 0.03467,0.19069 -10e-7,0.0289 0.0058,0.0549 0.01734,0.078 0.0058,0.0173 0.01156,0.0318 0.01734,0.0433 0.0058,0.0116 0.01445,0.026 0.026,0.0433 0.01156,0.0173 0.01733,0.0347 0.01734,0.052 -1e-6,0.0173 0.0058,0.0318 0.01733,0.0433 0.01156,0.0289 0.03467,0.0665 0.06934,0.11268 0.03467,0.0347 0.0549,0.0607 0.06068,0.078 0.01156,0.0173 0.02311,0.0405 0.03467,0.0693 0.01733,0.0231 0.03467,0.0462 0.05201,0.0693 0.01156,0.0116 0.02311,0.026 0.03467,0.0433 0.01733,0.0116 0.02889,0.0318 0.03467,0.0607 0.04623,0.0116 0.08668,0.0289 0.121349,0.052 0.03467,0.0231 0.07223,0.0491 0.112681,0.078 0.05201,0.0462 0.08668,0.0693 0.104013,0.0693 0.02311,0 0.04045,0.006 0.05201,0.0173 0.02889,0.0231 0.05489,0.0376 0.07801,0.0433 0.02311,0 0.04623,0.003 0.06934,0.009 0.03467,0.0231 0.05778,0.0318 0.06934,0.026 0.01156,-0.006 0.02311,-0.003 0.03467,0.009 0.01156,0.006 0.02889,0.009 0.05201,0.009 0.02311,-0.006 0.04912,-0.006 0.07801,0 0.02311,0.006 0.04912,0.0116 0.07801,0.0173 0.03467,0.006 0.06934,0.0145 0.104013,0.026 0.06356,0.006 0.127125,0.0173 0.190691,0.0347 0.04045,0.0173 0.06356,0.026 0.06934,0.026 0.0058,-0.006 0.01444,-0.006 0.026,0 0.01733,0.006 0.03467,0.0116 0.05201,0.0173 0.02311,0 0.04045,0.006 0.05201,0.0173 0.0809,0.0231 0.14446,0.0347 0.190691,0.0347 0.01733,0.006 0.03467,0.0116 0.05201,0.0173 0.02311,0 0.04045,0.003 0.05201,0.009 0.02889,0.0173 0.04911,0.026 0.06067,0.026 0.01733,0 0.02889,0.003 0.03467,0.009 0.02889,0.006 0.05489,0.0116 0.07801,0.0173 0.02889,10e-6 0.05489,0.006 0.07801,0.0173 0.02889,0.0289 0.04622,0.0433 0.05201,0.0433 0.01155,-0.006 0.02311,-0.006 0.03467,0 0.02889,0.0289 0.052,0.0433 0.06934,0.0433 0.01733,0 0.03178,0.003 0.04334,0.009 0.05778,0.0289 0.112678,0.0549 0.164688,0.078 0.052,0.0173 0.10112,0.0433 0.147352,0.078 0.07512,0.0578 0.130012,0.11269 0.164687,0.16469 0.04045,0.0462 0.07512,0.0925 0.104013,0.13869 0.04045,0.0693 0.06356,0.10979 0.06934,0.12134 0.02311,0.0578 0.03756,0.0896 0.04334,0.0953 0.01155,0.006 0.01733,0.0145 0.01734,0.026 0.01155,0.0231 0.01733,0.052 0.01733,0.0867 0.0058,0.0289 0.01155,0.0578 0.01734,0.0867 0.0058,0.0462 0.0087,0.0925 0.0087,0.13868 0.0058,0.0462 0.0087,0.10113 0.0087,0.16469 -0.0058,0.0462 -0.0087,0.0722 -0.0087,0.078 0.0058,0.006 0.0087,0.0145 0.0087,0.026 -0.0058,0.0289 -0.01445,0.0636 -0.026,0.10402 -0.0058,0.0347 -0.01445,0.0693 -0.026,0.10401 -0.01734,0.0693 -0.03179,0.11268 -0.04334,0.13001 -0.0058,0.0173 -0.01445,0.0405 -0.026,0.0694 -0.0289,0.0636 -0.0549,0.12713 -0.07801,0.19069 -0.02312,0.0636 -0.04912,0.11846 -0.07801,0.16469 -0.0289,0.0405 -0.04912,0.0665 -0.06067,0.078 -0.0058,0.006 -0.01445,0.0144 -0.026,0.026 -0.03468,0.0578 -0.05201,0.0925 -0.05201,0.10401 0.0058,0.0116 0.0058,0.0231 0,0.0347 -0.04623,0.0578 -0.07224,0.0954 -0.07801,0.11268 -0.0058,0.0173 -0.01445,0.0318 -0.026,0.0433 -0.05201,0.0578 -0.0809,0.0896 -0.08668,0.0953 -0.0058,0 -0.01156,0.003 -0.01733,0.009 -0.01156,0.0115 -0.02312,0.0318 -0.03467,0.0607 -0.01156,0.0231 -0.02601,0.0433 -0.04334,0.0607 -0.04623,0.0404 -0.07512,0.0636 -0.08668,0.0693 -0.0058,0 -0.01156,0.003 -0.01733,0.009 -0.0289,0.0347 -0.04912,0.0549 -0.06067,0.0607 -0.01156,0.006 -0.02312,0.0144 -0.03467,0.026 l -0.07801,0.0607 c -0.0809,0.0405 -0.138687,0.0751 -0.173355,0.10401 -0.0809,0.0404 -0.138687,0.0693 -0.173355,0.0867 -0.03467,0.0115 -0.06935,0.0231 -0.104013,0.0347 -0.02889,0.0115 -0.05779,0.026 -0.08668,0.0433 -0.02312,0.0115 -0.05201,0.0231 -0.08668,0.0347 -0.03467,0.0231 -0.07223,0.0405 -0.112681,0.052 -0.04045,0.0173 -0.08379,0.0347 -0.130016,0.052 -0.0289,0.0116 -0.07223,0.0231 -0.130017,0.0347 -0.05201,0.0173 -0.101126,0.0289 -0.147352,0.0347 -0.06934,0.0116 -0.144464,0.0231 -0.225362,0.0347 -0.07512,0.0116 -0.150243,0.0116 -0.225361,0 -0.01734,0.006 -0.04045,0.009 -0.06934,0.009 -0.02312,0 -0.05201,-0.003 -0.08668,-0.009 -0.02889,-0.006 -0.06068,-0.0115 -0.09535,-0.0173 -0.02889,-0.006 -0.04912,-0.0116 -0.06068,-0.0173 -0.04045,-0.0231 -0.07223,-0.0376 -0.09534,-0.0433 -0.02312,0 -0.04912,-0.006 -0.07801,-0.0173 -0.02311,-0.0116 -0.04623,-0.0231 -0.06934,-0.0347 -0.02311,-0.006 -0.04912,-0.0145 -0.07801,-0.026 -0.04623,-0.0289 -0.07801,-0.0462 -0.09535,-0.052 -0.01156,0 -0.02311,-0.003 -0.03467,-0.009 -0.04045,-0.0462 -0.06934,-0.0693 -0.08668,-0.0693 -0.01156,0 -0.02312,-0.006 -0.03467,-0.0173 -0.01156,-0.0116 -0.026,-0.026 -0.04334,-0.0433 -0.01156,-0.0173 -0.026,-0.0318 -0.04334,-0.0433 -0.01734,-0.0115 -0.03467,-0.0173 -0.05201,-0.0173 -0.01156,-0.006 -0.02312,-0.0173 -0.03467,-0.0347 -0.02311,-0.006 -0.05201,-0.0318 -0.08668,-0.078 -0.02889,-0.0405 -0.04623,-0.0607 -0.05201,-0.0607 -0.0058,0 -0.01156,-0.006 -0.01734,-0.0173 -0.04623,-0.0405 -0.07223,-0.0665 -0.07801,-0.078 -10e-7,-0.0116 -0.0058,-0.0231 -0.01734,-0.0347 -0.02311,-0.0289 -0.04045,-0.0636 -0.05201,-0.10402 -0.01734,-0.0347 -0.03178,-0.0636 -0.04334,-0.0867 -0.01156,-0.0173 -0.02311,-0.0376 -0.03467,-0.0607 -0.01156,-0.0231 -0.026,-0.0433 -0.04334,-0.0607 -0.02889,-0.0405 -0.04623,-0.0607 -0.05201,-0.0607 -0.0058,-0.006 -0.01156,-0.0144 -0.01734,-0.026 -0.03467,-0.0405 -0.04912,-0.0665 -0.04334,-0.078 0.0058,-0.0116 0.0029,-0.0231 -0.0087,-0.0347 -0.01734,-0.0347 -0.03178,-0.0578 -0.04334,-0.0693 -0.0058,-0.0116 -0.0087,-0.0231 -0.0087,-0.0347 -0.01156,-0.0636 -0.01156,-0.12424 0,-0.18203 0.01156,-0.0578 0.026,-0.10979 0.04334,-0.15602 0.01156,-0.0231 0.02022,-0.0433 0.026,-0.0607 0.01156,-0.0231 0.02311,-0.0462 0.03467,-0.0693 0.01734,-0.0405 0.03756,-0.0809 0.06067,-0.12135 0.02311,-0.0462 0.04045,-0.0925 0.05201,-0.13869 0.02311,-0.0231 0.04623,-0.0433 0.06934,-0.0607 0.02311,-0.0231 0.04623,-0.0491 0.06934,-0.078 0.02311,-0.0231 0.04334,-0.0491 0.06067,-0.078 0.02311,-0.0289 0.04912,-0.0549 0.07801,-0.078 0.01734,-0.0115 0.03756,-0.0231 0.06067,-0.0347 0.02889,-0.0116 0.05201,-0.026 0.06934,-0.0433 0.01733,-0.0173 0.03467,-0.0318 0.05201,-0.0433 0.01734,-0.0115 0.03756,-0.026 0.06067,-0.0433 0.04045,-0.0289 0.06934,-0.0491 0.08668,-0.0607 0.02311,-0.0116 0.05778,-0.0231 0.104013,-0.0347 0.08668,-0.0173 0.141572,-0.0318 0.164687,-0.0433 0.02889,-0.0173 0.05201,-0.026 0.06934,-0.026 0.01156,-0.006 0.026,-0.006 0.04334,0 0.02311,0 0.04334,0 0.06067,0 0.03467,-0.006 0.07512,-0.009 0.121348,-0.009 0.04623,0 0.08379,0.006 0.112681,0.0173 0.07512,0.052 0.118458,0.0896 0.130016,0.11268 0.052,0.0636 0.08668,0.10691 0.104014,0.13002 0.01733,0.0173 0.03178,0.0376 0.04334,0.0607 0.03467,0.0405 0.05489,0.0722 0.06067,0.0953 0.0058,0.0173 0.01444,0.0318 0.026,0.0433 0.04045,0.0462 0.06067,0.0838 0.06067,0.11268 0.0058,0.0231 0.01444,0.0462 0.026,0.0693 0.0058,0.0231 0.01155,0.0433 0.01733,0.0607 0.0058,0.0173 0.0087,0.0347 0.0087,0.052 0.01156,0.1098 0.01156,0.20514 0,0.28604 -0.01734,0.0578 -0.02601,0.0953 -0.026,0.11268 -2e-6,0.0116 -2e-6,0.0231 0,0.0347 -0.04045,0.0636 -0.06646,0.10402 -0.07801,0.12135 -0.0058,0.0116 -0.02312,0.0318 -0.05201,0.0607 -0.01734,0.0173 -0.03467,0.0347 -0.05201,0.052 -0.01734,0.0116 -0.03756,0.0289 -0.06067,0.052 -0.0058,0.006 -0.01734,0.0173 -0.03467,0.0347 -0.01734,0.0173 -0.03467,0.0289 -0.05201,0.0347 -0.02312,0.0116 -0.06934,0.0173 -0.138684,0.0173 -0.06934,-0.006 -0.112683,-0.0115 -0.130017,-0.0173 -0.05779,-0.0289 -0.08957,-0.0433 -0.09535,-0.0433 -0.0058,0 -0.01445,-0.003 -0.026,-0.009 -0.04623,-0.0405 -0.06934,-0.0578 -0.06934,-0.052 -10e-7,0 -0.0029,-0.003 -0.0087,-0.009 -0.05201,-0.0462 -0.07801,-0.0809 -0.07801,-0.10401 -1e-6,-0.0289 -0.0029,-0.0549 -0.0087,-0.078 -1e-6,-0.0289 -1e-6,-0.0491 0,-0.0607 0.0058,-0.0173 0.01444,-0.0405 0.026,-0.0693 0.01156,-0.0173 0.026,-0.0404 0.04334,-0.0693 0.01733,-0.0289 0.04045,-0.0491 0.06934,-0.0607 0.07512,-0.0347 0.127126,-0.0433 0.15602,-0.026 0.03467,0.0173 0.07801,0.026 0.130016,0.026 -0.01156,0.0405 -0.02889,0.0694 -0.05201,0.0867 -0.01734,0.0173 -0.04045,0.0347 -0.06934,0.052 -0.02889,0.0231 -0.06068,0.0405 -0.09535,0.052 -0.02889,0.0116 -0.03756,0.0405 -0.026,0.0867 0.104012,0.0578 0.173354,0.0838 0.208026,0.078 0.03467,-0.0116 0.0809,-0.0289 0.138684,-0.052 0.02889,-0.0115 0.05489,-0.0202 0.07801,-0.026 0.02889,-0.0116 0.05489,-0.0231 0.07801,-0.0347 0.02889,-0.0982 0.03756,-0.18202 0.026,-0.25137 -0.01156,-0.0693 -0.02889,-0.14446 -0.05201,-0.22536 -0.02312,-0.0809 -0.04334,-0.13001 -0.06067,-0.14735 -0.01156,-0.0173 -0.01734,-0.0405 -0.01733,-0.0693 -0.01734,-0.0231 -0.04045,-0.0376 -0.06934,-0.0433 -0.02312,-0.0115 -0.04623,-0.0231 -0.06934,-0.0347 -0.01734,-0.0231 -0.04045,-0.0404 -0.06934,-0.052 -0.02312,-0.0173 -0.04912,-0.026 -0.07801,-0.026 -0.02889,0 -0.06356,0.0145 -0.104013,0.0433 l -0.08668,0.0433 c -0.04623,0.0231 -0.07223,0.0376 -0.07801,0.0433 -10e-7,0.006 -0.0058,0.0115 -0.01733,0.0173 -0.07512,0.0462 -0.124239,0.0838 -0.147352,0.11268 -0.01734,0.0289 -0.03756,0.0549 -0.06067,0.078 -0.02311,0.0173 -0.04623,0.0404 -0.06934,0.0693 -0.01734,0.0289 -0.03756,0.0549 -0.06068,0.078 -0.04045,0.0231 -0.06645,0.0433 -0.07801,0.0607 -0.01156,0.0173 -0.02311,0.0376 -0.03467,0.0607 -0.0058,0.0116 -0.01445,0.0289 -0.026,0.052 -0.01156,0.0231 -0.02022,0.0462 -0.026,0.0693 -1e-6,0.0116 -1e-6,0.0289 0,0.052 0.0058,0.0231 0.0058,0.0462 0,0.0693 -1e-6,0.0462 -1e-6,0.0838 0,0.11268 -1e-6,0.0231 0.0087,0.0607 0.026,0.11268 0.01734,0.052 0.026,0.0896 0.026,0.11268 0.03467,0.0289 0.05201,0.052 0.05201,0.0693 -10e-7,0.0116 0.0058,0.0231 0.01734,0.0347 0.02311,0.0404 0.04623,0.0722 0.06934,0.0953 0.02311,0.0173 0.04912,0.0376 0.07801,0.0607 0.05201,0.052 0.09246,0.10112 0.121349,0.14735 0.03467,0.0405 0.07223,0.0751 0.112681,0.10401 0.052,0.0347 0.101122,0.0607 0.147352,0.078 0.05201,0.0173 0.118458,0.0202 0.199358,0.009 0.04623,-0.0116 0.101122,-0.0173 0.164688,-0.0173 0.06356,0 0.118457,-0.006 0.164687,-0.0173 0.02889,-0.006 0.05778,-0.0145 0.08668,-0.026 0.03467,-0.0115 0.07223,-0.0231 0.112681,-0.0347 0.02311,-0.0115 0.04623,-0.0173 0.06934,-0.0173 0.02889,0 0.06067,-0.006 0.09535,-0.0173 0.04045,-0.0116 0.0809,-0.0231 0.121349,-0.0347 0.04622,-0.0116 0.09534,-0.0173 0.147352,-0.0173 0.03467,-0.0231 0.07223,-0.0404 0.11268,-0.052 0.04045,-0.0116 0.07801,-0.0289 0.112681,-0.052 0.01733,-0.0115 0.03467,-0.0202 0.05201,-0.026 0.02311,-0.006 0.04334,-0.0145 0.06067,-0.026 l 0.104013,-0.052 c 0.10401,-0.0636 0.187799,-0.1618 0.251365,-0.29471 0.01155,-0.0289 0.02311,-0.0549 0.03467,-0.078 0.01155,-0.0231 0.02311,-0.0491 0.03467,-0.078 0.03467,-0.0636 0.05778,-0.11268 0.06934,-0.14736 0.01155,-0.0231 0.026,-0.0462 0.04334,-0.0693 0.01733,-0.0289 0.02889,-0.0578 0.03467,-0.0867 -3e-6,-0.0289 -0.0058,-0.0549 -0.01734,-0.078 -0.0058,-0.0289 -0.0087,-0.0607 -0.0087,-0.0953 -3e-6,-0.0231 -3e-6,-0.0462 0,-0.0693 0.0058,-0.0289 0.0087,-0.0578 0.0087,-0.0867 l 0,-0.15602 c -4e-6,-0.0693 0.0058,-0.12713 0.01734,-0.17336 0.01155,-0.052 0.01444,-0.10979 0.0087,-0.17335 -0.0058,-0.0462 -0.01734,-0.0925 -0.03467,-0.13869 -0.01156,-0.0462 -0.02601,-0.0925 -0.04334,-0.13868 -0.02312,-0.0347 -0.04045,-0.052 -0.05201,-0.052 -0.0058,-0.006 -0.0087,-0.0144 -0.0087,-0.026 -0.04045,-0.0636 -0.06646,-0.0953 -0.07801,-0.0953 -0.0058,0 -0.01156,-0.003 -0.01734,-0.009 -0.05779,-0.0347 -0.08957,-0.0664 -0.09535,-0.0953 -0.06357,-0.0115 -0.09824,-0.0202 -0.104013,-0.026 -0.0058,-0.006 -0.01445,-0.009 -0.026,-0.009 -0.06935,-0.0289 -0.121352,-0.0491 -0.15602,-0.0607 -0.02889,-0.0116 -0.06068,-0.0231 -0.09535,-0.0347 -0.0809,-0.0173 -0.130019,-0.026 -0.147352,-0.026 -0.01734,-0.006 -0.04045,-0.0144 -0.06934,-0.026 -0.0289,-0.0231 -0.0549,-0.0347 -0.07801,-0.0347 -0.02312,0 -0.04045,-0.003 -0.05201,-0.009 -0.05779,-0.0173 -0.09246,-0.0289 -0.104013,-0.0347 -0.0058,-0.006 -0.01445,-0.009 -0.026,-0.009 -0.06934,-0.0173 -0.104015,-0.026 -0.104013,-0.026 -0.05201,-0.0231 -0.09824,-0.0347 -0.138684,-0.0347 -0.03467,-0.006 -0.07223,-0.0145 -0.112681,-0.026 -0.05779,-0.0173 -0.104015,-0.026 -0.138684,-0.026 -0.05779,-0.0231 -0.101126,-0.0376 -0.130017,-0.0433 -0.02889,-0.0115 -0.0549,-0.0144 -0.07801,-0.009 -0.02311,10e-6 -0.04623,-0.006 -0.06934,-0.0173 -0.06934,-0.0347 -0.127128,-0.0578 -0.173355,-0.0693 -0.02311,-0.0116 -0.04623,-0.026 -0.06934,-0.0433 -0.01734,-0.0173 -0.03756,-0.0318 -0.06067,-0.0433 -0.06934,-0.0231 -0.104014,-0.0347 -0.104013,-0.0347 -10e-7,-0.006 -0.0058,-0.0116 -0.01734,-0.0173 -0.01734,-0.0115 -0.03467,-0.0231 -0.05201,-0.0347 -0.01156,-0.0115 -0.03178,-0.0231 -0.06067,-0.0347 -0.02312,-0.0173 -0.04623,-0.0347 -0.06934,-0.052 -0.02311,-0.0231 -0.04045,-0.0491 -0.05201,-0.078 l -0.07801,-0.0693 c -0.06356,-0.0462 -0.101125,-0.0751 -0.112681,-0.0867 -0.0058,-0.0173 -0.02311,-0.0318 -0.05201,-0.0433 -0.01734,-0.0462 -0.03756,-0.0867 -0.06067,-0.12135 -0.01734,-0.0347 -0.03178,-0.0693 -0.04334,-0.10402 -0.01734,-0.0289 -0.03178,-0.0578 -0.04334,-0.0867 -0.01156,-0.0116 -0.02023,-0.0289 -0.026,-0.052 0,-0.0289 -0.0058,-0.052 -0.01734,-0.0693 -0.01156,-0.0173 -0.02022,-0.0376 -0.026,-0.0607 -0.0058,-0.0289 -0.01445,-0.0549 -0.026,-0.078 -0.01734,-0.0578 -0.02889,-0.0867 -0.03467,-0.0867 0,0 0,-0.003 0,-0.009 -0.02889,-0.0751 -0.05201,-0.12712 -0.06934,-0.15602 -0.01156,-0.0289 -0.02311,-0.0578 -0.03467,-0.0867 -0.0058,-0.0231 -0.0087,-0.0462 -0.0087,-0.0693 0,-0.0231 0,-0.0462 0,-0.0693 -0.0058,-0.0405 -0.01156,-0.0722 -0.01734,-0.0953 0,-0.0289 0.0058,-0.0636 0.01734,-0.10401 0.01156,-0.0347 0.02311,-0.0693 0.03467,-0.10402 0.01156,-0.0404 0.02311,-0.0809 0.03467,-0.12134 0.02889,-0.10401 0.05201,-0.17335 0.06934,-0.20803 0.01156,-0.0289 0.02311,-0.0549 0.03467,-0.078 0.01156,-0.0289 0.02311,-0.0578 0.03467,-0.0867 0.02889,-0.0462 0.04334,-0.0751 0.04334,-0.0867 0.01156,-0.0462 0.026,-0.0867 0.04334,-0.12134 0.03467,-0.0636 0.08379,-0.13001 0.147352,-0.19936 0.03467,-0.0347 0.0549,-0.0549 0.06067,-0.0607 0.01156,-0.0115 0.02311,-0.0231 0.03467,-0.0347 0.03467,-0.0462 0.05779,-0.0722 0.06934,-0.078 0.01734,-0.0115 0.03178,-0.026 0.04334,-0.0433 0.04623,-0.0462 0.07223,-0.0722 0.07801,-0.078 0.0058,-0.006 0.01734,-0.0144 0.03467,-0.026 0.02889,-0.0231 0.05489,-0.0491 0.07801,-0.078 0.02889,-0.0289 0.05489,-0.0491 0.07801,-0.0607 0.06356,-0.0173 0.10979,-0.0347 0.138684,-0.052 0.03467,-0.0173 0.07223,-0.0318 0.112681,-0.0433 0.05778,-0.0173 0.104011,-0.0231 0.138684,-0.0173 0.03467,0 0.06934,-0.003 0.104013,-0.009 0.02311,-0.006 0.04334,-0.0115 0.06067,-0.0173 0.02311,-0.0115 0.04912,-0.0173 0.07801,-0.0173 0.02889,-0.006 0.05489,-0.006 0.07801,0 0.02889,0 0.05778,0 0.08668,0 0.02889,0 0.052,-0.003 0.06934,-0.009 0.02311,-0.006 0.04623,-0.006 0.06934,0 0.03467,1e-5 0.07512,0.006 0.121348,0.0173 0.02311,0.006 0.04623,0.009 0.06934,0.009 0.02311,-0.006 0.04334,-0.006 0.06067,0 0.0809,0.0289 0.135792,0.0462 0.164687,0.052 0.02889,0.0116 0.06067,0.026 0.09535,0.0433 0.04045,0.0116 0.07512,0.0231 0.104013,0.0347 0.06356,0.0289 0.109789,0.0462 0.138684,0.052 0.02889,0.006 0.04911,0.0116 0.06067,0.0173 0.04045,0.0173 0.07801,0.0376 0.112681,0.0607 0.03467,0.0173 0.07223,0.0376 0.112681,0.0607 0.02889,0.0116 0.04911,0.0231 0.06067,0.0347 0.01155,0.006 0.02889,0.0144 0.05201,0.026 0.03467,0.0174 0.06067,0.0318 0.07801,0.0433 0.01733,0.006 0.03756,0.0145 0.06067,0.026 0.01733,0.0231 0.05778,0.0376 0.121349,0.0433 0.08667,0.0174 0.164683,0.026 0.234029,0.026 0.07512,-0.006 0.130013,-0.0144 0.164688,-0.026 0.052,-0.0173 0.09245,-0.0433 0.121348,-0.078 0.02889,-0.0347 0.06067,-0.0635 0.09535,-0.0867 0.01733,-0.0462 0.04044,-0.0838 0.06934,-0.11268 0.03467,-0.0289 0.06645,-0.0578 0.09535,-0.0867 0.01155,-0.0173 0.02311,-0.0318 0.03467,-0.0433 0.01155,-0.0173 0.026,-0.0347 0.04334,-0.052 0.04044,-0.0404 0.06356,-0.0664 0.06934,-0.078 0.0058,-0.0173 0.01733,-0.0289 0.03467,-0.0347 l 0.01734,0"
         style="fill:#9a2e22;font-family:Griffy;-inkscape-font-specification:Griffy;fill-opacity:1"
         id="path3778" />
    </g>
  </g>
</svg>
