<?xml version="1.0" encoding="UTF-8" standalone="no"?>
<!-- Created with Inkscape (http://www.inkscape.org/) -->

<svg
   xmlns:dc="http://purl.org/dc/elements/1.1/"
   xmlns:cc="http://creativecommons.org/ns#"
   xmlns:rdf="http://www.w3.org/1999/02/22-rdf-syntax-ns#"
   xmlns:svg="http://www.w3.org/2000/svg"
   xmlns="http://www.w3.org/2000/svg"
   xmlns:sodipodi="http://sodipodi.sourceforge.net/DTD/sodipodi-0.dtd"
   xmlns:inkscape="http://www.inkscape.org/namespaces/inkscape"
   width="48"
   height="48"
   id="svg2"
   version="1.1"
   inkscape:version="0.49 r12742"
   sodipodi:docname="appset.svg">
  <defs
     id="defs4" />
  <sodipodi:namedview
     id="base"
     pagecolor="#ffffff"
     bordercolor="#666666"
     borderopacity="1.0"
     inkscape:pageopacity="0.0"
     inkscape:pageshadow="2"
     inkscape:zoom="8"
     inkscape:cx="17.682244"
     inkscape:cy="18.84361"
     inkscape:document-units="px"
     inkscape:current-layer="layer1"
     showgrid="false"
     inkscape:showpageshadow="false"
     borderlayer="true"
     inkscape:window-width="1366"
     inkscape:window-height="718"
     inkscape:window-x="-2"
     inkscape:window-y="23"
     inkscape:window-maximized="1">
    <sodipodi:guide
       position="9,39.000017"
       orientation="30,0"
       id="guide3275" />
    <sodipodi:guide
       position="9,9.0000174"
       orientation="0,30"
       id="guide3277" />
    <sodipodi:guide
       position="39,9.0000174"
       orientation="-30,0"
       id="guide3279" />
    <sodipodi:guide
       position="39,39.000017"
       orientation="0,-30"
       id="guide3281" />
    <sodipodi:guide
       position="4,44.000017"
       orientation="40,0"
       id="guide4198" />
    <sodipodi:guide
       position="4,4.0000174"
       orientation="0,40"
       id="guide4200" />
    <sodipodi:guide
       position="44,4.0000174"
       orientation="-40,0"
       id="guide4202" />
    <sodipodi:guide
       position="44,44.000017"
       orientation="0,-40"
       id="guide4204" />
    <sodipodi:guide
       position="20.5,8.0002615"
       orientation="4,0"
       id="guide4210" />
    <sodipodi:guide
       position="20.5,4.0002615"
       orientation="0,7"
       id="guide4212" />
    <sodipodi:guide
       position="27.5,4.0002615"
       orientation="-4,0"
       id="guide4214" />
    <sodipodi:guide
       position="27.5,8.0002615"
       orientation="0,-7"
       id="guide4216" />
    <sodipodi:guide
       position="20.5,44.000017"
       orientation="4,0"
       id="guide4229" />
    <sodipodi:guide
       position="20.5,40.000017"
       orientation="0,7"
       id="guide4231" />
    <sodipodi:guide
       position="27.5,40.000017"
       orientation="-4,0"
       id="guide4233" />
    <sodipodi:guide
       position="27.5,44.000017"
       orientation="0,-7"
       id="guide4235" />
  </sodipodi:namedview>
  <metadata
     id="metadata7">
    <rdf:RDF>
      <cc:Work
         rdf:about="">
        <dc:format>image/svg+xml</dc:format>
        <dc:type
           rdf:resource="http://purl.org/dc/dcmitype/StillImage" />
        <dc:title />
      </cc:Work>
    </rdf:RDF>
  </metadata>
  <g
     inkscape:label="Capa 1"
     inkscape:groupmode="layer"
     id="layer1"
     transform="translate(0,-1004.3622)">
    <g
       id="g4108"
       transform="translate(40,8.6914063e-6)">
      <rect
         ry="0"
         y="1008.3622"
         x="-36"
         height="40"
         width="40"
         id="rect3304"
         style="fill:#d4a275;fill-opacity:1;fill-rule:evenodd;stroke:none" />
      <path
         inkscape:connector-curvature="0"
         id="rect3340"
         d="m -34.099609,1008.3622 0,40 0.199218,0 0,-40 -0.199218,0 z m 2,0 0,40 0.199218,0 0,-40 -0.199218,0 z m 2,0 0,40 0.199218,0 0,-40 -0.199218,0 z m 2,0 0,40 0.199218,0 0,-40 -0.199218,0 z m 2,0 0,40 0.199218,0 0,-40 -0.199218,0 z m 2,0 0,40 0.199218,0 0,-40 -0.199218,0 z m 2,0 0,40 0.199218,0 0,-40 -0.199218,0 z m 2,0 0,40 0.199218,0 0,-40 -0.199218,0 z m 2,0 0,40 0.199218,0 0,-40 -0.199218,0 z m 2,0 0,40 0.199218,0 0,-40 -0.199218,0 z m 2,0 0,40 0.199218,0 0,-40 -0.199218,0 z m 2,0 0,40 0.199218,0 0,-40 -0.199218,0 z m 2,0 0,40 0.199218,0 0,-40 -0.199218,0 z m 2,0 0,40 0.199218,0 0,-40 -0.199218,0 z m 2,0 0,40 0.199218,0 0,-40 -0.199218,0 z m 2,0 0,40 0.199218,0 0,-40 -0.199218,0 z m 2,0 0,40 0.199218,0 0,-40 -0.199218,0 z m 2,0 0,40 0.199218,0 0,-40 -0.199218,0 z m 2,0 0,40 0.199218,0 0,-40 -0.199218,0 z"
         style="fill:#c89766;fill-opacity:1;fill-rule:evenodd;stroke:none" />
      <rect
         y="1023.3622"
         x="-18"
         height="7"
         width="4"
         id="rect4351"
         style="fill:#201810;fill-opacity:1;fill-rule:evenodd;stroke:none" />
      <path
         transform="matrix(1.4941567,0,0,0.94107467,-51.859764,57.126936)"
         inkscape:transform-center-y="1.0001363"
         d="m 24.000002,1037.3622 -3.681006,-6.3757 7.362012,0 z"
         inkscape:randomized="0"
         inkscape:rounded="0"
         inkscape:flatsided="true"
         sodipodi:arg2="2.6179939"
         sodipodi:arg1="1.5707963"
         sodipodi:r2="2.1252298"
         sodipodi:r1="4.2504597"
         sodipodi:cy="1033.1117"
         sodipodi:cx="24.000002"
         sodipodi:sides="3"
         id="path4353"
         style="fill:#201810;fill-opacity:1;fill-rule:evenodd;stroke:none"
         sodipodi:type="star" />
      <rect
         y="1044.3619"
         x="-19.5"
         height="4.000001"
         width="7"
         id="rect4206"
         style="fill:#dbb797;fill-opacity:1;fill-rule:evenodd;stroke:none" />
      <rect
         style="fill:#dbb797;fill-opacity:1;fill-rule:evenodd;stroke:none"
         id="rect4223"
         width="7"
         height="4.000001"
         x="-19.5"
         y="1008.3622" />
      <g
         transform="translate(-40,0)"
         id="g4098">
        <path
           inkscape:connector-curvature="0"
           style="fill:#201810;fill-opacity:1;stroke:none"
           d="m 23.996094,15 c -2.356358,2e-4 -4.698317,0.970619 -6.363282,2.636719 C 15.967848,19.302819 15,21.644 15,24 c 0,2.356 0.967848,4.697181 2.632812,6.363281 1.664965,1.6661 4.006924,2.636519 6.363282,2.636719 2.356356,2e-4 4.698145,-0.970619 6.365234,-2.636719 C 32.028418,28.697181 33,26.3563 33,24 33,21.6437 32.028418,19.302819 30.361328,17.636719 28.694239,15.970619 26.35245,14.9998 23.996094,15 Z m 0,2 C 27.661538,16.9998 31,20.3347 31,24 31,27.6653 27.661538,31.0002 23.996094,31 20.330649,30.9998 17,27.665 17,24 c 0,-3.665 3.330649,-6.9998 6.996094,-7 z"
           transform="translate(0,1004.3622)"
           id="path3331" />
        <path
           inkscape:connector-curvature="0"
           style="fill:#110d08;fill-opacity:1;fill-rule:evenodd;stroke:none"
           d="m 23.996094,15 c -0.03198,3e-6 -0.06372,0.0035 -0.0957,0.0039 l 0,2.001953 c 0.03212,-5.13e-4 0.06353,-0.0059 0.0957,-0.0059 0.03469,-2e-6 0.06889,0.0053 0.103515,0.0059 l 0,-2 c -0.03462,-4.15e-4 -0.06889,-0.0059 -0.103515,-0.0059 z m -1.896485,0.214844 c -0.06682,0.01469 -0.132744,0.03263 -0.199218,0.04883 l 0,2.103516 c 0.06625,-0.02314 0.1323,-0.04535 0.199218,-0.06641 l 0,-2.085937 z m 3.800782,0.002 0,2.085937 c 0.06684,0.02108 0.133043,0.04324 0.199218,0.06641 l 0,-2.103516 c -0.06646,-0.01625 -0.132411,-0.03408 -0.199218,-0.04883 z M 20.099609,15.90825 C 20.033439,15.94 19.965778,15.96868 19.900391,16.002 l 0,2.455078 c 0.06674,-0.05097 0.130868,-0.105601 0.199218,-0.154297 l 0,-2.394531 z m 7.800782,0.0039 0,2.396485 c 0.06759,0.0482 0.133201,0.09997 0.199218,0.15039 l 0,-2.453125 c -0.06538,-0.03339 -0.133059,-0.06193 -0.199218,-0.09375 z m -9.800782,1.302735 c -0.06768,0.05853 -0.133364,0.119087 -0.199218,0.179687 l 0,3.332031 c 0.06168,-0.108093 0.132069,-0.211425 0.199218,-0.316406 l 0,-3.195312 z m 11.800782,0.0059 0,3.193359 c 0.06721,0.105023 0.137489,0.208274 0.199218,0.316407 l 0,-3.330078 c -0.06576,-0.06057 -0.131648,-0.121176 -0.199218,-0.179688 z M 22,19 l 0,4 -0.09961,0 0,3.708984 0.199218,0.21875 0,-7.927734 L 22,19 Z m 1.900391,0 0,9.890625 L 24,29 l 0.09961,-0.109375 0,-9.890625 -0.199218,0 z m 2,0 0,7.927734 0.199218,-0.21875 0,-3.708984 L 26,23 l 0,-4 -0.09961,0 z m -9.800782,0.708984 c -0.07189,0.133254 -0.133987,0.271542 -0.199218,0.408204 l 0,7.765624 c 0.06523,0.136662 0.127329,0.27495 0.199218,0.408204 l 0,-8.582032 z m 15.800782,0.0039 0,8.574218 c 0.07211,-0.1335 0.133794,-0.271287 0.199218,-0.408203 l 0,-7.757812 c -0.06542,-0.136916 -0.127108,-0.274703 -0.199218,-0.408203 z m -12,3.287109 0,1.527344 0.199218,0.216797 0,-1.744141 -0.199218,0 z m 8,0 0,1.744141 0.199218,-0.216797 0,-1.527344 -0.199218,0 z m 2.199218,4.269531 c -0.06173,0.108133 -0.13201,0.211384 -0.199218,0.316407 l 0,3.193359 c 0.06757,-0.05851 0.133461,-0.119118 0.199218,-0.179688 l 0,-3.330078 z m -12.199218,0.0039 0,3.332031 c 0.06585,0.0606 0.131542,0.121153 0.199218,0.179687 l 0,-3.195312 c -0.06715,-0.104981 -0.13754,-0.208313 -0.199218,-0.316406 z m 10.199218,2.267578 c -0.06602,0.05042 -0.13163,0.102191 -0.199218,0.15039 l 0,2.396485 c 0.06616,-0.03182 0.133841,-0.06036 0.199218,-0.09375 l 0,-2.453125 z m -8.199218,0.002 0,2.455078 c 0.06539,0.03332 0.133048,0.062 0.199218,0.09375 l 0,-2.394531 c -0.06835,-0.0487 -0.132476,-0.103324 -0.199218,-0.154297 z m 6.199218,1.08789 c -0.06618,0.02316 -0.132376,0.04532 -0.199218,0.06641 l 0,2.085937 c 0.06681,-0.01475 0.132755,-0.03257 0.199218,-0.04883 l 0,-2.103516 z m -4.199218,0.002 0,2.103516 c 0.06647,0.0162 0.132401,0.03414 0.199218,0.04883 l 0,-2.085937 c -0.06692,-0.02106 -0.132971,-0.04327 -0.199218,-0.06641 z m 2,0.361329 0,2.001953 c 0.03198,3.59e-4 0.06372,0.0039 0.0957,0.0039 0.03462,3e-6 0.0689,-0.0054 0.103515,-0.0059 l 0,-2 c -0.03463,5.93e-4 -0.06883,0.0059 -0.103515,0.0059 -0.03217,-2e-6 -0.06358,-0.0053 -0.0957,-0.0059 z"
           id="path3386"
           transform="translate(0,1004.3622)" />
      </g>
    </g>
  </g>
</svg>
