<?xml version="1.0" encoding="UTF-8" standalone="no"?>
<!-- Created with Inkscape (http://www.inkscape.org/) -->

<svg
   xmlns:dc="http://purl.org/dc/elements/1.1/"
   xmlns:cc="http://creativecommons.org/ns#"
   xmlns:rdf="http://www.w3.org/1999/02/22-rdf-syntax-ns#"
   xmlns:svg="http://www.w3.org/2000/svg"
   xmlns="http://www.w3.org/2000/svg"
   xmlns:sodipodi="http://sodipodi.sourceforge.net/DTD/sodipodi-0.dtd"
   xmlns:inkscape="http://www.inkscape.org/namespaces/inkscape"
   width="48"
   height="48"
   id="svg2"
   version="1.1"
   inkscape:version="0.48+devel r12691"
   viewBox="0 0 13.546667 13.546667"
   sodipodi:docname="softwarecenter.svg">
  <defs
     id="defs4" />
  <sodipodi:namedview
     id="base"
     pagecolor="#ffffff"
     bordercolor="#666666"
     borderopacity="1.0"
     inkscape:pageopacity="0.0"
     inkscape:pageshadow="2"
     inkscape:zoom="45.133085"
     inkscape:cx="14.483773"
     inkscape:cy="21.329145"
     inkscape:document-units="px"
     inkscape:current-layer="layer1"
     showgrid="false"
     inkscape:showpageshadow="false"
     borderlayer="true"
     units="px">
    <sodipodi:guide
       position="8.9999996,39.000048"
       orientation="30.000028,0"
       id="guide4076" />
    <sodipodi:guide
       position="8.9999996,9.0000194"
       orientation="0,30.000001"
       id="guide4078" />
    <sodipodi:guide
       position="39.000001,9.0000194"
       orientation="-30.000028,0"
       id="guide4080" />
    <sodipodi:guide
       position="39.000001,39.000048"
       orientation="0,-30.000001"
       id="guide4082" />
    <sodipodi:guide
       position="4.0000002,44.000557"
       orientation="39.999965,0"
       id="guide4086" />
    <sodipodi:guide
       position="4.0000002,4.0005915"
       orientation="0,40"
       id="guide4088" />
    <sodipodi:guide
       position="44,4.0005915"
       orientation="-39.999965,0"
       id="guide4090" />
    <sodipodi:guide
       position="44,44.000557"
       orientation="0,-40"
       id="guide4092" />
    <sodipodi:guide
       position="32.999996,15.000003"
       orientation="10.999953,0"
       id="guide4208" />
    <sodipodi:guide
       position="32.999996,4.0000508"
       orientation="0,11.000003"
       id="guide4210" />
    <sodipodi:guide
       position="44,4.0000508"
       orientation="-10.999953,0"
       id="guide4212" />
    <sodipodi:guide
       position="44,15.000003"
       orientation="0,-11.000003"
       id="guide4214" />
    <sodipodi:guide
       position="6,41.999985"
       orientation="9.0000301,0"
       id="guide4218" />
    <sodipodi:guide
       position="6,32.999955"
       orientation="0,36.000003"
       id="guide4220" />
    <sodipodi:guide
       position="42.000003,32.999955"
       orientation="-9.0000301,0"
       id="guide4222" />
    <sodipodi:guide
       position="42.000003,41.999985"
       orientation="0,-36.000003"
       id="guide4224" />
  </sodipodi:namedview>
  <metadata
     id="metadata7">
    <rdf:RDF>
      <cc:Work
         rdf:about="">
        <dc:format>image/svg+xml</dc:format>
        <dc:type
           rdf:resource="http://purl.org/dc/dcmitype/StillImage" />
        <dc:title></dc:title>
      </cc:Work>
    </rdf:RDF>
  </metadata>
  <g
     inkscape:label="Capa 1"
     inkscape:groupmode="layer"
     id="layer1"
     transform="translate(0,-283.45333)">
    <rect
       style="fill:none;fill-opacity:1;fill-rule:evenodd;stroke:none"
       id="rect3264"
       width="1.128889"
       height="1.128889"
       x="0"
       y="289.66223"
       ry="0.56309462" />
    <rect
       ry="0.56309462"
       y="289.66223"
       x="12.417778"
       height="1.128889"
       width="1.128889"
       id="rect4066"
       style="fill:none;fill-opacity:1;fill-rule:evenodd;stroke:none" />
    <rect
       ry="0.56309462"
       y="6.208889"
       x="-297"
       height="1.128889"
       width="1.128889"
       id="rect4068"
       style="fill:none;fill-opacity:1;fill-rule:evenodd;stroke:none"
       transform="matrix(0,-1,1,0,0,0)" />
    <rect
       style="fill:none;fill-opacity:1;fill-rule:evenodd;stroke:none"
       id="rect4070"
       width="1.128889"
       height="1.128889"
       x="-284.58224"
       y="6.208889"
       ry="0.56309462"
       transform="matrix(0,-1,1,0,0,0)" />
    <rect
       style="fill:#ff8000;fill-opacity:1;fill-rule:evenodd;stroke:none"
       id="rect4072"
       width="11.288889"
       height="11.288889"
       x="1.1288891"
       y="284.58221"
       ry="0" />
    <rect
       transform="matrix(0,-1,1,0,0,0)"
       ry="0.28154731"
       y="6.4911113"
       x="-285.14651"
       height="0.56444448"
       width="0.56444448"
       id="rect4094"
       style="fill:none;fill-opacity:1;fill-rule:evenodd;stroke:none" />
    <rect
       style="fill:none;fill-opacity:1;fill-rule:evenodd;stroke:none"
       id="rect4096"
       width="0.56444448"
       height="0.56444448"
       x="-285.1467"
       y="6.4911113"
       ry="0.28154731"
       transform="matrix(0,-1,1,0,0,0)" />
    <rect
       style="fill:#2c2c2c;fill-opacity:1;fill-rule:evenodd;stroke:none"
       id="rect4098"
       width="10.160001"
       height="2.5399995"
       x="1.6933334"
       y="285.14667"
       ry="0" />
    <rect
       transform="matrix(0,-1,1,0,0,0)"
       ry="0.28154731"
       y="1.128889"
       x="-286.08389"
       height="0.56444448"
       width="0.56444448"
       id="rect4100"
       style="fill:none;fill-opacity:1;fill-rule:evenodd;stroke:none" />
    <rect
       style="fill:none;fill-opacity:1;fill-rule:evenodd;stroke:none"
       id="rect4102"
       width="0.56444448"
       height="0.56444448"
       x="-286.08389"
       y="11.853333"
       ry="0.28154731"
       transform="matrix(0,-1,1,0,0,0)" />
    <rect
       ry="1.2669623"
       y="288.95651"
       x="1.1288891"
       height="2.5400012"
       width="2.5400012"
       id="rect4104"
       style="fill:none;fill-opacity:1;fill-rule:evenodd;stroke:none" />
    <rect
       style="fill:none;fill-opacity:1;fill-rule:evenodd;stroke:none"
       id="rect4106"
       width="2.5400012"
       height="2.5400012"
       x="9.8777771"
       y="288.95651"
       ry="1.2669623" />
    <rect
       ry="0.56309462"
       y="288.2511"
       x="3.6688902"
       height="1.128889"
       width="1.128889"
       id="rect4125"
       style="fill:#2c2c2c;fill-opacity:1;fill-rule:evenodd;stroke:none" />
    <rect
       style="fill:#2c2c2c;fill-opacity:1;fill-rule:evenodd;stroke:none"
       id="rect4127"
       width="1.128889"
       height="1.128889"
       x="8.748888"
       y="288.2511"
       ry="0.56309462" />
    <rect
       transform="matrix(0,-1,1,0,0,0)"
       ry="0.28154731"
       y="6.4911118"
       x="-288.25095"
       height="0.56444448"
       width="0.56444448"
       id="rect4129"
       style="fill:none;fill-opacity:1;fill-rule:evenodd;stroke:none" />
    <path
       style="fill:#ffffff;fill-opacity:1;fill-rule:nonzero;stroke:none"
       d="m 10.865595,292.76666 c -0.857243,0 -1.5521836,0.69494 -1.5521836,1.55211 0,0.85732 0.6949406,1.55233 1.5521836,1.55233 0.857262,0 1.552183,-0.69501 1.552183,-1.55233 0,-0.85717 -0.694921,-1.55211 -1.552183,-1.55211 z m 0.553269,0.4327 c 0.02671,0.004 0.05314,0.0124 0.07791,0.0261 0.09912,0.0571 0.13332,0.18401 0.07609,0.28315 -0.0572,0.0989 -0.184042,0.13291 -0.283153,0.0758 -0.09909,-0.0573 -0.132996,-0.18425 -0.07579,-0.28314 0.04292,-0.0745 0.124814,-0.11182 0.204936,-0.10191 z m -0.553269,0.2191 c 0.08334,0 0.163835,0.0121 0.240406,0.0328 0.01355,0.0834 0.0631,0.15999 0.141881,0.20558 0.07866,0.0454 0.169506,0.0497 0.248287,0.0198 0.153251,0.15081 0.253155,0.35597 0.267691,0.58429 l -0.295277,0.005 c -0.02718,-0.30914 -0.286739,-0.55179 -0.602988,-0.55179 -0.09113,0 -0.177451,0.0203 -0.254959,0.0564 l -0.144001,-0.25797 c 0.120267,-0.0595 0.255655,-0.0934 0.39896,-0.0934 z m -0.499305,0.15127 0.151276,0.25377 c -0.15562,0.1096 -0.257384,0.29063 -0.257384,0.49527 0,0.2049 0.101765,0.3859 0.257384,0.49548 l -0.151276,0.25378 c -0.181358,-0.12132 -0.31626,-0.30664 -0.3722827,-0.5236 0.065461,-0.0533 0.1070167,-0.13445 0.1070167,-0.22566 0,-0.0911 -0.04156,-0.17207 -0.1070167,-0.22545 0.056032,-0.21695 0.1909357,-0.40245 0.3722827,-0.52359 z m -0.5563018,0.54169 c 0.1144342,0 0.2073628,0.0929 0.2073628,0.20735 0,0.11462 -0.092929,0.20737 -0.2073628,0.20737 -0.1144727,0 -0.2070577,-0.0928 -0.2070577,-0.20737 0,-0.11438 0.092585,-0.20735 0.2070577,-0.20735 z m 1.6585948,0.26108 0.295277,0.005 c -0.01452,0.22814 -0.114156,0.43315 -0.267388,0.58376 -0.07879,-0.0297 -0.169939,-0.0251 -0.248591,0.0203 -0.07879,0.0455 -0.12833,0.12232 -0.14188,0.20563 -0.07658,0.0211 -0.157066,0.0328 -0.240406,0.0328 -0.143305,0 -0.278683,-0.0338 -0.39896,-0.0935 l 0.144001,-0.25807 c 0.07752,0.0361 0.163832,0.0564 0.254959,0.0564 0.316249,0 0.575808,-0.24247 0.602988,-0.55168 z m -0.100953,0.65483 c 0.08012,-0.0105 0.162333,0.0276 0.20524,0.10191 0.05723,0.0991 0.0233,0.22585 -0.07579,0.28316 -0.09912,0.0572 -0.225927,0.0234 -0.283152,-0.0758 -0.05722,-0.0991 -0.02333,-0.22585 0.07579,-0.28315 0.02477,-0.015 0.05121,-0.0227 0.07791,-0.0261 z"
       id="roundel"
       inkscape:connector-curvature="0" />
    <rect
       style="fill:none;fill-opacity:1;fill-rule:evenodd;stroke:none"
       id="rect4226"
       width="0.56444448"
       height="0.56444448"
       x="-289.37997"
       y="3.9511125"
       ry="0.28154731"
       transform="matrix(0,-1,1,0,0,0)" />
    <rect
       transform="matrix(0,-1,1,0,0,0)"
       ry="0.28154731"
       y="9.0311098"
       x="-289.37997"
       height="0.56444448"
       width="0.56444448"
       id="rect4228"
       style="fill:none;fill-opacity:1;fill-rule:evenodd;stroke:none" />
    <rect
       transform="matrix(0,-1,1,0,0,0)"
       ry="0.28222224"
       y="3.9511125"
       x="-291.49652"
       height="0.56444448"
       width="2.54"
       id="rect4230"
       style="fill:#ffffff;fill-opacity:1;fill-rule:evenodd;stroke:none" />
    <rect
       style="fill:#ffffff;fill-opacity:1;fill-rule:evenodd;stroke:none"
       id="rect4232"
       width="2.54"
       height="0.56444448"
       x="-291.50235"
       y="9.0311098"
       ry="0.28222224"
       transform="matrix(0,-1,1,0,0,0)" />
    <rect
       style="fill:#ffffff;fill-opacity:1;fill-rule:evenodd;stroke:none"
       id="rect4234"
       width="5.6444435"
       height="0.56444448"
       x="3.9511125"
       y="290.9379"
       ry="0.28222224" />
  </g>
</svg>
