<?xml version="1.0" encoding="UTF-8" standalone="no"?>
<!-- Created with Inkscape (http://www.inkscape.org/) -->

<svg
   xmlns:dc="http://purl.org/dc/elements/1.1/"
   xmlns:cc="http://creativecommons.org/ns#"
   xmlns:rdf="http://www.w3.org/1999/02/22-rdf-syntax-ns#"
   xmlns:svg="http://www.w3.org/2000/svg"
   xmlns="http://www.w3.org/2000/svg"
   xmlns:sodipodi="http://sodipodi.sourceforge.net/DTD/sodipodi-0.dtd"
   xmlns:inkscape="http://www.inkscape.org/namespaces/inkscape"
   width="48"
   height="48"
   id="svg2"
   version="1.1"
   inkscape:version="0.48+devel r"
   viewBox="0 0 13.546666 13.546668"
   sodipodi:docname="steam.svg">
  <defs
     id="defs4" />
  <sodipodi:namedview
     id="base"
     pagecolor="#ffffff"
     bordercolor="#666666"
     borderopacity="1.0"
     inkscape:pageopacity="0"
     inkscape:pageshadow="2"
     inkscape:zoom="11.023682"
     inkscape:cx="15.330845"
     inkscape:cy="22.182333"
     inkscape:document-units="px"
     inkscape:current-layer="layer1"
     showgrid="false"
     inkscape:showpageshadow="false"
     borderlayer="true"
     units="px"
     fit-margin-top="0"
     fit-margin-left="0"
     fit-margin-right="0"
     fit-margin-bottom="0"
     showguides="true"
     inkscape:window-width="1366"
     inkscape:window-height="665"
     inkscape:window-x="-2"
     inkscape:window-y="26"
     inkscape:window-maximized="1">
    <sodipodi:guide
       position="-6.6748425e-06,47.999999"
       orientation="47.999977,0"
       id="guide4120" />
    <sodipodi:guide
       position="-6.6748425e-06,2.2810037e-05"
       orientation="0,48.000004"
       id="guide4122" />
    <sodipodi:guide
       position="47.999997,2.2810037e-05"
       orientation="-47.999977,0"
       id="guide4124" />
    <sodipodi:guide
       position="47.999997,47.999999"
       orientation="0,-48.000004"
       id="guide4126" />
    <sodipodi:guide
       position="3.9999733,44.000154"
       orientation="39.999962,0"
       id="guide4138" />
    <sodipodi:guide
       position="3.9999733,4.0001921"
       orientation="0,40.000003"
       id="guide4140" />
    <sodipodi:guide
       position="43.999976,4.0001921"
       orientation="-39.999962,0"
       id="guide4142" />
    <sodipodi:guide
       position="43.999976,44.000154"
       orientation="0,-40.000003"
       id="guide4144" />
    <sodipodi:guide
       position="6.9999922,47.999999"
       orientation="39.999962,0"
       id="guide4148" />
    <sodipodi:guide
       position="6.9999922,8.0000369"
       orientation="0,34.000006"
       id="guide4150" />
    <sodipodi:guide
       position="40.999998,8.0000369"
       orientation="-39.999962,0"
       id="guide4152" />
    <sodipodi:guide
       position="40.999998,47.999999"
       orientation="0,-34.000006"
       id="guide4154" />
    <sodipodi:guide
       position="14.999993,32.999986"
       orientation="17.999951,0"
       id="guide4158" />
    <sodipodi:guide
       position="14.999993,15.000036"
       orientation="0,17.999998"
       id="guide4160" />
    <sodipodi:guide
       position="32.999991,15.000036"
       orientation="-17.999951,0"
       id="guide4162" />
    <sodipodi:guide
       position="32.999991,32.999986"
       orientation="0,-17.999998"
       id="guide4164" />
    <sodipodi:guide
       position="1.9999969,44.000046"
       orientation="39.999962,0"
       id="guide3279" />
    <sodipodi:guide
       position="1.9999969,4.0000839"
       orientation="0,44.000003"
       id="guide3281" />
    <sodipodi:guide
       position="46,4.0000839"
       orientation="-39.999962,0"
       id="guide3283" />
    <sodipodi:guide
       position="46,44.000046"
       orientation="0,-44.000003"
       id="guide3285" />
  </sodipodi:namedview>
  <metadata
     id="metadata7">
    <rdf:RDF>
      <cc:Work
         rdf:about="">
        <dc:format>image/svg+xml</dc:format>
        <dc:type
           rdf:resource="http://purl.org/dc/dcmitype/StillImage" />
        <dc:title />
      </cc:Work>
    </rdf:RDF>
  </metadata>
  <g
     inkscape:label="Capa 1"
     inkscape:groupmode="layer"
     id="layer1"
     transform="translate(38.119153,-397.84494)">
    <rect
       style="fill:#2c3e50;fill-opacity:1;stroke:none"
       id="rect4118"
       width="11.288891"
       height="11.288879"
       x="-36.990273"
       y="398.97379"
       ry="5.6444397" />
    <path
       style="fill:#ecf0f1;fill-opacity:1;stroke:none"
       d="m -29.69484,402.78384 c -0.443684,0 -0.806462,0.32152 -0.874604,0.7437 -6e-5,3.1e-4 -4.5e-4,6.6e-4 -5.09e-4,9.3e-4 l -0.560078,1.41715 c -0.0375,-0.006 -0.07488,-0.0107 -0.114099,-0.0107 -0.145587,0 -0.279939,0.0434 -0.395388,0.11264 l -0.988203,-0.67857 c 0.0079,-0.0383 0.01188,-0.0776 0.01188,-0.117 0,-0.35046 -0.283206,-0.63261 -0.635001,-0.63261 -0.351774,0 -0.634989,0.28215 -0.634989,0.63261 0,0.35032 0.283215,0.63247 0.634989,0.63247 0.12422,0 0.239183,-0.0365 0.336852,-0.0975 l 0.953977,0.65476 c -0.02796,0.0796 -0.04606,0.16304 -0.04606,0.25192 0,0.42058 0.33985,0.75906 0.761998,0.75906 0.422142,0 0.761987,-0.33848 0.761987,-0.75906 0,-0.0876 -0.01782,-0.17056 -0.04516,-0.24902 l 1.018967,-0.90924 c 0.402241,-0.0845 0.702473,-0.43898 0.702473,-0.86569 0,-0.49049 -0.396492,-0.88547 -0.888989,-0.88547 z m 0,0.25302 c 0.351775,0 0.63499,0.28215 0.63499,0.63245 0,0.35048 -0.283215,0.63258 -0.63499,0.63258 -0.351794,0 -0.635,-0.2821 -0.635,-0.63258 0,-0.3503 0.283206,-0.63245 0.635,-0.63245 z m 0,0.12653 c -0.281438,0 -0.507999,0.22573 -0.507999,0.50592 0,0.28039 0.226561,0.50605 0.507999,0.50605 0.28142,0 0.507994,-0.22566 0.507994,-0.50605 0,-0.28019 -0.226574,-0.50592 -0.507994,-0.50592 z m -3.555974,0.70852 c 0.192868,0 0.349628,0.14188 0.375545,0.32666 l -0.09625,-0.0656 c -0.115858,-0.08 -0.273355,-0.0503 -0.353211,0.0639 -0.07994,0.11546 -0.05092,0.27226 0.06501,0.35187 l 0.101193,0.0694 c -0.02971,0.008 -0.06028,0.0118 -0.09232,0.0118 -0.211065,0 -0.38099,-0.16925 -0.38099,-0.37949 0,-0.21025 0.169925,-0.37951 0.38099,-0.37951 z m 2.216035,1.09459 c 0.0071,0.002 0.01255,0.004 0.01886,0.007 -0.007,-0.002 -0.01248,-0.005 -0.01886,-0.007 z m 0.269877,0.14034 c 0.0052,0.004 0.0089,0.008 0.01383,0.0107 -0.0051,-0.004 -0.009,-0.008 -0.01383,-0.0107 z m -0.479228,0.0805 c 0.281421,0 0.508,0.22568 0.508,0.50593 0,0.28034 -0.226579,0.50598 -0.508,0.50598 -0.281437,0 -0.507998,-0.22564 -0.507998,-0.50598 0,-0.035 0.0041,-0.069 0.01037,-0.10227 l 0.364132,0.25004 c 0.115865,0.0801 0.273362,0.0503 0.353218,-0.0639 0.07994,-0.11547 0.05092,-0.27225 -0.06501,-0.35187 l -0.308062,-0.21148 c 0.04856,-0.015 0.09953,-0.0259 0.153284,-0.0259 z"
       id="rect4139"
       inkscape:connector-curvature="0" />
  </g>
</svg>
