<?xml version="1.0" encoding="UTF-8" standalone="no"?>
<!-- Created with Inkscape (http://www.inkscape.org/) -->

<svg
   xmlns:dc="http://purl.org/dc/elements/1.1/"
   xmlns:cc="http://creativecommons.org/ns#"
   xmlns:rdf="http://www.w3.org/1999/02/22-rdf-syntax-ns#"
   xmlns:svg="http://www.w3.org/2000/svg"
   xmlns="http://www.w3.org/2000/svg"
   xmlns:sodipodi="http://sodipodi.sourceforge.net/DTD/sodipodi-0.dtd"
   xmlns:inkscape="http://www.inkscape.org/namespaces/inkscape"
   width="48"
   height="48"
   id="svg2"
   version="1.1"
   inkscape:version="0.48+devel r"
   viewBox="0 0 13.546666 13.546668"
   sodipodi:docname="sublime-text.svg">
  <defs
     id="defs4" />
  <sodipodi:namedview
     id="base"
     pagecolor="#ffffff"
     bordercolor="#666666"
     borderopacity="1.0"
     inkscape:pageopacity="0"
     inkscape:pageshadow="2"
     inkscape:zoom="3.1467075"
     inkscape:cx="-12.864622"
     inkscape:cy="49.330001"
     inkscape:document-units="px"
     inkscape:current-layer="layer1"
     showgrid="false"
     inkscape:showpageshadow="false"
     borderlayer="true"
     units="px"
     fit-margin-top="0"
     fit-margin-left="0"
     fit-margin-right="0"
     fit-margin-bottom="0"
     showguides="true"
     inkscape:window-width="1366"
     inkscape:window-height="718"
     inkscape:window-x="-2"
     inkscape:window-y="23"
     inkscape:window-maximized="1">
    <sodipodi:guide
       position="-6.6748425e-06,47.999999"
       orientation="47.999977,0"
       id="guide4120" />
    <sodipodi:guide
       position="-6.6748425e-06,2.2810037e-05"
       orientation="0,48.000004"
       id="guide4122" />
    <sodipodi:guide
       position="47.999997,2.2810037e-05"
       orientation="-47.999977,0"
       id="guide4124" />
    <sodipodi:guide
       position="47.999997,47.999999"
       orientation="0,-48.000004"
       id="guide4126" />
    <sodipodi:guide
       position="3.9999733,44.000154"
       orientation="39.999962,0"
       id="guide4138" />
    <sodipodi:guide
       position="3.9999733,4.0001921"
       orientation="0,40.000003"
       id="guide4140" />
    <sodipodi:guide
       position="43.999976,4.0001921"
       orientation="-39.999962,0"
       id="guide4142" />
    <sodipodi:guide
       position="43.999976,44.000154"
       orientation="0,-40.000003"
       id="guide4144" />
    <sodipodi:guide
       position="6.9999922,47.999999"
       orientation="39.999962,0"
       id="guide4148" />
    <sodipodi:guide
       position="6.9999922,8.0000369"
       orientation="0,34.000006"
       id="guide4150" />
    <sodipodi:guide
       position="40.999998,8.0000369"
       orientation="-39.999962,0"
       id="guide4152" />
    <sodipodi:guide
       position="40.999998,47.999999"
       orientation="0,-34.000006"
       id="guide4154" />
    <sodipodi:guide
       position="14.999993,32.999986"
       orientation="17.999951,0"
       id="guide4158" />
    <sodipodi:guide
       position="14.999993,15.000036"
       orientation="0,17.999998"
       id="guide4160" />
    <sodipodi:guide
       position="32.999991,15.000036"
       orientation="-17.999951,0"
       id="guide4162" />
    <sodipodi:guide
       position="32.999991,32.999986"
       orientation="0,-17.999998"
       id="guide4164" />
    <sodipodi:guide
       position="1.9999969,44.000046"
       orientation="39.999962,0"
       id="guide3279" />
    <sodipodi:guide
       position="1.9999969,4.0000839"
       orientation="0,44.000003"
       id="guide3281" />
    <sodipodi:guide
       position="46,4.0000839"
       orientation="-39.999962,0"
       id="guide3283" />
    <sodipodi:guide
       position="46,44.000046"
       orientation="0,-44.000003"
       id="guide3285" />
  </sodipodi:namedview>
  <metadata
     id="metadata7">
    <rdf:RDF>
      <cc:Work
         rdf:about="">
        <dc:format>image/svg+xml</dc:format>
        <dc:type
           rdf:resource="http://purl.org/dc/dcmitype/StillImage" />
        <dc:title />
      </cc:Work>
    </rdf:RDF>
  </metadata>
  <g
     inkscape:label="Capa 1"
     inkscape:groupmode="layer"
     id="layer1"
     transform="translate(38.119153,-397.84494)">
    <rect
       style="fill:#ecf0f1;fill-opacity:1;stroke:none"
       id="rect4118"
       width="11.288891"
       height="11.288849"
       x="-36.990273"
       y="398.97382"
       ry="5.6444244" />
    <rect
       ry="4.7977605"
       y="399.8205"
       x="-36.143604"
       height="9.595521"
       width="9.5955572"
       id="rect4120"
       style="fill:#34495e;fill-opacity:1;stroke:none" />
    <path
       inkscape:connector-curvature="0"
       id="path4127"
       style="font-size:7.12482548px;font-style:normal;font-variant:normal;font-weight:bold;font-stretch:normal;line-height:125%;letter-spacing:0px;word-spacing:0px;fill:#e67e22;fill-opacity:1;stroke:none;font-family:Code Bold;-inkscape-font-specification:'Code Bold, Bold'"
       d="m -29.653673,403.38926 -0.712482,0.0285 q -0.07125,-0.3135 -0.370491,-0.47737 -0.292118,-0.16387 -0.648359,-0.15674 -0.61986,0.0143 -0.904853,0.37761 -0.142496,0.18525 -0.121122,0.46312 0.0071,0.14962 0.0855,0.25649 0.07837,0.10687 0.170996,0.17099 0.09262,0.0641 0.263618,0.10688 0.170996,0.0427 0.284993,0.057 0.121122,0.0143 0.327742,0.0356 0.306368,0.0356 0.534362,0.0926 0.235119,0.057 0.498738,0.171 0.270743,0.10687 0.441739,0.31349 0.178121,0.1995 0.249369,0.48449 0.03562,0.17812 0.03562,0.32774 0,0.68398 -0.562861,1.10435 -0.562861,0.41324 -1.289593,0.41324 -0.398991,0 -0.783731,-0.1425 -0.384741,-0.14962 -0.676859,-0.46311 -0.292118,-0.32062 -0.334867,-0.74098 l -0.0071,-0.13538 0.726732,-0.0142 0.0071,0.10687 0,-0.0285 q 0.03562,0.32774 0.363366,0.52011 0.327742,0.18525 0.712482,0.18525 0.434615,0 0.776606,-0.22087 0.341992,-0.228 0.341992,-0.59136 0,-0.0713 -0.02137,-0.171 -0.0285,-0.13537 -0.128246,-0.22799 -0.09975,-0.0926 -0.277869,-0.1425 -0.170995,-0.0499 -0.313492,-0.0712 -0.142496,-0.0285 -0.377616,-0.0499 -0.277868,-0.0285 -0.484488,-0.0641 -0.199495,-0.0356 -0.448864,-0.12112 -0.242244,-0.0926 -0.406115,-0.22087 -0.163871,-0.13537 -0.284993,-0.35624 -0.121122,-0.22799 -0.142496,-0.52724 l 0,0.007 q -0.04275,-0.53436 0.270743,-0.9476 0.242244,-0.3135 0.648359,-0.48449 0.41324,-0.17812 0.862104,-0.17812 0.634109,0 1.118598,0.33486 0.484488,0.33487 0.57711,0.97611 z" />
  </g>
</svg>
