<?xml version="1.0" encoding="UTF-8" standalone="no"?>
<!-- Created with Inkscape (http://www.inkscape.org/) -->

<svg
   xmlns:dc="http://purl.org/dc/elements/1.1/"
   xmlns:cc="http://creativecommons.org/ns#"
   xmlns:rdf="http://www.w3.org/1999/02/22-rdf-syntax-ns#"
   xmlns:svg="http://www.w3.org/2000/svg"
   xmlns="http://www.w3.org/2000/svg"
   xmlns:sodipodi="http://sodipodi.sourceforge.net/DTD/sodipodi-0.dtd"
   xmlns:inkscape="http://www.inkscape.org/namespaces/inkscape"
   width="48"
   height="48"
   id="svg2"
   version="1.1"
   inkscape:version="0.49 r12742"
   sodipodi:docname="gpk-prefs.svg">
  <defs
     id="defs4" />
  <sodipodi:namedview
     id="base"
     pagecolor="#ffffff"
     bordercolor="#666666"
     borderopacity="1.0"
     inkscape:pageopacity="0.0"
     inkscape:pageshadow="2"
     inkscape:zoom="8.6619536"
     inkscape:cx="15.543432"
     inkscape:cy="20.722603"
     inkscape:document-units="px"
     inkscape:current-layer="layer1"
     showgrid="false"
     inkscape:window-width="1366"
     inkscape:window-height="718"
     inkscape:window-x="-2"
     inkscape:window-y="23"
     inkscape:window-maximized="1"
     showguides="true"
     inkscape:showpageshadow="false"
     borderlayer="true">
    <sodipodi:guide
       position="9,9.0000174"
       orientation="-30,0"
       id="guide3294" />
    <sodipodi:guide
       position="9,39.000017"
       orientation="0,30"
       id="guide3296" />
    <sodipodi:guide
       position="39,39.000017"
       orientation="30,0"
       id="guide3298" />
    <sodipodi:guide
       position="39,9.0000174"
       orientation="0,-30"
       id="guide3300" />
    <sodipodi:guide
       position="4,4.0000174"
       orientation="-40,0"
       id="guide3304" />
    <sodipodi:guide
       position="4,44.000017"
       orientation="0,40"
       id="guide3306" />
    <sodipodi:guide
       position="44,44.000017"
       orientation="40,0"
       id="guide3308" />
    <sodipodi:guide
       position="44,4.0000174"
       orientation="0,-40"
       id="guide3310" />
  </sodipodi:namedview>
  <metadata
     id="metadata7">
    <rdf:RDF>
      <cc:Work
         rdf:about="">
        <dc:format>image/svg+xml</dc:format>
        <dc:type
           rdf:resource="http://purl.org/dc/dcmitype/StillImage" />
        <dc:title></dc:title>
      </cc:Work>
    </rdf:RDF>
  </metadata>
  <g
     inkscape:label="Capa 1"
     inkscape:groupmode="layer"
     id="layer1"
     transform="translate(0,-1004.3622)">
    <g
       id="g4080">
      <circle
         d="m 44,-1028.3622 a 20,20 0 0 1 -20,20 20,20 0 0 1 -20,-20 20,20 0 0 1 20,-20 20,20 0 0 1 20,20 z"
         r="20"
         cy="-1028.3622"
         cx="24"
         transform="scale(1,-1)"
         id="path4064"
         style="fill:#ecf0f1;fill-opacity:1;stroke:none" />
      <circle
         d="m 41,-1028.3622 a 17,17 0 0 1 -17,17 17,17 0 0 1 -17,-17 17,17 0 0 1 17,-17 17,17 0 0 1 17,17 z"
         style="fill:#2dc3a9;fill-opacity:0.99607843;stroke:none"
         id="circle3331"
         transform="scale(1,-1)"
         cx="24"
         cy="-1028.3622"
         r="17" />
      <path
         id="path3331"
         transform="translate(0,1004.3622)"
         d="M 23.996094 15 C 21.639736 15.0002 19.297777 15.970619 17.632812 17.636719 C 15.967848 19.302819 15 21.644 15 24 C 15 26.356 15.967849 28.697181 17.632812 30.363281 C 19.297777 32.029381 21.639736 32.9998 23.996094 33 C 26.35245 33.0002 28.694239 32.029381 30.361328 30.363281 C 32.028418 28.697181 33 26.3563 33 24 C 33 21.6437 32.028418 19.302819 30.361328 17.636719 C 28.694239 15.970619 26.35245 14.9998 23.996094 15 z M 23.996094 17 C 27.661538 16.9998 31 20.3347 31 24 C 31 27.6653 27.661538 31.0002 23.996094 31 C 20.330649 30.9998 17 27.665 17 24 C 17 20.335 20.330649 17.0002 23.996094 17 z M 24 19 L 18.5 25 L 22 25 L 22 29 L 26 29 L 26 25 L 29.5 25 L 24 19 z "
         style="fill:#354b5f;fill-opacity:1;stroke:none" />
    </g>
  </g>
</svg>
