<?xml version="1.0" standalone="no"?>
<!DOCTYPE svg PUBLIC "-//W3C//DTD SVG 20010904//EN" "http://www.w3.org/TR/2001/REC-SVG-20010904/DTD/svg10.dtd">
<!-- Created using Karbon, part of Calligra: http://www.calligra.org/karbon -->
<svg xmlns="http://www.w3.org/2000/svg" xmlns:xlink="http://www.w3.org/1999/xlink" width="38.4pt" height="38.4pt">
<defs/>
<g id="layer1">
  <rect id="shape0" transform="translate(18.8639, 34.345)" fill="#c4cbcf" fill-rule="evenodd" stroke="#003bc3" stroke-width="0.00000000000" stroke-linecap="square" stroke-linejoin="miter" stroke-miterlimit="2.00000000000" width="4.30013961961pt" height="8.20068567223pt"/>
  <rect id="shape1" transform="translate(24.239, 34.345)" fill="#a8b2b8" fill-rule="evenodd" stroke="#003bc3" stroke-width="0.00000000000" stroke-linecap="square" stroke-linejoin="miter" stroke-miterlimit="2.00000000000" width="4.30013961961pt" height="8.20068567223pt"/>
  <rect id="shape2" transform="translate(14.8385, 4.57087)" fill="#3498db" fill-rule="evenodd" stroke="#003bc3" stroke-width="0.00000000000" stroke-linecap="square" stroke-linejoin="miter" stroke-miterlimit="2.00000000000" width="14.91026205080pt" height="24.33034862365pt" rx="3.05519058018pt" ry="3.05344698969pt"/>
  <rect id="shape3" transform="translate(20.1174, 40.333)" fill="#4d4d4d" fill-rule="evenodd" stroke="#003bc3" stroke-width="0.00000000000" stroke-linecap="square" stroke-linejoin="miter" stroke-miterlimit="2.00000000000" width="2.26497985316pt" height="1.36441422334pt"/>
  <rect id="shape4" transform="translate(25.7023, 40.333)" fill="#4d4d4d" fill-rule="evenodd" stroke="#003bc3" stroke-width="0.00000000000" stroke-linecap="square" stroke-linejoin="miter" stroke-miterlimit="2.00000000000" width="2.28049341380pt" height="1.36441422334pt"/>
  <rect id="rect1933" transform="matrix(0 -1 1 0 26.9037 15.7746)" fill="#ecf0f1" stroke="#2c3e50" stroke-width="0.00000000000" stroke-linecap="butt" stroke-linejoin="miter" stroke-miterlimit="2.00000000000" width="2.32366590412pt" height="2.33065446481pt"/>
  <path id="path2830" transform="translate(22.2512, 26.7462)" fill="#ecf0f1" stroke="#2c3e50" stroke-width="0.00000000000" stroke-linecap="butt" stroke-linejoin="miter" stroke-miterlimit="2.00000000000" d="M1.97949 4.16441e-08C3.07265 -0.00022167 3.95897 0.88487 3.95897 1.97676C3.95897 3.06864 3.07265 3.95372 1.97949 3.9535C0.886308 3.95372 0 3.06864 0 1.97676C0 0.88487 0.886308 -0.00022167 1.97949 4.16441e-08Z"/>
  <path id="path4602" transform="translate(18.7667, 15.424)" fill="#ecf0f1" stroke="#2c3e50" stroke-width="0.00000000000" stroke-linecap="butt" stroke-linejoin="miter" stroke-miterlimit="2.00000000000" d="M1.753 3.70171e-08C2.7211 -0.000196673 3.50599 0.783621 3.50599 1.75058C3.50599 2.71753 2.7211 3.50135 1.753 3.50115C0.7849 3.50135 0 2.71753 0 1.75058C0 0.783621 0.7849 -0.000196673 1.753 3.70171e-08Z"/>
  <path id="path4608" transform="translate(22.6712, 7.6438)" fill="#ecf0f1" fill-rule="evenodd" stroke="#2c3e50" stroke-width="0.00000000000" stroke-linecap="butt" stroke-linejoin="miter" stroke-miterlimit="2.00000000000" d="M0 3.47234C0 3.47234 1.56093 -0.0524264 1.59932 0.000592177C1.6377 0.0535968 3.14745 3.47234 3.14745 3.47234Z"/>
  <path id="path2766" transform="matrix(0.999977 -0.00681298 0.00681298 0.999977 20.3146 17.9679)" fill="none" stroke="#ecf0f1" stroke-width="0.63779638050" stroke-linecap="butt" stroke-linejoin="miter" stroke-miterlimit="2.01260191180" d="M3.85591 7.84494C3.60632 5.35266 0 4.09528 0 2.64933C0 1.67171 0.0481687 1.24401 0.0481687 0"/>
  <path id="path3653" transform="translate(24.2252, 15.0371)" fill="none" stroke="#ecf0f1" stroke-width="0.63779638050" stroke-linecap="butt" stroke-linejoin="miter" stroke-miterlimit="2.01260191180" d="M0 8.09851C0 5.64683 2.69414 5.06941 4.02964 3.25587C4.2336 2.9486 4.10099 0.177153 4.10099 0"/>
  <path id="path5436" transform="translate(24.2177, 10.364)" fill="none" stroke="#ecf0f1" stroke-width="0.63779638050" stroke-linecap="butt" stroke-linejoin="miter" stroke-miterlimit="2.01260191180" d="M0 18.3938L0 0"/>
  <path id="shape01" transform="translate(26.3762, 25.7871)" fill="#8bc941" fill-rule="evenodd" stroke="#000000" stroke-width="0.00000000000" stroke-linecap="square" stroke-linejoin="miter" stroke-miterlimit="2.00000000000" d="M19.1256 9.60286C19.1157 4.29109 14.829 -0.00750385 9.54932 9.83512e-06C4.26967 0.00752354 -0.0049745 4.3183 4.34488e-06 9.63006C0.00498319 14.9418 4.28769 19.2444 9.56732 19.242C14.847 19.2394 19.1256 14.9327 19.1256 9.62092"/>
  <rect id="rect3339" transform="matrix(0 -1 1 0 30.2403 36.7468)" fill="#ecf0f1" fill-rule="evenodd" width="2.11830781289pt" height="9.19403361339pt"/>
  <rect id="rect33391" transform="translate(34.669, 29.6816)" fill="#ecf0f1" fill-rule="evenodd" width="2.11830781289pt" height="9.20111071542pt"/>
 </g>
</svg>
