<?xml version="1.0" standalone="no"?>
<!DOCTYPE svg PUBLIC "-//W3C//DTD SVG 20010904//EN" "http://www.w3.org/TR/2001/REC-SVG-20010904/DTD/svg10.dtd">
<!-- Created using Karbon, part of Calligra: http://www.calligra.org/karbon -->
<svg xmlns="http://www.w3.org/2000/svg" xmlns:xlink="http://www.w3.org/1999/xlink" width="38.4pt" height="38.4pt">
<defs/>
<g id="layer1">
  <rect id="rect813" transform="translate(2.00001, 4)" fill="#c74640" width="35.20000640000pt" height="32.00000000000pt"/>
  <ellipse id="path3266" transform="matrix(0 1 -1 0 26.0001 0)" rx="1.60000000000pt" ry="1.60004920000pt" cx="1.60000000000pt" cy="1.60004920000pt" fill="none"/>
  <ellipse id="ellipse3268" transform="matrix(0 1 -1 0 26.0001 44)" rx="1.60000000000pt" ry="1.60004920000pt" cx="1.60000000000pt" cy="1.60004920000pt" fill="none"/>
  <ellipse id="ellipse3270" transform="matrix(-1 0 0 -1 48 25)" rx="0.80000000000pt" ry="0.80002464000pt" cx="0.80000000000pt" cy="0.80002464000pt" fill="none"/>
  <ellipse id="ellipse3272" transform="matrix(-1 0 0 -1 1.99999 25)" rx="0.80000000000pt" ry="0.80002464000pt" cx="0.80000000000pt" cy="0.80002464000pt" fill="none"/>
  <rect id="rect3286" transform="translate(8.99999, 9)" fill="none" width="24.00000000000pt" height="24.00000000000pt"/>
  <rect id="rect3284" transform="translate(8.99999, 9)" fill="none" width="10.40000560000pt" height="8.80000000000pt"/>
  <g id="text854" transform="translate(7.76227, 7.97911)" fill="none">
   <path id="path815" transform="matrix(1.98035 0 0 1.63341 1.23772 1.02088)" fill="#ffffff" d="M2.02878 5.93537L2.02878 6.73436L1.49121 6.73436L1.49121 5.95746C0.992917 5.95479 0.528987 5.84188 0.09942 5.61872L0.09942 4.59881C0.241787 4.71418 0.454113 4.82095 0.7364 4.91914C1.01869 5.01733 1.27029 5.07378 1.49121 5.08851L1.49121 3.74827C0.916817 3.53472 0.52407 3.30398 0.31297 3.05605C0.104323 2.80568 -2.84217e-14 2.5013 0 2.14292C-2.84217e-14 1.75754 0.136237 1.42984 0.40871 1.15983C0.681177 0.887363 1.04201 0.729037 1.49121 0.68485L1.49121 0L2.02878 0L2.02878 0.67012C2.54671 0.694653 2.93332 0.778113 3.18861 0.9205L3.18861 1.91464C2.84496 1.70599 2.45835 1.57835 2.02878 1.53171L2.02878 2.92718C2.56635 3.1211 2.95174 3.34325 3.18493 3.59362C3.41812 3.84155 3.53472 4.14224 3.53472 4.49571C3.53472 4.90318 3.40462 5.23211 3.14443 5.48249C2.88423 5.73041 2.51235 5.88137 2.02878 5.93537ZM1.49121 2.71363L1.49121 1.54644C1.15001 1.60777 0.97941 1.78574 0.97941 2.08033C0.97941 2.33316 1.15001 2.54426 1.49121 2.71363ZM2.02878 3.95814L2.02878 5.07379C2.3798 5.01979 2.55531 4.84428 2.55531 4.54726C2.55531 4.30671 2.3798 4.11033 2.02878 3.95814Z"/>
  </g>
  <rect id="rect868" transform="translate(18, 9)" fill="#ffffff" width="3.20000000000pt" height="8.80000000000pt"/>
  <rect id="rect3288" transform="translate(16, 9)" fill="none" width="1.60000000000pt" height="8.80000000000pt"/>
 </g>
</svg>
