<?xml version="1.0" encoding="UTF-8" standalone="no"?>
<!-- Created with Inkscape (http://www.inkscape.org/) -->

<svg
   xmlns:dc="http://purl.org/dc/elements/1.1/"
   xmlns:cc="http://creativecommons.org/ns#"
   xmlns:rdf="http://www.w3.org/1999/02/22-rdf-syntax-ns#"
   xmlns:svg="http://www.w3.org/2000/svg"
   xmlns="http://www.w3.org/2000/svg"
   xmlns:sodipodi="http://sodipodi.sourceforge.net/DTD/sodipodi-0.dtd"
   xmlns:inkscape="http://www.inkscape.org/namespaces/inkscape"
   width="48"
   height="48"
   id="svg2"
   version="1.1"
   inkscape:version="0.48+devel r12923"
   sodipodi:docname="wine-winetricks.svg">
  <defs
     id="defs4" />
  <sodipodi:namedview
     id="base"
     pagecolor="#ffffff"
     bordercolor="#666666"
     borderopacity="1.0"
     inkscape:pageopacity="0.0"
     inkscape:pageshadow="2"
     inkscape:zoom="5.7010488"
     inkscape:cx="20.906806"
     inkscape:cy="30.942407"
     inkscape:document-units="px"
     inkscape:current-layer="layer1"
     showgrid="false"
     inkscape:window-width="1366"
     inkscape:window-height="669"
     inkscape:window-x="0"
     inkscape:window-y="26"
     inkscape:window-maximized="1">
    <inkscape:grid
       type="xygrid"
       id="grid3850" />
    <sodipodi:guide
       position="4,44.000017"
       orientation="40,0"
       id="guide4070" />
    <sodipodi:guide
       position="4,4.0000174"
       orientation="0,40"
       id="guide4072" />
    <sodipodi:guide
       position="44,4.0000174"
       orientation="-40,0"
       id="guide4074" />
    <sodipodi:guide
       position="44,44.000017"
       orientation="0,-40"
       id="guide4076" />
    <sodipodi:guide
       position="9,39.000017"
       orientation="30,0"
       id="guide4080" />
    <sodipodi:guide
       position="9,9.0000174"
       orientation="0,30"
       id="guide4082" />
    <sodipodi:guide
       position="39,9.0000174"
       orientation="-30,0"
       id="guide4084" />
    <sodipodi:guide
       position="39,39.000017"
       orientation="0,-30"
       id="guide4086" />
    <sodipodi:guide
       position="15,33.000017"
       orientation="18,0"
       id="guide4090" />
    <sodipodi:guide
       position="15,15.000017"
       orientation="0,18"
       id="guide4092" />
    <sodipodi:guide
       position="33,15.000017"
       orientation="-18,0"
       id="guide4094" />
    <sodipodi:guide
       position="33,33.000017"
       orientation="0,-18"
       id="guide4096" />
  </sodipodi:namedview>
  <metadata
     id="metadata7">
    <rdf:RDF>
      <cc:Work
         rdf:about="">
        <dc:format>image/svg+xml</dc:format>
        <dc:type
           rdf:resource="http://purl.org/dc/dcmitype/StillImage" />
        <dc:title />
      </cc:Work>
    </rdf:RDF>
  </metadata>
  <g
     inkscape:label="Capa 1"
     inkscape:groupmode="layer"
     id="layer1"
     transform="translate(0,-1004.3622)">
    <rect
       style="fill:#2c3e50;fill-opacity:1;stroke:none"
       id="rect4066"
       width="40"
       height="40"
       x="4"
       y="1008.3622"
       ry="0" />
    <path
       style="fill:#ecf0f1;fill-opacity:1;stroke:none"
       d="M 26 9 L 26 12 L 9 12 L 9 15 L 26 15 L 26 20 L 33 20 L 33 15 L 39 15 L 39 12 L 33 12 L 33 9 L 26 9 z M 15 18.5 L 15 22.5 L 9 22.5 L 9 25.5 L 15 25.5 L 15 29.5 L 22 29.5 L 22 25.5 L 39 25.5 L 39 22.5 L 22 22.5 L 22 18.5 L 15 18.5 z M 26 29 L 26 33 L 9 33 L 9 36 L 26 36 L 26 40 L 33 40 L 33 36 L 39 36 L 39 33 L 33 33 L 33 29 L 26 29 z "
       transform="translate(0,1004.3622)"
       id="rect4098" />
  </g>
</svg>
