<?xml version="1.0" encoding="UTF-8" standalone="no"?>
<!-- Created with Inkscape (http://www.inkscape.org/) -->

<svg
   xmlns:dc="http://purl.org/dc/elements/1.1/"
   xmlns:cc="http://creativecommons.org/ns#"
   xmlns:rdf="http://www.w3.org/1999/02/22-rdf-syntax-ns#"
   xmlns:svg="http://www.w3.org/2000/svg"
   xmlns="http://www.w3.org/2000/svg"
   xmlns:sodipodi="http://sodipodi.sourceforge.net/DTD/sodipodi-0.dtd"
   xmlns:inkscape="http://www.inkscape.org/namespaces/inkscape"
   width="48"
   height="48"
   id="svg4230"
   version="1.1"
   inkscape:version="0.48.4 r9939"
   sodipodi:docname="wxmaxima.svg">
  <defs
     id="defs4232" />
  <sodipodi:namedview
     id="base"
     pagecolor="#ffffff"
     bordercolor="#666666"
     borderopacity="1.0"
     inkscape:pageopacity="0.0"
     inkscape:pageshadow="2"
     inkscape:zoom="6.7496594"
     inkscape:cx="27.264414"
     inkscape:cy="24.376403"
     inkscape:document-units="px"
     inkscape:current-layer="layer1"
     showgrid="false"
     inkscape:showpageshadow="false"
     borderlayer="true"
     inkscape:window-width="1440"
     inkscape:window-height="836"
     inkscape:window-x="0"
     inkscape:window-y="26"
     inkscape:window-maximized="1"
     showguides="true">
    <sodipodi:guide
       position="0,48.000017"
       orientation="48,0"
       id="guide4065" />
    <sodipodi:guide
       position="0,1.7382813e-05"
       orientation="0,48"
       id="guide4067" />
    <sodipodi:guide
       position="48,1.7382813e-05"
       orientation="-48,0"
       id="guide4069" />
    <sodipodi:guide
       position="48,48.000017"
       orientation="0,-48"
       id="guide4071" />
    <sodipodi:guide
       position="4,44.000017"
       orientation="40,0"
       id="guide4073" />
    <sodipodi:guide
       position="4,4.0000174"
       orientation="0,40"
       id="guide4075" />
    <sodipodi:guide
       position="44,4.0000174"
       orientation="-40,0"
       id="guide4077" />
    <sodipodi:guide
       position="44,44.000017"
       orientation="0,-40"
       id="guide4079" />
    <sodipodi:guide
       position="15,33.000017"
       orientation="18,0"
       id="guide4081" />
    <sodipodi:guide
       position="15,15.000017"
       orientation="0,18"
       id="guide4083" />
    <sodipodi:guide
       position="33,15.000017"
       orientation="-18,0"
       id="guide4085" />
    <sodipodi:guide
       position="33,33.000017"
       orientation="0,-18"
       id="guide4087" />
  </sodipodi:namedview>
  <metadata
     id="metadata4235">
    <rdf:RDF>
      <cc:Work
         rdf:about="">
        <dc:format>image/svg+xml</dc:format>
        <dc:type
           rdf:resource="http://purl.org/dc/dcmitype/StillImage" />
        <dc:title />
      </cc:Work>
    </rdf:RDF>
  </metadata>
  <g
     inkscape:label="Capa 1"
     inkscape:groupmode="layer"
     id="layer1"
     transform="translate(0,-1004.3622)">
    <rect
       style="fill:#74c8f4;fill-opacity:1;stroke:none"
       id="rect4096"
       width="40"
       height="40"
       x="4"
       y="1008.3622"
       ry="20" />
    <path
       inkscape:connector-curvature="0"
       id="path3004"
       style="font-size:40px;font-style:normal;font-variant:normal;font-weight:normal;font-stretch:normal;line-height:125%;letter-spacing:0px;word-spacing:0px;fill:#2980b9;fill-opacity:1;stroke:none;font-family:Noto Serif;-inkscape-font-specification:Noto Serif"
       d="m 35.836355,1034.7899 c 0.433986,0 0.804691,-0.063 1.112118,-0.191 0.3074,-0.1377 0.560565,-0.3237 0.759492,-0.561 0.207955,-0.237 0.370693,-0.5197 0.488247,-0.8481 0.117542,-0.3283 0.1989,-0.684 0.244124,-1.0672 l 0.122049,-0.8342 1.437615,0 -0.135625,6.0738 -14.864375,0 0,-0.903 5.777578,-8.9054 -5.16727,-9.3846 0,-0.807 13.033452,0 0.135625,4.8974 -1.451176,0 -0.135625,-1.2038 c -0.03618,-0.31 -0.103992,-0.602 -0.203437,-0.8756 -0.09947,-0.2736 -0.248656,-0.511 -0.44756,-0.7113 -0.189888,-0.209 -0.434006,-0.3738 -0.732368,-0.4924 -0.289342,-0.1293 -0.641964,-0.1913 -1.057865,-0.1913 l -5.777577,0 4.109404,7.4557 0,0.424 -5.275769,8.126 8.028932,0" />
    <g
       style="font-size:15.32169533px;font-style:normal;font-variant:normal;font-weight:normal;font-stretch:normal;line-height:125%;letter-spacing:0px;word-spacing:0px;fill:#2980b9;fill-opacity:1;stroke:none;font-family:Garamond;-inkscape-font-specification:Garamond"
       id="text3803"
       transform="matrix(1.6391681,0,0,1.6364898,-45.269812,-651.47205)">
      <path
         d="m 36.082294,1028.0858 c -3e-6,0.3242 0.04738,0.5861 0.142145,0.7856 0.09476,0.1945 0.236904,0.3566 0.426434,0.4863 0.189522,0.1247 0.42643,0.2294 0.710723,0.3142 0.284285,0.08 0.618449,0.1646 1.002494,0.2543 0.369071,0.085 0.683285,0.1821 0.942643,0.2918 0.264333,0.1097 0.478796,0.2394 0.643391,0.389 0.164582,0.1497 0.284283,0.3217 0.359103,0.5163 0.07979,0.1945 0.119693,0.4189 0.1197,0.6733 -7e-6,0.2693 -0.05736,0.5386 -0.172069,0.8079 -0.114721,0.2694 -0.296765,0.5212 -0.546135,0.7557 -0.249383,0.2394 -0.568585,0.4513 -0.957606,0.6359 -0.389033,0.1895 -0.855366,0.3341 -1.399002,0.4339 l 0,-0.8155 c 0.214459,-0.06 0.391516,-0.1297 0.531172,-0.2095 0.144633,-0.08 0.259346,-0.1695 0.344139,-0.2693 0.08478,-0.095 0.144633,-0.1995 0.179551,-0.3142 0.0399,-0.1097 0.05985,-0.2269 0.05985,-0.3516 -6e-6,-0.1546 -0.02494,-0.2868 -0.07481,-0.3965 -0.04489,-0.1048 -0.124694,-0.197 -0.239402,-0.2768 -0.114718,-0.075 -0.266837,-0.1422 -0.456359,-0.202 -0.184543,-0.055 -0.416463,-0.1122 -0.69576,-0.1721 -0.588532,-0.1197 -1.089779,-0.2618 -1.503741,-0.4264 -0.413967,-0.1646 -0.753119,-0.3666 -1.017456,-0.606 -0.264341,-0.2394 -0.458854,-0.5212 -0.583541,-0.8454 -0.119702,-0.3242 -0.179552,-0.7032 -0.179552,-1.1372 0,-0.4039 0.07481,-0.7855 0.224439,-1.1446 0.149625,-0.3591 0.359101,-0.6908 0.628429,-0.995 0.274313,-0.3092 0.603489,-0.5885 0.987531,-0.8379 0.384037,-0.2494 0.812965,-0.4663 1.286783,-0.6509 l 0,-0.097 c -0.38903,-0.045 -0.743145,-0.1197 -1.062344,-0.2245 -0.314217,-0.1047 -0.583543,-0.2344 -0.80798,-0.389 -0.219453,-0.1546 -0.389029,-0.3267 -0.508728,-0.5162 -0.119702,-0.1945 -0.179552,-0.404 -0.179551,-0.6284 -1e-6,-0.1796 0.04489,-0.3616 0.134663,-0.5462 0.09476,-0.1845 0.229425,-0.3641 0.40399,-0.5386 0.174562,-0.1796 0.386532,-0.3516 0.635911,-0.5162 0.254361,-0.1646 0.541144,-0.3167 0.860349,-0.4564 -0.443893,-0.075 -0.870327,-0.1945 -1.279302,-0.3591 -0.403992,-0.1696 -0.753119,-0.3666 -1.047382,-0.591 l 0.568579,-0.7631 c 0.144637,0.1 0.324188,0.202 0.538653,0.3067 0.219449,0.1048 0.453863,0.2045 0.703242,0.2993 0.254361,0.09 0.513713,0.172 0.778055,0.2468 0.269323,0.07 0.52618,0.1223 0.770574,0.1572 0.104733,-0.065 0.226928,-0.1322 0.366583,-0.202 0.144634,-0.075 0.301741,-0.1422 0.471322,-0.202 0.16957,-0.06 0.346628,-0.1098 0.531172,-0.1497 0.18952,-0.04 0.38154,-0.06 0.57606,-0.06 0.184532,0 0.339145,0.017 0.46384,0.052 0.124681,0.03 0.224432,0.072 0.299252,0.1271 0.07481,0.055 0.127175,0.1198 0.157107,0.1946 0.02992,0.075 0.04488,0.1546 0.04489,0.2394 -7e-6,0.3142 -0.167089,0.5611 -0.501247,0.7406 -0.334171,0.1796 -0.867836,0.2693 -1.600997,0.2693 -0.114719,0 -0.234419,0 -0.359103,-0.01 -0.119705,0 -0.249381,-0.012 -0.389027,-0.022 -0.139655,0.1048 -0.269331,0.2195 -0.389027,0.3441 -0.119705,0.1198 -0.224443,0.2519 -0.314215,0.3966 -0.08479,0.1396 -0.152123,0.2917 -0.201995,0.4563 -0.04988,0.1596 -0.07482,0.3342 -0.07481,0.5237 -3e-6,0.1696 0.03491,0.3217 0.104738,0.4564 0.06982,0.1346 0.162091,0.2568 0.276808,0.3665 0.11471,0.1048 0.246879,0.1971 0.396509,0.2769 0.149622,0.075 0.304235,0.1371 0.46384,0.187 0.08977,-0.045 0.199497,-0.09 0.329177,-0.1347 0.134659,-0.05 0.276803,-0.092 0.426434,-0.1272 0.149621,-0.04 0.304234,-0.07 0.463841,-0.09 0.159595,-0.025 0.314208,-0.037 0.46384,-0.037 0.264333,0 0.46134,0.055 0.591022,0.1645 0.134657,0.1098 0.201988,0.2494 0.201995,0.419 -7e-6,0.1047 -0.02245,0.2095 -0.06733,0.3142 -0.03991,0.1 -0.107239,0.192 -0.201995,0.2768 -0.09477,0.08 -0.219458,0.1447 -0.374065,0.1945 -0.149632,0.05 -0.331677,0.075 -0.546135,0.075 -0.119706,1e-4 -0.241901,0 -0.366583,-0.01 -0.124694,-0.01 -0.244395,-0.018 -0.359102,-0.023 -0.109731,-0.01 -0.209482,-0.02 -0.299252,-0.03 -0.08479,-0.01 -0.152125,-0.02 -0.201995,-0.03 -0.209481,0.09 -0.41397,0.2319 -0.613467,0.4264 -0.199505,0.1895 -0.376562,0.419 -0.531172,0.6883 -0.154617,0.2643 -0.279305,0.5561 -0.374064,0.8753 -0.08978,0.3192 -0.134667,0.6459 -0.134664,0.98"
         style="font-weight:bold;fill:#2980b9;font-family:Noto Serif;-inkscape-font-specification:Noto Serif Bold"
         id="path3808"
         inkscape:connector-curvature="0" />
    </g>
    <g
       style="font-size:29.76190567px;font-style:normal;font-variant:normal;font-weight:bold;font-stretch:normal;line-height:125%;letter-spacing:0px;word-spacing:0px;fill:#e74c3c;fill-opacity:1;stroke:none;font-family:GFS Didot;-inkscape-font-specification:GFS Didot Bold"
       id="text3799">
      <path
         d="m 29.327381,1018.9871 c 1.031726,0.1985 2.073392,0.2977 3.125001,0.2977 1.071404,0 2.182514,-0.099 3.333333,-0.2977 l 0.208333,1.1608 c -0.734152,0.1786 -1.279787,0.3571 -1.636904,0.5357 -0.357168,0.1786 -0.515898,0.5159 -0.476191,1.0119 l 0.892857,14.494 c 0.01982,0.4762 0.198388,0.8135 0.535714,1.0119 0.317435,0.1588 0.833307,0.3373 1.54762,0.5357 l -0.208334,1.1608 c -1.250025,-0.1786 -2.490104,-0.2679 -3.720238,-0.2679 -1.230181,0 -2.628989,0.089 -4.196429,0.2679 l -0.208333,-1.2203 c 1.428551,-0.2976 2.242043,-0.6151 2.440476,-0.9524 0.07934,-0.099 0.109106,-0.2777 0.08929,-0.5357 l -0.714286,-12.7678 -0.178571,-0.1488 c -0.218274,0.992 -0.426607,1.7262 -0.625,2.2023 l -3.541667,8.9286 c -0.337317,0.8334 -0.704381,1.9643 -1.10119,3.3929 l -0.178572,0.6547 -2.827381,0.7143 c -0.555567,-1.8849 -1.041678,-3.3432 -1.458333,-4.375 l -3.571429,-9.1666 -0.565476,-1.9643 -0.208334,0.1488 -0.863095,12.3809 c -0.01985,0.258 -5e-6,0.4465 0.05952,0.5655 0.07936,0.099 0.208328,0.1984 0.386905,0.2976 0.337295,0.1786 0.902771,0.3572 1.696428,0.5357 l 0.386905,0.089 -0.238095,1.2203 c -1.289689,-0.1786 -2.42064,-0.2679 -3.392857,-0.2679 -0.952385,0 -2.053574,0.089 -3.303572,0.2679 l -0.238095,-1.1608 c 0.734125,-0.1587 1.269839,-0.3273 1.607143,-0.5059 0.35714,-0.1786 0.545632,-0.496 0.565476,-0.9524 l 1.101191,-14.6726 c 0.01984,-0.4365 -0.138893,-0.744 -0.476191,-0.9226 -0.317464,-0.1587 -0.803574,-0.3075 -1.458333,-0.4465 l -0.327381,-0.089 0.208333,-1.1608 c 1.091267,0.1985 2.232139,0.2977 3.422619,0.2977 1.210311,0 2.371024,-0.099 3.482143,-0.2977 0.238086,0.9128 0.436499,1.5973 0.595238,2.0536 l 4.285715,11.5774 0.386904,1.3988 0.208334,0.059 c 0.03967,-0.6547 0.128954,-1.1309 0.267857,-1.4285 l 4.255952,-11.4286 0.625,-2.2322"
         style="fill:#e74c3c;font-family:Buenard;-inkscape-font-specification:Buenard Bold"
         id="path3811" />
    </g>
  </g>
</svg>
