<?xml version="1.0" encoding="UTF-8" standalone="no"?>
<!-- Created with Inkscape (http://www.inkscape.org/) -->

<svg
   xmlns:dc="http://purl.org/dc/elements/1.1/"
   xmlns:cc="http://creativecommons.org/ns#"
   xmlns:rdf="http://www.w3.org/1999/02/22-rdf-syntax-ns#"
   xmlns:svg="http://www.w3.org/2000/svg"
   xmlns="http://www.w3.org/2000/svg"
   xmlns:sodipodi="http://sodipodi.sourceforge.net/DTD/sodipodi-0.dtd"
   xmlns:inkscape="http://www.inkscape.org/namespaces/inkscape"
   width="48"
   height="48"
   id="svg2"
   version="1.1"
   inkscape:version="0.48.3.1 r9886"
   sodipodi:docname="xfce4-panel-menu.svg"
   inkscape:export-filename="/home/uri/workspace/NitruxforAndroid/res/drawable-xhdpi/downloads.png"
   inkscape:export-xdpi="180"
   inkscape:export-ydpi="180">
  <defs
     id="defs4" />
  <sodipodi:namedview
     id="base"
     pagecolor="#ffffff"
     bordercolor="#666666"
     borderopacity="1.0"
     inkscape:pageopacity="0.0"
     inkscape:pageshadow="2"
     inkscape:zoom="12.497838"
     inkscape:cx="14.911307"
     inkscape:cy="26.164296"
     inkscape:document-units="px"
     inkscape:current-layer="layer1"
     showgrid="false"
     inkscape:window-width="1366"
     inkscape:window-height="718"
     inkscape:window-x="-2"
     inkscape:window-y="23"
     inkscape:window-maximized="1"
     showguides="true"
     inkscape:snap-global="false">
    <inkscape:grid
       type="xygrid"
       id="grid3850" />
    <sodipodi:guide
       position="4,44.000017"
       orientation="40,0"
       id="guide4110" />
    <sodipodi:guide
       position="4,4.0000174"
       orientation="0,40"
       id="guide4112" />
    <sodipodi:guide
       position="44,4.0000174"
       orientation="-40,0"
       id="guide4114" />
    <sodipodi:guide
       position="44,44.000017"
       orientation="0,-40"
       id="guide4116" />
    <sodipodi:guide
       position="8.999999,39.000017"
       orientation="30,0"
       id="guide4124" />
    <sodipodi:guide
       position="8.999999,9.0000174"
       orientation="0,30.000001"
       id="guide4126" />
    <sodipodi:guide
       position="39,9.0000174"
       orientation="-30,0"
       id="guide4128" />
    <sodipodi:guide
       position="39,39.000017"
       orientation="0,-30.000001"
       id="guide4130" />
    <sodipodi:guide
       position="14.999999,33.000017"
       orientation="18,0"
       id="guide4134" />
    <sodipodi:guide
       position="14.999999,15.000017"
       orientation="0,18.000001"
       id="guide4136" />
    <sodipodi:guide
       position="33,15.000017"
       orientation="-18,0"
       id="guide4138" />
    <sodipodi:guide
       position="33,33.000017"
       orientation="0,-18.000001"
       id="guide4140" />
  </sodipodi:namedview>
  <metadata
     id="metadata7">
    <rdf:RDF>
      <cc:Work
         rdf:about="">
        <dc:format>image/svg+xml</dc:format>
        <dc:type
           rdf:resource="http://purl.org/dc/dcmitype/StillImage" />
        <dc:title />
      </cc:Work>
    </rdf:RDF>
  </metadata>
  <g
     inkscape:label="Capa 1"
     inkscape:groupmode="layer"
     id="layer1"
     transform="translate(0,-1004.3622)">
    <path
       style="fill:#ffffff;fill-opacity:1;stroke:none"
       d="M 11.59375 9 L 11.59375 18.875 L 4.65625 18.875 C 4.2208375 20.508592 3.96875 22.228984 3.96875 24 C 3.96875 29.975024 6.5960091 35.335207 10.75 39 L 15 39 L 15 41.34375 L 33.03125 41.34375 L 33.03125 39 L 33 39 L 33 33 L 39 33 L 39 10.875 L 37.21875 10.875 L 37.21875 9.03125 C 37.207651 9.0214187 37.198627 9.0098166 37.1875 9 L 11.59375 9 z "
       transform="translate(0,1004.3622)"
       id="path2997" />
    <path
       inkscape:connector-curvature="0"
       style="fill:#2980b9;fill-opacity:1;stroke:none"
       d="m 23.992511,1008.3495 c -1.381148,0 -2.735155,0.149 -4.037528,0.4154 -1.302355,0.2664 -2.54389,0.6513 -3.740651,1.1573 -1.196762,0.5059 -2.349747,1.121 -3.414087,1.8397 -1.064339,0.7187 -2.033973,1.5286 -2.939083,2.4333 -0.905099,0.9046 -1.745019,1.9035 -2.464079,2.9673 -0.71906,1.0639 -1.334456,2.2163 -1.840638,3.4125 -0.475279,1.1231 -0.833754,2.2846 -1.098445,3.5015 0.856602,0.1617 1.740811,0.3066 2.612518,0.4451 1.411653,0.2243 2.767711,0.3881 3.829714,0.3857 0.531158,0 1.015358,-0.057 1.365635,-0.1483 0.351436,-0.091 0.599321,-0.1358 0.742192,-0.2968 0.550548,-0.6203 1.211287,-1.4051 1.514073,-2.6112 0.02252,-0.09 0.06508,-0.3825 0.05938,-0.4748 -0.01416,-0.093 -0.04237,-0.2294 -0.08902,-0.4155 -0.11079,-0.4417 -0.275825,-1.0388 -0.38594,-1.6913 -0.110201,-0.6538 -0.180615,-1.3368 -0.02964,-1.9882 0.148647,-0.6415 0.540041,-1.2564 1.217196,-1.632 0.26224,-0.131 0.577803,-0.1809 0.831256,-0.1187 0.262543,0.064 0.491657,0.2214 0.712505,0.4154 0.441886,0.3882 0.819181,0.982 1.15782,1.6024 0.337386,0.6181 0.625057,1.2734 0.860944,1.8101 0.118409,0.2694 0.240304,0.4696 0.326564,0.6528 0.03848,0.082 0.06394,0.1618 0.08902,0.2077 0.02479,0.046 0.03638,0.072 0.02964,0.059 0.02175,0.036 0.05292,0.067 0.08902,0.089 -0.02118,-0.013 0.07467,0.041 0.148438,0.059 0.111636,0.028 0.189584,0.036 0.296878,0.03 0.05386,0 0.106733,-0.025 0.148438,-0.059 0.01055,-0.01 0.02023,-0.019 0.02964,-0.03 0.03449,-0.042 0.05558,-0.095 0.05938,-0.1484 0.0048,-0.029 0.0048,-0.06 0,-0.089 -0.0456,-0.1598 -0.164009,-0.4379 -0.296877,-0.9199 -0.153588,-0.5572 -0.289049,-1.251 -0.385941,-1.9585 -0.09717,-0.7088 -0.118731,-1.4246 0.02964,-2.0474 0.145018,-0.6085 0.490118,-1.1641 1.098445,-1.3947 0.917336,-0.3528 1.728565,-0.1049 2.19689,0.4451 0.492218,0.5781 0.73844,1.4204 0.890631,2.3146 0.151555,0.8907 0.198124,1.8283 0.207814,2.5519 0.0048,0.3614 9.5e-4,0.6364 0,0.8605 -1.14e-4,0.021 7.6e-5,0.044 0,0.059 3.8e-4,0.041 0.01064,0.082 0.02964,0.1187 0.02175,0.036 0.05291,0.067 0.08902,0.089 0.02745,0.015 0.05795,0.025 0.08902,0.03 0.05567,0.012 0.107835,0.041 0.207814,0.059 0.344985,0.063 0.838105,0.1164 1.42501,0.2077 1.174388,0.1827 2.721465,0.4741 4.304717,0.8902 1.583576,0.4162 3.209332,0.9834 4.482844,1.8101 1.269123,0.8239 2.207815,1.9182 2.404704,3.3531 0.124679,0.8901 -0.526208,1.7364 -1.454697,2.552 -0.927112,0.8144 -2.166073,1.6264 -3.473462,2.3442 -1.306886,0.7174 -2.658223,1.3624 -3.740651,1.8694 -0.541466,0.2536 -0.998286,0.4768 -1.365635,0.6528 -0.185831,0.089 -0.351018,0.1718 -0.475003,0.2374 -0.123985,0.066 -0.202874,0.1036 -0.267189,0.1484 -0.438752,0.3058 -0.636362,0.6574 -0.682818,1.0386 -0.0475,0.3894 0.0399,0.7943 0.207814,1.0979 0.0098,5e-4 0.01976,5e-4 0.02964,0 0.0019,0 -0.0019,0.027 0,0.03 0.0019,0 0.02774,0 0.02964,0 0.0028,0 -9.5e-4,0.028 0,0.03 0.0513,0.075 0.110894,0.1242 0.207814,0.2374 0.117164,0.1368 0.278618,0.3256 0.445315,0.5045 0.331372,0.3554 0.721815,0.7779 1.098445,1.2166 0.37703,0.4391 0.737928,0.8971 0.979695,1.3353 0.245301,0.4447 0.40476,0.861 0.267189,1.276 -0.0048,0.013 -0.02499,-0.013 -0.02964,0 -0.04075,0.1033 -0.165016,0.1822 -0.237502,0.2077 -0.100586,0.035 -0.183152,0.061 -0.296877,0.059 -0.212393,0 -0.451709,-0.051 -0.742193,-0.1187 -0.576141,-0.135 -1.291952,-0.3844 -2.018764,-0.6231 -0.726878,-0.2388 -1.460929,-0.4754 -2.018764,-0.6232 -0.202503,-0.054 -0.346021,-0.067 -0.475003,-0.089 -0.140136,-0.019 -0.284527,0.097 -0.296877,0.2374 -0.0048,0.051 0.0057,0.1033 0.02964,0.1484 0.03553,0.067 0.07705,0.1646 0.178126,0.2967 0.296915,0.3881 0.764224,0.8366 1.217196,1.3353 0.454018,0.4999 0.871935,1.0423 1.098446,1.6024 0.216801,0.536 0.189953,1.1966 -0.26719,1.6914 -0.01928,0.017 -0.02023,0.024 -0.02964,0.03 -0.135528,0.088 -0.187313,0.064 -0.326565,0.059 -0.113972,0 -0.241815,9e-4 -0.38594,-0.03 -0.286323,-0.061 -0.632533,-0.1863 -1.03907,-0.3264 -0.811647,-0.2796 -1.832088,-0.6766 -2.820332,-1.0979 -0.988235,-0.4213 -1.924305,-0.8619 -2.642206,-1.1869 -0.403316,-0.1698 -0.769572,-0.4301 -1.217196,-0.4451 -0.09396,-0.01 -0.223783,0 -0.38594,0.03 -0.324608,0.053 -0.793778,0.1051 -1.365635,0.1781 -1.076604,0.1374 -2.573938,0.2968 -4.275029,0.3857 0.783727,0.7371 1.599032,1.4433 2.493767,2.0475 1.06434,0.7187 2.217325,1.3338 3.414086,1.8398 1.196762,0.5059 2.438297,0.8909 3.740651,1.1572 1.302374,0.2664 2.65638,0.4155 4.037529,0.4155 11.049536,0 20.009847,-8.9561 20.009847,-20 0,-11.044 -8.960311,-20 -20.009515,-20 z m 9.084438,6.1127 c 0.166518,-0.01 0.355939,0.2692 0.385941,0.4451 0.12674,1.9495 -0.20049,3.9637 -0.682818,5.8457 -0.02679,0.3982 -0.549702,0.8753 -0.831255,0.3858 -0.328532,-1.1202 0.06166,-2.3127 0.178126,-3.4421 0.243325,-1.0272 0.260216,-2.2045 0.801568,-3.1158 0.04892,-0.081 0.09291,-0.1155 0.148438,-0.1187 z m 4.156279,1.1276 c 0.313636,-0.038 0.432605,0.2748 0.326565,0.5342 -0.791203,2.0166 -1.772313,4.0041 -3.057834,5.7566 -0.225474,0.4365 -0.887781,0.3478 -0.890631,-0.178 0.0894,-1.4521 1.026169,-2.6846 1.721887,-3.9169 0.57996,-0.7531 0.99954,-1.7929 1.900013,-2.1959 z"
       id="path2831"
       sodipodi:nodetypes="csssssscssssssssscsssssssssssssssssssssssssssssssssssssssssssssssssssssssssssssssssscssscsssssccccccsccscccc" />
  </g>
</svg>
