<?xml version="1.0"?>
<!-- Created with Inkscape (http://www.inkscape.org/) -->
<svg xmlns:dc="http://purl.org/dc/elements/1.1/" xmlns:cc="http://creativecommons.org/ns#" xmlns:rdf="http://www.w3.org/1999/02/22-rdf-syntax-ns#" xmlns:svg="http://www.w3.org/2000/svg" xmlns="http://www.w3.org/2000/svg" xmlns:sodipodi="http://sodipodi.sourceforge.net/DTD/sodipodi-0.dtd" xmlns:inkscape="http://www.inkscape.org/namespaces/inkscape" width="48" height="48" id="svg865" version="1.1" inkscape:version="0.49 r12742" sodipodi:docname="folder-publicshare.svg">
  <defs id="defs867"/>
  <sodipodi:namedview id="base" pagecolor="#ffffff" bordercolor="#666666" borderopacity="1.0" inkscape:pageopacity="0.0" inkscape:pageshadow="2" inkscape:zoom="11.313709" inkscape:cx="3.9057431" inkscape:cy="31.228183" inkscape:document-units="px" inkscape:current-layer="folderLayer" showgrid="false" inkscape:window-width="1366" inkscape:window-height="718" inkscape:window-x="0" inkscape:window-y="23" inkscape:window-maximized="1" borderlayer="true" inkscape:showpageshadow="false" showguides="true">
    <sodipodi:guide position="0,39.000017" orientation="30,0" id="guide4110"/>
    <sodipodi:guide position="30,39.000017" orientation="0,-30" id="guide4116"/>
    <sodipodi:guide position="30,9.0000174" orientation="0,18" id="guide4120"/>
    <sodipodi:guide position="48,9.0000174" orientation="-30,0" id="guide4122"/>
    <sodipodi:guide position="48,39.000017" orientation="0,-18" id="guide4124"/>
    <sodipodi:guide position="4,41.000017" orientation="34,0" id="guide4164"/>
    <sodipodi:guide position="22,41.000017" orientation="0,-18" id="guide4170"/>
    <sodipodi:guide position="6,37.0002" orientation="27.999817,0" id="guide4174"/>
    <sodipodi:guide position="6,9.0003836" orientation="0,35.999992" id="guide4176"/>
    <sodipodi:guide position="41.999992,9.0003836" orientation="-27.999817,0" id="guide4178"/>
    <sodipodi:guide position="41.999992,37.0002" orientation="0,-35.999992" id="guide4180"/>
    <sodipodi:guide position="14,31.000017" orientation="20,0" id="guide4221"/>
    <sodipodi:guide position="34,11.000017" orientation="-20,0" id="guide4225"/>
    <sodipodi:guide position="34,31.000017" orientation="0,-20" id="guide4227"/>
    <sodipodi:guide position="14,31.000017" orientation="11,0" id="guide4412"/>
    <sodipodi:guide position="14,20.000017" orientation="0,11" id="guide4414"/>
    <sodipodi:guide position="25,20.000017" orientation="-11,0" id="guide4416"/>
    <sodipodi:guide position="25,31.000017" orientation="0,-11" id="guide4418"/>
    <sodipodi:guide position="25,20.000017" orientation="9,0" id="guide4420"/>
    <sodipodi:guide position="25,11.000017" orientation="0,9" id="guide4422"/>
    <sodipodi:guide position="34,11.000017" orientation="-9,0" id="guide4424"/>
    <sodipodi:guide position="34,20.000017" orientation="0,-9" id="guide4426"/>
    <sodipodi:guide position="23.000001,35.000017" orientation="-1.9999999,0" id="guide4068"/>
    <sodipodi:guide position="23.000001,37.000017" orientation="0,2" id="guide4070"/>
    <sodipodi:guide position="25,37.000017" orientation="1.9999999,0" id="guide4072"/>
    <sodipodi:guide position="25,35.000017" orientation="0,-2" id="guide4074"/>
  </sodipodi:namedview>
  <metadata id="metadata870">
    <rdf:RDF>
      <cc:Work rdf:about="">
        <dc:format>image/svg+xml</dc:format>
        <dc:type rdf:resource="http://purl.org/dc/dcmitype/StillImage"/>
        <dc:title/>
      </cc:Work>
    </rdf:RDF>
  </metadata>
  <g inkscape:groupmode="layer" id="folderLayer" inkscape:label="folder">
    <rect y="6.9996953" x="4" height="10" width="18" id="folderTab" style="fill:#34495d;fill-opacity:1;stroke:none"/>
    <rect style="fill:#34495d;fill-opacity:1;stroke:none" id="folderBackground" width="40" height="30" x="4" y="9"/>
    <rect y="12.999983" x="2" height="28.000008" width="43.999996" id="folderFront" style="fill:#1abc9c;fill-opacity:1;stroke:none"/>
    <path style="fill:#304050;fill-opacity:1;fill-rule:evenodd;stroke:none" d="m 23.998045,16.999987 c -2.879993,1.71e-4 -5.498047,2.620439 -5.498047,5.5 0,1.265128 0.525042,2.464868 1.335938,3.429688 -1.076969,0.492882 -2.073028,1.1623 -2.910157,2 -1.849961,1.851219 -2.925781,4.452529 -2.925781,7.070312 l 0,2 8,0 0,-2 0,-2 -2,0 0,2 -4,0 c 0,-3.381251 2.482394,-6.514574 5.642578,-7.597656 0.179992,-0.67174 0.257813,-1.608497 0.257813,-2.185547 -0.829024,-0.658524 -1.400391,-1.653395 -1.400391,-2.716797 0,-1.832448 1.665324,-3.499891 3.498047,-3.5 1.832723,-1.09e-4 3.501953,1.667348 3.501953,3.5 0,1.062602 -0.571423,2.056341 -1.400391,2.714844 -0.0037,0.578253 0.07335,1.515604 0.253907,2.189453 3.160938,1.083651 5.646484,4.214979 5.646484,7.595703 l -4,0 0,-2 -2,0 0,2 0,2 2,0 3.703125,0 2.085937,0 0.210938,0 0,-2 c 0,-2.618075 -1.079319,-5.219083 -2.931641,-7.070312 -0.837424,-0.836931 -1.832156,-1.505235 -2.908203,-1.998047 0.812777,-0.965176 1.339844,-2.165451 1.339844,-3.431641 0,-2.879882 -2.62196,-5.500171 -5.501953,-5.5 z" id="folderGlyph" inkscape:connector-curvature="0"/>
  </g>
</svg>
