<?xml version="1.0"?>
<!-- Created with Inkscape (http://www.inkscape.org/) -->
<svg xmlns:dc="http://purl.org/dc/elements/1.1/" xmlns:cc="http://creativecommons.org/ns#" xmlns:rdf="http://www.w3.org/1999/02/22-rdf-syntax-ns#" xmlns:svg="http://www.w3.org/2000/svg" xmlns="http://www.w3.org/2000/svg" xmlns:sodipodi="http://sodipodi.sourceforge.net/DTD/sodipodi-0.dtd" xmlns:inkscape="http://www.inkscape.org/namespaces/inkscape" width="48" height="48" id="svg865" version="1.1" inkscape:version="0.49 r12742" sodipodi:docname="folder-virtualbox.svg">
  <defs id="defs867"/>
  <sodipodi:namedview id="base" pagecolor="#ffffff" bordercolor="#666666" borderopacity="1.0" inkscape:pageopacity="0.0" inkscape:pageshadow="2" inkscape:zoom="11.313709" inkscape:cx="7.2504711" inkscape:cy="32.029582" inkscape:document-units="px" inkscape:current-layer="folderLayer" showgrid="false" inkscape:window-width="1366" inkscape:window-height="718" inkscape:window-x="0" inkscape:window-y="23" inkscape:window-maximized="1" borderlayer="true" inkscape:showpageshadow="false" showguides="true">
    <sodipodi:guide position="0,39.000017" orientation="30,0" id="guide4110"/>
    <sodipodi:guide position="30,39.000017" orientation="0,-30" id="guide4116"/>
    <sodipodi:guide position="30,9.0000174" orientation="0,18" id="guide4120"/>
    <sodipodi:guide position="48,9.0000174" orientation="-30,0" id="guide4122"/>
    <sodipodi:guide position="48,39.000017" orientation="0,-18" id="guide4124"/>
    <sodipodi:guide position="4,41.000017" orientation="34,0" id="guide4164"/>
    <sodipodi:guide position="22,41.000017" orientation="0,-18" id="guide4170"/>
    <sodipodi:guide position="6,37.0002" orientation="27.999817,0" id="guide4174"/>
    <sodipodi:guide position="6,9.0003836" orientation="0,35.999992" id="guide4176"/>
    <sodipodi:guide position="41.999992,9.0003836" orientation="-27.999817,0" id="guide4178"/>
    <sodipodi:guide position="14,31.000017" orientation="20,0" id="guide4221"/>
    <sodipodi:guide position="34,11.000017" orientation="-20,0" id="guide4225"/>
    <sodipodi:guide position="34,31.000017" orientation="0,-20" id="guide4227"/>
    <sodipodi:guide position="14,31.000017" orientation="11,0" id="guide4412"/>
    <sodipodi:guide position="14,20.000017" orientation="0,11" id="guide4414"/>
    <sodipodi:guide position="25,20.000017" orientation="-11,0" id="guide4416"/>
    <sodipodi:guide position="25,31.000017" orientation="0,-11" id="guide4418"/>
    <sodipodi:guide position="25,20.000017" orientation="9,0" id="guide4420"/>
    <sodipodi:guide position="25,11.000017" orientation="0,9" id="guide4422"/>
    <sodipodi:guide position="34,11.000017" orientation="-9,0" id="guide4424"/>
    <sodipodi:guide position="34,20.000017" orientation="0,-9" id="guide4426"/>
    <sodipodi:guide position="23.000001,35.000017" orientation="-1.9999999,0" id="guide4068"/>
    <sodipodi:guide position="23.000001,37.000017" orientation="0,2" id="guide4070"/>
    <sodipodi:guide position="25,37.000017" orientation="1.9999999,0" id="guide4072"/>
    <sodipodi:guide position="25,35.000017" orientation="0,-2" id="guide4074"/>
  </sodipodi:namedview>
  <metadata id="metadata870">
    <rdf:RDF>
      <cc:Work rdf:about="">
        <dc:format>image/svg+xml</dc:format>
        <dc:type rdf:resource="http://purl.org/dc/dcmitype/StillImage"/>
        <dc:title/>
      </cc:Work>
    </rdf:RDF>
  </metadata>
  <g inkscape:groupmode="layer" id="folderLayer" inkscape:label="folder">
    <rect y="6.9996953" x="4" height="10" width="18" id="folderTab" style="fill:#34495d;fill-opacity:1;stroke:none"/>
    <rect style="fill:#34495d;fill-opacity:1;stroke:none" id="folderBackground" width="40" height="30" x="4" y="9"/>
    <rect y="12.999983" x="2" height="28.000008" width="43.999996" id="folderFront" style="fill:#1abc9c;fill-opacity:1;stroke:none"/>
    <path style="font-style:normal;font-variant:normal;font-weight:normal;font-stretch:normal;text-indent:0;text-align:start;text-decoration:none;line-height:normal;letter-spacing:normal;word-spacing:normal;text-transform:none;direction:ltr;block-progression:tb;writing-mode:lr-tb;text-anchor:start;color:#000000;fill:#304050;fill-opacity:1;stroke:none;stroke-width:1;marker:none;visibility:visible;display:inline;overflow:visible;enable-background:accumulate;font-family:Bitstream Vera Sans;-inkscape-font-specification:Bitstream Vera Sans" d="m 27.754759,19.100004 c -0.04803,0 -0.0862,0.013 -0.132073,0.018 -0.275043,0.037 -0.52791,0.2409 -0.60379,0.5127 l -2.037762,6.6447 -0.50944,0 -0.207541,0 -0.50944,0 -0.188682,0 -1.05662,0 c -0.292115,0 -0.56909,0.2141 -0.660387,0.4936 l -1.509453,4.9361 -2.150966,-7.7078 c -0.152112,-0.4956 -0.932084,-0.6401 -1.245291,-0.2279 l -1.83021,2.506 -0.56605,0 -0.452832,0 -0.05654,0 c -0.02725,0 -0.03769,0.028 -0.03769,0.056 l 0,1.3289 c 0,0.025 0.01096,0.037 0.03769,0.037 l 0.05654,0 0.452832,0 0.905677,0 c 0.225838,0 0.439008,-0.1154 0.566036,-0.3035 l 1.226434,-1.6899 2.396248,8.6763 c 0.06554,0.2313 0.260659,0.4274 0.490581,0.4936 0.358268,0.1082 0.785629,-0.1314 0.886796,-0.4936 l 2.018894,-6.6829 0.52831,0 0.188683,0 0.50944,0 0.207541,0 1.037751,0 c 0.292124,0 0.58796,-0.1951 0.679253,-0.4744 l 1.490584,-4.9172 2.169836,7.7077 c 0.152111,0.4959 0.932097,0.6404 1.245304,0.228 l 1.83021,-2.5436 0.566049,0 0.415093,0 0.03769,0 c 0.02735,0 0.05654,-0.013 0.05654,-0.037 l 0,-1.3291 c 0,-0.027 -0.0293,-0.056 -0.05654,-0.056 l -0.03769,0 -0.415093,0 -0.924546,0 c -0.225838,0 -0.420139,0.1348 -0.54718,0.3226 l -1.245291,1.6897 -2.377388,-8.657 c -0.06555,-0.2315 -0.260649,-0.4278 -0.490572,-0.4937 -0.04476,-0.014 -0.10298,-0.035 -0.150946,-0.037 z" id="folderGlyph" inkscape:connector-curvature="0"/>
  </g>
</svg>
