<?xml version="1.0" encoding="UTF-8" standalone="no"?>
<!-- Created using Karbon, part of Calligra: http://www.calligra.org/karbon -->

<svg
   xmlns:dc="http://purl.org/dc/elements/1.1/"
   xmlns:cc="http://creativecommons.org/ns#"
   xmlns:rdf="http://www.w3.org/1999/02/22-rdf-syntax-ns#"
   xmlns:svg="http://www.w3.org/2000/svg"
   xmlns="http://www.w3.org/2000/svg"
   xmlns:sodipodi="http://sodipodi.sourceforge.net/DTD/sodipodi-0.dtd"
   xmlns:inkscape="http://www.inkscape.org/namespaces/inkscape"
   width="48"
   height="48"
   id="svg2"
   version="1.1"
   inkscape:version="0.91+devel r"
   sodipodi:docname="applications-other.svg">
  <metadata
     id="metadata12">
    <rdf:RDF>
      <cc:Work
         rdf:about="">
        <dc:format>image/svg+xml</dc:format>
        <dc:type
           rdf:resource="http://purl.org/dc/dcmitype/StillImage" />
        <dc:title />
      </cc:Work>
    </rdf:RDF>
  </metadata>
  <sodipodi:namedview
     pagecolor="#ffffff"
     bordercolor="#666666"
     borderopacity="1"
     objecttolerance="10"
     gridtolerance="10000"
     guidetolerance="10"
     inkscape:pageopacity="0"
     inkscape:pageshadow="2"
     inkscape:window-width="1366"
     inkscape:window-height="670"
     id="namedview10"
     showgrid="true"
     inkscape:showpageshadow="false"
     borderlayer="true"
     fit-margin-top="0"
     fit-margin-left="0"
     fit-margin-right="0"
     fit-margin-bottom="0"
     inkscape:zoom="6.9532164"
     inkscape:cx="9.6744683"
     inkscape:cy="23.493502"
     inkscape:window-x="-4"
     inkscape:window-y="29"
     inkscape:window-maximized="1"
     inkscape:current-layer="svg2"
     showguides="true">
    <inkscape:grid
       type="xygrid"
       id="grid4141"
       originx="20px"
       originy="0px"
       empspacing="2" />
    <sodipodi:guide
       position="0,48"
       orientation="48,0"
       id="guide4147" />
    <sodipodi:guide
       position="0,0"
       orientation="0,48"
       id="guide4149" />
    <sodipodi:guide
       position="48,0"
       orientation="-48,0"
       id="guide4151" />
    <sodipodi:guide
       position="48,48"
       orientation="0,-48"
       id="guide4153" />
    <sodipodi:guide
       position="4,37"
       orientation="40,0"
       id="guide4219" />
    <sodipodi:guide
       position="6.9999962,3.999959"
       orientation="0,34"
       id="guide4221" />
    <sodipodi:guide
       position="44,32"
       orientation="-29,0"
       id="guide4223" />
    <sodipodi:guide
       position="29.999996,43.999958"
       orientation="0,-23"
       id="guide4227" />
  </sodipodi:namedview>
  <defs
     id="defs4" />
  <path
     style="fill:#3498db;fill-opacity:1;fill-rule:evenodd;stroke:none;stroke-width:1px;stroke-linecap:butt;stroke-linejoin:miter;stroke-opacity:1"
     d="m 4,40 0,-27 40,0 0,27 z"
     id="path4207"
     inkscape:connector-curvature="0"
     sodipodi:nodetypes="ccccc" />
  <path
     style="fill:#2384c3;fill-opacity:1;fill-rule:evenodd;stroke:none;stroke-width:1px;stroke-linecap:butt;stroke-linejoin:miter;stroke-opacity:1"
     d="M 4,44.000041 C 4,44 4,38 4,38 l 40,0 0,6 z"
     id="path4205"
     inkscape:connector-curvature="0" />
  <path
     style="opacity:1;fill:#4aa4df;fill-opacity:1;stroke:none;stroke-width:1;stroke-linecap:round;stroke-linejoin:miter;stroke-miterlimit:4;stroke-dasharray:none;stroke-opacity:1"
     d="m 4,13 40,0 0,1 -40,0 z"
     id="rect4209"
     inkscape:connector-curvature="0" />
  <path
     style="fill:#3498db;fill-opacity:1;fill-rule:evenodd;stroke:none;stroke-width:1px;stroke-linecap:butt;stroke-linejoin:miter;stroke-opacity:1"
     d="M 6,7 6,13 7,9 Z"
     id="path4216"
     inkscape:connector-curvature="0" />
  <path
     inkscape:connector-curvature="0"
     id="path4218"
     d="m 42,7 0,6 -1,-4 z"
     style="fill:#3498db;fill-opacity:1;fill-rule:evenodd;stroke:none;stroke-width:1px;stroke-linecap:butt;stroke-linejoin:miter;stroke-opacity:1" />
  <path
     style="fill:#550000;fill-rule:evenodd;stroke:none;stroke-width:1px;stroke-linecap:butt;stroke-linejoin:miter;stroke-opacity:1"
     d="M 6,7 7,9 4,13 24,13 44,13 41,9 42,7 24,7 6,7 Z"
     id="path4211"
     inkscape:connector-curvature="0" />
  <path
     inkscape:connector-curvature="0"
     id="path4234"
     d="M 6,7 7,9 4,13 24,13 44,13 41,9 42,7 24,7 6,7 Z"
     style="fill:#30508e;fill-opacity:1;fill-rule:evenodd;stroke:none;stroke-width:1px;stroke-linecap:butt;stroke-linejoin:miter;stroke-opacity:1" />
  <path
     style="opacity:1;fill:#304c84;fill-opacity:1;stroke:none;stroke-width:1;stroke-linecap:round;stroke-linejoin:miter;stroke-miterlimit:4;stroke-dasharray:none;stroke-opacity:1"
     d="M 6,7 6.5,8 41.5,8 42,7 6,7 Z"
     id="rect4236"
     inkscape:connector-curvature="0" />
  <path
     style="opacity:1;fill:#2c3e50;fill-opacity:1;stroke:none;stroke-width:1;stroke-linecap:round;stroke-linejoin:miter;stroke-miterlimit:4;stroke-dasharray:none;stroke-opacity:1"
     d="m 24,4 c -4.432,0 -8,3.568 -8,8 l 0,4 1,0 0,-4 c 0,-3.878 3.122,-7 7,-7 3.878,0 7,3.122 7,7 l 0,4 1,0 0,-4 C 32,7.568 28.432,4 24,4 Z"
     id="rect4224"
     inkscape:connector-curvature="0" />
  <circle
     style="opacity:1;fill:#bdc3c7;fill-opacity:1;stroke:none;stroke-width:1;stroke-linecap:round;stroke-linejoin:miter;stroke-miterlimit:4;stroke-dasharray:none;stroke-opacity:1"
     id="path4220"
     cx="16.5"
     cy="15.5"
     r="1.5" />
  <circle
     r="1.5"
     cy="15.5"
     cx="31.5"
     id="circle4222"
     style="opacity:1;fill:#bdc3c7;fill-opacity:1;stroke:none;stroke-width:1;stroke-linecap:round;stroke-linejoin:miter;stroke-miterlimit:4;stroke-dasharray:none;stroke-opacity:1" />
  <path
     style="opacity:1;fill:#e4f1fe;fill-opacity:1;stroke:none;stroke-width:1;stroke-linecap:round;stroke-linejoin:miter;stroke-miterlimit:4;stroke-dasharray:none;stroke-opacity:1"
     d="M 16 19 L 16 26 L 23 26 L 23 19 L 16 19 z M 18 21 L 21 21 L 21 24 L 18 24 L 18 21 z "
     id="rect4246" />
  <path
     id="path4251"
     d="m 16,28 0,7 7,0 0,-7 -7,0 z m 2,2 3,0 0,3 -3,0 0,-3 z"
     style="opacity:1;fill:#e4f1fe;fill-opacity:1;stroke:none;stroke-width:1;stroke-linecap:round;stroke-linejoin:miter;stroke-miterlimit:4;stroke-dasharray:none;stroke-opacity:1"
     inkscape:connector-curvature="0" />
  <path
     id="path4253"
     d="m 25,19 0,7 7,0 0,-7 -7,0 z m 2,2 3,0 0,3 -3,0 0,-3 z"
     style="opacity:1;fill:#e4f1fe;fill-opacity:1;stroke:none;stroke-width:1;stroke-linecap:round;stroke-linejoin:miter;stroke-miterlimit:4;stroke-dasharray:none;stroke-opacity:1"
     inkscape:connector-curvature="0" />
  <path
     inkscape:connector-curvature="0"
     style="opacity:1;fill:#e4f1fe;fill-opacity:1;stroke:none;stroke-width:1;stroke-linecap:round;stroke-linejoin:miter;stroke-miterlimit:4;stroke-dasharray:none;stroke-opacity:1"
     d="m 25,28 0,7 7,0 0,-7 -7,0 z m 2,2 3,0 0,3 -3,0 0,-3 z"
     id="path4255" />
</svg>
