<?xml version="1.0" encoding="UTF-8" standalone="no"?>
<svg
   xmlns:dc="http://purl.org/dc/elements/1.1/"
   xmlns:cc="http://creativecommons.org/ns#"
   xmlns:rdf="http://www.w3.org/1999/02/22-rdf-syntax-ns#"
   xmlns:svg="http://www.w3.org/2000/svg"
   xmlns="http://www.w3.org/2000/svg"
   xmlns:sodipodi="http://sodipodi.sourceforge.net/DTD/sodipodi-0.dtd"
   xmlns:inkscape="http://www.inkscape.org/namespaces/inkscape"
   viewBox="0 0 16 16"
   id="svg2"
   version="1.1"
   inkscape:version="0.91 r13725"
   sodipodi:docname="radio-unselected-hover.svg">
  <metadata
     id="metadata14">
    <rdf:RDF>
      <cc:Work
         rdf:about="">
        <dc:format>image/svg+xml</dc:format>
        <dc:type
           rdf:resource="http://purl.org/dc/dcmitype/StillImage" />
      </cc:Work>
    </rdf:RDF>
  </metadata>
  <defs
     id="defs12" />
  <sodipodi:namedview
     pagecolor="#ffffff"
     bordercolor="#666666"
     borderopacity="1"
     objecttolerance="10"
     gridtolerance="10"
     guidetolerance="10"
     inkscape:pageopacity="0"
     inkscape:pageshadow="2"
     inkscape:window-width="1440"
     inkscape:window-height="841"
     id="namedview10"
     showgrid="false"
     inkscape:zoom="23.521866"
     inkscape:cx="-0.41618999"
     inkscape:cy="7.4212441"
     inkscape:window-x="0"
     inkscape:window-y="27"
     inkscape:window-maximized="1"
     inkscape:current-layer="g4" />
  <g
     transform="translate(0 -1036.3622)"
     id="g4">
    <path
       inkscape:connector-curvature="0"
       style="opacity:1;fill:#f2535e;fill-opacity:1;stroke:none;stroke-width:1.5;stroke-linecap:butt;stroke-linejoin:miter;stroke-miterlimit:4;stroke-dasharray:none;stroke-opacity:1"
       d="m 8.0000002,1036.3622 a 8,8 0 0 0 -8.00000035,8 8,8 0 0 0 8.00000035,8 8,8 0 0 0 7.9999998,-8 8,8 0 0 0 -7.9999998,-8 z m 0,2 a 6,6 0 0 1 5.9999998,6 6,6 0 0 1 -5.9999998,6 6,6 0 0 1 -6.0000004,-6 6,6 0 0 1 6.0000004,-6 z"
       id="path4181" />
    <path
       style="fill:#fafafa;fill-opacity:1"
       d="m 15,8 c 0,3.865993 -3.134007,7 -7,7 C 4.1340068,15 1,11.865993 1,8 1,4.1340068 4.1340068,1 8,1 c 3.865993,0 7,3.1340068 7,7 z"
       id="path6"
       transform="translate(0 1036.3622)" />
  </g>
</svg>
