<?xml version="1.0" encoding="UTF-8" standalone="no"?>
<svg
   xmlns:dc="http://purl.org/dc/elements/1.1/"
   xmlns:cc="http://creativecommons.org/ns#"
   xmlns:rdf="http://www.w3.org/1999/02/22-rdf-syntax-ns#"
   xmlns:svg="http://www.w3.org/2000/svg"
   xmlns="http://www.w3.org/2000/svg"
   xmlns:sodipodi="http://sodipodi.sourceforge.net/DTD/sodipodi-0.dtd"
   xmlns:inkscape="http://www.inkscape.org/namespaces/inkscape"
   viewBox="0 0 16 16"
   id="svg2"
   version="1.1"
   inkscape:version="0.91 r13725"
   width="100%"
   height="100%"
   sodipodi:docname="radio-selected-insensitive.svg">
  <metadata
     id="metadata18">
    <rdf:RDF>
      <cc:Work
         rdf:about="">
        <dc:format>image/svg+xml</dc:format>
        <dc:type
           rdf:resource="http://purl.org/dc/dcmitype/StillImage" />
      </cc:Work>
    </rdf:RDF>
  </metadata>
  <defs
     id="defs16" />
  <sodipodi:namedview
     pagecolor="#ffffff"
     bordercolor="#666666"
     borderopacity="1"
     objecttolerance="10"
     gridtolerance="10"
     guidetolerance="10"
     inkscape:pageopacity="0"
     inkscape:pageshadow="2"
     inkscape:window-width="1440"
     inkscape:window-height="841"
     id="namedview14"
     showgrid="false"
     inkscape:zoom="17.141127"
     inkscape:cx="-1.0084683"
     inkscape:cy="2.9243895"
     inkscape:window-x="0"
     inkscape:window-y="27"
     inkscape:window-maximized="1"
     inkscape:current-layer="svg2" />
  <circle
     style="opacity:1;fill:#fafafa;fill-opacity:1;stroke:none;stroke-width:2.26771665;stroke-linecap:round;stroke-linejoin:miter;stroke-miterlimit:4;stroke-dasharray:none;stroke-opacity:1"
     id="path4135"
     cx="8"
     cy="8"
     r="6" />
  <path
     inkscape:connector-curvature="0"
     style="opacity:0.26;fill:#000000;fill-opacity:1;stroke:none;stroke-width:1.5;stroke-linecap:butt;stroke-linejoin:miter;stroke-miterlimit:4;stroke-dasharray:none;stroke-opacity:1"
     d="M 8.0000002,0 A 8,8 0 0 0 -2e-7,8 8,8 0 0 0 8.0000002,16 8,8 0 0 0 16,8 8,8 0 0 0 8.0000002,0 Z m 0,2 A 6,6 0 0 1 14,8 6,6 0 0 1 8.0000002,14 6,6 0 0 1 1.9999998,8 6,6 0 0 1 8.0000002,2 Z"
     id="path4181" />
  <path
     inkscape:connector-curvature="0"
     style="fill:#000000;fill-opacity:1;opacity:0.27"
     id="path12"
     d="M 11,8 C 11,9.6568542 9.6568542,11 8,11 6.3431458,11 5,9.6568542 5,8 5,6.3431458 6.3431458,5 8,5 c 1.6568542,0 3,1.3431458 3,3 z" />
</svg>
