<?xml version="1.0"?>
<!-- Created with Inkscape (http://www.inkscape.org/) -->
<svg xmlns:dc="http://purl.org/dc/elements/1.1/" xmlns:cc="http://creativecommons.org/ns#" xmlns:rdf="http://www.w3.org/1999/02/22-rdf-syntax-ns#" xmlns:svg="http://www.w3.org/2000/svg" xmlns="http://www.w3.org/2000/svg" xmlns:sodipodi="http://sodipodi.sourceforge.net/DTD/sodipodi-0.dtd" xmlns:inkscape="http://www.inkscape.org/namespaces/inkscape" width="48" height="48" id="svg865" version="1.1" inkscape:version="0.49 r12742" sodipodi:docname="folder-dropbox.svg">
  <defs id="defs867"/>
  <sodipodi:namedview id="base" pagecolor="#ffffff" bordercolor="#666666" borderopacity="1.0" inkscape:pageopacity="0.0" inkscape:pageshadow="2" inkscape:zoom="12.181364" inkscape:cx="23.796311" inkscape:cy="26.834855" inkscape:document-units="px" inkscape:current-layer="folderLayer" showgrid="false" inkscape:window-width="1366" inkscape:window-height="718" inkscape:window-x="0" inkscape:window-y="23" inkscape:window-maximized="1" borderlayer="true" inkscape:showpageshadow="false" showguides="true">
    <sodipodi:guide position="0,39.000017" orientation="30,0" id="guide4110"/>
    <sodipodi:guide position="30,39.000017" orientation="0,-30" id="guide4116"/>
    <sodipodi:guide position="30,9.0000174" orientation="0,18" id="guide4120"/>
    <sodipodi:guide position="48,9.0000174" orientation="-30,0" id="guide4122"/>
    <sodipodi:guide position="48,39.000017" orientation="0,-18" id="guide4124"/>
    <sodipodi:guide position="4,41.000017" orientation="34,0" id="guide4164"/>
    <sodipodi:guide position="22,41.000017" orientation="0,-18" id="guide4170"/>
    <sodipodi:guide position="6,37.0002" orientation="27.999817,0" id="guide4174"/>
    <sodipodi:guide position="6,9.0003836" orientation="0,35.999992" id="guide4176"/>
    <sodipodi:guide position="41.999992,9.0003836" orientation="-27.999817,0" id="guide4178"/>
    <sodipodi:guide position="41.999992,37.0002" orientation="0,-35.999992" id="guide4180"/>
    <sodipodi:guide position="14,31.000017" orientation="20,0" id="guide4221"/>
    <sodipodi:guide position="34,11.000017" orientation="-20,0" id="guide4225"/>
    <sodipodi:guide position="34,31.000017" orientation="0,-20" id="guide4227"/>
    <sodipodi:guide position="14,31.000017" orientation="11,0" id="guide4412"/>
    <sodipodi:guide position="14,20.000017" orientation="0,11" id="guide4414"/>
    <sodipodi:guide position="25,20.000017" orientation="-11,0" id="guide4416"/>
    <sodipodi:guide position="25,31.000017" orientation="0,-11" id="guide4418"/>
    <sodipodi:guide position="25,20.000017" orientation="9,0" id="guide4420"/>
    <sodipodi:guide position="25,11.000017" orientation="0,9" id="guide4422"/>
    <sodipodi:guide position="34,11.000017" orientation="-9,0" id="guide4424"/>
    <sodipodi:guide position="34,20.000017" orientation="0,-9" id="guide4426"/>
    <sodipodi:guide position="23.000001,35.000017" orientation="-1.9999999,0" id="guide4068"/>
    <sodipodi:guide position="23.000001,37.000017" orientation="0,2" id="guide4070"/>
    <sodipodi:guide position="25,37.000017" orientation="1.9999999,0" id="guide4072"/>
    <sodipodi:guide position="25,35.000017" orientation="0,-2" id="guide4074"/>
  </sodipodi:namedview>
  <metadata id="metadata870">
    <rdf:RDF>
      <cc:Work rdf:about="">
        <dc:format>image/svg+xml</dc:format>
        <dc:type rdf:resource="http://purl.org/dc/dcmitype/StillImage"/>
        <dc:title/>
      </cc:Work>
    </rdf:RDF>
  </metadata>
  <g inkscape:groupmode="layer" id="folderLayer" inkscape:label="folder">
    <rect y="6.9996953" x="4" height="10" width="18" id="folderTab" style="fill:#34495d;fill-opacity:1;stroke:none"/>
    <rect style="fill:#34495d;fill-opacity:1;stroke:none" id="folderBackground" width="40" height="30" x="4" y="9"/>
    <rect style="fill:#ffffff;fill-opacity:1;stroke:none" id="folderPaper" width="35.999992" height="27.999756" x="6" y="10.9998"/>
    <rect y="12.999983" x="2" height="28.000008" width="43.999996" id="folderFront" style="fill:#1abc9c;fill-opacity:1;stroke:none"/>
    <path style="fill:#304050;fill-opacity:1;fill-rule:evenodd;stroke:none" d="m 23.996092,16.999987 c -2.618176,1.55e-4 -5.220351,1.078467 -7.070312,2.929687 -1.13061,1.131379 -1.962635,2.545726 -2.445313,4.070313 l 2.181641,0 c 1.261827,-2.846271 4.187098,-4.999814 7.333984,-5 2.352261,-1.39e-4 4.581739,1.203871 6.085938,3 l -3.082032,0 0,2 4.335938,0 2.664062,0 0,-2 0,-5 -2,0 0,4.03125 c -0.285511,-0.387631 -0.590394,-0.760518 -0.93164,-1.101563 -1.852322,-1.85123 -4.454091,-2.929842 -7.072266,-2.929687 z m -9.996094,13 0,2 0,5 2,0 0,-4.025391 c 0.283965,0.385492 0.586751,0.756442 0.925782,1.095703 1.849961,1.85122 4.452136,2.929533 7.070312,2.929688 2.618175,1.55e-4 5.219944,-1.078457 7.072266,-2.929688 1.132367,-1.131697 1.96538,-2.545789 2.449219,-4.070312 l -2.181641,0 c -1.263694,2.84722 -4.192408,5.000186 -7.339844,5 -2.35183,-1.39e-4 -4.577657,-1.204112 -6.080078,-3 l 3.083984,0 0,-2 -6.519531,0 -0.480469,0 z" id="folderGlyph" inkscape:connector-curvature="0"/>
  </g>
</svg>
