<?xml version="1.0" encoding="UTF-8" standalone="no"?>
<!-- Created using Karbon, part of Calligra: http://www.calligra.org/karbon -->

<svg
   xmlns:dc="http://purl.org/dc/elements/1.1/"
   xmlns:cc="http://creativecommons.org/ns#"
   xmlns:rdf="http://www.w3.org/1999/02/22-rdf-syntax-ns#"
   xmlns:svg="http://www.w3.org/2000/svg"
   xmlns="http://www.w3.org/2000/svg"
   xmlns:sodipodi="http://sodipodi.sourceforge.net/DTD/sodipodi-0.dtd"
   xmlns:inkscape="http://www.inkscape.org/namespaces/inkscape"
   width="48"
   height="48"
   id="svg2"
   version="1.1"
   inkscape:version="0.91pre2 r"
   sodipodi:docname="application-vnd.oasis.opendocument.spreadsheet.svg">
  <metadata
     id="metadata22">
    <rdf:RDF>
      <cc:Work
         rdf:about="">
        <dc:format>image/svg+xml</dc:format>
        <dc:type
           rdf:resource="http://purl.org/dc/dcmitype/StillImage" />
        <dc:title />
      </cc:Work>
    </rdf:RDF>
  </metadata>
  <sodipodi:namedview
     pagecolor="#ffffff"
     bordercolor="#666666"
     borderopacity="1"
     objecttolerance="10"
     gridtolerance="10"
     guidetolerance="10"
     inkscape:pageopacity="0"
     inkscape:pageshadow="2"
     inkscape:window-width="1366"
     inkscape:window-height="672"
     id="namedview20"
     showgrid="true"
     inkscape:showpageshadow="false"
     borderlayer="true"
     units="px"
     inkscape:zoom="9.8333329"
     inkscape:cx="17.862514"
     inkscape:cy="22.443506"
     inkscape:window-x="-4"
     inkscape:window-y="25"
     inkscape:window-maximized="1"
     inkscape:current-layer="svg2"
     showguides="true">
    <inkscape:grid
       type="xygrid"
       id="grid4151" />
    <sodipodi:guide
       position="6.999996,43.999931"
       orientation="40,0"
       id="guide4173" />
    <sodipodi:guide
       position="6.999996,3.999931"
       orientation="0,34"
       id="guide4175" />
    <sodipodi:guide
       position="40.999996,3.999931"
       orientation="-29,0"
       id="guide4177" />
    <sodipodi:guide
       position="40.999996,32.999931"
       orientation="-11,-11"
       id="guide4179" />
    <sodipodi:guide
       position="29.999996,43.999931"
       orientation="7.1054274e-15,-23"
       id="guide4181" />
    <sodipodi:guide
       position="0,48"
       orientation="48,0"
       id="guide4213" />
    <sodipodi:guide
       position="0,0"
       orientation="0,48"
       id="guide4215" />
    <sodipodi:guide
       position="48,0"
       orientation="-48,0"
       id="guide4217" />
    <sodipodi:guide
       position="48,48"
       orientation="0,-48"
       id="guide4219" />
    <sodipodi:guide
       position="15,33"
       orientation="18,0"
       id="guide4221" />
    <sodipodi:guide
       position="15,15"
       orientation="0,18"
       id="guide4223" />
    <sodipodi:guide
       position="33,15"
       orientation="-18,0"
       id="guide4225" />
    <sodipodi:guide
       position="33,33"
       orientation="0,-18"
       id="guide4227" />
  </sodipodi:namedview>
  <defs
     id="defs4" />
  <g
     id="g4203">
    <path
       sodipodi:nodetypes="cccccc"
       id="rect4090"
       d="m 6.999996,4.0000693 0,39.9999997 34,0 0,-29 -11,-10.9999997 z"
       style="fill:#26a65b;fill-opacity:1;stroke:none"
       inkscape:connector-curvature="0" />
    <path
       id="rect4215"
       d="m 15,15 0,1 0,16 0,1 1,0 3,0 1,0 3,0 1,0 4,0 1,0 3,0 1,0 0,-1 0,-17 -18,0 z m 1,1 3,0 0,16 -3,0 0,-16 z m 4,0 3,0 0,2 -3,0 0,-2 z m 4,0 4,0 0,2 -4,0 0,-2 z m 5,0 3,0 0,2 -3,0 0,-2 z m -9,3 3,0 0,2 -3,0 0,-2 z m 4,0 4,0 0,2 -4,0 0,-2 z m 5,0 3,0 0,2 -3,0 0,-2 z m -9,3 3,0 0,2 -3,0 0,-2 z m 4,0 4,0 0,2 -4,0 0,-2 z m 5,0 3,0 0,2 -3,0 0,-2 z m -9,3 3,0 0,7 -3,0 0,-7 z m 4,0 4,0 0,7 -4,0 0,-7 z m 5,0 3,0 0,7 -3,0 0,-7 z"
       style="color:#000000;text-decoration:none;text-decoration-line:none;text-decoration-style:solid;text-decoration-color:#000000;clip-rule:nonzero;display:inline;overflow:visible;visibility:visible;opacity:1;isolation:auto;mix-blend-mode:normal;color-interpolation:sRGB;color-interpolation-filters:linearRGB;solid-color:#000000;solid-opacity:1;fill:#a9ebc4;fill-opacity:1;fill-rule:nonzero;stroke:none;stroke-width:1;stroke-linecap:butt;stroke-linejoin:miter;stroke-miterlimit:4;stroke-dasharray:none;stroke-dashoffset:0;stroke-opacity:1;color-rendering:auto;image-rendering:auto;shape-rendering:auto;text-rendering:auto;enable-background:accumulate"
       inkscape:connector-curvature="0" />
    <rect
       ry="2.35182e-07"
       y="19.000029"
       x="-7"
       height="1"
       width="1"
       id="rect4263"
       style="color:#000000;text-decoration:none;text-decoration-line:none;text-decoration-style:solid;text-decoration-color:#000000;clip-rule:nonzero;display:inline;overflow:visible;visibility:visible;opacity:1;isolation:auto;mix-blend-mode:normal;color-interpolation:sRGB;color-interpolation-filters:linearRGB;solid-color:#000000;solid-opacity:1;fill:#26a65b;fill-opacity:1;fill-rule:nonzero;stroke:none;stroke-width:1;stroke-linecap:butt;stroke-linejoin:miter;stroke-miterlimit:4;stroke-dasharray:none;stroke-dashoffset:0;stroke-opacity:1;color-rendering:auto;image-rendering:auto;shape-rendering:auto;text-rendering:auto;enable-background:accumulate" />
    <rect
       ry="2.35182e-07"
       y="21.000029"
       x="-7"
       height="1"
       width="1"
       id="rect4263-9"
       style="color:#000000;text-decoration:none;text-decoration-line:none;text-decoration-style:solid;text-decoration-color:#000000;clip-rule:nonzero;display:inline;overflow:visible;visibility:visible;opacity:1;isolation:auto;mix-blend-mode:normal;color-interpolation:sRGB;color-interpolation-filters:linearRGB;solid-color:#000000;solid-opacity:1;fill:#34d075;fill-opacity:1;fill-rule:nonzero;stroke:none;stroke-width:1;stroke-linecap:butt;stroke-linejoin:miter;stroke-miterlimit:4;stroke-dasharray:none;stroke-dashoffset:0;stroke-opacity:1;color-rendering:auto;image-rendering:auto;shape-rendering:auto;text-rendering:auto;enable-background:accumulate" />
    <rect
       ry="2.35182e-07"
       y="23.000029"
       x="-7"
       height="1"
       width="1"
       id="rect4263-2"
       style="color:#000000;text-decoration:none;text-decoration-line:none;text-decoration-style:solid;text-decoration-color:#000000;clip-rule:nonzero;display:inline;overflow:visible;visibility:visible;opacity:1;isolation:auto;mix-blend-mode:normal;color-interpolation:sRGB;color-interpolation-filters:linearRGB;solid-color:#000000;solid-opacity:1;fill:#a9ebc4;fill-opacity:1;fill-rule:nonzero;stroke:none;stroke-width:1;stroke-linecap:butt;stroke-linejoin:miter;stroke-miterlimit:4;stroke-dasharray:none;stroke-dashoffset:0;stroke-opacity:1;color-rendering:auto;image-rendering:auto;shape-rendering:auto;text-rendering:auto;enable-background:accumulate" />
    <path
       inkscape:connector-curvature="0"
       id="path4151"
       d="m 29.999934,3.999931 0,11.00016 11.000061,0 z"
       style="fill:#34d075;fill-opacity:1;stroke:none;stroke-width:0.28222224px;stroke-linecap:butt;stroke-linejoin:miter;stroke-opacity:1" />
    <path
       style="fill:#000000;fill-opacity:0.11764706;stroke:none"
       d="m 40.999995,26.000252 0,-11.000161 -11.000061,0 z"
       id="path4252"
       inkscape:connector-curvature="0" />
  </g>
</svg>
