<?xml version="1.0" encoding="UTF-8" standalone="no"?>
<!-- Created using Karbon, part of Calligra: http://www.calligra.org/karbon -->

<svg
   xmlns:dc="http://purl.org/dc/elements/1.1/"
   xmlns:cc="http://creativecommons.org/ns#"
   xmlns:rdf="http://www.w3.org/1999/02/22-rdf-syntax-ns#"
   xmlns:svg="http://www.w3.org/2000/svg"
   xmlns="http://www.w3.org/2000/svg"
   xmlns:sodipodi="http://sodipodi.sourceforge.net/DTD/sodipodi-0.dtd"
   xmlns:inkscape="http://www.inkscape.org/namespaces/inkscape"
   width="48"
   height="48"
   id="svg2"
   version="1.1"
   inkscape:version="0.91pre2 r"
   sodipodi:docname="application-x-designer.svg">
  <metadata
     id="metadata18">
    <rdf:RDF>
      <cc:Work
         rdf:about="">
        <dc:format>image/svg+xml</dc:format>
        <dc:type
           rdf:resource="http://purl.org/dc/dcmitype/StillImage" />
        <dc:title></dc:title>
      </cc:Work>
    </rdf:RDF>
  </metadata>
  <sodipodi:namedview
     pagecolor="#ffffff"
     bordercolor="#666666"
     borderopacity="1"
     objecttolerance="10"
     gridtolerance="10"
     guidetolerance="10"
     inkscape:pageopacity="0"
     inkscape:pageshadow="2"
     inkscape:window-width="1366"
     inkscape:window-height="672"
     id="namedview16"
     showgrid="true"
     showguides="true"
     inkscape:showpageshadow="false"
     borderlayer="true"
     units="px"
     inkscape:zoom="9.8333329"
     inkscape:cx="19.098342"
     inkscape:cy="25.803751"
     inkscape:window-x="-4"
     inkscape:window-y="25"
     inkscape:window-maximized="1"
     inkscape:current-layer="svg2">
    <inkscape:grid
       type="xygrid"
       id="grid4176" />
    <sodipodi:guide
       position="6.9999962,43.999931"
       orientation="40,0"
       id="guide4187" />
    <sodipodi:guide
       position="6.9999962,3.999931"
       orientation="0,34"
       id="guide4189" />
    <sodipodi:guide
       position="40.999996,3.999931"
       orientation="-29,0"
       id="guide4191" />
    <sodipodi:guide
       position="40.999996,32.999931"
       orientation="-11,-11"
       id="guide4193" />
    <sodipodi:guide
       position="29.999996,43.999931"
       orientation="0,-23"
       id="guide4195" />
    <sodipodi:guide
       position="0,47.999987"
       orientation="48.000002,0"
       id="guide4201" />
    <sodipodi:guide
       position="0,-1.5258789e-05"
       orientation="0,48.000004"
       id="guide4203" />
    <sodipodi:guide
       position="48.000004,-1.5258789e-05"
       orientation="-48.000002,0"
       id="guide4205" />
    <sodipodi:guide
       position="48.000004,47.999987"
       orientation="0,-48.000004"
       id="guide4207" />
    <sodipodi:guide
       position="15.000001,32.999986"
       orientation="18.000001,0"
       id="guide4209" />
    <sodipodi:guide
       position="15.000001,14.999985"
       orientation="0,18.000003"
       id="guide4211" />
    <sodipodi:guide
       position="33.000004,14.999985"
       orientation="-18.000001,0"
       id="guide4213" />
    <sodipodi:guide
       position="33.000004,32.999986"
       orientation="0,-18.000003"
       id="guide4215" />
  </sodipodi:namedview>
  <defs
     id="defs4" />
  <path
     inkscape:connector-curvature="0"
     style="fill:#ecf0f1;fill-opacity:1;stroke:none"
     d="m 6.9999962,4.0000694 0,39.9999996 33.9999998,0 0,-29 -11,-10.9999996 z"
     id="rect4090-2"
     sodipodi:nodetypes="cccccc" />
  <path
     style="fill:#6c7a89;fill-opacity:1;stroke:none;stroke-width:0.28222224px;stroke-linecap:butt;stroke-linejoin:miter;stroke-opacity:1"
     d="m 29.999934,3.9999311 0,11.0001599 11.000061,0 z"
     id="path4151-1"
     inkscape:connector-curvature="0" />
  <path
     inkscape:connector-curvature="0"
     id="path4252-9"
     d="m 40.999995,26.000252 0,-11.000161 -11.000061,0 z"
     style="fill:#000000;fill-opacity:0.11764706;stroke:none" />
  <rect
     style="color:#000000;text-decoration:none;text-decoration-line:none;text-decoration-style:solid;text-decoration-color:#000000;clip-rule:nonzero;display:inline;overflow:visible;visibility:visible;opacity:1;isolation:auto;mix-blend-mode:normal;color-interpolation:sRGB;color-interpolation-filters:linearRGB;solid-color:#000000;solid-opacity:1;fill:#ecf0f1;fill-opacity:1;fill-rule:nonzero;stroke:none;stroke-width:1;stroke-linecap:butt;stroke-linejoin:miter;stroke-miterlimit:4;stroke-dasharray:none;stroke-dashoffset:0;stroke-opacity:1;color-rendering:auto;image-rendering:auto;shape-rendering:auto;text-rendering:auto;enable-background:accumulate"
     id="rect4263"
     width="1"
     height="1"
     x="-7"
     y="19.000029"
     ry="2.35182e-07" />
  <rect
     style="color:#000000;text-decoration:none;text-decoration-line:none;text-decoration-style:solid;text-decoration-color:#000000;clip-rule:nonzero;display:inline;overflow:visible;visibility:visible;opacity:1;isolation:auto;mix-blend-mode:normal;color-interpolation:sRGB;color-interpolation-filters:linearRGB;solid-color:#000000;solid-opacity:1;fill:#6c7a89;fill-opacity:1;fill-rule:nonzero;stroke:none;stroke-width:1;stroke-linecap:butt;stroke-linejoin:miter;stroke-miterlimit:4;stroke-dasharray:none;stroke-dashoffset:0;stroke-opacity:1;color-rendering:auto;image-rendering:auto;shape-rendering:auto;text-rendering:auto;enable-background:accumulate"
     id="rect4263-9"
     width="1"
     height="1"
     x="-7"
     y="21.000029"
     ry="2.35182e-07" />
  <rect
     style="color:#000000;text-decoration:none;text-decoration-line:none;text-decoration-style:solid;text-decoration-color:#000000;clip-rule:nonzero;display:inline;overflow:visible;visibility:visible;opacity:1;isolation:auto;mix-blend-mode:normal;color-interpolation:sRGB;color-interpolation-filters:linearRGB;solid-color:#000000;solid-opacity:1;fill:#bdc3c7;fill-opacity:1;fill-rule:nonzero;stroke:none;stroke-width:1;stroke-linecap:butt;stroke-linejoin:miter;stroke-miterlimit:4;stroke-dasharray:none;stroke-dashoffset:0;stroke-opacity:1;color-rendering:auto;image-rendering:auto;shape-rendering:auto;text-rendering:auto;enable-background:accumulate"
     id="rect4263-2"
     width="1"
     height="1"
     x="-7"
     y="23.000029"
     ry="2.35182e-07" />
  <path
     style="color:#000000;text-decoration:none;text-decoration-line:none;text-decoration-style:solid;text-decoration-color:#000000;clip-rule:nonzero;display:inline;overflow:visible;visibility:visible;opacity:1;isolation:auto;mix-blend-mode:normal;color-interpolation:sRGB;color-interpolation-filters:linearRGB;solid-color:#000000;solid-opacity:1;fill:#bdc3c7;fill-opacity:1;fill-rule:nonzero;stroke:none;stroke-width:1;stroke-linecap:butt;stroke-linejoin:miter;stroke-miterlimit:4;stroke-dasharray:none;stroke-dashoffset:0;stroke-opacity:1;color-rendering:auto;image-rendering:auto;shape-rendering:auto;text-rendering:auto;enable-background:accumulate"
     d="m 23,15 0,2.181641 C 21.835311,17.593201 21,18.690917 21,20 c 0,0.78632 0.307219,1.493457 0.798828,2.027344 L 19.662109,30 18,30 l 0,0.923828 1.414062,0 -0.486328,1.816406 L 19.894531,33 20.451172,30.923828 23,30.923828 23,32 l 2,0 0,-1.076172 2.548828,0 L 28.105469,33 29.072266,32.740234 28.585938,30.923828 30,30.923828 30,30 28.337891,30 26.201172,22.027344 C 26.692781,21.493457 27,20.78632 27,20 27,18.690917 26.164689,17.593201 25,17.181641 L 25,15 23,15 Z m 1,3 c 1.108,0 2,0.892 2,2 0,0.130107 -0.01487,0.256505 -0.03906,0.378906 -0.01144,0.06 -0.03024,0.115891 -0.04688,0.173828 -0.01542,0.052 -0.02934,0.104197 -0.04883,0.154297 -0.03398,0.08995 -0.07508,0.174662 -0.121093,0.257813 -0.0063,0.01122 -0.013,0.02211 -0.01953,0.0332 -0.05433,0.09386 -0.115227,0.182304 -0.183593,0.265625 -0.133402,0.162583 -0.288819,0.306328 -0.466797,0.419922 -0.139246,0.08887 -0.291039,0.156496 -0.451172,0.208984 -0.03433,0.01148 -0.06838,0.02162 -0.103516,0.03125 C 24.352979,21.968504 24.181034,22 24,22 23.818966,22 23.647021,21.9685 23.480469,21.92383 23.445329,21.91423 23.411279,21.90406 23.376953,21.89258 23.21682,21.84009 23.065027,21.772467 22.925781,21.683594 22.747803,21.57 22.592386,21.426255 22.458984,21.263672 c -0.06837,-0.08332 -0.129265,-0.171768 -0.183593,-0.265625 -0.0065,-0.01109 -0.0132,-0.02198 -0.01953,-0.0332 -0.04601,-0.08315 -0.08712,-0.167867 -0.121093,-0.257813 -0.01949,-0.0501 -0.0334,-0.102301 -0.04883,-0.154297 -0.01664,-0.05794 -0.03544,-0.113829 -0.04688,-0.173828 C 22.01487,20.256505 22,20.130107 22,20 22,19.8615 22.01446,19.726133 22.04102,19.595703 22.226898,18.682695 23.0305,18 24,18 Z m -1.339844,4.673828 C 23.064553,22.876227 23.515361,23 24,23 c 0.484639,0 0.935447,-0.123773 1.339844,-0.326172 L 27.302734,30 25,30 l 0,-1 -2,0 0,1 -2.302734,0 1.96289,-7.326172 z"
     id="rect4217"
     inkscape:connector-curvature="0" />
</svg>
