<?xml version="1.0" encoding="UTF-8" standalone="no"?>
<!-- Created using Karbon, part of Calligra: http://www.calligra.org/karbon -->

<svg
   xmlns:dc="http://purl.org/dc/elements/1.1/"
   xmlns:cc="http://creativecommons.org/ns#"
   xmlns:rdf="http://www.w3.org/1999/02/22-rdf-syntax-ns#"
   xmlns:svg="http://www.w3.org/2000/svg"
   xmlns="http://www.w3.org/2000/svg"
   xmlns:sodipodi="http://sodipodi.sourceforge.net/DTD/sodipodi-0.dtd"
   xmlns:inkscape="http://www.inkscape.org/namespaces/inkscape"
   width="48"
   height="48"
   id="svg2"
   version="1.1"
   inkscape:version="0.91pre2 r"
   sodipodi:docname="application-x-deb.svg">
  <metadata
     id="metadata17">
    <rdf:RDF>
      <cc:Work
         rdf:about="">
        <dc:format>image/svg+xml</dc:format>
        <dc:type
           rdf:resource="http://purl.org/dc/dcmitype/StillImage" />
        <dc:title></dc:title>
      </cc:Work>
    </rdf:RDF>
  </metadata>
  <sodipodi:namedview
     pagecolor="#ffffff"
     bordercolor="#666666"
     borderopacity="1"
     objecttolerance="10"
     gridtolerance="10"
     guidetolerance="10"
     inkscape:pageopacity="0"
     inkscape:pageshadow="2"
     inkscape:window-width="1366"
     inkscape:window-height="672"
     id="namedview15"
     showgrid="true"
     inkscape:showpageshadow="false"
     borderlayer="true"
     units="px"
     inkscape:zoom="9.8333329"
     inkscape:cx="20.767907"
     inkscape:cy="27.132776"
     inkscape:window-x="-4"
     inkscape:window-y="25"
     inkscape:window-maximized="1"
     inkscape:current-layer="svg2">
    <inkscape:grid
       type="xygrid"
       id="grid4146" />
    <sodipodi:guide
       position="0,48"
       orientation="48,0"
       id="guide4152" />
    <sodipodi:guide
       position="0,0"
       orientation="0,48"
       id="guide4154" />
    <sodipodi:guide
       position="48,0"
       orientation="-48,0"
       id="guide4156" />
    <sodipodi:guide
       position="48,48"
       orientation="0,-48"
       id="guide4158" />
    <sodipodi:guide
       position="15,33"
       orientation="18,0"
       id="guide4160" />
    <sodipodi:guide
       position="15,15"
       orientation="0,18"
       id="guide4162" />
    <sodipodi:guide
       position="33,15"
       orientation="-18,0"
       id="guide4164" />
    <sodipodi:guide
       position="33,33"
       orientation="0,-18"
       id="guide4166" />
    <sodipodi:guide
       position="7.01576,43.99606"
       orientation="0,22.9842"
       id="guide4178" />
    <sodipodi:guide
       position="29.99996,43.99606"
       orientation="11.0029,10.9932"
       id="guide4180" />
    <sodipodi:guide
       position="40.99316,32.99316"
       orientation="29.0011,0.0384"
       id="guide4182" />
    <sodipodi:guide
       position="41.03156,3.99206"
       orientation="0,-34.0158"
       id="guide4184" />
    <sodipodi:guide
       position="7.01576,3.99206"
       orientation="-40.004,-7.1054274e-15"
       id="guide4186" />
  </sodipodi:namedview>
  <defs
     id="defs4">
    <style
       type="text/css"
       id="style1115"><![CDATA[ .fil0 {fill:#1F1A17} ]]></style>
    <style
       type="text/css"
       id="style1246"><![CDATA[ .fil0 {fill:#1F1A17} ]]></style>
  </defs>
  <path
     inkscape:connector-curvature="0"
     style="fill:#d2527f;fill-opacity:1;stroke:none"
     d="m 6.9999956,4.0000694 0,39.9999996 34.0000004,0 0,-29 -11,-10.9999996 z"
     id="rect4090-2"
     sodipodi:nodetypes="cccccc" />
  <path
     style="fill:#de7ea0;fill-opacity:1;stroke:none;stroke-width:0.28222224px;stroke-linecap:butt;stroke-linejoin:miter;stroke-opacity:1"
     d="m 29.999934,3.9999311 0,11.0001599 11.000061,0 z"
     id="path4151-1"
     inkscape:connector-curvature="0" />
  <path
     inkscape:connector-curvature="0"
     id="path4252-9"
     d="m 40.999995,26.000252 0,-11.000161 -11.000061,0 z"
     style="fill:#000000;fill-opacity:0.11764706;stroke:none" />
  <rect
     style="color:#000000;text-decoration:none;text-decoration-line:none;text-decoration-style:solid;text-decoration-color:#000000;clip-rule:nonzero;display:inline;overflow:visible;visibility:visible;opacity:1;isolation:auto;mix-blend-mode:normal;color-interpolation:sRGB;color-interpolation-filters:linearRGB;solid-color:#000000;solid-opacity:1;fill:#d2527f;fill-opacity:1;fill-rule:nonzero;stroke:none;stroke-width:1;stroke-linecap:butt;stroke-linejoin:miter;stroke-miterlimit:4;stroke-dasharray:none;stroke-dashoffset:0;stroke-opacity:1;color-rendering:auto;image-rendering:auto;shape-rendering:auto;text-rendering:auto;enable-background:accumulate"
     id="rect4263"
     width="1"
     height="1"
     x="-7"
     y="19.000029"
     ry="2.35182e-07" />
  <rect
     style="color:#000000;text-decoration:none;text-decoration-line:none;text-decoration-style:solid;text-decoration-color:#000000;clip-rule:nonzero;display:inline;overflow:visible;visibility:visible;opacity:1;isolation:auto;mix-blend-mode:normal;color-interpolation:sRGB;color-interpolation-filters:linearRGB;solid-color:#000000;solid-opacity:1;fill:#de7ea0;fill-opacity:1;fill-rule:nonzero;stroke:none;stroke-width:1;stroke-linecap:butt;stroke-linejoin:miter;stroke-miterlimit:4;stroke-dasharray:none;stroke-dashoffset:0;stroke-opacity:1;color-rendering:auto;image-rendering:auto;shape-rendering:auto;text-rendering:auto;enable-background:accumulate"
     id="rect4263-9"
     width="1"
     height="1"
     x="-7"
     y="21.000029"
     ry="2.35182e-07" />
  <rect
     style="color:#000000;text-decoration:none;text-decoration-line:none;text-decoration-style:solid;text-decoration-color:#000000;clip-rule:nonzero;display:inline;overflow:visible;visibility:visible;opacity:1;isolation:auto;mix-blend-mode:normal;color-interpolation:sRGB;color-interpolation-filters:linearRGB;solid-color:#000000;solid-opacity:1;fill:#fbe5ee;fill-opacity:1;fill-rule:nonzero;stroke:none;stroke-width:1;stroke-linecap:butt;stroke-linejoin:miter;stroke-miterlimit:4;stroke-dasharray:none;stroke-dashoffset:0;stroke-opacity:1;color-rendering:auto;image-rendering:auto;shape-rendering:auto;text-rendering:auto;enable-background:accumulate"
     id="rect4263-2"
     width="1"
     height="1"
     x="-7"
     y="23.000029"
     ry="2.35182e-07" />
  <path
     id="path2820-9"
     d="m 25.049343,15.000068 c -0.278508,0.02256 -0.555264,0.03354 -0.82977,0.06835 l 0.11853,0.0189 c 0.201246,-0.07328 0.496626,-0.0378 0.71124,-0.08732 z m -1.216585,0.130992 c -0.45321,0.02688 -1.086451,0.265158 -0.892183,0.0501 -0.739302,0.329803 -2.051744,0.793285 -2.788838,1.484828 l -0.0186,-0.155922 c -0.337807,0.404646 -1.476338,1.208761 -1.565978,1.734427 l -0.08736,0.0189 c -0.175302,0.297079 -0.291732,0.636271 -0.430483,0.942145 -0.229404,0.391483 -0.338664,0.15063 -0.305724,0.212148 -0.451608,0.916339 -0.673758,1.688972 -0.867223,2.320881 0.138156,0.205818 0.0048,1.240843 0.05628,2.071364 -0.226008,4.101334 2.876169,8.084066 6.270193,9.002877 0.49692,0.177882 1.236169,0.17004 1.865462,0.187194 -0.742501,-0.211998 -0.836035,-0.109158 -1.559756,-0.361878 -0.521077,-0.245665 -0.634927,-0.528133 -1.004479,-0.848569 l 0.143496,0.262116 c -0.724519,-0.255834 -0.421152,-0.318972 -1.010713,-0.50538 l 0.155976,-0.205873 c -0.234786,-0.01824 -0.617508,-0.395622 -0.723732,-0.60522 l -0.262033,0.01224 c -0.308052,-0.380491 -0.46722,-0.654379 -0.455454,-0.867253 l -0.08736,0.14349 C 20.170849,29.863031 19.1311,28.59979 19.67155,28.894468 19.57172,28.803278 19.435114,28.745386 19.290976,28.482705 l 0.112296,-0.131058 c -0.259536,-0.334602 -0.478051,-0.761868 -0.461689,-0.904621 0.137959,0.187051 0.235639,0.223843 0.330673,0.255775 -0.656647,-1.62905 -0.694135,-0.08976 -1.191655,-1.659518 l 0.106068,-0.0068 c -0.08044,-0.121746 -0.12873,-0.257376 -0.193411,-0.38676 l 0.04362,-0.455407 c -0.472764,-0.545868 -0.131064,-2.319344 -0.0625,-3.294231 0.04692,-0.396132 0.391567,-0.822079 0.655099,-1.4849 l -0.162204,-0.02472 c 0.30726,-0.536496 1.761794,-2.153984 2.4332,-2.07128 0.325237,-0.407934 -0.0671,-0.0068 -0.131016,-0.106104 0.714349,-0.738541 0.940543,-0.52173 1.422494,-0.65511 0.519486,-0.308077 -0.446017,0.118446 -0.199645,-0.118555 0.898411,-0.229374 0.636373,-0.520194 1.809314,-0.63642 0.05058,0.02832 0.003,0.05742 -0.06874,0.08122 0.826165,-0.222834 2.179628,-0.106176 3.100785,0.31818 1.221223,0.570961 2.596875,2.261672 2.651571,3.849484 l 0.05616,0.0189 c -0.03024,0.630883 0.09602,1.356889 -0.124782,2.02772 l 0.143502,-0.305736 c 0.01458,0.473004 -0.138546,0.706524 -0.280758,1.116769 l -0.255793,0.1248 c -0.210636,0.409434 0.01938,0.260424 -0.131022,0.586453 -0.32922,0.2925 -1.002175,0.915619 -1.216609,0.973279 -0.156126,-0.0067 0.109158,-0.185515 0.143502,-0.255769 -0.440622,0.302617 -0.355632,0.458515 -1.029439,0.642601 l -0.0186,-0.04374 c -1.662667,0.782233 -3.972796,-0.772711 -3.943036,-2.888571 -0.01716,0.134106 -0.0507,0.102018 -0.08735,0.15591 -0.08591,-1.087903 0.498481,-2.17979 1.491122,-2.626616 0.970291,-0.479695 2.112764,-0.286171 2.807558,0.361872 -0.381336,-0.499909 -1.145593,-1.028635 -2.046404,-0.979531 -0.882036,0.01392 -1.707883,0.576277 -1.983998,1.185421 -0.451398,0.283698 -0.502308,1.098877 -0.698766,1.247737 -0.265135,1.948238 0.498474,2.784435 1.790582,3.774598 0.202842,0.136644 0.06019,0.15774 0.08736,0.262104 -0.428845,-0.200508 -0.825145,-0.501378 -1.147976,-0.87351 0.171487,0.250392 0.359575,0.49446 0.598945,0.686304 -0.404688,-0.136572 -0.946777,-0.982585 -1.104307,-1.016983 0.697171,1.249417 2.831859,2.195282 3.949282,1.728242 -0.516277,0.01824 -1.178413,0.0077 -1.759388,-0.205884 -0.243972,-0.12552 -0.570906,-0.382171 -0.511608,-0.430531 1.523917,0.568633 3.097737,0.426601 4.41721,-0.63009 0.335418,-0.261163 0.698821,-0.705079 0.804829,-0.711259 -0.139224,0.209454 -0.01428,0.14043 -0.06249,0.262032 0.249954,-0.441594 -0.155016,-0.189084 0.311958,-0.867175 l 0.180924,0.249517 c -0.0671,-0.447769 0.555985,-0.988843 0.492895,-1.69697 0.07142,-0.108072 0.11562,-0.04812 0.11853,0.09978 -0.0077,-0.132438 -0.02418,-0.262476 0,-0.467916 0.05772,0.15279 0.134964,0.31911 0.17469,0.480426 -0.136542,-0.533226 0.136422,-0.900133 0.205896,-1.210375 -0.06797,-0.02988 -0.210576,0.236214 -0.243324,-0.393073 0.0048,-0.273744 0.07871,-0.145026 0.106068,-0.212142 -0.0531,-0.02988 -0.195102,-0.239484 -0.280758,-0.6426 0.06163,-0.09437 0.164706,0.247842 0.249558,0.262026 -0.05364,-0.319848 -0.145944,-0.565447 -0.149736,-0.811033 -0.24735,-0.517074 -0.08659,0.06537 -0.287004,-0.224652 -0.262729,-0.821353 0.216828,-0.188718 0.24957,-0.561511 0.398496,0.578023 0.625555,1.4756 0.729961,1.84679 -0.07948,-0.452202 -0.210583,-0.892411 -0.368107,-1.316473 0.121794,0.0501 -0.196392,-0.931177 0.155976,-0.280711 -0.37653,-1.385791 -1.608151,-2.680448 -2.745158,-3.287985 0.137964,0.126972 0.312654,0.286164 0.249564,0.311977 -0.565405,-0.336055 -0.467766,-0.363403 -0.549031,-0.505357 -0.459996,-0.187278 -0.4875,0.01458 -0.792354,0 -0.868063,-0.4602 -1.035067,-0.410316 -1.834262,-0.698755 l 0.03738,0.168444 c -0.574777,-0.191052 -0.669757,0.072 -1.291465,0 -0.03738,-0.02832 0.198204,-0.103128 0.39306,-0.131052 -0.555217,0.07343 -0.528673,-0.109824 -1.073113,0.0189 0.133554,-0.09367 0.275448,-0.157092 0.4182,-0.237384 z m 6.644527,7.892348 c 0.0042,0.147498 -0.0363,0.381384 -0.112308,0.630169 0.115596,-0.303043 0.122052,-0.468991 0.112308,-0.630169 z M 24.281943,15.2309 c 0.159126,0.02754 0.338514,0.04944 0.311958,0.08736 0.173904,-0.03852 0.21912,-0.07201 -0.311958,-0.08736 z m 0.311958,0.08736 -0.106056,0.02472 0.09983,-0.01224 0.0065,-0.01248 z m -0.904657,1.578434 c -0.09985,0.02988 -0.223002,0.06038 -0.274512,0.106104 0.08162,-0.04002 0.17403,-0.07675 0.274512,-0.106116 z m -6.432402,1.959146 c 0.0462,0.429576 -0.322987,0.59562 0.08111,0.311916 0.217416,-0.489954 -0.0841,-0.134118 -0.08111,-0.311922 z m -0.330661,1.366357 c -0.258144,0.329797 -0.11634,0.399265 -0.143508,0.623833 0.09344,-0.286314 0.107568,-0.457819 0.143508,-0.623839 z m 10.631237,1.990208 c -0.03666,0 -0.08237,0.09751 -0.106062,0.19962 0.05442,0.02922 0.09604,0.378181 0.149748,0.162181 0.01794,-0.268291 -0.0073,-0.362839 -0.04368,-0.361813 z m 3.262989,0.904609 -0.04368,0.112296 c -0.07948,0.570247 -0.2517,1.135543 -0.51783,1.659518 0.293286,-0.552139 0.481866,-1.159549 0.56151,-1.77182 z m -3.456393,0.205902 c -0.03978,0.197293 -0.14814,0.369001 -0.249558,0.549073 -0.557623,0.350898 -0.05232,-0.21141 0,-0.424285 -0.598945,0.754885 -0.07795,0.449881 -0.09983,0.661369 0.177697,-0.245022 0.304279,-0.508428 0.349387,-0.786163 z m -1.216597,1.147963 c -0.241771,0.0597 -0.487441,0.0597 -0.736201,0.0378 -0.297876,0.0067 0.05376,0.15222 0.442956,0.212142 0.107814,-0.08408 0.206797,-0.166896 0.293245,-0.249595 z m -3.762124,0.04374 c 0.06538,0.241734 0.198858,0.443832 0.324438,0.65502 l -0.09359,-0.268278 c -0.103812,-0.114618 -0.161358,-0.249738 -0.230844,-0.38682 z m -0.230838,0.40551 -0.04362,0.205884 c 0.19566,0.26595 0.354804,0.559177 0.605166,0.767401 -0.179256,-0.35106 -0.315114,-0.497677 -0.561474,-0.973363 z"
     style="fill:#fbe5ee;fill-opacity:1"
     inkscape:connector-curvature="0" />
</svg>
