<?xml version="1.0" standalone="no"?>
<!DOCTYPE svg PUBLIC "-//W3C//DTD SVG 20010904//EN" "http://www.w3.org/TR/2001/REC-SVG-20010904/DTD/svg10.dtd">
<!-- Created using Karbon, part of Calligra: http://www.calligra.org/karbon -->
<svg xmlns="http://www.w3.org/2000/svg" xmlns:xlink="http://www.w3.org/1999/xlink" width="38.4pt" height="38.4pt">
<defs/>
<g id="layer0">
  <path id="shape4" transform="matrix(3.88578e-16 1 -1 3.88578e-16 28.1952 19.2102)" fill="#f2f2f2" fill-rule="evenodd" stroke="#595959" stroke-width="0.00000000000" stroke-linecap="square" stroke-linejoin="miter" stroke-miterlimit="2.01260185242" d="M8.10829 3.78888C7.96104 1.57858 6.06867 -0.10535 3.85624 0.00514013C1.64379 0.11563 -0.0713897 1.97973 0.00228729 4.1937C0.0759643 6.40767 1.91128 8.15361 4.12616 8.11676C6.34106 8.07992 8.11727 6.27391 8.11727 4.05871"/>
  <path id="shape1" transform="translate(24.1444, 23.21)" fill="none" stroke="#f2f2f2" stroke-width="3.11811563800" stroke-linecap="square" stroke-linejoin="bevel" d="M0 0L0 23.271"/>
  <path id="shape0" transform="translate(14.1367, 13.5736)" fill="none" stroke="#f2f2f2" stroke-width="3.11811563800" stroke-linecap="square" stroke-linejoin="miter" stroke-miterlimit="2.01260191180" d="M17.9048 16.1443C21.1572 11.9593 20.5814 5.96399 16.592 2.47442C12.6026 -1.01515 6.58404 -0.788014 2.86902 2.99233C-0.846012 6.77266 -0.968243 12.7943 2.59032 16.7223"/>
  <path id="shape11" transform="translate(8.02221, 7.68524)" fill="none" stroke="#4d4d4d" stroke-width="3.13122589693" stroke-linecap="square" stroke-linejoin="miter" stroke-miterlimit="2.01260185242" d="M28.7039 25.8816C33.9526 19.1277 32.9779 9.44331 26.4885 3.87085C19.9991 -1.70162 10.2786 -1.20119 4.39577 5.00823C-1.48709 11.2177 -1.46216 20.9509 4.45243 27.1301"/>
  <path id="shape2" transform="translate(2.12861, 1.99936)" fill="none" stroke="#4d4d4d" stroke-width="3.13122589693" stroke-linecap="square" stroke-linejoin="miter" stroke-miterlimit="2.01260185242" d="M39.251 35.3917C46.4117 26.1776 45.1037 12.9699 36.275 5.33916C27.4462 -2.29155 14.1883 -1.67309 6.10827 6.7464C-1.97177 15.1659 -2.04443 28.438 5.94295 36.9454"/>
 </g>
</svg>
