<?xml version="1.0" standalone="no"?>
<!DOCTYPE svg PUBLIC "-//W3C//DTD SVG 20010904//EN" "http://www.w3.org/TR/2001/REC-SVG-20010904/DTD/svg10.dtd">
<!-- Created using Karbon, part of Calligra: http://www.calligra.org/karbon -->
<svg xmlns="http://www.w3.org/2000/svg" xmlns:xlink="http://www.w3.org/1999/xlink" width="38.4pt" height="38.4pt">
<defs/>
<g id="layer0">
  <path id="shape4" transform="matrix(3.88578e-16 1 -1 3.88578e-16 28.1952 19.2102)" fill="#4d4d4d" fill-rule="evenodd" stroke="#595959" stroke-width="0.00000000000" stroke-linecap="square" stroke-linejoin="miter" stroke-miterlimit="2.01260185242" d="M8.10829 3.78888C7.96104 1.57858 6.06867 -0.10535 3.85624 0.00514013C1.64379 0.11563 -0.0713897 1.97973 0.00228729 4.1937C0.0759643 6.40767 1.91128 8.15361 4.12616 8.11676C6.34106 8.07992 8.11727 6.27391 8.11727 4.05871"/>
  <path id="shape1" transform="translate(24.1444, 23.21)" fill="none" stroke="#4d4d4d" stroke-width="3.13122589693" stroke-linecap="square" stroke-linejoin="bevel" d="M0 0L0 23.271"/>
  <path id="shape0" transform="matrix(0.707107 -0.707107 0.707107 0.707107 15.4538 10.2293)" fill="#de6143" fill-rule="evenodd" stroke="#de6143" stroke-width="1.87405836470" stroke-linecap="square" stroke-linejoin="miter" stroke-miterlimit="2.01260191180" d="M5.95298 0L6.44906 0L6.44906 5.98605L12.402 5.98605L12.402 6.48489L6.44906 6.48489L6.44906 12.4709L5.95298 12.4709L5.95298 6.48489L0 6.48489L0 5.98605L5.95298 5.98605Z"/>
 </g>
</svg>
