<?xml version="1.0" encoding="UTF-8" standalone="no"?>
<!-- Created with Inkscape (http://www.inkscape.org/) -->

<svg
   xmlns:dc="http://purl.org/dc/elements/1.1/"
   xmlns:cc="http://creativecommons.org/ns#"
   xmlns:rdf="http://www.w3.org/1999/02/22-rdf-syntax-ns#"
   xmlns:svg="http://www.w3.org/2000/svg"
   xmlns="http://www.w3.org/2000/svg"
   xmlns:sodipodi="http://sodipodi.sourceforge.net/DTD/sodipodi-0.dtd"
   xmlns:inkscape="http://www.inkscape.org/namespaces/inkscape"
   width="64"
   height="64"
   viewBox="0 0 64 64.000003"
   id="svg2"
   version="1.1"
   inkscape:version="0.91+devel r"
   sodipodi:docname="printer.svg">
  <defs
     id="defs4" />
  <sodipodi:namedview
     id="base"
     pagecolor="#ffffff"
     bordercolor="#666666"
     borderopacity="1.0"
     inkscape:pageopacity="0.0"
     inkscape:pageshadow="2"
     inkscape:zoom="8.1875"
     inkscape:cx="32"
     inkscape:cy="32"
     inkscape:document-units="px"
     inkscape:current-layer="layer1"
     showgrid="true"
     units="px"
     inkscape:showpageshadow="false"
     borderlayer="true"
     inkscape:window-width="1366"
     inkscape:window-height="670"
     inkscape:window-x="-4"
     inkscape:window-y="29"
     inkscape:window-maximized="1">
    <inkscape:grid
       type="xygrid"
       id="grid4136" />
    <sodipodi:guide
       position="5,59.000069"
       orientation="54,0"
       id="guide4142" />
    <sodipodi:guide
       position="5,5.0000688"
       orientation="0,54"
       id="guide4144" />
    <sodipodi:guide
       position="59,5.0000688"
       orientation="-54,0"
       id="guide4146" />
    <sodipodi:guide
       position="59,59.000069"
       orientation="0,-54"
       id="guide4148" />
    <sodipodi:guide
       position="0,64.000069"
       orientation="64,0"
       id="guide4150" />
    <sodipodi:guide
       position="0,6.875e-05"
       orientation="0,64"
       id="guide4152" />
    <sodipodi:guide
       position="64,6.875e-05"
       orientation="-64,0"
       id="guide4154" />
    <sodipodi:guide
       position="64,64.000069"
       orientation="0,-64"
       id="guide4156" />
    <sodipodi:guide
       position="5,32.00007"
       orientation="27,0"
       id="guide4210" />
    <sodipodi:guide
       position="5,5.000069"
       orientation="0,27"
       id="guide4212" />
    <sodipodi:guide
       position="32,5.000069"
       orientation="-27,0"
       id="guide4214" />
    <sodipodi:guide
       position="32,32.00007"
       orientation="0,-27"
       id="guide4216" />
  </sodipodi:namedview>
  <metadata
     id="metadata7">
    <rdf:RDF>
      <cc:Work
         rdf:about="">
        <dc:format>image/svg+xml</dc:format>
        <dc:type
           rdf:resource="http://purl.org/dc/dcmitype/StillImage" />
        <dc:title />
      </cc:Work>
    </rdf:RDF>
  </metadata>
  <g
     inkscape:label="Capa 1"
     inkscape:groupmode="layer"
     id="layer1"
     transform="translate(0,-1058.5196)">
    <path
       style="opacity:1;fill:#303030;fill-opacity:1;stroke:none;stroke-width:1;stroke-linecap:round;stroke-linejoin:miter;stroke-miterlimit:4;stroke-dasharray:none;stroke-opacity:0.29943501"
       d="M 19 13 L 19 22 L 17 22 L 17 28 L 47 28 L 47 22 L 45 22 L 45 13 L 32 13 L 19 13 z "
       transform="translate(0,1058.5196)"
       id="rect4263" />
    <rect
       style="opacity:1;fill:#ecf0f1;fill-opacity:1;stroke:none;stroke-width:1;stroke-linecap:round;stroke-linejoin:miter;stroke-miterlimit:4;stroke-dasharray:none;stroke-opacity:0.29943501"
       id="rect4275"
       width="24"
       height="28"
       x="20"
       y="1063.5197" />
    <path
       style="opacity:1;fill:#5f626b;fill-opacity:1;stroke:none;stroke-width:1;stroke-linecap:round;stroke-linejoin:miter;stroke-miterlimit:4;stroke-dasharray:none;stroke-opacity:0.29943501"
       d="m 5,35 0,2 0,14 c 0,0.55397 0.4460296,1 1,1 l 52,0 c 0.55397,0 1,-0.44603 1,-1 l 0,-14 0,-1 0,-1 -1,0 -2,0 -48,0 z"
       transform="translate(0,1058.5196)"
       id="rect4185"
       inkscape:connector-curvature="0"
       sodipodi:nodetypes="ccssssccccccc" />
    <path
       style="fill:#a6abb5;fill-opacity:1;fill-rule:evenodd;stroke:none;stroke-width:1px;stroke-linecap:butt;stroke-linejoin:miter;stroke-opacity:1"
       d="m 10,25 -5,7 0,7 27,0 27,0 0,-7 -5,-7 -22,0 z"
       transform="translate(0,1058.5196)"
       id="path4187"
       inkscape:connector-curvature="0"
       sodipodi:nodetypes="ccccccccc" />
    <rect
       style="opacity:1;fill:#c8cbd1;fill-opacity:1;stroke:none;stroke-width:1;stroke-linecap:round;stroke-linejoin:miter;stroke-miterlimit:4;stroke-dasharray:none;stroke-opacity:0.29943501"
       id="rect4192"
       width="54"
       height="1.0000685"
       x="5"
       y="1090.5195" />
    <rect
       style="opacity:1;fill:#b3b8c0;fill-opacity:1;stroke:none;stroke-width:1;stroke-linecap:round;stroke-linejoin:miter;stroke-miterlimit:4;stroke-dasharray:none;stroke-opacity:0.29943501"
       id="rect4194"
       width="54"
       height="1"
       x="5"
       y="1091.5197" />
    <path
       style="opacity:1;fill:#c1c4c9;fill-opacity:1;stroke:none;stroke-width:1;stroke-linecap:round;stroke-linejoin:miter;stroke-miterlimit:4;stroke-dasharray:none;stroke-opacity:0.29943501"
       d="M 5.7148438 31 L 5 32 L 59 32 L 58.285156 31 L 5.7148438 31 z "
       transform="translate(0,1058.5196)"
       id="rect4196" />
    <path
       style="opacity:1;fill:#3b3b3b;fill-opacity:1;stroke:none;stroke-width:1;stroke-linecap:round;stroke-linejoin:miter;stroke-miterlimit:4;stroke-dasharray:none;stroke-opacity:0.29943501"
       d="M 15 51 L 13 56.333984 L 13 59 L 32 59 L 51 59 L 51 56.333984 L 49 51 L 32 51 L 15 51 z "
       transform="translate(0,1058.5196)"
       id="rect4201" />
    <path
       style="opacity:1;fill:#747880;fill-opacity:1;stroke:none;stroke-width:1;stroke-linecap:round;stroke-linejoin:miter;stroke-miterlimit:4;stroke-dasharray:none;stroke-opacity:0.29943501"
       d="M 16 37 C 15.44603 37 15 37.44603 15 38 L 15 49 L 15 50 L 15 51 L 16 51 L 48 51 L 49 51 L 49 50 L 49 49 L 49 38 C 49 37.44603 48.55397 37 48 37 L 16 37 z "
       transform="translate(0,1058.5196)"
       id="rect4206" />
    <path
       style="opacity:1;fill:#212121;fill-opacity:1;stroke:none;stroke-width:1;stroke-linecap:round;stroke-linejoin:miter;stroke-miterlimit:4;stroke-dasharray:none;stroke-opacity:0.29943501"
       d="M 13 58 L 13 59 L 51 59 L 51 58 L 13 58 z "
       transform="translate(0,1058.5196)"
       id="rect4208" />
    <path
       style="opacity:1;fill:#444444;fill-opacity:1;stroke:none;stroke-width:1;stroke-linecap:round;stroke-linejoin:miter;stroke-miterlimit:4;stroke-dasharray:none;stroke-opacity:0.29943501"
       d="M 13 57 L 13 58 L 51 58 L 51 57 L 13 57 z "
       transform="translate(0,1058.5196)"
       id="rect4216" />
    <path
       style="opacity:1;fill:#303030;fill-opacity:1;stroke:none;stroke-width:0.98601329;stroke-linecap:round;stroke-linejoin:miter;stroke-miterlimit:4;stroke-dasharray:none;stroke-opacity:0.29943501"
       d="M 15 51 L 14.625 52 L 49.375 52 L 49 51 L 15 51 z "
       transform="translate(0,1058.5196)"
       id="rect4258" />
    <rect
       style="opacity:1;fill:#323438;fill-opacity:1;stroke:none;stroke-width:1;stroke-linecap:round;stroke-linejoin:miter;stroke-miterlimit:4;stroke-dasharray:none;stroke-opacity:0.29943501"
       id="rect4342"
       width="28"
       height="6"
       x="18"
       y="1103.5197" />
    <path
       style="fill:#7cc8fe;fill-opacity:1;fill-rule:evenodd;stroke:none;stroke-width:1px;stroke-linecap:butt;stroke-linejoin:miter;stroke-opacity:1"
       d="M 20 50 L 19.5 51.75 L 19 53.5 L 18.875 53.9375 L 18.75 54.375 L 18.625 54.8125 L 18.5 55.25 L 18.375 55.6875 L 18.25 56.125 C 18.025473 56.911 18 57 18.875 57 L 19.75 57 L 20.625 57 L 21.5 57 L 25 57 L 32 57 L 39 57 L 42.5 57 L 43.375 57 L 44.25 57 L 45.125 57 C 46 57 45.974527 56.910844 45.75 56.125 L 45.625 55.6875 L 45.5 55.25 L 45.375 54.8125 L 45.25 54.375 L 45.125 53.9375 L 45 53.5 L 44.5 51.75 L 44 50 L 32 50 L 20 50 z "
       transform="translate(0,1058.5196)"
       id="path4358" />
    <path
       sodipodi:nodetypes="cccccccssscccc"
       inkscape:connector-curvature="0"
       id="rect4249"
       d="m 38.00002,1114.5174 c -0.614966,0 -1.199787,-0.1854 -1.605767,-0.5105 -0.448726,-0.038 -0.844594,-0.2242 -1.067222,-0.5006 -0.06103,0.012 -0.122542,0.019 -0.184171,0.019 -0.788969,0 -1.42856,-0.449 -1.42856,-1.0019 6.18e-4,-0.047 0.005,-0.088 0.01393,-0.1308 -0.4492,-0.1767 -0.7275,-0.5099 -0.72825,-0.8706 0,-0.5533 0.639591,-1.0021 1.42856,-1.0021 l 6.42859,0 c 1.183464,0 2.14285,0.6728 2.14285,1.5025 0,0.8294 -0.959386,1.5029 -2.14285,1.5029 -0.06251,-5e-4 -0.1248,-0.01 -0.186949,-0.014 -0.223015,0.2743 -0.618151,0.4592 -1.065851,0.4983 -0.4059,0.324 -0.9901,0.5084 -1.60435,0.51 z"
       style="opacity:1;fill:#baebfc;fill-opacity:1;stroke:none;stroke-width:0.59810567;stroke-opacity:1" />
  </g>
</svg>
