<?xml version="1.0" encoding="UTF-8" standalone="no"?>
<!-- Created with Inkscape (http://www.inkscape.org/) -->

<svg
   xmlns:dc="http://purl.org/dc/elements/1.1/"
   xmlns:cc="http://creativecommons.org/ns#"
   xmlns:rdf="http://www.w3.org/1999/02/22-rdf-syntax-ns#"
   xmlns:svg="http://www.w3.org/2000/svg"
   xmlns="http://www.w3.org/2000/svg"
   xmlns:sodipodi="http://sodipodi.sourceforge.net/DTD/sodipodi-0.dtd"
   xmlns:inkscape="http://www.inkscape.org/namespaces/inkscape"
   width="64"
   height="64"
   viewBox="0 0 64 64.000003"
   id="svg2"
   version="1.1"
   inkscape:version="0.91+devel r"
   sodipodi:docname="scanner.svg">
  <defs
     id="defs4" />
  <sodipodi:namedview
     id="base"
     pagecolor="#ffffff"
     bordercolor="#666666"
     borderopacity="1.0"
     inkscape:pageopacity="0.0"
     inkscape:pageshadow="2"
     inkscape:zoom="5.789437"
     inkscape:cx="-16.603283"
     inkscape:cy="29.671135"
     inkscape:document-units="px"
     inkscape:current-layer="layer1"
     showgrid="true"
     units="px"
     inkscape:showpageshadow="false"
     borderlayer="true"
     inkscape:window-width="2560"
     inkscape:window-height="957"
     inkscape:window-x="-4"
     inkscape:window-y="29"
     inkscape:window-maximized="1">
    <inkscape:grid
       type="xygrid"
       id="grid4136" />
    <sodipodi:guide
       position="5,59.000069"
       orientation="54,0"
       id="guide4142" />
    <sodipodi:guide
       position="5,5.0000688"
       orientation="0,54"
       id="guide4144" />
    <sodipodi:guide
       position="59,5.0000688"
       orientation="-54,0"
       id="guide4146" />
    <sodipodi:guide
       position="59,59.000069"
       orientation="0,-54"
       id="guide4148" />
    <sodipodi:guide
       position="0,64.000069"
       orientation="64,0"
       id="guide4150" />
    <sodipodi:guide
       position="0,6.875e-05"
       orientation="0,64"
       id="guide4152" />
    <sodipodi:guide
       position="64,6.875e-05"
       orientation="-64,0"
       id="guide4154" />
    <sodipodi:guide
       position="64,64.000069"
       orientation="0,-64"
       id="guide4156" />
    <sodipodi:guide
       position="10,35"
       orientation="38,0"
       id="guide4155" />
    <sodipodi:guide
       position="54,37"
       orientation="-38,0"
       id="guide4159" />
    <sodipodi:guide
       position="51,50.999947"
       orientation="0,-38"
       id="guide4161" />
  </sodipodi:namedview>
  <metadata
     id="metadata7">
    <rdf:RDF>
      <cc:Work
         rdf:about="">
        <dc:format>image/svg+xml</dc:format>
        <dc:type
           rdf:resource="http://purl.org/dc/dcmitype/StillImage" />
        <dc:title></dc:title>
      </cc:Work>
    </rdf:RDF>
  </metadata>
  <g
     inkscape:label="Capa 1"
     inkscape:groupmode="layer"
     id="layer1"
     transform="translate(0,-1058.5196)">
    <path
       style="opacity:1;fill:#5f626b;fill-opacity:1;stroke:none;stroke-width:0.1;stroke-linecap:square;stroke-linejoin:miter;stroke-miterlimit:4;stroke-dasharray:none;stroke-dashoffset:0;stroke-opacity:1"
       d="m 11,5 c -0.55397,0 -1,0.446 -1,1 0,17.333333 0,34.666667 0,52 0,0.554 0.44603,1 1,1 14,0 28,0 42,0 0.55397,0 1,-0.44603 1,-1 C 54,40.666667 54,23.333333 54,6 54,5.446 53.55397,5 53,5 Z"
       transform="translate(0,1058.5196)"
       id="rect4153"
       inkscape:connector-curvature="0"
       sodipodi:nodetypes="sccccccss" />
    <rect
       style="opacity:1;fill:#303030;fill-opacity:1;stroke:none;stroke-width:0.1;stroke-linecap:square;stroke-linejoin:miter;stroke-miterlimit:4;stroke-dasharray:none;stroke-dashoffset:0;stroke-opacity:1"
       id="rect4160"
       width="40"
       height="49.999947"
       x="12"
       y="1065.5197"
       ry="0.5" />
    <path
       style="opacity:1;fill:#ecf0f1;fill-opacity:1;stroke:none;stroke-width:0.1;stroke-linecap:square;stroke-linejoin:miter;stroke-miterlimit:4;stroke-dasharray:none;stroke-dashoffset:0;stroke-opacity:1"
       d="M 19 15 C 18.44603 15 18 15.44603 18 16 L 18 48 C 18 48.55397 18.44603 49 19 49 L 37 49 L 46 40 L 46 16 C 46 15.44603 45.55397 15 45 15 L 19 15 z "
       id="rect4343"
       transform="translate(0,1058.5196)" />
    <path
       sodipodi:nodetypes="cccccccccccccccccccccccccccccccccccccccccccccccccc"
       id="rect4240-4-6"
       d="m 20,1076.5196 0,2 13,0 0,-2 z m 0,6 0,1 24,0 0,-1 z m 0,2 0,1 24,0 0,-1 z m 0,2 0,1 6,0 0,-1 z m 0,4 0,1 24,0 0,-1 z m 0,2 0,1 13,0 0,-1 z m 0,2 0,1 18,0 0,-1 z m 11,5 0,1 10,0 0,-1 z m 0,2 0,1 10,0 0,-1 z m 0,2 0,1 5,0 0,-1 z"
       style="opacity:1;fill:#8b9ba1;fill-opacity:1;stroke:none;stroke-width:1;stroke-linecap:round;stroke-linejoin:miter;stroke-miterlimit:4;stroke-dasharray:none;stroke-opacity:0.29943501"
       inkscape:connector-curvature="0" />
    <rect
       style="opacity:1;fill:#d91e18;fill-opacity:1;stroke:none;stroke-width:0.1;stroke-linecap:square;stroke-linejoin:miter;stroke-miterlimit:4;stroke-dasharray:none;stroke-dashoffset:0;stroke-opacity:1"
       id="rect4240"
       width="40"
       height="1"
       x="12"
       y="1079.5197" />
    <path
       style="opacity:1;fill:#dadfe1;fill-opacity:1;stroke:none;stroke-width:0.1;stroke-linecap:square;stroke-linejoin:miter;stroke-miterlimit:4;stroke-dasharray:none;stroke-dashoffset:0;stroke-opacity:1"
       d="m 37,1107.5196 9,-9 -8,0 c -0.55397,0 -1,0.446 -1,1 l 0,8 z"
       id="path4348"
       inkscape:connector-curvature="0" />
    <path
       style="opacity:1;fill:#c6d2d6;fill-opacity:1;stroke:none;stroke-width:0.1;stroke-linecap:square;stroke-linejoin:miter;stroke-miterlimit:4;stroke-dasharray:none;stroke-dashoffset:0;stroke-opacity:1"
       d="M 18 48 C 18 48.55397 18.44603 49 19 49 L 36.5 49 C 36.777 49 37 48.777 37 48.5 C 37 48.223 36.777 48 36.5 48 L 18 48 z "
       transform="translate(0,1058.5196)"
       id="rect4350" />
    <rect
       style="opacity:1;fill:#747880;fill-opacity:1;stroke:none;stroke-width:0.1;stroke-linecap:square;stroke-linejoin:miter;stroke-miterlimit:4;stroke-dasharray:none;stroke-dashoffset:0;stroke-opacity:1"
       id="rect4162"
       width="24.000053"
       height="12.99997"
       x="1085.5197"
       y="-23"
       ry="1"
       transform="rotate(90)" />
    <rect
       style="opacity:1;fill:#3b3b3b;fill-opacity:1;stroke:none;stroke-width:0.1;stroke-linecap:square;stroke-linejoin:miter;stroke-miterlimit:4;stroke-dasharray:none;stroke-dashoffset:0;stroke-opacity:1"
       id="rect4228"
       width="22.000175"
       height="11.000034"
       x="1086.5197"
       y="-22"
       ry="0"
       transform="rotate(90)" />
    <rect
       style="opacity:1;fill:#22ade0;fill-opacity:1;stroke:none;stroke-width:0.1;stroke-linecap:square;stroke-linejoin:miter;stroke-miterlimit:4;stroke-dasharray:none;stroke-dashoffset:0;stroke-opacity:1"
       id="rect4215"
       width="20.000053"
       height="8.9999809"
       x="1087.5197"
       y="-21"
       ry="0"
       transform="rotate(90)" />
    <path
       style="fill:#86d2ee;fill-opacity:1;fill-rule:evenodd;stroke:none;stroke-width:1px;stroke-linecap:butt;stroke-linejoin:miter;stroke-opacity:1"
       d="m 14,1089.5196 0,1 2,0 0,1 -2,0 0,2 3,0 1,-2 -1,-2 -3,0 z"
       id="path4278"
       inkscape:connector-curvature="0" />
    <path
       style="opacity:1;fill:#86d2ee;fill-opacity:1;stroke:none;stroke-width:0.1;stroke-linecap:square;stroke-linejoin:miter;stroke-miterlimit:4;stroke-dasharray:none;stroke-dashoffset:0;stroke-opacity:1"
       d="m 14,1095.5196 0,2 0,1.9551 0,0.045 2,0 4,0 0,-4 -6,0 z m 2,1 1,0 0,2 -1,0 0,-2 z m 2,0 1,0 0,2 -1,0 0,-2 z"
       id="rect4283"
       inkscape:connector-curvature="0" />
    <path
       style="opacity:1;fill:#86d2ee;fill-opacity:1;stroke:none;stroke-width:0.1;stroke-linecap:square;stroke-linejoin:miter;stroke-miterlimit:4;stroke-dasharray:none;stroke-dashoffset:0;stroke-opacity:1"
       d="m 14,1102.5196 0,1 0,2 1,0 0,-2 4,0 0,2 1,0 0,-2 0,-1 -6,0 z m 2,3 1,1 1,-1 -2,0 z"
       id="rect4300"
       inkscape:connector-curvature="0" />
  </g>
</svg>
