<?xml version="1.0" encoding="UTF-8" standalone="no"?>
<!-- Created with Inkscape (http://www.inkscape.org/) -->

<svg
   xmlns:dc="http://purl.org/dc/elements/1.1/"
   xmlns:cc="http://creativecommons.org/ns#"
   xmlns:rdf="http://www.w3.org/1999/02/22-rdf-syntax-ns#"
   xmlns:svg="http://www.w3.org/2000/svg"
   xmlns="http://www.w3.org/2000/svg"
   xmlns:sodipodi="http://sodipodi.sourceforge.net/DTD/sodipodi-0.dtd"
   xmlns:inkscape="http://www.inkscape.org/namespaces/inkscape"
   width="24"
   height="24"
   id="svg4359"
   version="1.1"
   inkscape:version="0.91+devel r"
   sodipodi:docname="media-optical-copy.svg">
  <defs
     id="defs4361" />
  <sodipodi:namedview
     id="base"
     pagecolor="#ffffff"
     bordercolor="#666666"
     borderopacity="1.0"
     inkscape:pageopacity="0.0"
     inkscape:pageshadow="2"
     inkscape:zoom="19.226199"
     inkscape:cx="9.9227853"
     inkscape:cy="12.317368"
     inkscape:current-layer="layer1"
     showgrid="true"
     inkscape:grid-bbox="true"
     inkscape:document-units="px"
     inkscape:window-width="1366"
     inkscape:window-height="670"
     inkscape:window-x="-4"
     inkscape:window-y="29"
     inkscape:window-maximized="1"
     inkscape:showpageshadow="false"
     borderlayer="true"
     showguides="true"
     fit-margin-top="0"
     fit-margin-left="0"
     fit-margin-right="0"
     fit-margin-bottom="0">
    <inkscape:grid
       type="xygrid"
       id="grid4105"
       originx="1"
       originy="1" />
    <sodipodi:guide
       position="1,23"
       orientation="22,0"
       id="guide4111" />
    <sodipodi:guide
       position="1,1"
       orientation="0,22"
       id="guide4113" />
    <sodipodi:guide
       position="23,1"
       orientation="-22,0"
       id="guide4115" />
    <sodipodi:guide
       position="12,11"
       orientation="16,0"
       id="guide4130" />
    <sodipodi:guide
       position="20,20"
       orientation="0,-16"
       id="guide4136" />
    <sodipodi:guide
       position="4,23"
       orientation="19.000011,0"
       id="guide4152" />
    <sodipodi:guide
       position="4,3.9999886"
       orientation="0,4"
       id="guide4154" />
    <sodipodi:guide
       position="16,4"
       orientation="0,4.0000019"
       id="guide4162" />
    <sodipodi:guide
       position="20.000002,4"
       orientation="-19,0"
       id="guide4164" />
    <sodipodi:guide
       position="20.000002,23"
       orientation="0,-4.0000019"
       id="guide4166" />
  </sodipodi:namedview>
  <metadata
     id="metadata4364">
    <rdf:RDF>
      <cc:Work
         rdf:about="">
        <dc:format>image/svg+xml</dc:format>
        <dc:type
           rdf:resource="http://purl.org/dc/dcmitype/StillImage" />
        <dc:title></dc:title>
      </cc:Work>
    </rdf:RDF>
  </metadata>
  <g
     id="layer1"
     inkscape:label="Layer 1"
     inkscape:groupmode="layer"
     transform="translate(1,-25)">
    <rect
       style="color:#000000;clip-rule:nonzero;display:inline;overflow:visible;visibility:visible;opacity:1;isolation:auto;mix-blend-mode:normal;color-interpolation:sRGB;color-interpolation-filters:linearRGB;solid-color:#000000;solid-opacity:1;fill:#304050;fill-opacity:1;fill-rule:nonzero;stroke:none;stroke-width:1;stroke-linecap:butt;stroke-linejoin:miter;stroke-miterlimit:4;stroke-dasharray:none;stroke-dashoffset:0;stroke-opacity:1;color-rendering:auto;image-rendering:auto;shape-rendering:auto;text-rendering:auto;enable-background:accumulate"
       id="rect4147"
       width="2"
       height="2"
       x="-2.999999"
       y="24.999996" />
    <path
       style="opacity:1;fill:#304050;fill-opacity:1;stroke:none;stroke-width:0.1;stroke-linecap:round;stroke-linejoin:miter;stroke-miterlimit:4;stroke-dasharray:none;stroke-opacity:0.29943501"
       d="m 11,3 c -4.418278,0 -8,3.581722 -8,8 0,4.418278 3.581722,8 8,8 l 0,-2 C 7.6862915,17 5,14.313708 5,11 5,10.792893 5.010766,10.588421 5.03125,10.386719 5.33851,7.3611821 7.8933983,5 11,5 c 3.313708,0 6,2.6862915 6,6 l 2,0 C 19,6.581722 15.418278,3 11,3 Z m 0,5 C 9.5502526,8 8.3402857,9.0274824 8.0605469,10.394531 8.0205842,10.589824 8,10.792893 8,11 c 0,1.656854 1.3431458,3 3,3 l 0,-2 c -0.552285,0 -1,-0.447715 -1,-1 0,-0.138071 0.02752,-0.269034 0.07813,-0.388672 C 10.229933,10.252413 10.585786,10 11,10 c 0.552285,0 1,0.447715 1,1 l 2,0 C 14,9.3431458 12.656854,8 11,8 Z m 4.5,4 A 3.5,3.5 0 0 0 12,15.5 3.5,3.5 0 0 0 15.5,19 3.5,3.5 0 0 0 19,15.5 3.5,3.5 0 0 0 15.5,12 Z m 0,1 A 2.5,2.5 0 0 1 18,15.5 2.5,2.5 0 0 1 15.5,18 2.5,2.5 0 0 1 13,15.5 2.5,2.5 0 0 1 15.5,13 Z m 0,1 A 1.5,1.5 0 0 0 14,15.5 1.5,1.5 0 0 0 15.5,17 1.5,1.5 0 0 0 17,15.5 1.5,1.5 0 0 0 15.5,14 Z m 0,1 A 0.5,0.5 0 0 1 16,15.5 0.5,0.5 0 0 1 15.5,16 0.5,0.5 0 0 1 15,15.5 0.5,0.5 0 0 1 15.5,15 Z"
       transform="translate(0,26)"
       id="path4151"
       inkscape:connector-curvature="0" />
  </g>
</svg>
