<?xml version="1.0" encoding="UTF-8" standalone="no"?>
<!-- Created with Inkscape (http://www.inkscape.org/) -->

<svg
   xmlns:dc="http://purl.org/dc/elements/1.1/"
   xmlns:cc="http://creativecommons.org/ns#"
   xmlns:rdf="http://www.w3.org/1999/02/22-rdf-syntax-ns#"
   xmlns:svg="http://www.w3.org/2000/svg"
   xmlns="http://www.w3.org/2000/svg"
   xmlns:sodipodi="http://sodipodi.sourceforge.net/DTD/sodipodi-0.dtd"
   xmlns:inkscape="http://www.inkscape.org/namespaces/inkscape"
   width="24"
   height="24"
   id="svg4359"
   version="1.1"
   inkscape:version="0.91+devel r"
   sodipodi:docname="speaker.svg">
  <defs
     id="defs4361" />
  <sodipodi:namedview
     id="base"
     pagecolor="#ffffff"
     bordercolor="#666666"
     borderopacity="1.0"
     inkscape:pageopacity="0.0"
     inkscape:pageshadow="2"
     inkscape:zoom="16.263456"
     inkscape:cx="12.242596"
     inkscape:cy="14.586686"
     inkscape:current-layer="layer1"
     showgrid="true"
     inkscape:grid-bbox="true"
     inkscape:document-units="px"
     inkscape:window-width="1366"
     inkscape:window-height="670"
     inkscape:window-x="-4"
     inkscape:window-y="29"
     inkscape:window-maximized="1"
     inkscape:showpageshadow="false"
     borderlayer="true"
     showguides="true"
     fit-margin-top="0"
     fit-margin-left="0"
     fit-margin-right="0"
     fit-margin-bottom="0">
    <inkscape:grid
       type="xygrid"
       id="grid4105"
       originx="1"
       originy="1" />
    <sodipodi:guide
       position="1,23"
       orientation="22,0"
       id="guide4111" />
    <sodipodi:guide
       position="1,1"
       orientation="0,22"
       id="guide4113" />
    <sodipodi:guide
       position="23,1"
       orientation="-22,0"
       id="guide4115" />
    <sodipodi:guide
       position="12,11"
       orientation="16,0"
       id="guide4130" />
    <sodipodi:guide
       position="13,12"
       orientation="0,16"
       id="guide4132" />
    <sodipodi:guide
       position="20,20"
       orientation="0,-16"
       id="guide4136" />
    <sodipodi:guide
       position="4,23"
       orientation="19.000011,0"
       id="guide4152" />
    <sodipodi:guide
       position="16,4"
       orientation="0,4.0000019"
       id="guide4162" />
    <sodipodi:guide
       position="20.000002,4"
       orientation="-19,0"
       id="guide4164" />
    <sodipodi:guide
       position="20.000002,23"
       orientation="0,-4.0000019"
       id="guide4166" />
  </sodipodi:namedview>
  <metadata
     id="metadata4364">
    <rdf:RDF>
      <cc:Work
         rdf:about="">
        <dc:format>image/svg+xml</dc:format>
        <dc:type
           rdf:resource="http://purl.org/dc/dcmitype/StillImage" />
        <dc:title></dc:title>
      </cc:Work>
    </rdf:RDF>
  </metadata>
  <g
     id="layer1"
     inkscape:label="Layer 1"
     inkscape:groupmode="layer"
     transform="translate(1,-25)">
    <rect
       style="color:#000000;clip-rule:nonzero;display:inline;overflow:visible;visibility:visible;opacity:1;isolation:auto;mix-blend-mode:normal;color-interpolation:sRGB;color-interpolation-filters:linearRGB;solid-color:#000000;solid-opacity:1;fill:#304050;fill-opacity:1;fill-rule:nonzero;stroke:none;stroke-width:1;stroke-linecap:butt;stroke-linejoin:miter;stroke-miterlimit:4;stroke-dasharray:none;stroke-dashoffset:0;stroke-opacity:1;color-rendering:auto;image-rendering:auto;shape-rendering:auto;text-rendering:auto;enable-background:accumulate"
       id="rect4147"
       width="2"
       height="2"
       x="-2.999999"
       y="24.999996" />
    <path
       style="opacity:1;fill:#304050;fill-opacity:1;stroke:none;stroke-width:0.1;stroke-linecap:round;stroke-linejoin:miter;stroke-miterlimit:4;stroke-dasharray:none;stroke-opacity:0.29943501"
       d="M 5.5,3 C 4.115,3 3,4.115 3,5.5 3,6.2612432 3.3435819,6.932821 3.8769531,7.390625 A 8,8 0 0 0 3,11 8,8 0 0 0 3.875,14.611328 C 3.3428386,15.069113 3,15.739751 3,16.5 3,17.885 4.115,19 5.5,19 6.2622377,19 6.9347567,18.655676 7.3925781,18.121094 A 8,8 0 0 0 11,19 8,8 0 0 0 14.611328,18.125 C 15.069113,18.657161 15.739751,19 16.5,19 17.885,19 19,17.885 19,16.5 19,15.737762 18.655676,15.065243 18.121094,14.607422 A 8,8 0 0 0 19,11 8,8 0 0 0 18.125,7.3886719 C 18.657161,6.9308872 19,6.2602487 19,5.5 19,4.115 17.885,3 16.5,3 15.737762,3 15.065243,3.3443242 14.607422,3.8789062 A 8,8 0 0 0 11,3 8,8 0 0 0 7.3886719,3.875 C 6.9308872,3.3428386 6.2602487,3 5.5,3 Z m 0,2 c 0.063657,0 0.1237855,0.013653 0.1796875,0.035156 0,0 0.00195,0.00195 0.00195,0.00195 0.083673,0.032724 0.1523798,0.091103 0.2070313,0.1601562 0.011251,0.014451 0.021618,0.029255 0.03125,0.044922 C 5.9668943,5.3179235 6,5.4036805 6,5.5 6,5.777 5.777,6 5.5,6 5.4032295,6 5.3178903,5.9653823 5.2421875,5.9179688 5.2280946,5.9092612 5.214281,5.9006494 5.2011719,5.890625 5.1307937,5.8355646 5.0702909,5.7667487 5.0371094,5.6816406 5.0150897,5.6251619 5,5.5644558 5,5.5 5,5.223 5.223,5 5.5,5 Z M 11,5 a 6,6 0 0 1 3.033203,0.8300781 6,6 0 0 1 0.0078,0.00391 6,6 0 0 1 0.49414,0.3261718 A 6,6 0 0 1 15,6.5371094 6,6 0 0 1 15.425781,6.9589844 6,6 0 0 1 15.806641,7.421875 6,6 0 0 1 16.167969,7.9667969 6,6 0 0 1 17,11 a 6,6 0 0 1 -0.830078,3.033203 6,6 0 0 1 -0.0039,0.0078 6,6 0 0 1 -0.326172,0.49414 A 6,6 0 0 1 15.462891,15 6,6 0 0 1 15.041016,15.425781 6,6 0 0 1 14.578125,15.806641 6,6 0 0 1 14.033203,16.167969 6,6 0 0 1 11,17 6,6 0 0 1 7.9667969,16.169922 6,6 0 0 1 7.9589844,16.166016 6,6 0 0 1 7.4648438,15.839844 6,6 0 0 1 7,15.462891 6,6 0 0 1 6.5742188,15.041016 6,6 0 0 1 6.1933594,14.578125 6,6 0 0 1 5.8320312,14.033203 6,6 0 0 1 5,11 6,6 0 0 1 5.8300781,7.9667969 6,6 0 0 1 5.8339844,7.9589844 6,6 0 0 1 6.1601562,7.4648438 6,6 0 0 1 6.5371094,7 6,6 0 0 1 6.9589844,6.5742188 6,6 0 0 1 7.421875,6.1933594 6,6 0 0 1 7.9667969,5.8320312 6,6 0 0 1 11,5 Z m 5.5,0 c 0.277,0 0.5,0.223 0.5,0.5 0,0.06925 -0.01383,0.1354531 -0.03906,0.1953125 -0.02523,0.059859 -0.06223,0.1130156 -0.107422,0.1582031 -0.04519,0.045187 -0.09834,0.082187 -0.158204,0.1074219 C 16.635453,5.9861719 16.56925,6 16.5,6 16.43075,6 16.364547,5.986172 16.304688,5.960937 16.245338,5.935916 16.193388,5.898176 16.148438,5.8535151 a 0.5,0.5 0 0 1 -0.002,0 c -0.04416,-0.044165 -0.08031,-0.09606 -0.105468,-0.1542968 -5.83e-4,-0.00135 -0.0014,-0.00255 -0.002,-0.00391 a 0.5,0.5 0 0 1 0,-0.00195 C 16.014286,5.6339612 16,5.5685841 16,5.5 c 0,-0.06925 0.01383,-0.1354531 0.03906,-0.1953125 0.02502,-0.059354 0.06276,-0.1112995 0.107422,-0.15625 0,0 0,-0.00195 0,-0.00195 0.04352,-0.043524 0.09512,-0.078413 0.152344,-0.1035156 0.004,-0.00176 0.0076,-0.0042 0.01172,-0.00586 C 16.368921,5.0133277 16.432881,5 16.5,5 Z M 11,6 a 5,5 0 0 0 -5,5 5,5 0 0 0 5,5 5,5 0 0 0 5,-5 5,5 0 0 0 -5,-5 z m 0,2 a 3,3 0 0 1 3,3 3,3 0 0 1 -3,3 3,3 0 0 1 -3,-3 3,3 0 0 1 3,-3 z m 0,2 a 1,1 0 0 0 -1,1 1,1 0 0 0 1,1 1,1 0 0 0 1,-1 1,1 0 0 0 -1,-1 z m -5.5,6 c 0.06925,0 0.1354531,0.01383 0.1953125,0.03906 0.059354,0.02502 0.1112995,0.06276 0.15625,0.107422 0,0 0.00195,0 0.00195,0 0.044165,0.04416 0.080307,0.09606 0.1054688,0.154297 a 0.5,0.5 0 0 1 0.00195,0.0059 C 5.9857138,16.366039 6,16.431416 6,16.5 c 0,0.06925 -0.013828,0.135453 -0.039063,0.195312 -0.025021,0.05935 -0.062761,0.1113 -0.1074219,0.15625 a 0.5,0.5 0 0 1 0,0.002 c -0.043524,0.04352 -0.095119,0.07841 -0.1523437,0.103515 a 0.5,0.5 0 0 1 -0.011719,0.0059 C 5.6310792,16.986672 5.5671192,17 5.5,17 5.223,17 5,16.777 5,16.5 5,16.43075 5.013828,16.364547 5.039063,16.304688 5.064297,16.244828 5.101297,16.191672 5.1464849,16.146484 5.1916719,16.101294 5.2448289,16.064294 5.304688,16.039062 5.3645469,16.013828 5.43075,16 5.5,16 Z m 11,0 c 0.06925,0 0.135453,0.01383 0.195312,0.03906 0.05935,0.02502 0.1113,0.06276 0.15625,0.107422 0,0 0.002,0 0.002,0 0.04352,0.04352 0.07841,0.09512 0.103515,0.152344 a 0.5,0.5 0 0 1 0.0059,0.01172 C 16.986672,16.368921 17,16.432881 17,16.5 c 0,0.277 -0.223,0.5 -0.5,0.5 -0.06925,0 -0.135453,-0.01383 -0.195312,-0.03906 -0.05986,-0.02523 -0.113016,-0.06223 -0.158204,-0.107422 -0.04519,-0.04519 -0.08219,-0.09834 -0.107422,-0.158204 C 16.013828,16.635453 16,16.56925 16,16.5 c 0,-0.06925 0.01383,-0.135453 0.03906,-0.195312 0.02502,-0.05935 0.06276,-0.1113 0.107422,-0.15625 0,0 0,-0.002 0,-0.002 0.04416,-0.04416 0.09606,-0.08031 0.154297,-0.105468 0.0013,-5.83e-4 0.0026,-0.0014 0.0039,-0.002 a 0.5,0.5 0 0 1 0.002,0 C 16.366039,16.014286 16.431416,16 16.5,16 Z"
       transform="translate(0,26)"
       id="path4161"
       inkscape:connector-curvature="0" />
  </g>
</svg>
