<?xml version="1.0" encoding="UTF-8" standalone="no"?>
<!-- Created using Karbon, part of Calligra: http://www.calligra.org/karbon -->

<svg
   xmlns:dc="http://purl.org/dc/elements/1.1/"
   xmlns:cc="http://creativecommons.org/ns#"
   xmlns:rdf="http://www.w3.org/1999/02/22-rdf-syntax-ns#"
   xmlns:svg="http://www.w3.org/2000/svg"
   xmlns="http://www.w3.org/2000/svg"
   xmlns:sodipodi="http://sodipodi.sourceforge.net/DTD/sodipodi-0.dtd"
   xmlns:inkscape="http://www.inkscape.org/namespaces/inkscape"
   width="48"
   height="48"
   id="svg2"
   version="1.1"
   inkscape:version="0.91+devel r"
   sodipodi:docname="computer.svg">
  <metadata
     id="metadata12">
    <rdf:RDF>
      <cc:Work
         rdf:about="">
        <dc:format>image/svg+xml</dc:format>
        <dc:type
           rdf:resource="http://purl.org/dc/dcmitype/StillImage" />
        <dc:title />
      </cc:Work>
    </rdf:RDF>
  </metadata>
  <sodipodi:namedview
     pagecolor="#ffffff"
     bordercolor="#666666"
     borderopacity="1"
     objecttolerance="10"
     gridtolerance="10"
     guidetolerance="10"
     inkscape:pageopacity="0"
     inkscape:pageshadow="2"
     inkscape:window-width="1366"
     inkscape:window-height="670"
     id="namedview10"
     showgrid="true"
     inkscape:showpageshadow="false"
     borderlayer="true"
     fit-margin-top="0"
     fit-margin-left="0"
     fit-margin-right="0"
     fit-margin-bottom="0"
     inkscape:zoom="8.130193"
     inkscape:cx="23.602985"
     inkscape:cy="25.436154"
     inkscape:window-x="-4"
     inkscape:window-y="29"
     inkscape:window-maximized="1"
     inkscape:current-layer="svg2"
     showguides="true">
    <inkscape:grid
       type="xygrid"
       id="grid4141"
       originx="20px"
       originy="0px" />
    <sodipodi:guide
       position="0,48"
       orientation="48,0"
       id="guide4147" />
    <sodipodi:guide
       position="48,0"
       orientation="-48,0"
       id="guide4151" />
    <sodipodi:guide
       position="48,48"
       orientation="0,-48"
       id="guide4153" />
    <sodipodi:guide
       position="4,37"
       orientation="40,0"
       id="guide4219" />
    <sodipodi:guide
       position="6.9999962,3.999959"
       orientation="0,34"
       id="guide4221" />
    <sodipodi:guide
       position="44,32"
       orientation="-29,0"
       id="guide4223" />
    <sodipodi:guide
       position="29.999996,43.999958"
       orientation="0,-23"
       id="guide4227" />
  </sodipodi:namedview>
  <defs
     id="defs4" />
  <path
     style="opacity:1;fill:#1a1a1a;fill-opacity:1;stroke:none;stroke-width:0.99998558;stroke-opacity:1"
     d="m 2,4 0,29.999135 16.755859,0 c -0.263086,2.081939 -0.752336,4.116481 -1.539062,6.029126 C 16.540329,40.187856 14,42.46419 14,42.998875 c 0,0.553984 0.446691,1.027635 1,0.999971 l 2,0 16,0 c 0.554,0 1,-0.445987 1,-0.999971 0,-0.534685 -2.540329,-2.811019 -3.216797,-2.970614 -0.786726,-1.912645 -1.275976,-3.947187 -1.539062,-6.029126 L 46,33.999135 46,4 Z"
     id="rect4214"
     inkscape:connector-curvature="0"
     sodipodi:nodetypes="ccccsscssccccc" />
  <rect
     style="opacity:1;fill:#3ecdf6;fill-opacity:1;stroke:none;stroke-width:1;stroke-linecap:round;stroke-linejoin:miter;stroke-miterlimit:4;stroke-dasharray:none;stroke-opacity:1"
     id="rect4211"
     width="42"
     height="28"
     x="3"
     y="5" />
  <path
     style="fill:#172f55;fill-opacity:1;fill-rule:evenodd;stroke:none;stroke-width:1px;stroke-linecap:butt;stroke-linejoin:miter;stroke-opacity:1"
     d="M 39,14 20,33 45,33 45,20 Z"
     id="path4202-5"
     inkscape:connector-curvature="0"
     sodipodi:nodetypes="ccccc" />
  <path
     inkscape:connector-curvature="0"
     style="fill:#f1f2f4;fill-opacity:1;fill-rule:evenodd;stroke:none;stroke-width:1px;stroke-linecap:butt;stroke-linejoin:miter;stroke-opacity:1"
     d="M 39,14 31.400391,21.5996 35,20 l 4,3 1,-2 5,5 -2,-5 2,0 0,-1 -6,-6 z"
     id="path4236-1" />
  <rect
     style="opacity:1;fill:#c5eff7;fill-opacity:1;stroke:none;stroke-width:1;stroke-linecap:round;stroke-linejoin:miter;stroke-miterlimit:4;stroke-dasharray:none;stroke-opacity:1"
     id="rect4213"
     width="42"
     height="3"
     x="3"
     y="30" />
  <circle
     style="opacity:1;fill:#2c3e50;fill-opacity:1;stroke:none;stroke-width:1;stroke-linecap:round;stroke-linejoin:miter;stroke-miterlimit:4;stroke-dasharray:none;stroke-opacity:1"
     id="path4215"
     cx="41.5"
     cy="31.5"
     r="0.5" />
  <circle
     style="opacity:1;fill:#2c3e50;fill-opacity:1;stroke:none;stroke-width:1;stroke-linecap:round;stroke-linejoin:miter;stroke-miterlimit:4;stroke-dasharray:none;stroke-opacity:1"
     id="path4217"
     cx="38.5"
     cy="31.5"
     r="0.5" />
  <circle
     style="opacity:1;fill:#2c3e50;fill-opacity:1;stroke:none;stroke-width:1;stroke-linecap:round;stroke-linejoin:miter;stroke-miterlimit:4;stroke-dasharray:none;stroke-opacity:1"
     id="path4219"
     cx="35.5"
     cy="31.5"
     r="0.5" />
  <path
     style="opacity:1;fill:#baebfc;fill-opacity:1;stroke:none;stroke-width:0.49998438;stroke-opacity:1"
     d="m 10.499965,8.0000015 c -0.430463,0 -0.839851,0.186438 -1.124023,0.509718 -0.314123,0.039 -0.591217,0.224486 -0.747071,0.499969 -0.04271,-0.006 -0.08577,-0.0095 -0.128906,-0.0095 -0.552284,0 -1,0.447672 -1,0.9999375 4.29e-4,0.0435 0.0037,0.08685 0.0098,0.129892 C 7.1953325,10.306857 7.000532,10.639335 7,11.000063 7,11.552328 7.447716,12 8,12 l 4.5,0 c 0.828427,0 1.5,-0.671508 1.5,-1.499906 0,-0.8283975 -0.671573,-1.4999055 -1.5,-1.4999055 -0.0437,3.5e-4 -0.08736,0.005 -0.130859,0.007 -0.156143,-0.274483 -0.432742,-0.459122 -0.746129,-0.498019 -0.284126,-0.32273 -0.693078,-0.507968 -1.123047,-0.508768 z"
     id="rect4249"
     inkscape:connector-curvature="0"
     sodipodi:nodetypes="cccccccssscccc" />
</svg>
