<?xml version="1.0" encoding="UTF-8" standalone="no"?>
<!-- Created with Inkscape (http://www.inkscape.org/) -->

<svg
   xmlns:dc="http://purl.org/dc/elements/1.1/"
   xmlns:cc="http://creativecommons.org/ns#"
   xmlns:rdf="http://www.w3.org/1999/02/22-rdf-syntax-ns#"
   xmlns:svg="http://www.w3.org/2000/svg"
   xmlns="http://www.w3.org/2000/svg"
   xmlns:sodipodi="http://sodipodi.sourceforge.net/DTD/sodipodi-0.dtd"
   xmlns:inkscape="http://www.inkscape.org/namespaces/inkscape"
   width="24"
   height="24"
   id="svg4359"
   version="1.1"
   inkscape:version="0.91+devel r"
   sodipodi:docname="indicator-cpufreq-100.svg"
   viewBox="0 0 24 24">
  <defs
     id="defs4361">
    <clipPath
       id="clipPath6">
      <rect
         height="6.375"
         width="3.825"
         y="220.75"
         x="26.85"
         id="rect8"
         style="color:#bebebe;fill:#bebebe" />
    </clipPath>
    <clipPath
       id="clipPath10">
      <rect
         height="5.2160001"
         width="2.898"
         y="221.33"
         x="26.966"
         id="rect12"
         style="color:#bebebe;fill:#bebebe" />
    </clipPath>
    <clipPath
       id="clipPath14">
      <rect
         height="4.8740001"
         width="1.876"
         y="221.5"
         x="26.999001"
         id="rect16"
         style="color:#bebebe;fill:#bebebe" />
    </clipPath>
    <clipPath
       id="clipPath3025">
      <rect
         id="rect3027"
         x="26.999001"
         y="221.5"
         width="1.876"
         height="4.8740001"
         style="color:#bebebe;fill:#bebebe" />
    </clipPath>
    <clipPath
       id="clipPath3021">
      <rect
         id="rect3023"
         x="26.966"
         y="221.33"
         width="2.898"
         height="5.2160001"
         style="color:#bebebe;fill:#bebebe" />
    </clipPath>
    <clipPath
       id="clipPath3017">
      <rect
         id="rect3019"
         x="26.85"
         y="220.75"
         width="3.825"
         height="6.375"
         style="color:#bebebe;fill:#bebebe" />
    </clipPath>
    <clipPath
       id="clipPath6-0">
      <rect
         height="6.375"
         width="3.825"
         y="220.75"
         x="26.85"
         id="rect8-6"
         style="color:#bebebe;fill:#bebebe" />
    </clipPath>
    <clipPath
       id="clipPath10-7">
      <rect
         height="5.2160001"
         width="2.898"
         y="221.33"
         x="26.966"
         id="rect12-6"
         style="color:#bebebe;fill:#bebebe" />
    </clipPath>
    <clipPath
       id="clipPath14-7">
      <rect
         height="4.8740001"
         width="1.876"
         y="221.5"
         x="26.999001"
         id="rect16-9"
         style="color:#bebebe;fill:#bebebe" />
    </clipPath>
    <clipPath
       id="clipPath3025-1">
      <rect
         id="rect3027-5"
         x="26.999001"
         y="221.5"
         width="1.876"
         height="4.8740001"
         style="color:#bebebe;fill:#bebebe" />
    </clipPath>
    <clipPath
       id="clipPath3021-4">
      <rect
         id="rect3023-8"
         x="26.966"
         y="221.33"
         width="2.898"
         height="5.2160001"
         style="color:#bebebe;fill:#bebebe" />
    </clipPath>
    <clipPath
       id="clipPath3017-5">
      <rect
         id="rect3019-1"
         x="26.85"
         y="220.75"
         width="3.825"
         height="6.375"
         style="color:#bebebe;fill:#bebebe" />
    </clipPath>
  </defs>
  <sodipodi:namedview
     id="base"
     pagecolor="#ffffff"
     bordercolor="#666666"
     borderopacity="1.0"
     inkscape:pageopacity="0.0"
     inkscape:pageshadow="2"
     inkscape:zoom="15.438498"
     inkscape:cx="8.7452802"
     inkscape:cy="14.33938"
     inkscape:current-layer="layer1"
     showgrid="true"
     inkscape:grid-bbox="true"
     inkscape:document-units="px"
     inkscape:window-width="2560"
     inkscape:window-height="957"
     inkscape:window-x="-4"
     inkscape:window-y="29"
     inkscape:window-maximized="1"
     inkscape:showpageshadow="false"
     borderlayer="true"
     showguides="true"
     fit-margin-top="0"
     fit-margin-left="0"
     fit-margin-right="0"
     fit-margin-bottom="0">
    <inkscape:grid
       type="xygrid"
       id="grid4105"
       originx="1"
       originy="1"
       empspacing="2" />
    <sodipodi:guide
       position="0,23"
       orientation="22,0"
       id="guide4111" />
    <sodipodi:guide
       position="24,0"
       orientation="0,22"
       id="guide4113" />
    <sodipodi:guide
       position="24,0"
       orientation="-22,0"
       id="guide4115" />
    <sodipodi:guide
       position="12,11"
       orientation="16,0"
       id="guide4130" />
    <sodipodi:guide
       position="13,12"
       orientation="0,16"
       id="guide4132" />
    <sodipodi:guide
       position="20,20"
       orientation="0,-16"
       id="guide4136" />
    <sodipodi:guide
       position="4,23"
       orientation="19.000011,0"
       id="guide4152" />
    <sodipodi:guide
       position="4,3.9999886"
       orientation="0,4"
       id="guide4154" />
    <sodipodi:guide
       position="16,4"
       orientation="0,4.0000019"
       id="guide4162" />
    <sodipodi:guide
       position="20.000002,4"
       orientation="-19,0"
       id="guide4164" />
    <sodipodi:guide
       position="0,24"
       orientation="0,-4.0000019"
       id="guide4166" />
  </sodipodi:namedview>
  <metadata
     id="metadata4364">
    <rdf:RDF>
      <cc:Work
         rdf:about="">
        <dc:format>image/svg+xml</dc:format>
        <dc:type
           rdf:resource="http://purl.org/dc/dcmitype/StillImage" />
        <dc:title></dc:title>
      </cc:Work>
    </rdf:RDF>
  </metadata>
  <g
     id="layer1"
     inkscape:label="Layer 1"
     inkscape:groupmode="layer"
     transform="translate(1,-25)">
    <rect
       style="color:#000000;clip-rule:nonzero;display:inline;overflow:visible;visibility:visible;opacity:1;isolation:auto;mix-blend-mode:normal;color-interpolation:sRGB;color-interpolation-filters:linearRGB;solid-color:#000000;solid-opacity:1;fill:#304050;fill-opacity:1;fill-rule:nonzero;stroke:none;stroke-width:1;stroke-linecap:butt;stroke-linejoin:miter;stroke-miterlimit:4;stroke-dasharray:none;stroke-dashoffset:0;stroke-opacity:1;color-rendering:auto;image-rendering:auto;shape-rendering:auto;text-rendering:auto;enable-background:accumulate"
       id="rect4147-8"
       width="2"
       height="2"
       x="-3"
       y="25" />
    <path
       style="opacity:1;fill:#304050;fill-opacity:1;stroke:none;stroke-width:3.56737041px;stroke-linecap:butt;stroke-linejoin:miter;stroke-miterlimit:4;stroke-dasharray:none;stroke-dashoffset:0;stroke-opacity:1"
       d="m 10,3 0,2 2,0 0,-2 -2,0 z M 8,4 8,5 9,5 9,4 8,4 Z m 5,0 0,1 1,0 0,-1 -1,0 z M 7,6 C 6.446,6 6,6.446 6,7 l 0,8 c 0,0.554 0.446,1 1,1 l 8,0 c 0.554,0 1,-0.446 1,-1 L 16,7 C 16,6.446 15.554,6 15,6 L 7,6 Z m 0,1 8,0 0,8 -8,0 0,-8 z M 4,8 4,9 5,9 5,8 4,8 Z m 13,0 0,1 1,0 0,-1 -1,0 z m -14,2 0,2 2,0 0,-2 -2,0 z m 14,0 0,2 2,0 0,-2 -2,0 z m -13,3 0,1 1,0 0,-1 -1,0 z m 13,0 0,1 1,0 0,-1 -1,0 z m -9,4 0,1 1,0 0,-1 -1,0 z m 2,0 0,2 2,0 0,-2 -2,0 z m 3,0 0,1 1,0 0,-1 -1,0 z"
       transform="translate(0,26)"
       id="rect4154"
       inkscape:connector-curvature="0" />
    <path
       sodipodi:nodetypes="ccccccccccc"
       inkscape:connector-curvature="0"
       id="rect4164-2"
       d="M 11,34 10.455079,35 9.0000005,38.000958 11,38.000958 11,39 11,40 11.544922,39 13,36.000958 l -2,0 L 11,35 Z"
       style="color:#000000;text-decoration:none;text-decoration-line:none;text-decoration-style:solid;text-decoration-color:#000000;clip-rule:nonzero;display:inline;overflow:visible;visibility:visible;opacity:1;isolation:auto;mix-blend-mode:normal;color-interpolation:sRGB;color-interpolation-filters:linearRGB;solid-color:#000000;solid-opacity:1;fill:#e74c3c;fill-opacity:1;fill-rule:nonzero;stroke:none;stroke-width:1;stroke-linecap:butt;stroke-linejoin:miter;stroke-miterlimit:4;stroke-dasharray:none;stroke-dashoffset:0;stroke-opacity:1;color-rendering:auto;image-rendering:auto;shape-rendering:auto;text-rendering:auto;enable-background:accumulate" />
  </g>
</svg>
