<?xml version="1.0" encoding="UTF-8" standalone="no"?>
<svg
   xmlns:dc="http://purl.org/dc/elements/1.1/"
   xmlns:cc="http://creativecommons.org/ns#"
   xmlns:rdf="http://www.w3.org/1999/02/22-rdf-syntax-ns#"
   xmlns:svg="http://www.w3.org/2000/svg"
   xmlns="http://www.w3.org/2000/svg"
   xmlns:sodipodi="http://sodipodi.sourceforge.net/DTD/sodipodi-0.dtd"
   xmlns:inkscape="http://www.inkscape.org/namespaces/inkscape"
   width="24"
   viewBox="0 0 24 24"
   height="24"
   id="svg2"
   version="1.1"
   inkscape:version="0.91+devel r"
   sodipodi:docname="network-wired.svg">
  <metadata
     id="metadata20">
    <rdf:RDF>
      <cc:Work
         rdf:about="">
        <dc:format>image/svg+xml</dc:format>
        <dc:type
           rdf:resource="http://purl.org/dc/dcmitype/StillImage" />
        <dc:title />
      </cc:Work>
    </rdf:RDF>
  </metadata>
  <defs
     id="defs18" />
  <sodipodi:namedview
     pagecolor="#ffffff"
     bordercolor="#666666"
     borderopacity="1"
     objecttolerance="10"
     gridtolerance="10000"
     guidetolerance="10"
     inkscape:pageopacity="0"
     inkscape:pageshadow="2"
     inkscape:window-width="1366"
     inkscape:window-height="670"
     id="namedview16"
     showgrid="true"
     inkscape:showpageshadow="false"
     borderlayer="true"
     inkscape:zoom="21.454546"
     inkscape:cx="7.9631731"
     inkscape:cy="9.2391577"
     inkscape:window-x="-4"
     inkscape:window-y="29"
     inkscape:window-maximized="1"
     inkscape:current-layer="svg2"
     fit-margin-top="0"
     fit-margin-left="0"
     fit-margin-right="0"
     fit-margin-bottom="0">
    <inkscape:grid
       type="xygrid"
       id="grid4149"
       originx="1px"
       originy="1px"
       empspacing="2" />
    <sodipodi:guide
       position="0,24"
       orientation="22,0"
       id="guide4155" />
    <sodipodi:guide
       position="24,0"
       orientation="0,22"
       id="guide4157" />
    <sodipodi:guide
       position="24,0"
       orientation="-22,0"
       id="guide4159" />
    <sodipodi:guide
       position="0,24"
       orientation="0,-22"
       id="guide4161" />
    <sodipodi:guide
       position="4,20"
       orientation="16,0"
       id="guide4163" />
    <sodipodi:guide
       position="4,4"
       orientation="0,16"
       id="guide4165" />
    <sodipodi:guide
       position="20,4"
       orientation="-16,0"
       id="guide4167" />
    <sodipodi:guide
       position="20,20"
       orientation="0,-16"
       id="guide4169" />
  </sodipodi:namedview>
  <path
     style="opacity:1;fill:#304050;fill-opacity:1;stroke:none;stroke-width:1;stroke-linecap:round;stroke-linejoin:miter;stroke-miterlimit:4;stroke-dasharray:none;stroke-opacity:0.29943501"
     d="M 2 4 L 2 17 L 9.6660156 17 L 9 19 C 7 19 7 20 7 20 L 10 20 L 12.46875 20 L 15 20 C 15 20 15 19 13 19 L 12.333984 17 L 18 17 L 18 16 L 18 15 L 4 15 L 4 6 L 16 6 L 16 5 L 16 4 L 2 4 z M 19 4 L 19 5 L 20 5 L 20 4 L 19 4 z M 20 5 L 20 7 L 19 7 L 19 5 L 17 5 L 17 10 L 18 10 L 18 11 L 19 11 L 19 12 L 19 16 L 19 17 C 19 17.554 18.554 18 18 18 L 17 18 L 16 18 L 16 19 L 18 19 C 19.108 19 20 18.108 20 17 L 20 11 L 21 11 L 21 10 L 22 10 L 22 5 L 20 5 z "
     id="rect4194" />
  <rect
     style="color:#000000;clip-rule:nonzero;display:inline;overflow:visible;visibility:visible;opacity:1;isolation:auto;mix-blend-mode:normal;color-interpolation:sRGB;color-interpolation-filters:linearRGB;solid-color:#000000;solid-opacity:1;fill:#304050;fill-opacity:1;fill-rule:nonzero;stroke:none;stroke-width:1;stroke-linecap:butt;stroke-linejoin:miter;stroke-miterlimit:4;stroke-dasharray:none;stroke-dashoffset:0;stroke-opacity:1;color-rendering:auto;image-rendering:auto;shape-rendering:auto;text-rendering:auto;enable-background:accumulate"
     id="rect4147-8"
     width="2"
     height="2"
     x="-2"
     y="0" />
</svg>
