<?xml version="1.0" encoding="UTF-8" standalone="no"?>
<svg
   xmlns:dc="http://purl.org/dc/elements/1.1/"
   xmlns:cc="http://creativecommons.org/ns#"
   xmlns:rdf="http://www.w3.org/1999/02/22-rdf-syntax-ns#"
   xmlns:svg="http://www.w3.org/2000/svg"
   xmlns="http://www.w3.org/2000/svg"
   xmlns:sodipodi="http://sodipodi.sourceforge.net/DTD/sodipodi-0.dtd"
   xmlns:inkscape="http://www.inkscape.org/namespaces/inkscape"
   width="24"
   viewBox="0 0 24 24"
   height="24"
   id="svg2"
   version="1.1"
   inkscape:version="0.91+devel r"
   sodipodi:docname="network-transmit.svg">
  <metadata
     id="metadata20">
    <rdf:RDF>
      <cc:Work
         rdf:about="">
        <dc:format>image/svg+xml</dc:format>
        <dc:type
           rdf:resource="http://purl.org/dc/dcmitype/StillImage" />
        <dc:title></dc:title>
      </cc:Work>
    </rdf:RDF>
  </metadata>
  <defs
     id="defs18" />
  <sodipodi:namedview
     pagecolor="#ffffff"
     bordercolor="#666666"
     borderopacity="1"
     objecttolerance="10"
     gridtolerance="10000"
     guidetolerance="10"
     inkscape:pageopacity="0"
     inkscape:pageshadow="2"
     inkscape:window-width="2560"
     inkscape:window-height="957"
     id="namedview16"
     showgrid="true"
     inkscape:showpageshadow="false"
     borderlayer="true"
     inkscape:zoom="21.454546"
     inkscape:cx="16.234217"
     inkscape:cy="11.525694"
     inkscape:window-x="-4"
     inkscape:window-y="29"
     inkscape:window-maximized="1"
     inkscape:current-layer="svg2"
     fit-margin-top="0"
     fit-margin-left="0"
     fit-margin-right="0"
     fit-margin-bottom="0">
    <inkscape:grid
       type="xygrid"
       id="grid4149"
       originx="1"
       originy="1"
       empspacing="2" />
    <sodipodi:guide
       position="0,24"
       orientation="22,0"
       id="guide4155" />
    <sodipodi:guide
       position="24,0"
       orientation="0,22"
       id="guide4157" />
    <sodipodi:guide
       position="24,0"
       orientation="-22,0"
       id="guide4159" />
    <sodipodi:guide
       position="0,24"
       orientation="0,-22"
       id="guide4161" />
    <sodipodi:guide
       position="4,20"
       orientation="16,0"
       id="guide4163" />
    <sodipodi:guide
       position="4,4"
       orientation="0,16"
       id="guide4165" />
    <sodipodi:guide
       position="20,4"
       orientation="-16,0"
       id="guide4167" />
    <sodipodi:guide
       position="20,20"
       orientation="0,-16"
       id="guide4169" />
  </sodipodi:namedview>
  <path
     style="opacity:1;fill:#304050;fill-opacity:1;stroke:none;stroke-width:1;stroke-linecap:round;stroke-linejoin:miter;stroke-miterlimit:4;stroke-dasharray:none;stroke-opacity:0.29943501"
     d="M 2,4 2,12 4,12 4,6 16,6 16,5 16,4 2,4 Z m 17,0 0,1 1,0 0,-1 -1,0 z m 1,1 0,2 -1,0 0,-2 -2,0 0,5 1,0 0,1 1,0 0,1 0,4 0,1 c 0,0.554 -0.446,1 -1,1 l -1,0 -1,0 0,1 2,0 c 1.108,0 2,-0.892 2,-2 l 0,-6 1,0 0,-1 1,0 0,-5 -2,0 z M 9,15 9,17 9.6660156,17 9,19 c -2,0 -2,1 -2,1 l 3,0 2.46875,0 L 15,20 c 0,0 0,-1 -2,-1 L 12.333984,17 18,17 l 0,-1 0,-1 -9,0 z"
     id="rect4194"
     inkscape:connector-curvature="0" />
  <rect
     style="color:#000000;clip-rule:nonzero;display:inline;overflow:visible;visibility:visible;opacity:1;isolation:auto;mix-blend-mode:normal;color-interpolation:sRGB;color-interpolation-filters:linearRGB;solid-color:#000000;solid-opacity:1;fill:#304050;fill-opacity:1;fill-rule:nonzero;stroke:none;stroke-width:1;stroke-linecap:butt;stroke-linejoin:miter;stroke-miterlimit:4;stroke-dasharray:none;stroke-dashoffset:0;stroke-opacity:1;color-rendering:auto;image-rendering:auto;shape-rendering:auto;text-rendering:auto;enable-background:accumulate"
     id="rect4147-8"
     width="2"
     height="2"
     x="-2"
     y="0" />
  <path
     style="opacity:0.5;fill:#304050;fill-opacity:1;stroke:none;stroke-width:3.56737041px;stroke-linecap:butt;stroke-linejoin:miter;stroke-miterlimit:4;stroke-dasharray:none;stroke-dashoffset:0;stroke-opacity:1"
     d="m 3,13 0,4 -2,0 3,3 3,-3 -2,0 0,-4 z"
     id="rect4148"
     inkscape:connector-curvature="0"
     sodipodi:nodetypes="cccccccc" />
  <path
     sodipodi:nodetypes="cccccccc"
     inkscape:connector-curvature="0"
     id="path4156"
     d="m 7,15 0,-4 -2,0 3,-3 3,3 -2,0 0,4 z"
     style="opacity:1;fill:#43be80;fill-opacity:1;stroke:none;stroke-width:3.56737041px;stroke-linecap:butt;stroke-linejoin:miter;stroke-miterlimit:4;stroke-dasharray:none;stroke-dashoffset:0;stroke-opacity:1" />
</svg>
