<?xml version="1.0" encoding="UTF-8" standalone="no"?>
<svg
   xmlns:dc="http://purl.org/dc/elements/1.1/"
   xmlns:cc="http://creativecommons.org/ns#"
   xmlns:rdf="http://www.w3.org/1999/02/22-rdf-syntax-ns#"
   xmlns:svg="http://www.w3.org/2000/svg"
   xmlns="http://www.w3.org/2000/svg"
   xmlns:sodipodi="http://sodipodi.sourceforge.net/DTD/sodipodi-0.dtd"
   xmlns:inkscape="http://www.inkscape.org/namespaces/inkscape"
   width="24"
   viewBox="0 0 24 24"
   height="24"
   id="svg2"
   version="1.1"
   inkscape:version="0.91+devel r"
   sodipodi:docname="system-devices-panel.svg">
  <metadata
     id="metadata20">
    <rdf:RDF>
      <cc:Work
         rdf:about="">
        <dc:format>image/svg+xml</dc:format>
        <dc:type
           rdf:resource="http://purl.org/dc/dcmitype/StillImage" />
        <dc:title></dc:title>
      </cc:Work>
    </rdf:RDF>
  </metadata>
  <defs
     id="defs18" />
  <sodipodi:namedview
     pagecolor="#ffffff"
     bordercolor="#666666"
     borderopacity="1"
     objecttolerance="10"
     gridtolerance="10000"
     guidetolerance="10"
     inkscape:pageopacity="0"
     inkscape:pageshadow="2"
     inkscape:window-width="2560"
     inkscape:window-height="957"
     id="namedview16"
     showgrid="true"
     inkscape:showpageshadow="false"
     borderlayer="true"
     inkscape:zoom="15.170655"
     inkscape:cx="10.177047"
     inkscape:cy="15.57691"
     inkscape:window-x="-4"
     inkscape:window-y="29"
     inkscape:window-maximized="1"
     inkscape:current-layer="svg2"
     fit-margin-top="0"
     fit-margin-left="0"
     fit-margin-right="0"
     fit-margin-bottom="0">
    <inkscape:grid
       type="xygrid"
       id="grid4149"
       originx="1"
       originy="1"
       empspacing="2" />
    <sodipodi:guide
       position="0,24"
       orientation="22,0"
       id="guide4155" />
    <sodipodi:guide
       position="24,0"
       orientation="0,22"
       id="guide4157" />
    <sodipodi:guide
       position="24,0"
       orientation="-22,0"
       id="guide4159" />
    <sodipodi:guide
       position="0,24"
       orientation="0,-22"
       id="guide4161" />
    <sodipodi:guide
       position="4,20"
       orientation="16,0"
       id="guide4163" />
    <sodipodi:guide
       position="4,4"
       orientation="0,16"
       id="guide4165" />
    <sodipodi:guide
       position="20,4"
       orientation="-16,0"
       id="guide4167" />
    <sodipodi:guide
       position="20,20"
       orientation="0,-16"
       id="guide4169" />
  </sodipodi:namedview>
  <rect
     style="color:#000000;clip-rule:nonzero;display:inline;overflow:visible;visibility:visible;opacity:1;isolation:auto;mix-blend-mode:normal;color-interpolation:sRGB;color-interpolation-filters:linearRGB;solid-color:#000000;solid-opacity:1;fill:#304050;fill-opacity:1;fill-rule:nonzero;stroke:none;stroke-width:1;stroke-linecap:butt;stroke-linejoin:miter;stroke-miterlimit:4;stroke-dasharray:none;stroke-dashoffset:0;stroke-opacity:1;color-rendering:auto;image-rendering:auto;shape-rendering:auto;text-rendering:auto;enable-background:accumulate"
     id="rect4147-8"
     width="2"
     height="2"
     x="-2"
     y="0" />
  <path
     style="opacity:1;fill:#304050;fill-opacity:1;stroke:none;stroke-width:3.56737041px;stroke-linecap:butt;stroke-linejoin:miter;stroke-miterlimit:4;stroke-dasharray:none;stroke-dashoffset:0;stroke-opacity:1"
     d="m 12,4 a 8,8 0 0 0 -8,8 8,8 0 0 0 8,8 l 0,-2 a 6,6 0 0 1 -6,-6 6,6 0 0 1 6,-6 6,6 0 0 1 6,6 l 2,0 A 8,8 0 0 0 12,4 Z m 0,4 c -0.554,0 -1,0.446 -1,1 l 0,6 c 0,0.554 0.446,1 1,1 0.554,0 1,-0.446 1,-1 L 13,9 C 13,8.446 12.554,8 12,8 Z m 5,4 -3,5 2,0 0,3 3,-5 -2,0 0,-3 z"
     id="path4148"
     inkscape:connector-curvature="0" />
</svg>
