<?xml version="1.0" encoding="UTF-8" standalone="no"?>
<!-- Created with Inkscape (http://www.inkscape.org/) -->

<svg
   xmlns:dc="http://purl.org/dc/elements/1.1/"
   xmlns:cc="http://creativecommons.org/ns#"
   xmlns:rdf="http://www.w3.org/1999/02/22-rdf-syntax-ns#"
   xmlns:svg="http://www.w3.org/2000/svg"
   xmlns="http://www.w3.org/2000/svg"
   xmlns:sodipodi="http://sodipodi.sourceforge.net/DTD/sodipodi-0.dtd"
   xmlns:inkscape="http://www.inkscape.org/namespaces/inkscape"
   width="64"
   height="64"
   id="svg5453"
   version="1.1"
   inkscape:version="0.91+devel r"
   sodipodi:docname="folder-videos.svg"
   viewBox="0 0 64 64">
  <defs
     id="defs5455" />
  <sodipodi:namedview
     id="base"
     pagecolor="#ffffff"
     bordercolor="#666666"
     borderopacity="1.0"
     inkscape:pageopacity="0"
     inkscape:pageshadow="2"
     inkscape:zoom="63.25"
     inkscape:cx="11.750865"
     inkscape:cy="45.819035"
     inkscape:document-units="px"
     inkscape:current-layer="layer1"
     showgrid="true"
     fit-margin-top="0"
     fit-margin-left="0"
     fit-margin-right="0"
     fit-margin-bottom="0"
     inkscape:window-width="2560"
     inkscape:window-height="957"
     inkscape:window-x="-4"
     inkscape:window-y="29"
     inkscape:window-maximized="1"
     inkscape:showpageshadow="false"
     borderlayer="true"
     showguides="true">
    <sodipodi:guide
       position="1,53"
       orientation="51.999969,0"
       id="guide4097" />
    <sodipodi:guide
       position="6.0000117,6.0000264"
       orientation="0,52"
       id="guide4099" />
    <sodipodi:guide
       position="63,54"
       orientation="-51.999969,0"
       id="guide4101" />
    <sodipodi:guide
       position="58.000012,57.999996"
       orientation="0,-52"
       id="guide4103" />
    <sodipodi:guide
       position="3.0000117,60.999996"
       orientation="57.999969,0"
       id="guide4105" />
    <sodipodi:guide
       position="3.0000117,3.0000264"
       orientation="0,58"
       id="guide4107" />
    <sodipodi:guide
       position="61.000012,3.0000264"
       orientation="-57.999969,0"
       id="guide4109" />
    <sodipodi:guide
       position="61.000012,60.999996"
       orientation="0,-58"
       id="guide4111" />
    <inkscape:grid
       type="xygrid"
       id="grid4115" />
    <sodipodi:guide
       position="20.00001,38"
       orientation="0,24"
       id="guide4150" />
    <sodipodi:guide
       position="44.00001,38"
       orientation="24,0"
       id="guide4152" />
    <sodipodi:guide
       position="44.00001,14"
       orientation="0,-24"
       id="guide4154" />
    <sodipodi:guide
       position="20.00001,14"
       orientation="-24,0"
       id="guide4156" />
    <sodipodi:guide
       position="22.00001,36"
       orientation="0,20"
       id="guide4158" />
    <sodipodi:guide
       position="42.00001,36"
       orientation="20,0"
       id="guide4160" />
    <sodipodi:guide
       position="42.00001,16"
       orientation="0,-20"
       id="guide4162" />
    <sodipodi:guide
       position="22.00001,16"
       orientation="-20,0"
       id="guide4164" />
    <sodipodi:guide
       position="22.000012,35.999996"
       orientation="19.999969,0"
       id="guide4159" />
    <sodipodi:guide
       position="22.000012,16.000026"
       orientation="0,10"
       id="guide4161" />
    <sodipodi:guide
       position="32.000012,16.000026"
       orientation="-19.999969,0"
       id="guide4163" />
    <sodipodi:guide
       position="32.000012,35.999996"
       orientation="0,-10"
       id="guide4165" />
    <sodipodi:guide
       position="22.000012,35.999996"
       orientation="10.999969,0"
       id="guide4169" />
    <sodipodi:guide
       position="32.000012,26"
       orientation="0,10"
       id="guide4171" />
    <sodipodi:guide
       position="32.000012,25.000026"
       orientation="-10.999969,0"
       id="guide4173" />
    <sodipodi:guide
       position="32.000012,35.999996"
       orientation="0,-10"
       id="guide4175" />
  </sodipodi:namedview>
  <metadata
     id="metadata5458">
    <rdf:RDF>
      <cc:Work
         rdf:about="">
        <dc:format>image/svg+xml</dc:format>
        <dc:type
           rdf:resource="http://purl.org/dc/dcmitype/StillImage" />
        <dc:title />
      </cc:Work>
    </rdf:RDF>
  </metadata>
  <g
     inkscape:label="Capa 1"
     inkscape:groupmode="layer"
     id="layer1"
     transform="translate(-384.57143,-483.798)">
    <path
       style="fill:#1ba39c;fill-opacity:1;fill-rule:evenodd;stroke:none;stroke-width:1px;stroke-linecap:butt;stroke-linejoin:miter;stroke-opacity:1"
       d="M 4 6 C 3.44878 6.05512 3 6.446 3 7 L 3 9 L 3 49 L 61 49 L 61 14 L 61 13 L 61 11 C 61 10 60 10 60 10 L 58 10 L 37 10 L 33 10 C 31 6 27 6 27 6 L 5 6 L 4 6 z "
       transform="translate(384.57143,483.798)"
       id="folderTab" />
    <path
       style="color:#000000;text-decoration:none;text-decoration-line:none;text-decoration-style:solid;text-decoration-color:#000000;white-space:normal;clip-rule:nonzero;display:inline;overflow:visible;visibility:visible;opacity:1;isolation:auto;mix-blend-mode:normal;color-interpolation:sRGB;color-interpolation-filters:linearRGB;solid-color:#000000;solid-opacity:1;fill:#ffffff;fill-opacity:1;fill-rule:nonzero;stroke:none;stroke-width:1;stroke-linecap:butt;stroke-linejoin:miter;stroke-miterlimit:4;stroke-dasharray:none;stroke-dashoffset:0;stroke-opacity:1;color-rendering:auto;image-rendering:auto;shape-rendering:auto;text-rendering:auto;enable-background:accumulate"
       d="m 391.57143,496.798 50,0 0,32 -50,0 z"
       id="folderPaper"
       inkscape:connector-curvature="0"
       sodipodi:nodetypes="ccccc" />
    <path
       style="fill:#36d7b7;fill-opacity:1;fill-rule:evenodd;stroke:none;stroke-width:1px;stroke-linecap:butt;stroke-linejoin:miter;stroke-opacity:1"
       d="M 39 15 C 39 15 35 15 33 19 L 29 19 L 4 19 L 2 19 C 2 19 1.8680203 19.016906 1.7109375 19.058594 C 1.6649814 19.072636 1.6190155 19.081363 1.5761719 19.101562 C 1.3019415 19.211398 1 19.44477 1 20 L 1 22 L 1 23 L 1 57 C 1 57.55397 1.44603 58 2 58 L 62 58 C 62.55397 58 63 57.55397 63 57 L 63 18 L 63 16 C 63 15.44603 62.55397 15 62 15 L 61 15 L 39 15 z "
       transform="translate(384.57143,483.798)"
       id="folderFront" />
    <path
       inkscape:connector-curvature="0"
       style="opacity:0.25;fill:#000000;fill-opacity:1;stroke:none"
       d="m 385.57143,540.798 c 0,0.55397 0.44603,1 1,1 l 60,0 c 0.55397,0 1,-0.44603 1,-1 z"
       id="folderShadow"
       sodipodi:nodetypes="csscc" />
    <path
       style="color:#000000;clip-rule:nonzero;display:inline;overflow:visible;visibility:visible;opacity:1;isolation:auto;mix-blend-mode:normal;color-interpolation:sRGB;color-interpolation-filters:linearRGB;solid-color:#000000;solid-opacity:1;fill:#178984;fill-opacity:1;fill-rule:nonzero;stroke:none;stroke-width:1;stroke-linecap:butt;stroke-linejoin:miter;stroke-miterlimit:4;stroke-dasharray:none;stroke-dashoffset:0;stroke-opacity:1;color-rendering:auto;image-rendering:auto;shape-rendering:auto;text-rendering:auto;enable-background:accumulate"
       d="m 22,28 0,20 20,0 0,-20 -20,0 z m 2,2 2,0 0,2 -2,0 0,-2 z m 3,0 10,0 0,7 -10,0 0,-7 z m 11,0 2,0 0,2 -2,0 0,-2 z m -14,7 2,0 0,2 -2,0 0,-2 z m 14,0 2,0 0,2 -2,0 0,-2 z m -11,2 10,0 0,7 -10,0 0,-7 z m -3,5 2,0 0,2 -2,0 0,-2 z m 14,0 2,0 0,2 -2,0 0,-2 z"
       transform="translate(384.57143,483.798)"
       id="folderGlyph"
       inkscape:connector-curvature="0" />
    <rect
       style="color:#000000;clip-rule:nonzero;display:inline;overflow:visible;visibility:visible;opacity:1;isolation:auto;mix-blend-mode:normal;color-interpolation:sRGB;color-interpolation-filters:linearRGB;solid-color:#000000;solid-opacity:1;fill:#1ba39c;fill-opacity:1;fill-rule:nonzero;stroke:none;stroke-width:1;stroke-linecap:butt;stroke-linejoin:miter;stroke-miterlimit:4;stroke-dasharray:none;stroke-dashoffset:0;stroke-opacity:1;color-rendering:auto;image-rendering:auto;shape-rendering:auto;text-rendering:auto;enable-background:accumulate"
       id="rect4157"
       width="5"
       height="5"
       x="377.57144"
       y="483.798" />
    <rect
       style="color:#000000;clip-rule:nonzero;display:inline;overflow:visible;visibility:visible;opacity:1;isolation:auto;mix-blend-mode:normal;color-interpolation:sRGB;color-interpolation-filters:linearRGB;solid-color:#000000;solid-opacity:1;fill:#36d7b7;fill-opacity:1;fill-rule:nonzero;stroke:none;stroke-width:1;stroke-linecap:butt;stroke-linejoin:miter;stroke-miterlimit:4;stroke-dasharray:none;stroke-dashoffset:0;stroke-opacity:1;color-rendering:auto;image-rendering:auto;shape-rendering:auto;text-rendering:auto;enable-background:accumulate"
       id="rect4157-5"
       width="5"
       height="5"
       x="377.57144"
       y="491.798" />
    <rect
       style="color:#000000;clip-rule:nonzero;display:inline;overflow:visible;visibility:visible;opacity:1;isolation:auto;mix-blend-mode:normal;color-interpolation:sRGB;color-interpolation-filters:linearRGB;solid-color:#000000;solid-opacity:1;fill:#178984;fill-opacity:1;fill-rule:nonzero;stroke:none;stroke-width:1;stroke-linecap:butt;stroke-linejoin:miter;stroke-miterlimit:4;stroke-dasharray:none;stroke-dashoffset:0;stroke-opacity:1;color-rendering:auto;image-rendering:auto;shape-rendering:auto;text-rendering:auto;enable-background:accumulate"
       id="rect4157-8"
       width="5"
       height="5"
       x="377.57144"
       y="499.798" />
  </g>
</svg>
