<?xml version="1.0" encoding="UTF-8" standalone="no"?>
<!-- Created with Inkscape (http://www.inkscape.org/) -->

<svg
   xmlns:dc="http://purl.org/dc/elements/1.1/"
   xmlns:cc="http://creativecommons.org/ns#"
   xmlns:rdf="http://www.w3.org/1999/02/22-rdf-syntax-ns#"
   xmlns:svg="http://www.w3.org/2000/svg"
   xmlns="http://www.w3.org/2000/svg"
   xmlns:sodipodi="http://sodipodi.sourceforge.net/DTD/sodipodi-0.dtd"
   xmlns:inkscape="http://www.inkscape.org/namespaces/inkscape"
   width="64"
   height="64"
   id="svg5453"
   version="1.1"
   inkscape:version="0.91+devel r"
   sodipodi:docname="folder-launchpad.svg"
   viewBox="0 0 64 64">
  <defs
     id="defs5455" />
  <sodipodi:namedview
     id="base"
     pagecolor="#ffffff"
     bordercolor="#666666"
     borderopacity="1.0"
     inkscape:pageopacity="0"
     inkscape:pageshadow="2"
     inkscape:zoom="45.254836"
     inkscape:cx="36.400954"
     inkscape:cy="23.628533"
     inkscape:document-units="px"
     inkscape:current-layer="layer1"
     showgrid="true"
     fit-margin-top="0"
     fit-margin-left="0"
     fit-margin-right="0"
     fit-margin-bottom="0"
     inkscape:window-width="2560"
     inkscape:window-height="964"
     inkscape:window-x="-4"
     inkscape:window-y="34"
     inkscape:window-maximized="1"
     inkscape:showpageshadow="false"
     borderlayer="true"
     showguides="true">
    <sodipodi:guide
       position="1,46"
       orientation="51.999969,0"
       id="guide4097" />
    <sodipodi:guide
       position="6.0000117,6.0000264"
       orientation="0,52"
       id="guide4099" />
    <sodipodi:guide
       position="63,46"
       orientation="-51.999969,0"
       id="guide4101" />
    <sodipodi:guide
       position="58.000012,57.999996"
       orientation="0,-52"
       id="guide4103" />
    <sodipodi:guide
       position="3.0000117,60.999996"
       orientation="57.999969,0"
       id="guide4105" />
    <sodipodi:guide
       position="3.0000117,3.0000264"
       orientation="0,58"
       id="guide4107" />
    <sodipodi:guide
       position="61.000012,3.0000264"
       orientation="-57.999969,0"
       id="guide4109" />
    <sodipodi:guide
       position="61.000012,60.999996"
       orientation="0,-58"
       id="guide4111" />
    <inkscape:grid
       type="xygrid"
       id="grid4115" />
    <sodipodi:guide
       position="19.999981,37.999965"
       orientation="24,0"
       id="guide4182" />
    <sodipodi:guide
       position="19.999981,13.999965"
       orientation="0,24"
       id="guide4184" />
    <sodipodi:guide
       position="43.999981,13.999965"
       orientation="-24,0"
       id="guide4186" />
    <sodipodi:guide
       position="43.999981,37.999965"
       orientation="0,-24"
       id="guide4188" />
    <sodipodi:guide
       position="21.999981,35.999965"
       orientation="20,0"
       id="guide4190" />
    <sodipodi:guide
       position="21.999981,15.999965"
       orientation="0,20"
       id="guide4192" />
    <sodipodi:guide
       position="41.999981,15.999965"
       orientation="-20,0"
       id="guide4194" />
    <sodipodi:guide
       position="41.999981,35.999965"
       orientation="0,-20"
       id="guide4196" />
  </sodipodi:namedview>
  <metadata
     id="metadata5458">
    <rdf:RDF>
      <cc:Work
         rdf:about="">
        <dc:format>image/svg+xml</dc:format>
        <dc:type
           rdf:resource="http://purl.org/dc/dcmitype/StillImage" />
        <dc:title />
      </cc:Work>
    </rdf:RDF>
  </metadata>
  <g
     inkscape:label="Capa 1"
     inkscape:groupmode="layer"
     id="layer1"
     transform="translate(-384.57143,-483.798)">
    <path
       style="fill:#6c7a89;fill-opacity:1;fill-rule:evenodd;stroke:none;stroke-width:1px;stroke-linecap:butt;stroke-linejoin:miter;stroke-opacity:1"
       d="M 4 6 C 3.44878 6.05512 3 6.446 3 7 L 3 9 L 3 49 L 61 49 L 61 14 L 61 13 L 61 11 C 61 10 60 10 60 10 L 58 10 L 37 10 L 33 10 C 31 6 27 6 27 6 L 5 6 L 4 6 z "
       transform="translate(384.57143,483.798)"
       id="folderTab" />
    <path
       style="color:#000000;text-decoration:none;text-decoration-line:none;text-decoration-style:solid;text-decoration-color:#000000;white-space:normal;clip-rule:nonzero;display:inline;overflow:visible;visibility:visible;opacity:1;isolation:auto;mix-blend-mode:normal;color-interpolation:sRGB;color-interpolation-filters:linearRGB;solid-color:#000000;solid-opacity:1;fill:#ffffff;fill-opacity:1;fill-rule:nonzero;stroke:none;stroke-width:1;stroke-linecap:butt;stroke-linejoin:miter;stroke-miterlimit:4;stroke-dasharray:none;stroke-dashoffset:0;stroke-opacity:1;color-rendering:auto;image-rendering:auto;shape-rendering:auto;text-rendering:auto;enable-background:accumulate"
       d="m 391.57143,496.798 50,0 0,32 -50,0 z"
       id="folderPaper-4"
       inkscape:connector-curvature="0"
       sodipodi:nodetypes="ccccc" />
    <path
       style="fill:#dadfe1;fill-opacity:1;fill-rule:evenodd;stroke:none;stroke-width:1px;stroke-linecap:butt;stroke-linejoin:miter;stroke-opacity:1"
       d="M 39 15 C 39 15 35 15 33 19 L 29 19 L 4 19 L 2 19 C 2 19 1.8680203 19.016906 1.7109375 19.058594 C 1.6649814 19.072636 1.6190155 19.081363 1.5761719 19.101562 C 1.3019415 19.211398 1 19.44477 1 20 L 1 22 L 1 23 L 1 57 C 1 57.55397 1.44603 58 2 58 L 62 58 C 62.55397 58 63 57.55397 63 57 L 63 18 L 63 16 C 63 15.44603 62.55397 15 62 15 L 61 15 L 39 15 z "
       transform="translate(384.57143,483.798)"
       id="folderFront-8" />
    <path
       inkscape:connector-curvature="0"
       style="opacity:0.25;fill:#000000;fill-opacity:1;stroke:none"
       d="m 385.57143,540.798 c 0,0.55397 0.44603,1 1,1 l 60,0 c 0.55397,0 1,-0.44603 1,-1 z"
       id="folderShadow-2"
       sodipodi:nodetypes="csscc" />
    <path
       id="folderTab-8"
       d="m 343.67143,470.798 c 5,0 5.9,3 5.9,3 h 18 c 0,0 1,0 1,1 v 2 25 c 0,1 -1,1 -1,1 h -40 c 0,0 -1,0 -1,-1 v -24 -2 -1 -3 c 0,-1 1,-1 1,-1 z"
       style="opacity:1;fill:#6c7a89;fill-opacity:1;stroke:none;stroke-width:3.56737041px;stroke-linecap:butt;stroke-linejoin:miter;stroke-miterlimit:4;stroke-dasharray:none;stroke-dashoffset:0;stroke-opacity:1"
       inkscape:connector-curvature="0"
       sodipodi:nodetypes="sccscsccscccscs" />
    <path
       inkscape:connector-curvature="0"
       style="opacity:1;fill:#ffffff;fill-opacity:1;stroke:none;stroke-width:3.56737041px;stroke-linecap:butt;stroke-linejoin:miter;stroke-miterlimit:4;stroke-dasharray:none;stroke-dashoffset:0;stroke-opacity:1"
       d="m 328.57143,475.798 h 38 v 24.99999 h -38 z"
       id="folderPaper" />
    <path
       style="opacity:1;fill:#dadfe1;fill-opacity:1;stroke:none;stroke-width:3.56737041px;stroke-linecap:butt;stroke-linejoin:miter;stroke-miterlimit:4;stroke-dasharray:none;stroke-dashoffset:0;stroke-opacity:1"
       d="m 353.57143,477.798 c -5,0 -6,3 -6,3 h -22 c 0,0 -1,0 -1,1 v 2 24 c 0,1 1,1 1,1 h 44 c 0,0 1,0 1,-1 v -24 -2 -1 -2 c 0,-1 -1,-1 -1,-1 z"
       id="folderFront"
       inkscape:connector-curvature="0"
       sodipodi:nodetypes="sccscsccscccscs" />
    <path
       style="opacity:0.25;fill:#000000;fill-opacity:1;stroke:none;stroke-width:3.56737041px;stroke-linecap:butt;stroke-linejoin:miter;stroke-miterlimit:4;stroke-dasharray:none;stroke-dashoffset:0;stroke-opacity:1"
       d="m 324.57143,507.798 c 0,1 1,1 1,1 h 44 c 0,0 1,0 1,-1 z"
       id="folderShadow"
       inkscape:connector-curvature="0" />
    <rect
       style="color:#000000;clip-rule:nonzero;display:inline;overflow:visible;visibility:visible;opacity:1;isolation:auto;mix-blend-mode:normal;color-interpolation:sRGB;color-interpolation-filters:linearRGB;solid-color:#000000;solid-opacity:1;fill:#6c7a89;fill-opacity:1;fill-rule:nonzero;stroke:none;stroke-width:1;stroke-linecap:butt;stroke-linejoin:miter;stroke-miterlimit:4;stroke-dasharray:none;stroke-dashoffset:0;stroke-opacity:1;color-rendering:auto;image-rendering:auto;shape-rendering:auto;text-rendering:auto;enable-background:accumulate"
       id="Color_A"
       width="5"
       height="5"
       x="316.57141"
       y="465.79794" />
    <rect
       style="color:#000000;clip-rule:nonzero;display:inline;overflow:visible;visibility:visible;opacity:1;isolation:auto;mix-blend-mode:normal;color-interpolation:sRGB;color-interpolation-filters:linearRGB;solid-color:#000000;solid-opacity:1;fill:#dadfe1;fill-opacity:1;fill-rule:nonzero;stroke:none;stroke-width:1;stroke-linecap:butt;stroke-linejoin:miter;stroke-miterlimit:4;stroke-dasharray:none;stroke-dashoffset:0;stroke-opacity:1;color-rendering:auto;image-rendering:auto;shape-rendering:auto;text-rendering:auto;enable-background:accumulate"
       id="Color_B"
       width="5"
       height="5"
       x="316.57141"
       y="473.79794" />
    <path
       style="fill:#6c7a89;fill-rule:evenodd;stroke:none;stroke-width:1px;stroke-linecap:butt;stroke-linejoin:miter;stroke-opacity:1;fill-opacity:1"
       d="m 416.57143,516.798 -4.5,2.30078 v 5.39844 l 4.5,2.30078 4.5,-2.30078 v -5.39844 z"
       id="path4235"
       inkscape:connector-curvature="0" />
    <path
       style="fill:#6c7a89;fill-opacity:1;fill-rule:evenodd;stroke:none;stroke-width:1px;stroke-linecap:butt;stroke-linejoin:miter;stroke-opacity:1"
       d="m 414.57143,531.79804 -6,-3.10004 3,-1.9 3,1.6 z"
       id="path4241"
       inkscape:connector-curvature="0"
       sodipodi:nodetypes="ccccc" />
    <path
       style="fill:#6c7a89;fill-opacity:1;fill-rule:evenodd;stroke:none;stroke-width:1px;stroke-linecap:butt;stroke-linejoin:miter;stroke-opacity:1"
       d="m 407.57141,517.798 v 8 l 3.00002,-2 v -4 z"
       id="path4249"
       inkscape:connector-curvature="0" />
    <path
       inkscape:connector-curvature="0"
       id="path4251"
       d="m 425.57143,517.798 v 8 l -3.00002,-2 v -4 z"
       style="fill:#6c7a89;fill-opacity:1;fill-rule:evenodd;stroke:none;stroke-width:1px;stroke-linecap:butt;stroke-linejoin:miter;stroke-opacity:1" />
    <path
       sodipodi:nodetypes="ccccc"
       inkscape:connector-curvature="0"
       id="path4254"
       d="m 418.57143,531.79804 6,-3.10004 -3,-1.9 -3,1.6 z"
       style="fill:#6c7a89;fill-opacity:1;fill-rule:evenodd;stroke:none;stroke-width:1px;stroke-linecap:butt;stroke-linejoin:miter;stroke-opacity:1" />
    <path
       sodipodi:nodetypes="ccccc"
       inkscape:connector-curvature="0"
       id="path4256"
       d="m 414.57143,511.79796 -6,3.10004 3,1.9 3,-1.6 z"
       style="fill:#6c7a89;fill-opacity:1;fill-rule:evenodd;stroke:none;stroke-width:1px;stroke-linecap:butt;stroke-linejoin:miter;stroke-opacity:1" />
    <path
       style="fill:#6c7a89;fill-opacity:1;fill-rule:evenodd;stroke:none;stroke-width:1px;stroke-linecap:butt;stroke-linejoin:miter;stroke-opacity:1"
       d="m 418.57143,511.79796 6,3.10004 -3,1.9 -3,-1.6 z"
       id="path4258"
       inkscape:connector-curvature="0"
       sodipodi:nodetypes="ccccc" />
  </g>
</svg>
