<?xml version="1.0" encoding="UTF-8" standalone="no"?>
<!-- Created with Inkscape (http://www.inkscape.org/) -->

<svg
   xmlns:dc="http://purl.org/dc/elements/1.1/"
   xmlns:cc="http://creativecommons.org/ns#"
   xmlns:rdf="http://www.w3.org/1999/02/22-rdf-syntax-ns#"
   xmlns:svg="http://www.w3.org/2000/svg"
   xmlns="http://www.w3.org/2000/svg"
   xmlns:sodipodi="http://sodipodi.sourceforge.net/DTD/sodipodi-0.dtd"
   xmlns:inkscape="http://www.inkscape.org/namespaces/inkscape"
   width="64"
   height="64"
   id="svg5453"
   version="1.1"
   inkscape:version="0.91+devel r"
   sodipodi:docname="user-trash-full.svg"
   viewBox="0 0 64 64">
  <defs
     id="defs5455">
    <linearGradient
       id="linearGradient4707">
      <stop
         id="stop4709"
         offset="0"
         style="stop-color:#d5ffb9;stop-opacity:1" />
      <stop
         id="stop4711"
         offset="1"
         style="stop-color:#fcfff5;stop-opacity:1" />
    </linearGradient>
  </defs>
  <sodipodi:namedview
     id="base"
     pagecolor="#ffffff"
     bordercolor="#666666"
     borderopacity="1.0"
     inkscape:pageopacity="0"
     inkscape:pageshadow="2"
     inkscape:zoom="8"
     inkscape:cx="34.466628"
     inkscape:cy="28.632558"
     inkscape:document-units="px"
     inkscape:current-layer="layer1"
     showgrid="true"
     fit-margin-top="0"
     fit-margin-left="0"
     fit-margin-right="0"
     fit-margin-bottom="0"
     inkscape:window-width="2560"
     inkscape:window-height="957"
     inkscape:window-x="-4"
     inkscape:window-y="29"
     inkscape:window-maximized="1"
     inkscape:showpageshadow="false"
     borderlayer="true"
     showguides="true">
    <sodipodi:guide
       position="6.0000117,6.0000264"
       orientation="0,52"
       id="guide4099" />
    <sodipodi:guide
       position="58,39"
       orientation="-51.999969,0"
       id="guide4101" />
    <sodipodi:guide
       position="58.000012,57.999996"
       orientation="0,-52"
       id="guide4103" />
    <sodipodi:guide
       position="3.0000117,60.999996"
       orientation="57.999969,0"
       id="guide4105" />
    <sodipodi:guide
       position="3.0000117,3.0000264"
       orientation="0,58"
       id="guide4107" />
    <sodipodi:guide
       position="61.000012,3.0000264"
       orientation="-57.999969,0"
       id="guide4109" />
    <sodipodi:guide
       position="61.000012,60.999996"
       orientation="0,-58"
       id="guide4111" />
    <inkscape:grid
       type="xygrid"
       id="grid4115" />
    <sodipodi:guide
       position="19.000012,44.999996"
       orientation="25.999969,0"
       id="guide4243" />
    <sodipodi:guide
       position="19.000012,19.000026"
       orientation="0,26"
       id="guide4245" />
    <sodipodi:guide
       position="45.000012,19.000026"
       orientation="-25.999969,0"
       id="guide4247" />
    <sodipodi:guide
       position="45.000012,44.999996"
       orientation="0,-26"
       id="guide4249" />
  </sodipodi:namedview>
  <metadata
     id="metadata5458">
    <rdf:RDF>
      <cc:Work
         rdf:about="">
        <dc:format>image/svg+xml</dc:format>
        <dc:type
           rdf:resource="http://purl.org/dc/dcmitype/StillImage" />
        <dc:title></dc:title>
      </cc:Work>
    </rdf:RDF>
  </metadata>
  <g
     inkscape:label="Capa 1"
     inkscape:groupmode="layer"
     id="layer1"
     transform="translate(-384.57143,-483.798)">
    <ellipse
       style="opacity:1;fill:#dadfe1;fill-opacity:1;stroke:none;stroke-width:0.10690451;stroke-linecap:square;stroke-linejoin:miter;stroke-miterlimit:4;stroke-dasharray:none;stroke-dashoffset:0;stroke-opacity:1"
       id="path4155"
       cx="416.57144"
       cy="537.7981"
       rx="17"
       ry="3.9999998" />
    <path
       style="fill:#dadfe1;fill-rule:evenodd;stroke:none;stroke-width:1px;stroke-linecap:butt;stroke-linejoin:miter;stroke-opacity:1;fill-opacity:1"
       d="M 8 12 L 15 54 L 32 55 L 49 54 L 56 12 L 32 12 L 8 12 z "
       transform="translate(384.57143,483.798)"
       id="path4159" />
    <ellipse
       ry="6"
       rx="24.000011"
       cy="495.79797"
       cx="416.57144"
       id="ellipse4157"
       style="opacity:1;fill:#6c7a89;fill-opacity:1;stroke:none;stroke-width:0.16192128;stroke-linecap:square;stroke-linejoin:miter;stroke-miterlimit:4;stroke-dasharray:none;stroke-dashoffset:0;stroke-opacity:1" />
    <path
       style="opacity:1;fill:#6c7a89;fill-opacity:1;stroke:none;stroke-width:0.10690451;stroke-linecap:square;stroke-linejoin:miter;stroke-miterlimit:4;stroke-dasharray:none;stroke-dashoffset:0;stroke-opacity:1"
       d="M 48.927734 54.345703 A 18 3.9999998 0 0 1 32 57 A 18 3.9999998 0 0 1 15.080078 54.353516 A 17 3.9999998 0 0 0 32 58 A 17 3.9999998 0 0 0 48.927734 54.345703 z "
       transform="translate(384.57143,483.798)"
       id="ellipse4163" />
    <path
       style="opacity:1;fill:#cd424c;fill-opacity:1;stroke:none;stroke-opacity:1"
       d="M 52 15.310547 A 24.000011 6 0 0 1 44 17.1875 L 44 19.5 L 44 24 L 44 35 L 48 32.199219 L 52 35 L 52 15.310547 z "
       transform="translate(384.57143,483.798)"
       id="path4160" />
    <path
       style="opacity:1;fill:#d24d57;fill-opacity:1;stroke:none;stroke-opacity:1"
       d="m 435.57143,499.4523 a 24.000011,6 0 0 1 -5.54687,1.30664 c -0.12613,0.0243 -0.30204,0.0521 -0.45313,0.0898 l 0,2.44922 0,4.5 0,9 3,-2 3,2 0,-17.3457 z"
       id="rect4196-3"
       inkscape:connector-curvature="0" />
    <path
       style="fill:#6c7a89;fill-opacity:1;stroke:none;stroke-width:0.57335305"
       d="m 413.19218,510.798 -2.29245,4.2047 3.66793,2.1545 2.00377,-3.54472 0.69623,1.23366 -0.64529,1.12949 3.73585,0 2.03774,-3.59679 -0.90001,0.52154 -1.17169,-2.10238 -6.38491,0 -0.61132,0 -0.13585,0 z m 9.96792,6.49788 -3.66792,2.17187 2.00377,3.56206 -1.39245,0 -0.64528,-1.14668 -1.86792,3.30113 2.03773,3.61374 0,-1.0426 2.37736,0 3.19245,-5.64639 0.30566,-0.53866 0.068,-0.1392 -2.41132,-4.13527 z m -15.3,1.28584 0.9,0.52146 -1.18867,2.10227 3.19246,5.6465 0.28867,0.53884 0.0849,0.13886 4.70377,-0.0696 0,-4.34333 -4.02453,0 0.69623,-1.23358 1.29057,0 -1.86793,-3.30142 -4.07547,0 z"
       id="path3802"
       inkscape:connector-curvature="0" />
  </g>
</svg>
