<?xml version="1.0" encoding="UTF-8" standalone="no"?>
<!-- Created with Inkscape (http://www.inkscape.org/) -->

<svg
   xmlns:dc="http://purl.org/dc/elements/1.1/"
   xmlns:cc="http://creativecommons.org/ns#"
   xmlns:rdf="http://www.w3.org/1999/02/22-rdf-syntax-ns#"
   xmlns:svg="http://www.w3.org/2000/svg"
   xmlns="http://www.w3.org/2000/svg"
   xmlns:sodipodi="http://sodipodi.sourceforge.net/DTD/sodipodi-0.dtd"
   xmlns:inkscape="http://www.inkscape.org/namespaces/inkscape"
   width="48"
   height="48"
   id="svg2"
   version="1.1"
   inkscape:version="0.48.4 r9939"
   viewBox="0 0 13.546666 13.546668"
   sodipodi:docname="applications-development.svg">
  <defs
     id="defs4">
    <inkscape:perspective
       sodipodi:type="inkscape:persp3d"
       inkscape:vp_x="0 : 24 : 1"
       inkscape:vp_y="0 : 1000 : 0"
       inkscape:vp_z="48 : 24 : 1"
       inkscape:persp3d-origin="24 : 16 : 1"
       id="perspective3173" />
  </defs>
  <sodipodi:namedview
     id="base"
     pagecolor="#ffffff"
     bordercolor="#666666"
     borderopacity="1.0"
     inkscape:pageopacity="0"
     inkscape:pageshadow="2"
     inkscape:zoom="4"
     inkscape:cx="20.497671"
     inkscape:cy="16.524267"
     inkscape:document-units="px"
     inkscape:current-layer="layer1-3"
     showgrid="false"
     inkscape:showpageshadow="false"
     borderlayer="true"
     units="px"
     fit-margin-top="0"
     fit-margin-left="0"
     fit-margin-right="0"
     fit-margin-bottom="0"
     showguides="true"
     inkscape:window-width="801"
     inkscape:window-height="694"
     inkscape:window-x="333"
     inkscape:window-y="39"
     inkscape:window-maximized="0">
    <sodipodi:guide
       position="-6.6748425e-06,47.999999"
       orientation="47.999977,0"
       id="guide4120" />
    <sodipodi:guide
       position="-6.6748425e-06,2.2810037e-05"
       orientation="0,48.000004"
       id="guide4122" />
    <sodipodi:guide
       position="47.999997,2.2810037e-05"
       orientation="-47.999977,0"
       id="guide4124" />
    <sodipodi:guide
       position="47.999997,47.999999"
       orientation="0,-48.000004"
       id="guide4126" />
    <sodipodi:guide
       position="3.9999733,44.000154"
       orientation="39.999962,0"
       id="guide4138" />
    <sodipodi:guide
       position="43.999976,4.0001921"
       orientation="-39.999962,0"
       id="guide4142" />
    <sodipodi:guide
       position="40.999998,47.999999"
       orientation="0,-34.000006"
       id="guide4154" />
    <sodipodi:guide
       position="14.999993,15.000036"
       orientation="0,17.999998"
       id="guide4160" />
    <sodipodi:guide
       position="32.999991,32.999986"
       orientation="0,-17.999998"
       id="guide4164" />
  </sodipodi:namedview>
  <metadata
     id="metadata7">
    <rdf:RDF>
      <cc:Work
         rdf:about="">
        <dc:format>image/svg+xml</dc:format>
        <dc:type
           rdf:resource="http://purl.org/dc/dcmitype/StillImage" />
        <dc:title />
      </cc:Work>
    </rdf:RDF>
  </metadata>
  <g
     inkscape:label="Capa 1"
     inkscape:groupmode="layer"
     id="layer1"
     transform="translate(38.119153,-397.84494)">
    <g
       id="g3120"
       transform="matrix(0.28222225,0,0,0.28222225,-38.076192,397.93651)">
      <g
         transform="matrix(0.99297771,0,0,0.99765924,-361.33887,-433.51974)"
         id="layer1-3"
         inkscape:label="Capa 1">
        <text
           sodipodi:linespacing="125%"
           id="text3160"
           y="716.64789"
           x="-288.57144"
           style="font-size:40px;font-style:normal;font-variant:normal;font-weight:normal;font-stretch:normal;line-height:125%;letter-spacing:0px;word-spacing:0px;fill:#000000;fill-opacity:1;stroke:none;font-family:DejaVu Sans;-inkscape-font-specification:DejaVu Sans"
           xml:space="preserve"><tspan
             y="716.64789"
             x="-288.57144"
             id="tspan3162"
             sodipodi:role="line" /></text>
        <g
           transform="matrix(0.83922907,0,0,0.89304413,98.840808,-206.74343)"
           id="layer1-7"
           inkscape:label="Capa 1">
          <path
             sodipodi:nodetypes="sscsssssccccssccss"
             inkscape:connector-curvature="0"
             id="path2996"
             d="m 355.1666,734.5884 c -1.59588,0 -3.76111,1.36642 -3.76111,2.96229 0,1.67243 0.13313,5.09248 0.13313,5.09248 l -14.91129,0 c -5.68877,0 -6.59084,0.76512 -15.21086,3.82254 -0.77472,0.27478 -1.00453,0.64525 -0.96531,1.06803 0.0408,0.43997 0.42025,0.63177 1.10226,1.02554 4.10748,2.37145 12.7462,6.19932 16.93782,6.19932 l 24.23086,0 -7.25595,-7.25595 0,-4.85948 -0.0332,0 c 0,0 -0.0332,-0.0582 -0.0332,-2.23004 0,-0.47071 0.52782,-0.99853 0.99853,-0.99853 3.76203,0 10.88391,0 10.88391,0 l 0,-4.8262 c 0,0 -7.73121,0 -12.11543,0 z"
             style="fill:#ecf0f1;fill-opacity:1;stroke:none" />
          <path
             inkscape:connector-curvature="0"
             id="rect3879"
             d="m 364.88557,734.55512 c -0.11065,0 -0.19537,0.012 -0.29956,0.0332 l -5.92458,0 0,4.8262 6.22414,0 1.59764,0 0.36612,0 c 0.88509,0 1.59764,-0.71255 1.59764,-1.59764 l 0,-1.66421 c 0,-0.88509 -0.71255,-1.59764 -1.59764,-1.59764 l -1.96376,0 z"
             style="fill:#2c3e50;fill-opacity:1;stroke:none" />
          <path
             sodipodi:nodetypes="cscccccc"
             inkscape:connector-curvature="0"
             id="path2996-6"
             d="m 336.8958,742.68893 c -5.51649,0 -6.4854,0.43045 -14.75025,3.49689 -0.71844,0.26655 -1.37253,0.49768 -1.53688,0.78395 l 30.76353,-0.0928 0,-4.17173 -0.0968,-0.0288 -14.36294,0 z"
             style="fill:#7f8c8d;fill-opacity:1;stroke:none" />
        </g>
      </g>
    </g>
  </g>
</svg>
