<?xml version="1.0" encoding="UTF-8" standalone="no"?>
<!-- Created using Karbon, part of Calligra: http://www.calligra.org/karbon -->

<svg
   xmlns:dc="http://purl.org/dc/elements/1.1/"
   xmlns:cc="http://creativecommons.org/ns#"
   xmlns:rdf="http://www.w3.org/1999/02/22-rdf-syntax-ns#"
   xmlns:svg="http://www.w3.org/2000/svg"
   xmlns="http://www.w3.org/2000/svg"
   xmlns:sodipodi="http://sodipodi.sourceforge.net/DTD/sodipodi-0.dtd"
   xmlns:inkscape="http://www.inkscape.org/namespaces/inkscape"
   width="38.4pt"
   height="38.4pt"
   id="svg2"
   version="1.1"
   inkscape:version="0.49 r12742"
   sodipodi:docname="konqueror.svg">
  <metadata
     id="metadata11">
    <rdf:RDF>
      <cc:Work
         rdf:about="">
        <dc:format>image/svg+xml</dc:format>
        <dc:type
           rdf:resource="http://purl.org/dc/dcmitype/StillImage" />
        <dc:title></dc:title>
      </cc:Work>
    </rdf:RDF>
  </metadata>
  <sodipodi:namedview
     pagecolor="#ffffff"
     bordercolor="#666666"
     borderopacity="1"
     objecttolerance="10"
     gridtolerance="10"
     guidetolerance="10"
     inkscape:pageopacity="0"
     inkscape:pageshadow="2"
     inkscape:window-width="1366"
     inkscape:window-height="718"
     id="namedview9"
     showgrid="false"
     inkscape:zoom="6.9532164"
     inkscape:cx="34.547327"
     inkscape:cy="22.971679"
     inkscape:window-x="-2"
     inkscape:window-y="23"
     inkscape:window-maximized="1"
     inkscape:current-layer="svg2"
     inkscape:showpageshadow="false"
     borderlayer="true">
    <sodipodi:guide
       position="9.5367432e-07,48.000001"
       orientation="47.999999,0"
       id="guide4062" />
    <sodipodi:guide
       position="9.5367432e-07,1.9073486e-06"
       orientation="0,47.999999"
       id="guide4064" />
    <sodipodi:guide
       position="48,1.9073486e-06"
       orientation="-47.999999,0"
       id="guide4066" />
    <sodipodi:guide
       position="48,48.000001"
       orientation="0,-47.999999"
       id="guide4068" />
    <sodipodi:guide
       position="15.000001,33.000001"
       orientation="17.999999,0"
       id="guide4080" />
    <sodipodi:guide
       position="15.000001,15.000002"
       orientation="0,17.999999"
       id="guide4082" />
    <sodipodi:guide
       position="33,15.000002"
       orientation="-17.999999,0"
       id="guide4084" />
    <sodipodi:guide
       position="33,33.000001"
       orientation="0,-17.999999"
       id="guide4086" />
    <sodipodi:guide
       position="4.000001,44.000001"
       orientation="39.999999,0"
       id="guide4088" />
    <sodipodi:guide
       position="4.000001,4.0000019"
       orientation="0,39.999999"
       id="guide4090" />
    <sodipodi:guide
       position="44,4.0000019"
       orientation="-39.999999,0"
       id="guide4092" />
    <sodipodi:guide
       position="44,44.000001"
       orientation="0,-39.999999"
       id="guide4094" />
  </sodipodi:namedview>
  <defs
     id="defs4">
    <clipPath
       id="clipPath16"
       clipPathUnits="userSpaceOnUse">
      <path
         id="path18"
         d="m 0,706.465 1490.926,0 L 1490.926,0 0,0 0,706.465 Z" />
    </clipPath>
    <clipPath
       id="clipPath24"
       clipPathUnits="userSpaceOnUse">
      <path
         id="path26"
         d="m 22.1953,686.117 1447.7347,0 0,-667.1902 -1447.7347,0 L 22.1953,686.117 Z" />
    </clipPath>
  </defs>
  <rect
     style="fill:#3498db;fill-opacity:1;stroke:none"
     id="rect4096"
     width="40"
     height="40"
     x="4.000001"
     y="4.000001"
     ry="20" />
  <path
     style="fill:#ecf0f1;fill-opacity:1;fill-rule:nonzero;stroke:none"
     d="M 19.841797 4.4414062 C 19.830683 4.4408331 19.817969 4.4434537 19.806641 4.4433594 C 18.998454 4.6145838 18.215616 4.8481844 17.447266 5.1132812 C 17.42796 5.1677908 17.401746 5.2250905 17.412109 5.2617188 C 17.465909 5.4529784 17.819593 5.3143373 17.914062 5.4960938 C 17.892373 5.7181165 17.652952 5.8284551 17.464844 5.9238281 C 17.289443 6.0124581 17.064464 6.2365952 16.875 6.1230469 C 16.8009 5.9300719 17.089601 5.928728 17.019531 5.7636719 C 16.967521 5.6402329 16.742059 5.7211098 16.642578 5.6035156 C 16.598206 5.5509367 16.588873 5.4885686 16.589844 5.4238281 C 9.7866439 8.1266803 4.8363813 14.433211 4.0976562 22.021484 C 4.178981 22.045166 4.2797333 22.058553 4.359375 22.09375 C 4.48731 22.15072 4.58788 22.286315 4.734375 22.361328 C 4.91568 22.454078 5.159195 22.509149 5.3789062 22.611328 C 5.5905248 22.709458 5.8743158 22.844798 6.0429688 22.845703 C 6.2125198 22.846803 6.3929291 22.671036 6.5800781 22.666016 C 7.0191151 22.653786 7.2099341 23.22448 7.5644531 23.400391 C 7.6534631 23.445181 7.7718847 23.446926 7.8867188 23.472656 C 7.9798488 23.492996 8.0495929 23.530227 8.1386719 23.560547 C 8.3281309 23.624777 8.5594995 23.618153 8.7109375 23.685547 C 8.9392555 23.786834 9.1064634 24.215245 9.3027344 24.330078 C 9.3122344 24.445812 9.2818525 24.603134 9.3203125 24.689453 C 9.4130025 24.815204 9.5425245 24.7853 9.6953125 24.867188 C 9.8779655 24.965778 9.9342112 25.221048 10.107422 25.298828 C 10.166592 25.325518 10.315684 25.322562 10.410156 25.351562 C 10.64753 25.423413 10.726224 25.696829 10.929688 25.636719 C 11.063083 25.597829 11.052961 25.461467 11.074219 25.333984 C 11.162379 25.238094 11.259046 25.08475 11.396484 25.082031 C 11.618956 25.077531 11.637831 25.315133 11.71875 25.53125 C 11.76443 25.653274 11.884867 25.759841 11.916016 25.888672 C 11.970706 26.111146 11.944117 26.775193 11.898438 26.908203 C 11.842398 27.071392 11.622486 27.141348 11.486328 27.322266 C 11.422618 27.406766 11.392636 27.530179 11.34375 27.589844 C 11.25656 27.696522 11.122209 27.723619 11.056641 27.822266 C 11.019601 27.877366 10.984937 27.997186 10.949219 28.072266 C 10.84113 28.30013 10.696748 28.460848 10.787109 28.734375 C 10.824219 28.846962 11.001506 28.926032 11.001953 29.058594 C 11.00234 29.21459 10.670284 29.350583 10.644531 29.521484 C 10.625081 29.648068 10.746906 29.877463 10.787109 30.042969 C 10.817439 30.168206 11.053223 30.246908 11.126953 30.330078 C 11.252639 30.471119 11.353918 30.670399 11.46875 30.847656 C 11.695718 31.196262 11.872691 31.619276 12.09375 31.957031 C 12.21 32.133838 12.37535 32.294965 12.453125 32.478516 C 12.492875 32.571196 12.488341 32.680439 12.525391 32.763672 C 12.653387 33.052553 13.218127 33.354703 13.509766 33.498047 C 13.646306 33.564967 13.796638 33.59055 13.921875 33.660156 C 14.111725 33.766002 14.488162 34.048441 14.583984 34.214844 C 14.669904 34.364486 14.720167 34.728977 14.761719 34.966797 C 14.816859 35.281113 14.765107 35.520939 14.779297 35.861328 C 14.787097 36.045394 14.849322 36.231499 14.851562 36.416016 C 14.852662 36.480626 14.818636 36.529738 14.816406 36.595703 C 14.808506 36.819074 14.870563 37.070197 14.851562 37.294922 C 14.841133 37.41746 14.807366 37.513055 14.816406 37.615234 C 14.825906 37.726406 14.878069 37.824635 14.886719 37.921875 C 14.895719 38.026753 14.860581 38.160817 14.869141 38.242188 C 14.893571 38.468254 15.059201 38.644892 15.103516 38.851562 C 15.138756 39.016171 15.159822 39.353678 15.138672 39.550781 C 15.127782 39.65431 15.064638 39.759501 15.048828 39.873047 C 15.036978 39.962527 15.061498 40.056558 15.048828 40.140625 C 15.030718 40.265926 14.951814 40.365788 14.958984 40.482422 C 14.974854 40.723903 15.243293 40.920624 15.28125 41.162109 C 15.29437 41.243039 15.260022 41.333888 15.263672 41.412109 C 15.270672 41.561302 15.339428 41.685884 15.371094 41.824219 C 15.387162 41.893764 15.392611 41.972096 15.400391 42.048828 C 15.485878 42.089467 15.570092 42.132417 15.65625 42.171875 C 15.637108 42.100773 15.621091 42.030447 15.675781 41.984375 C 15.797167 42.021145 15.840833 42.135925 15.863281 42.271484 C 16.563517 42.58241 17.277195 42.865443 18.017578 43.095703 C 18.123364 43.021732 18.262593 42.966641 18.291016 42.826172 C 18.312696 42.719494 18.258866 42.674358 18.253906 42.503906 C 18.294146 42.328899 18.484877 42.30511 18.521484 42.126953 C 18.446854 41.999398 18.276647 42.087412 18.164062 42.021484 C 18.054688 41.958064 18.005687 41.81488 18.021484 41.679688 C 18.208249 41.601008 18.567393 41.871172 18.701172 41.609375 C 18.767722 41.485935 18.6265 41.179411 18.71875 41.054688 C 18.78165 40.970548 19.123365 40.967469 19.255859 40.945312 C 19.445769 40.913643 19.668201 40.872722 19.775391 40.802734 C 19.892472 40.725824 20.065217 40.503811 20.044922 40.283203 C 20.034922 40.17781 19.963319 40.143907 19.882812 40.050781 C 19.815452 39.972531 19.789123 39.874954 19.740234 39.800781 C 19.656624 39.67503 19.527354 39.693112 19.490234 39.513672 C 19.747065 39.463442 20.138101 39.725522 20.509766 39.621094 C 20.686062 39.571394 20.929898 39.194736 21.011719 39.029297 C 21.037959 38.977367 21.035463 38.897691 21.064453 38.833984 C 21.095683 38.764834 21.161542 38.709991 21.171875 38.673828 C 21.199515 38.576148 21.184921 38.500913 21.207031 38.439453 C 21.272161 38.257697 21.441186 38.198743 21.548828 38.064453 C 21.630198 37.963171 21.668768 37.841518 21.746094 37.740234 C 21.830224 37.629898 21.905318 37.534671 21.960938 37.4375 C 22.013838 37.110599 21.829827 36.88195 21.90625 36.595703 C 21.99217 36.274259 22.43656 36.076725 22.748047 35.931641 C 22.85524 35.881861 22.965455 35.801803 23.052734 35.771484 C 23.268336 35.695954 23.535253 35.736368 23.732422 35.664062 C 24.067931 35.541519 24.10409 35.182596 24.269531 34.876953 C 24.348231 34.732252 24.451381 34.5855 24.466797 34.482422 C 24.480807 34.389672 24.431466 34.306636 24.447266 34.197266 C 24.463066 34.089623 24.564339 33.991927 24.59375 33.873047 C 24.63257 33.717949 24.646484 33.491121 24.646484 33.318359 C 24.646484 33.176488 24.580569 33.053716 24.574219 32.925781 C 24.551189 32.461378 24.742265 32.407087 24.914062 32.154297 C 24.999533 32.028614 25.031687 31.886856 25.091797 31.796875 C 25.380293 31.366447 25.881922 31.158405 25.845703 30.507812 C 25.834003 30.292535 25.699717 29.807001 25.541016 29.738281 C 25.450596 29.698941 25.242409 29.734497 25.111328 29.685547 C 24.68809 29.527748 24.440477 29.002279 24.001953 28.96875 C 23.908313 28.96175 23.820236 29.006106 23.714844 29.003906 C 23.541246 29.001006 23.280048 28.881464 23.087891 28.859375 C 22.9658 28.845735 22.803746 28.894985 22.730469 28.859375 C 22.618333 28.805055 22.606504 28.600522 22.515625 28.539062 C 22.442865 28.489732 22.302732 28.473616 22.193359 28.431641 C 22.016998 28.363381 21.877292 28.283597 21.673828 28.269531 C 21.611008 28.265731 21.531752 28.298809 21.458984 28.287109 C 21.346401 28.268919 21.258274 28.135526 21.154297 28.072266 C 21.024499 27.993046 20.905321 27.952882 20.851562 27.839844 C 20.969093 27.454182 20.641624 27.347854 20.5625 27.125 C 20.52547 27.020569 20.542326 26.893906 20.509766 26.800781 C 20.463186 26.667391 20.332197 26.59177 20.1875 26.480469 C 19.928419 26.281117 19.698444 26.094555 19.328125 26.048828 C 19.165383 26.028938 19.005248 26.098547 18.808594 26.085938 C 18.600185 26.072817 18.339529 25.887143 18.183594 25.708984 C 18.032088 25.534939 17.956263 25.381998 17.824219 25.298828 C 17.698981 25.219228 17.532688 25.218114 17.447266 25.136719 C 17.409346 25.100579 17.41569 25.040648 17.375 24.957031 C 17.31218 24.826847 17.20883 24.755609 17.287109 24.599609 C 17.144209 24.526369 17.138487 24.734133 16.982422 24.707031 C 16.843184 24.509478 16.726204 24.414726 16.410156 24.472656 C 16.265911 24.499366 16.184275 24.684923 16.015625 24.689453 C 15.877284 24.693353 15.768591 24.536036 15.585938 24.509766 C 15.448049 24.490406 15.291493 24.546774 15.193359 24.527344 C 15.040567 24.497454 14.991251 24.369184 14.851562 24.277344 C 14.749382 24.210054 14.551558 24.095845 14.494141 24.097656 C 14.314248 24.103756 14.187679 24.479184 13.939453 24.347656 C 13.818324 24.194863 14.135078 24.11562 13.992188 23.972656 C 13.883648 23.86418 13.7938 24.02044 13.707031 24.080078 C 13.607991 24.148328 13.512165 24.219045 13.402344 24.259766 C 13.156366 24.351556 13.002768 24.302837 12.810547 24.402344 C 12.632454 24.494584 12.626225 24.648864 12.525391 24.832031 C 12.442681 24.982119 12.254746 25.199931 12.130859 25.208984 C 11.980767 25.219864 11.835311 24.998282 11.699219 24.939453 C 11.289147 24.761749 11.092467 25.095079 10.751953 25.099609 C 10.435905 25.103509 9.984136 24.592019 10 24.294922 C 10.01 24.113614 10.103292 23.839505 10.125 23.615234 C 10.14259 23.437077 10.265842 23.328824 10.267578 23.166016 C 10.270078 22.94855 9.9789916 22.781609 9.8378906 22.755859 C 9.5033466 22.694369 9.0416221 22.890692 8.6582031 22.738281 C 8.5849331 22.617158 8.7421081 22.532039 8.7832031 22.414062 C 8.8062531 22.347143 8.7901994 22.257326 8.8183594 22.183594 C 8.8608694 22.070174 8.9797681 21.98005 9.0332031 21.859375 C 9.0734131 21.767135 9.0804237 21.63391 9.1210938 21.519531 C 9.1676637 21.38928 9.25567 21.306175 9.265625 21.214844 C 9.278735 21.093655 9.2331449 20.954572 9.1386719 20.875 C 8.8411849 20.89035 8.6456635 20.906097 8.4765625 20.982422 C 8.0890975 21.158781 8.1663759 21.682753 7.7792969 21.806641 C 7.6454529 21.849621 7.4618481 21.850713 7.3144531 21.876953 C 7.1874181 21.899993 7.0334257 21.969547 6.9023438 21.966797 C 6.7472357 21.964297 6.4750385 21.815832 6.3828125 21.716797 C 6.3005425 21.627737 6.100732 21.185646 6.078125 21.107422 C 5.92572 20.579819 6.0922078 20.095237 6.2929688 19.728516 C 6.3354887 19.650716 6.405838 19.579868 6.4375 19.498047 C 6.48541 19.37371 6.4526644 19.183122 6.4902344 19.048828 C 6.5588844 18.799254 6.8861085 18.649587 7.1171875 18.529297 C 7.3789645 18.393204 7.5994889 18.174657 7.9042969 18.154297 C 8.0561869 18.143857 8.2778471 18.196292 8.4238281 18.226562 C 8.5586341 18.254192 8.6665691 18.342953 8.7832031 18.351562 C 9.1141491 18.376883 9.1928906 18.118857 9.4628906 17.974609 C 9.7418156 18.013949 9.9278008 17.927591 10.179688 17.957031 C 10.351487 17.976841 10.475533 18.161473 10.609375 18.171875 C 10.72196 18.180875 10.820764 18.064887 10.929688 18.082031 C 11.035464 18.098801 11.219118 18.329637 11.236328 18.458984 C 11.257568 18.61993 11.117928 18.764597 11.164062 18.941406 C 11.332716 19.113207 11.639892 19.147059 11.880859 19.246094 C 12.03776 19.116746 11.902089 18.87862 11.880859 18.691406 C 11.871859 18.608696 11.889359 18.534896 11.880859 18.458984 C 11.866849 18.330087 11.809044 18.209946 11.808594 18.099609 C 11.806194 17.590055 12.218745 17.351607 12.560547 17.150391 C 12.708391 17.063131 12.824741 16.909863 12.953125 16.845703 C 13.13443 16.754773 13.26983 16.734911 13.419922 16.650391 C 13.691205 16.498051 13.922697 16.37387 14.134766 16.201172 C 14.232836 15.970157 14.140864 15.659958 14.152344 15.431641 C 14.250474 15.371501 14.337427 15.458269 14.441406 15.449219 C 14.605114 15.414339 14.616246 15.184022 14.708984 15.091797 C 14.762254 15.038967 14.911594 14.999745 14.978516 14.947266 C 15.141774 14.819333 15.193489 14.62939 15.335938 14.574219 C 15.386978 14.553879 15.505466 14.559249 15.585938 14.537109 C 15.692616 14.508189 15.842928 14.381479 16.015625 14.322266 C 16.12776 14.283816 16.384768 14.275872 16.427734 14.232422 C 16.480564 14.178622 16.428166 14.028191 16.445312 13.947266 C 16.532122 13.54304 17.14204 13.456403 17.501953 13.320312 C 17.754224 13.224493 18.013826 13.051713 18.291016 13.105469 C 18.236776 13.297627 17.977684 13.229563 18.021484 13.462891 C 18.082594 13.786645 18.514522 13.368279 18.628906 13.320312 C 18.847334 13.228523 19.221179 13.172338 19.507812 13.068359 C 19.759186 12.977039 20.20958 12.838313 19.972656 12.550781 C 19.77504 12.539451 19.680061 12.779851 19.507812 12.853516 C 19.388869 12.871176 19.411757 12.755599 19.310547 12.746094 C 19.214657 12.737094 19.159581 12.835569 19.060547 12.818359 C 18.962027 12.801149 18.824007 12.648421 18.808594 12.533203 C 18.769314 12.234304 19.061724 12.111594 19.185547 11.888672 C 19.103727 11.618288 18.729975 11.830464 18.503906 11.724609 C 18.525586 11.563662 18.692747 11.452639 18.880859 11.421875 C 19.034997 11.396545 19.38088 11.416047 19.472656 11.492188 C 19.526456 11.537427 19.47951 11.649595 19.5625 11.724609 C 19.65385 11.807399 19.764382 11.798797 19.882812 11.779297 C 19.925822 11.575386 19.61693 11.627379 19.650391 11.492188 C 19.892258 11.333939 20.283941 11.465775 20.580078 11.421875 C 20.75053 11.396535 20.930975 11.274421 21.082031 11.189453 C 21.225763 11.108003 21.414001 10.9638 21.566406 11.097656 C 21.608026 11.243701 21.432934 11.294422 21.351562 11.367188 C 21.077582 11.610919 20.793044 11.890792 20.580078 12.173828 C 20.710776 12.301312 20.950816 12.235409 21.171875 12.261719 C 21.258245 12.272159 21.367592 12.300146 21.458984 12.316406 C 21.565659 12.335406 21.678103 12.330832 21.761719 12.351562 C 21.912325 12.388673 21.95471 12.550781 22.103516 12.550781 C 22.348533 12.550331 22.349727 12.284647 22.210938 12.119141 C 22.254838 11.950038 22.323332 11.862572 22.263672 11.744141 C 22.153334 11.523468 21.747377 11.739452 21.726562 11.457031 C 21.713442 11.278425 21.876737 11.286123 21.941406 11.152344 C 21.911966 10.807331 22.226756 10.781897 22.193359 10.472656 C 22.179349 10.34331 22.069392 10.343847 21.978516 10.222656 C 21.931496 10.160286 21.907999 10.038147 21.851562 9.9902344 C 21.66435 9.8319874 21.284775 9.8625279 21.261719 9.5605469 C 21.253219 9.3823889 21.304157 9.2325695 21.279297 9.0390625 C 21.256267 8.8586785 21.132408 8.3586428 20.974609 8.3242188 C 20.774743 8.2808588 20.569698 8.6229071 20.330078 8.7363281 C 20.199831 8.7983181 20.013507 8.86822 19.882812 8.84375 C 19.797832 8.8275 19.628336 8.7012664 19.615234 8.5371094 C 19.600754 8.3490304 19.740577 8.3452943 19.775391 8.1445312 C 19.745511 8.0261003 19.623994 8.0538537 19.507812 7.9648438 C 19.376219 7.8649138 19.270714 7.6514221 19.095703 7.6269531 C 19.008493 7.6147431 18.895422 7.6913556 18.808594 7.6972656 C 18.542258 7.7153156 18.311935 7.5266016 18.109375 7.5722656 C 17.867502 7.6269256 17.878312 8.0023518 17.644531 8.0742188 C 17.676201 8.2492308 17.438309 8.3636131 17.412109 8.5019531 C 17.394449 8.5950831 17.441836 8.7064966 17.447266 8.7910156 C 17.501066 9.6473826 16.797095 10.048448 15.962891 10.025391 C 15.799248 10.181841 15.837127 10.472799 15.748047 10.6875 C 15.672997 10.867908 15.408924 11.060273 15.228516 11.044922 C 15.095125 11.033592 14.941856 10.848946 14.941406 10.724609 C 14.940953 10.571305 15.163739 10.485558 15.03125 10.310547 C 15.05025 10.191669 15.313813 10.124944 15.28125 9.9355469 C 15.24781 9.7383789 14.972542 9.8393588 14.726562 9.8085938 C 14.54751 9.7860138 14.311046 9.6834341 14.152344 9.5957031 C 13.942589 9.4795211 13.763761 9.252725 13.490234 9.21875 C 13.334684 9.19982 13.188514 9.2708638 13.115234 9.1835938 C 13.034834 9.0877738 13.147804 8.9449293 13.152344 8.8789062 C 13.147244 8.7699863 12.944668 8.7356463 12.935547 8.6289062 C 12.928547 8.5543263 13.128652 8.3179761 13.205078 8.2519531 C 13.346566 8.1289651 13.604164 7.998439 13.832031 7.875 C 14.054953 7.754258 14.31318 7.6270685 14.529297 7.5546875 C 14.621587 7.5239875 14.727775 7.5344431 14.816406 7.5019531 C 15.042927 7.4182731 15.191935 7.2581875 15.40625 7.1953125 C 15.51794 7.1628125 15.640836 7.1701281 15.765625 7.1425781 C 16.062664 7.0761071 16.282434 6.8632785 16.535156 6.8203125 C 16.479116 7.0264723 16.249129 7.0586571 16.195312 7.2675781 C 16.411876 7.6618511 16.783038 7.1759344 17.037109 7.1777344 C 17.267737 7.1790344 17.498933 7.5046165 17.644531 7.1953125 C 17.591671 7.0285278 17.435856 6.9337131 17.287109 6.8378906 C 17.149675 6.7492616 16.932818 6.670225 16.947266 6.4785156 C 17.112325 6.4052336 17.174354 6.6045697 17.322266 6.6054688 C 17.402746 6.6059183 17.508627 6.5069669 17.591797 6.4785156 C 17.778109 6.4147436 18.089322 6.3958737 18.236328 6.265625 C 18.324898 6.187403 18.31018 6.0617696 18.378906 5.9609375 C 18.437696 5.8750695 18.584059 5.8504389 18.646484 5.7636719 C 18.722474 5.6578303 18.658651 5.5692901 18.755859 5.5136719 C 18.964779 5.4204819 19.223616 5.5353789 19.455078 5.5136719 C 19.564516 5.5032699 19.637152 5.4156731 19.740234 5.4238281 C 19.940547 5.4396251 20.047302 5.7621245 20.1875 5.8535156 C 20.290135 5.9208886 20.474527 5.9172335 20.492188 6.0488281 C 20.526988 6.3101564 20.149499 6.3308456 19.917969 6.4628906 C 19.802689 6.5283996 19.756335 6.6766489 19.615234 6.7304688 C 19.236374 6.8751659 18.660251 6.570333 18.539062 6.9804688 C 18.714071 7.2381358 19.034733 6.9633466 19.255859 6.9628906 C 19.413658 6.961996 19.606405 7.1089113 19.703125 7.2128906 C 19.786805 7.3024206 19.816236 7.4782804 19.917969 7.5371094 C 19.985779 7.5759694 20.105232 7.5649937 20.1875 7.5898438 C 20.450178 7.6694138 20.669501 7.811077 20.957031 7.75 C 21.055621 7.576851 20.754762 7.5286691 20.869141 7.3925781 C 21.061809 7.4088281 21.185686 7.4945735 21.333984 7.5546875 C 21.541105 7.4032465 21.681085 7.3857951 21.673828 7.1425781 C 21.668228 6.9391164 21.40265 6.9284842 21.40625 6.6933594 C 21.40855 6.560929 21.501242 6.5020929 21.601562 6.4980469 C 21.832124 6.4889869 21.899192 6.8325029 22.068359 6.8574219 C 22.17048 6.8723219 22.472118 6.7232237 22.533203 6.6933594 C 22.619493 6.6509054 22.882085 6.4968326 22.890625 6.4082031 C 22.903805 6.276159 22.614162 6.1044468 22.478516 6.0488281 C 22.285462 5.9697041 22.092887 5.9822974 22.015625 5.8164062 C 21.974475 5.7255303 22.038237 5.6321338 21.960938 5.5683594 C 21.951937 5.4716384 22.079246 5.408092 22.050781 5.3144531 C 22.021811 5.2190981 21.916892 5.2353542 21.78125 5.1738281 C 21.68587 5.1300261 21.596782 5.0316282 21.513672 5.0117188 C 21.401477 4.9850667 21.292515 5.0082255 21.207031 4.9765625 C 20.892336 4.8599315 20.952552 4.5975346 20.744141 4.4746094 C 20.473755 4.5080094 20.239335 4.3787015 20.044922 4.4921875 C 19.984439 4.4589515 19.914671 4.4451643 19.841797 4.4414062 z M 19.814453 5.9101562 C 19.641074 5.8876143 19.406698 6.0347963 19.435547 6.1582031 C 19.483907 6.3639774 19.992583 6.1552019 19.955078 5.9960938 C 19.922648 5.9438787 19.872254 5.9176683 19.814453 5.9101562 z M 20.787109 6.3535156 C 20.808109 6.353095 20.831643 6.3590699 20.851562 6.3730469 C 20.864232 6.4630269 20.812706 6.4893694 20.724609 6.4785156 C 20.671689 6.4113666 20.723689 6.3547771 20.787109 6.3535156 z M 16.839844 7.4785156 C 16.771644 7.4654056 16.69029 7.4725531 16.642578 7.5019531 C 16.572538 7.5444131 16.564003 7.6110713 16.570312 7.6445312 C 16.608702 7.8348913 16.968435 7.6708356 16.964844 7.5722656 C 16.962644 7.5238756 16.908069 7.4916256 16.839844 7.4785156 z M 35.837891 7.8847656 C 35.81323 8.0725286 35.887589 8.2202116 35.908203 8.359375 C 35.923113 8.459757 35.892331 8.5506004 35.925781 8.6464844 C 35.984571 8.8141734 36.221937 8.9863281 36.445312 8.9863281 C 36.632796 8.9863281 36.795882 8.8600748 36.951172 8.7519531 C 36.592743 8.4475355 36.217554 8.1636071 35.837891 7.8847656 z M 33.617188 8.7011719 C 33.525397 8.8205609 33.361467 8.7710069 33.205078 8.8261719 C 33.078877 8.8704319 32.843107 9.0867965 32.810547 9.1640625 C 32.756747 9.2916105 32.823667 9.4346524 32.810547 9.6308594 C 32.912726 9.6751994 32.975832 9.8768333 33.150391 9.9726562 C 33.216411 10.008796 33.306404 9.9923806 33.365234 10.025391 C 33.467416 10.082821 33.548144 10.208368 33.527344 10.310547 C 33.497084 10.457491 33.304943 10.41842 33.205078 10.527344 C 33.222218 10.735817 33.059773 10.763105 33.007812 10.902344 C 33.039043 10.990504 33.171552 10.97433 33.185547 11.080078 C 33.165657 11.19401 32.963493 11.211803 33.007812 11.332031 C 33.199525 11.481738 33.39877 11.302397 33.580078 11.279297 C 33.980645 11.229147 34.390741 11.327832 34.636719 11.134766 C 34.603259 10.943506 34.837215 10.875978 34.816406 10.705078 C 34.800526 10.576245 34.586283 10.561669 34.492188 10.472656 C 34.442037 10.425106 34.430673 10.315327 34.369141 10.222656 C 34.298651 10.116426 34.160707 10.039081 34.082031 9.9355469 C 33.976704 9.7957959 33.759388 9.5945743 33.759766 9.4882812 C 33.761466 9.3662573 33.910396 9.3313645 33.9375 9.1640625 C 33.90635 9.0103705 33.621699 9.1139259 33.599609 8.9511719 C 33.611309 8.8498909 33.704168 8.831786 33.705078 8.71875 C 33.684288 8.70385 33.658338 8.6953419 33.617188 8.7011719 z M 37.197266 9.1289062 C 36.926428 9.2578062 36.735174 9.2206368 36.660156 9.4335938 C 36.565166 9.7030767 36.823564 9.9003659 36.785156 10.150391 C 36.744476 10.413069 36.20101 10.321368 35.960938 10.365234 C 35.781433 10.397724 35.716204 10.617664 35.568359 10.794922 C 35.465733 10.918361 35.271544 11.051614 35.119141 11.117188 C 35.044551 11.149308 34.95498 11.144653 34.886719 11.189453 C 34.785886 11.255923 34.751097 11.41486 34.636719 11.492188 C 34.554369 11.547768 34.241128 11.705227 34.154297 11.707031 C 34.052566 11.709331 33.95798 11.613689 33.884766 11.636719 C 33.777188 11.670619 33.791122 11.880927 33.669922 11.923828 C 33.432547 12.007958 33.035843 11.712851 32.953125 12.066406 C 33.054854 12.271216 33.314543 12.220949 33.492188 12.333984 C 33.603878 12.404474 33.837773 12.716094 33.867188 12.835938 C 33.892038 12.937216 33.85411 13.337739 33.8125 13.445312 C 33.701713 13.731046 33.443931 13.630782 33.115234 13.623047 C 33.025264 13.620747 32.930826 13.646525 32.847656 13.640625 C 32.293336 13.603155 31.736802 13.409967 31.486328 13.804688 C 31.506558 14.108534 31.570816 14.310129 31.503906 14.574219 C 31.454646 14.768176 31.280519 14.943125 31.289062 15.111328 C 31.293063 15.197698 31.393192 15.279338 31.414062 15.396484 C 31.424952 15.458864 31.385072 15.591925 31.414062 15.648438 C 31.504953 15.82473 31.754106 15.675382 31.916016 15.701172 C 32.074263 15.726972 32.25767 15.9536 32.255859 16.130859 C 32.254259 16.254298 32.134866 16.459182 32.056641 16.578125 C 31.900255 16.8155 31.690621 16.828429 31.466797 16.955078 C 31.280098 17.060857 31.201235 17.235856 31.091797 17.419922 C 30.973302 17.618825 30.900408 17.739299 30.949219 18.027344 C 30.789171 18.34474 30.546307 18.540414 30.214844 18.691406 C 30.116774 18.735756 29.982557 18.7513 29.892578 18.816406 C 29.821198 18.867976 29.779466 19.006712 29.677734 19.121094 C 29.552499 19.261296 29.421489 19.319104 29.355469 19.425781 C 29.304429 19.508941 29.286536 19.672417 29.230469 19.783203 C 29.154029 19.933295 28.989053 20.007751 28.888672 20.160156 C 28.842532 20.230646 28.814749 20.370664 28.763672 20.462891 C 28.650188 20.66905 28.457701 20.818696 28.478516 21 C 28.499236 21.175461 28.695427 21.206586 28.708984 21.359375 C 28.716884 21.445745 28.65265 21.497709 28.65625 21.591797 C 28.66235 21.729238 28.752821 21.825928 28.763672 21.931641 C 28.790802 22.197528 28.671261 22.304575 28.621094 22.486328 C 28.597104 22.573138 28.608558 22.670458 28.585938 22.738281 C 28.542037 22.871224 28.357139 22.991088 28.353516 23.148438 C 28.351216 23.260638 28.469009 23.350913 28.478516 23.507812 C 28.485516 23.615838 28.422416 23.728641 28.441406 23.828125 C 28.479406 24.023045 28.827077 24.250903 28.978516 24.402344 C 29.181079 24.604907 29.445924 24.761194 29.533203 24.974609 C 29.606903 25.155915 29.608961 25.394647 29.75 25.53125 C 29.854431 25.631568 30.026313 25.693888 30.160156 25.798828 C 30.28488 25.896068 30.421357 25.98196 30.554688 26.085938 C 30.772665 26.256453 31.101958 26.594564 31.449219 26.568359 C 31.630524 26.555239 31.815775 26.407701 32.021484 26.371094 C 32.233102 26.333604 32.507288 26.313878 32.720703 26.335938 C 32.884412 26.352708 33.0507 26.451507 33.220703 26.443359 C 33.400146 26.435559 33.608589 26.300015 33.8125 26.210938 C 34.165604 26.05725 34.693137 25.850321 35.208984 25.925781 C 35.601909 25.983181 35.581333 26.433155 35.853516 26.605469 C 36.169563 26.631699 36.427708 26.488866 36.677734 26.550781 C 36.866742 26.597441 37.089373 26.883497 37.107422 27.033203 C 37.125972 27.188626 37.022607 27.421756 37 27.517578 C 36.95066 27.726435 36.947636 27.974991 36.910156 28.107422 C 36.881166 28.210051 36.800923 28.276276 36.802734 28.378906 C 36.804934 28.473006 36.921305 28.701165 37.017578 28.824219 C 37.135173 28.97521 37.323899 29.092151 37.466797 29.255859 C 37.729025 29.555592 37.840178 29.917329 38.021484 30.3125 C 38.087504 30.455849 38.213667 30.679087 38.216797 30.830078 C 38.219097 30.941699 38.153662 31.039759 38.164062 31.152344 C 38.186633 31.392413 38.336021 31.49788 38.361328 31.708984 C 38.420128 32.206786 37.970232 32.354372 37.878906 32.763672 C 37.857316 32.861292 37.879355 32.963051 37.859375 33.050781 C 37.828595 33.183725 37.734307 33.282518 37.714844 33.408203 C 37.695394 33.536653 37.667457 33.779973 37.679688 33.910156 C 37.697798 34.10193 37.903137 34.278165 38.003906 34.447266 C 38.111094 34.627224 38.198082 34.930197 38.324219 35.162109 C 38.394259 35.290557 38.512113 35.398965 38.541016 35.503906 C 38.578486 35.639998 38.538714 35.821334 38.558594 35.986328 C 38.574394 36.12017 38.647892 36.236239 38.666016 36.34375 C 38.721596 36.673413 38.733475 37.002463 38.898438 37.277344 C 38.904552 37.287606 38.917039 37.296933 38.923828 37.306641 C 42.073098 33.774551 44 29.126285 44 24 C 44 21.812035 43.639699 19.71355 42.996094 17.746094 C 42.76062 17.696606 42.513159 17.540003 42.246094 17.509766 C 42.166504 17.500666 42.076094 17.525566 42.013672 17.509766 C 41.930952 17.488536 41.867117 17.39323 41.78125 17.365234 C 41.632442 17.316834 41.51735 17.3473 41.386719 17.3125 C 41.21036 17.001848 40.316597 16.980419 40.240234 17.4375 C 40.206254 17.639164 40.344717 17.922219 40.044922 17.957031 C 39.854557 17.979161 39.659315 17.763546 39.398438 17.707031 C 39.291761 17.683561 39.141764 17.699052 39.058594 17.669922 C 38.863287 17.602562 38.886891 17.41342 38.71875 17.294922 C 38.62107 17.226302 38.370998 17.131932 38.216797 17.115234 C 38.120977 17.104794 38.032921 17.144153 37.931641 17.132812 C 37.811347 17.119692 37.638835 17.034632 37.537109 16.972656 C 37.439939 16.913406 37.239699 16.823313 37.214844 16.738281 C 37.176844 16.6063 37.457289 16.457901 37.466797 16.345703 C 37.473797 16.261203 37.36066 16.206354 37.339844 16.076172 C 37.327614 15.997472 37.374305 15.915755 37.359375 15.863281 C 37.333135 15.771041 37.179336 15.668236 37.035156 15.666016 C 36.907604 15.663816 36.78672 15.769817 36.677734 15.773438 C 36.520382 15.778438 36.265169 15.685812 36.070312 15.701172 C 35.950919 15.710672 35.83975 15.782506 35.728516 15.791016 C 35.416516 15.815896 35.165247 15.777006 34.923828 15.791016 C 34.747984 15.801436 34.442939 15.858988 34.279297 15.933594 C 34.196137 15.971524 34.134469 16.057505 34.027344 16.111328 C 33.978984 16.135728 33.911814 16.137106 33.847656 16.166016 C 33.745924 16.212146 33.641646 16.321356 33.544922 16.345703 C 33.404722 16.381473 33.188718 16.318155 32.935547 16.328125 C 32.753791 16.335425 32.455844 16.333217 32.453125 16.111328 C 32.448625 15.77993 33.015227 15.90213 33.328125 15.84375 C 33.446106 15.82163 33.511305 15.712529 33.652344 15.628906 C 33.719784 15.588696 33.803858 15.582422 33.867188 15.539062 C 33.975659 15.464432 34.138432 15.285601 34.154297 15.199219 C 34.168317 15.119629 34.107748 15.008433 34.117188 14.949219 C 34.129488 14.873669 34.217281 14.793088 34.314453 14.697266 C 34.465443 14.548072 34.631055 14.347686 34.816406 14.25 C 34.943055 14.18308 35.115511 14.190693 35.173828 14.089844 C 35.186948 13.975011 35.15355 13.909116 35.15625 13.804688 C 35.23405 13.733678 35.288395 13.672202 35.353516 13.658203 C 35.546572 13.616583 35.736219 13.794661 35.960938 13.785156 C 36.058107 13.781256 36.143616 13.709882 36.248047 13.640625 C 36.335757 13.582275 36.429692 13.541843 36.515625 13.498047 C 36.610105 13.449237 36.707433 13.345051 36.822266 13.337891 C 37.103952 13.320231 37.211843 13.635073 37.339844 13.804688 C 37.44697 13.945725 37.755795 14.186122 37.931641 14.285156 C 38.030671 14.340736 38.162494 14.345235 38.271484 14.394531 C 38.50391 14.498957 38.961016 14.84635 38.96875 15.074219 C 38.97265 15.188151 38.863203 15.274026 38.880859 15.378906 C 39.056707 15.407826 39.253284 15.215421 39.257812 15.039062 C 39.260213 14.928728 39.146631 14.868197 39.167969 14.751953 C 39.250239 14.57476 39.489412 14.752045 39.595703 14.679688 C 39.575363 14.479434 39.30176 14.463352 39.130859 14.359375 C 39.038619 14.303325 38.976683 14.18195 38.880859 14.142578 C 38.74207 14.085648 38.594418 14.101213 38.486328 14.017578 C 38.385044 13.939328 38.334307 13.759567 38.234375 13.640625 C 38.089228 13.467474 37.772092 13.441454 37.859375 13.050781 C 37.902815 12.991981 38.006851 12.900926 38.074219 12.925781 C 38.207161 12.957901 38.190929 13.071908 38.289062 13.140625 C 38.360442 13.190335 38.460994 13.180249 38.541016 13.230469 C 38.635046 13.289719 38.684785 13.443675 38.791016 13.533203 C 38.941171 13.65934 39.20641 13.756656 39.417969 13.857422 C 39.616031 13.951522 39.933805 14.079099 39.972656 14.25 C 39.994336 14.34634 39.942408 14.453488 39.955078 14.537109 C 39.970878 14.643398 40.046518 14.751746 40.097656 14.822266 C 40.235991 15.013079 40.429625 15.1826 40.582031 15.414062 C 40.577531 15.728761 40.6937 15.923308 41.046875 15.880859 C 41.17436 15.812969 41.109078 15.71762 41.208984 15.611328 C 41.303004 15.511458 41.509909 15.524968 41.511719 15.378906 C 41.514019 15.154183 40.976295 15.118054 41.046875 14.787109 C 41.067655 14.68133 41.185271 14.733475 41.279297 14.734375 C 41.359672 14.641675 41.485313 14.539499 41.617188 14.5 C 40.770089 12.926593 39.707407 11.491667 38.486328 10.208984 C 38.462248 10.211717 38.438209 10.223332 38.414062 10.222656 C 38.28067 10.218656 38.143713 10.058687 37.931641 10.060547 C 37.822203 10.062147 37.739535 10.139581 37.626953 10.150391 C 37.485017 10.164401 37.259192 10.103752 37.269531 9.9902344 C 37.285411 9.8134894 37.524672 9.9594969 37.662109 9.9355469 C 37.834876 9.9052969 37.796532 9.7604373 37.914062 9.7382812 C 37.963797 9.7285808 38.01466 9.7521639 38.072266 9.7714844 C 37.982115 9.6823249 37.88285 9.6030602 37.791016 9.515625 C 37.689274 9.6116238 37.442712 9.6495573 37.304688 9.6484375 C 37.290228 9.4865935 37.327952 9.2215833 37.197266 9.1289062 z M 32.386719 9.8164062 C 32.313519 9.8233062 32.243388 9.8442994 32.183594 9.8808594 C 32.047505 9.9640194 32.001875 10.092607 31.896484 10.132812 C 31.751337 10.187503 31.650546 10.139935 31.628906 10.275391 C 31.611246 10.385728 31.7219 10.439439 31.71875 10.542969 C 31.66585 10.674564 31.510578 10.708426 31.484375 10.867188 C 31.66568 11.16326 32.102954 10.897458 32.328125 10.830078 C 32.42941 10.799818 32.57614 10.806407 32.630859 10.724609 C 32.693309 10.630059 32.637444 10.465115 32.683594 10.328125 C 32.735524 10.177582 32.882834 10.159685 32.865234 10.025391 C 32.847924 9.8921029 32.6062 9.7945352 32.386719 9.8164062 z M 10.447266 10.328125 C 10.782263 10.249875 10.647072 10.842415 10.447266 10.849609 C 10.16873 10.859609 10.222934 10.380535 10.447266 10.328125 z M 12.703125 11.90625 C 12.865423 11.94879 13.292312 12.416404 12.935547 12.568359 C 12.901717 12.582819 12.410752 12.635554 12.326172 12.621094 C 12.202343 12.599864 12.131094 12.428471 12.005859 12.40625 C 11.758532 12.36287 11.423457 12.704157 11.253906 12.423828 C 11.296826 12.26468 11.475118 12.260555 11.664062 12.208984 C 11.999572 12.117644 12.412837 11.830274 12.703125 11.90625 z M 13.384766 12.763672 C 13.468376 12.770572 13.568635 12.863363 13.669922 12.871094 C 13.765742 12.878094 13.845531 12.820588 13.904297 12.835938 C 14.053947 12.875277 14.115251 13.102104 13.974609 13.212891 C 13.857525 13.227351 13.81279 13.162304 13.724609 13.177734 C 13.48139 13.219324 13.386835 13.693536 13.205078 13.677734 C 13.033663 13.662824 12.941188 13.247383 13.115234 13.123047 C 13.122134 13.014509 13.037479 12.995864 13.042969 12.888672 C 13.095429 12.821752 13.24193 12.751467 13.384766 12.763672 z M 12.578125 12.820312 C 12.628015 12.822612 12.666998 12.831696 12.685547 12.853516 C 12.661567 13.044332 12.51068 13.033967 12.363281 13.123047 C 12.108696 13.276734 11.961845 13.511598 11.880859 13.839844 C 11.857349 13.936184 11.607518 14.185463 11.486328 14.160156 C 11.202398 14.100426 11.564208 13.57762 11.628906 13.498047 C 11.700296 13.409887 11.796339 13.332198 11.880859 13.230469 C 11.962679 13.131819 12.014626 12.998079 12.09375 12.943359 C 12.18021 12.884049 12.428524 12.814673 12.578125 12.820312 z M 14.697266 13.464844 C 14.788116 13.467144 14.866978 13.479275 14.904297 13.515625 C 14.845947 13.752095 14.338664 13.690906 14.152344 13.605469 C 14.164574 13.516859 14.30473 13.492285 14.421875 13.480469 C 14.504865 13.472569 14.606382 13.462984 14.697266 13.464844 z M 13.537109 13.900391 C 13.598239 13.898091 13.660972 13.905134 13.724609 13.927734 C 13.559617 14.065624 13.380692 14.142895 13.097656 14.232422 C 12.961562 14.275422 12.726184 14.329684 12.703125 14.177734 C 12.674655 13.991483 12.901052 14.034277 13.025391 14.017578 C 13.181746 13.996558 13.353839 13.90629 13.537109 13.900391 z M 36.869141 13.900391 C 36.753039 13.938511 36.697906 14.183633 36.875 14.214844 C 36.95726 14.165514 37.020361 14.09871 37 13.947266 C 36.95459 13.898106 36.909802 13.887731 36.871094 13.900391 L 36.869141 13.900391 z M 36.824219 14.400391 C 36.766829 14.416001 36.704074 14.455292 36.642578 14.519531 C 36.647078 14.719396 36.66434 14.84782 36.625 15.021484 C 36.740348 15.242091 36.993911 15.04286 37.052734 14.894531 C 37.121884 14.521858 36.996248 14.353481 36.824219 14.400391 z M 38.351562 15.386719 C 38.192192 15.380319 38.042598 15.39364 37.949219 15.46875 C 38.080365 15.683516 38.354995 15.755734 38.648438 15.808594 C 38.75421 15.729454 38.760237 15.550988 38.808594 15.414062 C 38.679953 15.416362 38.510936 15.392769 38.351562 15.386719 z M 13.867188 24.689453 C 14.03898 24.610313 14.081041 24.933979 13.939453 24.957031 C 13.805611 24.978261 13.737351 24.749563 13.867188 24.689453 z "
     id="path34" />
</svg>
