<?xml version="1.0" encoding="UTF-8" standalone="no"?>
<!-- Created with Inkscape (http://www.inkscape.org/) -->

<svg
   xmlns:dc="http://purl.org/dc/elements/1.1/"
   xmlns:cc="http://creativecommons.org/ns#"
   xmlns:rdf="http://www.w3.org/1999/02/22-rdf-syntax-ns#"
   xmlns:svg="http://www.w3.org/2000/svg"
   xmlns="http://www.w3.org/2000/svg"
   xmlns:sodipodi="http://sodipodi.sourceforge.net/DTD/sodipodi-0.dtd"
   xmlns:inkscape="http://www.inkscape.org/namespaces/inkscape"
   width="48"
   height="48"
   id="svg2"
   version="1.1"
   inkscape:version="0.48+devel r12351"
   sodipodi:docname="applications-system.svg">
  <defs
     id="defs4" />
  <sodipodi:namedview
     id="base"
     pagecolor="#ffffff"
     bordercolor="#666666"
     borderopacity="1.0"
     inkscape:pageopacity="0.0"
     inkscape:pageshadow="2"
     inkscape:zoom="4"
     inkscape:cx="21.906741"
     inkscape:cy="19.036033"
     inkscape:document-units="px"
     inkscape:current-layer="layer1"
     showgrid="false"
     fit-margin-top="0"
     fit-margin-left="0"
     fit-margin-right="0"
     fit-margin-bottom="0"
     inkscape:window-width="1366"
     inkscape:window-height="714"
     inkscape:window-x="0"
     inkscape:window-y="30"
     inkscape:window-maximized="1" />
  <metadata
     id="metadata7">
    <rdf:RDF>
      <cc:Work
         rdf:about="">
        <dc:format>image/svg+xml</dc:format>
        <dc:type
           rdf:resource="http://purl.org/dc/dcmitype/StillImage" />
        <dc:title></dc:title>
      </cc:Work>
    </rdf:RDF>
  </metadata>
  <g
     inkscape:label="Capa 1"
     inkscape:groupmode="layer"
     id="layer1"
     transform="translate(-180.23661,-689.8125)">
    <path
       style="fill:#c4cbcf;fill-opacity:1;stroke:none"
       d="m 220.0117,691.69593 c -0.95805,-0.35838 -1.99011,-0.52821 -3.0732,-0.5282 -4.85316,0 -8.78741,3.93425 -8.78741,8.78741 -1e-5,0.58068 0.0606,1.15545 0.16805,1.70467 l -12.77296,12.77295 c -1.08009,-0.35855 -2.23655,-0.55222 -3.43333,-0.55221 -6.00678,-10e-6 -10.87624,4.86945 -10.87624,10.87623 0,1.66806 0.40933,3.22107 1.08042,4.63379 l 6.43451,-6.43449 5.162,5.16201 -6.4345,6.43449 c 1.41273,0.67111 2.96574,1.08042 4.6338,1.08042 6.00678,0 10.87623,-4.86945 10.87622,-10.87622 0,-1.20546 -0.1933,-2.35115 -0.5522,-3.43333 l 12.77296,-12.77297 c 0.55762,0.11096 1.13841,0.19208 1.72867,0.19207 4.85315,0 8.78741,-3.93425 8.78741,-8.78741 0,-1.0831 -0.19382,-2.13917 -0.55222,-3.0972 l -3.64941,3.64941 -5.16201,-5.162 L 220.0117,691.69593 z m -10.92425,12.17273 c 0.0445,0.0892 0.0726,0.17674 0.12001,0.26414 C 209.16079,704.04701 209.13135,703.95611 209.08745,703.86866 z m 0.74428,1.22448 c 0.0279,0.0386 0.0435,0.082 0.072,0.12003 C 209.87579,705.17596 209.85913,705.1308 209.83173,705.09314 z m -12.77295,9.98787 c -0.23002,-0.11727 -0.48122,-0.23497 -0.72029,-0.33612 C 196.58467,714.84905 196.8223,714.95953 197.05878,715.08101 z m 4.77787,4.82587 c 0.10333,0.20597 0.19762,0.41116 0.2881,0.62423 C 202.03559,720.31908 201.93866,720.1118 201.83663,719.90689 Z"
       id="path970"
       inkscape:connector-curvature="0" />
    <path
       style="fill:#a8b2b8;fill-opacity:1;stroke:none"
       d="m 220.00634,691.71147 c -0.95803,-0.35838 -1.99317,-0.52873 -3.07625,-0.52873 -4.85316,0 -8.77215,3.91899 -8.77215,8.77215 -2e-5,0.58068 0.0608,1.15716 0.16823,1.70636 l -12.78571,12.78571 c -1.0801,-0.35854 -2.23998,-0.55277 -3.43676,-0.55276 -3.00339,0 -5.72245,1.20418 -7.69066,3.1724 -1.96821,1.96821 -3.17239,4.68726 -3.17239,7.69065 0,1.66806 0.4104,3.2257 1.08149,4.63842 l 6.44093,-6.44092 2.57156,2.57156 27.61425,-27.61425 -2.57156,-2.57156 L 220.00634,691.71147 Z"
       id="rect997"
       inkscape:connector-curvature="0" />
    <path
       style="fill:#c4cbcf;fill-opacity:1;stroke:none"
       d="m 187.77005,697.91562 1.58001,4.81714 3.27565,1.81124 7.16789,7.1679 -0.69366,0.69366 -0.34684,3.66102 c 1.56963,0.2879 3.06772,0.98672 4.27761,2.19661 2.22414,2.22414 2.85687,5.40883 1.9654,8.20839 l 0.19268,0.19268 3.19857,3.19857 c 0.031,0.031 0.0796,0.0168 0.11559,0.0385 0.12957,0.1587 0.23726,0.31432 0.38538,0.46245 l 4.31615,4.31613 c 2.3698,2.3698 6.18542,2.36981 8.55522,1e-5 l 3.69956,-3.69956 c 2.3698,-2.36981 2.3698,-6.18543 0,-8.55523 l -4.31614,-4.31615 c -0.14813,-0.14813 -0.30377,-0.25576 -0.46244,-0.38537 -0.022,-0.0359 -0.008,-0.0847 -0.0388,-0.11551 l -3.39125,-3.39127 c -0.34989,0.11143 -0.68122,0.20697 -1.04048,0.2698 -2.51548,0.4457 -5.22179,-0.28904 -7.16789,-2.23515 -1.22135,-1.22135 -1.95328,-2.73038 -2.23517,-4.31616 l -3.4298,0.19269 -0.88634,0.88634 -7.16789,-7.16789 -1.69564,-3.39125 -4.93274,-1.46442 L 187.77005,697.91562 z m 23.08368,26.70618 c 0.50172,-0.50172 1.30954,-0.46315 1.81124,0.0385 l 6.24301,6.24299 c 0.50172,0.5017 0.50171,1.271 1e-5,1.77271 -0.50172,0.50171 -1.30955,0.54023 -1.81125,0.0385 l -6.24301,-6.24301 C 210.35202,725.96986 210.35203,725.1235 210.85373,724.6218 z m 4.54737,-4.54738 c 0.50172,-0.50171 1.34806,-0.50171 1.84977,0 l 6.24301,6.24301 c 0.5017,0.5017 0.46316,1.30954 -0.0385,1.81125 -0.5017,0.5017 -1.27101,0.5017 -1.77269,-10e-6 l -6.24302,-6.24301 C 214.93793,721.38395 214.8994,720.57613 215.4011,720.07442 Z"
       id="rect888"
       inkscape:connector-curvature="0" />
    <path
       style="fill:#ffed57;fill-opacity:1;stroke:none"
       d="m 206.79907,707.92928 -3.43281,0.20393 -0.88369,0.88369 -0.10191,-0.10191 -2.68507,2.68507 0.10191,0.10191 -0.71375,0.71375 -0.33988,3.63674 c 1.56963,0.2879 3.07262,0.99934 4.28251,2.20923 2.22414,2.22414 2.86279,5.42559 1.97132,8.22515 l 0.20392,0.16994 3.1949,3.19489 c 0.031,0.031 0.066,0.0123 0.10191,0.0339 0.12957,0.1587 0.22574,0.32772 0.37387,0.47584 l 4.3165,4.3165 c 2.3698,2.3698 6.19523,2.3698 8.56503,0 l 3.70471,-3.70471 c 2.3698,-2.36981 2.3698,-6.19523 0,-8.56503 l -4.3165,-4.28252 c -0.14812,-0.14812 -0.31716,-0.27824 -0.47583,-0.40785 -0.022,-0.0359 -0.003,-0.0711 -0.0339,-0.10191 l -3.36483,-3.39883 c -0.34989,0.11143 -0.69437,0.20908 -1.05364,0.27191 -2.51547,0.4457 -5.2254,-0.29711 -7.17151,-2.24322 C 207.82095,711.02443 207.08096,709.51505 206.79907,707.92928 z m 9.5167,11.75992 c 0.33701,0 0.70081,0.12302 0.95167,0.37387 l 6.21984,6.25383 c 0.5017,0.5017 0.46767,1.29966 -0.0339,1.80137 -0.5017,0.5017 -1.2657,0.50171 -1.76739,0 l -6.25383,-6.21984 c -0.50174,-0.50171 -0.53569,-1.33365 -0.0339,-1.83536 C 215.64895,719.81222 215.97876,719.6892 216.31577,719.6892 z m -4.55442,4.5884 c 0.32738,0.01 0.66683,0.12305 0.91768,0.37387 l 6.21984,6.25383 c 0.50172,0.5017 0.5017,1.26568 0,1.76739 -0.50172,0.50171 -1.29967,0.53572 -1.80137,0.0339 l -6.25383,-6.21985 c -0.50171,-0.50164 -0.5017,-1.36765 0,-1.86935 C 211.09453,724.36663 211.43396,724.26797 211.76135,724.2776 Z"
       id="path937"
       inkscape:connector-curvature="0" />
    <path
       style="fill:#ffdf07;fill-opacity:1;stroke:none"
       d="m 201.32697,709.96857 -1.63143,1.63143 0.10191,0.10191 -0.71376,0.71376 -0.33988,3.63673 c 1.56964,0.28791 3.07262,0.99934 4.28252,2.20924 2.22414,2.22413 2.86278,5.42558 1.97131,8.22514 l 0.20393,0.16994 3.19489,3.1949 c 0.031,0.031 0.066,0.0123 0.10191,0.0339 0.12957,0.15869 0.22575,0.32771 0.37387,0.47583 l 4.31651,4.31651 c 2.36979,2.3698 6.19522,2.3698 8.56502,0 l 2.37918,-2.37918 C 215.22736,723.38591 201.51165,710.14666 201.32697,709.96857 z m 10.43438,14.30903 c 0.32738,0.01 0.66683,0.12305 0.91768,0.37387 l 6.21984,6.25383 c 0.50172,0.5017 0.5017,1.26568 0,1.76739 -0.50172,0.50171 -1.29967,0.53572 -1.80137,0.0339 l -6.25383,-6.21985 c -0.50171,-0.50164 -0.5017,-1.36765 0,-1.86935 C 211.09453,724.36663 211.43396,724.26797 211.76135,724.2776 Z"
       id="path942"
       inkscape:connector-curvature="0" />
    <path
       style="fill:#a8b2b8;fill-opacity:1;stroke:none"
       d="m 188.37746,697.29097 -0.61179,0.61178 1.59745,4.82633 3.26287,1.80138 7.06955,7.06954 1.49548,-1.49548 L 188.37746,697.29097 Z"
       id="path947"
       inkscape:connector-curvature="0" />
  </g>
</svg>
