<?xml version="1.0" standalone="no"?>
<!DOCTYPE svg PUBLIC "-//W3C//DTD SVG 20010904//EN" "http://www.w3.org/TR/2001/REC-SVG-20010904/DTD/svg10.dtd">
<!-- Created using Karbon, part of Calligra: http://www.calligra.org/karbon -->
<svg xmlns="http://www.w3.org/2000/svg" xmlns:xlink="http://www.w3.org/1999/xlink" width="38.4pt" height="38.4pt">
<defs/>
<g id="layer1">
  <path id="path970" transform="translate(1.58599, 1.30061)" fill="#c4cbcf" d="M33.6687 0.472888C32.837 0.152037 31.9408 -8.95243e-06 31.0003 3.9535e-10C26.7863 3.9535e-10 23.3701 3.52226 23.3701 7.86722C23.3701 8.38708 23.4227 8.90167 23.516 9.39338L12.4252 20.8288C11.4872 20.5078 10.4831 20.3344 9.44395 20.3344C4.2282 20.3344 0 24.6939 0 30.0717C0 31.565 0.355426 32.9555 0.93814 34.2202L6.52529 28.4596L11.0075 33.0811L5.42036 38.8417C6.64705 39.4425 7.99555 39.8089 9.44394 39.8089C14.6596 39.8089 18.8879 35.4494 18.8879 30.0717C18.8879 28.9925 18.7201 27.9667 18.4083 26.9979L29.4993 15.5625C29.9834 15.6618 30.4878 15.7344 31.0003 15.7344C35.2143 15.7344 38.6305 12.2121 38.6305 7.86722C38.6305 6.89753 38.4623 5.95206 38.151 5.09434L34.9822 8.3616L30.5 3.74016ZM24.1831 11.371C24.2218 11.4508 24.2463 11.5292 24.2873 11.6074C24.2468 11.5306 24.2213 11.4492 24.1831 11.371ZM24.8294 12.4671C24.8537 12.5017 24.8672 12.5406 24.8919 12.5747C24.8677 12.5413 24.8532 12.5009 24.8294 12.4671ZM13.7385 21.4092C13.5388 21.3041 13.3207 21.1987 13.1131 21.1083C13.3269 21.2015 13.5332 21.3005 13.7385 21.4092ZM17.8872 25.7296C17.977 25.9141 18.0588 26.0977 18.1373 26.2885C18.06 26.0987 17.9758 25.9131 17.8872 25.7296Z"/>
  <path id="rect997" transform="translate(1.58951, 1.31387)" fill="#a8b2b8" d="M33.6755 0.467069C32.8432 0.150483 31.9439 0 31.0031 0C26.7871 0 23.3829 3.46196 23.3829 7.74915C23.3829 8.26212 23.4357 8.77137 23.529 9.25652L12.4222 20.5513C11.4839 20.2345 10.4763 20.0628 9.43663 20.0628C6.82762 20.0628 4.46558 21.1267 2.75583 22.8654C1.04606 24.604 0 27.0059 0 29.6591C0 31.1327 0.356511 32.5086 0.939481 33.7566L6.53466 28.0667L8.76855 30.3385L32.7568 5.94456L30.523 3.67288Z"/>
  <path id="ellipse3292" transform="matrix(1 0 0 1 25.3277 23.8981)" fill="#bdc3c7" d="M10.1099 1.69574e-08C7.46189 0.000156983 4.83141 1.09074 2.9604 2.96303C1.08938 4.83532 0 7.46624 0 10.1138C0 12.7614 1.08938 15.3923 2.9604 17.2646C4.83141 19.1369 7.46189 20.2275 10.1099 20.2276C12.7578 20.2278 15.3899 19.1382 17.2633 17.2659C19.1367 15.3937 20.2276 12.7617 20.2276 10.1138C20.2276 7.46594 19.1367 4.83402 17.2633 2.96171C15.3899 1.08942 12.7578 -0.00015695 10.1099 1.69574e-08ZM10.1112 4.04553C11.7 4.04543 13.2789 4.69997 14.403 5.82335C15.527 6.94673 16.1821 8.52511 16.1821 10.1138C16.1821 11.7025 15.527 13.2809 14.403 14.4043C13.2789 15.5277 11.7 16.1822 10.1112 16.1821C8.52241 16.182 6.94332 15.5277 5.82071 14.4043C4.6981 13.2809 4.04553 11.7024 4.04553 10.1138C4.04553 8.52527 4.6981 6.94672 5.82071 5.82335C6.94332 4.69998 8.52241 4.04562 10.1112 4.04553Z"/>
  <rect id="rect3307" transform="matrix(1 0 0 1 33.0816 23.8982)" fill="#bdc3c7" fill-rule="evenodd" width="3.77582533810pt" height="1.07880777886pt"/>
  <path id="rect3313" transform="matrix(1 0.00624747 2.44929e-16 1 33.0816 21.3012)" fill="#bdc3c7" fill-rule="evenodd" d="M1.35463 0L3.38658 0L4.74121 2.61176L0 2.61176Z"/>
  <rect id="rect3328" transform="matrix(1 0 0 -1 33.0816 44.126)" fill="#bdc3c7" fill-rule="evenodd" width="3.77582533810pt" height="1.07880777886pt"/>
  <path id="path3330" transform="matrix(1 0 0 1 33.0816 44.126)" fill="#bdc3c7" fill-rule="evenodd" d="M1.35029 2.60339L3.37573 2.60339L4.72602 0L0 0Z"/>
  <rect id="rect3332" transform="matrix(0.5 0.866025 -0.866025 0.5 43.0203 26.9114)" fill="#bdc3c7" fill-rule="evenodd" width="3.77582533810pt" height="1.07880777886pt"/>
  <path id="path3334" transform="matrix(0.999701 0.0244444 -0.0244444 0.999701 43.0177 26.9332)" fill="#bdc3c7" fill-rule="evenodd" d="M2.5081 0.154041L3.5538 1.87716L2.43999 4.02061L0 0Z"/>
  <rect id="rect3336" transform="matrix(0.5 0.866025 0.866025 -0.5 25.5026 37.0253)" fill="#bdc3c7" fill-rule="evenodd" width="3.77582533810pt" height="1.07880777886pt"/>
  <path id="path3338" transform="matrix(0.999811 0.0194568 -0.0194568 0.999811 24.3918 36.9914)" fill="#bdc3c7" fill-rule="evenodd" d="M0 2.15669L1.05217 3.89047L3.57577 4.04547L1.1207 0Z"/>
  <rect id="rect3340" transform="matrix(-0.5 0.866025 -0.866025 -0.5 45.3802 37.0253)" fill="#bdc3c7" fill-rule="evenodd" width="3.77582533810pt" height="1.07880777886pt"/>
  <path id="path3342" transform="matrix(0.999598 -0.028347 0.028347 0.999598 42.8979 37.0777)" fill="#bdc3c7" fill-rule="evenodd" d="M3.56735 2.15161L2.51766 3.88131L0 4.03594L2.44928 0Z"/>
  <rect id="rect3344" transform="matrix(-0.5 0.866025 0.866025 0.5 27.8625 26.9114)" fill="#bdc3c7" fill-rule="evenodd" width="3.77582533810pt" height="1.07880777886pt"/>
  <path id="path3346" transform="matrix(0.999877 -0.0156922 0.0156922 0.999877 24.363 26.9793)" fill="#bdc3c7" fill-rule="evenodd" d="M1.04191 0.153489L0 1.87036L1.10978 4.00602L3.54091 0Z"/>
  <path id="ellipse3350" transform="matrix(0.5 -0.866025 -0.866025 -0.5 27.5128 30.2138)" fill="none" d="M1.34944 0.674275C1.34944 0.301883 1.04736 2.28024e-17 0.674722 0C0.302083 -2.28024e-17 4.56351e-17 0.301883 0 0.674275C-4.56351e-17 1.04667 0.302083 1.34855 0.674722 1.34855C1.04736 1.34855 1.34944 1.04667 1.34944 0.674275"/>
 </g>
</svg>
