<?xml version="1.0" encoding="UTF-8" standalone="no"?>
<svg
   xmlns:dc="http://purl.org/dc/elements/1.1/"
   xmlns:cc="http://creativecommons.org/ns#"
   xmlns:rdf="http://www.w3.org/1999/02/22-rdf-syntax-ns#"
   xmlns:svg="http://www.w3.org/2000/svg"
   xmlns="http://www.w3.org/2000/svg"
   xmlns:sodipodi="http://sodipodi.sourceforge.net/DTD/sodipodi-0.dtd"
   xmlns:inkscape="http://www.inkscape.org/namespaces/inkscape"
   width="22"
   viewBox="0 0 22 22"
   height="22"
   id="svg2"
   version="1.1"
   inkscape:version="0.91+devel r"
   sodipodi:docname="network-wired.svg">
  <metadata
     id="metadata20">
    <rdf:RDF>
      <cc:Work
         rdf:about="">
        <dc:format>image/svg+xml</dc:format>
        <dc:type
           rdf:resource="http://purl.org/dc/dcmitype/StillImage" />
        <dc:title></dc:title>
      </cc:Work>
    </rdf:RDF>
  </metadata>
  <defs
     id="defs18" />
  <sodipodi:namedview
     pagecolor="#ffffff"
     bordercolor="#666666"
     borderopacity="1"
     objecttolerance="10"
     gridtolerance="10000"
     guidetolerance="10"
     inkscape:pageopacity="0"
     inkscape:pageshadow="2"
     inkscape:window-width="1366"
     inkscape:window-height="670"
     id="namedview16"
     showgrid="true"
     inkscape:showpageshadow="false"
     borderlayer="true"
     inkscape:zoom="15.170655"
     inkscape:cx="8.6898391"
     inkscape:cy="11.662214"
     inkscape:window-x="-4"
     inkscape:window-y="29"
     inkscape:window-maximized="1"
     inkscape:current-layer="svg2"
     fit-margin-top="0"
     fit-margin-left="0"
     fit-margin-right="0"
     fit-margin-bottom="0">
    <inkscape:grid
       type="xygrid"
       id="grid4149"
       originx="0"
       originy="0"
       empspacing="2" />
    <sodipodi:guide
       position="-1,23"
       orientation="22,0"
       id="guide4155" />
    <sodipodi:guide
       position="23,-1"
       orientation="0,22"
       id="guide4157" />
    <sodipodi:guide
       position="23,-1"
       orientation="-22,0"
       id="guide4159" />
    <sodipodi:guide
       position="-1,23"
       orientation="0,-22"
       id="guide4161" />
    <sodipodi:guide
       position="3,19"
       orientation="16,0"
       id="guide4163" />
    <sodipodi:guide
       position="3,3"
       orientation="0,16"
       id="guide4165" />
    <sodipodi:guide
       position="19,3"
       orientation="-16,0"
       id="guide4167" />
    <sodipodi:guide
       position="19,19"
       orientation="0,-16"
       id="guide4169" />
  </sodipodi:namedview>
  <path
     style="opacity:1;fill:#304050;fill-opacity:1;stroke:none;stroke-width:1;stroke-linecap:round;stroke-linejoin:miter;stroke-miterlimit:4;stroke-dasharray:none;stroke-opacity:0.29943501"
     d="M 1,3 1,16 8.6660156,16 8,18 c -2,0 -2,1 -2,1 l 3,0 2.46875,0 L 14,19 c 0,0 0,-1 -2,-1 L 11.333984,16 17,16 17,15 17,14 3,14 3,5 15,5 15,4 15,3 1,3 Z m 17,0 0,1 1,0 0,-1 -1,0 z m 1,1 0,2 -1,0 0,-2 -2,0 0,5 1,0 0,1 1,0 0,1 0,4 0,1 c 0,0.554 -0.446,1 -1,1 l -1,0 -1,0 0,1 2,0 c 1.108,0 2,-0.892 2,-2 l 0,-6 1,0 0,-1 1,0 0,-5 -2,0 z"
     id="rect4194"
     inkscape:connector-curvature="0" />
  <rect
     style="color:#000000;clip-rule:nonzero;display:inline;overflow:visible;visibility:visible;opacity:1;isolation:auto;mix-blend-mode:normal;color-interpolation:sRGB;color-interpolation-filters:linearRGB;solid-color:#000000;solid-opacity:1;fill:#304050;fill-opacity:1;fill-rule:nonzero;stroke:none;stroke-width:1;stroke-linecap:butt;stroke-linejoin:miter;stroke-miterlimit:4;stroke-dasharray:none;stroke-dashoffset:0;stroke-opacity:1;color-rendering:auto;image-rendering:auto;shape-rendering:auto;text-rendering:auto;enable-background:accumulate"
     id="rect4147-8"
     width="2"
     height="2"
     x="-3"
     y="-1" />
</svg>
