<?xml version="1.0" encoding="UTF-8" standalone="no"?>
<svg
   xmlns:dc="http://purl.org/dc/elements/1.1/"
   xmlns:cc="http://creativecommons.org/ns#"
   xmlns:rdf="http://www.w3.org/1999/02/22-rdf-syntax-ns#"
   xmlns:svg="http://www.w3.org/2000/svg"
   xmlns="http://www.w3.org/2000/svg"
   xmlns:sodipodi="http://sodipodi.sourceforge.net/DTD/sodipodi-0.dtd"
   xmlns:inkscape="http://www.inkscape.org/namespaces/inkscape"
   width="22"
   viewBox="0 0 22 22"
   height="22"
   id="svg2"
   version="1.1"
   inkscape:version="0.91+devel r"
   sodipodi:docname="system-devices-panel-information.svg">
  <metadata
     id="metadata20">
    <rdf:RDF>
      <cc:Work
         rdf:about="">
        <dc:format>image/svg+xml</dc:format>
        <dc:type
           rdf:resource="http://purl.org/dc/dcmitype/StillImage" />
        <dc:title />
      </cc:Work>
    </rdf:RDF>
  </metadata>
  <defs
     id="defs18" />
  <sodipodi:namedview
     pagecolor="#ffffff"
     bordercolor="#666666"
     borderopacity="1"
     objecttolerance="10"
     gridtolerance="10000"
     guidetolerance="10"
     inkscape:pageopacity="0"
     inkscape:pageshadow="2"
     inkscape:window-width="2560"
     inkscape:window-height="957"
     id="namedview16"
     showgrid="true"
     inkscape:showpageshadow="false"
     borderlayer="true"
     inkscape:zoom="10.727273"
     inkscape:cx="-20.60583"
     inkscape:cy="4.6685025"
     inkscape:window-x="-4"
     inkscape:window-y="29"
     inkscape:window-maximized="1"
     inkscape:current-layer="svg2"
     fit-margin-top="0"
     fit-margin-left="0"
     fit-margin-right="0"
     fit-margin-bottom="0">
    <inkscape:grid
       type="xygrid"
       id="grid4149"
       originx="0"
       originy="0"
       empspacing="2" />
    <sodipodi:guide
       position="-1,23"
       orientation="22,0"
       id="guide4155" />
    <sodipodi:guide
       position="23,-1"
       orientation="0,22"
       id="guide4157" />
    <sodipodi:guide
       position="23,-1"
       orientation="-22,0"
       id="guide4159" />
    <sodipodi:guide
       position="-1,23"
       orientation="0,-22"
       id="guide4161" />
    <sodipodi:guide
       position="3,19"
       orientation="16,0"
       id="guide4163" />
    <sodipodi:guide
       position="3,3"
       orientation="0,16"
       id="guide4165" />
    <sodipodi:guide
       position="19,3"
       orientation="-16,0"
       id="guide4167" />
    <sodipodi:guide
       position="19,19"
       orientation="0,-16"
       id="guide4169" />
  </sodipodi:namedview>
  <rect
     style="color:#000000;clip-rule:nonzero;display:inline;overflow:visible;visibility:visible;opacity:1;isolation:auto;mix-blend-mode:normal;color-interpolation:sRGB;color-interpolation-filters:linearRGB;solid-color:#000000;solid-opacity:1;fill:#24b8e3;fill-opacity:1;fill-rule:nonzero;stroke:none;stroke-width:1;stroke-linecap:butt;stroke-linejoin:miter;stroke-miterlimit:4;stroke-dasharray:none;stroke-dashoffset:0;stroke-opacity:1;color-rendering:auto;image-rendering:auto;shape-rendering:auto;text-rendering:auto;enable-background:accumulate"
     id="rect4147-8"
     width="2"
     height="2"
     x="-3"
     y="-1" />
  <path
     style="opacity:1;fill:#24b8e3;fill-opacity:1;stroke:none;stroke-width:3.56737041px;stroke-linecap:butt;stroke-linejoin:miter;stroke-miterlimit:4;stroke-dasharray:none;stroke-dashoffset:0;stroke-opacity:1"
     d="M 11 3 A 8 8 0 0 0 3 11 A 8 8 0 0 0 11 19 L 11 17 A 6 6 0 0 1 5 11 A 6 6 0 0 1 11 5 A 6 6 0 0 1 17 11 L 19 11 A 8 8 0 0 0 11 3 z M 11 7 C 10.446 7 10 7.446 10 8 L 10 14 C 10 14.554 10.446 15 11 15 C 11.554 15 12 14.554 12 14 L 12 8 C 12 7.446 11.554 7 11 7 z M 16 11 L 13 16 L 15 16 L 15 19 L 18 14 L 16 14 L 16 11 z "
     id="path4148" />
</svg>
