<?xml version="1.0" encoding="UTF-8" standalone="no"?>
<!-- Generator: Adobe Illustrator 14.0.0, SVG Export Plug-In . SVG Version: 6.00 Build 43363)  -->

<svg
   xmlns:dc="http://purl.org/dc/elements/1.1/"
   xmlns:cc="http://creativecommons.org/ns#"
   xmlns:rdf="http://www.w3.org/1999/02/22-rdf-syntax-ns#"
   xmlns:svg="http://www.w3.org/2000/svg"
   xmlns="http://www.w3.org/2000/svg"
   xmlns:sodipodi="http://sodipodi.sourceforge.net/DTD/sodipodi-0.dtd"
   xmlns:inkscape="http://www.inkscape.org/namespaces/inkscape"
   id="Layer_1"
   enable-background="new 0 0 22 22"
   xml:space="preserve"
   height="48"
   viewBox="0 0 48 48"
   width="48"
   version="1.1"
   y="0px"
   x="0px"
   inkscape:version="0.48+devel r12788"
   sodipodi:docname="bitcoin.svg"><defs
   id="defs12" /><sodipodi:namedview
   pagecolor="#ffffff"
   bordercolor="#666666"
   borderopacity="1"
   objecttolerance="10"
   gridtolerance="10"
   guidetolerance="10"
   inkscape:pageopacity="0"
   inkscape:pageshadow="2"
   inkscape:window-width="1366"
   inkscape:window-height="714"
   id="namedview10"
   showgrid="false"
   inkscape:zoom="2"
   inkscape:cx="0.12089172"
   inkscape:cy="7.0662962"
   inkscape:window-x="0"
   inkscape:window-y="30"
   inkscape:window-maximized="1"
   inkscape:current-layer="Layer_1"><sodipodi:guide
     position="9,39"
     orientation="30,0"
     id="guide3263" /><sodipodi:guide
     position="9,9"
     orientation="0,30"
     id="guide3265" /><sodipodi:guide
     position="39,9"
     orientation="-30,0"
     id="guide3267" /><sodipodi:guide
     position="39,39"
     orientation="0,-30"
     id="guide3269" /></sodipodi:namedview><metadata
   id="metadata13"><rdf:RDF><cc:Work
       rdf:about=""><dc:format>image/svg+xml</dc:format><dc:type
         rdf:resource="http://purl.org/dc/dcmitype/StillImage" /><dc:title /></cc:Work></rdf:RDF></metadata>


<rect
   style="fill:none;fill-opacity:1;fill-rule:evenodd;stroke:none"
   id="rect3259"
   width="30"
   height="30"
   x="9"
   y="9" /><ellipse
   id="path3273"
   style="fill:none;fill-opacity:1;fill-rule:evenodd;stroke:none"
   cx="24"
   cy="37"
   rx="2"
   ry="2.0000615" /><rect
   style="fill:#4d4d4d;fill-opacity:1;fill-rule:evenodd;stroke:none"
   id="rect3278"
   width="4"
   height="2.0000024"
   x="13.002771"
   y="32.999996" /><rect
   ry="0"
   y="9.6151829"
   x="88.095741"
   height="30"
   width="30"
   id="rect4165"
   style="fill:none;stroke:none" /><rect
   style="fill:none;stroke:none"
   id="rect4153"
   width="18"
   height="18"
   x="94.095741"
   y="15.615183"
   ry="0" /><ellipse
   style="fill:none;fill-opacity:1;fill-rule:evenodd;stroke:none"
   id="path3296"
   cx="11"
   cy="37"
   rx="2"
   ry="2.0000615" /><ellipse
   style="fill:none;fill-opacity:1;fill-rule:evenodd;stroke:none"
   id="path3298"
   cx="24"
   cy="11.000061"
   rx="2"
   ry="2.0000615" /><rect
   y="12.999922"
   x="17.002771"
   height="22.000013"
   width="4"
   id="rect3300"
   style="fill:#4d4d4d;fill-opacity:1;fill-rule:evenodd;stroke:none" /><ellipse
   ry="2.0000615"
   rx="2"
   cy="24"
   cx="37"
   id="ellipse3302"
   style="fill:none;fill-opacity:1;fill-rule:evenodd;stroke:none" /><rect
   y="13"
   x="13.002771"
   height="2.0000024"
   width="4"
   id="rect3304"
   style="fill:#4d4d4d;fill-opacity:1;fill-rule:evenodd;stroke:none" /><rect
   style="fill:#4d4d4d;fill-opacity:1;fill-rule:evenodd;stroke:none"
   id="rect3306"
   width="4"
   height="2.0000024"
   x="9"
   y="-23.002773"
   transform="matrix(0,1,-1,0,0,0)" /><ellipse
   ry="1.0000308"
   rx="1"
   cy="15.000122"
   cx="24.002773"
   id="ellipse3308"
   style="fill:none;fill-opacity:1;fill-rule:evenodd;stroke:none" /><rect
   transform="matrix(0,1,-1,0,0,0)"
   y="-27.002775"
   x="9"
   height="2.0000024"
   width="4"
   id="rect3310"
   style="fill:#4d4d4d;fill-opacity:1;fill-rule:evenodd;stroke:none" /><ellipse
   style="fill:none;fill-opacity:1;fill-rule:evenodd;stroke:none"
   id="ellipse3312"
   cx="24.002773"
   cy="24"
   rx="1"
   ry="1.0000308" /><path
   style="fill:#4d4d4d;fill-opacity:1;fill-rule:evenodd;stroke:none"
   d="m 20.402344,24.199219 c -2.991601,0 -3.400391,2.40879 -3.400391,5.40039 0,2.991601 0.40879,5.400391 3.400391,5.400391 l 9.201172,0 c 2.9916,0 5.398437,-2.40879 5.398437,-5.400391 0,-2.9916 -2.406837,-5.40039 -5.398437,-5.40039 z M 23.603516,26 l 4.798828,0 c 1.994401,0 3.599609,1.605209 3.599609,3.599609 0,1.994401 -1.605208,3.59961 -3.599609,3.59961 l -4.798828,0 c -0.205886,0 -0.405302,-0.02766 -0.601563,-0.06055 l 0,-7.078125 C 23.198214,26.027664 23.39763,26 23.603516,26 Z"
   id="rect3314"
   inkscape:connector-curvature="0"
   sodipodi:nodetypes="ssssssssssssccs" /><path
   style="fill:#4d4d4d;fill-opacity:1;fill-rule:evenodd;stroke:none"
   d="m 21.001953,13 c -3.324002,0 -4,2.675998 -4,6 0,3.324002 0.675998,6 4,6 l 6,0 c 3.324002,0 6,-2.675998 6,-6 0,-3.324002 -2.675998,-6 -6,-6 z m 2.75,2.25 2.5,0 c 2.077501,0 3.75,1.672499 3.75,3.75 0,2.077501 -1.672499,3.75 -3.75,3.75 l -2.5,0 c -0.257695,0 -0.507187,-0.02712 -0.75,-0.07617 l 0,-7.347656 c 0.242813,-0.04905 0.492305,-0.07617 0.75,-0.07617 z"
   id="rect3318"
   inkscape:connector-curvature="0"
   sodipodi:nodetypes="ssssssssssssccs" /><rect
   transform="matrix(0,1,-1,0,0,0)"
   y="-23.002773"
   x="35"
   height="2.0000024"
   width="4"
   id="rect3320"
   style="fill:#4d4d4d;fill-opacity:1;fill-rule:evenodd;stroke:none" /><rect
   style="fill:#4d4d4d;fill-opacity:1;fill-rule:evenodd;stroke:none"
   id="rect3322"
   width="4"
   height="2.0000024"
   x="35"
   y="-27.002775"
   transform="matrix(0,1,-1,0,0,0)" /></svg>