<?xml version="1.0" encoding="UTF-8" standalone="no"?>
<!-- Created with Inkscape (http://www.inkscape.org/) -->

<svg
   xmlns:dc="http://purl.org/dc/elements/1.1/"
   xmlns:cc="http://creativecommons.org/ns#"
   xmlns:rdf="http://www.w3.org/1999/02/22-rdf-syntax-ns#"
   xmlns:svg="http://www.w3.org/2000/svg"
   xmlns="http://www.w3.org/2000/svg"
   xmlns:sodipodi="http://sodipodi.sourceforge.net/DTD/sodipodi-0.dtd"
   xmlns:inkscape="http://www.inkscape.org/namespaces/inkscape"
   width="22"
   height="22"
   id="svg4359"
   version="1.1"
   inkscape:version="0.91+devel r"
   sodipodi:docname="emblem-web.svg"
   viewBox="0 0 22 22">
  <defs
     id="defs4361" />
  <sodipodi:namedview
     id="base"
     pagecolor="#ffffff"
     bordercolor="#666666"
     borderopacity="1.0"
     inkscape:pageopacity="0.0"
     inkscape:pageshadow="2"
     inkscape:zoom="46"
     inkscape:cx="3.5517193"
     inkscape:cy="11.644314"
     inkscape:current-layer="layer1"
     showgrid="true"
     inkscape:grid-bbox="true"
     inkscape:document-units="px"
     inkscape:window-width="2560"
     inkscape:window-height="957"
     inkscape:window-x="-4"
     inkscape:window-y="29"
     inkscape:window-maximized="1"
     inkscape:showpageshadow="false"
     borderlayer="true"
     showguides="true">
    <inkscape:grid
       type="xygrid"
       id="grid4105" />
    <sodipodi:guide
       position="0,22"
       orientation="22,0"
       id="guide4111" />
    <sodipodi:guide
       position="0,0"
       orientation="0,22"
       id="guide4113" />
    <sodipodi:guide
       position="22,0"
       orientation="-22,0"
       id="guide4115" />
    <sodipodi:guide
       position="11,10"
       orientation="16,0"
       id="guide4130" />
    <sodipodi:guide
       position="12,11"
       orientation="0,16"
       id="guide4132" />
    <sodipodi:guide
       position="19,19"
       orientation="0,-16"
       id="guide4136" />
    <sodipodi:guide
       position="3,22"
       orientation="19.000011,0"
       id="guide4152" />
    <sodipodi:guide
       position="3,2.9999886"
       orientation="0,4"
       id="guide4154" />
    <sodipodi:guide
       position="15,3"
       orientation="0,4.0000019"
       id="guide4162" />
    <sodipodi:guide
       position="19.000002,3"
       orientation="-19,0"
       id="guide4164" />
    <sodipodi:guide
       position="19.000002,22"
       orientation="0,-4.0000019"
       id="guide4166" />
  </sodipodi:namedview>
  <metadata
     id="metadata4364">
    <rdf:RDF>
      <cc:Work
         rdf:about="">
        <dc:format>image/svg+xml</dc:format>
        <dc:type
           rdf:resource="http://purl.org/dc/dcmitype/StillImage" />
        <dc:title />
      </cc:Work>
    </rdf:RDF>
  </metadata>
  <g
     id="layer1"
     inkscape:label="Layer 1"
     inkscape:groupmode="layer"
     transform="translate(0,-26)">
    <rect
       style="color:#000000;clip-rule:nonzero;display:inline;overflow:visible;visibility:visible;opacity:1;isolation:auto;mix-blend-mode:normal;color-interpolation:sRGB;color-interpolation-filters:linearRGB;solid-color:#000000;solid-opacity:1;fill:#0193d8;fill-opacity:1;fill-rule:nonzero;stroke:none;stroke-width:1;stroke-linecap:butt;stroke-linejoin:miter;stroke-miterlimit:4;stroke-dasharray:none;stroke-dashoffset:0;stroke-opacity:1;color-rendering:auto;image-rendering:auto;shape-rendering:auto;text-rendering:auto;enable-background:accumulate"
       id="rect4147"
       width="2"
       height="2"
       x="-2"
       y="26" />
    <rect
       style="opacity:1;fill:#0193d8;fill-opacity:1;stroke:none;stroke-width:0.1;stroke-linecap:square;stroke-linejoin:miter;stroke-miterlimit:4;stroke-dasharray:none;stroke-dashoffset:0;stroke-opacity:1"
       id="rect4152"
       width="18"
       height="16"
       x="2"
       y="29"
       ry="3" />
    <rect
       style="opacity:1;fill:#19b5fe;fill-opacity:1;stroke:none;stroke-width:0.1;stroke-linecap:square;stroke-linejoin:miter;stroke-miterlimit:4;stroke-dasharray:none;stroke-dashoffset:0;stroke-opacity:1"
       id="rect4154"
       width="16.000002"
       height="14"
       x="3"
       y="30"
       ry="2" />
    <rect
       style="color:#000000;clip-rule:nonzero;display:inline;overflow:visible;visibility:visible;opacity:1;isolation:auto;mix-blend-mode:normal;color-interpolation:sRGB;color-interpolation-filters:linearRGB;solid-color:#000000;solid-opacity:1;fill:#19b5fe;fill-opacity:1;fill-rule:nonzero;stroke:none;stroke-width:1;stroke-linecap:butt;stroke-linejoin:miter;stroke-miterlimit:4;stroke-dasharray:none;stroke-dashoffset:0;stroke-opacity:1;color-rendering:auto;image-rendering:auto;shape-rendering:auto;text-rendering:auto;enable-background:accumulate"
       id="rect4147-7"
       width="2"
       height="2"
       x="-2"
       y="27.999996" />
    <rect
       style="color:#000000;clip-rule:nonzero;display:inline;overflow:visible;visibility:visible;opacity:1;isolation:auto;mix-blend-mode:normal;color-interpolation:sRGB;color-interpolation-filters:linearRGB;solid-color:#000000;solid-opacity:1;fill:#ecf0f1;fill-opacity:1;fill-rule:nonzero;stroke:none;stroke-width:1;stroke-linecap:butt;stroke-linejoin:miter;stroke-miterlimit:4;stroke-dasharray:none;stroke-dashoffset:0;stroke-opacity:1;color-rendering:auto;image-rendering:auto;shape-rendering:auto;text-rendering:auto;enable-background:accumulate"
       id="rect4147-5"
       width="2"
       height="2"
       x="-2"
       y="30" />
    <path
       inkscape:connector-curvature="0"
       id="path208"
       style="fill:#ecf0f1;fill-opacity:1;fill-rule:nonzero;stroke:none;stroke-width:0.92307687"
       d="M 9.3900124,41.85455 C 9.697615,41.692 9.728564,41.48311 10.00754,41.47148 c 0.318832,-0.0157 0.578837,-0.12388 0.937519,-0.20123 0.318817,-0.07385 0.889921,-0.39471 1.392521,-0.43727 0.42252,-0.0351 1.258672,0.0231 1.483461,0.43339 -0.809818,0.534 -1.779844,0.85135 -2.821048,0.85135 -0.562579,0 -1.102345,-0.09295 -1.6099806,-0.26317 z m 0.9061666,-9.92197 c -0.122648,0.23604 -0.444953,0.33665 -0.641122,0.51471 -0.4275444,0.38696 -0.61134,0.33277 -0.841175,0.70431 -0.231371,0.37145 -0.978907,0.90554 -0.978907,1.17249 0,0.27093 0.377631,0.58431 0.566452,0.52625 0.188434,-0.0655 0.686014,-0.06187 0.9785312,0.0425 0.2925118,0.10449 2.4465108,0.20889 1.7601108,2.02763 -0.21746,0.58052 -1.17006,0.47991 -1.423881,1.43963 -0.03757,0.13929 -0.169855,0.74289 -0.178757,0.93646 -0.01473,0.305724 0.215133,1.45117 -0.07739,1.45117 -0.2952198,0 -1.0864814,-1.02554 -1.0864814,-1.21126 0,-0.185818 -0.2058333,-0.83585 -0.2058333,-1.39311 0,-0.55726 -0.9475707,-0.549508 -0.9475707,-1.288612 0,-0.669508 0.513828,-1.002278 0.39853,-1.323418 -0.1133729,-0.317358 -1.0172196,-0.328988 -1.3936992,-0.367668 0.65778,-1.7064 2.2062396,-2.97563 4.0711926,-3.23105 z m 5.821252,5.06548 c 0,1.17249 -0.397372,2.25212 -1.060171,3.11511 -0.187273,-0.14705 -0.387307,-0.54563 -0.199649,-0.95197 0.188423,-0.414 0.238723,-1.36985 0.196165,-1.74129 -0.0426,-0.37154 -0.234859,-1.26545 -0.760307,-1.2732 -0.522338,-0.009 -0.88218,-0.18185 -1.193649,-0.80105 -0.646153,-1.2924 1.212612,-1.54403 0.566451,-2.25988 -0.181461,-0.20123 -1.113942,0.8281 -1.251298,-0.54175 -0.0086,-0.09672 0.08512,-0.24378 0.210094,-0.39471 2.027474,0.68105 3.492364,2.59653 3.492364,4.84874 z M 10.999993,31 C 7.691427,31 5,33.68948 5,36.99806 5,40.30665 7.691427,43 10.999993,43 14.308564,43 17,40.30665 17,36.99806 17,33.68948 14.308564,31 10.999993,31" />
  </g>
</svg>
