<?xml version="1.0" encoding="UTF-8" standalone="no"?>
<!-- Created using Karbon, part of Calligra: http://www.calligra.org/karbon -->

<svg
   xmlns:dc="http://purl.org/dc/elements/1.1/"
   xmlns:cc="http://creativecommons.org/ns#"
   xmlns:rdf="http://www.w3.org/1999/02/22-rdf-syntax-ns#"
   xmlns:svg="http://www.w3.org/2000/svg"
   xmlns="http://www.w3.org/2000/svg"
   xmlns:sodipodi="http://sodipodi.sourceforge.net/DTD/sodipodi-0.dtd"
   xmlns:inkscape="http://www.inkscape.org/namespaces/inkscape"
   width="48"
   height="48"
   id="svg2"
   version="1.1"
   inkscape:version="0.91+devel r"
   sodipodi:docname="application-x-rpm.svg">
  <metadata
     id="metadata16">
    <rdf:RDF>
      <cc:Work
         rdf:about="">
        <dc:format>image/svg+xml</dc:format>
        <dc:type
           rdf:resource="http://purl.org/dc/dcmitype/StillImage" />
        <dc:title />
      </cc:Work>
    </rdf:RDF>
  </metadata>
  <sodipodi:namedview
     pagecolor="#ffffff"
     bordercolor="#666666"
     borderopacity="1"
     objecttolerance="10"
     gridtolerance="10"
     guidetolerance="10"
     inkscape:pageopacity="0"
     inkscape:pageshadow="2"
     inkscape:window-width="1366"
     inkscape:window-height="670"
     id="namedview14"
     showgrid="true"
     inkscape:showpageshadow="false"
     borderlayer="true"
     units="px"
     inkscape:zoom="5.6568542"
     inkscape:cx="5.0098215"
     inkscape:cy="39.589401"
     inkscape:window-x="-4"
     inkscape:window-y="29"
     inkscape:window-maximized="1"
     inkscape:current-layer="svg2">
    <inkscape:grid
       type="xygrid"
       id="grid4202" />
    <sodipodi:guide
       position="7,43.955736"
       orientation="40,0"
       id="guide4218" />
    <sodipodi:guide
       position="7,3.955736"
       orientation="0,34"
       id="guide4220" />
    <sodipodi:guide
       position="41,3.955736"
       orientation="-29,0"
       id="guide4222" />
    <sodipodi:guide
       position="41,32.955736"
       orientation="-11,-11"
       id="guide4224" />
    <sodipodi:guide
       position="30,43.955736"
       orientation="0,-23"
       id="guide4226" />
    <sodipodi:guide
       position="0,48"
       orientation="48,0"
       id="guide4232" />
    <sodipodi:guide
       position="0,0"
       orientation="0,48"
       id="guide4234" />
    <sodipodi:guide
       position="48,0"
       orientation="-48,0"
       id="guide4236" />
    <sodipodi:guide
       position="48,48"
       orientation="0,-48"
       id="guide4238" />
    <sodipodi:guide
       position="15,33"
       orientation="18,0"
       id="guide4240" />
    <sodipodi:guide
       position="15,15"
       orientation="0,18"
       id="guide4242" />
    <sodipodi:guide
       position="33,15"
       orientation="-18,0"
       id="guide4244" />
    <sodipodi:guide
       position="33,33"
       orientation="0,-18"
       id="guide4246" />
  </sodipodi:namedview>
  <defs
     id="defs4" />
  <g
     id="layer1"
     transform="translate(0,0.04426415)">
    <path
       id="rect4090-1"
       transform="translate(7,4)"
       d="M 0,0 0,40 34,40 34,11 23,0 Z"
       inkscape:connector-curvature="0"
       style="fill:#c0392b" />
    <path
       id="path4151-1"
       transform="matrix(3.54331,0,0,3.54331,29.9999,3.99986)"
       d="m 0,0 0,3.10449 3.10446,0 z"
       inkscape:connector-curvature="0"
       style="fill:#e74c3c" />
    <path
       id="path4252-2"
       transform="matrix(3.54331,0,0,3.54331,29.9999,15)"
       d="M 3.10446,3.10449 3.10446,0 0,0 Z"
       inkscape:connector-curvature="0"
       style="fill:#000000;fill-opacity:0.11764706" />
    <path
       id="shape0-9"
       transform="translate(10.2861,10.4891)"
       d="m 23.6349,16.1113 c -1.2912,-0.0144 -2.8387,0.0991 -4.5195,0.3397 -0.7697,-0.4429 -1.5828,-0.9285 -2.2264,-1.5309 -1.6331,-1.5267 -3.0022,-3.6475 -3.8515,-6.0241 0.0581,-0.22755 0.1141,-0.44981 0.1646,-0.67466 0.2363,-1.06366 0.4056,-4.5792 0.4056,-4.5792 0,0 -0.6714,2.64104 -0.7773,3.03938 -0.0677,0.25287 -0.1533,0.52265 -0.2505,0.80343 -0.5152,-1.81365 -0.7774,-3.57303 -0.7774,-4.90596 0,-0.37727 0.0322,-1.10921 0.139,-1.689027 0.0518,-0.41349 0.2026,-0.628484 0.358,-0.732349 0.3073,0.074812 0.6505,0.546305 1.0096,1.335726 0.3084,0.68223 0.2892,1.47279 0.2892,1.96213 0,0 0.3306,-1.21163 0.2542,-1.92758 C 13.8061,1.09801 13.3971,-0.0075746 12.529,0.00570689 l -0.0707,0 L 12.0718,0 C 11.4376,0 10.8444,0.311181 10.7011,0.823763 10.1682,2.79036 10.7644,5.83161 11.7591,9.62057 L 11.458,10.3541 C 10.6966,12.2119 9.74541,14.0626 8.90828,15.7051 5.45291,22.4737 2.76512,26.1257 0.973015,26.3814 L 0.965345,26.3078 C 0.926479,25.4636 2.48362,23.286 4.59349,21.5552 c 0.21994,-0.1785 1.15812,-1.0876 1.15812,-1.0876 0,0 -1.26736,0.671 -1.55186,0.8432 -2.64343,1.5803 -3.959392,3.1627 -4.1738299,4.2133 -0.0635335,0.3122 -0.02155785,0.6954 0.2533049,0.8529 l 0.676481,0.3404 c 1.839784,0.9221 4.101284,-1.502 7.109644,-6.7799 3.06105,-1.0052 6.87975,-1.9521 10.35715,-2.4648 3.1124,1.7804 6.6828,2.628 8.0542,2.2617 0.261,-0.069 0.5362,-0.2738 0.6762,-0.4629 0.11,-0.174 0.263,-0.8704 0.263,-0.8704 0,0 -0.2574,0.3532 -0.4697,0.4568 -0.8686,0.4104 -3.6088,-0.2743 -6.4218,-1.6519 2.4319,-0.2591 4.4589,-0.27 5.5416,0.0765 1.3749,0.4393 1.3749,0.8906 1.3567,0.9824 0.0182,-0.0757 0.0808,-0.378 0.0733,-0.5064 -0.0315,-0.3304 -0.1324,-0.625 -0.3819,-0.8692 -0.5093,-0.5018 -1.7663,-0.7555 -3.4792,-0.778 z M 8.34135,19.2899 c 0.5207,-0.9264 1.08473,-1.9353 1.66205,-3.0236 1.1169,-2.115 1.7945,-3.7477 2.3642,-5.2841 0.898,1.8087 2.1376,3.5276 3.7627,4.905 0.3625,0.307 0.7477,0.5974 1.1442,0.8717 -2.9517,0.5494 -6.0523,1.3227 -8.93315,2.531 z"
       inkscape:connector-curvature="0"
       style="fill:#ecf0f1" />
  </g>
  <path
     id="path4146"
     d="m 7,4.0442641 0,39.9999999 34,0 0,-29 L 30,4.0442641 Z"
     inkscape:connector-curvature="0"
     style="fill:#c0392b" />
  <path
     id="path4148"
     d="m 29.911512,3.9557359 0,11.0001701 11.000064,0 z"
     inkscape:connector-curvature="0"
     style="fill:#d75a4d;fill-opacity:1" />
  <path
     id="path4150"
     d="m 40.999964,26.044434 0,-11.00017 -11.000064,0 z"
     inkscape:connector-curvature="0"
     style="fill:#000000;fill-opacity:0.11764706" />
  <rect
     style="color:#000000;text-decoration:none;text-decoration-line:none;text-decoration-style:solid;text-decoration-color:#000000;clip-rule:nonzero;display:inline;overflow:visible;visibility:visible;opacity:1;isolation:auto;mix-blend-mode:normal;color-interpolation:sRGB;color-interpolation-filters:linearRGB;solid-color:#000000;solid-opacity:1;fill:#c0392b;fill-opacity:1;fill-rule:nonzero;stroke:none;stroke-width:1;stroke-linecap:butt;stroke-linejoin:miter;stroke-miterlimit:4;stroke-dasharray:none;stroke-dashoffset:0;stroke-opacity:1;color-rendering:auto;image-rendering:auto;shape-rendering:auto;text-rendering:auto;enable-background:accumulate"
     id="rect4263"
     width="1"
     height="1"
     x="-7"
     y="19.044264"
     ry="2.35182e-07" />
  <rect
     style="color:#000000;text-decoration:none;text-decoration-line:none;text-decoration-style:solid;text-decoration-color:#000000;clip-rule:nonzero;display:inline;overflow:visible;visibility:visible;opacity:1;isolation:auto;mix-blend-mode:normal;color-interpolation:sRGB;color-interpolation-filters:linearRGB;solid-color:#000000;solid-opacity:1;fill:#d75a4d;fill-opacity:1;fill-rule:nonzero;stroke:none;stroke-width:1;stroke-linecap:butt;stroke-linejoin:miter;stroke-miterlimit:4;stroke-dasharray:none;stroke-dashoffset:0;stroke-opacity:1;color-rendering:auto;image-rendering:auto;shape-rendering:auto;text-rendering:auto;enable-background:accumulate"
     id="rect4263-9"
     width="1"
     height="1"
     x="-7"
     y="21.044264"
     ry="2.35182e-07" />
  <rect
     style="color:#000000;text-decoration:none;text-decoration-line:none;text-decoration-style:solid;text-decoration-color:#000000;clip-rule:nonzero;display:inline;overflow:visible;visibility:visible;opacity:1;isolation:auto;mix-blend-mode:normal;color-interpolation:sRGB;color-interpolation-filters:linearRGB;solid-color:#000000;solid-opacity:1;fill:#f1c7c3;fill-opacity:1;fill-rule:nonzero;stroke:none;stroke-width:1;stroke-linecap:butt;stroke-linejoin:miter;stroke-miterlimit:4;stroke-dasharray:none;stroke-dashoffset:0;stroke-opacity:1;color-rendering:auto;image-rendering:auto;shape-rendering:auto;text-rendering:auto;enable-background:accumulate"
     id="rect4263-2"
     width="1"
     height="1"
     x="-7"
     y="23.044264"
     ry="2.35182e-07" />
  <path
     style="color:#000000;text-decoration:none;text-decoration-line:none;text-decoration-style:solid;text-decoration-color:#000000;clip-rule:nonzero;display:inline;overflow:visible;visibility:visible;opacity:1;isolation:auto;mix-blend-mode:normal;color-interpolation:sRGB;color-interpolation-filters:linearRGB;solid-color:#000000;solid-opacity:1;fill:#f1c7c3;fill-opacity:1;fill-rule:nonzero;stroke:none;stroke-width:1;stroke-linecap:butt;stroke-linejoin:miter;stroke-miterlimit:4;stroke-dasharray:none;stroke-dashoffset:0;stroke-opacity:1;color-rendering:auto;image-rendering:auto;shape-rendering:auto;text-rendering:auto;enable-background:accumulate"
     d="M 24 15 C 19.014 15 15 19.014 15 24 C 15 28.986 19.014 33 24 33 C 28.986 33 33 28.986 33 24 C 33 19.014 28.986 15 24 15 z M 24 16 C 28.432 16 32 19.568 32 24 C 32 28.432 28.432 32 24 32 C 19.568 32 16 28.432 16 24 C 16 19.568 19.568 16 24 16 z M 24 17 L 24 20 C 25.655413 20 27.068097 20.996325 27.677734 22.423828 L 30.4375 21.240234 C 29.370615 18.742148 26.896941 17 24 17 z M 24 21 L 23.132812 26.203125 C 22.463692 26.525874 22 27.204716 22 28 C 22 29.108 22.892 30 24 30 C 25.108 30 26 29.108 26 28 C 26 27.204716 25.536308 26.525874 24.867188 26.203125 L 24 21 z M 24 27 C 24.554 27 25 27.446 25 28 C 25 28.554 24.554 29 24 29 C 23.446 29 23 28.554 23 28 C 23 27.446 23.446 27 24 27 z "
     id="path4226" />
</svg>
