<?xml version="1.0" encoding="UTF-8" standalone="no"?>
<!-- Created using Karbon, part of Calligra: http://www.calligra.org/karbon -->

<svg
   xmlns:dc="http://purl.org/dc/elements/1.1/"
   xmlns:cc="http://creativecommons.org/ns#"
   xmlns:rdf="http://www.w3.org/1999/02/22-rdf-syntax-ns#"
   xmlns:svg="http://www.w3.org/2000/svg"
   xmlns="http://www.w3.org/2000/svg"
   xmlns:sodipodi="http://sodipodi.sourceforge.net/DTD/sodipodi-0.dtd"
   xmlns:inkscape="http://www.inkscape.org/namespaces/inkscape"
   width="48"
   height="48"
   id="svg2"
   version="1.1"
   inkscape:version="0.91pre2 r"
   sodipodi:docname="application-vnd.oasis.opendocument.formula.svg">
  <metadata
     id="metadata14">
    <rdf:RDF>
      <cc:Work
         rdf:about="">
        <dc:format>image/svg+xml</dc:format>
        <dc:type
           rdf:resource="http://purl.org/dc/dcmitype/StillImage" />
        <dc:title />
      </cc:Work>
    </rdf:RDF>
  </metadata>
  <sodipodi:namedview
     pagecolor="#ffffff"
     bordercolor="#666666"
     borderopacity="1"
     objecttolerance="10"
     gridtolerance="10"
     guidetolerance="10"
     inkscape:pageopacity="0"
     inkscape:pageshadow="2"
     inkscape:window-width="1366"
     inkscape:window-height="672"
     id="namedview12"
     showgrid="true"
     inkscape:showpageshadow="false"
     borderlayer="true"
     units="pc"
     inkscape:zoom="13.906433"
     inkscape:cx="17.452484"
     inkscape:cy="23.805837"
     inkscape:window-x="-4"
     inkscape:window-y="25"
     inkscape:window-maximized="1"
     inkscape:current-layer="svg2"
     fit-margin-top="0"
     fit-margin-left="0"
     fit-margin-right="0"
     fit-margin-bottom="0">
    <sodipodi:guide
       position="6.9999972,43.999932"
       orientation="40,0"
       id="guide4186" />
    <sodipodi:guide
       position="6.9999972,3.9999319"
       orientation="0,34"
       id="guide4188" />
    <sodipodi:guide
       position="40.999998,3.9999319"
       orientation="-29,0"
       id="guide4190" />
    <sodipodi:guide
       position="40.999998,32.999932"
       orientation="-11,-11"
       id="guide4192" />
    <sodipodi:guide
       position="29.999998,43.999932"
       orientation="0,-23"
       id="guide4194" />
    <sodipodi:guide
       position="1.3476563e-15,48"
       orientation="48,0"
       id="guide4200" />
    <sodipodi:guide
       position="1.3476563e-15,0"
       orientation="0,48"
       id="guide4202" />
    <sodipodi:guide
       position="48,0"
       orientation="-48,0"
       id="guide4204" />
    <sodipodi:guide
       position="48,48"
       orientation="0,-48"
       id="guide4206" />
    <sodipodi:guide
       position="15,33"
       orientation="18,0"
       id="guide4208" />
    <sodipodi:guide
       position="15,15"
       orientation="0,18"
       id="guide4210" />
    <sodipodi:guide
       position="33,15"
       orientation="-18,0"
       id="guide4212" />
    <sodipodi:guide
       position="33,33"
       orientation="0,-18"
       id="guide4214" />
    <inkscape:grid
       type="xygrid"
       id="grid4216"
       originx="-3.5762787e-07px"
       originy="0px" />
  </sodipodi:namedview>
  <defs
     id="defs4" />
  <path
     inkscape:connector-curvature="0"
     style="fill:#26a65b;fill-opacity:1;stroke:none"
     d="m 6.9999972,4.0000695 0,39.9999995 34.0000008,0 0,-29 -11,-10.9999995 z"
     id="rect4090-5"
     sodipodi:nodetypes="cccccc" />
  <path
     style="color:#000000;text-decoration:none;text-decoration-line:none;text-decoration-style:solid;text-decoration-color:#000000;clip-rule:nonzero;display:inline;overflow:visible;visibility:visible;opacity:1;isolation:auto;mix-blend-mode:normal;color-interpolation:sRGB;color-interpolation-filters:linearRGB;solid-color:#000000;solid-opacity:1;fill:#a9ebc4;fill-opacity:1;fill-rule:nonzero;stroke:none;stroke-width:1;stroke-linecap:butt;stroke-linejoin:miter;stroke-miterlimit:4;stroke-dasharray:none;stroke-dashoffset:0;stroke-opacity:1;color-rendering:auto;image-rendering:auto;shape-rendering:auto;text-rendering:auto;enable-background:accumulate"
     d="M 15 15 L 15 16 L 15 33 L 16 33 L 18 33 L 18 32 L 16 32 L 16 16 L 18 16 L 18 15 L 16 15 L 15 15 z M 30 15 L 30 16 L 32 16 L 32 32 L 30 32 L 30 33 L 33 33 L 33 32 L 33 15 L 30 15 z M 26.570312 19 C 26.465709 19 26.353541 19.013489 26.232422 19.041016 C 26.111302 19.063036 25.99026 19.098887 25.869141 19.148438 C 25.753526 19.192477 25.643666 19.248384 25.539062 19.314453 C 25.439964 19.375013 25.352821 19.446716 25.28125 19.529297 C 25.24271 19.573344 25.213426 19.616116 25.191406 19.660156 C 25.169386 19.698696 25.158203 19.748036 25.158203 19.808594 C 25.158203 19.87466 25.178257 19.930567 25.216797 19.974609 C 25.260837 20.018649 25.314791 20.041016 25.380859 20.041016 C 25.435913 20.041016 25.474071 20.029832 25.496094 20.007812 C 25.52362 19.980286 25.552551 19.944435 25.580078 19.900391 C 25.673671 19.751743 25.783531 19.61952 25.910156 19.503906 C 26.042286 19.382786 26.203794 19.322266 26.396484 19.322266 C 26.517604 19.322266 26.611669 19.36273 26.677734 19.445312 C 26.749305 19.527894 26.785156 19.628527 26.785156 19.744141 C 26.785156 19.887283 26.744691 20.024119 26.662109 20.15625 C 26.585033 20.282875 26.484401 20.401609 26.363281 20.511719 C 26.242161 20.616322 26.114198 20.712695 25.976562 20.800781 C 25.838926 20.888869 25.713624 20.962878 25.603516 21.023438 C 25.537449 21.061977 25.485803 21.091261 25.447266 21.113281 C 25.408726 21.135301 25.375183 21.186595 25.347656 21.263672 C 25.342123 21.274685 25.339844 21.29048 25.339844 21.3125 C 25.339844 21.37306 25.364516 21.413525 25.414062 21.435547 C 25.463609 21.45206 25.510641 21.460938 25.554688 21.460938 C 25.637269 21.460938 25.717846 21.456326 25.794922 21.445312 C 25.877504 21.434299 25.958434 21.427734 26.041016 21.427734 C 26.233706 21.427734 26.43071 21.454712 26.628906 21.509766 C 26.832608 21.564819 27.014171 21.647703 27.173828 21.757812 C 27.338991 21.867921 27.473522 22.006712 27.578125 22.171875 C 27.682729 22.337038 27.734375 22.529782 27.734375 22.75 C 27.734375 23.069315 27.655752 23.354171 27.496094 23.607422 C 27.341941 23.866177 27.140323 24.087851 26.892578 24.269531 C 26.644833 24.451211 26.369206 24.590355 26.066406 24.689453 C 25.769112 24.788551 25.47769 24.837891 25.191406 24.837891 C 25.119836 24.837891 25.05044 24.835611 24.984375 24.830078 C 24.918308 24.824545 24.853173 24.80875 24.787109 24.78125 C 24.715539 24.753723 24.648451 24.724792 24.587891 24.697266 C 24.521824 24.669739 24.450122 24.65625 24.373047 24.65625 C 24.3235 24.65625 24.283035 24.665121 24.25 24.681641 C 24.21146 24.703661 24.191406 24.744126 24.191406 24.804688 C 24.191406 24.892775 24.236132 24.96217 24.324219 25.011719 C 24.412306 25.066772 24.513292 25.10919 24.628906 25.136719 C 24.744521 25.164245 24.860948 25.18004 24.976562 25.185547 C 25.097683 25.19656 25.18944 25.201172 25.25 25.201172 C 25.464712 25.201172 25.691354 25.171888 25.933594 25.111328 C 26.175833 25.050768 26.41561 24.965577 26.652344 24.855469 C 26.894583 24.74536 27.123178 24.61083 27.337891 24.451172 C 27.558108 24.29702 27.750852 24.122378 27.916016 23.929688 C 28.081179 23.742503 28.213402 23.538577 28.3125 23.318359 C 28.411598 23.098141 28.460937 22.867239 28.460938 22.625 C 28.460938 22.349728 28.406984 22.114212 28.296875 21.916016 C 28.192272 21.712314 28.048868 21.54424 27.867188 21.412109 C 27.691014 21.274473 27.487088 21.16692 27.255859 21.089844 C 27.030136 21.007262 26.796927 20.953663 26.554688 20.931641 C 26.670302 20.871081 26.787084 20.799378 26.908203 20.716797 C 27.029323 20.62871 27.141136 20.532338 27.240234 20.427734 C 27.344838 20.317626 27.425768 20.200844 27.486328 20.074219 C 27.552395 19.942088 27.585937 19.803298 27.585938 19.660156 C 27.585938 19.528026 27.552395 19.420473 27.486328 19.337891 C 27.420261 19.249804 27.335071 19.182362 27.230469 19.132812 C 27.131371 19.083264 27.021511 19.04972 26.900391 19.033203 C 26.784777 19.011182 26.674916 19 26.570312 19 z M 23.654297 23.638672 C 23.603477 23.638672 23.561223 23.655573 23.527344 23.689453 C 23.493464 23.71486 23.46486 23.748663 23.439453 23.791016 C 23.244645 24.087462 23.048324 24.388443 22.853516 24.693359 C 22.667178 24.998276 22.472809 25.299256 22.269531 25.595703 C 22.227185 25.460184 22.17648 25.328221 22.117188 25.201172 L 21.964844 24.820312 C 21.922497 24.727143 21.876995 24.628982 21.826172 24.527344 C 21.783825 24.425705 21.727918 24.332746 21.660156 24.248047 C 21.60087 24.163348 21.528061 24.095741 21.443359 24.044922 C 21.358661 23.994102 21.254002 23.96875 21.126953 23.96875 C 20.982964 23.96875 20.834099 24.066911 20.681641 24.261719 C 20.529183 24.456527 20.385519 24.684698 20.25 24.947266 C 20.114481 25.201363 19.990968 25.46009 19.880859 25.722656 C 19.770751 25.976754 19.686242 26.162671 19.626953 26.28125 C 19.567666 26.382889 19.539062 26.48105 19.539062 26.574219 C 19.539062 26.701267 19.606669 26.763672 19.742188 26.763672 C 19.826887 26.763672 19.928296 26.659013 20.046875 26.447266 C 20.165454 26.235518 20.283765 26.002144 20.402344 25.748047 C 20.529392 25.49395 20.644454 25.260575 20.746094 25.048828 C 20.856202 24.83708 20.935509 24.730469 20.986328 24.730469 C 21.028675 24.730469 21.062478 24.772723 21.087891 24.857422 C 21.121771 24.942121 21.143877 25.001276 21.152344 25.035156 C 21.220103 25.289254 21.290958 25.539529 21.367188 25.785156 C 21.443417 26.030784 21.516225 26.281059 21.583984 26.535156 C 21.533164 26.611386 21.426553 26.760251 21.265625 26.980469 C 21.104697 27.192217 20.940883 27.415186 20.771484 27.652344 C 20.610556 27.889501 20.461691 28.114424 20.326172 28.326172 C 20.199123 28.53792 20.134766 28.673133 20.134766 28.732422 C 20.134766 28.808651 20.168569 28.873008 20.236328 28.923828 C 20.312557 28.974645 20.385366 29 20.453125 29 C 20.546294 29 20.619102 28.960995 20.669922 28.884766 L 21.8125 27.119141 C 21.871787 27.254659 21.939393 27.403525 22.015625 27.564453 C 22.100324 27.725381 22.193283 27.877496 22.294922 28.021484 C 22.405031 28.157003 22.528544 28.272065 22.664062 28.365234 C 22.80805 28.449933 22.968616 28.492188 23.146484 28.492188 C 23.400582 28.492188 23.654106 28.410928 23.908203 28.25 C 24.1623 28.089071 24.400876 27.894703 24.621094 27.666016 C 24.849781 27.428858 25.047398 27.178583 25.216797 26.916016 C 25.394665 26.653448 25.53508 26.416826 25.636719 26.205078 C 25.653659 26.171198 25.67056 26.132192 25.6875 26.089844 C 25.712907 26.039024 25.726562 25.993521 25.726562 25.951172 C 25.726562 25.891885 25.709661 25.835978 25.675781 25.785156 C 25.650375 25.72587 25.602919 25.697266 25.535156 25.697266 C 25.450458 25.697266 25.377649 25.73952 25.318359 25.824219 C 25.259066 25.900448 25.213563 25.971303 25.179688 26.039062 C 25.103458 26.191521 24.996847 26.365739 24.861328 26.560547 C 24.734279 26.746885 24.587367 26.924352 24.417969 27.09375 C 24.257041 27.254678 24.082822 27.395093 23.896484 27.513672 C 23.718616 27.623781 23.532699 27.677734 23.337891 27.677734 C 23.244722 27.677734 23.151763 27.61533 23.058594 27.488281 C 22.965425 27.352763 22.875715 27.200648 22.791016 27.03125 C 22.714786 26.853381 22.64718 26.679164 22.587891 26.509766 C 22.528604 26.340368 22.486349 26.216854 22.460938 26.140625 C 22.681155 25.801828 22.900876 25.468998 23.121094 25.138672 C 23.349781 24.808345 23.561051 24.465112 23.755859 24.109375 C 23.781273 24.067028 23.803379 24.024774 23.820312 23.982422 C 23.837252 23.940075 23.845703 23.89262 23.845703 23.841797 C 23.845703 23.790977 23.828802 23.743521 23.794922 23.701172 C 23.761042 23.658825 23.713586 23.638672 23.654297 23.638672 z "
     id="rect4224" />
  <path
     style="fill:#34d075;fill-opacity:1;stroke:none;stroke-width:0.28222224px;stroke-linecap:butt;stroke-linejoin:miter;stroke-opacity:1"
     d="m 29.999936,3.9999312 0,11.0001598 11.000061,0 z"
     id="path4151-3"
     inkscape:connector-curvature="0" />
  <path
     inkscape:connector-curvature="0"
     id="path4252-2"
     d="m 40.999997,26.000252 0,-11.000161 -11.000061,0 z"
     style="fill:#000000;fill-opacity:0.11764706;stroke:none" />
  <rect
     style="color:#000000;text-decoration:none;text-decoration-line:none;text-decoration-style:solid;text-decoration-color:#000000;clip-rule:nonzero;display:inline;overflow:visible;visibility:visible;opacity:1;isolation:auto;mix-blend-mode:normal;color-interpolation:sRGB;color-interpolation-filters:linearRGB;solid-color:#000000;solid-opacity:1;fill:#26a65b;fill-opacity:1;fill-rule:nonzero;stroke:none;stroke-width:1;stroke-linecap:butt;stroke-linejoin:miter;stroke-miterlimit:4;stroke-dasharray:none;stroke-dashoffset:0;stroke-opacity:1;color-rendering:auto;image-rendering:auto;shape-rendering:auto;text-rendering:auto;enable-background:accumulate"
     id="rect4263"
     width="1"
     height="1"
     x="-7.0000005"
     y="19.000029"
     ry="2.35182e-07" />
  <rect
     style="color:#000000;text-decoration:none;text-decoration-line:none;text-decoration-style:solid;text-decoration-color:#000000;clip-rule:nonzero;display:inline;overflow:visible;visibility:visible;opacity:1;isolation:auto;mix-blend-mode:normal;color-interpolation:sRGB;color-interpolation-filters:linearRGB;solid-color:#000000;solid-opacity:1;fill:#34d075;fill-opacity:1;fill-rule:nonzero;stroke:none;stroke-width:1;stroke-linecap:butt;stroke-linejoin:miter;stroke-miterlimit:4;stroke-dasharray:none;stroke-dashoffset:0;stroke-opacity:1;color-rendering:auto;image-rendering:auto;shape-rendering:auto;text-rendering:auto;enable-background:accumulate"
     id="rect4263-9"
     width="1"
     height="1"
     x="-7.0000005"
     y="21.000029"
     ry="2.35182e-07" />
  <rect
     style="color:#000000;text-decoration:none;text-decoration-line:none;text-decoration-style:solid;text-decoration-color:#000000;clip-rule:nonzero;display:inline;overflow:visible;visibility:visible;opacity:1;isolation:auto;mix-blend-mode:normal;color-interpolation:sRGB;color-interpolation-filters:linearRGB;solid-color:#000000;solid-opacity:1;fill:#a9ebc4;fill-opacity:1;fill-rule:nonzero;stroke:none;stroke-width:1;stroke-linecap:butt;stroke-linejoin:miter;stroke-miterlimit:4;stroke-dasharray:none;stroke-dashoffset:0;stroke-opacity:1;color-rendering:auto;image-rendering:auto;shape-rendering:auto;text-rendering:auto;enable-background:accumulate"
     id="rect4263-2"
     width="1"
     height="1"
     x="-7.0000005"
     y="23.000029"
     ry="2.35182e-07" />
</svg>
