<?xml version="1.0" encoding="UTF-8" standalone="no"?>
<!-- Created using Karbon, part of Calligra: http://www.calligra.org/karbon -->

<svg
   xmlns:dc="http://purl.org/dc/elements/1.1/"
   xmlns:cc="http://creativecommons.org/ns#"
   xmlns:rdf="http://www.w3.org/1999/02/22-rdf-syntax-ns#"
   xmlns:svg="http://www.w3.org/2000/svg"
   xmlns="http://www.w3.org/2000/svg"
   xmlns:sodipodi="http://sodipodi.sourceforge.net/DTD/sodipodi-0.dtd"
   xmlns:inkscape="http://www.inkscape.org/namespaces/inkscape"
   width="48"
   height="48"
   id="svg2"
   version="1.1"
   inkscape:version="0.91pre2 r"
   sodipodi:docname="application-x-perl.svg">
  <metadata
     id="metadata13">
    <rdf:RDF>
      <cc:Work
         rdf:about="">
        <dc:format>image/svg+xml</dc:format>
        <dc:type
           rdf:resource="http://purl.org/dc/dcmitype/StillImage" />
        <dc:title />
      </cc:Work>
    </rdf:RDF>
  </metadata>
  <sodipodi:namedview
     pagecolor="#ffffff"
     bordercolor="#666666"
     borderopacity="1"
     objecttolerance="10"
     gridtolerance="10"
     guidetolerance="10"
     inkscape:pageopacity="0"
     inkscape:pageshadow="2"
     inkscape:window-width="1366"
     inkscape:window-height="672"
     id="namedview11"
     showgrid="true"
     inkscape:showpageshadow="false"
     borderlayer="true"
     units="px"
     inkscape:zoom="9.8333329"
     inkscape:cx="11.606791"
     inkscape:cy="24.244908"
     inkscape:window-x="-4"
     inkscape:window-y="25"
     inkscape:window-maximized="1"
     inkscape:current-layer="svg2">
    <sodipodi:guide
       position="7,44"
       orientation="40,0"
       id="guide4148" />
    <sodipodi:guide
       position="7,4"
       orientation="0,34"
       id="guide4150" />
    <sodipodi:guide
       position="41,4"
       orientation="-29,0"
       id="guide4152" />
    <sodipodi:guide
       position="41,33"
       orientation="-11,-11"
       id="guide4154" />
    <sodipodi:guide
       position="30,44"
       orientation="0,-23"
       id="guide4156" />
    <inkscape:grid
       type="xygrid"
       id="grid4158" />
    <sodipodi:guide
       position="0,48"
       orientation="48,0"
       id="guide4164" />
    <sodipodi:guide
       position="0,0"
       orientation="0,48"
       id="guide4166" />
    <sodipodi:guide
       position="48,0"
       orientation="-48,0"
       id="guide4168" />
    <sodipodi:guide
       position="48,48"
       orientation="0,-48"
       id="guide4170" />
    <sodipodi:guide
       position="15,33"
       orientation="18,0"
       id="guide4172" />
    <sodipodi:guide
       position="15,15"
       orientation="0,18"
       id="guide4174" />
    <sodipodi:guide
       position="33,15"
       orientation="-18,0"
       id="guide4176" />
    <sodipodi:guide
       position="33,33"
       orientation="0,-18"
       id="guide4178" />
  </sodipodi:namedview>
  <defs
     id="defs4" />
  <path
     inkscape:connector-curvature="0"
     style="fill:#22a7f0;fill-opacity:1;stroke:none"
     d="m 6.9999959,4.000069 0,40 34.0000001,0 0,-29 -11,-11 z"
     id="rect4090"
     sodipodi:nodetypes="cccccc" />
  <path
     style="fill:#56bcf4;fill-opacity:1;stroke:none;stroke-width:0.28222224px;stroke-linecap:butt;stroke-linejoin:miter;stroke-opacity:1"
     d="m 29.999934,3.999931 0,11.00016 11.000061,0 z"
     id="path4151"
     inkscape:connector-curvature="0" />
  <path
     inkscape:connector-curvature="0"
     id="path4252"
     d="m 40.999995,26.000252 0,-11.000161 -11.000061,0 z"
     style="fill:#000000;fill-opacity:0.11764706;stroke:none" />
  <rect
     style="color:#000000;text-decoration:none;text-decoration-line:none;text-decoration-style:solid;text-decoration-color:#000000;clip-rule:nonzero;display:inline;overflow:visible;visibility:visible;opacity:1;isolation:auto;mix-blend-mode:normal;color-interpolation:sRGB;color-interpolation-filters:linearRGB;solid-color:#000000;solid-opacity:1;fill:#22a7f0;fill-opacity:1;fill-rule:nonzero;stroke:none;stroke-width:1;stroke-linecap:butt;stroke-linejoin:miter;stroke-miterlimit:4;stroke-dasharray:none;stroke-dashoffset:0;stroke-opacity:1;color-rendering:auto;image-rendering:auto;shape-rendering:auto;text-rendering:auto;enable-background:accumulate"
     id="rect4263"
     width="1"
     height="1"
     x="-7"
     y="19.000029"
     ry="2.35182e-07" />
  <rect
     style="color:#000000;text-decoration:none;text-decoration-line:none;text-decoration-style:solid;text-decoration-color:#000000;clip-rule:nonzero;display:inline;overflow:visible;visibility:visible;opacity:1;isolation:auto;mix-blend-mode:normal;color-interpolation:sRGB;color-interpolation-filters:linearRGB;solid-color:#000000;solid-opacity:1;fill:#56bcf4;fill-opacity:1;fill-rule:nonzero;stroke:none;stroke-width:1;stroke-linecap:butt;stroke-linejoin:miter;stroke-miterlimit:4;stroke-dasharray:none;stroke-dashoffset:0;stroke-opacity:1;color-rendering:auto;image-rendering:auto;shape-rendering:auto;text-rendering:auto;enable-background:accumulate"
     id="rect4263-9"
     width="1"
     height="1"
     x="-7"
     y="21.000029"
     ry="2.35182e-07" />
  <rect
     style="color:#000000;text-decoration:none;text-decoration-line:none;text-decoration-style:solid;text-decoration-color:#000000;clip-rule:nonzero;display:inline;overflow:visible;visibility:visible;opacity:1;isolation:auto;mix-blend-mode:normal;color-interpolation:sRGB;color-interpolation-filters:linearRGB;solid-color:#000000;solid-opacity:1;fill:#ddf2fd;fill-opacity:1;fill-rule:nonzero;stroke:none;stroke-width:1;stroke-linecap:butt;stroke-linejoin:miter;stroke-miterlimit:4;stroke-dasharray:none;stroke-dashoffset:0;stroke-opacity:1;color-rendering:auto;image-rendering:auto;shape-rendering:auto;text-rendering:auto;enable-background:accumulate"
     id="rect4263-2"
     width="1"
     height="1"
     x="-7"
     y="23.000029"
     ry="2.35182e-07" />
  <path
     style="fill:#ddf2fd;fill-rule:evenodd;fill-opacity:1"
     inkscape:connector-curvature="0"
     d="m 20.654963,32.444475 c 0.01141,-0.02172 0.01699,-0.03481 0.02914,-0.0583 0.10822,-0.208856 0.234918,-0.465775 0.284171,-0.575655 0.09123,-0.203656 0.224013,-0.684278 0.262312,-0.94732 0.09044,-0.621369 0.09956,-0.784009 0.0583,-0.983639 -0.01225,-0.05897 -0.02763,-0.346752 -0.03644,-0.641248 -0.01309,-0.43625 -0.01865,-0.570959 -0.051,-0.699544 -0.04964,-0.197281 -0.08749,-0.435831 -0.08743,-0.626653 2.5e-5,-0.233349 -0.03419,-0.650895 -0.08015,-0.925428 -0.06205,-0.370657 -0.06266,-1.030107 0,-1.377195 0.05133,-0.284431 0.03885,-0.403118 -0.051,-0.531955 -0.131705,-0.18881 -0.273207,-0.208941 -0.626628,-0.0947 -1.018297,0.31102 -2.077401,-0.48448 -2.674144,-1.246009 -0.396391,-0.661505 -0.968021,-1.081307 -1.02739,-1.872739 -0.04494,-0.645753 -0.12892,-1.191036 -0.101996,-1.85083 -0.02203,-0.603168 0.356382,-1.02073 0.495477,-1.624946 -0.08834,-0.570455 -0.785866,-0.427065 -1.194982,-0.619381 -0.202874,-0.109998 -0.304798,-0.312706 -0.262312,-0.517361 0.05093,-0.245284 0.282101,-0.587281 0.473621,-0.699527 0.400368,-0.186352 0.855566,-0.113722 1.282413,-0.218603 0.357439,-0.09176 0.5029,-0.1591 0.721361,-0.357052 0.326294,-0.29565 0.408864,-0.341446 0.69951,-0.342476 1.300514,0.08556 1.75213,1.54892 1.872621,2.645098 0.04875,0.832432 -0.300904,1.539978 -0.495485,2.324473 -0.08091,0.324198 0.170214,0.788044 0.488196,0.451776 0.206265,-0.642691 0.242316,-1.136674 0.655785,-1.7051 0.409115,-0.547086 0.749132,-0.874295 1.16583,-1.122163 0.335613,-0.220667 0.669566,-0.472561 0.932666,-0.779681 0.140479,-0.19885 0.411683,-0.637214 0.473618,-0.7724 0.246979,-0.609929 0.822383,-1.011275 1.420854,-1.246032 0.386846,-0.136419 0.762452,-0.323899 1.165822,-0.408059 0.544705,-0.02877 0.92937,-0.06663 1.413598,0.160308 0.382149,0.148683 0.626654,0.471364 0.888941,0.765108 0.278475,0.411951 0.439102,0.974152 0.626654,1.450069 0.130011,0.399645 0.2721,0.664902 0.510062,0.932708 0.152743,0.171933 0.355979,0.453202 0.495469,0.684949 0.40446,1.034142 0.811185,1.80426 1.51551,2.681533 0.376445,0.410181 0.451767,0.614097 0.451767,1.158592 0.107197,0.838287 0.09931,1.466366 -0.0947,2.317226 -0.0234,0.06182 -0.157691,0.284599 -0.298774,0.495468 -0.208018,0.31102 -0.26841,0.38542 -0.32788,0.415365 -0.04798,0.02407 -0.09009,0.03758 -0.123804,0.02911 -0.07767,-0.01946 -0.17715,-0.128417 -0.204075,-0.225883 -0.03372,-0.122211 0.01225,-0.290554 0.14578,-0.524658 0.224793,-0.377703 0.344068,-0.815631 0.269584,-1.253307 -0.05754,-0.316976 -0.03447,-0.643681 -0.08019,-0.961848 -0.07465,-0.34312 -0.183274,-0.53193 -0.29869,-0.53193 -0.126069,0 -0.221774,0.21956 -0.378962,0.830721 l -0.101995,1.129419 c -0.0084,0.923918 0.01661,1.644767 0.06559,1.843558 0.04915,0.199881 0.04932,0.826199 0,1.093016 -0.04555,0.246434 -0.0328,0.351869 0.06559,0.582953 0.0994,0.233517 0.131269,0.392466 0.116591,0.663057 -0.01275,0.232845 -0.03967,0.333331 -0.131186,0.56106 -0.102079,0.254067 -0.119694,0.352456 -0.138399,0.743245 -0.0097,0.203488 -0.03489,0.42241 -0.05108,0.488254 -0.09294,0.378962 -0.0791,0.468208 0.10208,1.027424 0.113823,0.351617 0.18168,0.68218 0.152994,0.728649 -0.01191,0.205837 0.05293,0.415532 0.0072,0.61944 -0.0092,0.03313 -18.064767,0.312865 -10.390412,-0.480957 z m 8.240951,-8.197578 c -0.134205,0 -0.207766,0.09185 -0.364282,0.41528 -0.273862,0.482216 -0.472905,0.92526 -0.524658,1.486572 -0.06249,0.467957 -0.08975,0.926351 -0.0874,1.399004 l 0,0.66314 -0.05829,0.116591 c -0.03523,0.06475 -0.138735,0.201224 -0.233182,0.29869 -0.117932,0.121791 -0.195519,0.220264 -0.247776,0.320666 -0.139321,0.267907 -0.229322,0.411423 -0.400685,0.641249 -0.19141,0.256499 -0.357741,0.558376 -0.393473,0.728649 -0.02944,0.139741 -0.0069,0.284347 0.06551,0.393472 0.02726,0.0411 0.115668,0.129089 0.196778,0.196778 0.240059,0.200301 0.320415,0.331906 0.378878,0.670355 0.0255,0.147541 0.02617,0.206088 0.0074,0.335177 -0.03875,0.264971 -0.122714,0.425933 -0.247776,0.495552 0.932976,0.08614 1.873418,0.219425 2.819899,0.386175 0.01359,-0.05494 0.03523,-0.116759 0.06551,-0.182184 0.118687,-0.25608 0.141335,-0.318317 0.174886,-0.575655 0.03489,-0.267068 0.07591,-0.420901 0.255073,-0.947236 0.122127,-0.358915 0.126488,-0.388104 0.138399,-0.612143 0.02038,-0.383071 -0.003,-0.952604 -0.051,-1.151311 -0.06299,-0.261364 -0.07994,-0.465104 -0.0801,-0.976426 -1.68e-4,-0.347087 -0.0064,-0.513753 -0.02919,-0.633951 -0.04303,-0.227058 -0.183274,-0.599141 -0.349772,-0.932724 -0.175389,-0.35145 -0.229826,-0.477519 -0.305987,-0.757756 -0.124979,-0.393472 -0.325531,-0.746347 -0.386175,-1.158608 -0.05301,-0.420062 -0.162472,-0.619356 -0.342475,-0.619356 z m -2.462829,0.859834 c -0.02869,-0.0018 -0.05578,0.0089 -0.0947,0.02911 -0.08136,0.04211 -0.126236,0.13496 -0.225884,0.510063 -0.107867,0.405886 -0.150561,0.524826 -0.240478,0.655843 -0.251047,0.365709 -0.25239,0.371748 -0.313285,0.72865 -0.06719,0.393807 -0.0744,0.407815 -0.342475,0.684948 -0.129507,0.13387 -0.305064,0.307833 -0.386174,0.386259 -0.185791,0.179332 -0.255158,0.320163 -0.255074,0.510063 1.68e-4,0.145109 0.02265,0.21347 0.204076,0.539169 0.15962,0.286528 0.218418,0.36487 0.356985,0.510063 0.129508,0.135715 0.398505,0.344236 0.546466,0.422662 0.107448,0.05695 0.215902,0.06467 0.298774,0.02181 0.08447,-0.04362 0.169014,-0.155007 0.247776,-0.320582 0.03959,-0.08321 0.138147,-0.262119 0.218586,-0.40077 0.263462,-0.454284 0.331906,-0.668341 0.356986,-1.151311 0.0089,-0.171447 0.02282,-0.409326 0.03649,-0.524658 0.02642,-0.224038 0.01174,-0.431217 -0.08019,-1.093016 -0.0208,-0.14989 -0.05435,-0.500249 -0.0801,-0.779647 -0.04949,-0.535311 -0.07079,-0.614575 -0.160375,-0.684949 -0.03162,-0.025 -0.05863,-0.04177 -0.0874,-0.04378 z m -3.169604,0.247693 c -0.135782,0.01459 -0.207984,0.05981 -0.291452,0.145696 -0.148363,0.152742 -0.218393,0.37418 -0.240453,0.801623 -0.01892,0.366464 -0.03563,0.42803 -0.233173,0.830645 -0.14531,0.296258 -0.179969,0.430631 -0.255023,0.881727 -0.03776,0.227142 -0.04756,0.315047 -0.04372,0.743245 0.0042,0.470891 0.0029,0.502094 -0.04372,0.663056 -0.02667,0.0921 -0.105401,0.288457 -0.174877,0.437257 -0.152759,0.326957 -0.177964,0.420649 -0.204017,0.743244 -0.01107,0.137309 -0.03833,0.356818 -0.06558,0.488171 -0.03011,0.145193 -0.05517,0.355811 -0.06558,0.539252 -0.01107,0.195101 -0.06355,0.474667 -0.116574,0.735947 0.924975,-0.07096 1.847349,-0.10317 2.768826,-0.0947 -0.01627,-0.03682 -0.0302,-0.07205 -0.02181,-0.116591 0.02055,-0.109796 0.122714,-0.195688 0.393472,-0.327963 0.196694,-0.09604 0.264887,-0.14209 0.364283,-0.240395 0.193926,-0.191746 0.328299,-0.483306 0.327963,-0.714139 -0.03313,-0.315969 -0.29676,-0.557286 -0.480957,-0.801539 -0.17346,-0.232091 -0.461078,-0.510902 -0.714054,-0.692246 -0.261239,-0.187132 -0.507606,-0.398338 -0.5902,-0.510063 -0.03724,-0.05041 -0.08524,-0.150897 -0.10931,-0.225884 -0.04033,-0.125566 -0.04399,-0.168679 -0.04372,-0.590251 2.35e-4,-0.524825 0.0049,-0.552505 0.182158,-0.867132 0.13907,-0.246769 0.193449,-0.424088 0.218595,-0.735946 0.01141,-0.142258 0.04558,-0.355812 0.07287,-0.47366 0.06083,-0.262874 0.05264,-0.38324 -0.02186,-0.480874 -0.07948,-0.104176 -0.194631,-0.139154 -0.451759,-0.138482 -0.06103,1.67e-4 -0.115048,-0.0049 -0.160308,0 z m 2.812618,6.448802 c -0.07331,-0.0064 -0.130179,0.07121 -0.204075,0.225884 -0.06316,0.13236 -0.140832,0.217161 -0.247692,0.284179 0.336351,0.01694 0.668257,0.03808 1.005531,0.06559 -0.09235,-0.06073 -0.186377,-0.157523 -0.284179,-0.306071 -0.112397,-0.170608 -0.196275,-0.263294 -0.269585,-0.269585 z"
     id="path2518" />
</svg>
