<?xml version="1.0" encoding="UTF-8" standalone="no"?>
<!-- Created using Karbon, part of Calligra: http://www.calligra.org/karbon -->

<svg
   xmlns:dc="http://purl.org/dc/elements/1.1/"
   xmlns:cc="http://creativecommons.org/ns#"
   xmlns:rdf="http://www.w3.org/1999/02/22-rdf-syntax-ns#"
   xmlns:svg="http://www.w3.org/2000/svg"
   xmlns="http://www.w3.org/2000/svg"
   xmlns:sodipodi="http://sodipodi.sourceforge.net/DTD/sodipodi-0.dtd"
   xmlns:inkscape="http://www.inkscape.org/namespaces/inkscape"
   width="48"
   height="48"
   id="svg2"
   version="1.1"
   inkscape:version="0.91pre2 r"
   sodipodi:docname="application-vnd.oasis.opendocument.spreadsheet-template.svg">
  <metadata
     id="metadata23">
    <rdf:RDF>
      <cc:Work
         rdf:about="">
        <dc:format>image/svg+xml</dc:format>
        <dc:type
           rdf:resource="http://purl.org/dc/dcmitype/StillImage" />
        <dc:title />
      </cc:Work>
    </rdf:RDF>
  </metadata>
  <sodipodi:namedview
     pagecolor="#ffffff"
     bordercolor="#666666"
     borderopacity="1"
     objecttolerance="10"
     gridtolerance="10"
     guidetolerance="10"
     inkscape:pageopacity="0"
     inkscape:pageshadow="2"
     inkscape:window-width="1366"
     inkscape:window-height="672"
     id="namedview21"
     showgrid="true"
     borderlayer="true"
     inkscape:showpageshadow="false"
     units="px"
     inkscape:zoom="19.666666"
     inkscape:cx="18.953436"
     inkscape:cy="25.641509"
     inkscape:window-x="-4"
     inkscape:window-y="25"
     inkscape:window-maximized="1"
     inkscape:current-layer="svg2">
    <inkscape:grid
       type="xygrid"
       id="grid4152" />
    <sodipodi:guide
       position="0,48"
       orientation="48,0"
       id="guide4158" />
    <sodipodi:guide
       position="0,0"
       orientation="0,48"
       id="guide4160" />
    <sodipodi:guide
       position="48,0"
       orientation="-48,0"
       id="guide4162" />
    <sodipodi:guide
       position="48,48"
       orientation="0,-48"
       id="guide4164" />
    <sodipodi:guide
       position="15,33"
       orientation="18,0"
       id="guide4166" />
    <sodipodi:guide
       position="15,15"
       orientation="0,18"
       id="guide4168" />
    <sodipodi:guide
       position="33,15"
       orientation="-18,0"
       id="guide4170" />
    <sodipodi:guide
       position="33,33"
       orientation="0,-18"
       id="guide4172" />
  </sodipodi:namedview>
  <defs
     id="defs4" />
  <path
     inkscape:connector-curvature="0"
     style="fill:#4b77be;fill-opacity:1;stroke:none"
     d="m 6.999996,4.0000693 0,39.9999997 34,0 0,-29 -11,-10.9999997 z"
     id="rect4090"
     sodipodi:nodetypes="cccccc" />
  <path
     style="color:#000000;text-decoration:none;text-decoration-line:none;text-decoration-style:solid;text-decoration-color:#000000;clip-rule:nonzero;display:inline;overflow:visible;visibility:visible;opacity:1;isolation:auto;mix-blend-mode:normal;color-interpolation:sRGB;color-interpolation-filters:linearRGB;solid-color:#000000;solid-opacity:1;fill:#dde5f3;fill-opacity:1;fill-rule:nonzero;stroke:none;stroke-width:1;stroke-linecap:butt;stroke-linejoin:miter;stroke-miterlimit:4;stroke-dasharray:none;stroke-dashoffset:0;stroke-opacity:1;color-rendering:auto;image-rendering:auto;shape-rendering:auto;text-rendering:auto;enable-background:accumulate"
     d="M 15 15 L 15 16 L 15 17 L 16 17 L 16 16 L 19 16 L 19 32 L 16 32 L 16 30 L 15 30 L 15 32 L 15 33 L 16 33 L 19 33 L 20 33 L 23 33 L 24 33 L 28 33 L 29 33 L 32 33 L 33 33 L 33 32 L 33 15 L 15 15 z M 20 16 L 23 16 L 23 18 L 20 18 L 20 16 z M 24 16 L 28 16 L 28 18 L 24 18 L 24 16 z M 29 16 L 32 16 L 32 18 L 29 18 L 29 16 z M 15 18 L 15 19 L 16 19 L 16 18 L 15 18 z M 20 19 L 23 19 L 23 21 L 20 21 L 20 19 z M 24 19 L 28 19 L 28 21 L 24 21 L 24 19 z M 29 19 L 32 19 L 32 21 L 29 21 L 29 19 z M 15 20 L 15 21 L 16 21 L 16 20 L 15 20 z M 15 22 L 15 23 L 16 23 L 16 22 L 15 22 z M 20 22 L 23 22 L 23 24 L 20 24 L 20 22 z M 24 22 L 28 22 L 28 24 L 24 24 L 24 22 z M 29 22 L 32 22 L 32 24 L 29 24 L 29 22 z M 15 24 L 15 25 L 16 25 L 16 24 L 15 24 z M 20 25 L 23 25 L 23 32 L 20 32 L 20 25 z M 24 25 L 28 25 L 28 32 L 24 32 L 24 25 z M 29 25 L 32 25 L 32 32 L 29 32 L 29 25 z M 15 26 L 15 27 L 16 27 L 16 26 L 15 26 z M 15 28 L 15 29 L 16 29 L 16 28 L 15 28 z "
     id="rect4215" />
  <rect
     style="color:#000000;text-decoration:none;text-decoration-line:none;text-decoration-style:solid;text-decoration-color:#000000;clip-rule:nonzero;display:inline;overflow:visible;visibility:visible;opacity:1;isolation:auto;mix-blend-mode:normal;color-interpolation:sRGB;color-interpolation-filters:linearRGB;solid-color:#000000;solid-opacity:1;fill:#4b77be;fill-opacity:1;fill-rule:nonzero;stroke:none;stroke-width:1;stroke-linecap:butt;stroke-linejoin:miter;stroke-miterlimit:4;stroke-dasharray:none;stroke-dashoffset:0;stroke-opacity:1;color-rendering:auto;image-rendering:auto;shape-rendering:auto;text-rendering:auto;enable-background:accumulate"
     id="rect4263"
     width="1"
     height="1"
     x="-7"
     y="19.000029"
     ry="2.35182e-07" />
  <rect
     style="color:#000000;text-decoration:none;text-decoration-line:none;text-decoration-style:solid;text-decoration-color:#000000;clip-rule:nonzero;display:inline;overflow:visible;visibility:visible;opacity:1;isolation:auto;mix-blend-mode:normal;color-interpolation:sRGB;color-interpolation-filters:linearRGB;solid-color:#000000;solid-opacity:1;fill:#7396cd;fill-opacity:1;fill-rule:nonzero;stroke:none;stroke-width:1;stroke-linecap:butt;stroke-linejoin:miter;stroke-miterlimit:4;stroke-dasharray:none;stroke-dashoffset:0;stroke-opacity:1;color-rendering:auto;image-rendering:auto;shape-rendering:auto;text-rendering:auto;enable-background:accumulate"
     id="rect4263-9"
     width="1"
     height="1"
     x="-7"
     y="21.000029"
     ry="2.35182e-07" />
  <rect
     style="color:#000000;text-decoration:none;text-decoration-line:none;text-decoration-style:solid;text-decoration-color:#000000;clip-rule:nonzero;display:inline;overflow:visible;visibility:visible;opacity:1;isolation:auto;mix-blend-mode:normal;color-interpolation:sRGB;color-interpolation-filters:linearRGB;solid-color:#000000;solid-opacity:1;fill:#dde5f3;fill-opacity:1;fill-rule:nonzero;stroke:none;stroke-width:1;stroke-linecap:butt;stroke-linejoin:miter;stroke-miterlimit:4;stroke-dasharray:none;stroke-dashoffset:0;stroke-opacity:1;color-rendering:auto;image-rendering:auto;shape-rendering:auto;text-rendering:auto;enable-background:accumulate"
     id="rect4263-2"
     width="1"
     height="1"
     x="-7"
     y="23.000029"
     ry="2.35182e-07" />
  <path
     style="fill:#7396cd;fill-opacity:1;stroke:none;stroke-width:0.28222224px;stroke-linecap:butt;stroke-linejoin:miter;stroke-opacity:1"
     d="m 29.999934,3.999931 0,11.00016 11.000061,0 z"
     id="path4151"
     inkscape:connector-curvature="0" />
  <path
     inkscape:connector-curvature="0"
     id="path4252"
     d="m 40.999995,26.000252 0,-11.000161 -11.000061,0 z"
     style="fill:#000000;fill-opacity:0.11764706;stroke:none" />
</svg>
