<?xml version="1.0" encoding="UTF-8" standalone="no"?>
<!-- Created using Karbon, part of Calligra: http://www.calligra.org/karbon -->

<svg
   xmlns:dc="http://purl.org/dc/elements/1.1/"
   xmlns:cc="http://creativecommons.org/ns#"
   xmlns:rdf="http://www.w3.org/1999/02/22-rdf-syntax-ns#"
   xmlns:svg="http://www.w3.org/2000/svg"
   xmlns="http://www.w3.org/2000/svg"
   xmlns:sodipodi="http://sodipodi.sourceforge.net/DTD/sodipodi-0.dtd"
   xmlns:inkscape="http://www.inkscape.org/namespaces/inkscape"
   width="48"
   height="48"
   id="svg2"
   version="1.1"
   inkscape:version="0.91pre2 r"
   sodipodi:docname="application-x-qet-project.svg">
  <metadata
     id="metadata30">
    <rdf:RDF>
      <cc:Work
         rdf:about="">
        <dc:format>image/svg+xml</dc:format>
        <dc:type
           rdf:resource="http://purl.org/dc/dcmitype/StillImage" />
        <dc:title></dc:title>
      </cc:Work>
    </rdf:RDF>
  </metadata>
  <sodipodi:namedview
     pagecolor="#ffffff"
     bordercolor="#666666"
     borderopacity="1"
     objecttolerance="10"
     gridtolerance="10"
     guidetolerance="10"
     inkscape:pageopacity="0"
     inkscape:pageshadow="2"
     inkscape:window-width="1366"
     inkscape:window-height="672"
     id="namedview28"
     showgrid="true"
     inkscape:showpageshadow="false"
     borderlayer="true"
     units="px"
     inkscape:zoom="6.9532164"
     inkscape:cx="2.2774025"
     inkscape:cy="23.458605"
     inkscape:window-x="-4"
     inkscape:window-y="25"
     inkscape:window-maximized="1"
     inkscape:current-layer="svg2">
    <sodipodi:guide
       position="7,44"
       orientation="40,0"
       id="guide4181" />
    <sodipodi:guide
       position="7,4"
       orientation="0,34"
       id="guide4183" />
    <sodipodi:guide
       position="41,4"
       orientation="-29,0"
       id="guide4185" />
    <sodipodi:guide
       position="41,33"
       orientation="-11,-11"
       id="guide4187" />
    <sodipodi:guide
       position="30,44"
       orientation="0,-23"
       id="guide4189" />
    <inkscape:grid
       type="xygrid"
       id="grid4191" />
    <sodipodi:guide
       position="0,48"
       orientation="48,0"
       id="guide4197" />
    <sodipodi:guide
       position="0,0"
       orientation="0,48"
       id="guide4199" />
    <sodipodi:guide
       position="48,0"
       orientation="-48,0"
       id="guide4201" />
    <sodipodi:guide
       position="48,48"
       orientation="0,-48"
       id="guide4203" />
    <sodipodi:guide
       position="15,33"
       orientation="18,0"
       id="guide4205" />
    <sodipodi:guide
       position="15,15"
       orientation="0,18"
       id="guide4207" />
    <sodipodi:guide
       position="33,15"
       orientation="-18,0"
       id="guide4209" />
    <sodipodi:guide
       position="33,33"
       orientation="0,-18"
       id="guide4211" />
  </sodipodi:namedview>
  <defs
     id="defs4" />
  <path
     sodipodi:nodetypes="cccccc"
     id="rect4090"
     d="m 6.999996,4.0000693 0,39.9999997 34,0 0,-29 -11,-10.9999997 z"
     style="fill:#26a65b;fill-opacity:1;stroke:none"
     inkscape:connector-curvature="0" />
  <rect
     ry="2.35182e-07"
     y="19.000029"
     x="-7"
     height="1"
     width="1"
     id="rect4263"
     style="color:#000000;text-decoration:none;text-decoration-line:none;text-decoration-style:solid;text-decoration-color:#000000;clip-rule:nonzero;display:inline;overflow:visible;visibility:visible;opacity:1;isolation:auto;mix-blend-mode:normal;color-interpolation:sRGB;color-interpolation-filters:linearRGB;solid-color:#000000;solid-opacity:1;fill:#26a65b;fill-opacity:1;fill-rule:nonzero;stroke:none;stroke-width:1;stroke-linecap:butt;stroke-linejoin:miter;stroke-miterlimit:4;stroke-dasharray:none;stroke-dashoffset:0;stroke-opacity:1;color-rendering:auto;image-rendering:auto;shape-rendering:auto;text-rendering:auto;enable-background:accumulate" />
  <rect
     ry="2.35182e-07"
     y="21.000029"
     x="-7"
     height="1"
     width="1"
     id="rect4263-9"
     style="color:#000000;text-decoration:none;text-decoration-line:none;text-decoration-style:solid;text-decoration-color:#000000;clip-rule:nonzero;display:inline;overflow:visible;visibility:visible;opacity:1;isolation:auto;mix-blend-mode:normal;color-interpolation:sRGB;color-interpolation-filters:linearRGB;solid-color:#000000;solid-opacity:1;fill:#34d075;fill-opacity:1;fill-rule:nonzero;stroke:none;stroke-width:1;stroke-linecap:butt;stroke-linejoin:miter;stroke-miterlimit:4;stroke-dasharray:none;stroke-dashoffset:0;stroke-opacity:1;color-rendering:auto;image-rendering:auto;shape-rendering:auto;text-rendering:auto;enable-background:accumulate" />
  <rect
     ry="2.35182e-07"
     y="23.000029"
     x="-7"
     height="1"
     width="1"
     id="rect4263-2"
     style="color:#000000;text-decoration:none;text-decoration-line:none;text-decoration-style:solid;text-decoration-color:#000000;clip-rule:nonzero;display:inline;overflow:visible;visibility:visible;opacity:1;isolation:auto;mix-blend-mode:normal;color-interpolation:sRGB;color-interpolation-filters:linearRGB;solid-color:#000000;solid-opacity:1;fill:#a9ebc4;fill-opacity:1;fill-rule:nonzero;stroke:none;stroke-width:1;stroke-linecap:butt;stroke-linejoin:miter;stroke-miterlimit:4;stroke-dasharray:none;stroke-dashoffset:0;stroke-opacity:1;color-rendering:auto;image-rendering:auto;shape-rendering:auto;text-rendering:auto;enable-background:accumulate" />
  <path
     inkscape:connector-curvature="0"
     id="path4151"
     d="m 29.999934,3.999931 0,11.00016 11.000061,0 z"
     style="fill:#34d075;fill-opacity:1;stroke:none;stroke-width:0.28222224px;stroke-linecap:butt;stroke-linejoin:miter;stroke-opacity:1" />
  <path
     style="fill:#000000;fill-opacity:0.11764706;stroke:none"
     d="m 40.999995,26.000252 0,-11.000161 -11.000061,0 z"
     id="path4252"
     inkscape:connector-curvature="0" />
  <path
     style="color:#000000;text-decoration:none;text-decoration-line:none;text-decoration-style:solid;text-decoration-color:#000000;clip-rule:nonzero;display:inline;overflow:visible;visibility:visible;opacity:1;isolation:auto;mix-blend-mode:normal;color-interpolation:sRGB;color-interpolation-filters:linearRGB;solid-color:#000000;solid-opacity:1;fill:#a9ebc4;fill-opacity:1;fill-rule:nonzero;stroke:none;stroke-width:1;stroke-linecap:butt;stroke-linejoin:miter;stroke-miterlimit:4;stroke-dasharray:none;stroke-dashoffset:0;stroke-opacity:1;color-rendering:auto;image-rendering:auto;shape-rendering:auto;text-rendering:auto;enable-background:accumulate"
     d="M 18.900391 15 L 18.900391 17 L 19.900391 17 L 19.900391 15 L 18.900391 15 z M 20.900391 15 L 20.900391 18 L 21.900391 18 L 21.900391 15 L 20.900391 15 z M 25.900391 15 L 25.900391 18 L 26.900391 18 L 26.900391 15 L 25.900391 15 z M 27.900391 15 L 27.900391 17 L 28.900391 17 L 28.900391 15 L 27.900391 15 z M 22.900391 17 L 22.900391 18 L 24.900391 18 L 24.900391 17 L 22.900391 17 z M 15 19 L 15 20 L 17 20 L 17 19 L 15 19 z M 19 19 L 19 29 L 29 29 L 29 19 L 19 19 z M 30.900391 19 L 30.900391 20 L 32.900391 20 L 32.900391 19 L 30.900391 19 z M 15 21 L 15 22 L 18 22 L 18 21 L 15 21 z M 29.900391 21 L 29.900391 22 L 32.900391 22 L 32.900391 21 L 29.900391 21 z M 17 23 L 17 25 L 18 25 L 18 23 L 17 23 z M 29.900391 23 L 29.900391 25 L 30.900391 25 L 30.900391 23 L 29.900391 23 z M 15 26 L 15 27 L 18 27 L 18 26 L 15 26 z M 28 26 L 28 28 L 26 28 L 28 26 z M 29.900391 26 L 29.900391 27 L 32.900391 27 L 32.900391 26 L 29.900391 26 z M 15 28 L 15 29 L 17 29 L 17 28 L 15 28 z M 30.900391 28 L 30.900391 29 L 32.900391 29 L 32.900391 28 L 30.900391 28 z M 21 30 L 21 33 L 22 33 L 22 30 L 21 30 z M 23 30 L 23 31 L 25 31 L 25 30 L 23 30 z M 26 30 L 26 33 L 27 33 L 27 30 L 26 30 z M 19 31 L 19 33 L 20 33 L 20 31 L 19 31 z M 28 31 L 28 33 L 29 33 L 29 31 L 28 31 z "
     id="rect4254" />
</svg>
