<?xml version="1.0" encoding="UTF-8" standalone="no"?>
<!-- Created using Karbon, part of Calligra: http://www.calligra.org/karbon -->

<svg
   xmlns:dc="http://purl.org/dc/elements/1.1/"
   xmlns:cc="http://creativecommons.org/ns#"
   xmlns:rdf="http://www.w3.org/1999/02/22-rdf-syntax-ns#"
   xmlns:svg="http://www.w3.org/2000/svg"
   xmlns="http://www.w3.org/2000/svg"
   xmlns:sodipodi="http://sodipodi.sourceforge.net/DTD/sodipodi-0.dtd"
   xmlns:inkscape="http://www.inkscape.org/namespaces/inkscape"
   width="48"
   height="48"
   id="svg2"
   version="1.1"
   inkscape:version="0.91pre2 r"
   sodipodi:docname="application-x-cue.svg">
  <metadata
     id="metadata18">
    <rdf:RDF>
      <cc:Work
         rdf:about="">
        <dc:format>image/svg+xml</dc:format>
        <dc:type
           rdf:resource="http://purl.org/dc/dcmitype/StillImage" />
        <dc:title></dc:title>
      </cc:Work>
    </rdf:RDF>
  </metadata>
  <sodipodi:namedview
     pagecolor="#ffffff"
     bordercolor="#666666"
     borderopacity="1"
     objecttolerance="10"
     gridtolerance="10"
     guidetolerance="10"
     inkscape:pageopacity="0"
     inkscape:pageshadow="2"
     inkscape:window-width="1366"
     inkscape:window-height="672"
     id="namedview16"
     showgrid="true"
     inkscape:showpageshadow="false"
     borderlayer="true"
     units="px"
     inkscape:zoom="6.9532164"
     inkscape:cx="14.478261"
     inkscape:cy="26.021177"
     inkscape:window-x="-4"
     inkscape:window-y="25"
     inkscape:window-maximized="1"
     inkscape:current-layer="svg2">
    <inkscape:grid
       type="xygrid"
       id="grid4147" />
    <sodipodi:guide
       position="0,48"
       orientation="48,0"
       id="guide4203" />
    <sodipodi:guide
       position="0,0"
       orientation="0,48"
       id="guide4205" />
    <sodipodi:guide
       position="48,0"
       orientation="-48,0"
       id="guide4207" />
    <sodipodi:guide
       position="48,48"
       orientation="0,-48"
       id="guide4209" />
    <sodipodi:guide
       position="15,33"
       orientation="18,0"
       id="guide4211" />
    <sodipodi:guide
       position="15,15"
       orientation="0,18"
       id="guide4213" />
    <sodipodi:guide
       position="33,15"
       orientation="-18,0"
       id="guide4215" />
    <sodipodi:guide
       position="33,33"
       orientation="0,-18"
       id="guide4217" />
  </sodipodi:namedview>
  <defs
     id="defs4" />
  <path
     inkscape:connector-curvature="0"
     style="fill:#ecf0f1;fill-opacity:1;stroke:none"
     d="m 6.9999962,4.0000694 0,39.9999996 33.9999998,0 0,-29 -11,-10.9999996 z"
     id="rect4090-2"
     sodipodi:nodetypes="cccccc" />
  <path
     style="fill:#6c7a89;fill-opacity:1;stroke:none;stroke-width:0.28222224px;stroke-linecap:butt;stroke-linejoin:miter;stroke-opacity:1"
     d="m 29.999934,3.9999311 0,11.0001599 11.000061,0 z"
     id="path4151-1"
     inkscape:connector-curvature="0" />
  <path
     inkscape:connector-curvature="0"
     id="path4252-9"
     d="m 40.999995,26.000252 0,-11.000161 -11.000061,0 z"
     style="fill:#000000;fill-opacity:0.11764706;stroke:none" />
  <rect
     style="color:#000000;text-decoration:none;text-decoration-line:none;text-decoration-style:solid;text-decoration-color:#000000;clip-rule:nonzero;display:inline;overflow:visible;visibility:visible;opacity:1;isolation:auto;mix-blend-mode:normal;color-interpolation:sRGB;color-interpolation-filters:linearRGB;solid-color:#000000;solid-opacity:1;fill:#ecf0f1;fill-opacity:1;fill-rule:nonzero;stroke:none;stroke-width:1;stroke-linecap:butt;stroke-linejoin:miter;stroke-miterlimit:4;stroke-dasharray:none;stroke-dashoffset:0;stroke-opacity:1;color-rendering:auto;image-rendering:auto;shape-rendering:auto;text-rendering:auto;enable-background:accumulate"
     id="rect4263"
     width="1"
     height="1"
     x="-7"
     y="19.000029"
     ry="2.35182e-07" />
  <rect
     style="color:#000000;text-decoration:none;text-decoration-line:none;text-decoration-style:solid;text-decoration-color:#000000;clip-rule:nonzero;display:inline;overflow:visible;visibility:visible;opacity:1;isolation:auto;mix-blend-mode:normal;color-interpolation:sRGB;color-interpolation-filters:linearRGB;solid-color:#000000;solid-opacity:1;fill:#6c7a89;fill-opacity:1;fill-rule:nonzero;stroke:none;stroke-width:1;stroke-linecap:butt;stroke-linejoin:miter;stroke-miterlimit:4;stroke-dasharray:none;stroke-dashoffset:0;stroke-opacity:1;color-rendering:auto;image-rendering:auto;shape-rendering:auto;text-rendering:auto;enable-background:accumulate"
     id="rect4263-9"
     width="1"
     height="1"
     x="-7"
     y="21.000029"
     ry="2.35182e-07" />
  <rect
     style="color:#000000;text-decoration:none;text-decoration-line:none;text-decoration-style:solid;text-decoration-color:#000000;clip-rule:nonzero;display:inline;overflow:visible;visibility:visible;opacity:1;isolation:auto;mix-blend-mode:normal;color-interpolation:sRGB;color-interpolation-filters:linearRGB;solid-color:#000000;solid-opacity:1;fill:#bdc3c7;fill-opacity:1;fill-rule:nonzero;stroke:none;stroke-width:1;stroke-linecap:butt;stroke-linejoin:miter;stroke-miterlimit:4;stroke-dasharray:none;stroke-dashoffset:0;stroke-opacity:1;color-rendering:auto;image-rendering:auto;shape-rendering:auto;text-rendering:auto;enable-background:accumulate"
     id="rect4263-2"
     width="1"
     height="1"
     x="-7"
     y="23.000029"
     ry="2.35182e-07" />
  <path
     style="color:#000000;text-decoration:none;text-decoration-line:none;text-decoration-style:solid;text-decoration-color:#000000;clip-rule:nonzero;display:inline;overflow:visible;visibility:visible;opacity:1;isolation:auto;mix-blend-mode:normal;color-interpolation:sRGB;color-interpolation-filters:linearRGB;solid-color:#000000;solid-opacity:1;fill:#bdc3c7;fill-opacity:1;fill-rule:nonzero;stroke:none;stroke-width:1;stroke-linecap:butt;stroke-linejoin:miter;stroke-miterlimit:4;stroke-dasharray:none;stroke-dashoffset:0;stroke-opacity:1;color-rendering:auto;image-rendering:auto;shape-rendering:auto;text-rendering:auto;enable-background:accumulate"
     d="M 24 15 C 19.014 15 15 19.014 15 24 C 15 28.297144 17.984371 31.86563 22 32.771484 L 22 31.740234 C 18.543426 30.855553 16 27.739916 16 24 C 16 19.568 19.568 16 24 16 C 27.739916 16 30.855553 18.543426 31.740234 22 L 32.771484 22 C 31.86563 17.984371 28.297144 15 24 15 z M 24 17 C 21.103059 17 18.629385 18.742148 17.5625 21.240234 L 20.322266 22.423828 C 20.931903 20.996325 22.344587 20 24 20 L 24 17 z M 24 21 C 22.54575 21 21.339371 22.02502 21.060547 23.394531 C 21.020715 23.590176 21 23.79225 21 24 C 21 24.200235 21.027183 24.393386 21.064453 24.582031 C 21.074453 24.631831 21.087169 24.679691 21.099609 24.728516 C 21.138939 24.885077 21.189009 25.036262 21.251953 25.181641 C 21.264353 25.210041 21.273849 25.239648 21.287109 25.267578 C 21.453137 25.620297 21.68669 25.930936 21.970703 26.191406 C 21.981563 26.201446 21.989 26.214729 22 26.224609 L 22 26.21875 C 22.289668 26.477378 22.625305 26.685955 23 26.818359 L 23 24 C 23 23.446 23.446 23 24 23 L 26.818359 23 C 26.685955 22.625305 26.477378 22.289668 26.21875 22 L 26.224609 22 C 26.214709 21.989 26.201446 21.981563 26.191406 21.970703 C 25.930936 21.68669 25.620297 21.453137 25.267578 21.287109 C 25.239648 21.273859 25.210051 21.264353 25.181641 21.251953 C 25.036262 21.189013 24.885077 21.138937 24.728516 21.099609 C 24.679686 21.087179 24.631826 21.074433 24.582031 21.064453 C 24.393345 21.027188 24.200235 21 24 21 z M 24 25 L 23 31 L 23 33 L 33 33 L 33 31 L 32 25 L 24 25 z M 30 31 L 31.568359 31 L 31.568359 32 L 30 32 L 30 31 z "
     id="path4226" />
</svg>
