<?xml version="1.0" encoding="UTF-8" standalone="no"?>
<!-- Created using Karbon, part of Calligra: http://www.calligra.org/karbon -->

<svg
   xmlns:dc="http://purl.org/dc/elements/1.1/"
   xmlns:cc="http://creativecommons.org/ns#"
   xmlns:rdf="http://www.w3.org/1999/02/22-rdf-syntax-ns#"
   xmlns:svg="http://www.w3.org/2000/svg"
   xmlns="http://www.w3.org/2000/svg"
   xmlns:sodipodi="http://sodipodi.sourceforge.net/DTD/sodipodi-0.dtd"
   xmlns:inkscape="http://www.inkscape.org/namespaces/inkscape"
   width="48"
   height="48"
   id="svg2"
   version="1.1"
   inkscape:version="0.91pre2 r"
   sodipodi:docname="text-x-copying.svg">
  <metadata
     id="metadata15">
    <rdf:RDF>
      <cc:Work
         rdf:about="">
        <dc:format>image/svg+xml</dc:format>
        <dc:type
           rdf:resource="http://purl.org/dc/dcmitype/StillImage" />
        <dc:title />
      </cc:Work>
    </rdf:RDF>
  </metadata>
  <sodipodi:namedview
     pagecolor="#ffffff"
     bordercolor="#666666"
     borderopacity="1"
     objecttolerance="10"
     gridtolerance="10"
     guidetolerance="10"
     inkscape:pageopacity="0"
     inkscape:pageshadow="2"
     inkscape:window-width="1366"
     inkscape:window-height="672"
     id="namedview13"
     showgrid="true"
     inkscape:showpageshadow="false"
     borderlayer="true"
     units="px"
     inkscape:zoom="13.906433"
     inkscape:cx="22.455002"
     inkscape:cy="21.632356"
     inkscape:window-x="-4"
     inkscape:window-y="25"
     inkscape:window-maximized="1"
     inkscape:current-layer="svg2">
    <inkscape:grid
       type="xygrid"
       id="grid8102" />
    <sodipodi:guide
       position="6.9999962,43.999933"
       orientation="40,0"
       id="guide8106" />
    <sodipodi:guide
       position="6.9999962,3.9999329"
       orientation="0,34"
       id="guide8108" />
    <sodipodi:guide
       position="40.999996,3.9999329"
       orientation="-29,0"
       id="guide8110" />
    <sodipodi:guide
       position="40.999996,32.999933"
       orientation="-11,-11"
       id="guide8112" />
    <sodipodi:guide
       position="29.999996,43.999933"
       orientation="0,-23"
       id="guide8114" />
    <sodipodi:guide
       position="0,48"
       orientation="48,0"
       id="guide8120" />
    <sodipodi:guide
       position="0,0"
       orientation="0,48"
       id="guide8122" />
    <sodipodi:guide
       position="48,0"
       orientation="-48,0"
       id="guide8124" />
    <sodipodi:guide
       position="48,48"
       orientation="0,-48"
       id="guide8126" />
    <sodipodi:guide
       position="15,33"
       orientation="18,0"
       id="guide8128" />
    <sodipodi:guide
       position="15,15"
       orientation="0,18"
       id="guide8130" />
    <sodipodi:guide
       position="33,15"
       orientation="-18,0"
       id="guide8132" />
    <sodipodi:guide
       position="33,33"
       orientation="0,-18"
       id="guide8134" />
  </sodipodi:namedview>
  <defs
     id="defs4" />
  <path
     inkscape:connector-curvature="0"
     style="fill:#ecf0f1;fill-opacity:1;stroke:none"
     d="m 6.9999962,4.0000694 0,39.9999996 33.9999998,0 0,-29 -11,-10.9999996 z"
     id="rect4090-4"
     sodipodi:nodetypes="cccccc" />
  <path
     style="fill:#6c7a89;fill-opacity:1;stroke:none;stroke-width:0.28222224px;stroke-linecap:butt;stroke-linejoin:miter;stroke-opacity:1"
     d="m 29.999934,3.9999311 0,11.0001599 11.000061,0 z"
     id="path4151-6"
     inkscape:connector-curvature="0" />
  <path
     inkscape:connector-curvature="0"
     id="path4252-5"
     d="m 40.999995,26.000252 0,-11.000161 -11.000061,0 z"
     style="fill:#000000;fill-opacity:0.11764706;stroke:none" />
  <rect
     style="color:#000000;text-decoration:none;text-decoration-line:none;text-decoration-style:solid;text-decoration-color:#000000;clip-rule:nonzero;display:inline;overflow:visible;visibility:visible;opacity:1;isolation:auto;mix-blend-mode:normal;color-interpolation:sRGB;color-interpolation-filters:linearRGB;solid-color:#000000;solid-opacity:1;fill:#ecf0f1;fill-opacity:1;fill-rule:nonzero;stroke:none;stroke-width:1;stroke-linecap:butt;stroke-linejoin:miter;stroke-miterlimit:4;stroke-dasharray:none;stroke-dashoffset:0;stroke-opacity:1;color-rendering:auto;image-rendering:auto;shape-rendering:auto;text-rendering:auto;enable-background:accumulate"
     id="rect4263-3"
     width="1"
     height="1"
     x="-7"
     y="19.000029"
     ry="2.35182e-07" />
  <rect
     style="color:#000000;text-decoration:none;text-decoration-line:none;text-decoration-style:solid;text-decoration-color:#000000;clip-rule:nonzero;display:inline;overflow:visible;visibility:visible;opacity:1;isolation:auto;mix-blend-mode:normal;color-interpolation:sRGB;color-interpolation-filters:linearRGB;solid-color:#000000;solid-opacity:1;fill:#6c7a89;fill-opacity:1;fill-rule:nonzero;stroke:none;stroke-width:1;stroke-linecap:butt;stroke-linejoin:miter;stroke-miterlimit:4;stroke-dasharray:none;stroke-dashoffset:0;stroke-opacity:1;color-rendering:auto;image-rendering:auto;shape-rendering:auto;text-rendering:auto;enable-background:accumulate"
     id="rect4263-9-6"
     width="1"
     height="1"
     x="-7"
     y="21.000029"
     ry="2.35182e-07" />
  <rect
     style="color:#000000;text-decoration:none;text-decoration-line:none;text-decoration-style:solid;text-decoration-color:#000000;clip-rule:nonzero;display:inline;overflow:visible;visibility:visible;opacity:1;isolation:auto;mix-blend-mode:normal;color-interpolation:sRGB;color-interpolation-filters:linearRGB;solid-color:#000000;solid-opacity:1;fill:#bdc3c7;fill-opacity:1;fill-rule:nonzero;stroke:none;stroke-width:1;stroke-linecap:butt;stroke-linejoin:miter;stroke-miterlimit:4;stroke-dasharray:none;stroke-dashoffset:0;stroke-opacity:1;color-rendering:auto;image-rendering:auto;shape-rendering:auto;text-rendering:auto;enable-background:accumulate"
     id="rect4263-2-4"
     width="1"
     height="1"
     x="-7"
     y="23.000029"
     ry="2.35182e-07" />
  <path
     style="color:#000000;text-decoration:none;text-decoration-line:none;text-decoration-style:solid;text-decoration-color:#000000;clip-rule:nonzero;display:inline;overflow:visible;visibility:visible;opacity:1;isolation:auto;mix-blend-mode:normal;color-interpolation:sRGB;color-interpolation-filters:linearRGB;solid-color:#000000;solid-opacity:1;fill:#bdc3c7;fill-opacity:1;fill-rule:nonzero;stroke:none;stroke-width:1;stroke-linecap:butt;stroke-linejoin:miter;stroke-miterlimit:4;stroke-dasharray:none;stroke-dashoffset:0;stroke-opacity:1;color-rendering:auto;image-rendering:auto;shape-rendering:auto;text-rendering:auto;enable-background:accumulate"
     d="M 24 15 C 19.014 15 15 19.014 15 24 C 15 28.986 19.014 33 24 33 C 28.986 33 33 28.986 33 24 C 33 19.014 28.986 15 24 15 z M 24 16 C 28.432 16 32 19.568 32 24 C 32 28.432 28.432 32 24 32 C 19.568 32 16 28.432 16 24 C 16 19.568 19.568 16 24 16 z M 21 20 L 21 28 L 22 28 L 22 24.628906 L 22.607422 24.628906 C 22.798377 24.628906 22.96783 24.644834 23.115234 24.677734 C 23.410041 24.740247 23.67565 24.899002 23.910156 25.152344 C 23.997259 25.247758 24.193746 25.50341 24.501953 25.917969 L 26.060547 28 L 27 28 L 27 27.841797 L 25.316406 25.576172 C 25.175703 25.388634 25.009314 25.197409 24.818359 25 C 24.627404 24.802591 24.454885 24.675071 24.300781 24.619141 L 24.300781 24.609375 C 24.66929 24.579764 24.995936 24.517285 25.277344 24.421875 C 25.558751 24.32317 25.778093 24.210962 25.935547 24.085938 C 26.096351 23.957622 26.225669 23.813561 26.326172 23.652344 C 26.426672 23.487837 26.493288 23.338637 26.523438 23.207031 C 26.556938 23.072136 26.572266 22.937015 26.572266 22.798828 L 26.572266 22.042969 C 26.572266 21.924524 26.568684 21.818066 26.558594 21.722656 C 26.551894 21.623952 26.529038 21.502188 26.492188 21.357422 C 26.458687 21.209365 26.411306 21.078045 26.347656 20.962891 C 26.287354 20.847736 26.194266 20.726588 26.070312 20.601562 C 25.94971 20.476539 25.806732 20.373266 25.642578 20.291016 C 25.478424 20.205473 25.270231 20.136624 25.015625 20.083984 C 24.761018 20.028054 24.475063 20 24.160156 20 L 21 20 z M 22 20.419922 L 24 20.419922 C 24.294807 20.419922 24.555397 20.458149 24.783203 20.537109 C 25.011009 20.612782 25.191613 20.718003 25.322266 20.849609 C 25.452919 20.977924 25.549631 21.118802 25.613281 21.273438 C 25.680284 21.424785 25.712891 21.581586 25.712891 21.746094 L 25.712891 22.882812 C 25.712891 23.224987 25.55152 23.531606 25.226562 23.804688 C 24.904955 24.07448 24.477975 24.208984 23.945312 24.208984 L 22 24.208984 L 22 20.419922 z "
     id="rect8138" />
</svg>
