<?xml version="1.0" encoding="UTF-8" standalone="no"?>
<!-- Created using Karbon, part of Calligra: http://www.calligra.org/karbon -->

<svg
   xmlns:dc="http://purl.org/dc/elements/1.1/"
   xmlns:cc="http://creativecommons.org/ns#"
   xmlns:rdf="http://www.w3.org/1999/02/22-rdf-syntax-ns#"
   xmlns:svg="http://www.w3.org/2000/svg"
   xmlns="http://www.w3.org/2000/svg"
   xmlns:sodipodi="http://sodipodi.sourceforge.net/DTD/sodipodi-0.dtd"
   xmlns:inkscape="http://www.inkscape.org/namespaces/inkscape"
   width="48"
   height="48"
   id="svg2"
   version="1.1"
   inkscape:version="0.91pre2 r"
   sodipodi:docname="unknown.svg">
  <metadata
     id="metadata14">
    <rdf:RDF>
      <cc:Work
         rdf:about="">
        <dc:format>image/svg+xml</dc:format>
        <dc:type
           rdf:resource="http://purl.org/dc/dcmitype/StillImage" />
        <dc:title></dc:title>
      </cc:Work>
    </rdf:RDF>
  </metadata>
  <sodipodi:namedview
     pagecolor="#ffffff"
     bordercolor="#666666"
     borderopacity="1"
     objecttolerance="10"
     gridtolerance="10"
     guidetolerance="10"
     inkscape:pageopacity="0"
     inkscape:pageshadow="2"
     inkscape:window-width="1366"
     inkscape:window-height="672"
     id="namedview12"
     showgrid="true"
     inkscape:showpageshadow="false"
     borderlayer="true"
     units="px"
     showguides="true"
     inkscape:zoom="6.9532164"
     inkscape:cx="22.523466"
     inkscape:cy="24.730462"
     inkscape:window-x="-4"
     inkscape:window-y="25"
     inkscape:window-maximized="1"
     inkscape:current-layer="svg2">
    <sodipodi:guide
       position="6.9999962,43.999931"
       orientation="40,0"
       id="guide4186" />
    <sodipodi:guide
       position="6.9999962,3.999931"
       orientation="0,34"
       id="guide4188" />
    <sodipodi:guide
       position="40.999996,3.999931"
       orientation="-29,0"
       id="guide4190" />
    <sodipodi:guide
       position="40.999996,32.999931"
       orientation="-11,-11"
       id="guide4192" />
    <sodipodi:guide
       position="29.999996,43.999931"
       orientation="0,-23"
       id="guide4194" />
    <inkscape:grid
       type="xygrid"
       id="grid4196" />
    <sodipodi:guide
       position="0,48"
       orientation="48,0"
       id="guide4202" />
    <sodipodi:guide
       position="0,0"
       orientation="0,48"
       id="guide4204" />
    <sodipodi:guide
       position="48,0"
       orientation="-48,0"
       id="guide4206" />
    <sodipodi:guide
       position="48,48"
       orientation="0,-48"
       id="guide4208" />
    <sodipodi:guide
       position="15,33"
       orientation="18,0"
       id="guide4210" />
    <sodipodi:guide
       position="15,15"
       orientation="0,18"
       id="guide4212" />
    <sodipodi:guide
       position="33,15"
       orientation="-18,0"
       id="guide4214" />
    <sodipodi:guide
       position="33,33"
       orientation="0,-18"
       id="guide4216" />
  </sodipodi:namedview>
  <defs
     id="defs4" />
  <path
     inkscape:connector-curvature="0"
     style="fill:#ecf0f1;fill-opacity:1;stroke:none"
     d="m 6.9999962,4.0000694 0,39.9999996 33.9999998,0 0,-29 -11,-10.9999996 z"
     id="rect4090"
     sodipodi:nodetypes="cccccc" />
  <path
     style="fill:#6c7a89;fill-opacity:1;stroke:none;stroke-width:0.28222224px;stroke-linecap:butt;stroke-linejoin:miter;stroke-opacity:1"
     d="m 29.999934,3.9999311 0,11.0001599 11.000061,0 z"
     id="path4151"
     inkscape:connector-curvature="0" />
  <path
     inkscape:connector-curvature="0"
     id="path4252"
     d="m 40.999995,26.000252 0,-11.000161 -11.000061,0 z"
     style="fill:#000000;fill-opacity:0.11764706;stroke:none" />
  <rect
     style="color:#000000;text-decoration:none;text-decoration-line:none;text-decoration-style:solid;text-decoration-color:#000000;clip-rule:nonzero;display:inline;overflow:visible;visibility:visible;opacity:1;isolation:auto;mix-blend-mode:normal;color-interpolation:sRGB;color-interpolation-filters:linearRGB;solid-color:#000000;solid-opacity:1;fill:#ecf0f1;fill-opacity:1;fill-rule:nonzero;stroke:none;stroke-width:1;stroke-linecap:butt;stroke-linejoin:miter;stroke-miterlimit:4;stroke-dasharray:none;stroke-dashoffset:0;stroke-opacity:1;color-rendering:auto;image-rendering:auto;shape-rendering:auto;text-rendering:auto;enable-background:accumulate"
     id="rect4263"
     width="1"
     height="1"
     x="-7"
     y="19.000029"
     ry="2.35182e-07" />
  <rect
     style="color:#000000;text-decoration:none;text-decoration-line:none;text-decoration-style:solid;text-decoration-color:#000000;clip-rule:nonzero;display:inline;overflow:visible;visibility:visible;opacity:1;isolation:auto;mix-blend-mode:normal;color-interpolation:sRGB;color-interpolation-filters:linearRGB;solid-color:#000000;solid-opacity:1;fill:#6c7a89;fill-opacity:1;fill-rule:nonzero;stroke:none;stroke-width:1;stroke-linecap:butt;stroke-linejoin:miter;stroke-miterlimit:4;stroke-dasharray:none;stroke-dashoffset:0;stroke-opacity:1;color-rendering:auto;image-rendering:auto;shape-rendering:auto;text-rendering:auto;enable-background:accumulate"
     id="rect4263-9"
     width="1"
     height="1"
     x="-7"
     y="21.000029"
     ry="2.35182e-07" />
  <rect
     style="color:#000000;text-decoration:none;text-decoration-line:none;text-decoration-style:solid;text-decoration-color:#000000;clip-rule:nonzero;display:inline;overflow:visible;visibility:visible;opacity:1;isolation:auto;mix-blend-mode:normal;color-interpolation:sRGB;color-interpolation-filters:linearRGB;solid-color:#000000;solid-opacity:1;fill:#bdc3c7;fill-opacity:1;fill-rule:nonzero;stroke:none;stroke-width:1;stroke-linecap:butt;stroke-linejoin:miter;stroke-miterlimit:4;stroke-dasharray:none;stroke-dashoffset:0;stroke-opacity:1;color-rendering:auto;image-rendering:auto;shape-rendering:auto;text-rendering:auto;enable-background:accumulate"
     id="rect4263-2"
     width="1"
     height="1"
     x="-7"
     y="23.000029"
     ry="2.35182e-07" />
  <g
     style="font-style:normal;font-variant:normal;font-weight:normal;font-stretch:normal;font-size:22.74151802px;line-height:125%;font-family:Resagnicto;-inkscape-font-specification:Resagnicto;letter-spacing:0px;word-spacing:0px;fill:#bdc3c7;fill-opacity:1;stroke:none;stroke-width:1px;stroke-linecap:butt;stroke-linejoin:miter;stroke-opacity:1"
     id="text4218">
    <path
       d="m 23.056139,25.282541 0,2.032079 -0.954966,0 q -0.466379,-1.521283 -0.466379,-2.742751 0,-0.755089 0.28871,-1.388032 0.288711,-0.632943 0.743986,-1.066009 0.455274,-0.433066 1.010487,-0.799506 0.566317,-0.377545 1.12153,-0.699568 0.555213,-0.333128 1.010487,-0.655152 0.455275,-0.322023 0.743986,-0.743985 0.28871,-0.421962 0.28871,-0.910549 0,-0.943862 -0.843923,-1.654534 -0.843924,-0.710673 -2.287477,-0.710673 -0.632943,0 -1.154843,0.07773 -0.510796,0.06663 -0.788402,0.144356 -0.266502,0.07773 -0.943862,0.310919 -0.666255,0.233189 -1.088217,0.36644 L 19.258483,15.755089 Q 21.301666,15 23.766811,15 q 1.332511,0 2.32079,0.266502 0.999383,0.255398 1.554596,0.721777 0.566317,0.455274 0.832819,1.010487 0.266502,0.544108 0.266502,1.19926 0,0.866132 -0.310919,1.576804 -0.310919,0.710673 -0.821715,1.188156 -0.499692,0.477483 -1.110426,0.88834 -0.59963,0.410858 -1.210364,0.777298 -0.59963,0.355336 -1.110425,0.721777 -0.499692,0.36644 -0.810611,0.855028 -0.310919,0.488587 -0.310919,1.077112 z m 0.466378,6.296114 0,0.943862 q 0,0.199877 -0.03331,0.277606 -0.02221,0.07773 -0.177668,0.144356 Q 23.156077,33 22.811845,33 l -0.466379,0 q -0.466379,0 -0.588525,-0.09994 -0.122147,-0.09994 -0.122147,-0.377545 l 0,-0.943862 q 0,-0.122147 0.0111,-0.177668 0.0111,-0.05552 0.06663,-0.133251 0.06663,-0.08883 0.222085,-0.122147 0.155459,-0.04442 0.410857,-0.04442 l 0.466379,0 q 0.333128,0 0.488587,0.06663 0.166564,0.06662 0.188773,0.155459 0.03331,0.07773 0.03331,0.255398 z"
       style=""
       id="path4223" />
  </g>
</svg>
