<?xml version="1.0" encoding="UTF-8" standalone="no"?>
<!-- Created with Inkscape (http://www.inkscape.org/) -->

<svg
   xmlns:dc="http://purl.org/dc/elements/1.1/"
   xmlns:cc="http://creativecommons.org/ns#"
   xmlns:rdf="http://www.w3.org/1999/02/22-rdf-syntax-ns#"
   xmlns:svg="http://www.w3.org/2000/svg"
   xmlns="http://www.w3.org/2000/svg"
   xmlns:sodipodi="http://sodipodi.sourceforge.net/DTD/sodipodi-0.dtd"
   xmlns:inkscape="http://www.inkscape.org/namespaces/inkscape"
   width="24"
   height="24"
   id="svg3409"
   version="1.1"
   inkscape:version="0.48+devel r12667"
   sodipodi:docname="emblem-dropbox-uptodate.svg">
  <defs
     id="defs3411" />
  <sodipodi:namedview
     id="base"
     pagecolor="#ffffff"
     bordercolor="#666666"
     borderopacity="1.0"
     inkscape:pageopacity="0.0"
     inkscape:pageshadow="2"
     inkscape:zoom="16.538107"
     inkscape:cx="12.810198"
     inkscape:cy="14.040681"
     inkscape:current-layer="layer1"
     showgrid="true"
     inkscape:grid-bbox="true"
     inkscape:document-units="px"
     inkscape:window-width="1366"
     inkscape:window-height="714"
     inkscape:window-x="0"
     inkscape:window-y="30"
     inkscape:window-maximized="1"
     width="0px"
     height="0px"
     fit-margin-top="0"
     fit-margin-left="0"
     fit-margin-right="0"
     fit-margin-bottom="0" />
  <metadata
     id="metadata3414">
    <rdf:RDF>
      <cc:Work
         rdf:about="">
        <dc:format>image/svg+xml</dc:format>
        <dc:type
           rdf:resource="http://purl.org/dc/dcmitype/StillImage" />
        <dc:title></dc:title>
      </cc:Work>
    </rdf:RDF>
  </metadata>
  <g
     id="layer1"
     inkscape:label="Layer 1"
     inkscape:groupmode="layer"
     transform="translate(0,-24)">
    <path
       style="fill:#3498db;fill-opacity:1;stroke-width:0.2;stroke-linejoin:round"
       d="M 8.6142458,28.5 3.563367,31.608233 6.7409803,34.203052 11.791859,31.136448 8.6142458,28.5 Z m 6.7715082,0 -3.19149,2.636448 5.05088,3.066604 3.191489,-2.594819 L 15.385754,28.5 Z m -8.6725257,6.216466 -2.6364478,2.234044 -0.2775208,0.235892 2.6503238,1.54024 2.1924144,1.290471 2.8168371,-2.428306 -4.7456067,-2.872341 z m 10.5596667,0 -4.745606,2.872341 2.816835,2.428306 4.84274,-2.830711 -0.263645,-0.235892 -2.650324,-2.234044 z m -5.481036,3.135985 -3.2192413,2.636448 -1.6234967,-0.874191 0,0.444034 0,0.471784 0.7770583,0.471787 4.0656797,2.497687 0,-5.647549 z m 0.402405,0 0,5.647549 4.84274,-2.969474 0,-0.915818 -0.818688,0.444034 -0.80481,0.430157 -3.219242,-2.636448 z"
       id="path834"
       inkscape:connector-curvature="0" />
  </g>
</svg>
