<?xml version="1.0" encoding="UTF-8" standalone="no"?>
<!-- Created with Inkscape (http://www.inkscape.org/) -->

<svg
   xmlns:dc="http://purl.org/dc/elements/1.1/"
   xmlns:cc="http://creativecommons.org/ns#"
   xmlns:rdf="http://www.w3.org/1999/02/22-rdf-syntax-ns#"
   xmlns:svg="http://www.w3.org/2000/svg"
   xmlns="http://www.w3.org/2000/svg"
   xmlns:sodipodi="http://sodipodi.sourceforge.net/DTD/sodipodi-0.dtd"
   xmlns:inkscape="http://www.inkscape.org/namespaces/inkscape"
   width="24"
   height="24"
   id="svg2"
   version="1.1"
   inkscape:version="0.48+devel r12667"
   sodipodi:docname="emblem-important.svg">
  <defs
     id="defs4" />
  <sodipodi:namedview
     id="base"
     pagecolor="#ffffff"
     bordercolor="#666666"
     borderopacity="1.0"
     inkscape:pageopacity="0.0"
     inkscape:pageshadow="2"
     inkscape:zoom="19.986137"
     inkscape:cx="3.8779336"
     inkscape:cy="12.867482"
     inkscape:document-units="px"
     inkscape:current-layer="layer1"
     showgrid="false"
     inkscape:window-width="1366"
     inkscape:window-height="714"
     inkscape:window-x="0"
     inkscape:window-y="30"
     inkscape:window-maximized="1">
    <sodipodi:guide
       position="4.5,19.500017"
       orientation="15,0"
       id="guide3264" />
    <sodipodi:guide
       position="4.5,4.5000174"
       orientation="0,15"
       id="guide3266" />
    <sodipodi:guide
       position="19.5,4.5000174"
       orientation="-15,0"
       id="guide3268" />
    <sodipodi:guide
       position="19.5,19.500017"
       orientation="0,-15"
       id="guide3270" />
  </sodipodi:namedview>
  <metadata
     id="metadata7">
    <rdf:RDF>
      <cc:Work
         rdf:about="">
        <dc:format>image/svg+xml</dc:format>
        <dc:type
           rdf:resource="http://purl.org/dc/dcmitype/StillImage" />
        <dc:title></dc:title>
      </cc:Work>
    </rdf:RDF>
  </metadata>
  <g
     inkscape:label="Capa 1"
     inkscape:groupmode="layer"
     id="layer1"
     transform="translate(0,-1028.3622)">
    <rect
       style="fill:none;stroke:none"
       id="rect3260"
       width="15"
       height="15"
       x="4.5"
       y="1032.8622" />
    <path
       style="fill:#34495e;fill-opacity:1;fill-rule:evenodd;stroke:none"
       d="M 11.996094 4.5 C 8.0688302 4.5002328 4.5 8.0733262 4.5 12 C 4.5 15.926674 8.0688302 19.499767 11.996094 19.5 C 15.923357 19.500233 19.5 15.927112 19.5 12 C 19.5 8.0728883 15.923357 4.4997672 11.996094 4.5 z M 11.998047 6.5 C 14.87804 6.4998293 17.5 9.1201184 17.5 12 C 17.5 14.879882 14.87804 17.500171 11.998047 17.5 C 9.1180535 17.499829 6.5 14.879561 6.5 12 C 6.5 9.1204395 9.1180535 6.5001707 11.998047 6.5 z "
       transform="translate(0,1028.3622)"
       id="path3274" />
    <path
       d="m 13,1046.8622 c 0,0.5236 -0.476815,1 -1.00045,1 -0.523635,0 -0.99955,-0.4765 -0.99955,-1 0,-0.5236 0.475915,-1 0.99955,-1 0.523635,0 1.00045,0.4764 1.00045,1 z"
       sodipodi:ry="1.0000308"
       sodipodi:rx="1.0006928"
       sodipodi:cy="1046.8622"
       sodipodi:cx="11.999307"
       id="path3276"
       style="fill:none;fill-opacity:1;fill-rule:evenodd;stroke:none"
       sodipodi:type="arc" />
    <path
       style="fill:#34495e;fill-opacity:1;fill-rule:evenodd;stroke:none"
       d="m 12.999999,1042.8622 c 0,-0.5236 -0.476815,-1.0001 -1.00045,-1 -0.523635,0 -0.99955,0.4764 -0.99955,1 0,0.5236 0.475915,1 0.99955,1 0.523635,10e-5 1.00045,-0.4763 1.00045,-1 z"
       id="path3285"
       inkscape:connector-curvature="0" />
    <path
       sodipodi:type="arc"
       style="fill:none;fill-opacity:1;fill-rule:evenodd;stroke:none"
       id="path3267"
       sodipodi:cx="11.999307"
       sodipodi:cy="1033.8622"
       sodipodi:rx="1.0006928"
       sodipodi:ry="1.0000308"
       d="m 13,1033.8622 a 1.0006928,1.0000308 0 1 1 0,0 1.0006928,1.0000308 0 1 1 0,0 z" />
    <path
       d="m 13,1035.8622 a 1.0006928,1.0000308 0 1 1 0,0 1.0006928,1.0000308 0 1 1 0,0 z"
       sodipodi:ry="1.0000308"
       sodipodi:rx="1.0006928"
       sodipodi:cy="1035.8622"
       sodipodi:cx="11.999307"
       id="path3269"
       style="fill:none;fill-opacity:1;fill-rule:evenodd;stroke:none"
       sodipodi:type="arc" />
    <path
       sodipodi:type="arc"
       style="fill:none;fill-opacity:1;fill-rule:evenodd;stroke:none"
       id="path3271"
       sodipodi:cx="11.999307"
       sodipodi:cy="1044.8622"
       sodipodi:rx="1.0006928"
       sodipodi:ry="1.0000308"
       d="m 13,1044.8622 a 1.0006928,1.0000308 0 1 1 0,0 1.0006928,1.0000308 0 1 1 0,0 z" />
    <rect
       style="fill:#34495e;fill-opacity:1;fill-rule:evenodd;stroke:none"
       id="rect3273"
       width="2"
       height="3.999999"
       x="10.999999"
       y="-1040.8622"
       transform="scale(1,-1)" />
  </g>
</svg>
