<?xml version="1.0" encoding="UTF-8" standalone="no"?>
<!-- Created with Inkscape (http://www.inkscape.org/) -->

<svg
   xmlns:dc="http://purl.org/dc/elements/1.1/"
   xmlns:cc="http://creativecommons.org/ns#"
   xmlns:rdf="http://www.w3.org/1999/02/22-rdf-syntax-ns#"
   xmlns:svg="http://www.w3.org/2000/svg"
   xmlns="http://www.w3.org/2000/svg"
   xmlns:sodipodi="http://sodipodi.sourceforge.net/DTD/sodipodi-0.dtd"
   xmlns:inkscape="http://www.inkscape.org/namespaces/inkscape"
   width="64"
   height="64"
   viewBox="0 0 64 64.000003"
   id="svg2"
   version="1.1"
   inkscape:version="0.91+devel r"
   sodipodi:docname="accessories-character-map.svg">
  <defs
     id="defs4" />
  <sodipodi:namedview
     id="base"
     pagecolor="#ffffff"
     bordercolor="#666666"
     borderopacity="1.0"
     inkscape:pageopacity="0.0"
     inkscape:pageshadow="2"
     inkscape:zoom="15.999999"
     inkscape:cx="23.820099"
     inkscape:cy="6.2864433"
     inkscape:document-units="px"
     inkscape:current-layer="layer1"
     showgrid="true"
     units="px"
     inkscape:showpageshadow="false"
     borderlayer="true"
     inkscape:window-width="2560"
     inkscape:window-height="1024"
     inkscape:window-x="-4"
     inkscape:window-y="29"
     inkscape:window-maximized="1">
    <inkscape:grid
       type="xygrid"
       id="grid4136" />
    <sodipodi:guide
       position="5,59.000069"
       orientation="54,0"
       id="guide4142" />
    <sodipodi:guide
       position="5,5.0000688"
       orientation="0,54"
       id="guide4144" />
    <sodipodi:guide
       position="59,5.0000688"
       orientation="-54,0"
       id="guide4146" />
    <sodipodi:guide
       position="59,59.000069"
       orientation="0,-54"
       id="guide4148" />
    <sodipodi:guide
       position="0,64.000069"
       orientation="64,0"
       id="guide4150" />
    <sodipodi:guide
       position="0,6.875e-05"
       orientation="0,64"
       id="guide4152" />
    <sodipodi:guide
       position="64,6.875e-05"
       orientation="-64,0"
       id="guide4154" />
    <sodipodi:guide
       position="64,64.000069"
       orientation="0,-64"
       id="guide4156" />
    <sodipodi:guide
       position="13,50.999947"
       orientation="38,0"
       id="guide4155" />
    <sodipodi:guide
       position="13,12.999947"
       orientation="0,38"
       id="guide4157" />
    <sodipodi:guide
       position="51,12.999947"
       orientation="-38,0"
       id="guide4159" />
    <sodipodi:guide
       position="51,50.999947"
       orientation="0,-38"
       id="guide4161" />
  </sodipodi:namedview>
  <metadata
     id="metadata7">
    <rdf:RDF>
      <cc:Work
         rdf:about="">
        <dc:format>image/svg+xml</dc:format>
        <dc:type
           rdf:resource="http://purl.org/dc/dcmitype/StillImage" />
        <dc:title />
      </cc:Work>
    </rdf:RDF>
  </metadata>
  <g
     inkscape:label="Capa 1"
     inkscape:groupmode="layer"
     id="layer1"
     transform="translate(0,-1058.5196)">
    <rect
       style="fill:#2c3e50;fill-opacity:1;stroke:none"
       id="rect4148"
       width="54"
       height="54"
       x="5"
       y="1063.5195"
       ry="1.0000688" />
    <path
       style="font-style:normal;font-variant:normal;font-weight:normal;font-stretch:normal;font-size:medium;line-height:125%;font-family:'Abyssinica SIL';-inkscape-font-specification:'Abyssinica SIL';letter-spacing:0px;word-spacing:0px;fill:#ecf0f1;fill-opacity:1;stroke:none;stroke-width:1px;stroke-linecap:butt;stroke-linejoin:miter;stroke-opacity:1"
       d="M 22.523438 20.558594 L 14.902344 41.236328 L 13 41.636719 L 13 43.042969 L 19.583984 43.042969 L 19.583984 41.636719 L 17.650391 41.476562 C 17.554511 41.476562 17.447263 41.417981 17.330078 41.300781 C 17.223546 41.172981 17.169922 41.043882 17.169922 40.916016 C 17.169922 40.873349 17.176847 40.841646 17.1875 40.820312 L 19.359375 34.923828 L 26.917969 34.923828 L 29.171875 40.916016 C 29.182528 40.926682 29.1875 40.953427 29.1875 40.996094 C 29.1875 41.09196 29.150744 41.199206 29.076172 41.316406 C 29.001599 41.42294 28.921164 41.476562 28.835938 41.476562 L 26.951172 41.636719 L 26.951172 43.042969 L 34.732422 43.042969 L 34.732422 41.636719 L 33.261719 41.380859 C 33.016695 41.338259 32.857776 41.279611 32.783203 41.205078 C 32.719284 41.130478 32.650745 40.981546 32.576172 40.757812 L 24.984375 20.558594 L 22.523438 20.558594 z M 23.115234 24.777344 L 26.328125 33.357422 L 19.935547 33.357422 L 23.115234 24.777344 z M 43.570312 26.871094 C 42.760669 26.871094 41.950269 26.944617 41.140625 27.09375 C 40.330981 27.242883 39.601018 27.477275 38.951172 27.796875 C 38.301327 28.116475 37.773963 28.521652 37.369141 29.011719 C 36.964319 29.491119 36.761719 30.067148 36.761719 30.738281 C 36.761719 30.940681 36.793502 31.104555 36.857422 31.232422 C 36.931994 31.349555 37.027346 31.446884 37.144531 31.521484 C 37.261717 31.585351 37.390805 31.627104 37.529297 31.648438 C 37.678442 31.669771 37.827417 31.679688 37.976562 31.679688 L 40.357422 31.679688 L 40.357422 28.835938 C 40.51722 28.772004 40.800256 28.686611 41.205078 28.580078 C 41.6099 28.473545 42.098555 28.419922 42.673828 28.419922 C 43.728496 28.419922 44.502139 28.686083 44.992188 29.21875 C 45.482235 29.74075 45.726562 30.551171 45.726562 31.648438 L 45.726562 33.054688 C 44.299033 33.363621 43.063546 33.673489 42.019531 33.982422 C 40.98617 34.280689 40.107231 34.583645 39.382812 34.892578 C 38.669048 35.201578 38.08806 35.516404 37.640625 35.835938 C 37.203843 36.144938 36.864165 36.46968 36.619141 36.810547 C 36.374117 37.15148 36.208273 37.503034 36.123047 37.865234 C 36.048474 38.227434 36.011719 38.610825 36.011719 39.015625 C 36.011719 39.708092 36.117013 40.325807 36.330078 40.869141 C 36.553795 41.412474 36.858672 41.876299 37.242188 42.259766 C 37.625703 42.643299 38.07263 42.936272 38.583984 43.138672 C 39.105992 43.341072 39.665139 43.441406 40.261719 43.441406 C 40.581315 43.441406 40.901107 43.409703 41.220703 43.345703 C 41.550953 43.28177 41.870745 43.191419 42.179688 43.074219 C 42.499284 42.967685 42.807179 42.845498 43.105469 42.707031 C 43.403759 42.568498 43.686794 42.424524 43.953125 42.275391 C 44.560358 41.934524 45.151289 41.546175 45.726562 41.109375 L 46.158203 43.042969 L 51 43.042969 L 51 41.763672 L 49.417969 41.667969 C 49.226211 41.646635 49.060367 41.571159 48.921875 41.443359 C 48.794036 41.315493 48.730469 41.151619 48.730469 40.949219 L 48.730469 31.777344 C 48.730469 31.063544 48.650032 30.40708 48.490234 29.810547 C 48.330436 29.213947 48.054325 28.698519 47.660156 28.261719 C 47.27664 27.824919 46.749277 27.483281 46.078125 27.238281 C 45.417626 26.993281 44.582368 26.871094 43.570312 26.871094 z M 45.726562 34.300781 L 45.726562 39.957031 C 45.279128 40.255365 44.827229 40.516501 44.369141 40.740234 C 43.974972 40.931968 43.537988 41.107778 43.058594 41.267578 C 42.589852 41.427378 42.136 41.507812 41.699219 41.507812 C 41.30505 41.507812 40.953475 41.43429 40.644531 41.285156 C 40.346241 41.125356 40.09197 40.915823 39.878906 40.660156 C 39.676495 40.404423 39.515623 40.118428 39.398438 39.798828 C 39.291905 39.468628 39.238281 39.131949 39.238281 38.791016 C 39.238281 38.386216 39.296877 37.997867 39.414062 37.625 C 39.541901 37.241467 39.824937 36.868059 40.261719 36.505859 C 40.709154 36.132993 41.363653 35.766497 42.226562 35.404297 C 43.089472 35.042097 44.25642 34.673648 45.726562 34.300781 z "
       transform="translate(0,1058.5196)"
       id="path4155" />
    <path
       style="fill:#273747;fill-opacity:1;stroke:none"
       d="M 5 57 L 5 58 C 5 58.554038 5.4459619 59 6 59 L 58 59 C 58.554038 59 59 58.554038 59 58 L 59 57 C 59 57.554038 58.554038 58 58 58 L 6 58 C 5.4459619 58 5 57.554038 5 57 z "
       transform="translate(0,1058.5196)"
       id="rect4153" />
  </g>
</svg>
