<?xml version="1.0" encoding="UTF-8" standalone="no"?>
<!-- Created with Inkscape (http://www.inkscape.org/) -->

<svg
   xmlns:dc="http://purl.org/dc/elements/1.1/"
   xmlns:cc="http://creativecommons.org/ns#"
   xmlns:rdf="http://www.w3.org/1999/02/22-rdf-syntax-ns#"
   xmlns:svg="http://www.w3.org/2000/svg"
   xmlns="http://www.w3.org/2000/svg"
   xmlns:sodipodi="http://sodipodi.sourceforge.net/DTD/sodipodi-0.dtd"
   xmlns:inkscape="http://www.inkscape.org/namespaces/inkscape"
   width="64"
   height="64"
   viewBox="0 0 64 64.000003"
   id="svg2"
   version="1.1"
   inkscape:version="0.91+devel r"
   sodipodi:docname="accessories-text-editor.svg">
  <defs
     id="defs4" />
  <sodipodi:namedview
     id="base"
     pagecolor="#ffffff"
     bordercolor="#666666"
     borderopacity="1.0"
     inkscape:pageopacity="0.0"
     inkscape:pageshadow="2"
     inkscape:zoom="11.313708"
     inkscape:cx="29.912853"
     inkscape:cy="15.349477"
     inkscape:document-units="px"
     inkscape:current-layer="layer1"
     showgrid="true"
     units="px"
     inkscape:showpageshadow="false"
     borderlayer="true"
     inkscape:window-width="2560"
     inkscape:window-height="957"
     inkscape:window-x="-4"
     inkscape:window-y="29"
     inkscape:window-maximized="1">
    <inkscape:grid
       type="xygrid"
       id="grid4136" />
    <sodipodi:guide
       position="5,59.000069"
       orientation="54,0"
       id="guide4142" />
    <sodipodi:guide
       position="5,5.0000688"
       orientation="0,54"
       id="guide4144" />
    <sodipodi:guide
       position="59,5.0000688"
       orientation="-54,0"
       id="guide4146" />
    <sodipodi:guide
       position="59,59.000069"
       orientation="0,-54"
       id="guide4148" />
    <sodipodi:guide
       position="0,64.000069"
       orientation="64,0"
       id="guide4150" />
    <sodipodi:guide
       position="0,6.875e-05"
       orientation="0,64"
       id="guide4152" />
    <sodipodi:guide
       position="64,6.875e-05"
       orientation="-64,0"
       id="guide4154" />
    <sodipodi:guide
       position="64,64.000069"
       orientation="0,-64"
       id="guide4156" />
    <sodipodi:guide
       position="10,35"
       orientation="38,0"
       id="guide4155" />
    <sodipodi:guide
       position="54,37"
       orientation="-38,0"
       id="guide4159" />
    <sodipodi:guide
       position="51,50.999947"
       orientation="0,-38"
       id="guide4161" />
  </sodipodi:namedview>
  <metadata
     id="metadata7">
    <rdf:RDF>
      <cc:Work
         rdf:about="">
        <dc:format>image/svg+xml</dc:format>
        <dc:type
           rdf:resource="http://purl.org/dc/dcmitype/StillImage" />
        <dc:title />
      </cc:Work>
    </rdf:RDF>
  </metadata>
  <g
     inkscape:label="Capa 1"
     inkscape:groupmode="layer"
     id="layer1"
     transform="translate(0,-1058.5196)">
    <rect
       style="fill:#fdf9ee;fill-opacity:1;stroke:none"
       id="rect4148"
       width="44"
       height="43.999947"
       x="10"
       y="1071.5197" />
    <path
       style="fill:#90675a;fill-opacity:1;stroke:none"
       d="M 11 5 C 11 5 10 5 10 6 L 10 8 L 10 13 L 54 13 L 54 8 L 54 6 C 53.999999 5 53 5 53 5 L 52 5 L 13 5 L 11 5 z "
       transform="translate(0,1058.5196)"
       id="rect4149" />
    <path
       style="fill:#bfb8a7;fill-opacity:1;stroke:none"
       d="M 10 58 C 10 58.55397 10.44603 59 11 59 L 53 59 C 53.55397 59 54 58.55397 54 58 L 10 58 z "
       transform="translate(0,1058.5196)"
       id="rect4308" />
    <rect
       y="1115.5199"
       x="10"
       height="1"
       width="44"
       id="rect4310"
       style="fill:#dbd7ce;fill-opacity:1;stroke:none" />
    <path
       style="fill:#eceae4;fill-opacity:1;stroke:none"
       d="M 10 15 L 10 16 L 54 16 L 54 15 L 10 15 z M 10 19 L 10 20 L 54 20 L 54 19 L 10 19 z M 10 23 L 10 24 L 54 24 L 54 23 L 10 23 z M 10 27 L 10 28 L 54 28 L 54 27 L 10 27 z M 10 31 L 10 32 L 54 32 L 54 31 L 10 31 z M 10 35 L 10 36 L 54 36 L 54 35 L 10 35 z M 10 39 L 10 40 L 54 40 L 54 39 L 10 39 z M 10 43 L 10 44 L 54 44 L 54 43 L 10 43 z M 10 47 L 10 48 L 54 48 L 54 47 L 10 47 z M 10 51 L 10 52 L 54 52 L 54 51 L 10 51 z M 10 55 L 10 56 L 54 56 L 54 55 L 10 55 z "
       transform="translate(0,1058.5196)"
       id="rect4338" />
    <rect
       style="fill:#ffdbdb;fill-opacity:1;stroke:none"
       id="rect4336"
       width="1"
       height="43.999947"
       x="17"
       y="1071.5197" />
    <g
       id="g4166">
      <rect
         ry="0"
         y="1085.5197"
         x="44"
         height="19.000053"
         width="4"
         id="rect4312"
         style="fill:#a790bc;fill-opacity:1;stroke:none" />
      <path
         inkscape:connector-curvature="0"
         id="path4316"
         d="m 46,1110.5196 -2,-6 4,0 z"
         style="fill:#e8bb3e;fill-rule:evenodd;stroke:none;stroke-width:1px;stroke-linecap:butt;stroke-linejoin:miter;stroke-opacity:1;fill-opacity:1" />
      <path
         id="path4318"
         transform="translate(0,1058.5196)"
         d="M 45.333984 50 L 46 52 L 46.666016 50 L 45.333984 50 z "
         style="fill:#5b450b;fill-rule:evenodd;stroke:none;stroke-width:1px;stroke-linecap:butt;stroke-linejoin:miter;stroke-opacity:1;fill-opacity:1" />
      <path
         id="rect4325"
         transform="translate(0,1058.5196)"
         d="M 46 24 C 44.892015 24 44 24.892015 44 26 L 48 26 C 48 24.892015 47.107985 24 46 24 z "
         style="fill:#ffaaaa;fill-opacity:1;stroke:none" />
      <rect
         y="1084.5197"
         x="44"
         height="1"
         width="4"
         id="rect4332"
         style="fill:#bdc3c7;fill-opacity:1;stroke:none" />
    </g>
  </g>
</svg>
