<?xml version="1.0" encoding="UTF-8" standalone="no"?>
<!-- Created with Inkscape (http://www.inkscape.org/) -->

<svg
   xmlns:dc="http://purl.org/dc/elements/1.1/"
   xmlns:cc="http://creativecommons.org/ns#"
   xmlns:rdf="http://www.w3.org/1999/02/22-rdf-syntax-ns#"
   xmlns:svg="http://www.w3.org/2000/svg"
   xmlns="http://www.w3.org/2000/svg"
   xmlns:sodipodi="http://sodipodi.sourceforge.net/DTD/sodipodi-0.dtd"
   xmlns:inkscape="http://www.inkscape.org/namespaces/inkscape"
   width="64"
   height="64"
   viewBox="0 0 64 64.000003"
   id="svg2"
   version="1.1"
   inkscape:version="0.91+devel r"
   sodipodi:docname="akonadi.svg">
  <defs
     id="defs4" />
  <sodipodi:namedview
     id="base"
     pagecolor="#ffffff"
     bordercolor="#666666"
     borderopacity="1.0"
     inkscape:pageopacity="0.0"
     inkscape:pageshadow="2"
     inkscape:zoom="8"
     inkscape:cx="16.427609"
     inkscape:cy="32.955999"
     inkscape:document-units="px"
     inkscape:current-layer="layer1"
     showgrid="true"
     units="px"
     inkscape:showpageshadow="false"
     borderlayer="true"
     inkscape:window-width="2560"
     inkscape:window-height="957"
     inkscape:window-x="-4"
     inkscape:window-y="29"
     inkscape:window-maximized="1">
    <inkscape:grid
       type="xygrid"
       id="grid4136" />
    <sodipodi:guide
       position="5,59.000069"
       orientation="54,0"
       id="guide4142" />
    <sodipodi:guide
       position="5,5.0000688"
       orientation="0,54"
       id="guide4144" />
    <sodipodi:guide
       position="59,5.0000688"
       orientation="-54,0"
       id="guide4146" />
    <sodipodi:guide
       position="59,59.000069"
       orientation="0,-54"
       id="guide4148" />
    <sodipodi:guide
       position="0,64.000069"
       orientation="64,0"
       id="guide4150" />
    <sodipodi:guide
       position="0,6.875e-05"
       orientation="0,64"
       id="guide4152" />
    <sodipodi:guide
       position="64,6.875e-05"
       orientation="-64,0"
       id="guide4154" />
    <sodipodi:guide
       position="64,64.000069"
       orientation="0,-64"
       id="guide4156" />
    <sodipodi:guide
       position="10,35"
       orientation="38,0"
       id="guide4155" />
    <sodipodi:guide
       position="54,37"
       orientation="-38,0"
       id="guide4159" />
    <sodipodi:guide
       position="51,50.999947"
       orientation="0,-38"
       id="guide4161" />
  </sodipodi:namedview>
  <metadata
     id="metadata7">
    <rdf:RDF>
      <cc:Work
         rdf:about="">
        <dc:format>image/svg+xml</dc:format>
        <dc:type
           rdf:resource="http://purl.org/dc/dcmitype/StillImage" />
        <dc:title />
      </cc:Work>
    </rdf:RDF>
  </metadata>
  <g
     inkscape:label="Capa 1"
     inkscape:groupmode="layer"
     id="layer1"
     transform="translate(0,-1058.5196)">
    <path
       style="fill:#2c3e50;fill-rule:evenodd;stroke:none;stroke-width:1px;stroke-linecap:butt;stroke-linejoin:miter;stroke-opacity:1;fill-opacity:1"
       d="M 11 5 C 10.445962 5 10 5.4459619 10 6 L 10 55 L 10 57 L 13 57 L 13 55 L 20 55 L 20 56 L 54 56 L 54 6 C 54 5.4459619 53.554038 5 53 5 L 11 5 z "
       transform="translate(0,1058.5196)"
       id="path4178" />
    <path
       style="opacity:1;fill:#336e7b;fill-opacity:1;stroke:none;stroke-opacity:1"
       d="M 11 5 C 10.445962 5 10 5.4459619 10 6 L 10 57 L 20 57 L 20 5 L 11 5 z "
       transform="translate(0,1058.5196)"
       id="rect4181" />
    <path
       style="opacity:1;fill:#2d626d;fill-opacity:1;stroke:none;stroke-opacity:1"
       d="M 11 5 C 10.445962 5 10 5.4459619 10 6 L 10 57 L 13 57 L 13 5 L 11 5 z "
       transform="translate(0,1058.5196)"
       id="rect4190" />
    <rect
       style="opacity:1;fill:#d5eff5;fill-opacity:1;stroke:none;stroke-width:8;stroke-linecap:round;stroke-linejoin:round;stroke-miterlimit:4;stroke-dasharray:none;stroke-opacity:1"
       id="rect4160"
       width="43"
       height="2"
       x="11"
       y="1114.5197" />
    <path
       style="opacity:1;fill:#336e7b;fill-opacity:1;stroke:none;stroke-opacity:1"
       d="M 12 55 C 10.892 55 10 55.892 10 57 C 10 58.108 10.892 59 12 59 L 20 59 L 54 59 L 54 58 L 20 58 L 12 58 C 11.446 58 11 57.554 11 57 C 11 56.446 11.446 56 12 56 L 20 56 L 54 56 L 54 55 L 20 55 L 12 55 z "
       transform="translate(0,1058.5196)"
       id="path4188" />
    <path
       style="opacity:1;fill:#d24d57;fill-opacity:1;stroke:none;stroke-opacity:1"
       d="M 20 5 L 20 39 L 23 37 L 26 39 L 26 5 L 20 5 z "
       transform="translate(0,1058.5196)"
       id="rect4196" />
    <path
       style="fill:#bfcddc;fill-opacity:1;stroke:none"
       d="M 47.021484 12.195312 C 37.049484 12.195312 29.021484 20.223313 29.021484 30.195312 C 29.021484 30.305413 29.035119 30.412737 29.037109 30.523438 C 29.034109 30.647338 29.021484 30.766425 29.021484 30.890625 C 29.021484 32.511825 29.31036 34.062412 29.814453 35.507812 C 32.071299 42.869813 38.901009 48.195312 47.021484 48.195312 C 49.499838 48.195312 51.855196 47.697175 54 46.798828 L 54 42.328125 C 51.99473 43.479146 49.680841 44.156082 47.201172 44.1875 C 49.929921 43.325855 52.287126 41.650746 54 39.447266 L 54 36.15625 C 51.750997 37.714826 49.031835 38.644531 46.076172 38.644531 C 40.103379 38.644531 35.047404 34.923069 33.048828 29.667969 C 33.326925 22.161069 39.44382 16.195312 47.021484 16.195312 C 49.568917 16.195312 51.946452 16.879105 54 18.058594 L 54 13.591797 C 51.855196 12.69345 49.499838 12.195312 47.021484 12.195312 z "
       transform="translate(0,1058.5196)"
       id="rect4192-0" />
  </g>
</svg>
