<?xml version="1.0" encoding="UTF-8" standalone="no"?>
<!-- Created with Inkscape (http://www.inkscape.org/) -->

<svg
   xmlns:dc="http://purl.org/dc/elements/1.1/"
   xmlns:cc="http://creativecommons.org/ns#"
   xmlns:rdf="http://www.w3.org/1999/02/22-rdf-syntax-ns#"
   xmlns:svg="http://www.w3.org/2000/svg"
   xmlns="http://www.w3.org/2000/svg"
   xmlns:sodipodi="http://sodipodi.sourceforge.net/DTD/sodipodi-0.dtd"
   xmlns:inkscape="http://www.inkscape.org/namespaces/inkscape"
   width="64"
   height="64"
   viewBox="0 0 64 64.000003"
   id="svg2"
   version="1.1"
   inkscape:version="0.91+devel r"
   sodipodi:docname="akregator.svg">
  <defs
     id="defs4" />
  <sodipodi:namedview
     id="base"
     pagecolor="#ffffff"
     bordercolor="#666666"
     borderopacity="1.0"
     inkscape:pageopacity="0.0"
     inkscape:pageshadow="2"
     inkscape:zoom="7.9999995"
     inkscape:cx="78.772442"
     inkscape:cy="10.739029"
     inkscape:document-units="px"
     inkscape:current-layer="layer1"
     showgrid="true"
     units="px"
     inkscape:showpageshadow="false"
     borderlayer="true"
     inkscape:window-width="2560"
     inkscape:window-height="957"
     inkscape:window-x="-4"
     inkscape:window-y="29"
     inkscape:window-maximized="1">
    <inkscape:grid
       type="xygrid"
       id="grid4136" />
    <sodipodi:guide
       position="5,59.000069"
       orientation="54,0"
       id="guide4142" />
    <sodipodi:guide
       position="5,5.0000688"
       orientation="0,54"
       id="guide4144" />
    <sodipodi:guide
       position="59,5.0000688"
       orientation="-54,0"
       id="guide4146" />
    <sodipodi:guide
       position="59,59.000069"
       orientation="0,-54"
       id="guide4148" />
    <sodipodi:guide
       position="0,64.000069"
       orientation="64,0"
       id="guide4150" />
    <sodipodi:guide
       position="0,6.875e-05"
       orientation="0,64"
       id="guide4152" />
    <sodipodi:guide
       position="64,6.875e-05"
       orientation="-64,0"
       id="guide4154" />
    <sodipodi:guide
       position="64,64.000069"
       orientation="0,-64"
       id="guide4156" />
    <sodipodi:guide
       position="15,48.999949"
       orientation="34,0"
       id="guide4168" />
    <sodipodi:guide
       position="15,14.999947"
       orientation="0,34"
       id="guide4170" />
    <sodipodi:guide
       position="49,14.999947"
       orientation="-34,0"
       id="guide4172" />
    <sodipodi:guide
       position="49,48.999949"
       orientation="0,-34"
       id="guide4174" />
  </sodipodi:namedview>
  <metadata
     id="metadata7">
    <rdf:RDF>
      <cc:Work
         rdf:about="">
        <dc:format>image/svg+xml</dc:format>
        <dc:type
           rdf:resource="http://purl.org/dc/dcmitype/StillImage" />
        <dc:title />
      </cc:Work>
    </rdf:RDF>
  </metadata>
  <g
     inkscape:label="Capa 1"
     inkscape:groupmode="layer"
     id="layer1"
     transform="translate(0,-1058.5196)">
    <rect
       style="opacity:1;fill:#f89406;fill-opacity:1;stroke:none;stroke-width:0.1;stroke-linecap:round;stroke-linejoin:miter;stroke-miterlimit:4;stroke-dasharray:none;stroke-opacity:0.29943501"
       id="rect4164"
       width="54"
       height="53.999931"
       x="5"
       y="1063.5197"
       ry="0.99994665" />
    <path
       style="opacity:1;fill:#df8505;fill-opacity:1;stroke:none;stroke-width:0.1;stroke-linecap:round;stroke-linejoin:miter;stroke-miterlimit:4;stroke-dasharray:none;stroke-opacity:0.29943501"
       d="M 5 58 C 5 58.55397 5.4460296 59 6 59 L 58 59 C 58.55397 59 59 58.55397 59 58 L 5 58 z "
       transform="translate(0,1058.5196)"
       id="rect4176" />
    <path
       style="opacity:1;fill:#fde3a7;fill-opacity:1;stroke:none;stroke-width:0.1;stroke-linecap:round;stroke-linejoin:miter;stroke-miterlimit:4;stroke-dasharray:none;stroke-opacity:0.29943501"
       d="M 17.5 15 A 31.5 31.5 0 0 0 15 15.125 L 15 19.136719 A 27.5 27.5 0 0 1 17.5 19 A 27.5 27.5 0 0 1 45 46.5 A 27.5 27.5 0 0 1 44.875 49 L 48.888672 49 A 31.5 31.5 0 0 0 49 46.5 A 31.5 31.5 0 0 0 17.5 15 z M 17.5 24 A 22.5 22.5 0 0 0 15 24.152344 L 15 28.191406 A 18.5 18.5 0 0 1 17.5 28 A 18.5 18.5 0 0 1 36 46.5 A 18.5 18.5 0 0 1 35.808594 49 L 39.832031 49 A 22.5 22.5 0 0 0 40 46.5 A 22.5 22.5 0 0 0 17.5 24 z M 17.5 33 A 13.5 13.5 0 0 0 15 33.242188 L 15 37.335938 A 9.5 9.5 0 0 1 17.5 37 A 9.5 9.5 0 0 1 27 46.5 A 9.5 9.5 0 0 1 26.654297 49 L 30.755859 49 A 13.5 13.5 0 0 0 31 46.5 A 13.5 13.5 0 0 0 17.5 33 z M 17.5 44 A 2.5 2.5 0 0 0 15 46.5 A 2.5 2.5 0 0 0 17.5 49 A 2.5 2.5 0 0 0 20 46.5 A 2.5 2.5 0 0 0 17.5 44 z "
       transform="translate(0,1058.5196)"
       id="path4178" />
  </g>
</svg>
