<?xml version="1.0" encoding="UTF-8" standalone="no"?>
<!-- Created with Inkscape (http://www.inkscape.org/) -->

<svg
   xmlns:dc="http://purl.org/dc/elements/1.1/"
   xmlns:cc="http://creativecommons.org/ns#"
   xmlns:rdf="http://www.w3.org/1999/02/22-rdf-syntax-ns#"
   xmlns:svg="http://www.w3.org/2000/svg"
   xmlns="http://www.w3.org/2000/svg"
   xmlns:sodipodi="http://sodipodi.sourceforge.net/DTD/sodipodi-0.dtd"
   xmlns:inkscape="http://www.inkscape.org/namespaces/inkscape"
   width="64"
   height="64"
   viewBox="0 0 64 64.000003"
   id="svg2"
   version="1.1"
   inkscape:version="0.91+devel r"
   sodipodi:docname="amarok.svg">
  <defs
     id="defs4" />
  <sodipodi:namedview
     id="base"
     pagecolor="#ffffff"
     bordercolor="#666666"
     borderopacity="1.0"
     inkscape:pageopacity="0.0"
     inkscape:pageshadow="2"
     inkscape:zoom="16"
     inkscape:cx="36.984184"
     inkscape:cy="24.643005"
     inkscape:document-units="px"
     inkscape:current-layer="layer1"
     showgrid="true"
     units="px"
     inkscape:showpageshadow="false"
     borderlayer="true"
     inkscape:window-width="1366"
     inkscape:window-height="670"
     inkscape:window-x="-4"
     inkscape:window-y="29"
     inkscape:window-maximized="1">
    <inkscape:grid
       type="xygrid"
       id="grid4136" />
    <sodipodi:guide
       position="5,59.000069"
       orientation="54,0"
       id="guide4142" />
    <sodipodi:guide
       position="5,5.0000688"
       orientation="0,54"
       id="guide4144" />
    <sodipodi:guide
       position="59,5.0000688"
       orientation="-54,0"
       id="guide4146" />
    <sodipodi:guide
       position="59,59.000069"
       orientation="0,-54"
       id="guide4148" />
    <sodipodi:guide
       position="0,64.000069"
       orientation="64,0"
       id="guide4150" />
    <sodipodi:guide
       position="0,6.875e-05"
       orientation="0,64"
       id="guide4152" />
    <sodipodi:guide
       position="64,6.875e-05"
       orientation="-64,0"
       id="guide4154" />
    <sodipodi:guide
       position="64,64.000069"
       orientation="0,-64"
       id="guide4156" />
    <sodipodi:guide
       position="13,50.999947"
       orientation="38,0"
       id="guide4155" />
    <sodipodi:guide
       position="13,12.999947"
       orientation="0,38"
       id="guide4157" />
    <sodipodi:guide
       position="51,12.999947"
       orientation="-38,0"
       id="guide4159" />
    <sodipodi:guide
       position="51,50.999947"
       orientation="0,-38"
       id="guide4161" />
  </sodipodi:namedview>
  <metadata
     id="metadata7">
    <rdf:RDF>
      <cc:Work
         rdf:about="">
        <dc:format>image/svg+xml</dc:format>
        <dc:type
           rdf:resource="http://purl.org/dc/dcmitype/StillImage" />
        <dc:title />
      </cc:Work>
    </rdf:RDF>
  </metadata>
  <g
     inkscape:label="Capa 1"
     inkscape:groupmode="layer"
     id="layer1"
     transform="translate(0,-1058.5196)">
    <rect
       style="fill:#180d16;fill-opacity:1;stroke:none"
       id="rect4158"
       width="52"
       height="52"
       x="6"
       y="1064.5197"
       ry="0" />
    <path
       style="opacity:1;fill:#1e1e1e;fill-opacity:1;stroke:none;stroke-opacity:1"
       d="M 8.5 5 C 6.561019 5 5 6.561 5 8.5 L 5 12 L 8 12 L 8 8 L 11.951172 8 L 12 8 L 12 5 L 9 5 L 9 5.0488281 C 8.835351 5.0248281 8.671371 5 8.5 5 z M 52 5 L 52 8 L 52.048828 8 L 56 8 L 56 12 L 59 12 L 59 8.5 C 59 6.561 57.438981 5 55.5 5 C 55.328629 5 55.164649 5.0248281 55 5.0488281 L 55 5 L 52 5 z M 5 52 L 5 55.5 C 5 57.439 6.561019 59 8.5 59 C 8.671371 59 8.835351 58.975172 9 58.951172 L 9 59 L 12 59 L 12 56 L 11.951172 56 L 8 56 L 8 52 L 5 52 z M 56 52 L 56 56 L 52.048828 56 L 52 56 L 52 59 L 55 59 L 55 58.951172 C 55.164649 58.974742 55.328629 59 55.5 59 C 57.438981 59 59 57.438981 59 55.5 L 59 52 L 56 52 z "
       transform="translate(0,1058.5196)"
       id="rect4159" />
    <rect
       ry="0"
       y="1076.5197"
       x="8"
       height="38.000175"
       width="48"
       id="rect4173"
       style="fill:#3e3739;fill-opacity:1;stroke:none" />
    <circle
       style="fill:#362e30;fill-opacity:1;stroke:none;stroke-opacity:1"
       id="path4169"
       cx="32"
       cy="1095.5198"
       r="10" />
    <circle
       r="4"
       cy="1095.5198"
       cx="32"
       id="circle4171"
       style="fill:#292325;fill-opacity:1;stroke:none;stroke-opacity:1" />
    <rect
       style="opacity:1;fill:#d1bd90;fill-opacity:1;stroke:none;stroke-opacity:1"
       id="rect4188"
       width="48"
       height="9.9999466"
       x="8"
       y="1066.5197" />
    <circle
       style="fill:#abb7b7;fill-opacity:1;stroke:none;stroke-opacity:1"
       id="path4175"
       cx="13"
       cy="1071.5197"
       r="2" />
    <circle
       r="1"
       cy="1071.5197"
       cx="13"
       id="circle4177"
       style="fill:#95a5a6;fill-opacity:1;stroke:none;stroke-opacity:1" />
    <circle
       style="fill:#2b2b2b;fill-opacity:1;stroke:none;stroke-opacity:1"
       id="path4175-7"
       cx="13"
       cy="1071.5197"
       r="2" />
    <circle
       r="1"
       cy="1071.5197"
       cx="13"
       id="circle4177-0"
       style="fill:#070707;fill-opacity:1;stroke:none;stroke-opacity:1" />
    <rect
       style="fill:#232323;fill-opacity:1;stroke:none;stroke-opacity:1"
       id="rect4179"
       width="5"
       height="5.9999466"
       x="49"
       y="1068.5197" />
    <rect
       style="fill:#d24d57;fill-opacity:1;stroke:none;stroke-opacity:1"
       id="rect4181"
       width="3"
       height="3.9999466"
       x="50"
       y="1069.5197" />
    <rect
       y="1072.5195"
       x="50"
       height="1.0000533"
       width="3"
       id="rect4183"
       style="fill:#bc313b;fill-opacity:1;stroke:none;stroke-opacity:1" />
    <rect
       style="opacity:1;fill:#b99b58;fill-opacity:1;stroke:none;stroke-opacity:1"
       id="rect4249"
       width="48"
       height="0.99994665"
       x="8"
       y="1076.5197" />
    <circle
       r="2.0000005"
       cy="1071.5197"
       cx="43"
       id="circle4251"
       style="fill:#51441f;fill-opacity:1;stroke:none;stroke-opacity:1" />
    <circle
       style="fill:#bfa770;fill-opacity:1;stroke:none;stroke-opacity:1"
       id="circle4290"
       cx="43"
       cy="1071.5197"
       r="1" />
    <path
       style="fill:#dbceaf;fill-opacity:1;stroke:none;stroke-opacity:1"
       d="M 43.316406 12.052734 L 43 13 L 43.707031 12.292969 A 1 1 0 0 0 43.316406 12.052734 z "
       transform="translate(0,1058.5196)"
       id="circle4255" />
    <path
       style="fill:#dbceaf;fill-opacity:1;stroke:none;stroke-opacity:1"
       d="M 43.947266 12.685547 L 43 13 L 43.96875 13.242188 A 1 1 0 0 0 44 13 A 1 1 0 0 0 43.947266 12.685547 z "
       transform="translate(0,1058.5196)"
       id="circle4262" />
    <path
       style="fill:#dbceaf;fill-opacity:1;stroke:none;stroke-opacity:1"
       d="M 42.052734 12.683594 A 1 1 0 0 0 42 13 A 1 1 0 0 0 42.03125 13.242188 L 43 13 L 42.052734 12.683594 z "
       transform="translate(0,1058.5196)"
       id="path4267" />
    <path
       style="fill:#dbceaf;fill-opacity:1;stroke:none;stroke-opacity:1"
       d="M 42.697266 12.048828 A 1 1 0 0 0 42.300781 12.287109 L 43.013672 13 L 42.697266 12.048828 z "
       transform="translate(0,1058.5196)"
       id="path4269" />
    <path
       style="fill:#dbceaf;fill-opacity:1;stroke:none;stroke-opacity:1"
       d="M 43.013672 13.103516 L 42.353516 13.763672 A 1 1 0 0 0 42.726562 13.960938 L 43.013672 13.103516 z "
       transform="translate(0,1058.5196)"
       id="path4273" />
    <circle
       style="fill:#51441f;fill-opacity:1;stroke:none;stroke-opacity:1"
       id="circle4292"
       cx="37"
       cy="1071.5197"
       r="2.0000005" />
    <circle
       r="1"
       cy="1071.5197"
       cx="37"
       id="circle4294"
       style="fill:#bfa770;fill-opacity:1;stroke:none;stroke-opacity:1" />
    <path
       id="path4296"
       d="M 37.316406,1070.5723 37,1071.5196 l 0.707031,-0.707 a 1,1 0 0 0 -0.390625,-0.2403 z"
       style="fill:#dbceaf;fill-opacity:1;stroke:none;stroke-opacity:1"
       inkscape:connector-curvature="0" />
    <path
       id="path4298"
       d="M 37.947266,1071.2051 37,1071.5196 l 0.96875,0.2422 A 1,1 0 0 0 38,1071.5196 a 1,1 0 0 0 -0.05273,-0.3145 z"
       style="fill:#dbceaf;fill-opacity:1;stroke:none;stroke-opacity:1"
       inkscape:connector-curvature="0" />
    <path
       id="path4300"
       d="M 36.052734,1071.2032 A 1,1 0 0 0 36,1071.5196 a 1,1 0 0 0 0.03125,0.2422 L 37,1071.5196 l -0.947266,-0.3164 z"
       style="fill:#dbceaf;fill-opacity:1;stroke:none;stroke-opacity:1"
       inkscape:connector-curvature="0" />
    <path
       id="path4302"
       d="m 36.697266,1070.5684 a 1,1 0 0 0 -0.396485,0.2383 l 0.712891,0.7129 -0.316406,-0.9512 z"
       style="fill:#dbceaf;fill-opacity:1;stroke:none;stroke-opacity:1"
       inkscape:connector-curvature="0" />
    <path
       id="path4304"
       d="m 37.013672,1071.6231 -0.660156,0.6602 a 1,1 0 0 0 0.373046,0.1972 l 0.28711,-0.8574 z"
       style="fill:#dbceaf;fill-opacity:1;stroke:none;stroke-opacity:1"
       inkscape:connector-curvature="0" />
    <circle
       r="2.0000005"
       cy="1071.5197"
       cx="31"
       id="circle4306"
       style="fill:#51441f;fill-opacity:1;stroke:none;stroke-opacity:1" />
    <circle
       style="fill:#bfa770;fill-opacity:1;stroke:none;stroke-opacity:1"
       id="circle4308"
       cx="31"
       cy="1071.5197"
       r="1" />
    <path
       inkscape:connector-curvature="0"
       style="fill:#dbceaf;fill-opacity:1;stroke:none;stroke-opacity:1"
       d="M 31.316406,1070.5723 31,1071.5196 l 0.707031,-0.707 a 1,1 0 0 0 -0.390625,-0.2403 z"
       id="path4310" />
    <path
       inkscape:connector-curvature="0"
       style="fill:#dbceaf;fill-opacity:1;stroke:none;stroke-opacity:1"
       d="M 31.947266,1071.2051 31,1071.5196 l 0.96875,0.2422 A 1,1 0 0 0 32,1071.5196 a 1,1 0 0 0 -0.05273,-0.3145 z"
       id="path4312" />
    <path
       inkscape:connector-curvature="0"
       style="fill:#dbceaf;fill-opacity:1;stroke:none;stroke-opacity:1"
       d="M 30.052734,1071.2032 A 1,1 0 0 0 30,1071.5196 a 1,1 0 0 0 0.03125,0.2422 L 31,1071.5196 l -0.947266,-0.3164 z"
       id="path4314" />
    <path
       inkscape:connector-curvature="0"
       style="fill:#dbceaf;fill-opacity:1;stroke:none;stroke-opacity:1"
       d="m 30.697266,1070.5684 a 1,1 0 0 0 -0.396485,0.2383 l 0.712891,0.7129 -0.316406,-0.9512 z"
       id="path4316" />
    <path
       inkscape:connector-curvature="0"
       style="fill:#dbceaf;fill-opacity:1;stroke:none;stroke-opacity:1"
       d="m 31.013672,1071.6231 -0.660156,0.6602 a 1,1 0 0 0 0.373046,0.1972 l 0.28711,-0.8574 z"
       id="path4318" />
    <circle
       style="opacity:1;fill:#65532a;fill-opacity:1;stroke:none;stroke-opacity:1"
       id="path4216"
       cx="42"
       cy="1100.5197"
       r="8" />
    <path
       style="opacity:1;fill:#bfa770;fill-opacity:1;stroke:none;stroke-opacity:1"
       d="M 42 33 A 9 9 0 0 0 33 42 A 9 9 0 0 0 42 51 A 9 9 0 0 0 51 42 A 9 9 0 0 0 42 33 z M 42 34 A 8 8 0 0 1 50 42 A 8 8 0 0 1 42 50 A 8 8 0 0 1 34 42 A 8 8 0 0 1 42 34 z M 41.900391 39.099609 C 40.623939 39.457009 39.567127 40.122081 38.400391 39.300781 C 37.286427 39.857781 36.644905 39.754081 35.400391 39.300781 C 35.400391 40.161581 35.400391 40.800781 35.900391 41.800781 L 34.900391 42.300781 C 35.706307 45.338181 37.149459 47.835481 40.400391 48.800781 C 42.157963 46.732981 43.960127 43.755481 47.400391 44.300781 C 47.900391 44.300781 47.821289 43.697381 47.900391 43.300781 C 46.900391 43.300781 46.574725 43.272781 45.900391 42.800781 L 48.449219 40.800781 C 48.399219 39.300781 48.637705 39.135981 47.400391 39.300781 L 43.900391 39.800781 C 43.19257 39.800781 42.568498 39.342409 41.900391 39.099609 z M 42.376953 40.134766 C 42.686304 40.122766 43.022714 40.171781 43.400391 40.300781 C 43.324541 40.844781 42.932998 41.130481 42.400391 41.300781 C 41.383223 41.085581 40.683535 41.3468 39.900391 41.5 C 40.76044 40.9451 41.4489 40.169966 42.376953 40.134766 z "
       id="path4335"
       transform="translate(0,1058.5196)" />
    <path
       style="opacity:1;fill:#dbceaf;fill-opacity:1;stroke:none;stroke-opacity:1"
       d="M 44.576172 33.384766 L 44.318359 34.345703 A 8 8 0 0 1 48.240234 36.996094 L 48.960938 36.302734 A 9 9 0 0 0 44.576172 33.384766 z M 42.923828 39.554688 L 42.761719 40.158203 C 42.962975 40.181922 43.172122 40.222813 43.400391 40.300781 C 43.32773 40.82191 42.961448 41.102713 42.462891 41.275391 L 42 43 L 45.572266 39.5625 L 43.900391 39.800781 C 43.560275 39.800781 43.239447 39.691584 42.923828 39.554688 z "
       transform="translate(0,1058.5196)"
       id="path4187" />
    <path
       style="opacity:1;fill:#dbceaf;fill-opacity:1;stroke:none;stroke-opacity:1"
       d="M 42 43 L 38.902344 48.162109 C 39.358408 48.411832 39.844444 48.635704 40.400391 48.800781 C 40.792631 48.339307 41.193027 47.828995 41.607422 47.326172 L 42 43 z M 38.337891 49.105469 L 37.820312 49.964844 A 9 9 0 0 0 41.275391 50.966797 L 41.367188 49.96875 A 8 8 0 0 1 38.337891 49.105469 z "
       transform="translate(0,1058.5196)"
       id="path4192" />
    <path
       style="opacity:1;fill:#cebd94;fill-opacity:1;stroke:none;stroke-opacity:1"
       d="M 39.433594 33.378906 A 9 9 0 0 0 34.669922 36.796875 L 35.429688 37.439453 A 8 8 0 0 1 39.693359 34.345703 L 39.433594 33.378906 z M 38.400391 39.300781 C 38.207998 39.396981 38.042795 39.449426 37.873047 39.507812 L 40.076172 41.373047 C 40.510481 41.0713 40.918599 40.748845 41.333984 40.5 L 41.035156 39.378906 C 40.123285 39.687325 39.293303 39.929329 38.400391 39.300781 z M 41.527344 41.230469 C 41.03785 41.245943 40.603578 41.348087 40.164062 41.445312 L 42 43 L 41.527344 41.230469 z "
       transform="translate(0,1058.5196)"
       id="path4206" />
    <path
       style="opacity:1;fill:#cebd94;fill-opacity:1;stroke:none;stroke-opacity:1"
       d="M 42 43 L 44.164062 44.923828 C 45.071348 44.381835 46.122991 44.098307 47.400391 44.300781 C 47.641541 44.300781 47.744374 44.156619 47.798828 43.966797 L 42 43 z M 49.664062 44.277344 A 8 8 0 0 1 47.451172 47.845703 L 48.199219 48.509766 A 9 9 0 0 0 50.660156 44.443359 L 49.664062 44.277344 z "
       transform="translate(0,1058.5196)"
       id="path4211" />
  </g>
</svg>
