<?xml version="1.0" encoding="UTF-8" standalone="no"?>
<!-- Created with Inkscape (http://www.inkscape.org/) -->

<svg
   xmlns:dc="http://purl.org/dc/elements/1.1/"
   xmlns:cc="http://creativecommons.org/ns#"
   xmlns:rdf="http://www.w3.org/1999/02/22-rdf-syntax-ns#"
   xmlns:svg="http://www.w3.org/2000/svg"
   xmlns="http://www.w3.org/2000/svg"
   xmlns:sodipodi="http://sodipodi.sourceforge.net/DTD/sodipodi-0.dtd"
   xmlns:inkscape="http://www.inkscape.org/namespaces/inkscape"
   width="64"
   height="64"
   viewBox="0 0 64 64.000003"
   id="svg2"
   version="1.1"
   inkscape:version="0.91+devel r"
   sodipodi:docname="atom.svg">
  <defs
     id="defs4" />
  <sodipodi:namedview
     id="base"
     pagecolor="#ffffff"
     bordercolor="#666666"
     borderopacity="1.0"
     inkscape:pageopacity="0.0"
     inkscape:pageshadow="2"
     inkscape:zoom="5.59"
     inkscape:cx="24.928623"
     inkscape:cy="35.101299"
     inkscape:document-units="px"
     inkscape:current-layer="layer1"
     showgrid="true"
     units="px"
     inkscape:showpageshadow="false"
     borderlayer="true"
     inkscape:window-width="1366"
     inkscape:window-height="670"
     inkscape:window-x="-4"
     inkscape:window-y="29"
     inkscape:window-maximized="1">
    <inkscape:grid
       type="xygrid"
       id="grid4136" />
    <sodipodi:guide
       position="5,59.000069"
       orientation="54,0"
       id="guide4142" />
    <sodipodi:guide
       position="5,5.0000688"
       orientation="0,54"
       id="guide4144" />
    <sodipodi:guide
       position="59,5.0000688"
       orientation="-54,0"
       id="guide4146" />
    <sodipodi:guide
       position="59,59.000069"
       orientation="0,-54"
       id="guide4148" />
    <sodipodi:guide
       position="0,64.000069"
       orientation="64,0"
       id="guide4150" />
    <sodipodi:guide
       position="0,6.875e-05"
       orientation="0,64"
       id="guide4152" />
    <sodipodi:guide
       position="64,6.875e-05"
       orientation="-64,0"
       id="guide4154" />
    <sodipodi:guide
       position="64,64.000069"
       orientation="0,-64"
       id="guide4156" />
    <sodipodi:guide
       position="15,48.999949"
       orientation="34,0"
       id="guide4168" />
    <sodipodi:guide
       position="15,14.999947"
       orientation="0,34"
       id="guide4170" />
    <sodipodi:guide
       position="49,14.999947"
       orientation="-34,0"
       id="guide4172" />
    <sodipodi:guide
       position="49,48.999949"
       orientation="0,-34"
       id="guide4174" />
    <sodipodi:guide
       position="15,32.000436"
       orientation="17,0"
       id="guide4175" />
    <sodipodi:guide
       position="15,15.000436"
       orientation="0,17"
       id="guide4177" />
    <sodipodi:guide
       position="32,15.000436"
       orientation="-17,0"
       id="guide4179" />
    <sodipodi:guide
       position="32,32.000436"
       orientation="0,-17"
       id="guide4181" />
  </sodipodi:namedview>
  <metadata
     id="metadata7">
    <rdf:RDF>
      <cc:Work
         rdf:about="">
        <dc:format>image/svg+xml</dc:format>
        <dc:type
           rdf:resource="http://purl.org/dc/dcmitype/StillImage" />
        <dc:title />
      </cc:Work>
    </rdf:RDF>
  </metadata>
  <g
     inkscape:label="Capa 1"
     inkscape:groupmode="layer"
     id="layer1"
     transform="translate(0,-1058.5196)">
    <ellipse
       style="opacity:1;fill:#68c3a3;fill-opacity:1;stroke:none;stroke-width:0.1;stroke-linecap:round;stroke-linejoin:miter;stroke-miterlimit:4;stroke-dasharray:none;stroke-opacity:0.29943501"
       id="path4154"
       cx="32.000008"
       cy="1090.5195"
       rx="27.000008"
       ry="27.000032" />
    <path
       style="color:#000000;font-style:normal;font-variant:normal;font-weight:normal;font-stretch:normal;font-size:medium;line-height:normal;font-family:Sans;-inkscape-font-specification:Sans;text-indent:0;text-align:start;text-decoration:none;text-decoration-line:none;letter-spacing:normal;word-spacing:normal;text-transform:none;direction:ltr;block-progression:tb;writing-mode:lr-tb;baseline-shift:baseline;text-anchor:start;display:inline;overflow:visible;visibility:visible;fill:#019875;fill-opacity:1;stroke:none;stroke-width:1.46755564;marker:none;enable-background:accumulate"
       d="M 25.482422 16.001953 L 25.482422 16.007812 C 25.101239 16.023813 24.708074 16.065569 24.302734 16.167969 C 23.210467 16.436969 22.453816 17.302841 22.083984 18.369141 C 21.714153 19.435341 21.637883 20.717066 21.755859 22.197266 C 21.832419 23.157966 22.020376 24.216341 22.253906 25.306641 C 19.030335 25.893641 16.310434 26.985737 14.8125 28.960938 C 14.149085 29.835337 13.907992 30.802725 14.03125 31.640625 C 14.154517 32.478725 14.594266 33.173894 15.107422 33.746094 C 16.133721 34.890294 17.423851 35.554562 18.072266 35.789062 C 19.023497 36.139563 19.572826 34.753666 18.628906 34.384766 C 18.351405 34.283466 17.048236 33.611059 16.28125 32.755859 C 15.897746 32.328059 15.630858 31.869269 15.564453 31.417969 C 15.498083 30.966569 15.582977 30.474869 16.052734 29.855469 C 17.175848 28.374469 19.556905 27.316559 22.591797 26.755859 C 22.958965 28.156459 23.442164 29.611891 24.005859 31.087891 C 23.024345 32.761691 22.172922 34.458722 21.529297 36.107422 C 20.20302 39.504222 19.679038 42.715419 20.8125 45.199219 C 21.276786 46.216719 22.089027 46.874334 22.962891 47.115234 C 23.836764 47.356234 24.716076 47.247778 25.539062 47.017578 C 27.185028 46.568078 28.537306 45.696719 29.060547 45.261719 C 29.926772 44.631819 28.871481 43.391228 28.082031 44.111328 C 27.853095 44.301628 26.460264 45.221678 25.148438 45.580078 C 24.492531 45.759478 23.832551 45.809528 23.353516 45.673828 C 22.87448 45.543128 22.525874 45.267438 22.214844 44.585938 C 21.369353 42.733037 21.707868 39.858731 22.962891 36.644531 C 23.435294 35.434331 24.061509 34.182487 24.744141 32.929688 C 26.265977 36.474888 28.239051 39.992128 30.464844 42.736328 C 32.775195 45.584628 35.363473 47.658503 38.125 47.970703 C 39.230847 48.095603 40.150183 47.821828 40.830078 47.298828 C 41.509973 46.775628 41.916168 46.074416 42.166016 45.353516 C 42.644006 43.974416 42.597876 42.638853 42.492188 41.939453 L 42.527344 41.939453 C 42.52815 41.905453 42.491657 41.8423 42.492188 41.8125 C 42.530367 38.7757 41.033485 33.28025 38.841797 29.59375 C 38.366282 28.57965 36.846306 29.471775 37.537109 30.359375 C 39.555632 33.754475 41.053122 39.483903 40.994141 41.908203 C 40.988241 41.961203 40.988241 42.015059 40.994141 42.068359 C 41.044011 42.353659 41.10587 43.7972 40.732422 44.875 C 40.545711 45.4139 40.253004 45.870444 39.886719 46.152344 C 39.52043 46.434344 39.072159 46.590353 38.289062 46.501953 C 36.22914 46.269053 33.856168 44.474797 31.669922 41.779297 C 29.483676 39.084397 27.493265 35.526978 25.996094 31.955078 C 25.893114 31.709578 25.812969 31.466103 25.714844 31.220703 C 26.62484 29.722503 27.628967 28.240156 28.703125 26.847656 C 28.859885 26.644556 29.024636 26.461419 29.183594 26.261719 C 31.1279 26.286719 33.124243 26.435006 35.060547 26.691406 C 38.970231 27.208106 42.658622 28.165091 45.167969 29.337891 C 46.422643 29.924791 47.36618 30.585 47.90625 31.1875 C 48.446321 31.79 48.580325 32.2245 48.427734 32.75 C 47.804032 34.8978 44.873047 35.783203 44.873047 35.783203 C 43.790827 36.001103 44.263188 37.598597 45.296875 37.216797 C 45.296875 37.216797 48.980521 36.313316 49.894531 33.166016 C 50.202415 32.105616 49.805683 31.045419 49.046875 30.199219 C 48.288041 29.352519 47.189335 28.637947 45.820312 27.998047 C 43.082271 26.717947 39.285249 25.753503 35.255859 25.220703 C 33.636298 25.006603 31.994213 24.886072 30.357422 24.826172 C 32.26513 22.610272 34.245314 20.721519 36.003906 19.511719 C 37.141424 18.729219 38.204482 18.239719 39.005859 18.074219 C 39.807237 17.908919 40.274723 18.005631 40.667969 18.394531 C 42.275261 19.979331 41.613281 22.892578 41.613281 22.892578 C 41.348874 23.874278 42.856135 24.258391 43.115234 23.275391 C 43.115234 23.275391 44.09955 19.664197 41.744141 17.341797 C 40.950735 16.559497 39.805671 16.375022 38.679688 16.607422 C 37.553708 16.839322 36.366195 17.443475 35.125 18.296875 C 32.949622 19.793575 30.619986 22.109816 28.425781 24.791016 C 26.825661 24.791016 25.258283 24.882872 23.78125 25.076172 C 23.547776 24.015672 23.360947 22.997203 23.289062 22.095703 C 23.180922 20.738903 23.25443 19.598644 23.517578 18.839844 C 23.780793 18.081044 24.11877 17.728803 24.660156 17.595703 C 26.872913 17.050503 29.125 19.095703 29.125 19.095703 C 29.863766 19.798303 30.94177 18.714419 30.203125 18.011719 C 30.203125 18.011719 28.695102 16.510003 26.582031 16.095703 C 26.229854 16.026703 25.863599 15.993653 25.482422 16.001953 z M 27.224609 26.308594 C 26.455577 27.324194 25.726372 28.378478 25.033203 29.455078 C 24.681572 28.459378 24.379841 27.483062 24.125 26.539062 C 25.117148 26.416962 26.155071 26.344194 27.224609 26.308594 z M 32 30 A 2 1.9995655 0 0 0 30 32 A 2 1.9995655 0 0 0 32 34 A 2 1.9995655 0 0 0 34 32 A 2 1.9995655 0 0 0 32 30 z "
       transform="translate(0,1058.5196)"
       id="path3070-3-6" />
  </g>
</svg>
