<?xml version="1.0" encoding="UTF-8" standalone="no"?>
<!-- Created with Inkscape (http://www.inkscape.org/) -->

<svg
   xmlns:dc="http://purl.org/dc/elements/1.1/"
   xmlns:cc="http://creativecommons.org/ns#"
   xmlns:rdf="http://www.w3.org/1999/02/22-rdf-syntax-ns#"
   xmlns:svg="http://www.w3.org/2000/svg"
   xmlns="http://www.w3.org/2000/svg"
   xmlns:sodipodi="http://sodipodi.sourceforge.net/DTD/sodipodi-0.dtd"
   xmlns:inkscape="http://www.inkscape.org/namespaces/inkscape"
   width="64"
   height="64"
   viewBox="0 0 64 64.000003"
   id="svg2"
   version="1.1"
   inkscape:version="0.91+devel r"
   sodipodi:docname="beatbox.svg">
  <defs
     id="defs4" />
  <sodipodi:namedview
     id="base"
     pagecolor="#ffffff"
     bordercolor="#666666"
     borderopacity="1.0"
     inkscape:pageopacity="0.0"
     inkscape:pageshadow="2"
     inkscape:zoom="11.181126"
     inkscape:cx="34.892525"
     inkscape:cy="37.905033"
     inkscape:document-units="px"
     inkscape:current-layer="layer1"
     showgrid="true"
     units="px"
     inkscape:showpageshadow="false"
     borderlayer="true"
     inkscape:window-width="2560"
     inkscape:window-height="957"
     inkscape:window-x="-4"
     inkscape:window-y="29"
     inkscape:window-maximized="1">
    <inkscape:grid
       type="xygrid"
       id="grid4136"
       empspacing="2" />
    <sodipodi:guide
       position="5,59.000069"
       orientation="54,0"
       id="guide4142" />
    <sodipodi:guide
       position="5,5.0000688"
       orientation="0,54"
       id="guide4144" />
    <sodipodi:guide
       position="59,5.0000688"
       orientation="-54,0"
       id="guide4146" />
    <sodipodi:guide
       position="59,59.000069"
       orientation="0,-54"
       id="guide4148" />
    <sodipodi:guide
       position="0,64.000069"
       orientation="64,0"
       id="guide4150" />
    <sodipodi:guide
       position="0,6.875e-05"
       orientation="0,64"
       id="guide4152" />
    <sodipodi:guide
       position="64,6.875e-05"
       orientation="-64,0"
       id="guide4154" />
    <sodipodi:guide
       position="64,64.000069"
       orientation="0,-64"
       id="guide4156" />
    <sodipodi:guide
       position="15,48.999949"
       orientation="34,0"
       id="guide4168" />
    <sodipodi:guide
       position="15,14.999947"
       orientation="0,34"
       id="guide4170" />
    <sodipodi:guide
       position="49,14.999947"
       orientation="-34,0"
       id="guide4172" />
    <sodipodi:guide
       position="49,48.999949"
       orientation="0,-34"
       id="guide4174" />
    <sodipodi:guide
       position="15,32.000436"
       orientation="17,0"
       id="guide4175" />
    <sodipodi:guide
       position="15,15.000436"
       orientation="0,17"
       id="guide4177" />
    <sodipodi:guide
       position="32,15.000436"
       orientation="-17,0"
       id="guide4179" />
    <sodipodi:guide
       position="32,32.000436"
       orientation="0,-17"
       id="guide4181" />
  </sodipodi:namedview>
  <metadata
     id="metadata7">
    <rdf:RDF>
      <cc:Work
         rdf:about="">
        <dc:format>image/svg+xml</dc:format>
        <dc:type
           rdf:resource="http://purl.org/dc/dcmitype/StillImage" />
        <dc:title />
      </cc:Work>
    </rdf:RDF>
  </metadata>
  <g
     inkscape:label="Capa 1"
     inkscape:groupmode="layer"
     id="layer1"
     transform="translate(0,-1058.5196)">
    <rect
       style="opacity:1;fill:#1e1e1e;fill-opacity:1;stroke:none;stroke-width:0.1;stroke-linecap:round;stroke-linejoin:miter;stroke-miterlimit:4;stroke-dasharray:none;stroke-opacity:0.29943501"
       id="rect4301"
       width="6"
       height="2.9999313"
       x="10"
       y="1114.5197" />
    <rect
       y="1114.5197"
       x="48"
       height="2.9999313"
       width="6"
       id="rect4303"
       style="opacity:1;fill:#1e1e1e;fill-opacity:1;stroke:none;stroke-width:0.1;stroke-linecap:round;stroke-linejoin:miter;stroke-miterlimit:4;stroke-dasharray:none;stroke-opacity:0.29943501" />
    <rect
       style="fill:#4a4541;fill-opacity:1;stroke:none"
       id="rect4158"
       width="52"
       height="51.999931"
       x="6"
       y="1063.5197"
       ry="0.99994665" />
    <rect
       style="opacity:1;fill:#dadfe1;fill-opacity:1;stroke:none;stroke-width:0.1;stroke-linecap:round;stroke-linejoin:miter;stroke-miterlimit:4;stroke-dasharray:none;stroke-opacity:0.29943501"
       id="rect4211"
       width="50"
       height="49.999947"
       x="7"
       y="1064.5197" />
    <rect
       ry="0"
       y="1075.5197"
       x="8"
       height="38.000053"
       width="48"
       id="rect4173"
       style="fill:#252525;fill-opacity:1;stroke:none" />
    <rect
       style="opacity:1;fill:#111111;fill-opacity:1;stroke:none;stroke-width:0.1;stroke-linecap:round;stroke-linejoin:miter;stroke-miterlimit:4;stroke-dasharray:none;stroke-opacity:0.29943501"
       id="rect4194"
       width="48"
       height="8.9999466"
       x="8"
       y="1065.5197" />
    <circle
       r="10"
       cy="1094.5197"
       cx="32"
       id="circle4196"
       style="fill:#181818;fill-opacity:1;stroke:none;stroke-opacity:1" />
    <circle
       style="fill:#080808;fill-opacity:1;stroke:none;stroke-opacity:1"
       id="circle4198"
       cx="32"
       cy="1094.5197"
       r="4" />
    <circle
       r="2.0000005"
       cy="1069.5197"
       cx="13"
       id="circle4306"
       style="fill:#252525;fill-opacity:1;stroke:none;stroke-opacity:1" />
    <circle
       style="fill:#dadfe1;fill-opacity:1;stroke:none;stroke-opacity:1"
       id="circle4308"
       cx="13"
       cy="1069.5197"
       r="1" />
    <path
       inkscape:connector-curvature="0"
       style="fill:#bdc3c7;fill-opacity:1;stroke:none;stroke-opacity:1"
       d="M 13.316406,1068.5722 13,1069.5195 l 0.707031,-0.707 a 1,1 0 0 0 -0.390625,-0.2403 z"
       id="path4310" />
    <path
       inkscape:connector-curvature="0"
       style="fill:#bdc3c7;fill-opacity:1;stroke:none;stroke-opacity:1"
       d="m 13.947267,1069.205 -0.947266,0.3145 0.96875,0.2422 a 1,1 0 0 0 0.03125,-0.2422 1,1 0 0 0 -0.05273,-0.3145 z"
       id="path4312" />
    <path
       inkscape:connector-curvature="0"
       style="fill:#bdc3c7;fill-opacity:1;stroke:none;stroke-opacity:1"
       d="m 12.052735,1069.2031 a 1,1 0 0 0 -0.05273,0.3164 1,1 0 0 0 0.03125,0.2422 L 13,1069.5195 l -0.947265,-0.3164 z"
       id="path4314" />
    <path
       inkscape:connector-curvature="0"
       style="fill:#bdc3c7;fill-opacity:1;stroke:none;stroke-opacity:1"
       d="m 12.697267,1068.5683 a 1,1 0 0 0 -0.396486,0.2383 l 0.712892,0.7129 -0.316406,-0.9512 z"
       id="path4316" />
    <path
       inkscape:connector-curvature="0"
       style="fill:#bdc3c7;fill-opacity:1;stroke:none;stroke-opacity:1"
       d="m 13.013673,1069.623 -0.660156,0.6602 a 1,1 0 0 0 0.373046,0.1972 l 0.28711,-0.8574 z"
       id="path4318" />
    <rect
       y="1073.5197"
       x="8"
       height="1.0000533"
       width="48"
       id="rect4231"
       style="opacity:1;fill:#2f2f2f;fill-opacity:1;stroke:none;stroke-width:0.1;stroke-linecap:round;stroke-linejoin:miter;stroke-miterlimit:4;stroke-dasharray:none;stroke-opacity:0.29943501" />
    <circle
       style="fill:#252525;fill-opacity:1;stroke:none;stroke-opacity:1"
       id="circle4233"
       cx="19"
       cy="1069.5197"
       r="2.0000005" />
    <circle
       r="1"
       cy="1069.5197"
       cx="19"
       id="circle4235"
       style="fill:#dadfe1;fill-opacity:1;stroke:none;stroke-opacity:1" />
    <path
       id="path4237"
       d="M 19.316406,1068.5722 19,1069.5195 l 0.707031,-0.707 a 1,1 0 0 0 -0.390625,-0.2403 z"
       style="fill:#bdc3c7;fill-opacity:1;stroke:none;stroke-opacity:1"
       inkscape:connector-curvature="0" />
    <path
       id="path4239"
       d="m 19.947267,1069.205 -0.947266,0.3145 0.96875,0.2422 a 1,1 0 0 0 0.03125,-0.2422 1,1 0 0 0 -0.05273,-0.3145 z"
       style="fill:#bdc3c7;fill-opacity:1;stroke:none;stroke-opacity:1"
       inkscape:connector-curvature="0" />
    <path
       id="path4241"
       d="m 18.052735,1069.2031 a 1,1 0 0 0 -0.05273,0.3164 1,1 0 0 0 0.03125,0.2422 L 19,1069.5195 l -0.947265,-0.3164 z"
       style="fill:#bdc3c7;fill-opacity:1;stroke:none;stroke-opacity:1"
       inkscape:connector-curvature="0" />
    <path
       id="path4243"
       d="m 18.697267,1068.5683 a 1,1 0 0 0 -0.396486,0.2383 l 0.712892,0.7129 -0.316406,-0.9512 z"
       style="fill:#bdc3c7;fill-opacity:1;stroke:none;stroke-opacity:1"
       inkscape:connector-curvature="0" />
    <path
       id="path4245"
       d="m 19.013673,1069.623 -0.660156,0.6602 a 1,1 0 0 0 0.373046,0.1972 l 0.28711,-0.8574 z"
       style="fill:#bdc3c7;fill-opacity:1;stroke:none;stroke-opacity:1"
       inkscape:connector-curvature="0" />
    <rect
       style="fill:#232323;fill-opacity:1;stroke:none;stroke-opacity:1"
       id="rect4179"
       width="5"
       height="5.9999466"
       x="49"
       y="1066.5197" />
    <rect
       style="fill:#d24d57;fill-opacity:1;stroke:none;stroke-opacity:1"
       id="rect4181"
       width="3"
       height="3.9999466"
       x="50"
       y="1067.5197" />
    <rect
       y="1070.5195"
       x="50"
       height="1.0000533"
       width="3"
       id="rect4183"
       style="fill:#bc313b;fill-opacity:1;stroke:none;stroke-opacity:1" />
    <path
       style="opacity:1;fill:#dadfe1;fill-opacity:1;stroke:none;stroke-width:1;stroke-linecap:round;stroke-linejoin:miter;stroke-miterlimit:4;stroke-dasharray:none;stroke-opacity:0.29943501"
       d="m 50.000442,1095.5197 0,11.9973 c -0.447414,2e-4 -0.778803,0.01 -1.064357,0.016 -5.24e-4,0 -0.0014,0 -0.002,0 -0.0019,0 -0.004,1e-4 -0.0059,0 -0.06283,0 -0.125838,0.01 -0.181624,0.01 -0.14119,0 -0.28439,0.014 -0.429649,0.037 -0.119282,0.016 -0.241649,0.032 -0.296849,0.057 -0.0229,0.01 -0.04544,0.01 -0.06835,0.014 -1.333545,0.3572 -2.182181,1.4112 -1.896315,2.4779 0.285865,1.0667 1.599787,1.6421 2.933331,1.2848 1.07248,-0.2873 1.81812,-1.0905 1.925609,-1.9487 0.0017,-0.01 0.0022,-0.019 0.0039,-0.027 0.05149,-0.253 0.08202,-0.5548 0.08202,-0.9178 l 0,-8.998 c 1.999821,0 2.999732,2.9993 2.999732,4.9989 0,-2.9993 -1.193785,-5.2283 -2.999732,-6.9984 -0.999911,-0.9998 -0.999911,-0.9998 -0.999911,-1.9996 z"
       id="path4271"
       inkscape:connector-curvature="0" />
    <path
       style="opacity:1;fill:#eff2f2;fill-opacity:1;stroke:none;stroke-width:1.41421354;stroke-linecap:round;stroke-linejoin:miter;stroke-miterlimit:4;stroke-dasharray:none;stroke-opacity:0.29943501"
       d="M 52.263672 40.472656 L 51.886719 41.226562 C 52.266893 41.42225 52.593656 41.737878 52.871094 42.128906 L 53.103516 41.896484 C 52.863993 41.393979 52.583439 40.919463 52.263672 40.472656 z M 51 43 L 50 45 L 51 44 L 51 43 z M 50 45 L 51 45.888672 L 51 45.273438 L 50 45 z M 49.554688 49.003906 C 49.343764 49.00733 49.101642 49.010182 48.935547 49.013672 L 48.933594 49.013672 C 48.931694 49.013672 48.929634 49.013772 48.927734 49.013672 C 48.864904 49.013672 48.80188 49.023438 48.746094 49.023438 C 48.604904 49.023438 48.461665 49.037547 48.316406 49.060547 C 48.197124 49.076547 48.074731 49.092187 48.019531 49.117188 C 47.996631 49.127187 47.974082 49.126859 47.951172 49.130859 C 46.617627 49.488059 45.768822 50.542675 46.054688 51.609375 C 46.100967 51.782067 46.183407 51.936966 46.279297 52.082031 C 47.076785 52.499348 47.953371 52.785101 48.882812 52.914062 C 48.91823 52.905871 48.952817 52.904033 48.988281 52.894531 C 49.036956 52.881492 49.081607 52.862778 49.128906 52.847656 L 49.554688 49.003906 z "
       transform="translate(0,1058.5196)"
       id="rect4182" />
  </g>
</svg>
