<?xml version="1.0" encoding="UTF-8" standalone="no"?>
<!-- Created with Inkscape (http://www.inkscape.org/) -->

<svg
   xmlns:dc="http://purl.org/dc/elements/1.1/"
   xmlns:cc="http://creativecommons.org/ns#"
   xmlns:rdf="http://www.w3.org/1999/02/22-rdf-syntax-ns#"
   xmlns:svg="http://www.w3.org/2000/svg"
   xmlns="http://www.w3.org/2000/svg"
   xmlns:sodipodi="http://sodipodi.sourceforge.net/DTD/sodipodi-0.dtd"
   xmlns:inkscape="http://www.inkscape.org/namespaces/inkscape"
   width="64"
   height="64"
   viewBox="0 0 64 64.000003"
   id="svg2"
   version="1.1"
   inkscape:version="0.91+devel r"
   sodipodi:docname="bitcoin-qt.svg">
  <defs
     id="defs4" />
  <sodipodi:namedview
     id="base"
     pagecolor="#ffffff"
     bordercolor="#666666"
     borderopacity="1.0"
     inkscape:pageopacity="0.0"
     inkscape:pageshadow="2"
     inkscape:zoom="16"
     inkscape:cx="29.398773"
     inkscape:cy="33.703163"
     inkscape:document-units="px"
     inkscape:current-layer="layer1"
     showgrid="true"
     units="px"
     inkscape:showpageshadow="false"
     borderlayer="true"
     inkscape:window-width="1366"
     inkscape:window-height="670"
     inkscape:window-x="-4"
     inkscape:window-y="29"
     inkscape:window-maximized="1">
    <inkscape:grid
       type="xygrid"
       id="grid4136" />
    <sodipodi:guide
       position="5,59.000069"
       orientation="54,0"
       id="guide4142" />
    <sodipodi:guide
       position="5,5.0000688"
       orientation="0,54"
       id="guide4144" />
    <sodipodi:guide
       position="59,5.0000688"
       orientation="-54,0"
       id="guide4146" />
    <sodipodi:guide
       position="59,59.000069"
       orientation="0,-54"
       id="guide4148" />
    <sodipodi:guide
       position="0,64.000069"
       orientation="64,0"
       id="guide4150" />
    <sodipodi:guide
       position="0,6.875e-05"
       orientation="0,64"
       id="guide4152" />
    <sodipodi:guide
       position="64,6.875e-05"
       orientation="-64,0"
       id="guide4154" />
    <sodipodi:guide
       position="64,64.000069"
       orientation="0,-64"
       id="guide4156" />
    <sodipodi:guide
       position="13,50.999947"
       orientation="38,0"
       id="guide4155" />
    <sodipodi:guide
       position="13,12.999947"
       orientation="0,38"
       id="guide4157" />
    <sodipodi:guide
       position="51,12.999947"
       orientation="-38,0"
       id="guide4159" />
    <sodipodi:guide
       position="51,50.999947"
       orientation="0,-38"
       id="guide4161" />
    <sodipodi:guide
       position="17,46.999949"
       orientation="30,0"
       id="guide4151" />
    <sodipodi:guide
       position="17,16.999947"
       orientation="0,30"
       id="guide4153" />
    <sodipodi:guide
       position="47,16.999947"
       orientation="-30,0"
       id="guide4158" />
    <sodipodi:guide
       position="47,46.999949"
       orientation="0,-30"
       id="guide4160" />
  </sodipodi:namedview>
  <metadata
     id="metadata7">
    <rdf:RDF>
      <cc:Work
         rdf:about="">
        <dc:format>image/svg+xml</dc:format>
        <dc:type
           rdf:resource="http://purl.org/dc/dcmitype/StillImage" />
        <dc:title />
      </cc:Work>
    </rdf:RDF>
  </metadata>
  <g
     inkscape:label="Capa 1"
     inkscape:groupmode="layer"
     id="layer1"
     transform="translate(0,-1058.5196)">
    <rect
       style="fill:#f89406;fill-opacity:1;stroke:none"
       id="rect4158"
       width="54"
       height="54"
       x="5"
       y="1063.5197"
       ry="27" />
    <path
       style="fill:#fde3a7;fill-rule:evenodd;stroke:none;stroke-width:1px;stroke-linecap:butt;stroke-linejoin:miter;stroke-opacity:1;fill-opacity:1"
       d="M 29 18 L 29 22 L 26 22 L 22 22 L 22 24 L 22.017578 24 L 26 24 L 26 30 L 26 32 L 26 34 L 26 40 L 22.017578 40 L 22 40 L 22 42 L 26 42 L 29 42 L 29 46 L 31 46 L 31 42 L 33 42 L 33 46 L 35 46 L 35 42 L 37 42 C 39.77 42 42 39.77 42 37 C 42 34.23 39.77 32 37 32 L 35 32 C 37.77 32 40 29.77 40 27 C 40 24.23 37.77 22 35 22 L 35 18 L 33 18 L 33 22 L 31 22 L 31 18 L 29 18 z M 31 24 L 33 24 L 35 24 C 36.662015 24 38 25.338 38 27 C 38 28.662 36.662015 30 35 30 L 33 30 L 31 30 L 31 24 z M 31 34 L 33 34 L 35 34 L 36 34 L 37 34 C 38.662015 34 40 35.337985 40 37 C 40 38.662015 38.662015 40 37 40 L 36 40 L 35 40 L 33 40 L 31 40 L 31 34 z "
       transform="translate(0,1058.5196)"
       id="path4163" />
  </g>
</svg>
