<?xml version="1.0" encoding="UTF-8" standalone="no"?>
<!-- Created with Inkscape (http://www.inkscape.org/) -->

<svg
   xmlns:dc="http://purl.org/dc/elements/1.1/"
   xmlns:cc="http://creativecommons.org/ns#"
   xmlns:rdf="http://www.w3.org/1999/02/22-rdf-syntax-ns#"
   xmlns:svg="http://www.w3.org/2000/svg"
   xmlns="http://www.w3.org/2000/svg"
   xmlns:sodipodi="http://sodipodi.sourceforge.net/DTD/sodipodi-0.dtd"
   xmlns:inkscape="http://www.inkscape.org/namespaces/inkscape"
   width="64"
   height="64"
   viewBox="0 0 64 64.000003"
   id="svg2"
   version="1.1"
   inkscape:version="0.91+devel r"
   sodipodi:docname="calibre-gui.svg">
  <defs
     id="defs4" />
  <sodipodi:namedview
     id="base"
     pagecolor="#ffffff"
     bordercolor="#666666"
     borderopacity="1.0"
     inkscape:pageopacity="0.0"
     inkscape:pageshadow="2"
     inkscape:zoom="15.999999"
     inkscape:cx="28.884616"
     inkscape:cy="16.833205"
     inkscape:document-units="px"
     inkscape:current-layer="layer1"
     showgrid="true"
     units="px"
     inkscape:showpageshadow="false"
     borderlayer="true"
     inkscape:window-width="2560"
     inkscape:window-height="957"
     inkscape:window-x="-4"
     inkscape:window-y="29"
     inkscape:window-maximized="1">
    <inkscape:grid
       type="xygrid"
       id="grid4136"
       empspacing="2" />
    <sodipodi:guide
       position="5,59.000069"
       orientation="54,0"
       id="guide4142" />
    <sodipodi:guide
       position="5,5.0000688"
       orientation="0,54"
       id="guide4144" />
    <sodipodi:guide
       position="59,5.0000688"
       orientation="-54,0"
       id="guide4146" />
    <sodipodi:guide
       position="59,59.000069"
       orientation="0,-54"
       id="guide4148" />
    <sodipodi:guide
       position="0,64.000069"
       orientation="64,0"
       id="guide4150" />
    <sodipodi:guide
       position="0,6.875e-05"
       orientation="0,64"
       id="guide4152" />
    <sodipodi:guide
       position="64,6.875e-05"
       orientation="-64,0"
       id="guide4154" />
    <sodipodi:guide
       position="64,64.000069"
       orientation="0,-64"
       id="guide4156" />
    <sodipodi:guide
       position="10,5.0000002"
       orientation="38,0"
       id="guide4155" />
    <sodipodi:guide
       position="54,5.0000002"
       orientation="-38,0"
       id="guide4159" />
    <sodipodi:guide
       position="14,15.999947"
       orientation="10,0"
       id="guide4167" />
    <sodipodi:guide
       position="15,7.0000003"
       orientation="0,36"
       id="guide4169" />
    <sodipodi:guide
       position="50,5.999947"
       orientation="-10,0"
       id="guide4171" />
    <sodipodi:guide
       position="15,17.000001"
       orientation="0,-36"
       id="guide4173" />
  </sodipodi:namedview>
  <metadata
     id="metadata7">
    <rdf:RDF>
      <cc:Work
         rdf:about="">
        <dc:format>image/svg+xml</dc:format>
        <dc:type
           rdf:resource="http://purl.org/dc/dcmitype/StillImage" />
        <dc:title />
      </cc:Work>
    </rdf:RDF>
  </metadata>
  <g
     inkscape:label="Capa 1"
     inkscape:groupmode="layer"
     id="layer1"
     transform="translate(0,-1058.5196)">
    <path
       style="opacity:1;fill:#3b3e41;fill-opacity:1;stroke:none;stroke-width:1.07623899;stroke-linecap:round;stroke-linejoin:miter;stroke-miterlimit:4;stroke-dasharray:none;stroke-opacity:0.29943501"
       d="M 11 5 C 10.445962 5 10 5.4459619 10 6 L 10 58 C 10 58.554038 10.445962 59 11 59 L 53 59 C 53.554038 59 54 58.554038 54 58 L 54 6 C 54 5.4459619 53.554038 5 53 5 L 11 5 z "
       transform="translate(0,1058.5196)"
       id="rect4161" />
    <rect
       style="opacity:1;fill:#bdc3c7;fill-opacity:1;stroke:none;stroke-width:1;stroke-linecap:round;stroke-linejoin:miter;stroke-miterlimit:4;stroke-dasharray:none;stroke-opacity:0.29943501"
       id="rect4163"
       width="36"
       height="35.999947"
       x="14"
       y="1067.5197" />
    <path
       style="opacity:1;fill:#575c60;fill-opacity:1;stroke:none;stroke-width:1;stroke-linecap:round;stroke-linejoin:miter;stroke-miterlimit:4;stroke-dasharray:none;stroke-opacity:0.29943501"
       d="M 14 47 L 14 49 L 16 49 L 16 47 L 14 47 z M 18 47 L 18 49 L 20 49 L 20 47 L 18 47 z M 22 47 L 22 49 L 24 49 L 24 47 L 22 47 z M 26 47 L 26 49 L 28 49 L 28 47 L 26 47 z M 30 47 L 30 49 L 32 49 L 32 47 L 30 47 z M 34 47 L 34 49 L 36 49 L 36 47 L 34 47 z M 38 47 L 38 49 L 40 49 L 40 47 L 38 47 z M 42 47 L 42 49 L 44 49 L 44 47 L 42 47 z M 46 47 L 46 49 L 48 49 L 50 49 L 50 47 L 48 47 L 46 47 z M 14 51 L 14 53 L 16 53 L 16 51 L 14 51 z M 18 51 L 18 53 L 20 53 L 20 51 L 18 51 z M 22 51 L 22 53 L 24 53 L 24 51 L 22 51 z M 26 51 L 26 53 L 28 53 L 28 51 L 26 51 z M 30 51 L 30 53 L 32 53 L 32 51 L 30 51 z M 34 51 L 34 53 L 36 53 L 36 51 L 34 51 z M 38 51 L 38 53 L 40 53 L 40 51 L 38 51 z M 42 51 L 42 53 L 44 53 L 44 51 L 42 51 z M 46 51 L 46 55 L 50 55 L 50 51 L 46 51 z M 47 52 L 49 52 L 49 54 L 47 54 L 47 52 z M 14 55 L 14 57 L 16 57 L 16 55 L 14 55 z M 18 55 L 18 57 L 20 57 L 20 55 L 18 55 z M 22 55 L 22 57 L 32 57 L 32 55 L 22 55 z M 34 55 L 34 57 L 36 57 L 36 55 L 34 55 z M 38 55 L 38 57 L 44 57 L 44 55 L 38 55 z "
       transform="translate(0,1058.5196)"
       id="rect4175" />
    <path
       style="fill:#62666b;fill-opacity:1;fill-rule:evenodd;stroke:none;stroke-width:1px;stroke-linecap:butt;stroke-linejoin:miter;stroke-opacity:1"
       d="m 24,1077.5196 0,14 2,0 4,0 2,2 2,-2 4,0 2,0 0,-14 -5,0 c -2,0 -3,1 -3,3 0,-2 -1,-3 -3,-3 z m 2,2 3,0 c 1,0 2,1 2,2 l 0,8 -5,0 z m 9,0 3,0 0,10 -5,0 0,-8 c 0,-1 1,-2 2,-2 z"
       id="path4181"
       inkscape:connector-curvature="0"
       sodipodi:nodetypes="cccccccccscsccsscccscccss" />
    <path
       style="opacity:1;fill:#313436;fill-opacity:1;stroke:none;stroke-width:0.1;stroke-linecap:square;stroke-linejoin:miter;stroke-miterlimit:4;stroke-dasharray:none;stroke-dashoffset:0;stroke-opacity:1"
       d="M 10 58 C 10 58.554038 10.445962 59 11 59 L 53 59 C 53.554038 59 54 58.554038 54 58 L 10 58 z "
       transform="translate(0,1058.5196)"
       id="rect4157" />
  </g>
</svg>
