<?xml version="1.0" encoding="UTF-8" standalone="no"?>
<!-- Created with Inkscape (http://www.inkscape.org/) -->

<svg
   xmlns:dc="http://purl.org/dc/elements/1.1/"
   xmlns:cc="http://creativecommons.org/ns#"
   xmlns:rdf="http://www.w3.org/1999/02/22-rdf-syntax-ns#"
   xmlns:svg="http://www.w3.org/2000/svg"
   xmlns="http://www.w3.org/2000/svg"
   xmlns:sodipodi="http://sodipodi.sourceforge.net/DTD/sodipodi-0.dtd"
   xmlns:inkscape="http://www.inkscape.org/namespaces/inkscape"
   width="64"
   height="64"
   viewBox="0 0 64 64.000003"
   id="svg2"
   version="1.1"
   inkscape:version="0.91+devel r"
   sodipodi:docname="calligraauthor.svg">
  <defs
     id="defs4" />
  <sodipodi:namedview
     id="base"
     pagecolor="#ffffff"
     bordercolor="#666666"
     borderopacity="1.0"
     inkscape:pageopacity="0.0"
     inkscape:pageshadow="2"
     inkscape:zoom="3.9999998"
     inkscape:cx="45.13402"
     inkscape:cy="55.023489"
     inkscape:document-units="px"
     inkscape:current-layer="layer1"
     showgrid="true"
     units="px"
     inkscape:showpageshadow="false"
     borderlayer="true"
     inkscape:window-width="2560"
     inkscape:window-height="957"
     inkscape:window-x="-4"
     inkscape:window-y="29"
     inkscape:window-maximized="1">
    <inkscape:grid
       type="xygrid"
       id="grid4136"
       empspacing="2" />
    <sodipodi:guide
       position="5,59.000069"
       orientation="54,0"
       id="guide4142" />
    <sodipodi:guide
       position="5,5.0000688"
       orientation="0,54"
       id="guide4144" />
    <sodipodi:guide
       position="59,5.0000688"
       orientation="-54,0"
       id="guide4146" />
    <sodipodi:guide
       position="59,59.000069"
       orientation="0,-54"
       id="guide4148" />
    <sodipodi:guide
       position="0,64.000069"
       orientation="64,0"
       id="guide4150" />
    <sodipodi:guide
       position="0,6.875e-05"
       orientation="0,64"
       id="guide4152" />
    <sodipodi:guide
       position="64,6.875e-05"
       orientation="-64,0"
       id="guide4154" />
    <sodipodi:guide
       position="64,64.000069"
       orientation="0,-64"
       id="guide4156" />
    <sodipodi:guide
       position="10,5.0000002"
       orientation="38,0"
       id="guide4155" />
    <sodipodi:guide
       position="54,5.0000002"
       orientation="-38,0"
       id="guide4159" />
    <sodipodi:guide
       position="14,15.999947"
       orientation="10,0"
       id="guide4167" />
    <sodipodi:guide
       position="15,7.0000003"
       orientation="0,36"
       id="guide4169" />
    <sodipodi:guide
       position="50,5.999947"
       orientation="-10,0"
       id="guide4171" />
    <sodipodi:guide
       position="15,17.000001"
       orientation="0,-36"
       id="guide4173" />
  </sodipodi:namedview>
  <metadata
     id="metadata7">
    <rdf:RDF>
      <cc:Work
         rdf:about="">
        <dc:format>image/svg+xml</dc:format>
        <dc:type
           rdf:resource="http://purl.org/dc/dcmitype/StillImage" />
        <dc:title />
      </cc:Work>
    </rdf:RDF>
  </metadata>
  <g
     inkscape:label="Capa 1"
     inkscape:groupmode="layer"
     id="layer1"
     transform="translate(0,-1058.5196)">
    <path
       style="fill:#374d64;fill-opacity:1;fill-rule:evenodd;stroke:none;stroke-width:1px;stroke-linecap:butt;stroke-linejoin:miter;stroke-opacity:1"
       d="M 11 5 C 10.44603 5 10 5.4460296 10 6 L 10 55 L 10 57 L 13 57 L 13 55 L 54 55 L 54 6 C 54 5.4460296 53.55397 5 53 5 L 11 5 z "
       transform="translate(0,1058.5196)"
       id="path4178" />
    <path
       style="opacity:1;fill:#2c3e50;fill-opacity:1;stroke:none;stroke-opacity:1"
       d="M 11 5 C 10.44603 5 10 5.4460296 10 6 L 10 57 L 20 57 L 20 5 L 11 5 z "
       transform="translate(0,1058.5196)"
       id="rect4181" />
    <rect
       y="1115.5426"
       x="11"
       height="0.97727275"
       width="43"
       id="rect4310"
       style="fill:#e4f1fe;fill-opacity:1;stroke:none" />
    <path
       style="opacity:1;fill:#243341;fill-opacity:1;stroke:none;stroke-opacity:1"
       d="M 11 5 C 10.44603 5 10 5.4460296 10 6 L 10 57 L 13 57 L 13 5 L 11 5 z "
       transform="translate(0,1058.5196)"
       id="rect4190" />
    <rect
       style="fill:#e4f1fe;fill-opacity:1;stroke:none"
       id="rect4168"
       width="43"
       height="1"
       x="11"
       y="1114.5197" />
    <path
       inkscape:connector-curvature="0"
       style="opacity:1;fill:#2c3e50;fill-opacity:1;stroke:none;stroke-opacity:1"
       d="m 12,1113.5196 c -1.108,0 -2,0.892 -2,2 0,1.108 0.892,2 2,2 l 8,0 34,0 0,-1 -34,0 -8,0 c -0.554,0 -1,-0.446 -1,-1 0,-0.554 0.446,-1 1,-1 l 8,0 0,-1 -8,0 z"
       id="path4188" />
    <path
       inkscape:connector-curvature="0"
       style="opacity:1;fill:#2c3e50;fill-opacity:1;stroke:none;stroke-opacity:1"
       d="m 19,1113.5196 0,1 35,0 0,-1 z"
       id="path4186"
       sodipodi:nodetypes="ccccc" />
    <path
       style="fill:#ecf0f1;fill-opacity:1;stroke:none"
       d="m 45,1080.5196 c 0,0 -4.778263,0.7429 -9.412063,3.5362 0.837147,0.6832 1.573546,1.5199 2.14748,2.514 0.171815,0.2976 0.320587,0.6001 0.455647,0.9073 -0.92999,-1.2676 -2.14231,-2.2262 -3.492627,-2.8567 -0.524872,0.3501 -1.041682,0.7313 -1.547215,1.1391 0.186927,0.2579 0.364079,0.5282 0.526964,0.8103 0.171815,0.2976 0.320587,0.6001 0.455646,0.9073 -0.389729,-0.5312 -0.83407,-1.0033 -1.311468,-1.4264 C 29.604421,1088.7663 27,1092.7261 27,1098.5196 c 0,0 3.758995,-5.4205 10.194585,-7.433 -2.028184,-0.6171 -4.263831,-0.5325 -6.317632,0.3705 0.270556,-0.1985 0.550308,-0.3869 0.847898,-0.5587 2.462257,-1.4216 5.297438,-1.5738 7.75787,-0.6557 C 44.719105,1087.6052 45,1080.5196 45,1080.5196 Z"
       id="path4201"
       inkscape:connector-curvature="0" />
  </g>
</svg>
