<?xml version="1.0" encoding="UTF-8" standalone="no"?>
<!-- Created with Inkscape (http://www.inkscape.org/) -->

<svg
   xmlns:dc="http://purl.org/dc/elements/1.1/"
   xmlns:cc="http://creativecommons.org/ns#"
   xmlns:rdf="http://www.w3.org/1999/02/22-rdf-syntax-ns#"
   xmlns:svg="http://www.w3.org/2000/svg"
   xmlns="http://www.w3.org/2000/svg"
   xmlns:sodipodi="http://sodipodi.sourceforge.net/DTD/sodipodi-0.dtd"
   xmlns:inkscape="http://www.inkscape.org/namespaces/inkscape"
   width="64"
   height="64"
   viewBox="0 0 64 64.000003"
   id="svg2"
   version="1.1"
   inkscape:version="0.91+devel r"
   sodipodi:docname="calligrawords.svg">
  <defs
     id="defs4" />
  <sodipodi:namedview
     id="base"
     pagecolor="#ffffff"
     bordercolor="#666666"
     borderopacity="1.0"
     inkscape:pageopacity="0.0"
     inkscape:pageshadow="2"
     inkscape:zoom="7.9999996"
     inkscape:cx="19.505361"
     inkscape:cy="26.838768"
     inkscape:document-units="px"
     inkscape:current-layer="layer1"
     showgrid="true"
     units="px"
     inkscape:showpageshadow="false"
     borderlayer="true"
     inkscape:window-width="2560"
     inkscape:window-height="957"
     inkscape:window-x="-4"
     inkscape:window-y="29"
     inkscape:window-maximized="1">
    <inkscape:grid
       type="xygrid"
       id="grid4136" />
    <sodipodi:guide
       position="5,59.000069"
       orientation="54,0"
       id="guide4142" />
    <sodipodi:guide
       position="5,5.0000688"
       orientation="0,54"
       id="guide4144" />
    <sodipodi:guide
       position="59,5.0000688"
       orientation="-54,0"
       id="guide4146" />
    <sodipodi:guide
       position="59,59.000069"
       orientation="0,-54"
       id="guide4148" />
    <sodipodi:guide
       position="0,64.000069"
       orientation="64,0"
       id="guide4150" />
    <sodipodi:guide
       position="0,6.875e-05"
       orientation="0,64"
       id="guide4152" />
    <sodipodi:guide
       position="64,6.875e-05"
       orientation="-64,0"
       id="guide4154" />
    <sodipodi:guide
       position="64,64.000069"
       orientation="0,-64"
       id="guide4156" />
    <sodipodi:guide
       position="10,35"
       orientation="38,0"
       id="guide4155" />
    <sodipodi:guide
       position="54,37"
       orientation="-38,0"
       id="guide4159" />
    <sodipodi:guide
       position="21,42.999949"
       orientation="22,0"
       id="guide4239" />
    <sodipodi:guide
       position="21,20.999948"
       orientation="0,22"
       id="guide4241" />
    <sodipodi:guide
       position="43,20.999948"
       orientation="-22,0"
       id="guide4243" />
    <sodipodi:guide
       position="43,42.999949"
       orientation="0,-22"
       id="guide4245" />
  </sodipodi:namedview>
  <metadata
     id="metadata7">
    <rdf:RDF>
      <cc:Work
         rdf:about="">
        <dc:format>image/svg+xml</dc:format>
        <dc:type
           rdf:resource="http://purl.org/dc/dcmitype/StillImage" />
        <dc:title />
      </cc:Work>
    </rdf:RDF>
  </metadata>
  <g
     inkscape:label="Capa 1"
     inkscape:groupmode="layer"
     id="layer1"
     transform="translate(0,-1058.5196)">
    <path
       style="fill:#e9b578;fill-opacity:1;stroke:none"
       d="M 11 5 C 10.446029 5 10 5.4460294 10 6 L 10 58 C 10 58.553971 10.446029 59 11 59 L 40 59 L 53 59 C 53.553971 59 54 58.553971 54 58 L 54 45 L 54 6 C 54 5.4460294 53.553971 5 53 5 L 11 5 z "
       transform="translate(0,1058.5196)"
       id="rect4148" />
    <rect
       style="opacity:1;fill:#ecf0f1;fill-opacity:1;stroke:none;stroke-width:1;stroke-linecap:round;stroke-linejoin:miter;stroke-miterlimit:4;stroke-dasharray:none;stroke-opacity:0.29943501"
       id="rect4229"
       width="40"
       height="47.999947"
       x="12"
       y="1065.5197" />
    <rect
       style="opacity:1;fill:#b4c3c8;fill-opacity:1;stroke:none;stroke-width:1;stroke-linecap:round;stroke-linejoin:miter;stroke-miterlimit:4;stroke-dasharray:none;stroke-opacity:0.29943501"
       id="rect4231"
       width="40"
       height="1"
       x="12"
       y="1114.5197" />
    <rect
       style="opacity:1;fill:#cdd7da;fill-opacity:1;stroke:none;stroke-width:1;stroke-linecap:round;stroke-linejoin:miter;stroke-miterlimit:4;stroke-dasharray:none;stroke-opacity:0.29943501"
       id="rect4233"
       width="40"
       height="1.0000533"
       x="12"
       y="1113.5197" />
    <path
       style="fill:#ecf0f1;fill-rule:evenodd;stroke:none;stroke-width:1px;stroke-linecap:butt;stroke-linejoin:miter;stroke-opacity:1;fill-opacity:1"
       d="m 40,1113.5196 12,-11.9999 -12,0 z"
       id="path4234"
       inkscape:connector-curvature="0" />
    <path
       inkscape:connector-curvature="0"
       id="path4236"
       d="m 52,1101.5197 -12,11.9999 12,0 z"
       style="fill:#dee4e6;fill-opacity:1;fill-rule:evenodd;stroke:none;stroke-width:1px;stroke-linecap:butt;stroke-linejoin:miter;stroke-opacity:1" />
    <path
       inkscape:connector-curvature="0"
       id="path4238"
       d="m 40,1113.5196 12,-11.9999 -12,0 z"
       style="fill:#fafbfb;fill-opacity:1;fill-rule:evenodd;stroke:none;stroke-width:1px;stroke-linecap:butt;stroke-linejoin:miter;stroke-opacity:1" />
    <path
       style="opacity:1;fill:#6c7a89;fill-opacity:1;stroke:none;stroke-width:1;stroke-linecap:round;stroke-linejoin:miter;stroke-miterlimit:4;stroke-dasharray:none;stroke-opacity:0.29943501"
       d="M 15 11 L 15 13 L 28 13 L 28 11 L 15 11 z M 15 17 L 15 18 L 49 18 L 49 17 L 15 17 z M 15 19 L 15 20 L 49 20 L 49 19 L 15 19 z M 15 21 L 15 22 L 21 22 L 21 21 L 15 21 z M 15 25 L 15 26 L 49 26 L 49 25 L 15 25 z M 15 27 L 15 28 L 28 28 L 28 27 L 15 27 z M 15 29 L 15 30 L 43 30 L 43 29 L 15 29 z M 15 34 L 15 49 L 30 49 L 30 34 L 15 34 z M 32 34 L 32 35 L 48 35 L 48 34 L 32 34 z M 16 35 L 29 35 L 29 48 L 16 48 L 16 35 z M 32 36 L 32 37 L 48 37 L 48 36 L 32 36 z M 32 38 L 32 39 L 37 39 L 37 38 L 32 38 z M 32 43 L 32 44 L 40 44 L 40 43 L 32 43 z "
       transform="translate(0,1058.5196)"
       id="rect4240" />
    <path
       style="opacity:1;fill:#e19944;fill-opacity:1;stroke:none;stroke-width:0.1;stroke-linecap:square;stroke-linejoin:miter;stroke-miterlimit:4;stroke-dasharray:none;stroke-dashoffset:0;stroke-opacity:1"
       d="M 10 58 C 10 58.553971 10.446029 59 11 59 L 53 59 C 53.553971 59 54 58.553971 54 58 L 10 58 z "
       transform="translate(0,1058.5196)"
       id="rect4164" />
  </g>
</svg>
