<?xml version="1.0" encoding="UTF-8" standalone="no"?>
<!-- Created with Inkscape (http://www.inkscape.org/) -->

<svg
   xmlns:dc="http://purl.org/dc/elements/1.1/"
   xmlns:cc="http://creativecommons.org/ns#"
   xmlns:rdf="http://www.w3.org/1999/02/22-rdf-syntax-ns#"
   xmlns:svg="http://www.w3.org/2000/svg"
   xmlns="http://www.w3.org/2000/svg"
   xmlns:sodipodi="http://sodipodi.sourceforge.net/DTD/sodipodi-0.dtd"
   xmlns:inkscape="http://www.inkscape.org/namespaces/inkscape"
   width="64"
   height="64"
   viewBox="0 0 64 64.000003"
   id="svg2"
   version="1.1"
   inkscape:version="0.91+devel r"
   sodipodi:docname="ccc_large.svg">
  <defs
     id="defs4" />
  <sodipodi:namedview
     id="base"
     pagecolor="#ffffff"
     bordercolor="#666666"
     borderopacity="1.0"
     inkscape:pageopacity="0.0"
     inkscape:pageshadow="2"
     inkscape:zoom="7.9999996"
     inkscape:cx="29.360395"
     inkscape:cy="33.238817"
     inkscape:document-units="px"
     inkscape:current-layer="layer1"
     showgrid="true"
     units="px"
     inkscape:showpageshadow="false"
     borderlayer="true"
     inkscape:window-width="1366"
     inkscape:window-height="670"
     inkscape:window-x="-4"
     inkscape:window-y="29"
     inkscape:window-maximized="1">
    <inkscape:grid
       type="xygrid"
       id="grid4136" />
    <sodipodi:guide
       position="5,59.000069"
       orientation="54,0"
       id="guide4142" />
    <sodipodi:guide
       position="5,5.0000688"
       orientation="0,54"
       id="guide4144" />
    <sodipodi:guide
       position="59,5.0000688"
       orientation="-54,0"
       id="guide4146" />
    <sodipodi:guide
       position="59,59.000069"
       orientation="0,-54"
       id="guide4148" />
    <sodipodi:guide
       position="0,64.000069"
       orientation="64,0"
       id="guide4150" />
    <sodipodi:guide
       position="0,6.875e-05"
       orientation="0,64"
       id="guide4152" />
    <sodipodi:guide
       position="64,6.875e-05"
       orientation="-64,0"
       id="guide4154" />
    <sodipodi:guide
       position="64,64.000069"
       orientation="0,-64"
       id="guide4156" />
    <sodipodi:guide
       position="13,50.999947"
       orientation="38,0"
       id="guide4155" />
    <sodipodi:guide
       position="13,12.999947"
       orientation="0,38"
       id="guide4157" />
    <sodipodi:guide
       position="51,12.999947"
       orientation="-38,0"
       id="guide4159" />
    <sodipodi:guide
       position="51,50.999947"
       orientation="0,-38"
       id="guide4161" />
  </sodipodi:namedview>
  <metadata
     id="metadata7">
    <rdf:RDF>
      <cc:Work
         rdf:about="">
        <dc:format>image/svg+xml</dc:format>
        <dc:type
           rdf:resource="http://purl.org/dc/dcmitype/StillImage" />
        <dc:title />
      </cc:Work>
    </rdf:RDF>
  </metadata>
  <g
     inkscape:label="Capa 1"
     inkscape:groupmode="layer"
     id="layer1"
     transform="translate(0,-1058.5196)">
    <path
       style="fill:#f1cb6d;fill-opacity:1;stroke:none;stroke-opacity:1"
       d="m 50,1111.5196 0,2 3,0 2,0 0,-2 -2,0 -3,0 z"
       id="rect4256"
       inkscape:connector-curvature="0" />
    <path
       style="fill:#76bd74;fill-opacity:1;stroke:none"
       d="m 5,5 0,46 0,2 2.2695312,0 3.4609378,0 L 13,53 l 0,3 2,0 1,0 1,0 0,-2 1,0 0,2 1,0 1,0 1,0 1,0 1,0 1,0 1,0 1,0 1,0 1,0 1,0 1,0 1,0 1,0 1,0 1,0 1,0 1,0 1,0 1,0 1,0 1,0 1,0 1,0 1,0 1,0 1,0 2,0 0,-3 12,0 0,-48 z"
       transform="translate(0,1058.5196)"
       id="rect4148"
       inkscape:connector-curvature="0"
       sodipodi:nodetypes="ccccccccccccccccccccccccccccccccccccccccccccc" />
    <path
       style="fill:#f1cb6d;fill-opacity:1;fill-rule:evenodd;stroke:none"
       d="M 13 56 L 13 57 L 13 58 L 15 58 L 16 58 L 17 58 L 17 56 L 16 56 L 13 56 z M 18 56 L 18 58 L 19 58 L 20 58 L 21 58 L 22 58 L 23 58 L 24 58 L 25 58 L 26 58 L 27 58 L 28 58 L 29 58 L 30 58 L 31 58 L 32 58 L 33 58 L 34 58 L 35 58 L 36 58 L 37 58 L 38 58 L 39 58 L 40 58 L 41 58 L 42 58 L 43 58 L 44 58 L 45 58 L 47 58 L 47 56 L 45 56 L 44 56 L 43 56 L 42 56 L 41 56 L 40 56 L 39 56 L 38 56 L 37 56 L 36 56 L 35 56 L 34 56 L 33 56 L 32 56 L 31 56 L 30 56 L 29 56 L 28 56 L 27 56 L 26 56 L 25 56 L 24 56 L 23 56 L 22 56 L 21 56 L 20 56 L 19 56 L 18 56 z "
       transform="translate(0,1058.5196)"
       id="rect3345" />
    <path
       style="fill:#f7dea3;fill-opacity:1;fill-rule:evenodd;stroke:none"
       d="M 13 58 L 13 59 L 15 59 L 16 59 L 17 59 L 17 58 L 16 58 L 15 58 L 13 58 z M 18 58 L 18 59 L 19 59 L 20 59 L 21 59 L 22 59 L 23 59 L 24 59 L 25 59 L 26 59 L 27 59 L 28 59 L 29 59 L 30 59 L 31 59 L 32 59 L 33 59 L 34 59 L 35 59 L 36 59 L 37 59 L 38 59 L 39 59 L 40 59 L 41 59 L 42 59 L 43 59 L 44 59 L 45 59 L 47 59 L 47 58 L 45 58 L 44 58 L 43 58 L 42 58 L 41 58 L 40 58 L 39 58 L 38 58 L 37 58 L 36 58 L 35 58 L 34 58 L 33 58 L 32 58 L 31 58 L 30 58 L 29 58 L 28 58 L 27 58 L 26 58 L 25 58 L 24 58 L 23 58 L 22 58 L 21 58 L 20 58 L 19 58 L 18 58 z "
       id="rect4205"
       transform="translate(0,1058.5196)" />
    <rect
       style="fill:#353535;fill-opacity:1;stroke:none;stroke-opacity:1"
       id="rect4150"
       width="58"
       height="47.999947"
       x="3"
       y="1063.5197"
       ry="0" />
    <path
       style="fill:#f1cb6d;fill-opacity:1;stroke:none;stroke-opacity:1"
       d="m 8,1111.5196 0,2 3,0 0,-2 -3,0 z"
       id="rect4224"
       inkscape:connector-curvature="0" />
    <rect
       style="fill:#f7dea3;fill-opacity:1;stroke:none;stroke-opacity:1"
       id="rect4226"
       width="3"
       height="1"
       x="8"
       y="1113.5199" />
    <rect
       y="1113.5199"
       x="50"
       height="1"
       width="5"
       id="rect4254"
       style="fill:#f7dea3;fill-opacity:1;stroke:none;stroke-opacity:1" />
    <rect
       style="fill:#232323;fill-opacity:1;stroke:none;stroke-opacity:1"
       id="rect4171"
       width="58"
       height="36.000008"
       x="3"
       y="1069.5197" />
    <path
       style="fill:#d24d57;fill-rule:evenodd;stroke:none;stroke-width:1px;stroke-linecap:butt;stroke-linejoin:miter;stroke-opacity:1;fill-opacity:1"
       d="M 22 19 L 28 25 L 36 25 L 36 33 L 42 39 L 42 19 L 34 19 L 22 19 z M 36 33 L 28 33 L 28 25 L 22 31 L 22 39 L 30 39 L 36 33 z "
       transform="translate(0,1058.5196)"
       id="path4238" />
  </g>
</svg>
