<?xml version="1.0" encoding="UTF-8" standalone="no"?>
<!-- Created with Inkscape (http://www.inkscape.org/) -->

<svg
   xmlns:dc="http://purl.org/dc/elements/1.1/"
   xmlns:cc="http://creativecommons.org/ns#"
   xmlns:rdf="http://www.w3.org/1999/02/22-rdf-syntax-ns#"
   xmlns:svg="http://www.w3.org/2000/svg"
   xmlns="http://www.w3.org/2000/svg"
   xmlns:sodipodi="http://sodipodi.sourceforge.net/DTD/sodipodi-0.dtd"
   xmlns:inkscape="http://www.inkscape.org/namespaces/inkscape"
   width="64"
   height="64"
   viewBox="0 0 64 64.000003"
   id="svg2"
   version="1.1"
   inkscape:version="0.91+devel r"
   sodipodi:docname="darktable.svg">
  <defs
     id="defs4" />
  <sodipodi:namedview
     id="base"
     pagecolor="#ffffff"
     bordercolor="#666666"
     borderopacity="1.0"
     inkscape:pageopacity="0.0"
     inkscape:pageshadow="2"
     inkscape:zoom="5.7894368"
     inkscape:cx="44.122998"
     inkscape:cy="25.068369"
     inkscape:document-units="px"
     inkscape:current-layer="layer1"
     showgrid="true"
     units="px"
     inkscape:showpageshadow="false"
     borderlayer="true"
     inkscape:window-width="1366"
     inkscape:window-height="670"
     inkscape:window-x="-4"
     inkscape:window-y="29"
     inkscape:window-maximized="1">
    <inkscape:grid
       type="xygrid"
       id="grid4136" />
    <sodipodi:guide
       position="5,59.000069"
       orientation="54,0"
       id="guide4142" />
    <sodipodi:guide
       position="5,5.0000688"
       orientation="0,54"
       id="guide4144" />
    <sodipodi:guide
       position="59,5.0000688"
       orientation="-54,0"
       id="guide4146" />
    <sodipodi:guide
       position="59,59.000069"
       orientation="0,-54"
       id="guide4148" />
    <sodipodi:guide
       position="0,64.000069"
       orientation="64,0"
       id="guide4150" />
    <sodipodi:guide
       position="0,6.875e-05"
       orientation="0,64"
       id="guide4152" />
    <sodipodi:guide
       position="64,6.875e-05"
       orientation="-64,0"
       id="guide4154" />
    <sodipodi:guide
       position="64,64.000069"
       orientation="0,-64"
       id="guide4156" />
  </sodipodi:namedview>
  <metadata
     id="metadata7">
    <rdf:RDF>
      <cc:Work
         rdf:about="">
        <dc:format>image/svg+xml</dc:format>
        <dc:type
           rdf:resource="http://purl.org/dc/dcmitype/StillImage" />
        <dc:title />
      </cc:Work>
    </rdf:RDF>
  </metadata>
  <g
     inkscape:label="Capa 1"
     inkscape:groupmode="layer"
     id="layer1"
     transform="translate(0,-1058.5196)">
    <g
       id="g4188">
      <rect
         ry="1.81641e-06"
         y="1063.5195"
         x="6"
         height="54.000122"
         width="48"
         id="rect4155"
         style="opacity:1;fill:#ecf0f1;fill-opacity:1;stroke:none;stroke-opacity:1" />
      <rect
         ry="2.08551e-06"
         y="1065.5197"
         x="8"
         height="44"
         width="44"
         id="rect4157"
         style="opacity:1;fill:#3ecdf6;fill-opacity:1;stroke:none;stroke-opacity:1" />
      <path
         id="path4202"
         d="m 44,1075.5196 -34,34 42,0 0,-26 -8,-8 z"
         style="fill:#172f55;fill-opacity:1;fill-rule:evenodd;stroke:none;stroke-width:1px;stroke-linecap:butt;stroke-linejoin:miter;stroke-opacity:1"
         inkscape:connector-curvature="0" />
      <path
         id="path4197"
         d="m 20,1089.5196 -12,12 0,8 32,0 -20,-20 z"
         style="fill:#1c3867;fill-opacity:1;fill-rule:evenodd;stroke:none;stroke-width:1px;stroke-linecap:butt;stroke-linejoin:miter;stroke-opacity:1"
         inkscape:connector-curvature="0" />
      <path
         id="path4231"
         d="m 20,1089.5196 -4.666016,4.666 2.666016,-0.666 2,-1 1,2 1,-1 2,0 -4,-4 z"
         style="fill:#f1f2f4;fill-opacity:1;fill-rule:evenodd;stroke:none;stroke-width:1px;stroke-linecap:butt;stroke-linejoin:miter;stroke-opacity:1"
         inkscape:connector-curvature="0" />
      <path
         id="path4236"
         d="m 44,1075.5196 -7.599609,7.5996 3.599609,-1.5996 4,3 1,-2 5,5 -2,-5 2,0 0,-1 -6,-6 z"
         style="fill:#f1f2f4;fill-opacity:1;fill-rule:evenodd;stroke:none;stroke-width:1px;stroke-linecap:butt;stroke-linejoin:miter;stroke-opacity:1"
         inkscape:connector-curvature="0" />
      <path
         sodipodi:nodetypes="cccccccssscccc"
         inkscape:connector-curvature="0"
         id="rect4249"
         d="m 18,1067.5196 c -0.860926,0 -1.679702,0.3729 -2.248047,1.0195 -0.628246,0.078 -1.182434,0.449 -1.494141,1 -0.08543,-0.012 -0.171543,-0.019 -0.257812,-0.019 -1.104569,0 -2,0.8954 -2,2 8.58e-4,0.087 0.0074,0.1737 0.01953,0.2598 -0.628865,0.3537 -1.018466,1.0187 -1.01953,1.7402 0,1.1046 0.895431,2 2,2 l 9,0 c 1.656854,0 3,-1.3431 3,-3 0,-1.6569 -1.343146,-3 -3,-3 -0.0874,7e-4 -0.17472,0.01 -0.261719,0.014 -0.312215,-0.549 -0.865414,-0.9183 -1.492187,-0.9961 -0.568252,-0.6455 -1.386157,-1.016 -2.246094,-1.0176 z"
         style="opacity:1;fill:#baebfc;fill-opacity:1;stroke:none;stroke-opacity:1" />
    </g>
    <g
       id="g4170">
      <path
         id="rect4162"
         transform="translate(0,1058.5196)"
         d="M 4 21 C 3.44603 21 3 21.446 3 22 L 3 26 L 3 27 L 3 59 L 61 59 L 61 58 L 60 58 L 60 35 L 61 35 L 61 27 L 61 26 L 61 22 C 61 21.44603 60.55397 21 60 21 L 59 21 L 57 21 L 5 21 L 4 21 z "
         style="opacity:1;fill:#dadfe1;fill-opacity:1;stroke:none;stroke-width:1;stroke-linecap:round;stroke-linejoin:miter;stroke-miterlimit:4;stroke-dasharray:none;stroke-opacity:0.29943501" />
      <path
         sodipodi:nodetypes="ssssccccccs"
         inkscape:connector-curvature="0"
         id="rect4215"
         transform="translate(0,1058.5196)"
         d="m 16,35 c -1.10797,0 -2,0.89203 -2,2 l 0,19 c 0,1.10797 0.89203,2 2,2 l 42,0 2,0 0,-2 0,-19 0,-2 -2,0 z"
         style="opacity:1;fill:#313b47;fill-opacity:1;stroke:none;stroke-width:0.96076864;stroke-linecap:round;stroke-linejoin:miter;stroke-miterlimit:4;stroke-dasharray:none;stroke-opacity:0.29943501" />
      <rect
         y="1092.5197"
         x="3"
         height="1"
         width="58"
         id="rect4312"
         style="opacity:1;fill:#bac3c8;fill-opacity:1;stroke:none;stroke-width:1;stroke-linecap:round;stroke-linejoin:miter;stroke-miterlimit:4;stroke-dasharray:none;stroke-opacity:0.29943501" />
      <rect
         style="opacity:1;fill:#c4cccf;fill-opacity:1;stroke:none;stroke-width:1;stroke-linecap:round;stroke-linejoin:miter;stroke-miterlimit:4;stroke-dasharray:none;stroke-opacity:0.29943501"
         id="rect4217"
         width="58"
         height="0.99993128"
         x="3"
         y="1116.5197" />
      <ellipse
         style="opacity:1;fill:#ecf0f1;fill-opacity:1;stroke:none;stroke-width:0.47708419;stroke-linecap:round;stroke-linejoin:miter;stroke-miterlimit:4;stroke-dasharray:none;stroke-opacity:0.29943501"
         id="ellipse4163"
         cx="32"
         cy="1098.5197"
         rx="13.000004"
         ry="13.000016" />
      <rect
         style="fill:#000000;fill-opacity:1;fill-rule:evenodd;stroke:none;stroke-width:0.99999994"
         id="rect3429"
         width="20"
         height="20"
         x="22"
         y="1088.5197"
         ry="10" />
      <rect
         ry="8"
         y="1090.5197"
         x="24"
         height="16"
         width="16"
         id="rect3431"
         style="fill:#435564;fill-opacity:1;fill-rule:evenodd;stroke:none;stroke-width:1" />
      <rect
         style="fill:#103151;fill-opacity:1;fill-rule:evenodd;stroke:none;stroke-width:0.99999952"
         id="rect3433"
         width="11.999989"
         height="11.999989"
         x="26.000006"
         y="1092.5197"
         ry="5.9999943" />
      <rect
         ry="4"
         y="1094.5197"
         x="28"
         height="8"
         width="8"
         id="rect3435"
         style="fill:#202332;fill-opacity:1;fill-rule:evenodd;stroke:none;stroke-width:1" />
      <rect
         style="fill:#8ea6bb;fill-opacity:1;fill-rule:evenodd;stroke:none;stroke-width:1"
         id="rect3437"
         width="4"
         height="4"
         x="31.999996"
         y="1094.5195"
         ry="2" />
      <rect
         ry="1"
         y="1100.5197"
         x="28"
         height="2"
         width="2"
         id="rect3439"
         style="fill:#8ea6bb;fill-opacity:1;fill-rule:evenodd;stroke:none;stroke-width:1" />
      <circle
         r="1.4999995"
         cy="1083.0192"
         cx="7.5000019"
         id="path4286"
         style="opacity:1;fill:#e26a6a;fill-opacity:1;stroke:none;stroke-width:1.49999952;stroke-linecap:round;stroke-linejoin:miter;stroke-miterlimit:4;stroke-dasharray:none;stroke-opacity:0.29943501" />
      <rect
         y="1081.5197"
         x="52"
         height="4"
         width="7"
         id="rect4290"
         style="opacity:1;fill:#f5d76e;fill-opacity:1;stroke:none;stroke-width:1;stroke-linecap:round;stroke-linejoin:miter;stroke-miterlimit:4;stroke-dasharray:none;stroke-opacity:0.29943501" />
      <path
         sodipodi:nodetypes="ssccccsss"
         inkscape:connector-curvature="0"
         id="rect4292"
         d="m 13,1076.5196 c -0.55397,0 -1,0.446 -1,1 l 0,1 0,1 7,0 0,-1 0,-1 c 0,-0.554 -0.44603,-1 -1,-1 z"
         style="opacity:1;fill:#dadfe1;fill-opacity:1;stroke:none;stroke-width:1;stroke-linecap:round;stroke-linejoin:miter;stroke-miterlimit:4;stroke-dasharray:none;stroke-opacity:0.29943501" />
      <path
         sodipodi:nodetypes="cscccccc"
         inkscape:connector-curvature="0"
         id="path4297"
         d="m 13,1076.5196 c -0.55397,0 -1,0.446 -1,1 l 0,1 0,1 7,0 0,-1 -6,0 z"
         style="opacity:1;fill:#c4cccf;fill-opacity:1;stroke:none;stroke-width:1;stroke-linecap:round;stroke-linejoin:miter;stroke-miterlimit:4;stroke-dasharray:none;stroke-opacity:0.29943501" />
      <path
         sodipodi:nodetypes="sccss"
         inkscape:connector-curvature="0"
         id="rect4302"
         transform="translate(0,1058.5196)"
         d="m 12,20 c -0.55397,0 -1,0.44603 -1,1 l 9,0 c 0,-0.55397 -0.44603,-1 -1,-1 z"
         style="opacity:1;fill:#7f9196;fill-opacity:1;stroke:none;stroke-width:1;stroke-linecap:round;stroke-linejoin:miter;stroke-miterlimit:4;stroke-dasharray:none;stroke-opacity:0.29943501" />
    </g>
  </g>
</svg>
