<?xml version="1.0" encoding="UTF-8" standalone="no"?>
<!-- Created with Inkscape (http://www.inkscape.org/) -->

<svg
   xmlns:dc="http://purl.org/dc/elements/1.1/"
   xmlns:cc="http://creativecommons.org/ns#"
   xmlns:rdf="http://www.w3.org/1999/02/22-rdf-syntax-ns#"
   xmlns:svg="http://www.w3.org/2000/svg"
   xmlns="http://www.w3.org/2000/svg"
   xmlns:sodipodi="http://sodipodi.sourceforge.net/DTD/sodipodi-0.dtd"
   xmlns:inkscape="http://www.inkscape.org/namespaces/inkscape"
   width="64"
   height="64"
   viewBox="0 0 64 64.000003"
   id="svg2"
   version="1.1"
   inkscape:version="0.91+devel r"
   sodipodi:docname="deadbeef.svg">
  <defs
     id="defs4" />
  <sodipodi:namedview
     id="base"
     pagecolor="#ffffff"
     bordercolor="#666666"
     borderopacity="1.0"
     inkscape:pageopacity="0.0"
     inkscape:pageshadow="2"
     inkscape:zoom="5.590563"
     inkscape:cx="13.629291"
     inkscape:cy="34.537209"
     inkscape:document-units="px"
     inkscape:current-layer="layer1"
     showgrid="true"
     units="px"
     inkscape:showpageshadow="false"
     borderlayer="true"
     inkscape:window-width="1366"
     inkscape:window-height="670"
     inkscape:window-x="-4"
     inkscape:window-y="29"
     inkscape:window-maximized="1">
    <inkscape:grid
       type="xygrid"
       id="grid4136"
       empspacing="2" />
    <sodipodi:guide
       position="5,59.000069"
       orientation="54,0"
       id="guide4142" />
    <sodipodi:guide
       position="5,5.0000688"
       orientation="0,54"
       id="guide4144" />
    <sodipodi:guide
       position="59,5.0000688"
       orientation="-54,0"
       id="guide4146" />
    <sodipodi:guide
       position="59,59.000069"
       orientation="0,-54"
       id="guide4148" />
    <sodipodi:guide
       position="0,64.000069"
       orientation="64,0"
       id="guide4150" />
    <sodipodi:guide
       position="0,6.875e-05"
       orientation="0,64"
       id="guide4152" />
    <sodipodi:guide
       position="64,6.875e-05"
       orientation="-64,0"
       id="guide4154" />
    <sodipodi:guide
       position="64,64.000069"
       orientation="0,-64"
       id="guide4156" />
    <sodipodi:guide
       position="15,48.999949"
       orientation="34,0"
       id="guide4168" />
    <sodipodi:guide
       position="15,14.999947"
       orientation="0,34"
       id="guide4170" />
    <sodipodi:guide
       position="49,14.999947"
       orientation="-34,0"
       id="guide4172" />
    <sodipodi:guide
       position="49,48.999949"
       orientation="0,-34"
       id="guide4174" />
    <sodipodi:guide
       position="15,32.000436"
       orientation="17,0"
       id="guide4175" />
    <sodipodi:guide
       position="15,15.000436"
       orientation="0,17"
       id="guide4177" />
    <sodipodi:guide
       position="32,15.000436"
       orientation="-17,0"
       id="guide4179" />
    <sodipodi:guide
       position="32,32.000436"
       orientation="0,-17"
       id="guide4181" />
  </sodipodi:namedview>
  <metadata
     id="metadata7">
    <rdf:RDF>
      <cc:Work
         rdf:about="">
        <dc:format>image/svg+xml</dc:format>
        <dc:type
           rdf:resource="http://purl.org/dc/dcmitype/StillImage" />
        <dc:title />
      </cc:Work>
    </rdf:RDF>
  </metadata>
  <g
     inkscape:label="Capa 1"
     inkscape:groupmode="layer"
     id="layer1"
     transform="translate(0,-1058.5196)">
    <rect
       style="opacity:1;fill:#1e1e1e;fill-opacity:1;stroke:none;stroke-width:0.1;stroke-linecap:round;stroke-linejoin:miter;stroke-miterlimit:4;stroke-dasharray:none;stroke-opacity:0.29943501"
       id="rect4301"
       width="6"
       height="2.9999313"
       x="10"
       y="1114.5197" />
    <rect
       y="1114.5197"
       x="48"
       height="2.9999313"
       width="6"
       id="rect4303"
       style="opacity:1;fill:#1e1e1e;fill-opacity:1;stroke:none;stroke-width:0.1;stroke-linecap:round;stroke-linejoin:miter;stroke-miterlimit:4;stroke-dasharray:none;stroke-opacity:0.29943501" />
    <rect
       style="fill:#16a085;fill-opacity:1;stroke:none"
       id="rect4158"
       width="52"
       height="51.999931"
       x="6"
       y="1063.5197"
       ry="0" />
    <rect
       style="opacity:1;fill:#1bbc9b;fill-opacity:1;stroke:none;stroke-width:0.1;stroke-linecap:round;stroke-linejoin:miter;stroke-miterlimit:4;stroke-dasharray:none;stroke-opacity:0.29943501"
       id="rect4211"
       width="50"
       height="49.999947"
       x="7"
       y="1064.5197" />
    <rect
       ry="0"
       y="1075.5197"
       x="8"
       height="38.000053"
       width="48"
       id="rect4173"
       style="fill:#252525;fill-opacity:1;stroke:none" />
    <rect
       style="opacity:1;fill:#111111;fill-opacity:1;stroke:none;stroke-width:0.1;stroke-linecap:round;stroke-linejoin:miter;stroke-miterlimit:4;stroke-dasharray:none;stroke-opacity:0.29943501"
       id="rect4194"
       width="48"
       height="8.9999466"
       x="8"
       y="1065.5197" />
    <circle
       r="10"
       cy="1094.5197"
       cx="32"
       id="circle4196"
       style="fill:#181818;fill-opacity:1;stroke:none;stroke-opacity:1" />
    <circle
       style="fill:#080808;fill-opacity:1;stroke:none;stroke-opacity:1"
       id="circle4198"
       cx="32"
       cy="1094.5197"
       r="4" />
    <circle
       r="2.0000005"
       cy="1069.5197"
       cx="13"
       id="circle4306"
       style="fill:#252525;fill-opacity:1;stroke:none;stroke-opacity:1" />
    <circle
       style="fill:#dadfe1;fill-opacity:1;stroke:none;stroke-opacity:1"
       id="circle4308"
       cx="13"
       cy="1069.5197"
       r="1" />
    <path
       inkscape:connector-curvature="0"
       style="fill:#bdc3c7;fill-opacity:1;stroke:none;stroke-opacity:1"
       d="M 13.316406,1068.5722 13,1069.5195 l 0.707031,-0.707 a 1,1 0 0 0 -0.390625,-0.2403 z"
       id="path4310" />
    <path
       inkscape:connector-curvature="0"
       style="fill:#bdc3c7;fill-opacity:1;stroke:none;stroke-opacity:1"
       d="m 13.947267,1069.205 -0.947266,0.3145 0.96875,0.2422 a 1,1 0 0 0 0.03125,-0.2422 1,1 0 0 0 -0.05273,-0.3145 z"
       id="path4312" />
    <path
       inkscape:connector-curvature="0"
       style="fill:#bdc3c7;fill-opacity:1;stroke:none;stroke-opacity:1"
       d="m 12.052735,1069.2031 a 1,1 0 0 0 -0.05273,0.3164 1,1 0 0 0 0.03125,0.2422 L 13,1069.5195 l -0.947265,-0.3164 z"
       id="path4314" />
    <path
       inkscape:connector-curvature="0"
       style="fill:#bdc3c7;fill-opacity:1;stroke:none;stroke-opacity:1"
       d="m 12.697267,1068.5683 a 1,1 0 0 0 -0.396486,0.2383 l 0.712892,0.7129 -0.316406,-0.9512 z"
       id="path4316" />
    <path
       inkscape:connector-curvature="0"
       style="fill:#bdc3c7;fill-opacity:1;stroke:none;stroke-opacity:1"
       d="m 13.013673,1069.623 -0.660156,0.6602 a 1,1 0 0 0 0.373046,0.1972 l 0.28711,-0.8574 z"
       id="path4318" />
    <rect
       y="1073.5197"
       x="8"
       height="1.0000533"
       width="48"
       id="rect4231"
       style="opacity:1;fill:#2f2f2f;fill-opacity:1;stroke:none;stroke-width:0.1;stroke-linecap:round;stroke-linejoin:miter;stroke-miterlimit:4;stroke-dasharray:none;stroke-opacity:0.29943501" />
    <circle
       style="fill:#252525;fill-opacity:1;stroke:none;stroke-opacity:1"
       id="circle4233"
       cx="19"
       cy="1069.5197"
       r="2.0000005" />
    <circle
       r="1"
       cy="1069.5197"
       cx="19"
       id="circle4235"
       style="fill:#dadfe1;fill-opacity:1;stroke:none;stroke-opacity:1" />
    <path
       id="path4237"
       d="M 19.316406,1068.5722 19,1069.5195 l 0.707031,-0.707 a 1,1 0 0 0 -0.390625,-0.2403 z"
       style="fill:#bdc3c7;fill-opacity:1;stroke:none;stroke-opacity:1"
       inkscape:connector-curvature="0" />
    <path
       id="path4239"
       d="m 19.947267,1069.205 -0.947266,0.3145 0.96875,0.2422 a 1,1 0 0 0 0.03125,-0.2422 1,1 0 0 0 -0.05273,-0.3145 z"
       style="fill:#bdc3c7;fill-opacity:1;stroke:none;stroke-opacity:1"
       inkscape:connector-curvature="0" />
    <path
       id="path4241"
       d="m 18.052735,1069.2031 a 1,1 0 0 0 -0.05273,0.3164 1,1 0 0 0 0.03125,0.2422 L 19,1069.5195 l -0.947265,-0.3164 z"
       style="fill:#bdc3c7;fill-opacity:1;stroke:none;stroke-opacity:1"
       inkscape:connector-curvature="0" />
    <path
       id="path4243"
       d="m 18.697267,1068.5683 a 1,1 0 0 0 -0.396486,0.2383 l 0.712892,0.7129 -0.316406,-0.9512 z"
       style="fill:#bdc3c7;fill-opacity:1;stroke:none;stroke-opacity:1"
       inkscape:connector-curvature="0" />
    <path
       id="path4245"
       d="m 19.013673,1069.623 -0.660156,0.6602 a 1,1 0 0 0 0.373046,0.1972 l 0.28711,-0.8574 z"
       style="fill:#bdc3c7;fill-opacity:1;stroke:none;stroke-opacity:1"
       inkscape:connector-curvature="0" />
    <rect
       style="fill:#232323;fill-opacity:1;stroke:none;stroke-opacity:1"
       id="rect4179"
       width="5"
       height="5.9999466"
       x="49"
       y="1066.5197" />
    <rect
       style="fill:#d24d57;fill-opacity:1;stroke:none;stroke-opacity:1"
       id="rect4181"
       width="3"
       height="3.9999466"
       x="50"
       y="1067.5197" />
    <rect
       y="1070.5195"
       x="50"
       height="1.0000533"
       width="3"
       id="rect4183"
       style="fill:#bc313b;fill-opacity:1;stroke:none;stroke-opacity:1" />
    <path
       style="fill:#dadfe1;fill-rule:evenodd;stroke:none;stroke-width:1px;stroke-linecap:butt;stroke-linejoin:miter;stroke-opacity:1;fill-opacity:1"
       d="m 43,1096.5196 0,2 0,5 3.414062,-2.5605 3.585938,2.5605 -7,5 0,2 10,-7 -10,-7 z"
       id="path4190"
       inkscape:connector-curvature="0" />
    <path
       style="opacity:1;fill:#bdc3c7;fill-opacity:1;stroke:none;stroke-width:1;stroke-linecap:round;stroke-linejoin:miter;stroke-miterlimit:4;stroke-dasharray:none;stroke-opacity:0.29943501"
       d="M 43 40.625 L 43 44.166016 L 43.910156 44.318359 L 45.691406 42.980469 L 43 40.625 z M 48.673828 41.970703 L 48.273438 43.767578 L 48.833984 44.166016 L 50.058594 42.941406 L 48.673828 41.970703 z M 49.646484 45.253906 L 48.599609 46 L 49.478516 47.464844 L 52.099609 45.630859 L 49.646484 45.253906 z M 47.070312 47.09375 L 43.074219 49.947266 C 43.480088 50.35179 43.929971 50.706908 44.425781 51.001953 L 45.740234 50.082031 L 47.070312 47.09375 z "
       transform="translate(0,1058.5196)"
       id="rect4252" />
    <circle
       style="fill:#252525;fill-opacity:1;stroke:none;stroke-opacity:1"
       id="circle4195"
       cx="25"
       cy="1069.5197"
       r="2.0000005" />
    <circle
       r="1"
       cy="1069.5197"
       cx="25"
       id="circle4197"
       style="fill:#dadfe1;fill-opacity:1;stroke:none;stroke-opacity:1" />
    <path
       id="path4199"
       d="M 25.316406,1068.5722 25,1069.5195 l 0.707031,-0.707 a 1,1 0 0 0 -0.390625,-0.2403 z"
       style="fill:#bdc3c7;fill-opacity:1;stroke:none;stroke-opacity:1"
       inkscape:connector-curvature="0" />
    <path
       id="path4201"
       d="m 25.947267,1069.205 -0.947266,0.3145 0.96875,0.2422 a 1,1 0 0 0 0.03125,-0.2422 1,1 0 0 0 -0.05273,-0.3145 z"
       style="fill:#bdc3c7;fill-opacity:1;stroke:none;stroke-opacity:1"
       inkscape:connector-curvature="0" />
    <path
       id="path4203"
       d="m 24.052735,1069.2031 a 1,1 0 0 0 -0.05273,0.3164 1,1 0 0 0 0.03125,0.2422 L 25,1069.5195 l -0.947265,-0.3164 z"
       style="fill:#bdc3c7;fill-opacity:1;stroke:none;stroke-opacity:1"
       inkscape:connector-curvature="0" />
    <path
       id="path4205"
       d="m 24.697267,1068.5683 a 1,1 0 0 0 -0.396486,0.2383 l 0.712892,0.7129 -0.316406,-0.9512 z"
       style="fill:#bdc3c7;fill-opacity:1;stroke:none;stroke-opacity:1"
       inkscape:connector-curvature="0" />
    <path
       id="path4207"
       d="m 25.013673,1069.623 -0.660156,0.6602 a 1,1 0 0 0 0.373046,0.1972 l 0.28711,-0.8574 z"
       style="fill:#bdc3c7;fill-opacity:1;stroke:none;stroke-opacity:1"
       inkscape:connector-curvature="0" />
    <circle
       r="2.0000005"
       cy="1069.5197"
       cx="31"
       id="circle4209"
       style="fill:#252525;fill-opacity:1;stroke:none;stroke-opacity:1" />
    <circle
       style="fill:#dadfe1;fill-opacity:1;stroke:none;stroke-opacity:1"
       id="circle4211"
       cx="31"
       cy="1069.5197"
       r="1" />
    <path
       inkscape:connector-curvature="0"
       style="fill:#bdc3c7;fill-opacity:1;stroke:none;stroke-opacity:1"
       d="M 31.316406,1068.5722 31,1069.5195 l 0.707031,-0.707 a 1,1 0 0 0 -0.390625,-0.2403 z"
       id="path4213" />
    <path
       inkscape:connector-curvature="0"
       style="fill:#bdc3c7;fill-opacity:1;stroke:none;stroke-opacity:1"
       d="m 31.947267,1069.205 -0.947266,0.3145 0.96875,0.2422 a 1,1 0 0 0 0.03125,-0.2422 1,1 0 0 0 -0.05273,-0.3145 z"
       id="path4215" />
    <path
       inkscape:connector-curvature="0"
       style="fill:#bdc3c7;fill-opacity:1;stroke:none;stroke-opacity:1"
       d="m 30.052735,1069.2031 a 1,1 0 0 0 -0.05273,0.3164 1,1 0 0 0 0.03125,0.2422 L 31,1069.5195 l -0.947265,-0.3164 z"
       id="path4217" />
    <path
       inkscape:connector-curvature="0"
       style="fill:#bdc3c7;fill-opacity:1;stroke:none;stroke-opacity:1"
       d="m 30.697267,1068.5683 a 1,1 0 0 0 -0.396486,0.2383 l 0.712892,0.7129 -0.316406,-0.9512 z"
       id="path4219" />
    <path
       inkscape:connector-curvature="0"
       style="fill:#bdc3c7;fill-opacity:1;stroke:none;stroke-opacity:1"
       d="m 31.013673,1069.623 -0.660156,0.6602 a 1,1 0 0 0 0.373046,0.1972 l 0.28711,-0.8574 z"
       id="path4221" />
    <circle
       r="2.0000005"
       cy="1069.5197"
       cx="37"
       id="circle4223"
       style="fill:#252525;fill-opacity:1;stroke:none;stroke-opacity:1" />
    <circle
       style="fill:#dadfe1;fill-opacity:1;stroke:none;stroke-opacity:1"
       id="circle4225"
       cx="37"
       cy="1069.5197"
       r="1" />
    <path
       inkscape:connector-curvature="0"
       style="fill:#bdc3c7;fill-opacity:1;stroke:none;stroke-opacity:1"
       d="M 37.316406,1068.5722 37,1069.5195 l 0.707031,-0.707 a 1,1 0 0 0 -0.390625,-0.2403 z"
       id="path4227" />
    <path
       inkscape:connector-curvature="0"
       style="fill:#bdc3c7;fill-opacity:1;stroke:none;stroke-opacity:1"
       d="m 37.947267,1069.205 -0.947266,0.3145 0.96875,0.2422 a 1,1 0 0 0 0.03125,-0.2422 1,1 0 0 0 -0.05273,-0.3145 z"
       id="path4229" />
    <path
       inkscape:connector-curvature="0"
       style="fill:#bdc3c7;fill-opacity:1;stroke:none;stroke-opacity:1"
       d="m 36.052735,1069.2031 a 1,1 0 0 0 -0.05273,0.3164 1,1 0 0 0 0.03125,0.2422 L 37,1069.5195 l -0.947265,-0.3164 z"
       id="path4231" />
    <path
       inkscape:connector-curvature="0"
       style="fill:#bdc3c7;fill-opacity:1;stroke:none;stroke-opacity:1"
       d="m 36.697267,1068.5683 a 1,1 0 0 0 -0.396486,0.2383 l 0.712892,0.7129 -0.316406,-0.9512 z"
       id="path4233" />
    <path
       inkscape:connector-curvature="0"
       style="fill:#bdc3c7;fill-opacity:1;stroke:none;stroke-opacity:1"
       d="m 37.013673,1069.623 -0.660156,0.6602 a 1,1 0 0 0 0.373046,0.1972 l 0.28711,-0.8574 z"
       id="path4235" />
    <circle
       style="fill:#252525;fill-opacity:1;stroke:none;stroke-opacity:1"
       id="circle4237"
       cx="43"
       cy="1069.5197"
       r="2.0000005" />
    <circle
       r="1"
       cy="1069.5197"
       cx="43"
       id="circle4239"
       style="fill:#dadfe1;fill-opacity:1;stroke:none;stroke-opacity:1" />
    <path
       id="path4242"
       d="M 43.316406,1068.5722 43,1069.5195 l 0.707031,-0.707 a 1,1 0 0 0 -0.390625,-0.2403 z"
       style="fill:#bdc3c7;fill-opacity:1;stroke:none;stroke-opacity:1"
       inkscape:connector-curvature="0" />
    <path
       id="path4244"
       d="m 43.947267,1069.205 -0.947266,0.3145 0.96875,0.2422 a 1,1 0 0 0 0.03125,-0.2422 1,1 0 0 0 -0.05273,-0.3145 z"
       style="fill:#bdc3c7;fill-opacity:1;stroke:none;stroke-opacity:1"
       inkscape:connector-curvature="0" />
    <path
       id="path4246"
       d="m 42.052735,1069.2031 a 1,1 0 0 0 -0.05273,0.3164 1,1 0 0 0 0.03125,0.2422 L 43,1069.5195 l -0.947265,-0.3164 z"
       style="fill:#bdc3c7;fill-opacity:1;stroke:none;stroke-opacity:1"
       inkscape:connector-curvature="0" />
    <path
       id="path4248"
       d="m 42.697267,1068.5683 a 1,1 0 0 0 -0.396486,0.2383 l 0.712892,0.7129 -0.316406,-0.9512 z"
       style="fill:#bdc3c7;fill-opacity:1;stroke:none;stroke-opacity:1"
       inkscape:connector-curvature="0" />
    <path
       id="path4250"
       d="m 43.013673,1069.623 -0.660156,0.6602 a 1,1 0 0 0 0.373046,0.1972 l 0.28711,-0.8574 z"
       style="fill:#bdc3c7;fill-opacity:1;stroke:none;stroke-opacity:1"
       inkscape:connector-curvature="0" />
  </g>
</svg>
