<?xml version="1.0" encoding="UTF-8" standalone="no"?>
<!-- Created with Inkscape (http://www.inkscape.org/) -->

<svg
   xmlns:dc="http://purl.org/dc/elements/1.1/"
   xmlns:cc="http://creativecommons.org/ns#"
   xmlns:rdf="http://www.w3.org/1999/02/22-rdf-syntax-ns#"
   xmlns:svg="http://www.w3.org/2000/svg"
   xmlns="http://www.w3.org/2000/svg"
   xmlns:sodipodi="http://sodipodi.sourceforge.net/DTD/sodipodi-0.dtd"
   xmlns:inkscape="http://www.inkscape.org/namespaces/inkscape"
   width="64"
   height="64"
   viewBox="0 0 64 64.000003"
   id="svg2"
   version="1.1"
   inkscape:version="0.91+devel r"
   sodipodi:docname="devhelp.svg">
  <defs
     id="defs4" />
  <sodipodi:namedview
     id="base"
     pagecolor="#ffffff"
     bordercolor="#666666"
     borderopacity="1.0"
     inkscape:pageopacity="0.0"
     inkscape:pageshadow="2"
     inkscape:zoom="4"
     inkscape:cx="-1.6056045"
     inkscape:cy="29.585328"
     inkscape:document-units="px"
     inkscape:current-layer="layer1"
     showgrid="true"
     units="px"
     inkscape:showpageshadow="false"
     borderlayer="true"
     inkscape:window-width="1366"
     inkscape:window-height="670"
     inkscape:window-x="-4"
     inkscape:window-y="29"
     inkscape:window-maximized="1">
    <inkscape:grid
       type="xygrid"
       id="grid4136" />
    <sodipodi:guide
       position="5,59.000069"
       orientation="54,0"
       id="guide4142" />
    <sodipodi:guide
       position="5,5.0000688"
       orientation="0,54"
       id="guide4144" />
    <sodipodi:guide
       position="59,5.0000688"
       orientation="-54,0"
       id="guide4146" />
    <sodipodi:guide
       position="59,59.000069"
       orientation="0,-54"
       id="guide4148" />
    <sodipodi:guide
       position="0,64.000069"
       orientation="64,0"
       id="guide4150" />
    <sodipodi:guide
       position="0,6.875e-05"
       orientation="0,64"
       id="guide4152" />
    <sodipodi:guide
       position="64,6.875e-05"
       orientation="-64,0"
       id="guide4154" />
    <sodipodi:guide
       position="64,64.000069"
       orientation="0,-64"
       id="guide4156" />
    <sodipodi:guide
       position="10,35"
       orientation="38,0"
       id="guide4155" />
    <sodipodi:guide
       position="54,37"
       orientation="-38,0"
       id="guide4159" />
    <sodipodi:guide
       position="51,50.999947"
       orientation="0,-38"
       id="guide4161" />
  </sodipodi:namedview>
  <metadata
     id="metadata7">
    <rdf:RDF>
      <cc:Work
         rdf:about="">
        <dc:format>image/svg+xml</dc:format>
        <dc:type
           rdf:resource="http://purl.org/dc/dcmitype/StillImage" />
        <dc:title />
      </cc:Work>
    </rdf:RDF>
  </metadata>
  <g
     inkscape:label="Capa 1"
     inkscape:groupmode="layer"
     id="layer1"
     transform="translate(0,-1058.5196)">
    <path
       style="fill:#4b77be;fill-rule:evenodd;stroke:none;stroke-width:1px;stroke-linecap:butt;stroke-linejoin:miter;stroke-opacity:1;fill-opacity:1"
       d="M 10 5 L 10 55 L 10 57 L 13 57 L 13 55 L 54 55 L 54 5 L 10 5 z "
       transform="translate(0,1058.5196)"
       id="path4178" />
    <rect
       style="opacity:1;fill:#2c3e50;fill-opacity:1;stroke:none;stroke-opacity:1"
       id="rect4181"
       width="10"
       height="52.000069"
       x="10"
       y="1063.5195" />
    <path
       style="opacity:1;fill:#233547;fill-opacity:1;stroke:none;stroke-opacity:1"
       d="M 10 5 L 10 57 L 13 57 L 13 5 L 10 5 z "
       transform="translate(0,1058.5196)"
       id="rect4190" />
    <rect
       y="1115.5426"
       x="11"
       height="0.97727275"
       width="43"
       id="rect4310"
       style="fill:#d5eff5;fill-opacity:1;stroke:none" />
    <rect
       style="fill:#e0f4f8;fill-opacity:1;stroke:none"
       id="rect4168"
       width="43"
       height="1"
       x="11"
       y="1114.5197" />
    <path
       style="opacity:1;fill:#2c3e50;fill-opacity:1;stroke:none;stroke-opacity:1"
       d="M 12 55 C 10.892 55 10 55.892 10 57 C 10 58.108 10.892 59 12 59 L 20 59 L 54 59 L 54 58 L 20 58 L 12 58 C 11.446 58 11 57.554 11 57 C 11 56.446 11.446 56 12 56 L 20 56 L 20 55 L 12 55 z "
       id="path4188"
       transform="translate(0,1058.5196)" />
    <path
       style="opacity:1;fill:#2c3e50;fill-opacity:1;stroke:none;stroke-opacity:1"
       d="M 20 55 L 20 56 L 54 56 L 54 55 L 20 55 z "
       id="path4186"
       transform="translate(0,1058.5196)" />
    <path
       style="opacity:1;fill:#f39c12;fill-opacity:1;stroke:none;stroke-opacity:1"
       d="m 20,5 0,18 4,-2 4,2 0,-18 z"
       transform="translate(0,1058.5196)"
       id="rect4196"
       inkscape:connector-curvature="0"
       sodipodi:nodetypes="cccccc" />
    <path
       style="opacity:1;fill:#e4f1fe;fill-opacity:1;stroke:none;stroke-width:1;stroke-linecap:round;stroke-linejoin:miter;stroke-miterlimit:4;stroke-dasharray:none;stroke-opacity:0.29943501"
       d="m 33,1088.5196 0,22 4,0 6,0 c 3.87797,0 7,-3.122 7,-7 l 0,-8 c 0,-3.878 -3.12203,-7 -7,-7 l -6,0 -4,0 z m 4,3 4.908203,0 c 2.820345,0 5.091797,2.2715 5.091797,5.0918 l 0,5.8184 c 0,2.8203 -2.271452,5.0898 -5.091797,5.0898 l -4.908203,0 0,-16 z"
       id="rect4200"
       inkscape:connector-curvature="0" />
  </g>
</svg>
