<?xml version="1.0" encoding="UTF-8" standalone="no"?>
<!-- Created with Inkscape (http://www.inkscape.org/) -->

<svg
   xmlns:dc="http://purl.org/dc/elements/1.1/"
   xmlns:cc="http://creativecommons.org/ns#"
   xmlns:rdf="http://www.w3.org/1999/02/22-rdf-syntax-ns#"
   xmlns:svg="http://www.w3.org/2000/svg"
   xmlns="http://www.w3.org/2000/svg"
   xmlns:sodipodi="http://sodipodi.sourceforge.net/DTD/sodipodi-0.dtd"
   xmlns:inkscape="http://www.inkscape.org/namespaces/inkscape"
   width="64"
   height="64"
   viewBox="0 0 64 64.000003"
   id="svg2"
   version="1.1"
   inkscape:version="0.91+devel r"
   sodipodi:docname="evince.svg">
  <defs
     id="defs4" />
  <sodipodi:namedview
     id="base"
     pagecolor="#ffffff"
     bordercolor="#666666"
     borderopacity="1.0"
     inkscape:pageopacity="0.0"
     inkscape:pageshadow="2"
     inkscape:zoom="8"
     inkscape:cx="40.538881"
     inkscape:cy="44.446095"
     inkscape:document-units="px"
     inkscape:current-layer="layer1"
     showgrid="true"
     units="px"
     inkscape:showpageshadow="false"
     borderlayer="true"
     inkscape:window-width="2560"
     inkscape:window-height="957"
     inkscape:window-x="-4"
     inkscape:window-y="29"
     inkscape:window-maximized="1">
    <inkscape:grid
       type="xygrid"
       id="grid4136" />
    <sodipodi:guide
       position="5,59.000069"
       orientation="54,0"
       id="guide4142" />
    <sodipodi:guide
       position="5,5.0000688"
       orientation="0,54"
       id="guide4144" />
    <sodipodi:guide
       position="59,5.0000688"
       orientation="-54,0"
       id="guide4146" />
    <sodipodi:guide
       position="59,59.000069"
       orientation="0,-54"
       id="guide4148" />
    <sodipodi:guide
       position="0,64.000069"
       orientation="64,0"
       id="guide4150" />
    <sodipodi:guide
       position="0,6.875e-05"
       orientation="0,64"
       id="guide4152" />
    <sodipodi:guide
       position="64,6.875e-05"
       orientation="-64,0"
       id="guide4154" />
    <sodipodi:guide
       position="64,64.000069"
       orientation="0,-64"
       id="guide4156" />
    <sodipodi:guide
       position="10,35"
       orientation="38,0"
       id="guide4155" />
    <sodipodi:guide
       position="54,37"
       orientation="-38,0"
       id="guide4159" />
    <sodipodi:guide
       position="51,50.999947"
       orientation="0,-38"
       id="guide4161" />
  </sodipodi:namedview>
  <metadata
     id="metadata7">
    <rdf:RDF>
      <cc:Work
         rdf:about="">
        <dc:format>image/svg+xml</dc:format>
        <dc:type
           rdf:resource="http://purl.org/dc/dcmitype/StillImage" />
        <dc:title />
      </cc:Work>
    </rdf:RDF>
  </metadata>
  <g
     inkscape:label="Capa 1"
     inkscape:groupmode="layer"
     id="layer1"
     transform="translate(0,-1058.5196)">
    <path
       style="fill:#d64541;fill-rule:evenodd;stroke:none;stroke-width:1px;stroke-linecap:butt;stroke-linejoin:miter;stroke-opacity:1;fill-opacity:1"
       d="M 11 5 C 10.44603 5 10 5.4460296 10 6 L 10 55 L 10 57 L 13 57 L 13 55 L 54 55 L 54 6 C 54 5.4460296 53.55397 5 53 5 L 11 5 z "
       transform="translate(0,1058.5196)"
       id="path4178" />
    <path
       style="opacity:1;fill:#96281b;fill-opacity:1;stroke:none;stroke-opacity:1"
       d="M 11 5 C 10.44603 5 10 5.4460296 10 6 L 10 57 L 20 57 L 20 5 L 11 5 z "
       transform="translate(0,1058.5196)"
       id="rect4181" />
    <path
       style="opacity:1;fill:#812317;fill-opacity:1;stroke:none;stroke-opacity:1"
       d="M 11 5 C 10.44603 5 10 5.4460296 10 6 L 10 57 L 13 57 L 13 5 L 11 5 z "
       transform="translate(0,1058.5196)"
       id="rect4190" />
    <rect
       y="1115.5426"
       x="11"
       height="0.97727275"
       width="43"
       id="rect4310"
       style="fill:#f8cece;fill-opacity:1;stroke:none" />
    <rect
       style="fill:#f8dddd;fill-opacity:1;stroke:none"
       id="rect4168"
       width="43"
       height="1"
       x="11"
       y="1114.5197" />
    <path
       style="opacity:1;fill:#96281b;fill-opacity:1;stroke:none;stroke-opacity:1"
       d="M 12 55 C 10.892 55 10 55.892 10 57 C 10 58.108 10.892 59 12 59 L 20 59 L 54 59 L 54 58 L 20 58 L 12 58 C 11.446 58 11 57.554 11 57 C 11 56.446 11.446 56 12 56 L 20 56 L 20 55 L 12 55 z "
       id="path4188"
       transform="translate(0,1058.5196)" />
    <path
       style="opacity:1;fill:#96281b;fill-opacity:1;stroke:none;stroke-opacity:1"
       d="M 20 55 L 20 56 L 54 56 L 54 55 L 20 55 z "
       id="path4186"
       transform="translate(0,1058.5196)" />
    <path
       style="opacity:1;fill:#f4d03f;fill-opacity:1;stroke:none;stroke-opacity:1"
       d="M 20 5 L 20 39 L 23 37 L 26 39 L 26 5 L 20 5 z "
       transform="translate(0,1058.5196)"
       id="rect4196" />
    <path
       style="font-style:normal;font-variant:normal;font-weight:normal;font-stretch:normal;font-size:medium;line-height:125%;font-family:'Respective 2.0';-inkscape-font-specification:'Respective 2.0, ';letter-spacing:0px;word-spacing:0px;fill:#f4cccb;fill-opacity:1;stroke:none;stroke-width:8px;stroke-linecap:butt;stroke-linejoin:miter;stroke-opacity:1"
       d="M 54 9.1894531 C 51.584932 10.323849 49.170927 11.905712 46.755859 13.939453 C 43.598526 16.584786 40.654495 19.827969 37.923828 23.667969 C 35.278495 27.422635 33.229964 31.349313 31.779297 35.445312 C 30.243297 39.455979 29.518182 43.380703 29.603516 47.220703 C 29.66755 50.10225 30.378808 52.695072 31.740234 55 L 40.564453 55 C 40.023655 53.951139 39.653812 52.681181 39.458984 51.1875 C 39.202984 49.224833 39.246557 47.00787 39.587891 44.533203 C 40.014557 41.973203 40.610906 39.32637 41.378906 36.595703 C 43.25624 38.131703 45.475156 38.644813 48.035156 38.132812 C 50.023554 37.735133 52.011602 36.966067 54 35.847656 L 54 32.222656 C 53.678284 32.535212 53.358795 32.852407 53.027344 33.140625 C 51.15001 34.847292 49.230245 35.95675 47.267578 36.46875 C 45.304911 36.895417 43.597151 36.211922 42.146484 34.419922 C 43.255818 31.091922 44.579234 27.80712 46.115234 24.564453 C 47.651234 21.321786 49.271849 18.506521 50.978516 16.117188 C 51.98585 14.726107 52.992666 13.542877 54 12.529297 L 54 9.1894531 z M 54 53.599609 C 53.358251 54.102929 52.723361 54.569512 52.09375 55 L 54 55 L 54 53.599609 z "
       transform="translate(0,1058.5196)"
       id="path4190" />
  </g>
</svg>
