<?xml version="1.0" encoding="UTF-8" standalone="no"?>
<!-- Created with Inkscape (http://www.inkscape.org/) -->

<svg
   xmlns:dc="http://purl.org/dc/elements/1.1/"
   xmlns:cc="http://creativecommons.org/ns#"
   xmlns:rdf="http://www.w3.org/1999/02/22-rdf-syntax-ns#"
   xmlns:svg="http://www.w3.org/2000/svg"
   xmlns="http://www.w3.org/2000/svg"
   xmlns:sodipodi="http://sodipodi.sourceforge.net/DTD/sodipodi-0.dtd"
   xmlns:inkscape="http://www.inkscape.org/namespaces/inkscape"
   width="64"
   height="64"
   viewBox="0 0 64 64.000003"
   id="svg2"
   version="1.1"
   inkscape:version="0.91+devel r"
   sodipodi:docname="agenda.svg">
  <defs
     id="defs4" />
  <sodipodi:namedview
     id="base"
     pagecolor="#ffffff"
     bordercolor="#666666"
     borderopacity="1.0"
     inkscape:pageopacity="0.0"
     inkscape:pageshadow="2"
     inkscape:zoom="7.9999995"
     inkscape:cx="63.417193"
     inkscape:cy="41.541247"
     inkscape:document-units="px"
     inkscape:current-layer="layer1"
     showgrid="true"
     units="px"
     inkscape:showpageshadow="false"
     borderlayer="true"
     inkscape:window-width="2560"
     inkscape:window-height="957"
     inkscape:window-x="-4"
     inkscape:window-y="29"
     inkscape:window-maximized="1">
    <inkscape:grid
       type="xygrid"
       id="grid4136" />
    <sodipodi:guide
       position="5,59.000069"
       orientation="54,0"
       id="guide4142" />
    <sodipodi:guide
       position="5,5.0000688"
       orientation="0,54"
       id="guide4144" />
    <sodipodi:guide
       position="59,5.0000688"
       orientation="-54,0"
       id="guide4146" />
    <sodipodi:guide
       position="59,59.000069"
       orientation="0,-54"
       id="guide4148" />
    <sodipodi:guide
       position="0,64.000069"
       orientation="64,0"
       id="guide4150" />
    <sodipodi:guide
       position="0,6.875e-05"
       orientation="0,64"
       id="guide4152" />
    <sodipodi:guide
       position="64,6.875e-05"
       orientation="-64,0"
       id="guide4154" />
    <sodipodi:guide
       position="64,64.000069"
       orientation="0,-64"
       id="guide4156" />
    <sodipodi:guide
       position="10,35"
       orientation="38,0"
       id="guide4155" />
    <sodipodi:guide
       position="54,37"
       orientation="-38,0"
       id="guide4159" />
    <sodipodi:guide
       position="51,50.999947"
       orientation="0,-38"
       id="guide4161" />
  </sodipodi:namedview>
  <metadata
     id="metadata7">
    <rdf:RDF>
      <cc:Work
         rdf:about="">
        <dc:format>image/svg+xml</dc:format>
        <dc:type
           rdf:resource="http://purl.org/dc/dcmitype/StillImage" />
        <dc:title />
      </cc:Work>
    </rdf:RDF>
  </metadata>
  <g
     inkscape:label="Capa 1"
     inkscape:groupmode="layer"
     id="layer1"
     transform="translate(0,-1058.5196)">
    <rect
       style="fill:#fcefcf;fill-opacity:1;stroke:none"
       id="rect4148"
       width="44"
       height="53.999947"
       x="10"
       y="1063.5197"
       ry="0.99994665" />
    <path
       style="fill:#bfb8a7;fill-opacity:1;stroke:none"
       d="M 10 58 C 10 58.55397 10.44603 59 11 59 L 53 59 C 53.55397 59 54 58.55397 54 58 L 10 58 z "
       transform="translate(0,1058.5196)"
       id="rect4308" />
    <rect
       y="1115.5199"
       x="10"
       height="1"
       width="44"
       id="rect4310"
       style="fill:#dbd7ce;fill-opacity:1;stroke:none" />
    <path
       style="fill:#fbe9be;fill-opacity:1;stroke:none"
       d="M 10 7 L 10 8 L 54 8 L 54 7 L 10 7 z M 10 11 L 10 12 L 54 12 L 54 11 L 10 11 z M 10 15 L 10 16 L 54 16 L 54 15 L 10 15 z M 10 19 L 10 20 L 54 20 L 54 19 L 10 19 z M 10 23 L 10 24 L 54 24 L 54 23 L 10 23 z M 10 27 L 10 28 L 54 28 L 54 27 L 10 27 z M 10 31 L 10 32 L 54 32 L 54 31 L 10 31 z M 10 35 L 10 36 L 54 36 L 54 35 L 10 35 z M 10 39 L 10 40 L 54 40 L 54 39 L 10 39 z M 10 43 L 10 44 L 54 44 L 54 43 L 10 43 z M 10 47 L 10 48 L 54 48 L 54 47 L 10 47 z M 10 51 L 10 52 L 54 52 L 54 51 L 10 51 z M 10 55 L 10 56 L 54 56 L 54 55 L 10 55 z "
       transform="translate(0,1058.5196)"
       id="rect4338" />
    <rect
       style="fill:#b18060;fill-opacity:1;stroke:none"
       id="rect4336"
       width="1"
       height="51.999996"
       x="17"
       y="1063.5195" />
    <path
       inkscape:connector-curvature="0"
       style="opacity:1;fill:#2ecc71;fill-opacity:1;stroke:none;stroke-width:0.1;stroke-linecap:round;stroke-linejoin:miter;stroke-miterlimit:4;stroke-dasharray:none;stroke-opacity:0.29943501"
       d="m 50.267601,1095.5207 -7.658203,13.2656 -5.613281,-3.2363 -0.996094,1.7324 5.609375,3.2363 -0.002,0 1.732422,1 0.002,0 1,-1.7324 7.658157,-13.2656 -1.732422,-1 z"
       id="rect4162" />
  </g>
</svg>
