<?xml version="1.0" encoding="UTF-8" standalone="no"?>
<!-- Created with Inkscape (http://www.inkscape.org/) -->

<svg
   xmlns:dc="http://purl.org/dc/elements/1.1/"
   xmlns:cc="http://creativecommons.org/ns#"
   xmlns:rdf="http://www.w3.org/1999/02/22-rdf-syntax-ns#"
   xmlns:svg="http://www.w3.org/2000/svg"
   xmlns="http://www.w3.org/2000/svg"
   xmlns:sodipodi="http://sodipodi.sourceforge.net/DTD/sodipodi-0.dtd"
   xmlns:inkscape="http://www.inkscape.org/namespaces/inkscape"
   width="64"
   height="64"
   viewBox="0 0 64 64.000003"
   id="svg2"
   version="1.1"
   inkscape:version="0.91 r13725"
   sodipodi:docname="firefox-developer-edition.svg">
  <defs
     id="defs4" />
  <sodipodi:namedview
     id="base"
     pagecolor="#ffffff"
     bordercolor="#666666"
     borderopacity="1.0"
     inkscape:pageopacity="0.0"
     inkscape:pageshadow="2"
     inkscape:zoom="4"
     inkscape:cx="25.438763"
     inkscape:cy="29.793499"
     inkscape:document-units="px"
     inkscape:current-layer="layer1"
     showgrid="true"
     units="px"
     inkscape:showpageshadow="false"
     borderlayer="true"
     inkscape:window-width="1239"
     inkscape:window-height="829"
     inkscape:window-x="717"
     inkscape:window-y="145"
     inkscape:window-maximized="0"
     showguides="true">
    <inkscape:grid
       type="xygrid"
       id="grid4136" />
    <sodipodi:guide
       position="5,59.000069"
       orientation="54,0"
       id="guide4142" />
    <sodipodi:guide
       position="5,5.0000688"
       orientation="0,54"
       id="guide4144" />
    <sodipodi:guide
       position="59,5.0000688"
       orientation="-54,0"
       id="guide4146" />
    <sodipodi:guide
       position="59,59.000069"
       orientation="0,-54"
       id="guide4148" />
    <sodipodi:guide
       position="0,64.000069"
       orientation="64,0"
       id="guide4150" />
    <sodipodi:guide
       position="0,6.875e-05"
       orientation="0,64"
       id="guide4152" />
    <sodipodi:guide
       position="64,6.875e-05"
       orientation="-64,0"
       id="guide4154" />
    <sodipodi:guide
       position="64,64.000069"
       orientation="0,-64"
       id="guide4156" />
    <sodipodi:guide
       position="13,50.999947"
       orientation="38,0"
       id="guide4155" />
    <sodipodi:guide
       position="13,12.999947"
       orientation="0,38"
       id="guide4157" />
    <sodipodi:guide
       position="51,12.999947"
       orientation="-38,0"
       id="guide4159" />
    <sodipodi:guide
       position="51,50.999947"
       orientation="0,-38"
       id="guide4161" />
    <sodipodi:guide
       position="105,16.999947"
       orientation="0,30"
       id="guide4153" />
    <sodipodi:guide
       position="47,16.999947"
       orientation="-30,0"
       id="guide4158" />
    <sodipodi:guide
       position="49,46.999949"
       orientation="0,-30"
       id="guide4160" />
  </sodipodi:namedview>
  <metadata
     id="metadata7">
    <rdf:RDF>
      <cc:Work
         rdf:about="">
        <dc:format>image/svg+xml</dc:format>
        <dc:type
           rdf:resource="http://purl.org/dc/dcmitype/StillImage" />
        <dc:title />
      </cc:Work>
    </rdf:RDF>
  </metadata>
  <g
     inkscape:label="Capa 1"
     inkscape:groupmode="layer"
     id="layer1"
     transform="translate(0,-1058.5196)">
    <circle
       cy="1090.5197"
       cx="32"
       id="path4141"
       style="display:inline;opacity:1;fill:#134681;fill-opacity:1;fill-rule:evenodd;stroke:none;stroke-width:3.64957857;stroke-linecap:round;stroke-linejoin:round;stroke-miterlimit:4;stroke-dasharray:none;stroke-opacity:1"
       r="26" />
    <path
       style="fill:#182b5a;fill-opacity:1;fill-rule:nonzero;stroke:none"
       d="M 27.833984 6.3476562 A 26 26 0 0 0 23.681641 7.4003906 C 23.602551 7.6403624 23.332166 7.7775831 23.105469 7.8925781 C 22.868529 8.0116781 22.564532 8.3135566 22.308594 8.1601562 C 22.232436 7.9616823 22.438101 7.9124986 22.5 7.8027344 A 26 26 0 0 0 12.007812 15.388672 C 13.6848 17.385038 16.813569 16.279945 20.216797 14.808594 C 20.171587 14.819314 20.124567 14.833528 20.083984 14.830078 C 19.903794 14.813078 19.697873 14.566237 19.697266 14.398438 C 19.696653 14.191337 19.997344 14.074291 19.818359 13.837891 C 19.844009 13.677491 20.200238 13.587931 20.15625 13.332031 C 20.11105 13.066031 19.738534 13.201756 19.40625 13.160156 C 19.164376 13.130156 18.845241 12.991447 18.630859 12.873047 C 18.347508 12.716147 18.105825 12.409181 17.736328 12.363281 C 17.526205 12.337281 17.32946 12.436453 17.230469 12.314453 C 17.12186 12.184753 17.2751 11.991444 17.28125 11.902344 C 17.27405 11.755344 17.000601 11.708453 16.988281 11.564453 C 16.978481 11.461653 17.24832 11.143884 17.351562 11.054688 C 17.54269 10.888286 17.891405 10.713675 18.199219 10.546875 C 18.500354 10.383575 18.848678 10.211081 19.140625 10.113281 C 19.265286 10.070281 19.407618 10.086062 19.527344 10.039062 C 19.833301 9.92647 20.03471 9.7097 20.324219 9.625 C 20.475095 9.578 20.641979 9.5927812 20.810547 9.5507812 C 21.211808 9.4627813 21.508218 9.1734344 21.849609 9.1152344 C 21.773899 9.3937344 21.463327 9.4382031 21.390625 9.7207031 C 21.683173 10.253103 22.18413 9.5954565 22.527344 9.5976562 C 22.838891 9.5976562 23.150973 10.039647 23.347656 9.6230469 C 23.276246 9.3976469 23.066167 9.270025 22.865234 9.140625 C 22.679578 9.021425 22.386734 8.9131969 22.40625 8.6542969 C 22.629221 8.5535969 22.714253 8.8249719 22.914062 8.8261719 C 23.022762 8.8267719 23.164996 8.6919969 23.277344 8.6542969 C 23.529027 8.5692969 23.94985 8.5433875 24.148438 8.3671875 C 24.268082 8.2613875 24.246998 8.0913781 24.339844 7.9550781 C 24.419284 7.8399781 24.616844 7.8067531 24.701172 7.6894531 C 24.803831 7.5465531 24.718302 7.4268625 24.849609 7.3515625 C 25.131829 7.2255625 25.482251 7.3805625 25.794922 7.3515625 C 25.94276 7.3375625 26.040436 7.2188156 26.179688 7.2285156 C 26.450281 7.2515156 26.593816 7.6849935 26.783203 7.8085938 C 26.921848 7.8965938 27.171458 7.8933658 27.195312 8.0722656 C 27.242293 8.4251656 26.732683 8.4544125 26.419922 8.6328125 C 26.264194 8.7198125 26.202325 8.9215406 26.011719 8.9941406 C 25.499932 9.1896406 24.720349 8.7760781 24.556641 9.3300781 C 24.79305 9.6781781 25.226683 9.3076396 25.525391 9.3066406 C 25.738554 9.3066406 25.99825 9.5041313 26.128906 9.6445312 C 26.241931 9.7660314 26.282494 10.002631 26.419922 10.082031 C 26.511532 10.135031 26.672073 10.11725 26.783203 10.15625 C 27.138043 10.26425 27.435806 10.455447 27.824219 10.373047 C 27.957399 10.139047 27.550582 10.072272 27.705078 9.8886719 C 27.965345 9.9116719 28.131702 10.028075 28.332031 10.109375 C 28.611824 9.9046746 28.800821 9.8793815 28.791016 9.5507812 C 28.783316 9.2758814 28.424823 9.2630125 28.429688 8.9453125 C 28.432688 8.7665125 28.557838 8.6871406 28.693359 8.6816406 C 29.004815 8.6666406 29.095699 9.1325156 29.324219 9.1660156 C 29.462171 9.1880156 29.870608 8.9857125 29.953125 8.9453125 C 30.069673 8.8893125 30.424011 8.6804469 30.435547 8.5605469 C 30.453347 8.3821469 30.062145 8.1493188 29.878906 8.0742188 C 29.618118 7.9672187 29.358274 7.9866658 29.253906 7.7597656 C 29.198336 7.6362656 29.284077 7.5119814 29.179688 7.4257812 C 29.167388 7.2949813 29.339245 7.2086315 29.300781 7.0820312 C 29.261661 6.9533315 29.120734 6.9756781 28.9375 6.8925781 C 28.808655 6.8345781 28.688442 6.7007281 28.576172 6.6738281 C 28.424618 6.6398249 28.275631 6.674 28.160156 6.625 C 27.981008 6.5586265 27.898248 6.4554972 27.833984 6.3476562 z M 26.279297 7.875 C 26.045087 7.845 25.728608 8.0443375 25.767578 8.2109375 C 25.832878 8.4890375 26.521367 8.2110875 26.470703 7.9921875 C 26.426863 7.9191875 26.357388 7.8850531 26.279297 7.8769531 L 26.279297 7.875 z M 27.59375 8.4746094 C 27.6221 8.4741094 27.654721 8.49 27.681641 8.5 C 27.698741 8.6215 27.628751 8.6571781 27.509766 8.6425781 C 27.438296 8.5545781 27.50837 8.4763098 27.59375 8.4746094 z M 22.117188 9.9863281 C 22.070138 9.9908281 22.028318 10.003391 21.996094 10.025391 C 21.901484 10.081391 21.889898 10.171497 21.898438 10.216797 C 21.950267 10.473997 22.434538 10.250188 22.429688 10.117188 C 22.426787 10.055188 22.353858 10.008534 22.261719 9.9902344 L 22.261719 9.9941406 C 22.215649 9.9841406 22.164229 9.9818321 22.117188 9.9863281 z M 23.976562 10.138672 C 23.649826 10.214672 23.665413 10.719306 23.349609 10.816406 C 23.392409 11.052806 23.070548 11.207631 23.035156 11.394531 C 23.011336 11.520631 23.074721 11.670756 23.082031 11.785156 C 23.154731 12.941856 22.203062 13.484225 21.076172 13.453125 C 20.855114 13.664525 20.907441 14.057856 20.787109 14.347656 C 20.732519 14.47901 20.602565 14.610955 20.457031 14.705078 C 20.996524 14.470223 21.528814 14.248741 22.076172 14.009766 C 23.695322 13.330089 25.389002 12.574927 27.203125 12.171875 C 26.823434 12.42715 26.474851 12.678766 26.158203 12.925781 C 25.208899 13.666529 24.539931 14.37035 24.136719 15.035156 L 24.015625 15.15625 C 23.887636 15.370775 23.768629 15.59484 23.65625 15.824219 C 23.55803 16.027154 23.465864 16.236844 23.380859 16.453125 C 23.378559 16.458925 23.3773 16.464883 23.375 16.470703 C 23.192337 16.938244 23.04002 17.437352 22.921875 17.974609 C 22.998975 17.950499 23.089252 17.919851 23.15625 17.894531 C 23.497034 17.764931 23.848213 17.532769 24.222656 17.605469 C 24.149376 17.865069 23.798255 17.772691 23.857422 18.087891 C 23.939952 18.525191 24.523218 17.958531 24.677734 17.894531 C 24.972799 17.769631 25.478034 17.695085 25.865234 17.554688 C 26.204803 17.431286 26.814192 17.243869 26.494141 16.855469 C 26.22719 16.837469 26.097916 17.166125 25.865234 17.265625 C 25.704559 17.290625 25.736339 17.132041 25.599609 17.119141 C 25.470077 17.102141 25.395501 17.240248 25.261719 17.21875 C 25.128633 17.19475 24.942697 16.989584 24.921875 16.833984 C 24.868805 16.430284 25.262421 16.264091 25.429688 15.962891 C 25.319163 15.597691 24.815152 15.88479 24.509766 15.742188 C 24.539076 15.524885 24.76542 15.373631 25.019531 15.332031 C 25.22775 15.300031 25.694383 15.318688 25.818359 15.429688 C 25.891059 15.488687 25.827059 15.642641 25.939453 15.744141 C 26.062856 15.855441 26.213065 15.846015 26.373047 15.820312 C 26.431177 15.544714 26.013394 15.614241 26.058594 15.431641 C 26.385322 15.217741 26.914415 15.399938 27.314453 15.335938 C 27.544709 15.303937 27.788132 15.136584 27.992188 15.021484 C 28.186349 14.912284 28.440606 14.716384 28.646484 14.896484 C 28.702734 15.093684 28.465392 15.161566 28.355469 15.259766 C 27.985363 15.588866 27.602139 15.967709 27.314453 16.349609 C 27.491008 16.521909 27.814662 16.431799 28.113281 16.466797 C 28.229957 16.484797 28.378495 16.518969 28.501953 16.542969 C 28.646055 16.568969 28.797202 16.563797 28.910156 16.591797 C 29.113602 16.642797 29.172033 16.861328 29.373047 16.861328 C 29.704031 16.860628 29.705062 16.500944 29.517578 16.277344 C 29.576878 16.048844 29.668516 15.931784 29.587891 15.771484 C 29.438838 15.473784 28.891401 15.772584 28.863281 15.384766 C 28.845541 15.143666 29.064987 15.153456 29.152344 14.972656 C 29.112544 14.506656 29.539256 14.472387 29.494141 14.054688 C 29.475231 13.879786 29.325886 13.880097 29.203125 13.716797 C 29.139585 13.633797 29.107515 13.467044 29.03125 13.402344 C 28.778351 13.188844 28.26552 13.230066 28.234375 12.822266 C 28.222995 12.581366 28.291422 12.378588 28.257812 12.117188 C 28.226733 11.873686 28.060819 11.198744 27.847656 11.152344 C 27.577665 11.095344 27.300259 11.555684 26.976562 11.708984 C 26.800618 11.791984 26.549597 11.886916 26.373047 11.853516 C 26.25825 11.830516 26.029417 11.661053 26.011719 11.439453 C 25.992129 11.185053 26.179537 11.181556 26.226562 10.910156 C 26.186183 10.750356 26.02218 10.785116 25.865234 10.666016 C 25.687472 10.531016 25.545008 10.242384 25.308594 10.208984 C 25.190788 10.189984 25.039167 10.295594 24.921875 10.308594 C 24.562094 10.333594 24.250193 10.076972 23.976562 10.138672 z M 44.082031 12.007812 C 43.963873 12.108342 43.859815 12.214858 43.835938 12.271484 C 43.767297 12.43426 43.840184 12.620394 43.833984 12.863281 C 44.131512 12.887691 44.434592 12.924641 44.748047 12.982422 C 44.661377 12.791569 44.538658 12.61046 44.416016 12.429688 C 44.313002 12.286712 44.203409 12.145218 44.082031 12.007812 z M 42.259766 13.726562 C 42.253266 13.741642 42.243734 13.750234 42.240234 13.771484 C 42.216364 13.920484 42.36559 13.993013 42.361328 14.132812 C 42.289878 14.310614 42.080319 14.355813 42.044922 14.570312 C 42.289839 14.970114 42.87942 14.608531 43.183594 14.519531 C 43.320416 14.476531 43.519832 14.488551 43.59375 14.376953 C 43.60205 14.364223 43.596062 14.342545 43.601562 14.328125 C 43.170451 14.125772 42.722979 13.924239 42.259766 13.726562 z M 13.626953 13.84375 C 14.079487 13.73785 13.896864 14.538928 13.626953 14.548828 C 13.250692 14.562828 13.323913 13.91455 13.626953 13.84375 z M 44.130859 14.583984 C 44.122859 14.598174 44.107613 14.604894 44.101562 14.621094 C 44.143783 14.739094 44.322892 14.721128 44.341797 14.861328 C 44.314907 15.015328 44.041696 15.040425 44.101562 15.203125 C 44.360538 15.405325 44.630077 15.158906 44.875 15.128906 C 44.980945 15.115396 45.080353 15.121741 45.185547 15.119141 C 44.847521 14.938503 44.493028 14.761131 44.130859 14.583984 z M 46.007812 15.576172 C 45.861964 15.645752 45.714345 15.707785 45.650391 15.708984 C 45.512967 15.708984 45.38601 15.583434 45.287109 15.615234 C 45.141787 15.663234 45.159828 15.944253 44.996094 16.001953 C 44.675434 16.114753 44.141037 15.717412 44.029297 16.195312 C 44.166718 16.471712 44.515886 16.403641 44.755859 16.556641 C 44.906737 16.650641 45.223935 17.072475 45.263672 17.234375 C 45.297252 17.371175 45.245623 17.913194 45.189453 18.058594 C 45.039797 18.444394 44.692069 18.309428 44.248047 18.298828 C 44.126509 18.298828 43.999071 18.330219 43.886719 18.324219 C 43.137912 18.272219 42.385231 18.011622 42.046875 18.544922 C 42.074175 18.955422 42.160685 19.227284 42.070312 19.583984 C 42.003763 19.845884 41.769709 20.083547 41.78125 20.310547 C 41.78665 20.425747 41.921027 20.536912 41.949219 20.695312 C 41.963959 20.778312 41.910079 20.958956 41.949219 21.035156 C 42.072005 21.273656 42.408237 21.069375 42.626953 21.109375 C 42.840723 21.142375 43.088381 21.450053 43.085938 21.689453 C 43.083638 21.856353 42.924031 22.134222 42.818359 22.294922 C 42.607104 22.615622 42.323839 22.631734 42.021484 22.802734 C 41.769282 22.945634 41.661507 23.183141 41.513672 23.431641 C 41.353602 23.700441 41.25633 23.863053 41.322266 24.251953 C 41.106064 24.680753 40.777836 24.944437 40.330078 25.148438 C 40.1976 25.206437 40.01608 25.230558 39.894531 25.318359 C 39.798091 25.391359 39.740941 25.575869 39.603516 25.730469 C 39.434341 25.919769 39.257152 25.996525 39.167969 26.140625 C 39.099009 26.252125 39.075779 26.473347 39 26.623047 C 38.896749 26.825947 38.672709 26.927013 38.537109 27.132812 C 38.474799 27.231813 38.438169 27.418169 38.369141 27.542969 C 38.215836 27.821269 37.956257 28.022678 37.984375 28.267578 C 38.012375 28.504578 38.276608 28.547406 38.294922 28.753906 C 38.305622 28.869006 38.219749 28.939306 38.224609 29.066406 C 38.232809 29.252006 38.354481 29.382591 38.369141 29.525391 C 38.405791 29.884591 38.243553 30.029991 38.175781 30.275391 C 38.143391 30.391691 38.159426 30.523434 38.128906 30.615234 C 38.069606 30.794634 37.81935 30.957322 37.814453 31.169922 C 37.811453 31.321422 37.971536 31.44445 37.984375 31.65625 C 37.994175 31.80215 37.907954 31.953491 37.933594 32.087891 C 37.984894 32.351191 38.455585 32.658681 38.660156 32.863281 C 38.933789 33.136881 39.290299 33.348419 39.408203 33.636719 C 39.507733 33.881519 39.510671 34.204172 39.701172 34.388672 C 39.842242 34.524172 40.075055 34.6082 40.255859 34.75 C 40.424342 34.8809 40.608951 34.998172 40.789062 35.138672 C 41.083517 35.368972 41.526992 35.824462 41.996094 35.789062 C 42.241009 35.769062 42.491652 35.572936 42.769531 35.523438 C 43.055398 35.472437 43.42655 35.445609 43.714844 35.474609 C 43.935988 35.498609 44.160975 35.630241 44.390625 35.619141 C 44.633026 35.608141 44.914002 35.424987 45.189453 35.304688 C 45.66645 35.097088 46.37934 34.817822 47.076172 34.919922 C 47.606962 34.997922 47.579582 35.604891 47.947266 35.837891 C 48.185617 35.856311 48.398347 35.808177 48.599609 35.773438 C 48.637359 35.154077 48.646452 34.508424 48.638672 33.847656 C 48.634672 33.615037 48.636973 33.388496 48.626953 33.150391 C 48.618153 32.909883 48.601087 32.662301 48.585938 32.416016 C 48.545198 31.799866 48.497258 31.176684 48.417969 30.525391 C 48.693733 30.740391 48.990269 31.147359 49.300781 31.755859 C 49.611294 32.364359 49.937637 33.175966 50.273438 34.197266 C 50.396062 33.814228 50.499985 33.417483 50.587891 33.009766 C 50.674981 32.60584 50.745682 32.190128 50.798828 31.761719 C 50.799301 31.757919 50.800281 31.75382 50.800781 31.75 C 50.822451 31.574169 50.82777 31.387013 50.84375 31.207031 C 50.86709 30.944136 50.896993 30.685862 50.908203 30.414062 C 50.926773 29.963787 50.928633 29.500303 50.914062 29.025391 C 50.914062 29.025391 50.914062 29.023438 50.914062 29.023438 C 50.899152 28.542986 50.867049 28.050816 50.818359 27.544922 C 50.783769 27.185604 50.729299 26.811709 50.677734 26.439453 C 50.656644 26.287097 50.645024 26.140866 50.621094 25.986328 C 50.620313 25.981328 50.619941 25.975753 50.619141 25.970703 C 50.569771 25.653165 50.502719 25.322855 50.441406 24.996094 C 50.400956 24.78047 50.369866 24.571232 50.324219 24.351562 C 50.323019 24.345862 50.321513 24.339694 50.320312 24.333984 C 50.205239 23.781737 50.073521 23.216559 49.925781 22.638672 C 49.925781 22.638672 49.925781 22.636719 49.925781 22.636719 C 49.863641 22.593089 49.798142 22.548309 49.785156 22.503906 C 49.733856 22.325506 50.11216 22.124256 50.125 21.972656 C 50.1348 21.860056 49.983202 21.785175 49.955078 21.609375 C 49.938578 21.502475 50.000649 21.391016 49.980469 21.320312 C 49.945059 21.195512 49.737732 21.057687 49.542969 21.054688 C 49.37066 21.054688 49.207767 21.194219 49.060547 21.199219 C 48.847986 21.213219 48.50346 21.081709 48.240234 21.099609 C 48.078953 21.114609 47.927603 21.209503 47.777344 21.220703 C 47.355871 21.252703 47.017525 21.199703 46.691406 21.220703 C 46.453864 21.237703 46.041374 21.308413 45.820312 21.412109 C 45.707968 21.464109 45.625177 21.579644 45.480469 21.652344 C 45.415169 21.683344 45.322993 21.685516 45.236328 21.728516 C 45.098898 21.788516 44.958785 21.937903 44.828125 21.970703 C 44.638736 22.020703 44.345907 21.937266 44.003906 21.947266 C 43.75838 21.963266 43.357194 21.963196 43.353516 21.654297 C 43.347616 21.206497 44.112477 21.371969 44.535156 21.292969 C 44.694535 21.263969 44.782134 21.114753 44.972656 21.001953 C 45.063756 20.947953 45.178124 20.940163 45.263672 20.880859 C 45.410202 20.778059 45.628961 20.538675 45.650391 20.421875 C 45.669311 20.313875 45.588832 20.163984 45.601562 20.083984 C 45.618203 19.980184 45.735924 19.873741 45.867188 19.744141 C 46.071154 19.542541 46.29454 19.272625 46.544922 19.140625 C 46.716006 19.052625 46.950519 19.060425 47.029297 18.923828 C 47.047037 18.768928 47.000226 18.680163 47.003906 18.539062 C 47.109006 18.441063 47.183515 18.360797 47.271484 18.341797 C 47.532272 18.285797 47.788237 18.524419 48.091797 18.511719 C 48.223062 18.511719 48.337442 18.408906 48.478516 18.316406 C 48.597008 18.237406 48.725713 18.184 48.841797 18.125 C 48.969431 18.061 49.100734 17.917903 49.255859 17.908203 C 49.271739 17.907103 49.282225 17.916569 49.296875 17.917969 C 49.294075 17.915469 49.291763 17.912656 49.289062 17.910156 C 49.084424 17.725749 48.867892 17.542849 48.642578 17.361328 C 48.604438 17.330668 48.566088 17.300101 48.527344 17.269531 C 48.320211 17.105667 48.103182 16.942691 47.878906 16.78125 C 47.803516 16.72715 47.725763 16.672962 47.648438 16.619141 C 47.445338 16.477346 47.238106 16.337124 47.021484 16.197266 C 46.911239 16.126256 46.795354 16.05489 46.681641 15.984375 C 46.466388 15.850664 46.251384 15.717808 46.023438 15.585938 C 46.018237 15.582937 46.013022 15.579172 46.007812 15.576172 z M 49.318359 18.671875 C 49.161523 18.723875 49.086885 19.053503 49.326172 19.095703 C 49.437278 19.032703 49.523601 18.939075 49.496094 18.734375 C 49.434724 18.670375 49.372602 18.653828 49.320312 18.673828 L 49.318359 18.673828 L 49.318359 18.671875 z M 49.257812 19.345703 C 49.180262 19.368703 49.094791 19.423013 49.011719 19.507812 C 49.017619 19.777812 49.041411 19.950847 48.988281 20.185547 C 49.144097 20.483447 49.486944 20.213277 49.566406 20.013672 C 49.659846 19.510172 49.490207 19.282303 49.257812 19.345703 z M 51.320312 20.677734 C 51.105027 20.663734 50.903485 20.694764 50.777344 20.789062 C 50.954503 21.079262 51.326257 21.176547 51.722656 21.248047 C 51.741426 21.233987 51.753068 21.213563 51.767578 21.195312 C 51.696368 21.02673 51.611416 20.859905 51.525391 20.693359 C 51.453471 20.688459 51.391862 20.683661 51.320312 20.681641 L 51.320312 20.677734 z M 51.138672 23.011719 C 51.054562 23.000669 50.971574 23.016514 50.888672 23.027344 C 51.10215 23.156616 51.303085 23.305871 51.490234 23.474609 C 51.552244 23.529139 51.61464 23.583735 51.673828 23.642578 C 51.737898 23.707908 51.800654 23.775123 51.861328 23.845703 C 51.998961 24.002343 52.130817 24.167896 52.25 24.353516 C 52.27011 24.153228 52.271547 23.955656 52.273438 23.757812 C 52.012838 23.668862 52.042681 23.413399 51.816406 23.253906 C 51.684454 23.162906 51.346978 23.034324 51.138672 23.011719 z M 21.957031 32.939453 C 21.879201 32.934153 21.788374 32.941357 21.681641 32.960938 C 21.486786 32.994937 21.376261 33.247906 21.148438 33.253906 C 20.961558 33.253906 20.815097 33.047019 20.568359 33.011719 C 20.521159 33.005119 20.472669 33.014178 20.423828 33.017578 L 20.423828 33.025391 L 20.828125 33.630859 C 21.09691 33.963359 21.368473 34.278996 21.642578 34.578125 C 22.190917 35.176753 22.74781 35.707957 23.316406 36.171875 C 23.316406 36.171875 23.318359 36.171875 23.318359 36.171875 C 23.602083 36.403311 23.889136 36.618744 24.177734 36.816406 C 24.448458 36.990027 24.721246 37.130205 24.994141 37.251953 C 25.055211 37.279393 25.116552 37.301292 25.177734 37.326172 C 25.41319 37.421052 25.649444 37.500031 25.886719 37.556641 C 25.925749 37.566141 25.964829 37.577487 26.003906 37.585938 C 26.591087 37.710282 27.183097 37.722948 27.783203 37.615234 C 27.746873 37.582644 27.703763 37.556274 27.681641 37.509766 C 27.840408 36.988766 27.397901 36.843969 27.291016 36.542969 C 27.240966 36.401969 27.26272 36.231269 27.21875 36.105469 C 27.15584 35.925169 26.978667 35.824228 26.783203 35.673828 C 26.433221 35.404428 26.123294 35.151544 25.623047 35.089844 C 25.403206 35.062844 25.187527 35.158625 24.921875 35.140625 C 24.640345 35.120625 24.286817 34.873413 24.076172 34.632812 C 23.871509 34.397712 23.770169 34.190525 23.591797 34.078125 C 23.422618 33.970125 23.197423 33.969275 23.082031 33.859375 C 23.030811 33.809375 23.039345 33.728334 22.984375 33.615234 C 22.899505 33.439534 22.7595 33.343413 22.865234 33.132812 C 22.672198 33.032114 22.665899 33.315797 22.455078 33.279297 C 22.314011 33.079272 22.190515 32.955487 21.957031 32.939453 z M 34.003906 40.072266 L 31.357422 41.779297 C 30.976955 41.971793 30.583158 42.138664 30.185547 42.292969 C 30.006552 42.362399 29.828891 42.434508 29.646484 42.496094 C 29.351589 42.595734 29.053659 42.684748 28.75 42.763672 C 27.23581 43.157223 25.613511 43.292016 23.894531 43.150391 C 24.555851 43.817141 25.247181 44.415244 25.96875 44.939453 C 26.690319 45.463662 27.441618 45.914642 28.222656 46.291016 C 28.743348 46.541931 29.277385 46.760109 29.824219 46.943359 C 30.190821 47.062514 30.56458 47.16464 30.943359 47.251953 C 31.322139 47.339263 31.705938 47.411768 32.095703 47.470703 C 32.158953 47.320192 32.217386 47.166128 32.298828 47.015625 C 32.405115 46.820225 32.543629 46.621722 32.564453 46.482422 C 32.583363 46.356322 32.517733 46.245556 32.539062 46.097656 C 32.560392 45.952256 32.696599 45.820756 32.736328 45.660156 C 32.788798 45.450556 32.806641 45.143456 32.806641 44.910156 C 32.806641 44.718556 32.717574 44.551706 32.708984 44.378906 C 32.677894 43.751506 32.935896 43.679491 33.167969 43.337891 C 33.283413 43.168091 33.327003 42.976869 33.408203 42.855469 C 33.79792 42.273969 34.476661 41.992181 34.427734 41.113281 C 34.411904 40.822481 34.230007 40.167019 34.015625 40.074219 C 34.012925 40.073019 34.006726 40.07342 34.003906 40.072266 z "
       transform="translate(0,1058.5196)"
       id="path34" />
    <path
       style="fill:#0f94cf;fill-opacity:1;stroke:none;stroke-width:1.34996307"
       d="m 31.999503,1063.5387 c -0.33033,0 -0.658862,0.046 -0.988758,0.057 5.03873,1.2922 6.554418,2.9195 7.449205,5.6003 0.952513,1.8042 2.989555,2.4401 6.691419,2.5207 1.503497,0.031 2.675897,1.7086 3.535815,3.1875 -2.446103,-2.536 -7.797777,-0.7849 -10.989776,-2.0249 13.594705,4.3396 12.109147,16.5597 7.860011,23.8348 -0.266691,-1.3218 -1.408001,-0.7777 -1.215518,-3.7862 -1.542473,7.0583 -13.691417,9.7582 -17.49978,3.9548 0.138954,-0.039 0.276977,-0.083 0.413961,-0.1296 l 0.01846,-0.017 c 0.03521,-0.016 0.07034,-0.024 0.105419,-0.032 0.07597,-0.028 0.15155,-0.056 0.226758,-0.085 0.169924,-0.071 0.337862,-0.1393 0.503613,-0.2161 0.05115,-0.024 0.102195,-0.048 0.152928,-0.072 0.06362,-0.031 0.1269,-0.062 0.189837,-0.1 0.155179,-0.079 0.308176,-0.1611 0.458793,-0.2479 0.07263,-0.045 0.144692,-0.083 0.216201,-0.1273 0.0513,-0.032 0.10233,-0.067 0.152926,-0.1038 0.147731,-0.091 0.292814,-0.193 0.435061,-0.2955 0.05764,-0.044 0.11475,-0.082 0.171381,-0.1246 0.05686,-0.047 0.112979,-0.088 0.16875,-0.1372 0.119193,-0.095 0.236195,-0.1939 0.350687,-0.2951 0.07398,-0.061 0.146892,-0.1274 0.218846,-0.1924 0.05601,-0.055 0.111365,-0.1103 0.166103,-0.1663 0.08694,-0.085 0.172233,-0.1741 0.255771,-0.2635 0.08439,-0.086 0.166939,-0.1761 0.247845,-0.2664 l 0.0081,-0.011 c 0.03915,-0.05 0.07786,-0.1008 0.115971,-0.1476 l 0.01579,-0.019 c 0.07371,-0.087 0.145811,-0.1797 0.216212,-0.2715 0.07749,-0.1 0.153144,-0.1972 0.22676,-0.2981 l 0.0081,-0.017 c 0.01204,-0.022 0.02473,-0.038 0.03689,-0.059 0.03655,-0.054 0.07263,-0.108 0.108124,-0.1635 0.05303,-0.079 0.104878,-0.1575 0.155559,-0.2374 0.07948,-0.1259 0.155952,-0.2533 0.229391,-0.3822 l 0.0027,0 c 0.14322,-0.2576 0.274315,-0.5214 0.392872,-0.7909 l 0.0027,0 0.0081,-0.023 c 0.311162,-0.7153 0.532573,-1.4665 0.659175,-2.2363 0.0037,-0.024 0.0091,-0.048 0.0135,-0.066 0.07425,-0.4507 0.115689,-0.9064 0.123929,-1.3631 -0.77982,0.1127 -1.542485,0.3227 -2.270198,0.6248 -0.356519,0.4138 -0.748217,0.7956 -1.170699,1.1417 -0.15263,0.126 -0.309148,0.2457 -0.469338,0.3612 -0.09882,0.075 -0.199001,0.1443 -0.300574,0.2135 -0.155288,0.1039 -0.313561,0.1998 -0.474615,0.2927 -0.11637,0.066 -0.234117,0.1362 -0.353306,0.2005 -0.196019,0.1048 -0.395643,0.2021 -0.598535,0.2927 -0.04374,0.022 -0.08775,0.037 -0.131893,0.059 -1.164136,0.4963 -2.414201,0.7531 -3.678548,0.7565 -0.542953,0 -1.084609,-0.054 -1.618937,-0.1498 -1.351652,-3.9 -0.0027,-6.6005 2.581331,-8.2396 2.816365,-1.0608 6.863866,-3.7606 6.87125,-10.8365 -3.747641,2.9483 -8.069935,3.0164 -9.09135,1.1337 -0.405753,-0.7479 -0.312456,-1.6259 0.08299,-3.0242 0.534815,-1.2377 2.143488,-2.4203 2.904397,-3.5434 -3.396158,0.5027 -6.380988,1.0096 -8.743295,3.0821 l -1.081045,1.0046 -0.408684,0 c -1.02822,-1e-4 -1.985863,0.1114 -2.552333,0.261 -1.829007,-1.5503 -3.403769,-3.3777 -4.666958,-5.4156 -1.374924,2.99 -2.090716,6.2405 -2.098816,9.5312 0.0027,1.5746 0.168411,3.1446 0.493056,4.6854 -1.23975,3.1368 -1.839956,6.5451 -1.843047,10.1638 0,14.9112 12.088221,26.9989 26.999813,26.9989 0.710324,0 1.41861,-0.048 2.125183,-0.1058 0.100014,-0.016 0.200649,0 0.300589,-0.019 0.139292,-0.016 0.272683,-0.046 0.411313,-0.057 0.47019,-0.053 0.938556,-0.1179 1.40537,-0.195 13.006605,-2.0633 22.751391,-13.2755 22.757358,-26.6242 -5.8e-4,-10.3032 -4.097047,-20.5456 -12.973979,-24.285 -2.629983,-0.6761 -3.680059,-1.0796 -5.139817,-2.7001 0.55949,1.9786 0.652719,2.0318 2.484832,3.089 3.375276,0.087 3.780461,1.074 4.008407,3.1087 0.298685,0.4743 0.160919,0.2816 0.429781,0.7751 -4.786781,-3.8341 -9.675882,-6.9842 -15.809091,-6.9867 z"
       id="path4217"
       inkscape:connector-curvature="0"
       sodipodi:nodetypes="cccsccccccccccccccccccccccccccccccccccccccccccccccccccccsccccccccccccccccccccccc" />
    <path
       style="fill:#ffffff;fill-opacity:1;stroke:none;stroke-width:1.34996307"
       d="M 32.005859 14.123047 C 31.989099 14.136233 31.971861 14.147086 31.955078 14.160156 C 31.324177 15.248967 30.382248 16.617752 29 18 C 26.228161 20.771839 25.155027 20.219824 23.431641 26.416016 C 23.904524 25.860676 24.478619 25.375191 25.134766 24.958984 C 27.951131 23.898184 31.998475 21.198947 32.005859 14.123047 z "
       transform="translate(0,1058.5196)"
       id="path4668" />
    <path
       style="fill:#000000;fill-opacity:1;stroke:none;stroke-width:1.34996307"
       d="M 32.005859 14.123047 C 31.248198 14.719106 30.465972 15.190299 29.693359 15.558594 C 30.298011 16.052584 31.016263 16.559733 31.734375 17.03125 C 31.902069 16.15184 32.004743 15.19317 32.005859 14.123047 z "
       transform="translate(0,1058.5196)"
       id="path4679" />
  </g>
</svg>
