<?xml version="1.0" encoding="UTF-8" standalone="no"?>
<!-- Created with Inkscape (http://www.inkscape.org/) -->

<svg
   xmlns:dc="http://purl.org/dc/elements/1.1/"
   xmlns:cc="http://creativecommons.org/ns#"
   xmlns:rdf="http://www.w3.org/1999/02/22-rdf-syntax-ns#"
   xmlns:svg="http://www.w3.org/2000/svg"
   xmlns="http://www.w3.org/2000/svg"
   xmlns:sodipodi="http://sodipodi.sourceforge.net/DTD/sodipodi-0.dtd"
   xmlns:inkscape="http://www.inkscape.org/namespaces/inkscape"
   width="48"
   height="48"
   id="svg5453"
   version="1.1"
   inkscape:version="0.48.4 r9939"
   sodipodi:docname="fontforge.svg">
  <defs
     id="defs5455" />
  <sodipodi:namedview
     id="base"
     pagecolor="#ffffff"
     bordercolor="#666666"
     borderopacity="1.0"
     inkscape:pageopacity="0"
     inkscape:pageshadow="2"
     inkscape:zoom="5.9391087"
     inkscape:cx="0.18091021"
     inkscape:cy="23.610672"
     inkscape:document-units="px"
     inkscape:current-layer="layer1"
     showgrid="false"
     fit-margin-top="0"
     fit-margin-left="0"
     fit-margin-right="0"
     fit-margin-bottom="0"
     inkscape:window-width="1440"
     inkscape:window-height="836"
     inkscape:window-x="0"
     inkscape:window-y="26"
     inkscape:window-maximized="1"
     inkscape:showpageshadow="false"
     borderlayer="true">
    <sodipodi:guide
       position="1.1650391e-05,47.999996"
       orientation="47.999969,0"
       id="guide4063" />
    <sodipodi:guide
       position="1.1650391e-05,2.6367188e-05"
       orientation="0,48"
       id="guide4065" />
    <sodipodi:guide
       position="48.000012,2.6367188e-05"
       orientation="-47.999969,0"
       id="guide4067" />
    <sodipodi:guide
       position="48.000012,47.999996"
       orientation="0,-48"
       id="guide4069" />
    <sodipodi:guide
       position="4.0000117,43.999996"
       orientation="39.999969,0"
       id="guide4071" />
    <sodipodi:guide
       position="4.0000117,4.0000264"
       orientation="0,40"
       id="guide4073" />
    <sodipodi:guide
       position="44.000012,4.0000264"
       orientation="-39.999969,0"
       id="guide4075" />
    <sodipodi:guide
       position="44.000012,43.999996"
       orientation="0,-40"
       id="guide4077" />
  </sodipodi:namedview>
  <metadata
     id="metadata5458">
    <rdf:RDF>
      <cc:Work
         rdf:about="">
        <dc:format>image/svg+xml</dc:format>
        <dc:type
           rdf:resource="http://purl.org/dc/dcmitype/StillImage" />
        <dc:title />
      </cc:Work>
    </rdf:RDF>
  </metadata>
  <g
     inkscape:label="Capa 1"
     inkscape:groupmode="layer"
     id="layer1"
     transform="translate(-384.57143,-499.798)">
    <rect
       style="fill:#2c3e50;fill-opacity:1;stroke:none"
       id="rect4259"
       width="40"
       height="39.999969"
       x="388.57144"
       y="503.798"
       ry="19.999985" />
    <path
       inkscape:connector-curvature="0"
       style="fill:#1e2022;fill-opacity:0.31372549;stroke:none"
       d="m 421.48158,527.93602 c -0.0121,0.0991 -0.0131,0.20112 -0.0293,0.29883 0.0163,-0.02 0.0378,-0.0353 0.0547,-0.0547 -0.003,-0.0829 -0.0176,-0.16252 -0.0254,-0.24414 z"
       id="path4728" />
    <g
       transform="matrix(0.67549738,0,0,0.67549738,419.98397,526.11777)"
       style="font-size:40px;font-style:normal;font-variant:normal;font-weight:normal;font-stretch:normal;line-height:125%;letter-spacing:-2.18000007px;word-spacing:0px;fill:#f2f2f2;fill-opacity:1;stroke:none;font-family:Garamond;-inkscape-font-specification:Garamond"
       id="text2993">
      <path
         style="font-weight:500;fill:#ecf0f1;fill-opacity:1;stroke:none;font-family:Artifika;-inkscape-font-specification:Artifika Medium"
         d="m -17.407727,-23.246676 c -1.145846,3e-5 -2.244804,0.174509 -3.3125,0.5 -1.054698,0.32555 -1.992197,0.828154 -2.8125,1.53125 -0.82032,0.690132 -1.505215,1.580755 -2,2.6875 -0.481776,1.093774 -0.718755,2.437523 -0.71875,4 l 0,1.28125 -3.03125,0 c -0.559898,2e-5 -0.989585,0.122415 -1.25,0.34375 -0.247397,0.208352 -0.343751,0.601581 -0.34375,1.1875 l 0,0.875 4.625,0 0.0625,17.9374996 c 0,0.7291656 -0.03646,1.4817687 -0.0625,2.25 -0.01303,0.7682254 -0.08855,1.4687464 -0.21875,2.0937504 -0.130213,0.638016 -0.325526,1.158849 -0.625,1.5625 -0.299483,0.41666 -0.734379,0.624994 -1.28125,0.625 -0.312503,-6e-6 -0.677086,-0.05209 -1.09375,-0.15625 -0.403648,-0.104173 -0.825522,-0.236985 -1.28125,-0.40625 -0.455729,-0.169277 -0.942708,-0.354173 -1.4375,-0.5625 -0.494791,-0.208339 -0.986977,-0.416672 -1.46875,-0.625 l -1.28125,2.96875 c -0.02603,0.0651 -0.04948,0.10416 -0.0625,0.15625 -0.01303,0.05207 3e-6,0.12239 0,0.1875 3e-6,0.260408 0.138023,0.468741 0.4375,0.625 0.299481,0.156241 0.645836,0.26562 1.0625,0.34375 0.403647,0.07812 0.820314,0.1302 1.25,0.15625 0.429688,0.02603 0.802083,0.06249 1.0625,0.0625 1.184894,-9e-6 2.335935,-0.216155 3.46875,-0.59375 1.132807,-0.364592 2.145827,-0.919279 3.03125,-1.6875 0.898429,-0.755215 1.591137,-1.70313 2.125,-2.875 0.546866,-1.171878 0.84374,-2.5677106 0.84375,-4.1562504 l 0,-17.9062496 4,0 c 1.958333,0 3.916667,0 5.875,0 l 0.03125,17.9374996 c 0,0.7291656 -0.0052,1.4817687 -0.03125,2.25 -0.01303,0.7682254 -0.08855,1.4687464 -0.21875,2.0937504 -0.130214,0.638016 -0.356776,1.158849 -0.65625,1.5625 -0.299484,0.41666 -0.734379,0.624994 -1.28125,0.625 -0.312504,-6e-6 -0.677087,-0.05209 -1.09375,-0.15625 -0.403648,-0.104173 -0.825522,-0.236985 -1.28125,-0.40625 -0.45573,-0.169277 -0.911459,-0.354173 -1.40625,-0.5625 -0.494791,-0.208339 -0.986978,-0.416672 -1.46875,-0.625 l -1.3125,2.96875 c -0.02604,0.0651 -0.01823,0.10416 -0.03125,0.15625 -0.01303,0.05207 -0.03125,0.12239 -0.03125,0.1875 3e-6,0.260408 0.138024,0.468741 0.4375,0.625 0.299482,0.156241 0.677085,0.26562 1.09375,0.34375 0.403647,0.07812 0.820313,0.1302 1.25,0.15625 0.429688,0.02603 0.770833,0.06249 1.03125,0.0625 1.184894,-9e-6 2.335934,-0.216155 3.46875,-0.59375 1.132807,-0.364592 2.145827,-0.919279 3.03125,-1.6875 0.8984288,-0.755215 1.6223868,-1.70313 2.1562498,-2.875 0.5468651,-1.171878 0.8124899,-2.5677106 0.8125,-4.1562504 l 0,-17.9062496 4,0 c 0.5598811,1.7e-5 0.971339,-0.122379 1.21875,-0.34375 0.260401,-0.234357 0.3749842,-0.632794 0.375,-1.21875 l 0,-0.84375 -5.59375,0 0,-2.625 c -10e-6,-0.768206 0.0052,-1.463517 0.03125,-2.0625 0.039052,-0.611953 0.1197813,-1.114558 0.25,-1.53125 0.1301977,-0.41664 0.3150934,-0.747368 0.5625,-0.96875 0.2604054,-0.221326 0.61978,-0.343722 1.0625,-0.34375 0.3255084,2.8e-5 0.6848831,0.08857 1.0625,0.21875 0.3906115,0.130235 0.8020694,0.291694 1.21875,0.5 0.4166519,0.195339 0.8567556,0.42711 1.3125,0.6875 0.455713,0.260442 0.91144184,0.520859 1.40625004,0.78125 l 1.4375,-2.625 c 0.0650856,-0.104138 0.13018966,-0.2031 0.15624996,-0.28125 0.039044,-0.0781 0.062481,-0.145805 0.0625,-0.25 -1.87e-5,-0.338512 -0.179706,-0.617158 -0.53124996,-0.8125 -0.33855952,-0.208304 -0.75001748,-0.34632 -1.21875,-0.4375 -0.46876654,-0.104132 -0.95574524,-0.19268 -1.43750004,-0.21875 -0.4687651,-0.02601 -0.8151189,-0.03122 -1.0625,-0.03125 -1.1458467,3e-5 -2.2448039,0.174509 -3.3125,0.5 -1.0546976,0.32555 -1.9921967,0.828154 -2.8125,1.53125 -0.82032,0.690132 -1.4739648,1.580755 -1.9687498,2.6875 -0.481777,1.093774 -0.718756,2.437523 -0.71875,4 l 0,1.28125 c -1.427083,0 -2.854167,0 -4.28125,0 l -5.59375,0 0,-2.625 c -10e-6,-0.768206 0.0052,-1.463517 0.03125,-2.0625 0.03905,-0.611953 0.119781,-1.114558 0.25,-1.53125 0.130197,-0.41664 0.315093,-0.747368 0.5625,-0.96875 0.260405,-0.221326 0.61978,-0.343722 1.0625,-0.34375 0.325509,2.8e-5 0.684883,0.08857 1.0625,0.21875 0.390611,0.130235 0.77082,0.291694 1.1875,0.5 0.416652,0.195339 0.856756,0.42711 1.3125,0.6875 0.455713,0.260442 0.942692,0.520859 1.4375,0.78125 l 1.4375,-2.625 c 0.06509,-0.104138 0.13019,-0.2031 0.15625,-0.28125 0.03904,-0.0781 0.03123,-0.145805 0.03125,-0.25 -1.8e-5,-0.338512 -0.148456,-0.617158 -0.5,-0.8125 -0.33856,-0.208304 -0.750017,-0.34632 -1.21875,-0.4375 -0.468766,-0.104132 -0.955745,-0.19268 -1.4375,-0.21875 -0.468765,-0.02601 -0.815119,-0.03122 -1.0625,-0.03125 z"
         id="path2998"
         inkscape:connector-curvature="0"
         sodipodi:nodetypes="ccccscccscccccccccccccccccccccsccccccccccccccccccccccsccccccccsccccccccccccccccsccccccccccccccccccc" />
    </g>
  </g>
</svg>
