<?xml version="1.0" encoding="UTF-8" standalone="no"?>
<!-- Created with Inkscape (http://www.inkscape.org/) -->

<svg
   xmlns:dc="http://purl.org/dc/elements/1.1/"
   xmlns:cc="http://creativecommons.org/ns#"
   xmlns:rdf="http://www.w3.org/1999/02/22-rdf-syntax-ns#"
   xmlns:svg="http://www.w3.org/2000/svg"
   xmlns="http://www.w3.org/2000/svg"
   xmlns:sodipodi="http://sodipodi.sourceforge.net/DTD/sodipodi-0.dtd"
   xmlns:inkscape="http://www.inkscape.org/namespaces/inkscape"
   width="64"
   height="64"
   viewBox="0 0 64 64.000003"
   id="svg2"
   version="1.1"
   inkscape:version="0.91+devel r"
   sodipodi:docname="geary.svg">
  <defs
     id="defs4" />
  <sodipodi:namedview
     id="base"
     pagecolor="#ffffff"
     bordercolor="#666666"
     borderopacity="1.0"
     inkscape:pageopacity="0.0"
     inkscape:pageshadow="2"
     inkscape:zoom="7.9999995"
     inkscape:cx="33.501139"
     inkscape:cy="29.63652"
     inkscape:document-units="px"
     inkscape:current-layer="layer1"
     showgrid="true"
     units="px"
     inkscape:showpageshadow="false"
     borderlayer="true"
     inkscape:window-width="2560"
     inkscape:window-height="957"
     inkscape:window-x="-4"
     inkscape:window-y="29"
     inkscape:window-maximized="1"
     showguides="true">
    <inkscape:grid
       type="xygrid"
       id="grid4136"
       empspacing="2" />
    <sodipodi:guide
       position="5,59.000069"
       orientation="54,0"
       id="guide4142" />
    <sodipodi:guide
       position="5,5.0000688"
       orientation="0,54"
       id="guide4144" />
    <sodipodi:guide
       position="59,5.0000688"
       orientation="-54,0"
       id="guide4146" />
    <sodipodi:guide
       position="102,60"
       orientation="0,-54"
       id="guide4148" />
    <sodipodi:guide
       position="0,64.000069"
       orientation="64,0"
       id="guide4150" />
    <sodipodi:guide
       position="0,6.875e-05"
       orientation="0,64"
       id="guide4152" />
    <sodipodi:guide
       position="64,6.875e-05"
       orientation="-64,0"
       id="guide4154" />
    <sodipodi:guide
       position="64,64.000069"
       orientation="0,-64"
       id="guide4156" />
    <sodipodi:guide
       position="32,5.000069"
       orientation="-27,0"
       id="guide4181" />
    <sodipodi:guide
       position="74,32"
       orientation="0,-27"
       id="guide4183" />
  </sodipodi:namedview>
  <metadata
     id="metadata7">
    <rdf:RDF>
      <cc:Work
         rdf:about="">
        <dc:format>image/svg+xml</dc:format>
        <dc:type
           rdf:resource="http://purl.org/dc/dcmitype/StillImage" />
        <dc:title />
      </cc:Work>
    </rdf:RDF>
  </metadata>
  <g
     inkscape:label="Capa 1"
     inkscape:groupmode="layer"
     id="layer1"
     transform="translate(0,-1058.5196)">
    <path
       inkscape:connector-curvature="0"
       style="fill:#f5b318;fill-opacity:1;fill-rule:evenodd;stroke:none;stroke-width:1px;stroke-linecap:butt;stroke-linejoin:miter;stroke-opacity:1"
       d="m 32,1063.5196 -29,18 29,36 29,-36 -29,-18 z"
       id="path4173" />
    <path
       inkscape:connector-curvature="0"
       style="fill:#fff6e1;fill-opacity:1;fill-rule:evenodd;stroke:none;stroke-width:1px;stroke-linecap:butt;stroke-linejoin:miter;stroke-opacity:1"
       d="m 11,1068.5196 c -0.554039,0 -1,0.446 -1,1 l 0,19 22,16 22,-16 0,-19 c 0,-0.554 -0.445961,-1 -1,-1 l -21,0 -21,0 z"
       id="path4179" />
    <path
       inkscape:connector-curvature="0"
       style="opacity:1;fill:#a19578;fill-opacity:1;stroke:none;stroke-width:1;stroke-linecap:round;stroke-linejoin:miter;stroke-miterlimit:4;stroke-dasharray:none;stroke-opacity:0.29943501"
       d="m 15,1071.5196 0,2 13,0 0,-2 z m 0,6 0,1 34,0 0,-1 z m 0,2 0,1 34,0 0,-1 z m 0,2 0,1 6,0 0,-1 z m 0,4 0,1 34,0 0,-1 z m 0,2 0,1 13,0 0,-1 z m 0,2 0,1 28,0 0,-1 z m 17,5 0,1 16,0 0,-1 z m 0,2 0,1 16,0 0,-1 z m 0,2 0,1 5,0 0,-1 z"
       id="rect4240-7"
       sodipodi:nodetypes="cccccccccccccccccccccccccccccccccccccccccccccccccc" />
    <path
       inkscape:connector-curvature="0"
       id="path4197-8"
       d="m 32,1103.5196 -29,-22 0,35.9999 11,10e-5 z"
       style="fill:#000000;fill-opacity:0;fill-rule:evenodd;stroke:none;stroke-width:1px;stroke-linecap:butt;stroke-linejoin:miter;stroke-opacity:1" />
    <path
       inkscape:connector-curvature="0"
       style="fill:#f7c03e;fill-opacity:1;fill-rule:evenodd;stroke:none;stroke-width:1px;stroke-linecap:butt;stroke-linejoin:miter;stroke-opacity:1"
       d="m 61,1081.5196 -47,36 46,0 c 0.554039,0 1,-0.446 1,-1 l 0,-35 z"
       id="path4175" />
    <path
       inkscape:connector-curvature="0"
       style="opacity:1;fill:#eca90a;fill-opacity:1;stroke:none;stroke-width:0.1;stroke-linecap:square;stroke-linejoin:miter;stroke-miterlimit:4;stroke-dasharray:none;stroke-dashoffset:0;stroke-opacity:1"
       d="m 15.304688,1116.5196 -1.304688,1 18,0 28,0 c 0.554039,0 1,-0.446 1,-1 l -45.695312,0 z"
       id="path4234" />
    <path
       inkscape:connector-curvature="0"
       style="fill:#fcdc71;fill-opacity:1;fill-rule:evenodd;stroke:none;stroke-width:1px;stroke-linecap:butt;stroke-linejoin:miter;stroke-opacity:1"
       d="m 3,1081.5196 0,35 c 0,0.554 0.445961,1 1,1 l 28,0 18,0 -47,-36 z"
       id="path4169" />
    <path
       style="opacity:1;fill:#fbca28;fill-opacity:1;stroke:none;stroke-width:0.1;stroke-linecap:square;stroke-linejoin:miter;stroke-miterlimit:4;stroke-dasharray:none;stroke-dashoffset:0;stroke-opacity:1"
       d="m 3,1116.5196 c 0,0.554 0.445961,1 1,1 l 28,0 18,0 -1.304688,-1 -45.695312,0 z"
       id="rect4229"
       inkscape:connector-curvature="0" />
  </g>
</svg>
