<?xml version="1.0" encoding="UTF-8" standalone="no"?>
<!-- Created with Inkscape (http://www.inkscape.org/) -->

<svg
   xmlns:dc="http://purl.org/dc/elements/1.1/"
   xmlns:cc="http://creativecommons.org/ns#"
   xmlns:rdf="http://www.w3.org/1999/02/22-rdf-syntax-ns#"
   xmlns:svg="http://www.w3.org/2000/svg"
   xmlns="http://www.w3.org/2000/svg"
   xmlns:sodipodi="http://sodipodi.sourceforge.net/DTD/sodipodi-0.dtd"
   xmlns:inkscape="http://www.inkscape.org/namespaces/inkscape"
   width="64"
   height="64"
   viewBox="0 0 64 64.000003"
   id="svg2"
   version="1.1"
   inkscape:version="0.91+devel r"
   sodipodi:docname="git.svg">
  <defs
     id="defs4" />
  <sodipodi:namedview
     id="base"
     pagecolor="#ffffff"
     bordercolor="#666666"
     borderopacity="1.0"
     inkscape:pageopacity="0.0"
     inkscape:pageshadow="2"
     inkscape:zoom="11.313708"
     inkscape:cx="35.476186"
     inkscape:cy="37.305594"
     inkscape:document-units="px"
     inkscape:current-layer="layer1"
     showgrid="true"
     units="px"
     inkscape:showpageshadow="false"
     borderlayer="true"
     inkscape:window-width="1366"
     inkscape:window-height="670"
     inkscape:window-x="-4"
     inkscape:window-y="29"
     inkscape:window-maximized="1">
    <inkscape:grid
       type="xygrid"
       id="grid4136" />
    <sodipodi:guide
       position="5,59.000069"
       orientation="54,0"
       id="guide4142" />
    <sodipodi:guide
       position="5,5.0000688"
       orientation="0,54"
       id="guide4144" />
    <sodipodi:guide
       position="59,5.0000688"
       orientation="-54,0"
       id="guide4146" />
    <sodipodi:guide
       position="59,59.000069"
       orientation="0,-54"
       id="guide4148" />
    <sodipodi:guide
       position="0,64.000069"
       orientation="64,0"
       id="guide4150" />
    <sodipodi:guide
       position="0,6.875e-05"
       orientation="0,64"
       id="guide4152" />
    <sodipodi:guide
       position="64,6.875e-05"
       orientation="-64,0"
       id="guide4154" />
    <sodipodi:guide
       position="64,64.000069"
       orientation="0,-64"
       id="guide4156" />
  </sodipodi:namedview>
  <metadata
     id="metadata7">
    <rdf:RDF>
      <cc:Work
         rdf:about="">
        <dc:format>image/svg+xml</dc:format>
        <dc:type
           rdf:resource="http://purl.org/dc/dcmitype/StillImage" />
        <dc:title />
      </cc:Work>
    </rdf:RDF>
  </metadata>
  <g
     inkscape:label="Capa 1"
     inkscape:groupmode="layer"
     id="layer1"
     transform="translate(0,-1058.5196)">
    <path
       style="fill:#e74c3c;fill-opacity:1;stroke:none;stroke-width:1.35000002px;stroke-linecap:butt;stroke-linejoin:miter;stroke-opacity:1"
       d="m 5.0000008,1090.5196 26.9999982,-27 27,27 -27,27 z"
       id="path4162"
       inkscape:connector-curvature="0" />
    <path
       style="opacity:1;fill:#fce7e5;fill-opacity:1;stroke:none;stroke-width:1;stroke-linecap:round;stroke-linejoin:miter;stroke-miterlimit:4;stroke-dasharray:none;stroke-opacity:0.29943501"
       d="M 25.607422 13.392578 L 24.191406 14.808594 L 29.230469 19.845703 A 3 3 0 0 0 29 21 A 3 3 0 0 0 31 23.826172 L 31 40.173828 A 3 3 0 0 0 29 43 A 3 3 0 0 0 32 46 A 3 3 0 0 0 35 43 A 3 3 0 0 0 33 40.175781 L 33 23.826172 A 3 3 0 0 0 33.152344 23.767578 L 40.230469 30.845703 A 3 3 0 0 0 40 32 A 3 3 0 0 0 43 35 A 3 3 0 0 0 46 32 A 3 3 0 0 0 43 29 A 3 3 0 0 0 41.576172 29.361328 L 35.550781 23.335938 L 34.638672 22.425781 A 3 3 0 0 0 35 21 A 3 3 0 0 0 32 18 A 3 3 0 0 0 30.576172 18.363281 L 25.607422 13.392578 z "
       transform="translate(0,1058.5196)"
       id="path4192" />
  </g>
</svg>
