<?xml version="1.0" encoding="UTF-8" standalone="no"?>
<!-- Created with Inkscape (http://www.inkscape.org/) -->

<svg
   xmlns:dc="http://purl.org/dc/elements/1.1/"
   xmlns:cc="http://creativecommons.org/ns#"
   xmlns:rdf="http://www.w3.org/1999/02/22-rdf-syntax-ns#"
   xmlns:svg="http://www.w3.org/2000/svg"
   xmlns="http://www.w3.org/2000/svg"
   xmlns:sodipodi="http://sodipodi.sourceforge.net/DTD/sodipodi-0.dtd"
   xmlns:inkscape="http://www.inkscape.org/namespaces/inkscape"
   width="64"
   height="64"
   viewBox="0 0 64 64.000003"
   id="svg2"
   version="1.1"
   inkscape:version="0.91+devel r"
   sodipodi:docname="chrome-fahmaaghhglfmonjliepjlchgpgfmobi-Default.svg">
  <defs
     id="defs4" />
  <sodipodi:namedview
     id="base"
     pagecolor="#ffffff"
     bordercolor="#666666"
     borderopacity="1.0"
     inkscape:pageopacity="0.0"
     inkscape:pageshadow="2"
     inkscape:zoom="3.9999998"
     inkscape:cx="25.115234"
     inkscape:cy="34.624313"
     inkscape:document-units="px"
     inkscape:current-layer="layer1"
     showgrid="true"
     units="px"
     inkscape:showpageshadow="false"
     borderlayer="true"
     inkscape:window-width="1366"
     inkscape:window-height="670"
     inkscape:window-x="-4"
     inkscape:window-y="29"
     inkscape:window-maximized="1"
     showguides="true">
    <inkscape:grid
       type="xygrid"
       id="grid4136" />
    <sodipodi:guide
       position="5,59.000069"
       orientation="54,0"
       id="guide4142" />
    <sodipodi:guide
       position="5,5.0000688"
       orientation="0,54"
       id="guide4144" />
    <sodipodi:guide
       position="59,5.0000688"
       orientation="-54,0"
       id="guide4146" />
    <sodipodi:guide
       position="59,59.000069"
       orientation="0,-54"
       id="guide4148" />
    <sodipodi:guide
       position="0,64.000069"
       orientation="64,0"
       id="guide4150" />
    <sodipodi:guide
       position="0,6.875e-05"
       orientation="0,64"
       id="guide4152" />
    <sodipodi:guide
       position="64,6.875e-05"
       orientation="-64,0"
       id="guide4154" />
    <sodipodi:guide
       position="64,64.000069"
       orientation="0,-64"
       id="guide4156" />
  </sodipodi:namedview>
  <metadata
     id="metadata7">
    <rdf:RDF>
      <cc:Work
         rdf:about="">
        <dc:format>image/svg+xml</dc:format>
        <dc:type
           rdf:resource="http://purl.org/dc/dcmitype/StillImage" />
        <dc:title />
      </cc:Work>
    </rdf:RDF>
  </metadata>
  <g
     inkscape:label="Capa 1"
     inkscape:groupmode="layer"
     id="layer1"
     transform="translate(0,-1058.5196)">
    <path
       style="fill:#fdb854;fill-opacity:1;fill-rule:evenodd;stroke:none;stroke-width:1px;stroke-linecap:butt;stroke-linejoin:miter;stroke-opacity:1"
       d="M 32 9 C 16.73142 10.935371 10.513537 19.033714 9.2773438 28.955078 C 9.2391341 29.290394 9.1903313 29.626234 9.1621094 29.960938 C 9.1046823 30.642005 9.06684 31.32051 9.0488281 31.994141 C 9.0487764 31.996076 9.0488796 31.998065 9.0488281 32 L 12.308594 32 C 13.167205 32 13.678908 31.949679 14.009766 31.705078 A 18 18 0 0 1 32 14 A 18 18 0 0 1 49.984375 31.701172 C 50.314917 31.949508 50.827927 32 51.691406 32 L 54.951172 32 C 54.95112 31.998052 54.951224 31.996089 54.951172 31.994141 C 54.93316 31.320492 54.895313 30.642019 54.837891 29.960938 C 54.809671 29.626228 54.760862 29.2904 54.722656 28.955078 C 53.486463 19.033714 47.26858 10.935371 32 9 z M 19.765625 34.892578 C 18.770867 34.925203 17.520627 35.4931 16 36 L 21 59 C 23.224159 59 26 57.4597 26 55 L 22 37 C 21.499659 35.3626 20.760383 34.859953 19.765625 34.892578 z M 44.234375 34.892578 C 43.239617 34.859953 42.500342 35.3626 42 37 L 38 55 C 38 57.4597 40.775841 59 43 59 L 48 36 C 46.479374 35.4931 45.229133 34.925203 44.234375 34.892578 z "
       transform="translate(0,1058.5196)"
       id="path4166" />
    <path
       style="fill:#f4800c;fill-opacity:1;fill-rule:evenodd;stroke:none;stroke-width:1px;stroke-linecap:butt;stroke-linejoin:miter;stroke-opacity:1"
       d="m 30.003322,1063.5196 c -27.1301279,5.9338 -27.5593064,26.5213 -20.9965489,47 l 2.4273349,0 1.085759,3.6855 c 0.426854,2.2274 0.90854,2.7303 3.485756,3.3145 l 4.999178,0 -4.999178,-23 -6.5926666,2.3555 c -1.8485159,-13.8524 2.6972036,-26.8336 22.5900376,-29.3555 19.892834,2.5219 24.438554,15.5031 22.590038,29.3555 l -6.592667,-2.3555 -4.999179,23 4.999179,0 c 2.577215,-0.5842 3.058901,-1.0871 3.485755,-3.3145 l 1.08576,-3.6855 2.427335,0 c 6.560785,-20.4725 6.10939,-41.0595 -20.99655,-47 l -3.999343,0 z"
       id="path4174"
       inkscape:connector-curvature="0" />
  </g>
</svg>
