<?xml version="1.0" encoding="UTF-8" standalone="no"?>
<!-- Created with Inkscape (http://www.inkscape.org/) -->

<svg
   xmlns:dc="http://purl.org/dc/elements/1.1/"
   xmlns:cc="http://creativecommons.org/ns#"
   xmlns:rdf="http://www.w3.org/1999/02/22-rdf-syntax-ns#"
   xmlns:svg="http://www.w3.org/2000/svg"
   xmlns="http://www.w3.org/2000/svg"
   xmlns:sodipodi="http://sodipodi.sourceforge.net/DTD/sodipodi-0.dtd"
   xmlns:inkscape="http://www.inkscape.org/namespaces/inkscape"
   width="64"
   height="64"
   viewBox="0 0 64 64.000003"
   id="svg2"
   version="1.1"
   inkscape:version="0.91+devel r"
   sodipodi:docname="gvim.svg">
  <defs
     id="defs4" />
  <sodipodi:namedview
     id="base"
     pagecolor="#ffffff"
     bordercolor="#666666"
     borderopacity="1.0"
     inkscape:pageopacity="0.0"
     inkscape:pageshadow="2"
     inkscape:zoom="7.9999995"
     inkscape:cx="28.529545"
     inkscape:cy="24.144903"
     inkscape:document-units="px"
     inkscape:current-layer="layer1"
     showgrid="true"
     units="px"
     inkscape:showpageshadow="false"
     borderlayer="true"
     inkscape:window-width="1366"
     inkscape:window-height="670"
     inkscape:window-x="-4"
     inkscape:window-y="29"
     inkscape:window-maximized="1">
    <inkscape:grid
       type="xygrid"
       id="grid4136"
       empspacing="2" />
    <sodipodi:guide
       position="5,59.000069"
       orientation="54,0"
       id="guide4142" />
    <sodipodi:guide
       position="5,5.0000688"
       orientation="0,54"
       id="guide4144" />
    <sodipodi:guide
       position="59,5.0000688"
       orientation="-54,0"
       id="guide4146" />
    <sodipodi:guide
       position="59,59.000069"
       orientation="0,-54"
       id="guide4148" />
    <sodipodi:guide
       position="0,64.000069"
       orientation="64,0"
       id="guide4150" />
    <sodipodi:guide
       position="0,6.875e-05"
       orientation="0,64"
       id="guide4152" />
    <sodipodi:guide
       position="64,6.875e-05"
       orientation="-64,0"
       id="guide4154" />
    <sodipodi:guide
       position="64,64.000069"
       orientation="0,-64"
       id="guide4156" />
    <sodipodi:guide
       position="10,35"
       orientation="38,0"
       id="guide4155" />
    <sodipodi:guide
       position="54,37"
       orientation="-38,0"
       id="guide4159" />
    <sodipodi:guide
       position="51,50.999947"
       orientation="0,-38"
       id="guide4161" />
  </sodipodi:namedview>
  <metadata
     id="metadata7">
    <rdf:RDF>
      <cc:Work
         rdf:about="">
        <dc:format>image/svg+xml</dc:format>
        <dc:type
           rdf:resource="http://purl.org/dc/dcmitype/StillImage" />
        <dc:title></dc:title>
      </cc:Work>
    </rdf:RDF>
  </metadata>
  <g
     inkscape:label="Capa 1"
     inkscape:groupmode="layer"
     id="layer1"
     transform="translate(0,-1058.5196)">
    <rect
       style="fill:#fdf9ee;fill-opacity:1;stroke:none"
       id="rect4148"
       width="44"
       height="43.999947"
       x="10"
       y="1071.5197" />
    <rect
       y="1063.5195"
       x="10"
       height="8.0001221"
       width="44"
       id="rect4149"
       style="fill:#90675a;fill-opacity:1;stroke:none" />
    <rect
       style="fill:#bfb8a7;fill-opacity:1;stroke:none"
       id="rect4308"
       width="44"
       height="1"
       x="10"
       y="1116.5197" />
    <rect
       y="1115.5199"
       x="10"
       height="1"
       width="44"
       id="rect4310"
       style="fill:#dbd7ce;fill-opacity:1;stroke:none" />
    <path
       style="fill:#eceae4;fill-opacity:1;stroke:none"
       d="M 10 15 L 10 16 L 54 16 L 54 15 L 10 15 z M 10 19 L 10 20 L 54 20 L 54 19 L 10 19 z M 10 23 L 10 24 L 54 24 L 54 23 L 10 23 z M 10 27 L 10 28 L 54 28 L 54 27 L 10 27 z M 10 31 L 10 32 L 54 32 L 54 31 L 10 31 z M 10 35 L 10 36 L 54 36 L 54 35 L 10 35 z M 10 39 L 10 40 L 54 40 L 54 39 L 10 39 z M 10 43 L 10 44 L 54 44 L 54 43 L 10 43 z M 10 47 L 10 48 L 54 48 L 54 47 L 10 47 z M 10 51 L 10 52 L 54 52 L 54 51 L 10 51 z M 10 55 L 10 56 L 54 56 L 54 55 L 10 55 z "
       transform="translate(0,1058.5196)"
       id="rect4338" />
    <rect
       style="fill:#ffdbdb;fill-opacity:1;stroke:none"
       id="rect4336"
       width="1"
       height="43.999947"
       x="17"
       y="1071.5197" />
    <path
       style="fill:#bfb8a7;fill-opacity:1;fill-rule:evenodd;stroke:none;stroke-width:1px;stroke-linecap:butt;stroke-linejoin:miter;stroke-opacity:1"
       d="m 22,1080.5196 -1,1 0,1 1,1 2,0 0,20 1,1 1,0 2,0 22,-22 0,-1 -1,-1 -5,0 -3,0 -1,1 0,1 1,1 2,0 0,1 -15,15 0,-16 1,0 1,-1 0,-1 -1,-1 -3,0 -4,0 z"
       id="path4168"
       inkscape:connector-curvature="0" />
  </g>
</svg>
