<?xml version="1.0" encoding="UTF-8" standalone="no"?>
<!-- Created with Inkscape (http://www.inkscape.org/) -->

<svg
   xmlns:dc="http://purl.org/dc/elements/1.1/"
   xmlns:cc="http://creativecommons.org/ns#"
   xmlns:rdf="http://www.w3.org/1999/02/22-rdf-syntax-ns#"
   xmlns:svg="http://www.w3.org/2000/svg"
   xmlns="http://www.w3.org/2000/svg"
   xmlns:sodipodi="http://sodipodi.sourceforge.net/DTD/sodipodi-0.dtd"
   xmlns:inkscape="http://www.inkscape.org/namespaces/inkscape"
   width="64"
   height="64"
   viewBox="0 0 64 64.000003"
   id="svg2"
   version="1.1"
   inkscape:version="0.91+devel r"
   sodipodi:docname="gwenview.svg">
  <defs
     id="defs4" />
  <sodipodi:namedview
     id="base"
     pagecolor="#ffffff"
     bordercolor="#666666"
     borderopacity="1.0"
     inkscape:pageopacity="0.0"
     inkscape:pageshadow="2"
     inkscape:zoom="7.9999996"
     inkscape:cx="5.5997114"
     inkscape:cy="33.834521"
     inkscape:document-units="px"
     inkscape:current-layer="layer1"
     showgrid="true"
     units="px"
     inkscape:showpageshadow="false"
     borderlayer="true"
     inkscape:window-width="2560"
     inkscape:window-height="957"
     inkscape:window-x="-4"
     inkscape:window-y="29"
     inkscape:window-maximized="1"
     showguides="true">
    <inkscape:grid
       type="xygrid"
       id="grid4136" />
    <sodipodi:guide
       position="5,59.000069"
       orientation="54,0"
       id="guide4142" />
    <sodipodi:guide
       position="5,5.0000688"
       orientation="0,54"
       id="guide4144" />
    <sodipodi:guide
       position="59,5.0000688"
       orientation="-54,0"
       id="guide4146" />
    <sodipodi:guide
       position="59,59.000069"
       orientation="0,-54"
       id="guide4148" />
    <sodipodi:guide
       position="0,64.000069"
       orientation="64,0"
       id="guide4150" />
    <sodipodi:guide
       position="0,6.875e-05"
       orientation="0,64"
       id="guide4152" />
    <sodipodi:guide
       position="64,6.875e-05"
       orientation="-64,0"
       id="guide4154" />
    <sodipodi:guide
       position="64,64.000069"
       orientation="0,-64"
       id="guide4156" />
    <sodipodi:guide
       position="13,50.999947"
       orientation="38,0"
       id="guide4155" />
    <sodipodi:guide
       position="13,12.999947"
       orientation="0,38"
       id="guide4157" />
    <sodipodi:guide
       position="51,12.999947"
       orientation="-38,0"
       id="guide4159" />
    <sodipodi:guide
       position="51,50.999947"
       orientation="0,-38"
       id="guide4161" />
  </sodipodi:namedview>
  <metadata
     id="metadata7">
    <rdf:RDF>
      <cc:Work
         rdf:about="">
        <dc:format>image/svg+xml</dc:format>
        <dc:type
           rdf:resource="http://purl.org/dc/dcmitype/StillImage" />
        <dc:title />
      </cc:Work>
    </rdf:RDF>
  </metadata>
  <g
     inkscape:label="Capa 1"
     inkscape:groupmode="layer"
     id="layer1"
     transform="translate(0,-1058.5196)">
    <rect
       style="opacity:1;fill:#ecf0f1;fill-opacity:1;stroke:none;stroke-opacity:1"
       id="rect4155"
       width="48"
       height="54.000122"
       x="8"
       y="1063.5195"
       ry="1.0000688" />
    <rect
       style="opacity:1;fill:#3ecdf6;fill-opacity:1;stroke:none;stroke-opacity:1"
       id="rect4157"
       width="44"
       height="44"
       x="10"
       y="1065.5197"
       ry="2.08551e-06" />
    <path
       style="fill:#172f55;fill-opacity:1;fill-rule:evenodd;stroke:none;stroke-width:1px;stroke-linecap:butt;stroke-linejoin:miter;stroke-opacity:1"
       d="M 46 17 L 12 51 L 54 51 L 54 25 L 46 17 z "
       transform="translate(0,1058.5196)"
       id="path4202" />
    <path
       style="fill:#1c3867;fill-opacity:1;fill-rule:evenodd;stroke:none;stroke-width:1px;stroke-linecap:butt;stroke-linejoin:miter;stroke-opacity:1"
       d="M 22 31 L 10 43 L 10 51 L 42 51 L 22 31 z "
       transform="translate(0,1058.5196)"
       id="path4197" />
    <path
       style="fill:#f1f2f4;fill-rule:evenodd;stroke:none;stroke-width:1px;stroke-linecap:butt;stroke-linejoin:miter;stroke-opacity:1;fill-opacity:1"
       d="M 22 31 L 17.333984 35.666016 L 20 35 L 22 34 L 23 36 L 24 35 L 26 35 L 22 31 z "
       transform="translate(0,1058.5196)"
       id="path4231" />
    <path
       style="fill:#f1f2f4;fill-rule:evenodd;stroke:none;stroke-width:1px;stroke-linecap:butt;stroke-linejoin:miter;stroke-opacity:1;fill-opacity:1"
       d="M 46 17 L 38.400391 24.599609 L 42 23 L 46 26 L 47 24 L 52 29 L 50 24 L 52 24 L 52 23 L 46 17 z "
       transform="translate(0,1058.5196)"
       id="path4236" />
    <path
       style="opacity:1;fill:#baebfc;fill-opacity:1;stroke:none;stroke-width:0.99996877;stroke-opacity:1"
       d="m 20,1067.5201 c -0.860926,0 -1.679702,0.3729 -2.248047,1.0194 -0.628246,0.078 -1.182434,0.449 -1.494141,1 -0.08543,-0.012 -0.171543,-0.019 -0.257812,-0.019 -1.104569,0 -2,0.8953 -2,1.9998 8.58e-4,0.087 0.0074,0.1737 0.01953,0.2598 -0.628865,0.3537 -1.018466,1.0187 -1.01953,1.7401 0,1.1046 0.895431,1.9999 2,1.9999 l 9,0 c 1.656854,0 3,-1.343 3,-2.9998 0,-1.6568 -1.343146,-2.9998 -3,-2.9998 -0.0874,7e-4 -0.17472,0.01 -0.261719,0.014 -0.312215,-0.549 -0.865414,-0.9183 -1.492187,-0.9961 -0.568252,-0.6454 -1.386157,-1.0159 -2.246094,-1.0175 z"
       id="rect4249"
       inkscape:connector-curvature="0"
       sodipodi:nodetypes="cccccccssscccc" />
    <path
       style="opacity:1;fill:#ced9dc;fill-opacity:1;stroke:none;stroke-width:0.1;stroke-linecap:square;stroke-linejoin:miter;stroke-miterlimit:4;stroke-dasharray:none;stroke-dashoffset:0;stroke-opacity:1"
       d="M 8 58 C 8 58.554038 8.4459619 59 9 59 L 55 59 C 55.554038 59 56 58.554038 56 58 L 8 58 z "
       transform="translate(0,1058.5196)"
       id="rect4158" />
  </g>
</svg>
