<?xml version="1.0" encoding="UTF-8" standalone="no"?>
<!-- Created with Inkscape (http://www.inkscape.org/) -->

<svg
   xmlns:dc="http://purl.org/dc/elements/1.1/"
   xmlns:cc="http://creativecommons.org/ns#"
   xmlns:rdf="http://www.w3.org/1999/02/22-rdf-syntax-ns#"
   xmlns:svg="http://www.w3.org/2000/svg"
   xmlns="http://www.w3.org/2000/svg"
   xmlns:sodipodi="http://sodipodi.sourceforge.net/DTD/sodipodi-0.dtd"
   xmlns:inkscape="http://www.inkscape.org/namespaces/inkscape"
   width="64"
   height="64"
   viewBox="0 0 64 64.000003"
   id="svg2"
   version="1.1"
   inkscape:version="0.91+devel r"
   sodipodi:docname="help-browser.svg">
  <defs
     id="defs4" />
  <sodipodi:namedview
     id="base"
     pagecolor="#ffffff"
     bordercolor="#666666"
     borderopacity="1.0"
     inkscape:pageopacity="0.0"
     inkscape:pageshadow="2"
     inkscape:zoom="8.0000001"
     inkscape:cx="29.553513"
     inkscape:cy="28.658669"
     inkscape:document-units="px"
     inkscape:current-layer="layer1"
     showgrid="true"
     units="px"
     inkscape:showpageshadow="false"
     borderlayer="true"
     inkscape:window-width="1366"
     inkscape:window-height="670"
     inkscape:window-x="-4"
     inkscape:window-y="29"
     inkscape:window-maximized="1">
    <inkscape:grid
       type="xygrid"
       id="grid4136" />
    <sodipodi:guide
       position="5,59.000069"
       orientation="54,0"
       id="guide4142" />
    <sodipodi:guide
       position="5,5.0000688"
       orientation="0,54"
       id="guide4144" />
    <sodipodi:guide
       position="59,5.0000688"
       orientation="-54,0"
       id="guide4146" />
    <sodipodi:guide
       position="59,59.000069"
       orientation="0,-54"
       id="guide4148" />
    <sodipodi:guide
       position="0,64.000069"
       orientation="64,0"
       id="guide4150" />
    <sodipodi:guide
       position="0,6.875e-05"
       orientation="0,64"
       id="guide4152" />
    <sodipodi:guide
       position="64,6.875e-05"
       orientation="-64,0"
       id="guide4154" />
    <sodipodi:guide
       position="64,64.000069"
       orientation="0,-64"
       id="guide4156" />
    <sodipodi:guide
       position="10,53.999947"
       orientation="44,0"
       id="guide4153" />
    <sodipodi:guide
       position="10,9.9999467"
       orientation="0,44"
       id="guide4155" />
    <sodipodi:guide
       position="54,9.9999467"
       orientation="-44,0"
       id="guide4157" />
    <sodipodi:guide
       position="54,53.999947"
       orientation="0,-44"
       id="guide4159" />
    <sodipodi:guide
       position="5,32.000069"
       orientation="27,0"
       id="guide4165" />
    <sodipodi:guide
       position="5,5.0000688"
       orientation="0,27"
       id="guide4167" />
    <sodipodi:guide
       position="32,5.0000688"
       orientation="-27,0"
       id="guide4169" />
    <sodipodi:guide
       position="32,32.000069"
       orientation="0,-27"
       id="guide4171" />
  </sodipodi:namedview>
  <metadata
     id="metadata7">
    <rdf:RDF>
      <cc:Work
         rdf:about="">
        <dc:format>image/svg+xml</dc:format>
        <dc:type
           rdf:resource="http://purl.org/dc/dcmitype/StillImage" />
        <dc:title />
      </cc:Work>
    </rdf:RDF>
  </metadata>
  <g
     inkscape:label="Capa 1"
     inkscape:groupmode="layer"
     id="layer1"
     transform="translate(0,-1058.5196)">
    <path
       style="fill:#d7dadb;fill-opacity:1;stroke:none;stroke-opacity:1"
       d="M 32 15 A 17 16.999931 0 0 0 15 32 A 17 16.999931 0 0 0 32 49 A 17 16.999931 0 0 0 49 32 A 17 16.999931 0 0 0 32 15 z M 32 17 A 15 14.999939 0 0 1 47 32 A 15 14.999939 0 0 1 32 47 A 15 14.999939 0 0 1 17 32 A 15 14.999939 0 0 1 32 17 z "
       transform="translate(0,1058.5196)"
       id="path4222" />
    <path
       style="fill:#a26d3e;fill-opacity:1;stroke:none;stroke-opacity:1"
       d="M 18 5 C 10.797962 5 5 10.797962 5 18 L 5 46 C 5 53.202038 10.797962 59 18 59 L 46 59 C 53.202038 59 59 53.202038 59 46 L 59 18 C 59 10.797962 53.202038 5 46 5 L 18 5 z M 18.519531 6 L 45.480469 6 C 52.415764 6 58 11.582282 58 18.517578 L 58 45.480469 C 58 52.415764 52.415764 58 45.480469 58 L 18.519531 58 C 11.584236 58 6 52.415764 6 45.480469 L 6 18.517578 C 6 11.582282 11.584236 6 18.519531 6 z "
       transform="translate(0,1058.5196)"
       id="rect4201" />
    <path
       style="fill:#ecf0f1;fill-opacity:1;stroke:none;stroke-opacity:1"
       d="M 32 5 A 27 26.999849 0 0 0 5 32 A 27 26.999849 0 0 0 32 59 A 27 26.999849 0 0 0 59 32 A 27 26.999849 0 0 0 32 5 z M 32 16 A 16 15.999912 0 0 1 48 32 A 16 15.999912 0 0 1 32 48 A 16 15.999912 0 0 1 16 32 A 16 15.999912 0 0 1 32 16 z "
       transform="translate(0,1058.5196)"
       id="path4164" />
    <path
       style="fill:#f6f8f8;fill-opacity:1;stroke:none;stroke-opacity:1"
       d="M 32 11 A 21 21 0 0 0 11 32 A 21 21 0 0 0 32 53 A 21 21 0 0 0 53 32 A 21 21 0 0 0 32 11 z M 32 16 A 16 16 0 0 1 48 32 A 16 16 0 0 1 32 48 A 16 16 0 0 1 16 32 A 16 16 0 0 1 32 16 z "
       transform="translate(0,1058.5196)"
       id="path4184" />
    <path
       style="fill:#db564b;fill-opacity:1;stroke:none;stroke-opacity:1"
       d="M 15.066406 10 C 14.082638 10 13.099518 10.377045 12.345703 11.130859 L 12.130859 11.34375 C 10.623231 12.851379 10.623231 15.279481 12.130859 16.787109 L 16.212891 20.869141 C 17.720519 22.376769 20.148621 22.376769 21.65625 20.869141 L 21.871094 20.654297 C 23.378723 19.146668 23.378723 16.720519 21.871094 15.212891 L 17.789062 11.130859 C 17.035248 10.377045 16.050175 10 15.066406 10 z M 48.933594 10 C 47.949825 10 46.966705 10.377045 46.212891 11.130859 L 42.130859 15.212891 C 40.623231 16.720519 40.623231 19.146668 42.130859 20.654297 L 42.345703 20.869141 C 43.853332 22.376769 46.279481 22.376769 47.787109 20.869141 L 51.869141 16.787109 C 53.376769 15.279481 53.376769 12.851379 51.869141 11.34375 L 51.65625 11.130859 C 50.902436 10.377045 49.917362 10 48.933594 10 z M 18.935547 41 C 17.951778 41 16.966705 41.377045 16.212891 42.130859 L 12.130859 46.212891 C 10.623231 47.720519 10.623231 50.146668 12.130859 51.654297 L 12.345703 51.869141 C 13.853332 53.376769 16.281434 53.376769 17.789062 51.869141 L 21.871094 47.787109 C 23.378723 46.279481 23.378723 43.851379 21.871094 42.34375 L 21.65625 42.130859 C 20.902436 41.377045 19.919315 41 18.935547 41 z M 45.066406 41 C 44.082638 41 43.099518 41.377045 42.345703 42.130859 L 42.130859 42.34375 C 40.623231 43.851379 40.623231 46.279481 42.130859 47.787109 L 46.212891 51.869141 C 47.720519 53.376769 50.148621 53.376769 51.65625 51.869141 L 51.869141 51.654297 C 53.376769 50.146668 53.376769 47.720519 51.869141 46.212891 L 47.787109 42.130859 C 47.033295 41.377045 46.050175 41 45.066406 41 z "
       transform="translate(0,1058.5196)"
       id="rect4191" />
    <rect
       style="fill:#c6966b;fill-opacity:1;stroke:none;stroke-opacity:1"
       id="rect4206"
       width="2"
       height="6"
       x="5"
       y="1087.5197"
       ry="1" />
    <rect
       ry="1"
       y="1087.5197"
       x="57.000008"
       height="6"
       width="2"
       id="rect4208"
       style="fill:#c6966b;fill-opacity:1;stroke:none;stroke-opacity:1" />
    <path
       style="fill:#c6966b;fill-opacity:1;stroke:none;stroke-opacity:1"
       d="M 30 5 C 29.446 5 29 5.446 29 6 C 29 6.554 29.446 7 30 7 L 34 7 C 34.554 7 35 6.554 35 6 C 35 5.446 34.554 5 34 5 L 30 5 z M 30 57 C 29.446 57 29 57.446 29 58 C 29 58.554 29.446 59 30 59 L 34 59 C 34.554 59 35 58.554 35 58 C 35 57.446 34.554 57 34 57 L 30 57 z "
       transform="translate(0,1058.5196)"
       id="rect4210" />
    <path
       style="fill:#a26d3e;fill-opacity:1;stroke:none;stroke-opacity:1"
       d="M 31 5 L 31 6 L 33 6 L 33 5 L 31 5 z M 5 31 L 5 33 L 6 33 L 6 31 L 5 31 z M 58 31 L 58 33 L 59 33 L 59 31 L 58 31 z M 31 58 L 31 59 L 33 59 L 33 58 L 31 58 z "
       transform="translate(0,1058.5196)"
       id="rect4214" />
  </g>
</svg>
