<?xml version="1.0" encoding="UTF-8" standalone="no"?>
<!-- Created with Inkscape (http://www.inkscape.org/) -->

<svg
   xmlns:dc="http://purl.org/dc/elements/1.1/"
   xmlns:cc="http://creativecommons.org/ns#"
   xmlns:rdf="http://www.w3.org/1999/02/22-rdf-syntax-ns#"
   xmlns:svg="http://www.w3.org/2000/svg"
   xmlns="http://www.w3.org/2000/svg"
   xmlns:sodipodi="http://sodipodi.sourceforge.net/DTD/sodipodi-0.dtd"
   xmlns:inkscape="http://www.inkscape.org/namespaces/inkscape"
   width="64"
   height="64"
   viewBox="0 0 64 64.000003"
   id="svg2"
   version="1.1"
   inkscape:version="0.91+devel r"
   sodipodi:docname="htop.svg">
  <defs
     id="defs4" />
  <sodipodi:namedview
     id="base"
     pagecolor="#ffffff"
     bordercolor="#666666"
     borderopacity="1.0"
     inkscape:pageopacity="0.0"
     inkscape:pageshadow="2"
     inkscape:zoom="11.313708"
     inkscape:cx="21.033819"
     inkscape:cy="39.852202"
     inkscape:document-units="px"
     inkscape:current-layer="layer1"
     showgrid="true"
     units="px"
     inkscape:showpageshadow="false"
     borderlayer="true"
     inkscape:window-width="2560"
     inkscape:window-height="957"
     inkscape:window-x="-4"
     inkscape:window-y="29"
     inkscape:window-maximized="1"
     showguides="true">
    <inkscape:grid
       type="xygrid"
       id="grid4136" />
    <sodipodi:guide
       position="5,59.000069"
       orientation="54,0"
       id="guide4142" />
    <sodipodi:guide
       position="5,5.0000688"
       orientation="0,54"
       id="guide4144" />
    <sodipodi:guide
       position="59,5.0000688"
       orientation="-54,0"
       id="guide4146" />
    <sodipodi:guide
       position="59,59.000069"
       orientation="0,-54"
       id="guide4148" />
    <sodipodi:guide
       position="0,64.000069"
       orientation="64,0"
       id="guide4150" />
    <sodipodi:guide
       position="0,6.875e-05"
       orientation="0,64"
       id="guide4152" />
    <sodipodi:guide
       position="64,6.875e-05"
       orientation="-64,0"
       id="guide4154" />
    <sodipodi:guide
       position="64,64.000069"
       orientation="0,-64"
       id="guide4156" />
    <sodipodi:guide
       position="13,50.999947"
       orientation="38,0"
       id="guide4155" />
    <sodipodi:guide
       position="13,12.999947"
       orientation="0,38"
       id="guide4157" />
    <sodipodi:guide
       position="51,12.999947"
       orientation="-38,0"
       id="guide4159" />
    <sodipodi:guide
       position="51,50.999947"
       orientation="0,-38"
       id="guide4161" />
  </sodipodi:namedview>
  <metadata
     id="metadata7">
    <rdf:RDF>
      <cc:Work
         rdf:about="">
        <dc:format>image/svg+xml</dc:format>
        <dc:type
           rdf:resource="http://purl.org/dc/dcmitype/StillImage" />
        <dc:title />
      </cc:Work>
    </rdf:RDF>
  </metadata>
  <g
     inkscape:label="Capa 1"
     inkscape:groupmode="layer"
     id="layer1"
     transform="translate(0,-1058.5196)">
    <rect
       style="fill:#202b33;fill-opacity:1;stroke:none"
       id="rect4148-2"
       width="56"
       height="52.000175"
       x="3.999999"
       y="1064.5197" />
    <path
       inkscape:connector-curvature="0"
       style="opacity:1;fill:#34495e;fill-opacity:1;stroke:none;stroke-opacity:1"
       d="m 4,1063.5196 c -0.554038,0 -1,0.446 -1,1 l 0,51 0,1 c 0,0.554 0.445962,1 1,1 l 1,0 55,0 c 0.554038,0 1,-0.446 1,-1 l 0,-52 c 0,-0.554 -0.445962,-1 -1,-1 l -55,0 -1,0 z m 1,4 54,0 0,48 -54,0 0,-48 z"
       id="rect4151-3" />
    <circle
       style="opacity:1;fill:#ecf0f1;fill-opacity:1;stroke:none;stroke-opacity:1"
       id="path4155-0"
       cx="57.999981"
       cy="1065.5197"
       r="1" />
    <rect
       style="opacity:1;fill:#03c9a9;fill-opacity:1;stroke:none;stroke-opacity:1"
       id="rect4153-5"
       width="54"
       height="1.018868"
       x="4.999999"
       y="1067.5197" />
    <path
       inkscape:connector-curvature="0"
       style="opacity:1;fill:#2c3e4f;fill-opacity:1;stroke:none;stroke-width:0.1;stroke-linecap:square;stroke-linejoin:miter;stroke-miterlimit:4;stroke-dasharray:none;stroke-dashoffset:0;stroke-opacity:1"
       d="m 3,1116.5196 c 0,0.554 0.445962,1 1,1 l 56,0 c 0.554038,0 1,-0.446 1,-1 l -58,0 z"
       id="rect4171" />
    <path
       style="opacity:1;fill:#2abb9b;fill-opacity:1;stroke:none;stroke-width:3.19075322px;stroke-linecap:butt;stroke-linejoin:miter;stroke-miterlimit:4;stroke-dasharray:none;stroke-dashoffset:0;stroke-opacity:1"
       d="M 19 15 L 19 19 L 21 19 L 21 15 L 19 15 z M 22 15 L 22 19 L 24 19 L 24 15 L 22 15 z M 40 15 L 40 19 L 42 19 L 42 15 L 40 15 z M 43 15 L 43 19 L 45 19 L 45 15 L 43 15 z M 19 20 L 19 24 L 21 24 L 21 20 L 19 20 z M 22 20 L 22 24 L 24 24 L 24 20 L 22 20 z M 40 20 L 40 24 L 42 24 L 42 20 L 40 20 z M 43 20 L 43 24 L 45 24 L 45 20 L 43 20 z M 19 25 L 19 29 L 21 29 L 21 25 L 19 25 z M 22 25 L 22 29 L 24 29 L 24 25 L 22 25 z M 40 25 L 40 29 L 42 29 L 42 25 L 40 25 z M 43 25 L 43 29 L 45 29 L 45 25 L 43 25 z M 19 30 L 19 34 L 21 34 L 21 30 L 19 30 z M 22 30 L 22 34 L 24 34 L 24 30 L 22 30 z M 25 30 L 25 34 L 27 34 L 27 30 L 25 30 z M 28 30 L 28 34 L 30 34 L 30 30 L 28 30 z M 31 30 L 31 34 L 33 34 L 33 30 L 31 30 z M 34 30 L 34 34 L 36 34 L 36 30 L 34 30 z M 37 30 L 37 34 L 39 34 L 39 30 L 37 30 z M 40 30 L 40 34 L 42 34 L 42 30 L 40 30 z M 43 30 L 43 34 L 45 34 L 45 30 L 43 30 z M 19 35 L 19 39 L 21 39 L 21 35 L 19 35 z M 22 35 L 22 39 L 24 39 L 24 35 L 22 35 z M 25 35 L 25 39 L 27 39 L 27 35 L 25 35 z M 28 35 L 28 39 L 30 39 L 30 35 L 28 35 z M 31 35 L 31 39 L 33 39 L 33 35 L 31 35 z M 34 35 L 34 39 L 36 39 L 36 35 L 34 35 z M 37 35 L 37 39 L 39 39 L 39 35 L 37 35 z M 40 35 L 40 39 L 42 39 L 42 35 L 40 35 z M 43 35 L 43 39 L 45 39 L 45 35 L 43 35 z M 19 40 L 19 44 L 21 44 L 21 40 L 19 40 z M 22 40 L 22 44 L 24 44 L 24 40 L 22 40 z M 40 40 L 40 44 L 42 44 L 42 40 L 40 40 z M 43 40 L 43 44 L 45 44 L 45 40 L 43 40 z M 19 45 L 19 49 L 21 49 L 21 45 L 19 45 z M 22 45 L 22 49 L 24 49 L 24 45 L 22 45 z M 40 45 L 40 49 L 42 49 L 42 45 L 40 45 z M 43 45 L 43 49 L 45 49 L 45 45 L 43 45 z "
       transform="translate(0,1058.5196)"
       id="rect4194" />
    <path
       style="opacity:1;fill:#dadfe1;fill-opacity:1;stroke:none;stroke-width:3.19075322px;stroke-linecap:butt;stroke-linejoin:miter;stroke-miterlimit:4;stroke-dasharray:none;stroke-dashoffset:0;stroke-opacity:1"
       d="M 16 15 L 16 19 L 18 19 L 18 15 L 16 15 z M 46.099609 15 L 46.099609 19 L 48.099609 19 L 48.099609 15 L 46.099609 15 z M 16 20 L 16 24 L 18 24 L 18 20 L 16 20 z M 46.099609 20 L 46.099609 24 L 48.099609 24 L 48.099609 20 L 46.099609 20 z M 16 25 L 16 29 L 18 29 L 18 25 L 16 25 z M 46.099609 25 L 46.099609 29 L 48.099609 29 L 48.099609 25 L 46.099609 25 z M 16 30 L 16 34 L 18 34 L 18 30 L 16 30 z M 46.099609 30 L 46.099609 34 L 48.099609 34 L 48.099609 30 L 46.099609 30 z M 16 35 L 16 39 L 18 39 L 18 35 L 16 35 z M 46.099609 35 L 46.099609 39 L 48.099609 39 L 48.099609 35 L 46.099609 35 z M 16 40 L 16 44 L 18 44 L 18 40 L 16 40 z M 46.099609 40 L 46.099609 44 L 48.099609 44 L 48.099609 40 L 46.099609 40 z M 16 45 L 16 49 L 18 49 L 18 45 L 16 45 z M 46.099609 45 L 46.099609 49 L 48.099609 49 L 48.099609 45 L 46.099609 45 z "
       transform="translate(0,1058.5196)"
       id="rect4368" />
  </g>
</svg>
