<?xml version="1.0" encoding="UTF-8" standalone="no"?>
<!-- Created with Inkscape (http://www.inkscape.org/) -->

<svg
   xmlns:dc="http://purl.org/dc/elements/1.1/"
   xmlns:cc="http://creativecommons.org/ns#"
   xmlns:rdf="http://www.w3.org/1999/02/22-rdf-syntax-ns#"
   xmlns:svg="http://www.w3.org/2000/svg"
   xmlns="http://www.w3.org/2000/svg"
   xmlns:sodipodi="http://sodipodi.sourceforge.net/DTD/sodipodi-0.dtd"
   xmlns:inkscape="http://www.inkscape.org/namespaces/inkscape"
   width="64"
   height="64"
   viewBox="0 0 64 64.000003"
   id="svg2"
   version="1.1"
   inkscape:version="0.91+devel r"
   sodipodi:docname="hwinfo.svg">
  <defs
     id="defs4" />
  <sodipodi:namedview
     id="base"
     pagecolor="#ffffff"
     bordercolor="#666666"
     borderopacity="1.0"
     inkscape:pageopacity="0.0"
     inkscape:pageshadow="2"
     inkscape:zoom="7.9999996"
     inkscape:cx="26.245007"
     inkscape:cy="47.337291"
     inkscape:document-units="px"
     inkscape:current-layer="layer1"
     showgrid="true"
     units="px"
     inkscape:showpageshadow="false"
     borderlayer="true"
     inkscape:window-width="1366"
     inkscape:window-height="670"
     inkscape:window-x="-4"
     inkscape:window-y="29"
     inkscape:window-maximized="1"
     showguides="true">
    <inkscape:grid
       type="xygrid"
       id="grid4136"
       empspacing="2" />
    <sodipodi:guide
       position="5,59.000069"
       orientation="54,0"
       id="guide4142" />
    <sodipodi:guide
       position="5,5.0000688"
       orientation="0,54"
       id="guide4144" />
    <sodipodi:guide
       position="59,5.0000688"
       orientation="-54,0"
       id="guide4146" />
    <sodipodi:guide
       position="59,59.000069"
       orientation="0,-54"
       id="guide4148" />
    <sodipodi:guide
       position="0,64.000069"
       orientation="64,0"
       id="guide4150" />
    <sodipodi:guide
       position="0,6.875e-05"
       orientation="0,64"
       id="guide4152" />
    <sodipodi:guide
       position="64,47.000002"
       orientation="-64,0"
       id="guide4154" />
    <sodipodi:guide
       position="64,64.000069"
       orientation="0,-64"
       id="guide4156" />
    <sodipodi:guide
       position="13,50.999947"
       orientation="38,0"
       id="guide4155" />
    <sodipodi:guide
       position="13,12.999947"
       orientation="0,38"
       id="guide4157" />
    <sodipodi:guide
       position="51,12.999947"
       orientation="-38,0"
       id="guide4159" />
    <sodipodi:guide
       position="51,50.999947"
       orientation="0,-38"
       id="guide4161" />
  </sodipodi:namedview>
  <metadata
     id="metadata7">
    <rdf:RDF>
      <cc:Work
         rdf:about="">
        <dc:format>image/svg+xml</dc:format>
        <dc:type
           rdf:resource="http://purl.org/dc/dcmitype/StillImage" />
        <dc:title />
      </cc:Work>
    </rdf:RDF>
  </metadata>
  <g
     inkscape:label="Capa 1"
     inkscape:groupmode="layer"
     id="layer1"
     transform="translate(0,-1058.5196)">
    <path
       style="fill:#76bd74;fill-opacity:1;stroke:none"
       d="m 5,5 0,46 0,2 2.2695312,0 3.4609378,0 L 13,53 l 0,3 2,0 1,0 1,0 0,-2 1,0 0,2 1,0 1,0 1,0 1,0 1,0 1,0 1,0 1,0 1,0 1,0 1,0 1,0 1,0 1,0 1,0 1,0 1,0 1,0 1,0 1,0 1,0 1,0 1,0 1,0 1,0 1,0 1,0 2,0 0,-3 12,0 0,-48 z"
       transform="translate(0,1058.5196)"
       id="rect4148"
       inkscape:connector-curvature="0"
       sodipodi:nodetypes="ccccccccccccccccccccccccccccccccccccccccccccc" />
    <rect
       style="fill:#76bd74;fill-opacity:1;stroke:none;stroke-opacity:1"
       id="rect4150"
       width="58"
       height="47.999947"
       x="3"
       y="1063.5197"
       ry="0" />
    <path
       style="fill:#f1cb6d;fill-opacity:1;stroke:none;stroke-opacity:1"
       d="m 50,1111.5196 0,2 3,0 2,0 0,-2 -2,0 -3,0 z"
       id="rect4256"
       inkscape:connector-curvature="0" />
    <path
       style="fill:#f1cb6d;fill-opacity:1;fill-rule:evenodd;stroke:none"
       d="M 13 56 L 13 57 L 13 58 L 15 58 L 16 58 L 17 58 L 17 56 L 16 56 L 13 56 z M 18 56 L 18 58 L 19 58 L 20 58 L 21 58 L 22 58 L 23 58 L 24 58 L 25 58 L 26 58 L 27 58 L 28 58 L 29 58 L 30 58 L 31 58 L 32 58 L 33 58 L 34 58 L 35 58 L 36 58 L 37 58 L 38 58 L 39 58 L 40 58 L 41 58 L 42 58 L 43 58 L 44 58 L 45 58 L 47 58 L 47 56 L 45 56 L 44 56 L 43 56 L 42 56 L 41 56 L 40 56 L 39 56 L 38 56 L 37 56 L 36 56 L 35 56 L 34 56 L 33 56 L 32 56 L 31 56 L 30 56 L 29 56 L 28 56 L 27 56 L 26 56 L 25 56 L 24 56 L 23 56 L 22 56 L 21 56 L 20 56 L 19 56 L 18 56 z "
       transform="translate(0,1058.5196)"
       id="rect3345" />
    <path
       style="fill:#f7dea3;fill-opacity:1;fill-rule:evenodd;stroke:none"
       d="M 13 58 L 13 59 L 15 59 L 16 59 L 17 59 L 17 58 L 16 58 L 15 58 L 13 58 z M 18 58 L 18 59 L 19 59 L 20 59 L 21 59 L 22 59 L 23 59 L 24 59 L 25 59 L 26 59 L 27 59 L 28 59 L 29 59 L 30 59 L 31 59 L 32 59 L 33 59 L 34 59 L 35 59 L 36 59 L 37 59 L 38 59 L 39 59 L 40 59 L 41 59 L 42 59 L 43 59 L 44 59 L 45 59 L 47 59 L 47 58 L 45 58 L 44 58 L 43 58 L 42 58 L 41 58 L 40 58 L 39 58 L 38 58 L 37 58 L 36 58 L 35 58 L 34 58 L 33 58 L 32 58 L 31 58 L 30 58 L 29 58 L 28 58 L 27 58 L 26 58 L 25 58 L 24 58 L 23 58 L 22 58 L 21 58 L 20 58 L 19 58 L 18 58 z "
       id="rect4205"
       transform="translate(0,1058.5196)" />
    <path
       style="fill:#f1cb6d;fill-opacity:1;stroke:none;stroke-opacity:1"
       d="m 8,1111.5196 0,2 3,0 0,-2 -3,0 z"
       id="rect4224"
       inkscape:connector-curvature="0" />
    <rect
       style="fill:#f7dea3;fill-opacity:1;stroke:none;stroke-opacity:1"
       id="rect4226"
       width="3"
       height="1"
       x="8"
       y="1113.5199" />
    <rect
       y="1113.5199"
       x="50"
       height="1"
       width="5"
       id="rect4254"
       style="fill:#f7dea3;fill-opacity:1;stroke:none;stroke-opacity:1" />
    <path
       style="fill:#c4cbcf;fill-rule:evenodd;stroke:none;stroke-width:0.90453392"
       d="M 52 8 L 52 10 L 50 10 L 50 11 L 52 11 L 52 12 L 50 12 L 50 13 L 52 13 L 52 14 L 50 14 L 50 15 L 52 15 L 52 17 L 53 17 L 53 15 L 54 15 L 54 17 L 55 17 L 55 15 L 56 15 L 56 17 L 57 17 L 57 15 L 59 15 L 59 14 L 57 14 L 57 13 L 59 13 L 59 12 L 57 12 L 57 11 L 59 11 L 59 10 L 57 10 L 57 8 L 56 8 L 56 10 L 55 10 L 55 8 L 54 8 L 54 10 L 53 10 L 53 8 L 52 8 z M 53 11 L 54 11 L 54 12 L 53 12 L 53 11 z M 55 11 L 56 11 L 56 12 L 55 12 L 55 11 z M 53 13 L 54 13 L 54 14 L 53 14 L 53 13 z M 55 13 L 56 13 L 56 14 L 55 14 L 55 13 z "
       transform="translate(0,1058.5196)"
       id="rect334514" />
    <rect
       style="fill:#c4cbcf;fill-rule:evenodd;stroke:none"
       y="1095.5192"
       x="4.9999743"
       id="rect334522"
       width="13.000053"
       height="1" />
    <rect
       style="fill:#8e7e6d;fill-rule:evenodd;stroke:none"
       y="1094.5192"
       x="7.99997"
       id="rect334523"
       width="7.0000534"
       height="3" />
    <rect
       style="fill:#c4cbcf;fill-rule:evenodd;stroke:none"
       y="1096.5197"
       x="49"
       id="rect334524"
       width="11"
       height="1.0000533" />
    <rect
       style="fill:#f3dfc6;fill-rule:evenodd;stroke:none"
       y="1095.5199"
       x="50.999992"
       id="rect334525"
       width="7"
       height="3" />
    <rect
       style="fill:#435564;fill-rule:evenodd;stroke:none;stroke-miterlimit:2"
       y="1067.5197"
       x="51"
       id="shape1"
       stroke-miterlimit="2.00000000000"
       width="7"
       height="6.9999466" />
    <rect
       style="fill:#de6143;fill-rule:evenodd;stroke:none"
       y="1095.5199"
       x="53.999992"
       id="rect4384"
       width="1"
       height="3" />
    <rect
       height="3"
       width="1"
       id="rect4386"
       x="51.999992"
       y="1095.5199"
       style="fill:#de6143;fill-rule:evenodd;stroke:none" />
    <rect
       style="fill:#de6143;fill-rule:evenodd;stroke:none"
       y="1095.5199"
       x="55.999992"
       id="rect4388"
       width="1"
       height="3" />
    <rect
       height="1.0000533"
       width="11"
       id="rect4339"
       x="49"
       y="1102.5197"
       style="fill:#c4cbcf;fill-rule:evenodd;stroke:none" />
    <rect
       height="3"
       width="7"
       id="rect4341"
       x="50.999992"
       y="1101.5199"
       style="fill:#f3dfc6;fill-rule:evenodd;stroke:none" />
    <rect
       height="3"
       width="1"
       id="rect4343"
       x="53.999992"
       y="1101.5199"
       style="fill:#de6143;fill-rule:evenodd;stroke:none" />
    <rect
       style="fill:#de6143;fill-rule:evenodd;stroke:none"
       y="1101.5199"
       x="51.999992"
       id="rect4345"
       width="1"
       height="3" />
    <rect
       height="3"
       width="1"
       id="rect4347"
       x="55.999992"
       y="1101.5199"
       style="fill:#de6143;fill-rule:evenodd;stroke:none" />
    <rect
       height="1"
       width="13.000053"
       id="rect4349"
       x="4.9999743"
       y="1101.5192"
       style="fill:#c4cbcf;fill-rule:evenodd;stroke:none" />
    <rect
       height="3"
       width="7.0000534"
       id="rect4351"
       x="7.99997"
       y="1100.5192"
       style="fill:#8e7e6d;fill-rule:evenodd;stroke:none" />
    <rect
       style="fill:#c4cbcf;fill-rule:evenodd;stroke:none"
       y="1107.5192"
       x="4.9999743"
       id="rect4353"
       width="13.000053"
       height="1" />
    <rect
       style="fill:#8e7e6d;fill-rule:evenodd;stroke:none"
       y="1106.5192"
       x="7.99997"
       id="rect4355"
       width="7.0000534"
       height="3" />
    <path
       id="path4366"
       d="m 42,1066.5196 0,2 -2,0 0,1 2,0 0,1 -2,0 0,1 2,0 0,1 -2,0 0,1 2,0 0,2 1,0 0,-2 1,0 0,2 1,0 0,-2 1,0 0,2 1,0 0,-2 2,0 0,-1 -2,0 0,-1 2,0 0,-1 -2,0 0,-1 2,0 0,-1 -2,0 0,-2 -1,0 0,2 -1,0 0,-2 -1,0 0,2 -1,0 0,-2 -1,0 z m 1,3 1,0 0,1 -1,0 0,-1 z m 2,0 1,0 0,1 -1,0 0,-1 z m -2,2 1,0 0,1 -1,0 0,-1 z m 2,0 1,0 0,1 -1,0 0,-1 z"
       style="fill:#c4cbcf;fill-rule:evenodd;stroke:none;stroke-width:0.90453392"
       inkscape:connector-curvature="0" />
    <rect
       height="6.9999466"
       width="7"
       stroke-miterlimit="2.00000000000"
       id="rect4368"
       x="41"
       y="1067.5197"
       style="fill:#435564;fill-rule:evenodd;stroke:none;stroke-miterlimit:2" />
    <path
       inkscape:connector-curvature="0"
       style="fill:#c4cbcf;fill-rule:evenodd;stroke:none;stroke-width:0.90453392"
       d="m 8,1066.5196 0,2 -2,0 0,1 2,0 0,1 -2,0 0,1 2,0 0,1 -2,0 0,1 2,0 0,2 1,0 0,-2 1,0 0,2 1,0 0,-2 1,0 0,2 1,0 0,-2 2,0 0,-1 -2,0 0,-1 2,0 0,-1 -2,0 0,-1 2,0 0,-1 -2,0 0,-2 -1,0 0,2 -1,0 0,-2 -1,0 0,2 -1,0 0,-2 -1,0 z m 1,3 1,0 0,1 -1,0 0,-1 z m 2,0 1,0 0,1 -1,0 0,-1 z m -2,2 1,0 0,1 -1,0 0,-1 z m 2,0 1,0 0,1 -1,0 0,-1 z"
       id="path4370" />
    <rect
       style="fill:#435564;fill-rule:evenodd;stroke:none;stroke-miterlimit:2"
       y="1067.5197"
       x="7"
       id="rect4372"
       stroke-miterlimit="2.00000000000"
       width="7"
       height="6.9999466" />
    <rect
       style="opacity:1;fill:#435564;fill-opacity:1;stroke:none;stroke-width:1.05409253;stroke-linecap:round;stroke-linejoin:miter;stroke-miterlimit:4;stroke-dasharray:none;stroke-opacity:0.29943501"
       id="rect4374"
       width="20"
       height="20"
       x="23"
       y="1079.5197"
       ry="0" />
    <path
       style="opacity:1;fill:#c4cbcf;fill-opacity:1;stroke:none;stroke-width:1;stroke-linecap:round;stroke-linejoin:miter;stroke-miterlimit:4;stroke-dasharray:none;stroke-opacity:0.29943501"
       d="m 25,18 0,1 -1,0 0,2 3,0 0,-2 -1,0 0,-1 z m 5,0 0,1 -1,0 0,2 3,0 0,-2 -1,0 0,-1 z m 5,0 0,1 -1,0 0,2 3,0 0,-2 -1,0 0,-1 z m 5,0 0,1 -1,0 0,2 3,0 0,-2 -1,0 0,-1 z m -19,4 0,1 -1,0 0,1 1,0 0,1 2,0 0,-3 z m 22,0 0,3 2,0 0,-1 1,0 0,-1 -1,0 0,-1 z m -22,5 0,1 -1,0 0,1 1,0 0,1 2,0 0,-3 z m 22,0 0,3 2,0 0,-1 1,0 0,-1 -1,0 0,-1 z m -22,5 0,1 -1,0 0,1 1,0 0,1 2,0 0,-3 z m 22,0 0,3 2,0 0,-1 1,0 0,-1 -1,0 0,-1 z m -22,5 0,1 -1,0 0,1 1,0 0,1 2,0 0,-3 z m 22,0 0,3 2,0 0,-1 1,0 0,-1 -1,0 0,-1 z m -19,4 0,2 1,0 0,1 1,0 0,-1 1,0 0,-2 z m 5,0 0,2 1,0 0,1 1,0 0,-1 1,0 0,-2 z m 5,0 0,2 1,0 0,1 1,0 0,-1 1,0 0,-2 z m 5,0 0,2 1,0 0,1 1,0 0,-1 1,0 0,-2 z"
       transform="translate(0,1058.5196)"
       id="rect4376"
       inkscape:connector-curvature="0"
       sodipodi:nodetypes="cccccccccccccccccccccccccccccccccccccccccccccccccccccccccccccccccccccccccccccccccccccccccccccccccccccccccccccccccccccccccccccccccccccccccccccccc" />
  </g>
</svg>
