<?xml version="1.0" encoding="UTF-8" standalone="no"?>
<!-- Created with Inkscape (http://www.inkscape.org/) -->

<svg
   xmlns:dc="http://purl.org/dc/elements/1.1/"
   xmlns:cc="http://creativecommons.org/ns#"
   xmlns:rdf="http://www.w3.org/1999/02/22-rdf-syntax-ns#"
   xmlns:svg="http://www.w3.org/2000/svg"
   xmlns="http://www.w3.org/2000/svg"
   xmlns:sodipodi="http://sodipodi.sourceforge.net/DTD/sodipodi-0.dtd"
   xmlns:inkscape="http://www.inkscape.org/namespaces/inkscape"
   width="48"
   height="48"
   id="svg2"
   version="1.1"
   inkscape:version="0.48.4 r9939"
   viewBox="0 0 13.546666 13.546668"
   sodipodi:docname="ibus-setup.svg">
  <defs
     id="defs4" />
  <sodipodi:namedview
     id="base"
     pagecolor="#ffffff"
     bordercolor="#666666"
     borderopacity="1.0"
     inkscape:pageopacity="0"
     inkscape:pageshadow="2"
     inkscape:zoom="12.58683"
     inkscape:cx="28.092718"
     inkscape:cy="23.946648"
     inkscape:document-units="px"
     inkscape:current-layer="layer1"
     showgrid="false"
     inkscape:showpageshadow="false"
     borderlayer="true"
     units="px"
     fit-margin-top="0"
     fit-margin-left="0"
     fit-margin-right="0"
     fit-margin-bottom="0"
     showguides="true"
     inkscape:window-width="1440"
     inkscape:window-height="836"
     inkscape:window-x="0"
     inkscape:window-y="26"
     inkscape:window-maximized="1">
    <sodipodi:guide
       position="-6.6748425e-06,47.999999"
       orientation="47.999977,0"
       id="guide4120" />
    <sodipodi:guide
       position="-6.6748425e-06,2.2810037e-05"
       orientation="0,48.000004"
       id="guide4122" />
    <sodipodi:guide
       position="47.999997,2.2810037e-05"
       orientation="-47.999977,0"
       id="guide4124" />
    <sodipodi:guide
       position="47.999997,47.999999"
       orientation="0,-48.000004"
       id="guide4126" />
    <sodipodi:guide
       position="3.9999733,44.000154"
       orientation="39.999962,0"
       id="guide4138" />
    <sodipodi:guide
       position="3.9999733,4.0001921"
       orientation="0,40.000003"
       id="guide4140" />
    <sodipodi:guide
       position="43.999976,4.0001921"
       orientation="-39.999962,0"
       id="guide4142" />
    <sodipodi:guide
       position="43.999976,44.000154"
       orientation="0,-40.000003"
       id="guide4144" />
    <sodipodi:guide
       position="6.9999922,47.999999"
       orientation="39.999962,0"
       id="guide4148" />
    <sodipodi:guide
       position="6.9999922,8.0000369"
       orientation="0,34.000006"
       id="guide4150" />
    <sodipodi:guide
       position="40.999998,8.0000369"
       orientation="-39.999962,0"
       id="guide4152" />
    <sodipodi:guide
       position="40.999998,47.999999"
       orientation="0,-34.000006"
       id="guide4154" />
    <sodipodi:guide
       position="14.999993,32.999986"
       orientation="17.999951,0"
       id="guide4158" />
    <sodipodi:guide
       position="14.999993,15.000036"
       orientation="0,17.999998"
       id="guide4160" />
    <sodipodi:guide
       position="32.999991,15.000036"
       orientation="-17.999951,0"
       id="guide4162" />
    <sodipodi:guide
       position="32.999991,32.999986"
       orientation="0,-17.999998"
       id="guide4164" />
    <sodipodi:guide
       position="1.9999969,44.000046"
       orientation="39.999962,0"
       id="guide3279" />
    <sodipodi:guide
       position="1.9999969,4.0000839"
       orientation="0,44.000003"
       id="guide3281" />
    <sodipodi:guide
       position="46,4.0000839"
       orientation="-39.999962,0"
       id="guide3283" />
    <sodipodi:guide
       position="46,44.000046"
       orientation="0,-44.000003"
       id="guide3285" />
    <sodipodi:guide
       position="8.9999822,39.000078"
       orientation="30.000026,0"
       id="guide4141" />
    <sodipodi:guide
       position="8.9999822,9.0000522"
       orientation="0,29.999999"
       id="guide4143" />
    <sodipodi:guide
       position="38.999981,9.0000522"
       orientation="-30.000026,0"
       id="guide4145" />
    <sodipodi:guide
       position="38.999981,39.000078"
       orientation="0,-29.999999"
       id="guide4147" />
  </sodipodi:namedview>
  <metadata
     id="metadata7">
    <rdf:RDF>
      <cc:Work
         rdf:about="">
        <dc:format>image/svg+xml</dc:format>
        <dc:type
           rdf:resource="http://purl.org/dc/dcmitype/StillImage" />
        <dc:title />
      </cc:Work>
    </rdf:RDF>
  </metadata>
  <g
     inkscape:label="Capa 1"
     inkscape:groupmode="layer"
     id="layer1"
     transform="translate(38.119153,-397.84494)">
    <rect
       style="fill:#4aa3df;fill-opacity:1;stroke:none"
       id="rect4118"
       width="11.288891"
       height="11.288879"
       x="-36.990273"
       y="398.97379" />
    <g
       id="g3035"
       transform="translate(-0.025403,0.023784)"
       style="fill:#2c3e50;fill-opacity:1">
      <path
         d="m -33.58344,408.12227 -0.89099,0 0,-4.89366 0.89099,0 0,4.89366 m 0,-6.14646 -0.89099,0 0,-0.9091 0.89099,0 0,0.9091"
         style="font-size:11.28888987999999927px;font-style:normal;font-variant:normal;font-weight:normal;font-stretch:normal;line-height:125%;letter-spacing:-0.88900029999999985px;word-spacing:0px;fill:#2c3e50;fill-opacity:1;stroke:none;font-family:Roboto;-inkscape-font-specification:Roboto"
         id="path3029"
         inkscape:connector-curvature="0" />
      <path
         d="m -32.775127,408.12227 0,-6.58518 2.148325,0 c 0.687461,1e-5 1.225672,0.14926 1.614637,0.44775 0.388954,0.29551 0.583434,0.74023 0.583439,1.33423 -5e-6,0.29247 -0.09348,0.5548 -0.280413,0.78696 -0.186946,0.22916 -0.432685,0.39952 -0.737215,0.51108 0.398002,0.0845 0.710074,0.27891 0.936218,0.58344 0.22915,0.30454 0.343727,0.65882 0.343732,1.06286 -5e-6,0.60303 -0.195992,1.06436 -0.587962,1.38397 -0.388964,0.31659 -0.918131,0.47489 -1.5875,0.47489 l -2.433261,0 m 0.890989,-3.08906 0,2.39255 1.542272,0 c 0.404033,0 0.71912,-0.0995 0.945263,-0.2985 0.226135,-0.20202 0.339205,-0.48695 0.339209,-0.85481 -4e-6,-0.38594 -0.09498,-0.68897 -0.284936,-0.90908 -0.186945,-0.2201 -0.476404,-0.33015 -0.868375,-0.33016 l -1.673433,0 m 0,-0.69651 1.44277,0 c 0.331668,10e-6 0.601528,-0.0905 0.80958,-0.27137 0.208045,-0.18392 0.312069,-0.4387 0.312073,-0.76435 -4e-6,-0.35579 -0.113074,-0.62113 -0.339209,-0.79602 -0.223129,-0.17788 -0.545754,-0.26683 -0.967878,-0.26684 l -1.257336,0 0,2.09858"
         style="font-size:11.28888987999999927px;font-style:normal;font-variant:normal;font-weight:normal;font-stretch:normal;line-height:125%;letter-spacing:-0.88900029999999985px;word-spacing:0px;fill:#2c3e50;fill-opacity:1;stroke:none;font-family:Roboto;-inkscape-font-specification:Roboto"
         id="path3031"
         inkscape:connector-curvature="0" />
    </g>
    <g
       transform="matrix(0.18014123,0,0,0.18014123,-58.262983,280.15349)"
       id="layer1-6"
       inkscape:label="Capa 1"
       style="fill:#ecf0f1;fill-opacity:1">
      <g
         id="g3846"
         transform="translate(1.0044006,-0.23302185)"
         style="fill:#ecf0f1;fill-opacity:1">
        <path
           inkscape:connector-curvature="0"
           id="path4151"
           d="m 157.47319,704.55451 c -0.37196,0 -0.74413,0.0292 -1.11007,0.10779 l -0.58667,1.41966 0,0.0225 c -0.21288,0.0876 -0.42131,0.17516 -0.61924,0.28856 -0.19672,0.11228 -0.38106,0.24589 -0.55833,0.38759 l -0.018,0 -1.52849,-0.20435 c -0.48705,0.56275 -0.86948,1.21106 -1.11488,1.91034 l 0.94545,1.22362 0.0157,0 c -0.0653,0.44755 -0.0633,0.907 0.002,1.35477 l -0.0202,0 -0.94605,1.22498 c 0.12036,0.34964 0.27241,0.68828 0.45826,1.0112 0.18594,0.3191 0.40466,0.62046 0.64878,0.89936 l 1.53693,-0.20435 0.0202,0 c 0.35705,0.2816 0.75385,0.51222 1.17699,0.68131 l 0,0.0225 0.5903,1.42596 c 0.73103,0.13923 1.4865,0.13473 2.21767,0 l 0.5879,-1.42079 0,-0.0225 c 0.21153,-0.0876 0.41882,-0.17516 0.61561,-0.28766 0.19783,-0.11228 0.3837,-0.24769 0.56196,-0.38916 l 0.018,0 1.5267,0.2021 c 0.48736,-0.56073 0.86929,-1.21195 1.11487,-1.91191 l -0.94423,-1.21958 -0.0157,0 c 0.0656,-0.44935 0.0635,-0.90678 -0.002,-1.35432 l 0.0202,0 0.94484,-1.22386 c -0.12014,-0.34986 -0.27118,-0.68895 -0.45705,-1.01007 -0.18594,-0.3209 -0.40574,-0.62158 -0.64999,-0.90049 l -1.53572,0.20435 -0.0202,0 c -0.35692,-0.28115 -0.75403,-0.51244 -1.17699,-0.68131 l -5.9e-4,-0.0225 -0.58909,-1.42438 c -0.3659,-0.0786 -0.73748,-0.1033 -1.10944,-0.1033 z m -6e-4,2.4486 c 0.88911,0 1.77318,0.36446 2.40219,0.99143 0.62902,0.62675 0.99548,1.50613 0.99548,2.39112 0,0.88589 -0.36646,1.76639 -0.99548,2.39179 -0.62901,0.62765 -1.51308,0.99099 -2.40219,0.99099 -0.8891,0 -1.77216,-0.36379 -2.40039,-0.99144 -0.6282,-0.62562 -0.99365,-1.50567 -0.99365,-2.39134 0,-0.88499 0.36545,-1.76437 0.99365,-2.39112 0.62823,-0.62697 1.51129,-0.99143 2.40039,-0.99143 z"
           style="fill:#ecf0f1;fill-opacity:1;fill-rule:evenodd;stroke:none" />
        <path
           style="fill:#ecf0f1;fill-opacity:1;fill-rule:evenodd;stroke:none"
           d="m 167.13164,692.72861 c -0.53135,0 -1.06302,0.0483 -1.58584,0.15315 l -0.83813,2.0267 0,0.0283 c -0.30398,0.11789 -0.60191,0.25083 -0.88465,0.41265 -0.28113,0.16146 -0.54438,0.35117 -0.79766,0.5532 l -0.0267,-0.0135 -2.18364,-0.29096 c -0.69582,0.80078 -1.24216,1.72848 -1.59272,2.72813 l 1.35067,1.74679 0.0224,0.0112 c -0.0934,0.64037 -0.0905,1.29394 0.005,1.93633 l -0.0276,0.0135 -1.35123,1.75105 c 0.17179,0.49974 0.38919,0.98371 0.65466,1.44091 0.2655,0.45878 0.57813,0.88904 0.92688,1.28741 l 2.1957,-0.2926 0.0274,-0.0225 c 0.51009,0.40286 1.07694,0.73184 1.68144,0.97234 l 0,0.0247 0.84331,2.03698 c 1.04438,0.19762 2.12367,0.19088 3.16823,0 l 0.83985,-2.02845 0,-0.027 c 0.30208,-0.11677 0.59837,-0.24993 0.87949,-0.41027 0.28277,-0.16393 0.54818,-0.35413 0.80283,-0.55691 l 0.0267,0.0225 2.18106,0.2908 c 0.69625,-0.80325 1.24189,-1.73001 1.59274,-2.7304 l -1.34895,-1.74371 -0.0225,-0.0135 c 0.0936,-0.64007 0.0909,-1.29538 -0.004,-1.93544 l 0.0274,-0.0135 1.34981,-1.74748 c -0.17179,-0.49989 -0.38743,-0.98474 -0.65293,-1.44192 -0.26552,-0.45878 -0.57966,-0.88798 -0.9286,-1.28619 l -2.19398,0.29163 -0.0276,0.0157 c -0.50988,-0.4023 -1.07721,-0.73215 -1.68146,-0.97174 l -7.9e-4,-0.0243 -0.84158,-2.03436 c -0.52274,-0.0988 -1.05362,-0.14709 -1.58497,-0.14551 z m -7.9e-4,3.4971 c 1.27018,0 2.53318,0.52057 3.43182,1.41563 0.89862,0.89471 1.42216,2.15034 1.42216,3.41531 0,1.26497 -0.52354,2.5217 -1.42216,3.41641 -0.89864,0.89497 -2.16164,1.41482 -3.43182,1.4146 -1.27018,0 -2.53173,-0.52053 -3.42923,-1.41534 -0.89748,-0.89473 -1.41958,-2.15086 -1.41958,-3.41567 0,-1.26479 0.5221,-2.5206 1.41958,-3.41531 0.8975,-0.89506 2.15905,-1.41554 3.42923,-1.41563 z"
           id="path4112"
           inkscape:connector-curvature="0" />
      </g>
    </g>
    <path
       style="font-size:medium;font-style:normal;font-variant:normal;font-weight:normal;font-stretch:normal;text-indent:0;text-align:start;text-decoration:none;line-height:normal;letter-spacing:normal;word-spacing:normal;text-transform:none;direction:ltr;block-progression:tb;writing-mode:lr-tb;text-anchor:start;baseline-shift:baseline;color:#000000;fill:#ecf0f1;fill-opacity:1;stroke:none;stroke-width:0.68899350999999998;marker:none;visibility:visible;display:inline;overflow:visible;enable-background:accumulate;font-family:Sans;-inkscape-font-specification:Sans"
       d="m -37,398.96875 0,0.34375 0,10.59375 0,0.34375 0.34375,0 10.625,0 0.34375,0 0,-0.34375 0,-10.59375 0,-0.34375 -0.34375,0 -10.625,0 -0.34375,0 z m 0.6875,0.6875 9.9375,0 0,9.90625 -9.9375,0 0,-9.90625 z"
       id="rect3014"
       inkscape:connector-curvature="0" />
  </g>
</svg>
