<?xml version="1.0" encoding="UTF-8" standalone="no"?>
<!-- Created with Inkscape (http://www.inkscape.org/) -->

<svg
   xmlns:dc="http://purl.org/dc/elements/1.1/"
   xmlns:cc="http://creativecommons.org/ns#"
   xmlns:rdf="http://www.w3.org/1999/02/22-rdf-syntax-ns#"
   xmlns:svg="http://www.w3.org/2000/svg"
   xmlns="http://www.w3.org/2000/svg"
   xmlns:sodipodi="http://sodipodi.sourceforge.net/DTD/sodipodi-0.dtd"
   xmlns:inkscape="http://www.inkscape.org/namespaces/inkscape"
   width="64"
   height="64"
   viewBox="0 0 64 64.000003"
   id="svg2"
   version="1.1"
   inkscape:version="0.91+devel r"
   sodipodi:docname="iceweasel.svg">
  <defs
     id="defs4" />
  <sodipodi:namedview
     id="base"
     pagecolor="#ffffff"
     bordercolor="#666666"
     borderopacity="1.0"
     inkscape:pageopacity="0.0"
     inkscape:pageshadow="2"
     inkscape:zoom="2.8284271"
     inkscape:cx="-20.11036"
     inkscape:cy="73.987813"
     inkscape:document-units="px"
     inkscape:current-layer="layer1"
     showgrid="true"
     units="px"
     inkscape:showpageshadow="false"
     borderlayer="true"
     inkscape:window-width="1366"
     inkscape:window-height="670"
     inkscape:window-x="-4"
     inkscape:window-y="29"
     inkscape:window-maximized="1"
     showguides="true">
    <inkscape:grid
       type="xygrid"
       id="grid4136" />
    <sodipodi:guide
       position="5,59.000069"
       orientation="54,0"
       id="guide4142" />
    <sodipodi:guide
       position="5,5.0000688"
       orientation="0,54"
       id="guide4144" />
    <sodipodi:guide
       position="59,5.0000688"
       orientation="-54,0"
       id="guide4146" />
    <sodipodi:guide
       position="59,59.000069"
       orientation="0,-54"
       id="guide4148" />
    <sodipodi:guide
       position="0,64.000069"
       orientation="64,0"
       id="guide4150" />
    <sodipodi:guide
       position="0,6.875e-05"
       orientation="0,64"
       id="guide4152" />
    <sodipodi:guide
       position="64,6.875e-05"
       orientation="-64,0"
       id="guide4154" />
    <sodipodi:guide
       position="64,64.000069"
       orientation="0,-64"
       id="guide4156" />
    <sodipodi:guide
       position="13,50.999947"
       orientation="38,0"
       id="guide4155" />
    <sodipodi:guide
       position="13,12.999947"
       orientation="0,38"
       id="guide4157" />
    <sodipodi:guide
       position="51,12.999947"
       orientation="-38,0"
       id="guide4159" />
    <sodipodi:guide
       position="51,50.999947"
       orientation="0,-38"
       id="guide4161" />
    <sodipodi:guide
       position="17,46.999949"
       orientation="30,0"
       id="guide4151" />
    <sodipodi:guide
       position="105,16.999947"
       orientation="0,30"
       id="guide4153" />
    <sodipodi:guide
       position="47,16.999947"
       orientation="-30,0"
       id="guide4158" />
    <sodipodi:guide
       position="49,46.999949"
       orientation="0,-30"
       id="guide4160" />
  </sodipodi:namedview>
  <metadata
     id="metadata7">
    <rdf:RDF>
      <cc:Work
         rdf:about="">
        <dc:format>image/svg+xml</dc:format>
        <dc:type
           rdf:resource="http://purl.org/dc/dcmitype/StillImage" />
        <dc:title />
      </cc:Work>
    </rdf:RDF>
  </metadata>
  <g
     inkscape:label="Capa 1"
     inkscape:groupmode="layer"
     id="layer1"
     transform="translate(0,-1058.5196)">
    <circle
       cy="1090.5197"
       cx="32"
       id="path4141"
       style="display:inline;opacity:1;fill:#4172d3;fill-opacity:1;fill-rule:evenodd;stroke:none;stroke-width:3.64957857;stroke-linecap:round;stroke-linejoin:round;stroke-miterlimit:4;stroke-dasharray:none;stroke-opacity:1"
       r="26" />
    <path
       id="rect4157-2"
       d="m 32,1067.5196 c -10.525999,0 -19,8.474 -19,19 0,10.526 8.474001,19 19,19 6.564673,0 12.329662,-3.2978 15.740235,-8.332 a 2.5000001,2.5000001 0 0 0 1.259766,-2.168 2.5000001,2.5000001 0 0 0 0,-0.025 c 1.269247,-2.5512 2,-5.4214 2,-8.4746 0,-10.526 -8.474,-19 -19.000001,-19 z m 0,2 c 9.418001,0 17.000001,7.582 17.000001,17 0,2.2493 -0.443775,4.388 -1.230469,6.3496 a 2.5000001,2.5000001 0 0 0 -1.269531,-0.3496 2.5000001,2.5000001 0 0 0 -1.068359,0.2422 15.5,15.5 0 0 0 -4.875,-6.7949 15.5,15.5 0 0 0 -3.033203,-6.0586 3.5000001,3.5000001 0 0 0 1.976562,0.6113 3.5000001,3.5000001 0 0 0 3.5,-3.5 3.5000001,3.5000001 0 0 0 -0.02734,-0.4121 17.5,17.5 0 0 1 0.06055,0 15.5,15.5 0 0 0 -0.0625,-0.012 3.5000001,3.5000001 0 0 0 -3.47071,-3.0782 3.5000001,3.5000001 0 0 0 -3.478516,3.1211 15.5,15.5 0 0 0 -0.453125,0.1 15.5,15.5 0 0 0 -1.076171,0.3457 15.5,15.5 0 0 0 -4.947267,-2.3457 15.5,15.5 0 0 0 -5.572266,-0.4297 1.5,1.5 0 0 0 0.02734,-0.291 1.5,1.5 0 0 0 -1.499999,-1.5 1.5,1.5 0 0 0 -0.171875,0.012 c 2.743067,-1.8942 6.070704,-3.0101 9.671878,-3.0101 z m -10.884765,3.9258 a 1.5,1.5 0 0 0 -0.115234,0.5742 1.5,1.5 0 0 0 1.5,1.5 1.5,1.5 0 0 0 1.36914,-0.8926 17.5,17.5 0 0 1 3.486328,0.5606 17.5,17.5 0 0 1 5.482422,2.5761 15.5,15.5 0 0 0 -6.146485,5.3614 15.5,15.5 0 0 0 -4.117186,1.8476 1.5,1.5 0 0 0 -1.074219,-0.4531 1.5,1.5 0 0 0 -1.5,1.5 1.5,1.5 0 0 0 1.5,1.5 1.5,1.5 0 0 0 1.499999,-1.5 1.5,1.5 0 0 0 -0.142577,-0.6348 17.5,17.5 0 0 1 2.330077,-0.8281 17.5,17.5 0 0 1 0.744141,-0.168 15.5,15.5 0 0 0 -1.683594,9.4688 2.5000001,2.5000001 0 0 0 -1.248047,2.1621 2.5000001,2.5000001 0 0 0 2.5,2.5 2.5000001,2.5000001 0 0 0 2.5,-2.5 2.5000001,2.5000001 0 0 0 -2.5,-2.5 2.5000001,2.5000001 0 0 0 -0.697266,0.1016 17.5,17.5 0 0 1 3.166016,-9.5586 17.5,17.5 0 0 1 11.57422,2.9414 17.5,17.5 0 0 1 0.748047,5.5312 1.5,1.5 0 0 0 -1.291016,1.4844 1.5,1.5 0 0 0 1.5,1.5 1.5,1.5 0 0 0 1.5,-1.5 1.5,1.5 0 0 0 -1.232422,-1.4746 15.5,15.5 0 0 0 0.175781,-4.4824 17.5,17.5 0 0 1 4.066407,4.9511 2.5000001,2.5000001 0 0 0 -1.009766,2.0059 2.5000001,2.5000001 0 0 0 1.25,2.1621 c -3.110978,3.8668 -7.878445,6.3379 -13.250001,6.3379 -9.417999,0 -17,-7.582 -17,-17 0,-5.2691 2.37497,-9.9607 6.115235,-13.0742 z m 14.964844,4.3008 a 3.5000001,3.5000001 0 0 0 0.365234,0.9746 15.5,15.5 0 0 0 -0.849609,-0.7735 17.5,17.5 0 0 1 0.484375,-0.2011 z m -2.04297,0.9394 a 17.5,17.5 0 0 1 4.609376,5.961 15.5,15.5 0 0 0 -9.595704,-1.9747 17.5,17.5 0 0 1 4.986328,-3.9863 z"
       style="fill:#254e9f;fill-opacity:1;stroke:none"
       inkscape:connector-curvature="0" />
    <path
       style="fill:#d8ebfe;fill-opacity:1;stroke:none;stroke-width:1.34996307"
       d="m 32,1063.5196 0,0.019 c -0.33033,0 -0.658385,0.046 -0.988281,0.057 5.03873,1.2922 6.552478,2.9188 7.447265,5.5996 0.952513,1.8042 2.991496,2.4409 6.69336,2.5215 1.503497,0.031 2.675238,1.7086 3.535156,3.1875 -2.446103,-2.536 -7.798235,-0.7854 -10.990234,-2.0254 13.594704,4.3396 12.108511,16.5608 7.859375,23.8359 -0.266691,-1.3218 -1.407327,-0.7786 -1.214844,-3.7871 -1.542473,7.0583 -13.691637,9.7585 -17.5,3.9551 0.138954,-0.039 0.277078,-0.082 0.414062,-0.1289 l 0.01953,-0.018 c 0.03521,-0.016 0.07039,-0.025 0.105468,-0.033 0.07597,-0.028 0.151355,-0.055 0.226563,-0.084 0.169924,-0.071 0.336202,-0.14 0.501953,-0.2168 0.05115,-0.024 0.103564,-0.048 0.154297,-0.072 0.06362,-0.031 0.126516,-0.062 0.189453,-0.1 0.155179,-0.079 0.308367,-0.1612 0.458984,-0.248 0.07263,-0.045 0.145288,-0.083 0.216797,-0.127 0.0513,-0.032 0.101748,-0.067 0.152344,-0.1035 0.147731,-0.091 0.2933,-0.1924 0.435547,-0.2949 0.05764,-0.044 0.113291,-0.082 0.169922,-0.125 0.05686,-0.047 0.114151,-0.088 0.169922,-0.1367 0.119193,-0.095 0.235117,-0.1937 0.349609,-0.2949 0.07398,-0.061 0.146796,-0.1284 0.21875,-0.1934 0.05601,-0.055 0.111278,-0.11 0.166016,-0.166 0.08694,-0.085 0.172321,-0.1743 0.255859,-0.2637 0.08439,-0.086 0.167141,-0.1753 0.248047,-0.2656 l 0.0078,-0.012 c 0.03915,-0.05 0.07908,-0.1017 0.117188,-0.1485 l 0.01563,-0.017 c 0.07371,-0.087 0.146396,-0.1797 0.216797,-0.2715 0.07749,-0.1 0.152946,-0.198 0.226562,-0.2989 l 0.0078,-0.017 c 0.01204,-0.022 0.02495,-0.038 0.03711,-0.059 0.03655,-0.054 0.07193,-0.1086 0.107422,-0.1641 0.05303,-0.079 0.105569,-0.1564 0.15625,-0.2363 0.07948,-0.1259 0.155077,-0.2539 0.228516,-0.3828 l 0.0039,0 c 0.14322,-0.2576 0.274021,-0.5215 0.392578,-0.791 l 0.002,0 0.0078,-0.024 c 0.311162,-0.7153 0.533554,-1.4665 0.660156,-2.2363 0.0037,-0.024 0.0093,-0.046 0.01367,-0.064 0.07425,-0.4507 0.114807,-0.9065 0.123047,-1.3632 -0.77982,0.1127 -1.541819,0.3229 -2.269532,0.625 -0.356519,0.4138 -0.749393,0.7945 -1.171875,1.1406 -0.15263,0.126 -0.30856,0.2458 -0.46875,0.3613 -0.09882,0.075 -0.199208,0.1437 -0.300781,0.2129 -0.155288,0.1039 -0.313555,0.2001 -0.474609,0.293 -0.11637,0.066 -0.234327,0.1368 -0.353516,0.2011 -0.196019,0.1048 -0.394764,0.2024 -0.597656,0.293 -0.04374,0.022 -0.08867,0.037 -0.132813,0.059 -1.164136,0.4963 -2.413387,0.7525 -3.677734,0.7559 -0.542953,0 -1.084813,-0.053 -1.619141,-0.1485 -1.351652,-3.9 -0.002,-6.6011 2.582032,-8.2402 2.390432,-0.9004 5.65847,-2.9923 6.599609,-7.9277 -0.717658,-0.4713 -1.434649,-0.979 -2.039063,-1.4727 -3.049567,1.4543 -5.96619,1.1996 -6.78125,-0.3027 -0.405752,-0.7479 -0.313414,-1.6252 0.08203,-3.0235 0.534815,-1.2377 1.143388,-2.4198 1.904297,-3.5429 -2.901,-0.6886 -6.901188,-0.6894 -8.824219,4.0859 -2.076969,-0.7753 -2.076547,-0.7762 -4.060547,-0.7402 -0.115952,-4.0363 -3.0154001,-4.0348 -3.5664062,-4.4141 -1.374924,2.99 -2.0915094,6.2405 -2.0996094,9.5312 0.0027,1.5746 0.1694956,3.1448 0.4941406,4.6856 -1.23975,3.1368 -1.840659,6.5454 -1.84375,10.1641 0,14.9112 12.088408,26.998 27,26.998 0.710324,0 1.418427,-0.048 2.125,-0.1055 0.100014,-0.016 0.200841,-5e-4 0.300781,-0.019 0.139292,-0.016 0.27348,-0.046 0.41211,-0.057 0.47019,-0.053 0.937483,-0.1183 1.404297,-0.1954 13.006604,-2.0633 22.751845,-13.2763 22.757812,-26.625 -5.8e-4,-10.3032 -4.097678,-20.5438 -12.974609,-24.2832 -2.629983,-0.6761 -3.678914,-1.0806 -5.138672,-2.7011 0.55949,1.9786 0.652262,2.0326 2.484375,3.0898 3.375276,0.087 3.779866,1.0727 4.007812,3.1074 0.298685,0.4743 0.160826,0.2819 0.429688,0.7754 -4.786781,-3.8341 -9.675385,-6.9838 -15.808594,-6.9863 z"
       id="path4207" />
    <path
       style="fill:#000000;fill-opacity:1;stroke:none;stroke-width:1.34996307"
       d="m 29.693359,15.558594 c 0.604652,0.49399 1.322904,1.001139 2.041016,1.472656 C 32.000001,16 31.000001,15 29.693359,15.558594 Z"
       transform="translate(0,1058.5196)"
       id="path4679"
       inkscape:connector-curvature="0"
       sodipodi:nodetypes="ccc" />
  </g>
</svg>
