<?xml version="1.0" encoding="UTF-8" standalone="no"?>
<!-- Created with Inkscape (http://www.inkscape.org/) -->

<svg
   xmlns:dc="http://purl.org/dc/elements/1.1/"
   xmlns:cc="http://creativecommons.org/ns#"
   xmlns:rdf="http://www.w3.org/1999/02/22-rdf-syntax-ns#"
   xmlns:svg="http://www.w3.org/2000/svg"
   xmlns="http://www.w3.org/2000/svg"
   xmlns:sodipodi="http://sodipodi.sourceforge.net/DTD/sodipodi-0.dtd"
   xmlns:inkscape="http://www.inkscape.org/namespaces/inkscape"
   width="64"
   height="64"
   viewBox="0 0 64 64.000003"
   id="svg2"
   version="1.1"
   inkscape:version="0.91+devel r"
   sodipodi:docname="java.svg">
  <defs
     id="defs4" />
  <sodipodi:namedview
     id="base"
     pagecolor="#ffffff"
     bordercolor="#666666"
     borderopacity="1.0"
     inkscape:pageopacity="0.0"
     inkscape:pageshadow="2"
     inkscape:zoom="8"
     inkscape:cx="52.509977"
     inkscape:cy="29.907032"
     inkscape:document-units="px"
     inkscape:current-layer="layer1"
     showgrid="true"
     units="px"
     inkscape:showpageshadow="false"
     borderlayer="true"
     inkscape:window-width="1366"
     inkscape:window-height="670"
     inkscape:window-x="-4"
     inkscape:window-y="29"
     inkscape:window-maximized="1"
     showguides="true"
     inkscape:guide-bbox="true">
    <inkscape:grid
       type="xygrid"
       id="grid4136"
       empspacing="2" />
    <sodipodi:guide
       position="32,4.9999469"
       orientation="-27,0"
       id="guide4192" />
    <sodipodi:guide
       position="32,31.999948"
       orientation="0,-27"
       id="guide4194" />
    <sodipodi:guide
       position="5.0000024,59.000072"
       orientation="54,0"
       id="guide4160" />
    <sodipodi:guide
       position="5.0000024,5.000069"
       orientation="0,53.999998"
       id="guide4162" />
    <sodipodi:guide
       position="59,5.000069"
       orientation="-54,0"
       id="guide4164" />
    <sodipodi:guide
       position="59,59.000072"
       orientation="0,-53.999998"
       id="guide4166" />
  </sodipodi:namedview>
  <metadata
     id="metadata7">
    <rdf:RDF>
      <cc:Work
         rdf:about="">
        <dc:format>image/svg+xml</dc:format>
        <dc:type
           rdf:resource="http://purl.org/dc/dcmitype/StillImage" />
        <dc:title />
      </cc:Work>
    </rdf:RDF>
  </metadata>
  <g
     inkscape:label="Capa 1"
     inkscape:groupmode="layer"
     id="layer1"
     transform="translate(0,-1058.5196)">
    <path
       style="opacity:1;fill:#dddddd;fill-opacity:1;stroke:none;stroke-width:1;stroke-linecap:round;stroke-linejoin:miter;stroke-miterlimit:4;stroke-dasharray:none;stroke-opacity:0.29943501"
       d="m 20,1065.5196 c -2,0 -3,3 -4,5 l 1,0 14.5,0 1,0 14.5,0 1,0 c -1,-2 -2.000076,-5.0174 -4,-5 l -11.5,0 -1,0 z"
       id="rect4198"
       inkscape:connector-curvature="0"
       sodipodi:nodetypes="sccccccsccs" />
    <path
       style="opacity:1;fill:#cccccc;fill-opacity:1;stroke:none;stroke-width:1;stroke-linecap:round;stroke-linejoin:miter;stroke-miterlimit:4;stroke-dasharray:none;stroke-opacity:0.29943501"
       d="m 33,1063.5196 c -0.06157,0.07 -1,0 -1,1 l 0,1 1,0 3,0 3,0 1,0 0,-1 c 0,-1 -0.938435,-0.9297 -1,-1 l -3,0 -3,0 z"
       id="rect4196"
       inkscape:connector-curvature="0" />
    <path
       style="opacity:1;fill:#d7d7d7;fill-opacity:1;stroke:none;stroke-width:1;stroke-linecap:round;stroke-linejoin:miter;stroke-miterlimit:4;stroke-dasharray:none;stroke-opacity:0.29943501"
       d="m 15,11 c -0.55397,0 -1,0.44603 -1,1 l 36,0 c 0,-0.55397 -0.44603,-1 -1,-1 z"
       transform="translate(0,1058.5196)"
       id="rect4200"
       inkscape:connector-curvature="0"
       sodipodi:nodetypes="sccss" />
    <path
       style="fill:#74573b;fill-opacity:1;fill-rule:evenodd;stroke:none;stroke-width:1px;stroke-linecap:butt;stroke-linejoin:miter;stroke-opacity:1"
       d="M 15 15 L 21 58 A 11 1 0 0 0 32 59 A 11 1 0 0 0 43 58 L 49 15 L 32 15 L 15 15 z "
       transform="translate(0,1058.5196)"
       id="path4210" />
    <path
       style="fill:#644c34;fill-opacity:1;fill-rule:evenodd;stroke:none;stroke-width:1px;stroke-linecap:butt;stroke-linejoin:miter;stroke-opacity:1"
       d="M 15 15 L 21 58 A 11 1 0 0 0 32 59 A 11 1 0 0 0 43 58 L 49 15 L 48.861328 15 L 43 57 A 11 1 0 0 1 32 58 A 11 1 0 0 1 21 57 L 15.138672 15 L 15 15 z "
       transform="translate(0,1058.5196)"
       id="path4291" />
    <path
       style="fill:#644c34;fill-opacity:1;fill-rule:evenodd;stroke:none;stroke-width:1px;stroke-linecap:butt;stroke-linejoin:miter;stroke-opacity:1"
       d="M 16 19 L 16 19.009766 C 15.774782 19.03111 15.099609 19.159344 15.099609 20 L 19.5 53 C 19.687825 53.989 20.5 54 20.5 54 L 43.5 54 C 43.5 54 44.312175 53.989 44.5 53 L 48.900391 20 C 48.900391 19.159344 48.225218 19.03111 48 19.009766 L 48 19 L 16 19 z "
       id="path4214"
       transform="translate(0,1058.5196)" />
    <circle
       style="opacity:1;fill:#f2784b;fill-opacity:1;stroke:none;stroke-width:1;stroke-linecap:round;stroke-linejoin:miter;stroke-miterlimit:4;stroke-dasharray:none;stroke-opacity:0.29943501"
       id="path4181"
       cx="32"
       cy="1095.0197"
       r="9" />
    <path
       style="opacity:1;fill:#f9bea8;fill-opacity:1;stroke:none;stroke-width:1;stroke-linecap:round;stroke-linejoin:miter;stroke-miterlimit:4;stroke-dasharray:none;stroke-opacity:0.29943501"
       d="m 32,1087.5196 c 1.666604,3.3332 -2.5,4.0001 -2.5,5.0001 0,0.9999 1,2 3,3 -3.5,-4.0001 0.5,-3.0001 0.5,-6.0001 0,-1.0001 -1,-2 -1,-2 z m 0.5,8.0001 c 2,-2.0001 -2,-2.0001 2,-5 0,0 -3,1 -3,2 0,0.9999 1,0.9999 1,3 z m -3.792969,-0.7149 c -0.770849,0.188 -1.205994,0.4457 -1.20703,0.7149 0,0.5523 1.79086,1 3.999999,1 1.71672,-7e-4 3.240678,-0.2748 3.787109,-0.6819 -0.747437,0.181 -1.747124,0.2817 -2.787109,0.2815 -2.209139,0 -4,-0.4477 -4,-1 0.0013,-0.1075 0.07121,-0.2131 0.207031,-0.3145 z m 6.79297,0.7149 c 0.999998,0 1.999999,1 0,3 2.999999,-1 1.999999,-3 0.999998,-3 z m -6.873048,1.7148 c -0.08343,0.092 -0.126188,0.1885 -0.126953,0.2852 0,0.5523 1.343146,1 3,1 1.320212,-2e-4 2.484958,-0.288 2.869141,-0.7091 -0.631861,0.1972 -1.506036,0.3087 -2.419922,0.3087 -1.698778,-8e-4 -3.126569,-0.3811 -3.322266,-0.8848 z m 0,1 c -0.08343,0.092 -0.126188,0.1885 -0.126953,0.2852 0,0.5523 1.343146,1 3,1 1.320212,-2e-4 2.484958,-0.2879 2.869141,-0.7091 -0.631861,0.1972 -1.506036,0.3087 -2.419922,0.3087 -1.698778,-8e-4 -3.126569,-0.3811 -3.322266,-0.8848 z m -1.523437,0.8086 c -0.396346,0.1463 -0.603787,0.3101 -0.603516,0.4766 0,0.5523 2.238576,1.0001 5,1.0001 2.435523,-8e-4 4.514905,-0.3521 4.923828,-0.8323 -1.013094,0.211 -2.457774,0.3315 -3.974609,0.3322 -2.904848,-3e-4 -5.27773,-0.4337 -5.345703,-0.9766 z m 9.957031,0.3925 c -0.07812,0.809 -2.477243,1.5381 -5.431641,1.6504 -2.008698,0.075 -3.867397,-0.1549 -4.847656,-0.5996 0.739126,0.6158 2.84366,1.0323 5.21875,1.0333 3.037566,0 5.5,-0.6716 5.5,-1.5 -0.0018,-0.2009 -0.151171,-0.3993 -0.439453,-0.5841 z"
       id="path4185"
       inkscape:connector-curvature="0"
       sodipodi:nodetypes="cscscccsccccccccccsccccccccccccccccccccccccc" />
    <rect
       style="opacity:1;fill:#c6c6c6;fill-opacity:1;stroke:none;stroke-width:1;stroke-linecap:round;stroke-linejoin:miter;stroke-miterlimit:4;stroke-dasharray:none;stroke-opacity:1"
       id="rect4267"
       width="36"
       height="2"
       x="14"
       y="1070.5197"
       ry="0" />
    <path
       sodipodi:nodetypes="sccss"
       inkscape:connector-curvature="0"
       id="path4269"
       d="m 15,1073.5196 c -0.55397,0 -1,-0.446 -1,-1 l 36,0 c 0,0.554 -0.44603,1 -1,1 z"
       style="opacity:1;fill:#b5b5b5;fill-opacity:1;stroke:none;stroke-width:1;stroke-linecap:round;stroke-linejoin:miter;stroke-miterlimit:4;stroke-dasharray:none;stroke-opacity:0.29943501" />
    <rect
       style="opacity:1;fill:#cccccc;fill-opacity:1;stroke:none;stroke-width:1;stroke-linecap:round;stroke-linejoin:miter;stroke-miterlimit:4;stroke-dasharray:none;stroke-opacity:1"
       id="rect4278"
       width="21"
       height="1"
       x="21"
       y="1065.5197" />
    <path
       style="opacity:1;fill:#6b5035;fill-opacity:1;stroke:none;stroke-width:1;stroke-linecap:round;stroke-linejoin:miter;stroke-miterlimit:4;stroke-dasharray:none;stroke-opacity:1"
       d="M 15 15 L 15.138672 16 L 48.861328 16 L 49 15 L 15 15 z "
       transform="translate(0,1058.5196)"
       id="rect4296" />
    <path
       style="fill:#6c5239;fill-opacity:1;fill-rule:evenodd;stroke:none;stroke-width:1px;stroke-linecap:butt;stroke-linejoin:miter;stroke-opacity:1"
       d="M 16 19 L 16 19.009766 C 15.774782 19.03111 15.099609 19.159344 15.099609 20 L 48.900391 20 C 48.900391 19.159344 48.225218 19.03111 48 19.009766 L 48 19 L 16 19 z "
       transform="translate(0,1058.5196)"
       id="path4301" />
    <path
       style="fill:#5d4731;fill-opacity:1;fill-rule:evenodd;stroke:none;stroke-width:1px;stroke-linecap:butt;stroke-linejoin:miter;stroke-opacity:1"
       d="M 19.5 53 C 19.687825 53.989 20.5 54 20.5 54 L 43.5 54 C 43.5 54 44.312175 53.989 44.5 53 L 19.5 53 z "
       transform="translate(0,1058.5196)"
       id="path4306" />
  </g>
</svg>
