<?xml version="1.0" encoding="UTF-8" standalone="no"?>
<!-- Created with Inkscape (http://www.inkscape.org/) -->

<svg
   xmlns:dc="http://purl.org/dc/elements/1.1/"
   xmlns:cc="http://creativecommons.org/ns#"
   xmlns:rdf="http://www.w3.org/1999/02/22-rdf-syntax-ns#"
   xmlns:svg="http://www.w3.org/2000/svg"
   xmlns="http://www.w3.org/2000/svg"
   xmlns:sodipodi="http://sodipodi.sourceforge.net/DTD/sodipodi-0.dtd"
   xmlns:inkscape="http://www.inkscape.org/namespaces/inkscape"
   width="64"
   height="64"
   viewBox="0 0 64 64.000003"
   id="svg2"
   version="1.1"
   inkscape:version="0.91+devel r"
   sodipodi:docname="k3b.svg">
  <defs
     id="defs4" />
  <sodipodi:namedview
     id="base"
     pagecolor="#ffffff"
     bordercolor="#666666"
     borderopacity="1.0"
     inkscape:pageopacity="0.0"
     inkscape:pageshadow="2"
     inkscape:zoom="16"
     inkscape:cx="49.728115"
     inkscape:cy="13.861196"
     inkscape:document-units="px"
     inkscape:current-layer="layer1"
     showgrid="true"
     units="px"
     inkscape:showpageshadow="false"
     borderlayer="true"
     inkscape:window-width="1366"
     inkscape:window-height="670"
     inkscape:window-x="-4"
     inkscape:window-y="29"
     inkscape:window-maximized="1"
     showguides="true">
    <inkscape:grid
       type="xygrid"
       id="grid4136" />
    <sodipodi:guide
       position="5,59.000069"
       orientation="54,0"
       id="guide4142" />
    <sodipodi:guide
       position="5,5.0000688"
       orientation="0,54"
       id="guide4144" />
    <sodipodi:guide
       position="59,5.0000688"
       orientation="-54,0"
       id="guide4146" />
    <sodipodi:guide
       position="59,59.000069"
       orientation="0,-54"
       id="guide4148" />
    <sodipodi:guide
       position="0,64.000069"
       orientation="64,0"
       id="guide4150" />
    <sodipodi:guide
       position="0,6.875e-05"
       orientation="0,64"
       id="guide4152" />
    <sodipodi:guide
       position="64,6.875e-05"
       orientation="-64,0"
       id="guide4154" />
    <sodipodi:guide
       position="64,64.000069"
       orientation="0,-64"
       id="guide4156" />
    <sodipodi:guide
       position="13,50.999947"
       orientation="38,0"
       id="guide4155" />
    <sodipodi:guide
       position="13,12.999947"
       orientation="0,38"
       id="guide4157" />
    <sodipodi:guide
       position="51,12.999947"
       orientation="-38,0"
       id="guide4159" />
    <sodipodi:guide
       position="51,50.999947"
       orientation="0,-38"
       id="guide4161" />
  </sodipodi:namedview>
  <metadata
     id="metadata7">
    <rdf:RDF>
      <cc:Work
         rdf:about="">
        <dc:format>image/svg+xml</dc:format>
        <dc:type
           rdf:resource="http://purl.org/dc/dcmitype/StillImage" />
        <dc:title />
      </cc:Work>
    </rdf:RDF>
  </metadata>
  <g
     inkscape:label="Capa 1"
     inkscape:groupmode="layer"
     id="layer1"
     transform="translate(0,-1058.5196)">
    <path
       style="fill:#ecf0f1;fill-opacity:1;stroke:none"
       d="M 32 4.875 C 17.042 4.875 5 16.917 5 31.875 C 5 46.833 17.042 58.875 32 58.875 C 46.958 58.875 59 46.833 59 31.875 C 59 16.917 46.958 4.875 32 4.875 z M 32 29 A 3 3 0 0 1 35 32 A 3 3 0 0 1 32 35 A 3 3 0 0 1 29 32 A 3 3 0 0 1 32 29 z "
       transform="translate(0,1058.5196)"
       id="rect4158" />
    <path
       style="fill:#c6cdd0;fill-opacity:1;stroke:none;stroke-width:0.29629636"
       d="M 32 23.875 C 27.568 23.875 24 27.443 24 31.875 C 24 36.307 27.568 39.875 32 39.875 C 36.432 39.875 40 36.307 40 31.875 C 40 27.443 36.432 23.875 32 23.875 z M 32 27.875 C 34.216 27.875 36 29.659 36 31.875 C 36 34.091 34.216 35.875 32 35.875 C 29.784 35.875 28 34.091 28 31.875 C 28 29.659 29.784 27.875 32 27.875 z "
       transform="translate(0,1058.5196)"
       id="rect4156" />
    <path
       style="opacity:1;fill:#f0e7f5;fill-opacity:1;stroke:none;stroke-width:1.15584099;stroke-linecap:round;stroke-linejoin:miter;stroke-miterlimit:4;stroke-dasharray:none;stroke-opacity:0.29943501"
       d="m 38.720703,1065.4356 -4.621094,17.2461 c 2.0982,0.5661 3.849317,1.9515 4.884766,3.8047 l 15.503906,-8.9512 c -3.446088,-5.9621 -9.116748,-10.3137 -15.767578,-12.0996 z"
       id="path4236" />
    <path
       style="opacity:1;fill:#d6eaf7;fill-opacity:1;stroke:none;stroke-width:1.15584099;stroke-linecap:round;stroke-linejoin:miter;stroke-miterlimit:4;stroke-dasharray:none;stroke-opacity:0.29943501"
       d="m 56.195312,1081.0137 -16.710937,6.5664 c 0.278196,0.7433 0.448702,1.5382 0.494141,2.3692 l 17.955078,-1.2813 c -0.18874,-2.6247 -0.774845,-5.2055 -1.738282,-7.6543 z"
       id="path4234" />
    <path
       style="opacity:1;fill:#f5e7f1;fill-opacity:1;stroke:none;stroke-width:1.15584099;stroke-linecap:round;stroke-linejoin:miter;stroke-miterlimit:4;stroke-dasharray:none;stroke-opacity:0.29943501"
       d="m 24.064453,1091.3692 -17.8867186,1.918 c 0.2550617,2.4157 0.8474107,4.7838 1.7597656,7.0351 l 16.693359,-6.8007 c -0.285117,-0.6743 -0.475308,-1.3973 -0.566406,-2.1524 z"
       id="path4232" />
    <path
       style="opacity:1;fill:#f0e7f5;fill-opacity:1;stroke:none;stroke-width:1.15584099;stroke-linecap:round;stroke-linejoin:miter;stroke-miterlimit:4;stroke-dasharray:none;stroke-opacity:0.29943501"
       d="m 24.945312,1094.1778 -16.0195308,8.3066 c 2.1911578,4.2066 5.4912368,7.7336 9.5429688,10.1993 2.921943,-4.5428 6.546338,-10.5185 9.476562,-15.3946 -1.264149,-0.7426 -2.306447,-1.8156 -3,-3.1113 z"
       id="path4230" />
    <path
       style="opacity:1;fill:#d6ebf7;fill-opacity:1;stroke:none;stroke-width:1.15584099;stroke-linecap:round;stroke-linejoin:miter;stroke-miterlimit:4;stroke-dasharray:none;stroke-opacity:0.29943501"
       d="m 28.474609,1097.5723 -8.08789,16.1758 c 1.434952,0.7203 2.933541,1.3062 4.476562,1.75 l 4.972657,-17.4062 c -0.473976,-0.1321 -0.927673,-0.307 -1.361329,-0.5196 z"
       id="path4165" />
    <path
       style="fill:#ddf3ed;fill-rule:evenodd;stroke:none;stroke-width:1px;stroke-linecap:butt;stroke-linejoin:miter;stroke-opacity:1;fill-opacity:1"
       d="M 26.298828 37.482422 L 13.28125 49.998047 C 14.820676 51.593703 16.557196 53.000778 18.46875 54.164062 C 21.390693 49.621263 25.015089 43.645631 27.945312 38.769531 C 27.339686 38.413768 26.788665 37.978007 26.298828 37.482422 z "
       transform="translate(0,1058.5196)"
       id="path4238" />
    <path
       style="fill:#fce5e3;fill-rule:evenodd;stroke:none;stroke-width:1px;stroke-linecap:butt;stroke-linejoin:miter;stroke-opacity:1;fill-opacity:1"
       d="M 38.720703 6.9160156 L 34.099609 24.162109 C 34.477389 24.264035 34.838282 24.401694 35.191406 24.554688 L 42.226562 8.1367188 C 41.094229 7.6509431 39.924657 7.2393048 38.720703 6.9160156 z "
       transform="translate(0,1058.5196)"
       id="path4243" />
    <path
       style="fill:#e15b40;fill-rule:evenodd;stroke:none;stroke-width:1px;stroke-linecap:butt;stroke-linejoin:miter;stroke-opacity:1;fill-opacity:1"
       d="M 50 33 C 55.508781 37.590651 53.902504 40.940925 51.214844 44.371094 C 50.208308 41.155888 47.728839 37.910055 43 35 C 53 48 31 47 47 59 C 61 56.0001 63.856406 41 50 33 z "
       transform="translate(0,1058.5196)"
       id="path4169" />
    <path
       style="fill:#d93f10;fill-opacity:1;fill-rule:evenodd;stroke:none;stroke-width:1px;stroke-linecap:butt;stroke-linejoin:miter;stroke-opacity:1"
       d="m 46.999816,1117.5195 c 10,-4.9999 14.78609,-12.2978 7,-20.9999 4.124897,11.0689 -4,19 -7,20.9999 z"
       id="path4173"
       inkscape:connector-curvature="0"
       sodipodi:nodetypes="ccc" />
    <path
       style="fill:#e67e66;fill-opacity:1;fill-rule:evenodd;stroke:none;stroke-width:1px;stroke-linecap:butt;stroke-linejoin:miter;stroke-opacity:1"
       d="m 46.999816,1117.5195 c -9.569772,-11.9189 4,-8.9999 -1,-20.9999 10,12 0,13.0001 1,20.9999 z"
       id="path4175"
       inkscape:connector-curvature="0"
       sodipodi:nodetypes="ccc" />
  </g>
</svg>
