<?xml version="1.0" encoding="UTF-8" standalone="no"?>
<!-- Created with Inkscape (http://www.inkscape.org/) -->

<svg
   xmlns:dc="http://purl.org/dc/elements/1.1/"
   xmlns:cc="http://creativecommons.org/ns#"
   xmlns:rdf="http://www.w3.org/1999/02/22-rdf-syntax-ns#"
   xmlns:svg="http://www.w3.org/2000/svg"
   xmlns="http://www.w3.org/2000/svg"
   xmlns:sodipodi="http://sodipodi.sourceforge.net/DTD/sodipodi-0.dtd"
   xmlns:inkscape="http://www.inkscape.org/namespaces/inkscape"
   width="64"
   height="64"
   viewBox="0 0 64 64.000003"
   id="svg2"
   version="1.1"
   inkscape:version="0.91+devel r"
   sodipodi:docname="kdenlive.svg">
  <defs
     id="defs4" />
  <sodipodi:namedview
     id="base"
     pagecolor="#ffffff"
     bordercolor="#666666"
     borderopacity="1.0"
     inkscape:pageopacity="0.0"
     inkscape:pageshadow="2"
     inkscape:zoom="8"
     inkscape:cx="34.040064"
     inkscape:cy="29.711852"
     inkscape:document-units="px"
     inkscape:current-layer="layer1"
     showgrid="true"
     units="px"
     inkscape:showpageshadow="false"
     borderlayer="true"
     inkscape:window-width="2560"
     inkscape:window-height="957"
     inkscape:window-x="-4"
     inkscape:window-y="29"
     inkscape:window-maximized="1"
     showguides="true">
    <inkscape:grid
       type="xygrid"
       id="grid4136"
       empspacing="2" />
    <sodipodi:guide
       position="5,59.000069"
       orientation="54,0"
       id="guide4142" />
    <sodipodi:guide
       position="5,5.0000688"
       orientation="0,54"
       id="guide4144" />
    <sodipodi:guide
       position="59,5.0000688"
       orientation="-54,0"
       id="guide4146" />
    <sodipodi:guide
       position="59,59.000069"
       orientation="0,-54"
       id="guide4148" />
    <sodipodi:guide
       position="0,64.000069"
       orientation="64,0"
       id="guide4150" />
    <sodipodi:guide
       position="0,6.875e-05"
       orientation="0,64"
       id="guide4152" />
    <sodipodi:guide
       position="64,6.875e-05"
       orientation="-64,0"
       id="guide4154" />
    <sodipodi:guide
       position="64,64.000069"
       orientation="0,-64"
       id="guide4156" />
    <sodipodi:guide
       position="14,50.000071"
       orientation="36,0"
       id="guide4192" />
    <sodipodi:guide
       position="14,14.000069"
       orientation="0,36"
       id="guide4194" />
    <sodipodi:guide
       position="50,14.000069"
       orientation="-36,0"
       id="guide4196" />
    <sodipodi:guide
       position="50,50.000071"
       orientation="0,-36"
       id="guide4198" />
  </sodipodi:namedview>
  <metadata
     id="metadata7">
    <rdf:RDF>
      <cc:Work
         rdf:about="">
        <dc:format>image/svg+xml</dc:format>
        <dc:type
           rdf:resource="http://purl.org/dc/dcmitype/StillImage" />
        <dc:title />
      </cc:Work>
    </rdf:RDF>
  </metadata>
  <g
     inkscape:label="Capa 1"
     inkscape:groupmode="layer"
     id="layer1"
     transform="translate(0,-1058.5196)">
    <rect
       style="opacity:1;fill:#1d1a1b;fill-opacity:1;stroke:none;stroke-width:8;stroke-linecap:round;stroke-linejoin:round;stroke-miterlimit:4;stroke-dasharray:none;stroke-opacity:1"
       id="rect4166"
       width="64"
       height="53.999947"
       x="0"
       y="1063.5197"
       ry="0.99994665" />
    <path
       style="opacity:1;fill:#3f3835;fill-opacity:1;stroke:none;stroke-width:8;stroke-linecap:round;stroke-linejoin:round;stroke-miterlimit:4;stroke-dasharray:none;stroke-opacity:1"
       d="M 0 11 L 0 58 C 0 58.55397 0.44602955 59 1 59 L 16 59 L 16 11 L 0 11 z "
       transform="translate(0,1058.5196)"
       id="rect4213" />
    <path
       style="opacity:1;fill:#3f3835;fill-opacity:1;stroke:none;stroke-width:8;stroke-linecap:round;stroke-linejoin:round;stroke-miterlimit:4;stroke-dasharray:none;stroke-opacity:1"
       d="M 1 5 C 0.44602955 5 0 5.4460296 0 6 L 0 12 L 64 12 L 64 6 C 64 5.4460296 63.55397 5 63 5 L 1 5 z "
       transform="translate(0,1058.5196)"
       id="rect4179" />
    <rect
       style="opacity:1;fill:#2f2d2b;fill-opacity:1;stroke:none;stroke-width:8;stroke-linecap:round;stroke-linejoin:round;stroke-miterlimit:4;stroke-dasharray:none;stroke-opacity:1"
       id="rect4181"
       width="64"
       height="5"
       x="0"
       y="1064.5197" />
    <rect
       style="opacity:1;fill:#1d1a1b;fill-opacity:1;stroke:none;stroke-width:8;stroke-linecap:round;stroke-linejoin:round;stroke-miterlimit:4;stroke-dasharray:none;stroke-opacity:1"
       id="rect4215"
       width="14"
       height="5.9999466"
       x="1"
       y="1072.5197" />
    <rect
       style="opacity:1;fill:#ecf0f1;fill-opacity:1;stroke:none;stroke-width:8;stroke-linecap:round;stroke-linejoin:round;stroke-miterlimit:4;stroke-dasharray:none;stroke-opacity:1"
       id="rect4217"
       width="12"
       height="0.99993014"
       x="2"
       y="1073.5197" />
    <rect
       style="opacity:1;fill:#ecf0f1;fill-opacity:1;stroke:none;stroke-width:8;stroke-linecap:round;stroke-linejoin:round;stroke-miterlimit:4;stroke-dasharray:none;stroke-opacity:1"
       id="rect4219"
       width="4"
       height="1"
       x="2"
       y="1076.5197" />
    <rect
       y="1079.5199"
       x="1"
       height="5.9999466"
       width="14"
       id="rect4233"
       style="opacity:1;fill:#1d1a1b;fill-opacity:1;stroke:none;stroke-width:8;stroke-linecap:round;stroke-linejoin:round;stroke-miterlimit:4;stroke-dasharray:none;stroke-opacity:1" />
    <rect
       y="1080.5199"
       x="2"
       height="0.99970251"
       width="2"
       id="rect4235"
       style="opacity:1;fill:#ecf0f1;fill-opacity:1;stroke:none;stroke-width:8;stroke-linecap:round;stroke-linejoin:round;stroke-miterlimit:4;stroke-dasharray:none;stroke-opacity:1" />
    <rect
       y="1083.5199"
       x="2"
       height="1"
       width="4"
       id="rect4237"
       style="opacity:1;fill:#ecf0f1;fill-opacity:1;stroke:none;stroke-width:8;stroke-linecap:round;stroke-linejoin:round;stroke-miterlimit:4;stroke-dasharray:none;stroke-opacity:1" />
    <rect
       y="1086.5197"
       x="1"
       height="5.9999466"
       width="14"
       id="rect4239"
       style="opacity:1;fill:#1d1a1b;fill-opacity:1;stroke:none;stroke-width:8;stroke-linecap:round;stroke-linejoin:round;stroke-miterlimit:4;stroke-dasharray:none;stroke-opacity:1" />
    <rect
       y="1087.5197"
       x="2"
       height="0.99994665"
       width="7"
       id="rect4241"
       style="opacity:1;fill:#ecf0f1;fill-opacity:1;stroke:none;stroke-width:8;stroke-linecap:round;stroke-linejoin:round;stroke-miterlimit:4;stroke-dasharray:none;stroke-opacity:1" />
    <rect
       y="1090.5197"
       x="2"
       height="1"
       width="4"
       id="rect4243"
       style="opacity:1;fill:#ecf0f1;fill-opacity:1;stroke:none;stroke-width:8;stroke-linecap:round;stroke-linejoin:round;stroke-miterlimit:4;stroke-dasharray:none;stroke-opacity:1" />
    <rect
       style="opacity:1;fill:#1d1a1b;fill-opacity:1;stroke:none;stroke-width:8;stroke-linecap:round;stroke-linejoin:round;stroke-miterlimit:4;stroke-dasharray:none;stroke-opacity:1"
       id="rect4245"
       width="14"
       height="5.9999466"
       x="1"
       y="1093.5199" />
    <rect
       style="opacity:1;fill:#ecf0f1;fill-opacity:1;stroke:none;stroke-width:8;stroke-linecap:round;stroke-linejoin:round;stroke-miterlimit:4;stroke-dasharray:none;stroke-opacity:1"
       id="rect4247"
       width="9"
       height="0.99970251"
       x="2"
       y="1094.5199" />
    <rect
       style="opacity:1;fill:#ecf0f1;fill-opacity:1;stroke:none;stroke-width:8;stroke-linecap:round;stroke-linejoin:round;stroke-miterlimit:4;stroke-dasharray:none;stroke-opacity:1"
       id="rect4249"
       width="4"
       height="1"
       x="2"
       y="1097.5199" />
    <path
       style="opacity:1;fill:#abb7b7;fill-opacity:1;stroke:none;stroke-width:8;stroke-linecap:round;stroke-linejoin:round;stroke-miterlimit:4;stroke-dasharray:none;stroke-opacity:1"
       d="M 17 14 L 17 20 L 44 20 L 44 14 L 17 14 z M 18 15 L 19 15 L 19 16 L 18 16 L 18 15 z M 42 15 L 43 15 L 43 16 L 42 16 L 42 15 z M 18 18 L 19 18 L 19 19 L 18 19 L 18 18 z M 42 18 L 43 18 L 43 19 L 42 19 L 42 18 z "
       transform="translate(0,1058.5196)"
       id="rect4251" />
    <path
       style="opacity:1;fill:#6c7a89;fill-opacity:1;stroke:none;stroke-width:8;stroke-linecap:round;stroke-linejoin:round;stroke-miterlimit:4;stroke-dasharray:none;stroke-opacity:1"
       d="M 17 21 L 17 27 L 50 27 L 50 21 L 17 21 z M 18 22 L 19 22 L 19 23 L 18 23 L 18 22 z M 48 22 L 49 22 L 49 23 L 48 23 L 48 22 z M 18 25 L 19 25 L 19 26 L 18 26 L 18 25 z M 48 25 L 49 25 L 49 26 L 48 26 L 48 25 z "
       transform="translate(0,1058.5196)"
       id="rect4253" />
    <path
       style="opacity:1;fill:#bfbfbf;fill-opacity:1;stroke:none;stroke-width:8;stroke-linecap:round;stroke-linejoin:round;stroke-miterlimit:4;stroke-dasharray:none;stroke-opacity:1"
       d="M 44 28 L 44 34 L 59 34 L 59 28 L 44 28 z M 45 29 L 46 29 L 46 30 L 45 30 L 45 29 z M 57 29 L 58 29 L 58 30 L 57 30 L 57 29 z M 45 32 L 46 32 L 46 33 L 45 33 L 45 32 z M 57 32 L 58 32 L 58 33 L 57 33 L 57 32 z "
       transform="translate(0,1058.5196)"
       id="rect4257" />
    <path
       style="opacity:1;fill:#1f4788;fill-opacity:1;stroke:none;stroke-width:8;stroke-linecap:round;stroke-linejoin:round;stroke-miterlimit:4;stroke-dasharray:none;stroke-opacity:1"
       d="M 59 35 L 59 41 L 64 41 L 64 35 L 59 35 z M 60 36 L 61 36 L 61 37 L 60 37 L 60 36 z M 60 39 L 61 39 L 61 40 L 60 40 L 60 39 z "
       transform="translate(0,1058.5196)"
       id="rect4259" />
    <path
       inkscape:connector-curvature="0"
       style="opacity:1;fill:#ecf0f1;fill-opacity:1;stroke:none;stroke-width:1;stroke-linecap:round;stroke-linejoin:miter;stroke-miterlimit:4;stroke-dasharray:none;stroke-opacity:0.29943501"
       d="m 55,1108.5196 -2,2 -1,0 0,2 1,0 2,2 1,0 0,-5 0,-1 -1,0 z"
       id="rect4245-6" />
    <path
       style="opacity:1;fill:#ecf0f1;fill-opacity:1;stroke:none;stroke-width:1;stroke-linecap:round;stroke-linejoin:miter;stroke-miterlimit:4;stroke-dasharray:none;stroke-opacity:0.29943501"
       d="m 57,1109.2891 0,2.2305 0,2.2324 c 0.635355,-0.5683 0.998963,-1.38 1,-2.2324 -0.0016,-0.8517 -0.365152,-1.6626 -1,-2.2305 z"
       id="path4254"
       inkscape:connector-curvature="0"
       sodipodi:nodetypes="ccccc" />
    <rect
       style="opacity:1;fill:#998c86;fill-opacity:1;stroke:none;stroke-width:5.65685415;stroke-linecap:round;stroke-linejoin:round;stroke-miterlimit:4;stroke-dasharray:none;stroke-opacity:1"
       id="rect4353"
       width="1"
       height="1"
       x="17.000004"
       y="1068.5197" />
    <rect
       style="opacity:1;fill:#998c86;fill-opacity:1;stroke:none;stroke-width:8;stroke-linecap:round;stroke-linejoin:round;stroke-miterlimit:4;stroke-dasharray:none;stroke-opacity:1"
       id="rect4355"
       width="1"
       height="2.0000534"
       x="19"
       y="1067.5197" />
    <rect
       style="opacity:1;fill:#998c86;fill-opacity:1;stroke:none;stroke-width:5.65685415;stroke-linecap:round;stroke-linejoin:round;stroke-miterlimit:4;stroke-dasharray:none;stroke-opacity:1"
       id="rect4353-0"
       width="1"
       height="1"
       x="21.000004"
       y="1068.5197" />
    <rect
       y="1068.5197"
       x="23.000004"
       height="1"
       width="1"
       id="rect4400"
       style="opacity:1;fill:#998c86;fill-opacity:1;stroke:none;stroke-width:5.65685415;stroke-linecap:round;stroke-linejoin:round;stroke-miterlimit:4;stroke-dasharray:none;stroke-opacity:1" />
    <rect
       y="1067.5197"
       x="25"
       height="2.0000534"
       width="1"
       id="rect4402"
       style="opacity:1;fill:#998c86;fill-opacity:1;stroke:none;stroke-width:8;stroke-linecap:round;stroke-linejoin:round;stroke-miterlimit:4;stroke-dasharray:none;stroke-opacity:1" />
    <rect
       y="1068.5197"
       x="27.000004"
       height="1"
       width="1"
       id="rect4404"
       style="opacity:1;fill:#998c86;fill-opacity:1;stroke:none;stroke-width:5.65685415;stroke-linecap:round;stroke-linejoin:round;stroke-miterlimit:4;stroke-dasharray:none;stroke-opacity:1" />
    <rect
       y="1068.5197"
       x="29.000004"
       height="1"
       width="1"
       id="rect4406"
       style="opacity:1;fill:#998c86;fill-opacity:1;stroke:none;stroke-width:5.65685415;stroke-linecap:round;stroke-linejoin:round;stroke-miterlimit:4;stroke-dasharray:none;stroke-opacity:1" />
    <rect
       y="1067.5197"
       x="31"
       height="2.0000534"
       width="1"
       id="rect4408"
       style="opacity:1;fill:#998c86;fill-opacity:1;stroke:none;stroke-width:8;stroke-linecap:round;stroke-linejoin:round;stroke-miterlimit:4;stroke-dasharray:none;stroke-opacity:1" />
    <rect
       y="1068.5197"
       x="33.000004"
       height="1"
       width="1"
       id="rect4410"
       style="opacity:1;fill:#998c86;fill-opacity:1;stroke:none;stroke-width:5.65685415;stroke-linecap:round;stroke-linejoin:round;stroke-miterlimit:4;stroke-dasharray:none;stroke-opacity:1" />
    <rect
       style="opacity:1;fill:#998c86;fill-opacity:1;stroke:none;stroke-width:5.65685415;stroke-linecap:round;stroke-linejoin:round;stroke-miterlimit:4;stroke-dasharray:none;stroke-opacity:1"
       id="rect4412"
       width="1"
       height="1"
       x="35.000004"
       y="1068.5197" />
    <rect
       style="opacity:1;fill:#998c86;fill-opacity:1;stroke:none;stroke-width:8;stroke-linecap:round;stroke-linejoin:round;stroke-miterlimit:4;stroke-dasharray:none;stroke-opacity:1"
       id="rect4414"
       width="1"
       height="2.0000534"
       x="37"
       y="1067.5197" />
    <rect
       style="opacity:1;fill:#998c86;fill-opacity:1;stroke:none;stroke-width:5.65685415;stroke-linecap:round;stroke-linejoin:round;stroke-miterlimit:4;stroke-dasharray:none;stroke-opacity:1"
       id="rect4416"
       width="1"
       height="1"
       x="39.000004"
       y="1068.5197" />
    <rect
       y="1068.5197"
       x="41.000004"
       height="1"
       width="1"
       id="rect4418"
       style="opacity:1;fill:#998c86;fill-opacity:1;stroke:none;stroke-width:5.65685415;stroke-linecap:round;stroke-linejoin:round;stroke-miterlimit:4;stroke-dasharray:none;stroke-opacity:1" />
    <rect
       y="1067.5197"
       x="43"
       height="2.0000534"
       width="1"
       id="rect4420"
       style="opacity:1;fill:#998c86;fill-opacity:1;stroke:none;stroke-width:8;stroke-linecap:round;stroke-linejoin:round;stroke-miterlimit:4;stroke-dasharray:none;stroke-opacity:1" />
    <rect
       y="1068.5197"
       x="45.000004"
       height="1"
       width="1"
       id="rect4422"
       style="opacity:1;fill:#998c86;fill-opacity:1;stroke:none;stroke-width:5.65685415;stroke-linecap:round;stroke-linejoin:round;stroke-miterlimit:4;stroke-dasharray:none;stroke-opacity:1" />
    <rect
       style="opacity:1;fill:#998c86;fill-opacity:1;stroke:none;stroke-width:5.65685415;stroke-linecap:round;stroke-linejoin:round;stroke-miterlimit:4;stroke-dasharray:none;stroke-opacity:1"
       id="rect4424"
       width="1"
       height="1"
       x="47.000004"
       y="1068.5197" />
    <rect
       style="opacity:1;fill:#998c86;fill-opacity:1;stroke:none;stroke-width:8;stroke-linecap:round;stroke-linejoin:round;stroke-miterlimit:4;stroke-dasharray:none;stroke-opacity:1"
       id="rect4426"
       width="1"
       height="2.0000534"
       x="49"
       y="1067.5197" />
    <rect
       style="opacity:1;fill:#998c86;fill-opacity:1;stroke:none;stroke-width:5.65685415;stroke-linecap:round;stroke-linejoin:round;stroke-miterlimit:4;stroke-dasharray:none;stroke-opacity:1"
       id="rect4428"
       width="1"
       height="1"
       x="51.000004"
       y="1068.5197" />
    <rect
       style="opacity:1;fill:#998c86;fill-opacity:1;stroke:none;stroke-width:5.65685415;stroke-linecap:round;stroke-linejoin:round;stroke-miterlimit:4;stroke-dasharray:none;stroke-opacity:1"
       id="rect4430"
       width="1"
       height="1"
       x="53.000004"
       y="1068.5197" />
    <rect
       style="opacity:1;fill:#998c86;fill-opacity:1;stroke:none;stroke-width:8;stroke-linecap:round;stroke-linejoin:round;stroke-miterlimit:4;stroke-dasharray:none;stroke-opacity:1"
       id="rect4432"
       width="1"
       height="2.0000534"
       x="55"
       y="1067.5197" />
    <rect
       style="opacity:1;fill:#998c86;fill-opacity:1;stroke:none;stroke-width:5.65685415;stroke-linecap:round;stroke-linejoin:round;stroke-miterlimit:4;stroke-dasharray:none;stroke-opacity:1"
       id="rect4434"
       width="1"
       height="1"
       x="57.000004"
       y="1068.5197" />
    <rect
       y="1068.5197"
       x="59.000004"
       height="1"
       width="1"
       id="rect4436"
       style="opacity:1;fill:#998c86;fill-opacity:1;stroke:none;stroke-width:5.65685415;stroke-linecap:round;stroke-linejoin:round;stroke-miterlimit:4;stroke-dasharray:none;stroke-opacity:1" />
    <rect
       y="1067.5197"
       x="61"
       height="2.0000534"
       width="1"
       id="rect4438"
       style="opacity:1;fill:#998c86;fill-opacity:1;stroke:none;stroke-width:8;stroke-linecap:round;stroke-linejoin:round;stroke-miterlimit:4;stroke-dasharray:none;stroke-opacity:1" />
    <rect
       y="1068.5197"
       x="63"
       height="1"
       width="1"
       id="rect4440"
       style="opacity:1;fill:#998c86;fill-opacity:1;stroke:none;stroke-width:5.65685415;stroke-linecap:round;stroke-linejoin:round;stroke-miterlimit:4;stroke-dasharray:none;stroke-opacity:1" />
    <path
       style="opacity:1;fill:#fbcb05;fill-opacity:1;stroke:none;stroke-width:1;stroke-linecap:round;stroke-linejoin:miter;stroke-miterlimit:4;stroke-dasharray:none;stroke-opacity:0.29943501"
       d="m 44,1065.5196 c -1.104569,0 -2,0.8954 -2,2 0,1.1046 2,4 2,4 0,0 2,-2.8954 2,-4 0,-1.1046 -0.895431,-2 -2,-2 z m 0,1 a 1,1 0 0 1 1,1 1,1 0 0 1 -1,1 1,1 0 0 1 -1,-1 1,1 0 0 1 1,-1 z"
       id="path4199"
       inkscape:connector-curvature="0" />
    <path
       style="opacity:1;fill:#161415;fill-opacity:1;stroke:none;stroke-width:0.1;stroke-linecap:square;stroke-linejoin:miter;stroke-miterlimit:4;stroke-dasharray:none;stroke-dashoffset:0;stroke-opacity:1"
       d="m 16,58 0,1 47,0 c 0.55397,0 1,-0.44603 1,-1 z"
       transform="translate(0,1058.5196)"
       id="rect4204"
       inkscape:connector-curvature="0"
       sodipodi:nodetypes="ccscc" />
    <path
       style="opacity:1;fill:#2f2a27;fill-opacity:1;stroke:none;stroke-width:0.1;stroke-linecap:square;stroke-linejoin:miter;stroke-miterlimit:4;stroke-dasharray:none;stroke-dashoffset:0;stroke-opacity:1"
       d="M 0 58 C 0 58.55397 0.44602955 59 1 59 L 16 59 L 16 58 L 0 58 z "
       transform="translate(0,1058.5196)"
       id="path4211" />
  </g>
</svg>
