<?xml version="1.0" encoding="UTF-8" standalone="no"?>
<!-- Created with Inkscape (http://www.inkscape.org/) -->

<svg
   xmlns:dc="http://purl.org/dc/elements/1.1/"
   xmlns:cc="http://creativecommons.org/ns#"
   xmlns:rdf="http://www.w3.org/1999/02/22-rdf-syntax-ns#"
   xmlns:svg="http://www.w3.org/2000/svg"
   xmlns="http://www.w3.org/2000/svg"
   xmlns:sodipodi="http://sodipodi.sourceforge.net/DTD/sodipodi-0.dtd"
   xmlns:inkscape="http://www.inkscape.org/namespaces/inkscape"
   width="64"
   height="64"
   viewBox="0 0 64 64.000003"
   id="svg2"
   version="1.1"
   inkscape:version="0.91+devel r"
   sodipodi:docname="kid3-qt.svg">
  <defs
     id="defs4" />
  <sodipodi:namedview
     id="base"
     pagecolor="#ffffff"
     bordercolor="#666666"
     borderopacity="1.0"
     inkscape:pageopacity="0.0"
     inkscape:pageshadow="2"
     inkscape:zoom="11.313708"
     inkscape:cx="22.022482"
     inkscape:cy="30.394231"
     inkscape:document-units="px"
     inkscape:current-layer="layer1"
     showgrid="true"
     units="px"
     inkscape:showpageshadow="false"
     borderlayer="true"
     inkscape:window-width="2560"
     inkscape:window-height="957"
     inkscape:window-x="-4"
     inkscape:window-y="29"
     inkscape:window-maximized="1">
    <inkscape:grid
       type="xygrid"
       id="grid4136" />
    <sodipodi:guide
       position="5,59.000069"
       orientation="54,0"
       id="guide4142" />
    <sodipodi:guide
       position="5,5.0000688"
       orientation="0,54"
       id="guide4144" />
    <sodipodi:guide
       position="59,5.0000688"
       orientation="-54,0"
       id="guide4146" />
    <sodipodi:guide
       position="59,59.000069"
       orientation="0,-54"
       id="guide4148" />
    <sodipodi:guide
       position="0,64.000069"
       orientation="64,0"
       id="guide4150" />
    <sodipodi:guide
       position="0,6.875e-05"
       orientation="0,64"
       id="guide4152" />
    <sodipodi:guide
       position="64,6.875e-05"
       orientation="-64,0"
       id="guide4154" />
    <sodipodi:guide
       position="64,64.000069"
       orientation="0,-64"
       id="guide4156" />
  </sodipodi:namedview>
  <metadata
     id="metadata7">
    <rdf:RDF>
      <cc:Work
         rdf:about="">
        <dc:format>image/svg+xml</dc:format>
        <dc:type
           rdf:resource="http://purl.org/dc/dcmitype/StillImage" />
        <dc:title />
      </cc:Work>
    </rdf:RDF>
  </metadata>
  <g
     inkscape:label="Capa 1"
     inkscape:groupmode="layer"
     id="layer1"
     transform="translate(0,-1058.5196)">
    <path
       inkscape:connector-curvature="0"
       style="opacity:1;fill:#26a65b;fill-opacity:1;stroke:none;stroke-width:0.1;stroke-linecap:square;stroke-linejoin:miter;stroke-miterlimit:4;stroke-dasharray:none;stroke-dashoffset:0;stroke-opacity:1"
       d="m 11,1063.5196 c -0.55397,0 -1,0.446 -1,1 l 0,52 c 0,0.554 0.44603,1 1,1 l 29,0 14,-14 0,-39 c 0,-0.554 -0.44603,-1 -1,-1 l -42,0 z"
       id="rect4153" />
    <path
       inkscape:connector-curvature="0"
       style="opacity:1;fill:#22904f;fill-opacity:1;stroke:none;stroke-width:0.1;stroke-linecap:square;stroke-linejoin:miter;stroke-miterlimit:4;stroke-dasharray:none;stroke-dashoffset:0;stroke-opacity:1"
       d="m 10,1116.5196 c 0,0.554 0.44603,1 1,1 l 29,0 1,-1 -31,0 z"
       id="rect4154" />
    <path
       style="opacity:1;fill:#34d075;fill-opacity:1;stroke:none;stroke-width:0.1;stroke-linecap:square;stroke-linejoin:miter;stroke-miterlimit:4;stroke-dasharray:none;stroke-dashoffset:0;stroke-opacity:1"
       d="m 41,1103.4312 c -0.553971,0 -1,0.446 -1,1 l 0,7 0,5 0,1 14,-14 -1,0 -4,0 -8,0 z"
       id="rect4155"
       inkscape:connector-curvature="0" />
    <path
       inkscape:connector-curvature="0"
       id="path4157"
       d="m 7.0000002,1089.3786 15.4548068,4.1411 5.694053,-21.2504 -6.174496,-5.8661 -9.280311,1.725 z m 11.2307558,-18.7315 c 0.285845,-1.067 1.382531,-1.7002 2.44949,-1.4143 1.066957,0.2859 1.70015,1.3825 1.414263,2.4495 -0.285845,1.067 -1.382531,1.7002 -2.449489,1.4143 -1.066958,-0.2859 -1.700151,-1.3825 -1.414264,-2.4495 z"
       style="fill:#beb59c;fill-opacity:1;fill-rule:evenodd;stroke:none;stroke-width:1px;stroke-linecap:butt;stroke-linejoin:miter;stroke-opacity:1"
       inkscape:transform-center-y="7.7967503"
       inkscape:transform-center-x="2.5881906"
       sodipodi:nodetypes="ccccccccccc" />
    <path
       id="rect4221-4"
       d="m 32,1081.5196 0,1 0,2 0,1 0,8.7754 c -0.530877,-0.4772 -1.226703,-0.7754 -2,-0.7754 -1.662,0 -3,1.338 -3,3 0,1.662 1.338,3 3,3 1.662,0 3,-1.338 3,-3 l 0,-11 11,0 0,8.7754 c -0.530877,-0.4772 -1.226703,-0.7754 -2,-0.7754 -1.662,0 -3,1.338 -3,3 0,1.662 1.338,3 3,3 1.662,0 3,-1.338 3,-3 l 0,-15 -1,0 -12,0 z"
       style="color:#000000;text-decoration:none;text-decoration-line:none;text-decoration-style:solid;text-decoration-color:#000000;clip-rule:nonzero;display:inline;overflow:visible;visibility:visible;opacity:1;isolation:auto;mix-blend-mode:normal;color-interpolation:sRGB;color-interpolation-filters:linearRGB;solid-color:#000000;solid-opacity:1;fill:#a9ebc4;fill-opacity:1;fill-rule:nonzero;stroke:none;stroke-width:1;stroke-linecap:butt;stroke-linejoin:miter;stroke-miterlimit:4;stroke-dasharray:none;stroke-dashoffset:0;stroke-opacity:1;color-rendering:auto;image-rendering:auto;shape-rendering:auto;text-rendering:auto;enable-background:accumulate"
       inkscape:connector-curvature="0" />
    <path
       style="fill:#e5e2d8;fill-opacity:1;fill-rule:evenodd;stroke:none;stroke-width:1px;stroke-linecap:butt;stroke-linejoin:miter;stroke-opacity:1"
       d="m 11.999606,1091.5196 15.999994,0 3.5e-5,-22 -8.000004,-6 -7.99999,6 -3.5e-5,22 z m 6.000001,-21 a 2,2 0 0 1 2,-2 2,2 0 0 1 2.000052,2 2,2 0 0 1 -2,2 2,2 0 0 1 -2.000052,-2 z"
       id="path4154"
       inkscape:connector-curvature="0" />
    <rect
       style="opacity:1;fill:#9c845d;fill-opacity:1;stroke:none"
       id="rect4248"
       width="2"
       height="7.0000677"
       x="18.999603"
       y="1063.5195"
       ry="1" />
    <rect
       style="opacity:1;fill:#a69a78;fill-opacity:1;stroke:none"
       id="rect4261"
       width="1.0000002"
       height="13.999948"
       x="14.999603"
       y="1075.5197"
       ry="0" />
    <rect
       style="opacity:1;fill:#a69a78;fill-opacity:1;stroke:none"
       id="rect4263"
       width="1.0000004"
       height="5.9999475"
       x="17.999603"
       y="1083.5197" />
  </g>
</svg>
