<?xml version="1.0" encoding="UTF-8" standalone="no"?>
<!-- Created with Inkscape (http://www.inkscape.org/) -->

<svg
   xmlns:dc="http://purl.org/dc/elements/1.1/"
   xmlns:cc="http://creativecommons.org/ns#"
   xmlns:rdf="http://www.w3.org/1999/02/22-rdf-syntax-ns#"
   xmlns:svg="http://www.w3.org/2000/svg"
   xmlns="http://www.w3.org/2000/svg"
   xmlns:sodipodi="http://sodipodi.sourceforge.net/DTD/sodipodi-0.dtd"
   xmlns:inkscape="http://www.inkscape.org/namespaces/inkscape"
   width="64"
   height="64"
   viewBox="0 0 64 64.000003"
   id="svg2"
   version="1.1"
   inkscape:version="0.91+devel r"
   sodipodi:docname="klipper.svg">
  <defs
     id="defs4" />
  <sodipodi:namedview
     id="base"
     pagecolor="#ffffff"
     bordercolor="#666666"
     borderopacity="1.0"
     inkscape:pageopacity="0.0"
     inkscape:pageshadow="2"
     inkscape:zoom="5.590563"
     inkscape:cx="36.614578"
     inkscape:cy="33.054317"
     inkscape:document-units="px"
     inkscape:current-layer="layer1"
     showgrid="true"
     units="px"
     inkscape:showpageshadow="false"
     borderlayer="true"
     inkscape:window-width="1366"
     inkscape:window-height="670"
     inkscape:window-x="-4"
     inkscape:window-y="29"
     inkscape:window-maximized="1">
    <inkscape:grid
       type="xygrid"
       id="grid4136" />
    <sodipodi:guide
       position="5,59.000069"
       orientation="54,0"
       id="guide4142" />
    <sodipodi:guide
       position="5,5.0000688"
       orientation="0,54"
       id="guide4144" />
    <sodipodi:guide
       position="59,5.0000688"
       orientation="-54,0"
       id="guide4146" />
    <sodipodi:guide
       position="59,59.000069"
       orientation="0,-54"
       id="guide4148" />
    <sodipodi:guide
       position="0,64.000069"
       orientation="64,0"
       id="guide4150" />
    <sodipodi:guide
       position="0,6.875e-05"
       orientation="0,64"
       id="guide4152" />
    <sodipodi:guide
       position="64,6.875e-05"
       orientation="-64,0"
       id="guide4154" />
    <sodipodi:guide
       position="64,64.000069"
       orientation="0,-64"
       id="guide4156" />
    <sodipodi:guide
       position="10,35"
       orientation="38,0"
       id="guide4155" />
    <sodipodi:guide
       position="54,37"
       orientation="-38,0"
       id="guide4159" />
    <sodipodi:guide
       position="38,50.999947"
       orientation="0,-38"
       id="guide4161" />
  </sodipodi:namedview>
  <metadata
     id="metadata7">
    <rdf:RDF>
      <cc:Work
         rdf:about="">
        <dc:format>image/svg+xml</dc:format>
        <dc:type
           rdf:resource="http://purl.org/dc/dcmitype/StillImage" />
        <dc:title />
      </cc:Work>
    </rdf:RDF>
  </metadata>
  <g
     inkscape:label="Capa 1"
     inkscape:groupmode="layer"
     id="layer1"
     transform="translate(0,-1058.5196)">
    <rect
       style="fill:#e9b578;fill-opacity:1;stroke:none"
       id="rect4148"
       width="42.000004"
       height="48.999931"
       x="11.000001"
       y="1068.5197" />
    <rect
       style="opacity:1;fill:#f7f6f6;fill-opacity:1;stroke:none;stroke-opacity:1"
       id="rect4177"
       width="38"
       height="42.999825"
       x="13"
       y="1070.5198" />
    <path
       style="fill:#bdc3c7;fill-opacity:1;stroke:none"
       d="M 32 5 A 2 2.0000689 0 0 0 30 7 L 26 9 L 26 13 L 38 13 L 38 9 L 34 7 A 2 2.0000689 0 0 0 32 5 z M 32 6 A 1 1 0 0 1 33 7 A 1 1 0 0 1 32 8 A 1 1 0 0 1 31 7 A 1 1 0 0 1 32 6 z "
       id="rect4149"
       transform="translate(0,1058.5196)" />
    <rect
       style="opacity:1;fill:#54595a;fill-opacity:1;stroke:none;stroke-opacity:1"
       id="rect4179"
       width="38"
       height="1"
       x="13"
       y="1114.5197" />
    <rect
       style="opacity:1;fill:#878c8d;fill-opacity:1;stroke:none;stroke-opacity:1"
       id="rect4181"
       width="38"
       height="1"
       x="13"
       y="1113.5197" />
    <path
       style="opacity:1;fill:#dddddd;fill-opacity:1;stroke:none;stroke-opacity:1"
       d="M 18 19 L 18 27 L 26 27 L 26 19 L 18 19 z M 20 21 L 24 21 L 24 25 L 20 25 L 20 21 z "
       id="rect4251"
       transform="translate(0,1058.5196)" />
    <rect
       style="opacity:1;fill:#dddddd;fill-opacity:1;stroke:none;stroke-opacity:1"
       id="rect4262"
       width="16"
       height="1"
       x="30"
       y="1077.5197" />
    <rect
       y="1079.5197"
       x="30"
       height="1"
       width="16"
       id="rect4264"
       style="opacity:1;fill:#dddddd;fill-opacity:1;stroke:none;stroke-opacity:1" />
    <rect
       style="opacity:1;fill:#dddddd;fill-opacity:1;stroke:none;stroke-opacity:1"
       id="rect4266"
       width="4"
       height="1"
       x="30"
       y="1084.5197" />
    <path
       id="path4268"
       d="m 18,1089.5196 0,8 8,0 0,-8 -8,0 z m 2,2 4,0 0,4 -4,0 0,-4 z"
       style="opacity:1;fill:#46bea4;fill-opacity:1;stroke:none;stroke-opacity:1"
       inkscape:connector-curvature="0" />
    <rect
       y="1089.5197"
       x="30"
       height="1"
       width="16"
       id="rect4270"
       style="opacity:1;fill:#dddddd;fill-opacity:1;stroke:none;stroke-opacity:1" />
    <rect
       style="opacity:1;fill:#dddddd;fill-opacity:1;stroke:none;stroke-opacity:1"
       id="rect4272"
       width="16"
       height="1"
       x="30"
       y="1091.5197" />
    <rect
       y="1096.5197"
       x="30"
       height="1"
       width="4"
       id="rect4274"
       style="opacity:1;fill:#dddddd;fill-opacity:1;stroke:none;stroke-opacity:1" />
    <path
       inkscape:connector-curvature="0"
       style="opacity:1;fill:#dddddd;fill-opacity:1;stroke:none;stroke-opacity:1"
       d="m 18,1101.5196 0,8 8,0 0,-8 -8,0 z m 2,2 4,0 0,4 -4,0 0,-4 z"
       id="path4276" />
    <rect
       style="opacity:1;fill:#dddddd;fill-opacity:1;stroke:none;stroke-opacity:1"
       id="rect4278"
       width="16"
       height="1"
       x="30"
       y="1101.5197" />
    <rect
       y="1103.5197"
       x="30"
       height="1"
       width="16"
       id="rect4280"
       style="opacity:1;fill:#dddddd;fill-opacity:1;stroke:none;stroke-opacity:1" />
    <rect
       style="opacity:1;fill:#dddddd;fill-opacity:1;stroke:none;stroke-opacity:1"
       id="rect4282"
       width="4"
       height="1"
       x="30"
       y="1108.5197" />
    <path
       style="fill:#10523c;fill-rule:evenodd;stroke:none;stroke-width:1px;stroke-linecap:butt;stroke-linejoin:miter;stroke-opacity:1;fill-opacity:1"
       d="m 21,1092.5196 1,-1 2,2 4,-4 1,1 -5,5 z"
       id="path4284"
       inkscape:connector-curvature="0" />
  </g>
</svg>
