<?xml version="1.0" encoding="UTF-8" standalone="no"?>
<!-- Created with Inkscape (http://www.inkscape.org/) -->

<svg
   xmlns:dc="http://purl.org/dc/elements/1.1/"
   xmlns:cc="http://creativecommons.org/ns#"
   xmlns:rdf="http://www.w3.org/1999/02/22-rdf-syntax-ns#"
   xmlns:svg="http://www.w3.org/2000/svg"
   xmlns="http://www.w3.org/2000/svg"
   xmlns:sodipodi="http://sodipodi.sourceforge.net/DTD/sodipodi-0.dtd"
   xmlns:inkscape="http://www.inkscape.org/namespaces/inkscape"
   width="48"
   height="48"
   id="svg4230"
   version="1.1"
   inkscape:version="0.49 r12742"
   sodipodi:docname="kmymoney.svg">
  <defs
     id="defs4232" />
  <sodipodi:namedview
     id="base"
     pagecolor="#ffffff"
     bordercolor="#666666"
     borderopacity="1.0"
     inkscape:pageopacity="0.0"
     inkscape:pageshadow="2"
     inkscape:zoom="10.463802"
     inkscape:cx="18.779919"
     inkscape:cy="20.356536"
     inkscape:document-units="px"
     inkscape:current-layer="layer1"
     showgrid="false"
     inkscape:showpageshadow="false"
     borderlayer="true"
     inkscape:window-width="1366"
     inkscape:window-height="718"
     inkscape:window-x="-2"
     inkscape:window-y="23"
     inkscape:window-maximized="1">
    <sodipodi:guide
       position="0,48.000017"
       orientation="48,0"
       id="guide4063" />
    <sodipodi:guide
       position="0,1.7382813e-05"
       orientation="0,48"
       id="guide4065" />
    <sodipodi:guide
       position="48,1.7382813e-05"
       orientation="-48,0"
       id="guide4067" />
    <sodipodi:guide
       position="48,48.000017"
       orientation="0,-48"
       id="guide4069" />
    <sodipodi:guide
       position="4,44.000017"
       orientation="40,0"
       id="guide4073" />
    <sodipodi:guide
       position="4,4.0000174"
       orientation="0,40"
       id="guide4075" />
    <sodipodi:guide
       position="44,4.0000174"
       orientation="-40,0"
       id="guide4077" />
    <sodipodi:guide
       position="44,44.000017"
       orientation="0,-40"
       id="guide4079" />
    <sodipodi:guide
       position="15,33.000017"
       orientation="18,0"
       id="guide4081" />
    <sodipodi:guide
       position="15,15.000017"
       orientation="0,18"
       id="guide4083" />
    <sodipodi:guide
       position="33,15.000017"
       orientation="-18,0"
       id="guide4085" />
    <sodipodi:guide
       position="33,33.000017"
       orientation="0,-18"
       id="guide4087" />
    <sodipodi:guide
       position="4,39.000017"
       orientation="30,0"
       id="guide4110" />
    <sodipodi:guide
       position="4,9.0000174"
       orientation="0,1"
       id="guide4112" />
    <sodipodi:guide
       position="5,9.0000174"
       orientation="-30,0"
       id="guide4114" />
    <sodipodi:guide
       position="5,39.000017"
       orientation="0,-1"
       id="guide4116" />
    <sodipodi:guide
       position="42.999985,39.000017"
       orientation="30,0"
       id="guide4118" />
    <sodipodi:guide
       position="42.999985,9.0000174"
       orientation="0,1"
       id="guide4120" />
    <sodipodi:guide
       position="43.999985,9.0000174"
       orientation="-30,0"
       id="guide4122" />
    <sodipodi:guide
       position="43.999985,39.000017"
       orientation="0,-1"
       id="guide4124" />
  </sodipodi:namedview>
  <metadata
     id="metadata4235">
    <rdf:RDF>
      <cc:Work
         rdf:about="">
        <dc:format>image/svg+xml</dc:format>
        <dc:type
           rdf:resource="http://purl.org/dc/dcmitype/StillImage" />
        <dc:title />
      </cc:Work>
    </rdf:RDF>
  </metadata>
  <g
     inkscape:label="Capa 1"
     inkscape:groupmode="layer"
     id="layer1"
     transform="translate(0,-1004.3622)">
    <rect
       style="fill:#16a085;fill-opacity:1;stroke:none"
       id="rect4100"
       width="44"
       height="40"
       x="2"
       y="1008.3622" />
    <path
       style="fill:#ecf0f1;fill-opacity:1;stroke:none"
       d="M 4 9 L 4 39 L 5 39 L 43 39 L 44 39 L 44 9 L 43 9 L 5 9 L 4 9 z M 5 10 L 43 10 L 43 38 L 5 38 L 5 10 z M 24 15 C 19.014 15 15 19.014 15 24 C 15 28.986 19.014 33 24 33 C 28.986 33 33 28.986 33 24 C 33 19.014 28.986 15 24 15 z M 24 16 C 28.432 16 32 19.568 32 24 C 32 28.432 28.432 32 24 32 C 19.568 32 16 28.432 16 24 C 16 19.568 19.568 16 24 16 z M 23.648438 19.5 L 23.648438 20.708984 C 22.100182 20.801318 21.324219 21.425918 21.324219 22.583984 C 21.324219 23.884718 22.038266 24.535156 23.464844 24.535156 L 24.408203 24.535156 C 25.142471 24.535156 25.509766 24.828616 25.509766 25.416016 C 25.509766 26.045349 24.984791 26.359375 23.931641 26.359375 C 23.138631 26.359375 22.352399 26.234155 21.576172 25.982422 L 21.576172 26.990234 C 22.260091 27.174434 22.951932 27.277495 23.648438 27.298828 L 23.648438 28.5 L 24.748047 28.5 L 24.748047 27.253906 C 26.031967 27.081906 26.675781 26.469149 26.675781 25.416016 C 26.675781 24.115282 25.918696 23.464844 24.408203 23.464844 L 23.464844 23.464844 C 22.772534 23.464844 22.425781 23.171384 22.425781 22.583984 C 22.425781 21.954651 22.976867 21.640625 24.076172 21.640625 C 24.864985 21.640625 25.647601 21.765845 26.423828 22.017578 L 26.423828 21.009766 C 25.869979 20.858832 25.310286 20.762703 24.748047 20.720703 L 24.748047 19.5 L 23.648438 19.5 z "
       transform="translate(0,1004.3622)"
       id="rect4102" />
  </g>
</svg>
