<?xml version="1.0" encoding="UTF-8" standalone="no"?>
<!-- Created using Karbon, part of Calligra: http://www.calligra.org/karbon -->

<svg
   xmlns:dc="http://purl.org/dc/elements/1.1/"
   xmlns:cc="http://creativecommons.org/ns#"
   xmlns:rdf="http://www.w3.org/1999/02/22-rdf-syntax-ns#"
   xmlns:svg="http://www.w3.org/2000/svg"
   xmlns="http://www.w3.org/2000/svg"
   xmlns:sodipodi="http://sodipodi.sourceforge.net/DTD/sodipodi-0.dtd"
   xmlns:inkscape="http://www.inkscape.org/namespaces/inkscape"
   width="38.4pt"
   height="38.4pt"
   id="svg2"
   version="1.1"
   inkscape:version="0.49 r12742"
   sodipodi:docname="kruler.svg">
  <metadata
     id="metadata31">
    <rdf:RDF>
      <cc:Work
         rdf:about="">
        <dc:format>image/svg+xml</dc:format>
        <dc:type
           rdf:resource="http://purl.org/dc/dcmitype/StillImage" />
        <dc:title></dc:title>
      </cc:Work>
    </rdf:RDF>
  </metadata>
  <sodipodi:namedview
     pagecolor="#ffffff"
     bordercolor="#666666"
     borderopacity="1"
     objecttolerance="10"
     gridtolerance="10"
     guidetolerance="10"
     inkscape:pageopacity="0"
     inkscape:pageshadow="2"
     inkscape:window-width="1366"
     inkscape:window-height="718"
     id="namedview29"
     showgrid="false"
     inkscape:zoom="6.9532164"
     inkscape:cx="22.215893"
     inkscape:cy="28.535314"
     inkscape:window-x="-2"
     inkscape:window-y="23"
     inkscape:window-maximized="1"
     inkscape:current-layer="svg2"
     inkscape:showpageshadow="false"
     borderlayer="true">
    <sodipodi:guide
       position="9.5367432e-07,48.000001"
       orientation="47.999999,0"
       id="guide4064" />
    <sodipodi:guide
       position="9.5367432e-07,1.9073486e-06"
       orientation="0,47.999999"
       id="guide4066" />
    <sodipodi:guide
       position="48,1.9073486e-06"
       orientation="-47.999999,0"
       id="guide4068" />
    <sodipodi:guide
       position="48,48.000001"
       orientation="0,-47.999999"
       id="guide4070" />
    <sodipodi:guide
       position="4.000001,44.000001"
       orientation="39.999999,0"
       id="guide4072" />
    <sodipodi:guide
       position="4.000001,4.0000019"
       orientation="0,39.999999"
       id="guide4074" />
    <sodipodi:guide
       position="44,4.0000019"
       orientation="-39.999999,0"
       id="guide4076" />
    <sodipodi:guide
       position="44,44.000001"
       orientation="0,-39.999999"
       id="guide4078" />
    <sodipodi:guide
       position="15.000001,15.000002"
       orientation="0,17.999999"
       id="guide4082" />
    <sodipodi:guide
       position="33,15.000002"
       orientation="-17.999999,0"
       id="guide4084" />
    <sodipodi:guide
       position="33,33.000001"
       orientation="0,-17.999999"
       id="guide4086" />
    <sodipodi:guide
       position="37,44.000001"
       orientation="11,0"
       id="guide4094" />
    <sodipodi:guide
       position="37,33.000001"
       orientation="0,11"
       id="guide4096" />
    <sodipodi:guide
       position="48,33.000001"
       orientation="-11,0"
       id="guide4098" />
    <sodipodi:guide
       position="48,44.000001"
       orientation="0,-11"
       id="guide4100" />
    <inkscape:grid
       type="xygrid"
       id="grid4107" />
  </sodipodi:namedview>
  <defs
     id="defs4" />
  <path
     style="fill:#3498db;fill-opacity:1;stroke:none"
     d="m 2.000001,4 0,40 44,0 0,-29 L 35.916668,4 2.000001,4 Z"
     id="rect4088"
     inkscape:connector-curvature="0" />
  <path
     style="fill:#68b1e1;fill-opacity:1;fill-rule:evenodd;stroke:none"
     d="m 5.849611,4.000001 0,1.84961 -3.84961,0 0,0.300781 3.84961,0 0,5.699218 -3.84961,0 0,0.300782 3.84961,0 0,5.699218 -3.84961,0 0,0.300782 3.84961,0 0,5.699218 -3.84961,0 0,0.300782 3.84961,0 0,5.699218 -3.84961,0 0,0.300782 3.84961,0 0,5.699218 -3.84961,0 0,0.300782 3.84961,0 0,5.699218 -3.84961,0 0,0.300782 3.84961,0 0,1.849609 0.300781,0 0,-1.849609 5.699218,0 0,1.849609 0.300782,0 0,-1.849609 5.699218,0 0,1.849609 0.300782,0 0,-1.849609 5.699218,0 0,1.849609 0.300782,0 0,-1.849609 5.699218,0 0,1.849609 0.300782,0 0,-1.849609 5.699218,0 0,1.849609 0.300782,0 0,-1.849609 5.699218,0 0,1.849609 0.300782,0 0,-1.849609 3.849609,0 0,-0.300782 -3.849609,0 0,-5.699218 3.849609,0 0,-0.300782 -3.849609,0 0,-5.699218 3.849609,0 0,-0.300782 -3.849609,0 0,-5.699218 3.849609,0 0,-0.300782 -3.849609,0 0,-5.699218 3.849609,0 0,-0.300782 -3.849609,0 0,-5.699218 1,0 -0.300782,-0.300782 -0.699218,0 0,-0.699218 -0.300782,-0.300782 0,1 -5.699218,0 0,-5.699218 1,0 -0.300782,-0.300781 -0.699218,0 0,-0.699219 -0.300782,-0.300781 0,1 -5.699218,0 0,-1.84961 -0.300782,0 0,1.84961 -5.699218,0 0,-1.84961 -0.300782,0 0,1.84961 -5.699218,0 0,-1.84961 -0.300782,0 0,1.84961 -5.699218,0 0,-1.84961 -0.300782,0 0,1.84961 -5.699218,0 0,-1.84961 -0.300781,0 z m 0.300781,2.150391 5.699218,0 0,5.699218 -5.699218,0 0,-5.699218 z m 6,0 5.699218,0 0,5.699218 -5.699218,0 0,-5.699218 z m 6,0 5.699218,0 0,5.699218 -5.699218,0 0,-5.699218 z m 6,0 5.699218,0 0,5.699218 -5.699218,0 0,-5.699218 z m 6,0 5.699218,0 0,5.699218 -5.699218,0 0,-5.699218 z m -24,6 5.699218,0 0,5.699218 -5.699218,0 0,-5.699218 z m 6,0 5.699218,0 0,5.699218 -5.699218,0 0,-5.699218 z m 6,0 5.699218,0 0,5.699218 -5.699218,0 0,-5.699218 z m 6,0 5.699218,0 0,5.699218 -5.699218,0 0,-5.699218 z m 6,0 5.699218,0 0,5.699218 -5.699218,0 0,-5.699218 z m 6,0 5.699218,0 0,5.699218 -5.699218,0 0,-5.699218 z m -30,6 5.699218,0 0,5.699218 -5.699218,0 0,-5.699218 z m 6,0 5.699218,0 0,5.699218 -5.699218,0 0,-5.699218 z m 6,0 5.699218,0 0,5.699218 -5.699218,0 0,-5.699218 z m 6,0 5.699218,0 0,5.699218 -5.699218,0 0,-5.699218 z m 6,0 5.699218,0 0,5.699218 -5.699218,0 0,-5.699218 z m 6,0 5.699218,0 0,5.699218 -5.699218,0 0,-5.699218 z m -30,6 5.699218,0 0,5.699218 -5.699218,0 0,-5.699218 z m 6,0 5.699218,0 0,5.699218 -5.699218,0 0,-5.699218 z m 6,0 5.699218,0 0,5.699218 -5.699218,0 0,-5.699218 z m 6,0 5.699218,0 0,5.699218 -5.699218,0 0,-5.699218 z m 6,0 5.699218,0 0,5.699218 -5.699218,0 0,-5.699218 z m 6,0 5.699218,0 0,5.699218 -5.699218,0 0,-5.699218 z m -30,6 5.699218,0 0,5.699218 -5.699218,0 0,-5.699218 z m 6,0 5.699218,0 0,5.699218 -5.699218,0 0,-5.699218 z m 6,0 5.699218,0 0,5.699218 -5.699218,0 0,-5.699218 z m 6,0 5.699218,0 0,5.699218 -5.699218,0 0,-5.699218 z m 6,0 5.699218,0 0,5.699218 -5.699218,0 0,-5.699218 z m 6,0 5.699218,0 0,5.699218 -5.699218,0 0,-5.699218 z m -30,6 5.699218,0 0,5.699218 -5.699218,0 0,-5.699218 z m 6,0 5.699218,0 0,5.699218 -5.699218,0 0,-5.699218 z m 6,0 5.699218,0 0,5.699218 -5.699218,0 0,-5.699218 z m 6,0 5.699218,0 0,5.699218 -5.699218,0 0,-5.699218 z m 6,0 5.699218,0 0,5.699218 -5.699218,0 0,-5.699218 z m 6,0 5.699218,0 0,5.699218 -5.699218,0 0,-5.699218 z"
     id="rect3300-3"
     inkscape:connector-curvature="0" />
  <g
     id="g4173"
     transform="matrix(0.70710678,-0.70710678,0.70710678,0.70710678,-9.6127,20.964467)">
    <path
       inkscape:connector-curvature="0"
       id="path4111"
       d="m -3.8345238,28.742643 0,-8.485282 46.6690478,0 0,8.485282 z"
       style="fill:#2c3e50;fill-opacity:1;stroke:none" />
    <rect
       y="20.25736"
       x="19.25"
       height="3"
       width="0.49999991"
       id="rect4113"
       style="fill:#ecf0f1;fill-opacity:1;stroke:none" />
    <rect
       style="fill:#ecf0f1;fill-opacity:1;stroke:none"
       id="rect4117"
       width="0.49999991"
       height="1.5"
       x="17.25"
       y="20.25736" />
    <rect
       y="20.25736"
       x="15.25"
       height="1.5"
       width="0.49999991"
       id="rect4119"
       style="fill:#ecf0f1;fill-opacity:1;stroke:none" />
    <rect
       style="fill:#ecf0f1;fill-opacity:1;stroke:none"
       id="rect4121"
       width="0.49999991"
       height="3"
       x="13.25"
       y="20.25736" />
    <rect
       y="20.25736"
       x="11.25"
       height="1.5"
       width="0.49999991"
       id="rect4133"
       style="fill:#ecf0f1;fill-opacity:1;stroke:none" />
    <rect
       style="fill:#ecf0f1;fill-opacity:1;stroke:none"
       id="rect4135"
       width="0.49999991"
       height="1.5"
       x="9.25"
       y="20.25736" />
    <rect
       style="fill:#ecf0f1;fill-opacity:1;stroke:none"
       id="rect4137"
       width="0.49999991"
       height="1.5"
       x="5.25"
       y="20.25736" />
    <rect
       y="20.25736"
       x="3.25"
       height="1.5"
       width="0.49999991"
       id="rect4139"
       style="fill:#ecf0f1;fill-opacity:1;stroke:none" />
    <rect
       y="20.25736"
       x="-0.75"
       height="1.5"
       width="0.49999991"
       id="rect4141"
       style="fill:#ecf0f1;fill-opacity:1;stroke:none" />
    <rect
       style="fill:#ecf0f1;fill-opacity:1;stroke:none"
       id="rect4143"
       width="0.49999991"
       height="1.5"
       x="-2.75"
       y="20.25736" />
    <rect
       style="fill:#ecf0f1;fill-opacity:1;stroke:none"
       id="rect4145"
       width="0.49999991"
       height="3"
       x="7.25"
       y="20.25736" />
    <rect
       y="20.25736"
       x="1.25"
       height="3"
       width="0.49999991"
       id="rect4147"
       style="fill:#ecf0f1;fill-opacity:1;stroke:none" />
    <rect
       y="20.25736"
       x="41.25"
       height="1.5"
       width="0.49999991"
       id="rect4151"
       style="fill:#ecf0f1;fill-opacity:1;stroke:none" />
    <rect
       style="fill:#ecf0f1;fill-opacity:1;stroke:none"
       id="rect4153"
       width="0.49999991"
       height="1.5"
       x="39.25"
       y="20.25736" />
    <rect
       y="20.25736"
       x="37.25"
       height="3"
       width="0.49999991"
       id="rect4155"
       style="fill:#ecf0f1;fill-opacity:1;stroke:none" />
    <rect
       style="fill:#ecf0f1;fill-opacity:1;stroke:none"
       id="rect4157"
       width="0.49999991"
       height="1.5"
       x="35.25"
       y="20.25736" />
    <rect
       y="20.25736"
       x="33.25"
       height="1.5"
       width="0.49999991"
       id="rect4159"
       style="fill:#ecf0f1;fill-opacity:1;stroke:none" />
    <rect
       y="20.25736"
       x="29.25"
       height="1.5"
       width="0.49999991"
       id="rect4161"
       style="fill:#ecf0f1;fill-opacity:1;stroke:none" />
    <rect
       style="fill:#ecf0f1;fill-opacity:1;stroke:none"
       id="rect4163"
       width="0.49999991"
       height="1.5"
       x="27.25"
       y="20.25736" />
    <rect
       style="fill:#ecf0f1;fill-opacity:1;stroke:none"
       id="rect4165"
       width="0.49999991"
       height="1.5"
       x="23.25"
       y="20.25736" />
    <rect
       y="20.25736"
       x="21.25"
       height="1.5"
       width="0.49999991"
       id="rect4167"
       style="fill:#ecf0f1;fill-opacity:1;stroke:none" />
    <rect
       y="20.25736"
       x="31.25"
       height="3"
       width="0.49999991"
       id="rect4169"
       style="fill:#ecf0f1;fill-opacity:1;stroke:none" />
    <rect
       style="fill:#ecf0f1;fill-opacity:1;stroke:none"
       id="rect4171"
       width="0.49999991"
       height="3"
       x="25.25"
       y="20.25736" />
  </g>
  <path
     style="fill:#ecf0f1;stroke:none;stroke-width:1px;stroke-linecap:butt;stroke-linejoin:miter;stroke-opacity:1;fill-opacity:1"
     d="M 48,15.000001 37,4.0000009 37,15.000001 Z"
     id="path4102"
     inkscape:connector-curvature="0" />
</svg>
