<?xml version="1.0" encoding="UTF-8" standalone="no"?>
<!-- Created with Inkscape (http://www.inkscape.org/) -->

<svg
   xmlns:dc="http://purl.org/dc/elements/1.1/"
   xmlns:cc="http://creativecommons.org/ns#"
   xmlns:rdf="http://www.w3.org/1999/02/22-rdf-syntax-ns#"
   xmlns:svg="http://www.w3.org/2000/svg"
   xmlns="http://www.w3.org/2000/svg"
   xmlns:sodipodi="http://sodipodi.sourceforge.net/DTD/sodipodi-0.dtd"
   xmlns:inkscape="http://www.inkscape.org/namespaces/inkscape"
   width="64"
   height="64"
   viewBox="0 0 64 64.000003"
   id="svg2"
   version="1.1"
   inkscape:version="0.91+devel r"
   sodipodi:docname="ksnapshot.svg">
  <defs
     id="defs4" />
  <sodipodi:namedview
     id="base"
     pagecolor="#ffffff"
     bordercolor="#666666"
     borderopacity="1.0"
     inkscape:pageopacity="0.0"
     inkscape:pageshadow="2"
     inkscape:zoom="15.8125"
     inkscape:cx="16.852853"
     inkscape:cy="20.244202"
     inkscape:document-units="px"
     inkscape:current-layer="layer1"
     showgrid="true"
     units="px"
     inkscape:showpageshadow="false"
     borderlayer="true"
     inkscape:window-width="2560"
     inkscape:window-height="957"
     inkscape:window-x="-4"
     inkscape:window-y="29"
     inkscape:window-maximized="1">
    <inkscape:grid
       type="xygrid"
       id="grid4136"
       empspacing="2" />
    <sodipodi:guide
       position="5,59.000069"
       orientation="54,0"
       id="guide4142" />
    <sodipodi:guide
       position="5,5.0000688"
       orientation="0,54"
       id="guide4144" />
    <sodipodi:guide
       position="59,5.0000688"
       orientation="-54,0"
       id="guide4146" />
    <sodipodi:guide
       position="59,59.000069"
       orientation="0,-54"
       id="guide4148" />
    <sodipodi:guide
       position="0,64.000069"
       orientation="64,0"
       id="guide4150" />
    <sodipodi:guide
       position="0,6.875e-05"
       orientation="0,64"
       id="guide4152" />
    <sodipodi:guide
       position="64,64.000069"
       orientation="0,-64"
       id="guide4156" />
  </sodipodi:namedview>
  <metadata
     id="metadata7">
    <rdf:RDF>
      <cc:Work
         rdf:about="">
        <dc:format>image/svg+xml</dc:format>
        <dc:type
           rdf:resource="http://purl.org/dc/dcmitype/StillImage" />
        <dc:title />
      </cc:Work>
    </rdf:RDF>
  </metadata>
  <g
     inkscape:label="Capa 1"
     inkscape:groupmode="layer"
     id="layer1"
     transform="translate(0,-1058.5196)">
    <path
       style="opacity:1;fill:#1a1a1a;fill-opacity:1;stroke:none;stroke-opacity:1"
       d="M 3 5 C 2.4459612 5 2 5.4459612 2 6 L 2 48 C 2 48.554039 2.4459612 49 3 49 L 26.755859 49 C 26.492773 51.082 26.003523 53.116597 25.216797 55.029297 C 24.540329 55.188897 22 57.4653 22 58 C 22 58.554 22.446 59 23 59 L 25 59 L 41 59 C 41.554 59 42 58.554 42 58 C 42 57.4653 39.459671 55.188897 38.783203 55.029297 C 37.996477 53.116597 37.507227 51.082 37.244141 49 L 61 49 C 61.554039 49 62 48.554039 62 48 L 62 6 C 62 5.4459612 61.554039 5 61 5 L 3 5 z "
       transform="translate(0,1058.5196)"
       id="rect4214" />
    <rect
       style="opacity:1;fill:#3ecdf6;fill-opacity:1;stroke:none;stroke-opacity:1"
       id="rect4228"
       width="58"
       height="40.999878"
       x="3"
       y="1064.5197"
       ry="0" />
    <path
       style="fill:#172f55;fill-opacity:1;fill-rule:evenodd;stroke:none;stroke-width:1px;stroke-linecap:butt;stroke-linejoin:miter;stroke-opacity:1"
       d="m 55,1076.5196 -29,29 35,0 0,-23 -6,-6 z"
       id="path4202-5"
       inkscape:connector-curvature="0" />
    <path
       inkscape:connector-curvature="0"
       style="fill:#f1f2f4;fill-opacity:1;fill-rule:evenodd;stroke:none;stroke-width:1px;stroke-linecap:butt;stroke-linejoin:miter;stroke-opacity:1"
       d="m 55,1076.5196 -7.599609,7.5996 3.599609,-1.5996 4,3 1,-2 5,5 -2,-5 2,0 0,-1 -6,-6 z"
       id="path4236-1" />
    <rect
       style="opacity:1;fill:#c5eff7;fill-opacity:1;stroke:none;stroke-opacity:1"
       id="rect4230"
       width="58"
       height="3"
       x="3"
       y="1102.5199" />
    <circle
       style="opacity:1;fill:#2c3e50;fill-opacity:1;stroke:none;stroke-opacity:1"
       id="path4323"
       cx="59.5"
       cy="1104.0197"
       r="0.5" />
    <circle
       style="opacity:1;fill:#2c3e50;fill-opacity:1;stroke:none;stroke-opacity:1"
       id="path4323-6"
       cx="56.5"
       cy="1104.0197"
       r="0.5" />
    <circle
       style="opacity:1;fill:#2c3e50;fill-opacity:1;stroke:none;stroke-opacity:1"
       id="path4323-8"
       cx="53.5"
       cy="1104.0197"
       r="0.5" />
    <path
       style="opacity:1;fill:#baebfc;fill-opacity:1;stroke:none;stroke-opacity:1"
       d="m 13,1067.5196 c -0.860926,0 -1.679702,0.3729 -2.248047,1.0195 -0.628246,0.078 -1.182434,0.449 -1.494141,1 -0.08543,-0.012 -0.171543,-0.019 -0.257812,-0.019 -1.104569,0 -2,0.8954 -2,2 8.58e-4,0.087 0.0074,0.1737 0.01953,0.2598 -0.628865,0.3537 -1.018466,1.0187 -1.01953,1.7402 0,1.1046 0.895431,2 2,2 l 9,0 c 1.656854,0 3,-1.3431 3,-3 0,-1.6569 -1.343146,-3 -3,-3 -0.0874,7e-4 -0.17472,0.01 -0.261719,0.014 -0.312215,-0.549 -0.865414,-0.9183 -1.492187,-0.9961 -0.568252,-0.6455 -1.386157,-1.016 -2.246094,-1.0176 z"
       id="rect4249"
       inkscape:connector-curvature="0"
       sodipodi:nodetypes="cccccccssscccc" />
    <g
       id="g4191"
       transform="translate(0,-1.000061)">
      <rect
         ry="0.99994665"
         y="1078.5197"
         x="21"
         height="16"
         width="22"
         id="rect4161"
         style="opacity:1;fill:#eff4f4;fill-opacity:1;stroke:none;stroke-opacity:1" />
      <circle
         r="6"
         cy="1086.5197"
         cx="32"
         id="path4163"
         style="opacity:1;fill:#31435c;fill-opacity:1;stroke:none;stroke-opacity:1" />
      <circle
         style="opacity:1;fill:#41566f;fill-opacity:1;stroke:none;stroke-opacity:1"
         id="circle4165"
         cx="32"
         cy="1086.5197"
         r="4" />
      <circle
         r="2"
         cy="1086.5197"
         cx="32"
         id="circle4167"
         style="opacity:1;fill:#222d3b;fill-opacity:1;stroke:none;stroke-opacity:1" />
      <circle
         r="0.5"
         cy="1086.0197"
         cx="31.5"
         id="path4169"
         style="opacity:1;fill:#607a8f;fill-opacity:1;stroke:none;stroke-opacity:1" />
      <circle
         r="0.5"
         cy="1087.0197"
         cx="32.5"
         id="path4169-8"
         style="opacity:1;fill:#607a8f;fill-opacity:1;stroke:none;stroke-opacity:1" />
      <rect
         ry="0"
         y="1077.5197"
         x="24"
         height="0.99994665"
         width="3"
         id="rect4186"
         style="opacity:1;fill:#ff5555;fill-opacity:1;stroke:none;stroke-opacity:1" />
    </g>
    <path
       style="opacity:1;fill:#050505;fill-opacity:1;stroke:none;stroke-width:0.1;stroke-linecap:square;stroke-linejoin:miter;stroke-miterlimit:4;stroke-dasharray:none;stroke-dashoffset:0;stroke-opacity:1"
       d="M 22 58 C 22 58.554 22.446 59 23 59 L 41 59 C 41.554 59 42 58.554 42 58 L 22 58 z "
       transform="translate(0,1058.5196)"
       id="rect4163" />
  </g>
</svg>
