<?xml version="1.0" encoding="UTF-8" standalone="no"?>
<!-- Created with Inkscape (http://www.inkscape.org/) -->

<svg
   xmlns:dc="http://purl.org/dc/elements/1.1/"
   xmlns:cc="http://creativecommons.org/ns#"
   xmlns:rdf="http://www.w3.org/1999/02/22-rdf-syntax-ns#"
   xmlns:svg="http://www.w3.org/2000/svg"
   xmlns="http://www.w3.org/2000/svg"
   xmlns:sodipodi="http://sodipodi.sourceforge.net/DTD/sodipodi-0.dtd"
   xmlns:inkscape="http://www.inkscape.org/namespaces/inkscape"
   width="64"
   height="64"
   viewBox="0 0 64 64.000003"
   id="svg2"
   version="1.1"
   inkscape:version="0.91+devel r"
   sodipodi:docname="mysql-workbench.svg">
  <defs
     id="defs4" />
  <sodipodi:namedview
     id="base"
     pagecolor="#ffffff"
     bordercolor="#666666"
     borderopacity="1.0"
     inkscape:pageopacity="0.0"
     inkscape:pageshadow="2"
     inkscape:zoom="15.999999"
     inkscape:cx="12.251035"
     inkscape:cy="29.560514"
     inkscape:document-units="px"
     inkscape:current-layer="layer1"
     showgrid="true"
     units="px"
     inkscape:showpageshadow="false"
     borderlayer="true"
     inkscape:window-width="2560"
     inkscape:window-height="957"
     inkscape:window-x="-4"
     inkscape:window-y="29"
     inkscape:window-maximized="1"
     showguides="true">
    <inkscape:grid
       type="xygrid"
       id="grid4136" />
    <sodipodi:guide
       position="5,59.000069"
       orientation="54,0"
       id="guide4142" />
    <sodipodi:guide
       position="5,5.0000688"
       orientation="0,54"
       id="guide4144" />
    <sodipodi:guide
       position="59,5.0000688"
       orientation="-54,0"
       id="guide4146" />
    <sodipodi:guide
       position="59,59.000069"
       orientation="0,-54"
       id="guide4148" />
    <sodipodi:guide
       position="0,64.000069"
       orientation="64,0"
       id="guide4150" />
    <sodipodi:guide
       position="0,6.875e-05"
       orientation="0,64"
       id="guide4152" />
    <sodipodi:guide
       position="64,6.875e-05"
       orientation="-64,0"
       id="guide4154" />
    <sodipodi:guide
       position="64,64.000069"
       orientation="0,-64"
       id="guide4156" />
    <sodipodi:guide
       position="13,50.999947"
       orientation="38,0"
       id="guide4155" />
    <sodipodi:guide
       position="13,12.999947"
       orientation="0,38"
       id="guide4157" />
    <sodipodi:guide
       position="51,12.999947"
       orientation="-38,0"
       id="guide4159" />
    <sodipodi:guide
       position="51,50.999947"
       orientation="0,-38"
       id="guide4161" />
  </sodipodi:namedview>
  <metadata
     id="metadata7">
    <rdf:RDF>
      <cc:Work
         rdf:about="">
        <dc:format>image/svg+xml</dc:format>
        <dc:type
           rdf:resource="http://purl.org/dc/dcmitype/StillImage" />
        <dc:title />
      </cc:Work>
    </rdf:RDF>
  </metadata>
  <g
     inkscape:label="Capa 1"
     inkscape:groupmode="layer"
     id="layer1"
     transform="translate(0,-1058.5196)">
    <rect
       style="fill:#202b33;fill-opacity:1;stroke:none"
       id="rect4148"
       width="56"
       height="51.999947"
       x="4"
       y="1064.5197" />
    <path
       style="opacity:1;fill:#2f3f4a;fill-opacity:1;stroke:none;stroke-width:0.1;stroke-linecap:square;stroke-linejoin:miter;stroke-miterlimit:4;stroke-dasharray:none;stroke-dashoffset:0;stroke-opacity:1"
       d="M 8 15 L 8 26 L 23 26 L 23 15 L 8 15 z M 9 16 L 22 16 L 22 25 L 9 25 L 9 16 z M 32 17 L 32 28 L 47 28 L 47 17 L 32 17 z M 33 18 L 46 18 L 46 27 L 33 27 L 33 18 z M 24 20 L 24 21 L 31 21 L 31 20 L 24 20 z M 8 31 L 8 36 L 17 36 L 17 31 L 8 31 z M 26 31 L 26 36 L 35 36 L 35 31 L 26 31 z M 9 32 L 16 32 L 16 35 L 9 35 L 9 32 z M 27 32 L 34 32 L 34 35 L 27 35 L 27 32 z M 18 33 L 18 34 L 25 34 L 25 33 L 18 33 z M 44 35 L 44 46 L 59 46 L 59 35 L 44 35 z M 45 36 L 58 36 L 58 45 L 45 45 L 45 36 z M 8 37 L 8 42 L 17 42 L 17 40 L 23 40 L 23 41 L 23 42 L 25 42 L 25 41 L 24 41 L 24 40 L 24 39 L 17 39 L 17 37 L 8 37 z M 9 38 L 16 38 L 16 41 L 9 41 L 9 38 z M 26 39 L 26 44 L 35 44 L 35 39 L 26 39 z M 27 40 L 34 40 L 34 43 L 27 43 L 27 40 z M 41 41 L 41 45 L 18 45 L 18 46 L 42 46 L 42 45 L 42 42 L 43 42 L 43 41 L 42 41 L 41 41 z M 8 43 L 8 48 L 17 48 L 17 43 L 8 43 z M 9 44 L 16 44 L 16 47 L 9 47 L 9 44 z M 8 49 L 8 54 L 17 54 L 17 49 L 8 49 z M 40 49 L 40 54 L 49 54 L 49 49 L 40 49 z M 9 50 L 16 50 L 16 53 L 9 53 L 9 50 z M 41 50 L 48 50 L 48 53 L 41 53 L 41 50 z M 18 51 L 18 52 L 39 52 L 39 51 L 18 51 z "
       transform="translate(0,1058.5196)"
       id="rect4177" />
    <path
       inkscape:connector-curvature="0"
       style="opacity:1;fill:#34495e;fill-opacity:1;stroke:none;stroke-opacity:1"
       d="m 4,1063.5196 c -0.554038,0 -1,0.446 -1,1 l 0,51 0,1 c 0,0.554 0.445962,1 1,1 l 1,0 55,0 c 0.554038,0 1,-0.446 1,-1 l 0,-52 c 0,-0.554 -0.445962,-1 -1,-1 l -55,0 -1,0 z m 1,4 54,0 0,48 -54,0 0,-48 z"
       id="rect4151" />
    <circle
       style="opacity:1;fill:#ecf0f1;fill-opacity:1;stroke:none;stroke-opacity:1"
       id="path4155-1"
       cx="57.999981"
       cy="1065.5197"
       r="1" />
    <rect
       style="opacity:1;fill:#03c9a9;fill-opacity:1;stroke:none;stroke-opacity:1"
       id="rect4153-5"
       width="54"
       height="1.018868"
       x="5"
       y="1067.5197" />
    <path
       inkscape:connector-curvature="0"
       style="opacity:1;fill:#2c3e4f;fill-opacity:1;stroke:none;stroke-width:0.1;stroke-linecap:square;stroke-linejoin:miter;stroke-miterlimit:4;stroke-dasharray:none;stroke-dashoffset:0;stroke-opacity:1"
       d="m 3,1116.5196 c 0,0.554 0.445962,1 1,1 l 56,0 c 0.554038,0 1,-0.446 1,-1 l -58,0 z"
       id="rect4171" />
    <path
       style="opacity:1;fill:#ecf0f1;fill-opacity:1;stroke:none;stroke-width:1;stroke-linecap:round;stroke-linejoin:miter;stroke-miterlimit:4;stroke-dasharray:none;stroke-opacity:0.29943501"
       d="m 32,1077.5196 a 15,4 0 0 0 -15,4 l 0,15 0,7 a 15,4 0 0 0 15,4 15,4 0 0 0 15,-4 l 0,-7 0,-15 a 15,4 0 0 0 -15,-4 z m 0,1 a 14,3 0 0 1 14,3 14,3 0 0 1 -14,3 14,3 0 0 1 -14,-3 14,3 0 0 1 14,-3 z m -14,4.4238 a 15,4 0 0 0 14,2.5762 15,4 0 0 0 14,-2.5664 l 0,5.5664 a 14,3 0 0 1 -14,3 14,3 0 0 1 -14,-3 l 0,-5.5762 z m 4,2.5489 0,4.2246 c 1.905706,0.4174 4.338499,0.7066 7,0.832 l 0,-4.1133 c -2.605782,-0.1433 -5.021704,-0.4689 -7,-0.9433 z m -4,4.4511 a 15,4 0 0 0 14,2.5762 15,4 0 0 0 14,-2.5664 l 0,5.1426 0,1.4238 a 14,3 0 0 1 -14,3 14,3 0 0 1 -14,-3 l 0,-1.4336 0,-5.1426 z m 4,2.5489 0,5.2246 c 1.905706,0.4174 4.338499,0.7066 7,0.832 l 0,-5.1133 c -2.605782,-0.1433 -5.021704,-0.4689 -7,-0.9433 z m -4,5.4511 a 15,4 0 0 0 14,2.5762 15,4 0 0 0 14,-2.5664 l 0,5.5664 a 14,3 0 0 1 -14,3 14,3 0 0 1 -14,-3 l 0,-5.5762 z m 4,2.5489 0,4.2246 c 1.905706,0.4174 4.338499,0.7066 7,0.832 l 0,-4.1133 c -2.605782,-0.1433 -5.021704,-0.4689 -7,-0.9433 z m 0,5.1015 0,0.021 c 0.191336,0.04 0.388032,0.079 0.589844,0.1172 -0.201125,-0.045 -0.397807,-0.091 -0.589844,-0.1387 z"
       id="path4180-4"
       inkscape:connector-curvature="0" />
  </g>
</svg>
