<?xml version="1.0" encoding="UTF-8" standalone="no"?>
<!-- Created with Inkscape (http://www.inkscape.org/) -->

<svg
   xmlns:dc="http://purl.org/dc/elements/1.1/"
   xmlns:cc="http://creativecommons.org/ns#"
   xmlns:rdf="http://www.w3.org/1999/02/22-rdf-syntax-ns#"
   xmlns:svg="http://www.w3.org/2000/svg"
   xmlns="http://www.w3.org/2000/svg"
   xmlns:sodipodi="http://sodipodi.sourceforge.net/DTD/sodipodi-0.dtd"
   xmlns:inkscape="http://www.inkscape.org/namespaces/inkscape"
   width="64"
   height="64"
   viewBox="0 0 64 64.000003"
   id="svg2"
   version="1.1"
   inkscape:version="0.91+devel r"
   sodipodi:docname="okular.svg">
  <defs
     id="defs4" />
  <sodipodi:namedview
     id="base"
     pagecolor="#ffffff"
     bordercolor="#666666"
     borderopacity="1.0"
     inkscape:pageopacity="0.0"
     inkscape:pageshadow="2"
     inkscape:zoom="32"
     inkscape:cx="50.848037"
     inkscape:cy="8.1098525"
     inkscape:document-units="px"
     inkscape:current-layer="layer1"
     showgrid="true"
     units="px"
     inkscape:showpageshadow="false"
     borderlayer="true"
     inkscape:window-width="2560"
     inkscape:window-height="957"
     inkscape:window-x="-4"
     inkscape:window-y="29"
     inkscape:window-maximized="1">
    <inkscape:grid
       type="xygrid"
       id="grid4136" />
    <sodipodi:guide
       position="5,59.000069"
       orientation="54,0"
       id="guide4142" />
    <sodipodi:guide
       position="5,5.0000688"
       orientation="0,54"
       id="guide4144" />
    <sodipodi:guide
       position="59,5.0000688"
       orientation="-54,0"
       id="guide4146" />
    <sodipodi:guide
       position="59,59.000069"
       orientation="0,-54"
       id="guide4148" />
    <sodipodi:guide
       position="0,64.000069"
       orientation="64,0"
       id="guide4150" />
    <sodipodi:guide
       position="0,6.875e-05"
       orientation="0,64"
       id="guide4152" />
    <sodipodi:guide
       position="64,6.875e-05"
       orientation="-64,0"
       id="guide4154" />
    <sodipodi:guide
       position="64,64.000069"
       orientation="0,-64"
       id="guide4156" />
    <sodipodi:guide
       position="10,35"
       orientation="38,0"
       id="guide4155" />
    <sodipodi:guide
       position="54,37"
       orientation="-38,0"
       id="guide4159" />
    <sodipodi:guide
       position="51,50.999947"
       orientation="0,-38"
       id="guide4161" />
  </sodipodi:namedview>
  <metadata
     id="metadata7">
    <rdf:RDF>
      <cc:Work
         rdf:about="">
        <dc:format>image/svg+xml</dc:format>
        <dc:type
           rdf:resource="http://purl.org/dc/dcmitype/StillImage" />
        <dc:title />
      </cc:Work>
    </rdf:RDF>
  </metadata>
  <g
     inkscape:label="Capa 1"
     inkscape:groupmode="layer"
     id="layer1"
     transform="translate(0,-1058.5196)">
    <path
       style="fill:#81cfe0;fill-rule:evenodd;stroke:none;stroke-width:1px;stroke-linecap:butt;stroke-linejoin:miter;stroke-opacity:1;fill-opacity:1"
       d="M 11 5 C 10.44603 5 10 5.4460296 10 6 L 10 55 L 10 57 L 13 57 L 13 55 L 54 55 L 54 6 C 54 5.4460296 53.55397 5 53 5 L 11 5 z "
       transform="translate(0,1058.5196)"
       id="path4178" />
    <path
       style="opacity:1;fill:#336e7b;fill-opacity:1;stroke:none;stroke-opacity:1"
       d="M 11 5 C 10.44603 5 10 5.4460296 10 6 L 10 57 L 20 57 L 20 5 L 11 5 z "
       transform="translate(0,1058.5196)"
       id="rect4181" />
    <path
       style="opacity:1;fill:#2e6570;fill-opacity:1;stroke:none;stroke-opacity:1"
       d="M 11 5 C 10.44603 5 10 5.4460296 10 6 L 10 57 L 13 57 L 13 5 L 11 5 z "
       transform="translate(0,1058.5196)"
       id="rect4190" />
    <rect
       y="1115.5426"
       x="11"
       height="0.97727275"
       width="43"
       id="rect4310"
       style="fill:#d5eff5;fill-opacity:1;stroke:none" />
    <rect
       style="fill:#e0f4f8;fill-opacity:1;stroke:none"
       id="rect4168"
       width="43"
       height="1"
       x="11"
       y="1114.5197" />
    <path
       style="opacity:1;fill:#336e7b;fill-opacity:1;stroke:none;stroke-opacity:1"
       d="M 12 55 C 10.892 55 10 55.892 10 57 C 10 58.108 10.892 59 12 59 L 20 59 L 54 59 L 54 58 L 20 58 L 12 58 C 11.446 58 11 57.554 11 57 C 11 56.446 11.446 56 12 56 L 20 56 L 20 55 L 12 55 z "
       id="path4188"
       transform="translate(0,1058.5196)" />
    <path
       style="opacity:1;fill:#336e7b;fill-opacity:1;stroke:none;stroke-opacity:1"
       d="M 20 55 L 20 56 L 54 56 L 54 55 L 20 55 z "
       id="path4186"
       transform="translate(0,1058.5196)" />
    <path
       style="font-style:normal;font-variant:normal;font-weight:500;font-stretch:normal;font-size:medium;line-height:125%;font-family:'Nina Script Demo';-inkscape-font-specification:'Nina Script Demo Medium';letter-spacing:0px;word-spacing:0px;fill:#c2e7f1;fill-opacity:1;stroke:none;stroke-width:1px;stroke-linecap:butt;stroke-linejoin:miter;stroke-opacity:1"
       d="M 54 12.195312 C 50.85 13.513886 48.09859 15.27158 45.759766 17.480469 C 41.946432 21.107135 39.026667 26.000156 37 32.160156 C 36.866667 32.45349 36.759687 32.772474 36.679688 33.119141 C 36.599687 33.439141 36.519453 33.747682 36.439453 34.041016 C 34.839453 33.294349 33.333255 32.413724 31.919922 31.400391 C 30.506589 30.360391 29.239141 29.187526 28.119141 27.880859 C 26.999141 26.574193 26.05263 25.13388 25.279297 23.560547 C 24.505964 21.987214 23.973021 20.267057 23.679688 18.400391 C 22.986354 20.987057 22.840234 23.279297 23.240234 25.279297 C 23.666901 27.25263 24.467292 28.987135 25.640625 30.480469 C 26.813958 31.947135 28.293411 33.185885 30.080078 34.199219 C 31.866745 35.185885 33.78651 36.000625 35.839844 36.640625 C 35.70651 37.200625 35.599531 37.760313 35.519531 38.320312 C 35.439531 38.880313 35.373646 39.427604 35.320312 39.960938 C 34.920312 43.587604 34.932708 46.626745 35.359375 49.080078 C 35.812708 51.533411 36.547214 53.479922 37.560547 54.919922 C 37.581516 54.948956 37.605789 54.971345 37.626953 55 L 39.447266 55 C 39.252647 54.712943 39.072871 54.400446 38.919922 54.041016 C 38.413255 52.787682 38.213646 51.079922 38.320312 48.919922 C 38.453646 46.733255 38.986589 44.000703 39.919922 40.720703 C 40.079922 40.240703 40.226042 39.759297 40.359375 39.279297 L 40.839844 37.839844 C 41.053177 37.893177 41.279531 37.934271 41.519531 37.960938 C 41.759531 37.987604 41.985885 38.026745 42.199219 38.080078 C 41.959219 40.000078 41.920078 41.827214 42.080078 43.560547 C 42.266745 45.29388 42.692708 46.880312 43.359375 48.320312 C 44.586042 51.146979 46.400781 53.373333 48.800781 55 L 49 54.759766 C 47.8 53.986432 46.719766 53.054271 45.759766 51.960938 C 44.826432 50.867604 44.067135 49.639297 43.480469 48.279297 C 42.840469 46.759297 42.453646 45.14612 42.320312 43.439453 C 42.186979 41.732786 42.252865 39.959141 42.519531 38.119141 C 43.879531 38.305807 45.212865 38.439531 46.519531 38.519531 C 47.826198 38.599531 49.066901 38.640625 50.240234 38.640625 C 51.440234 38.613958 52.547214 38.572865 53.560547 38.519531 C 53.717148 38.507485 53.849445 38.491771 54 38.478516 L 54 37.818359 C 52.713994 37.873171 51.36006 37.859085 49.919922 37.759766 C 47.626589 37.573099 45.280859 37.159531 42.880859 36.519531 C 43.360859 34.252865 44.105807 32.014115 45.119141 29.800781 C 46.159141 27.560781 47.373099 25.466198 48.759766 23.519531 C 50.173099 21.546198 51.732786 19.772552 53.439453 18.199219 C 53.624526 18.028382 53.813407 17.876431 54 17.712891 L 54 12.195312 z M 54 20.21875 C 53.480023 21.339318 53.153044 22.413617 53.039062 23.439453 C 52.879063 24.852786 53.039531 26.120234 53.519531 27.240234 C 53.658224 27.539519 53.821344 27.822395 54 28.095703 L 54 20.21875 z M 43.679688 31.320312 C 43.413021 32.173646 43.174271 33.027526 42.960938 33.880859 C 42.747604 34.707526 42.572786 35.532708 42.439453 36.359375 C 42.30612 36.306042 42.147604 36.266901 41.960938 36.240234 C 41.800938 36.213568 41.652865 36.172474 41.519531 36.119141 C 42.159531 34.492474 42.879687 32.893646 43.679688 31.320312 z M 54 52.054688 C 52.514286 53.151343 51.045802 54.100375 49.599609 54.880859 C 49.518006 54.924293 49.440394 54.957995 49.359375 55 L 54 55 L 54 52.054688 z "
       transform="translate(0,1058.5196)"
       id="path4206" />
    <path
       style="opacity:1;fill:#1ba39c;fill-opacity:1;stroke:none;stroke-opacity:1"
       d="M 20 5 L 20 39 L 23 37 L 26 39 L 26 5 L 20 5 z "
       transform="translate(0,1058.5196)"
       id="rect4196" />
  </g>
</svg>
