<?xml version="1.0" encoding="UTF-8" standalone="no"?>
<!-- Created with Inkscape (http://www.inkscape.org/) -->

<svg
   xmlns:dc="http://purl.org/dc/elements/1.1/"
   xmlns:cc="http://creativecommons.org/ns#"
   xmlns:rdf="http://www.w3.org/1999/02/22-rdf-syntax-ns#"
   xmlns:svg="http://www.w3.org/2000/svg"
   xmlns="http://www.w3.org/2000/svg"
   xmlns:sodipodi="http://sodipodi.sourceforge.net/DTD/sodipodi-0.dtd"
   xmlns:inkscape="http://www.inkscape.org/namespaces/inkscape"
   width="64"
   height="64"
   viewBox="0 0 64 64.000003"
   id="svg2"
   version="1.1"
   inkscape:version="0.91+devel r"
   sodipodi:docname="avidemux.svg">
  <defs
     id="defs4" />
  <sodipodi:namedview
     id="base"
     pagecolor="#ffffff"
     bordercolor="#666666"
     borderopacity="1.0"
     inkscape:pageopacity="0.0"
     inkscape:pageshadow="2"
     inkscape:zoom="8"
     inkscape:cx="50.099735"
     inkscape:cy="28.227958"
     inkscape:document-units="px"
     inkscape:current-layer="layer1"
     showgrid="true"
     units="px"
     inkscape:showpageshadow="false"
     borderlayer="true"
     inkscape:window-width="2560"
     inkscape:window-height="957"
     inkscape:window-x="-4"
     inkscape:window-y="29"
     inkscape:window-maximized="1"
     showguides="true">
    <inkscape:grid
       type="xygrid"
       id="grid4136"
       empspacing="2" />
    <sodipodi:guide
       position="5,59.000069"
       orientation="54,0"
       id="guide4142" />
    <sodipodi:guide
       position="5,5.0000688"
       orientation="0,54"
       id="guide4144" />
    <sodipodi:guide
       position="59,5.0000688"
       orientation="-54,0"
       id="guide4146" />
    <sodipodi:guide
       position="59,59.000069"
       orientation="0,-54"
       id="guide4148" />
    <sodipodi:guide
       position="0,64.000069"
       orientation="64,0"
       id="guide4150" />
    <sodipodi:guide
       position="0,6.875e-05"
       orientation="0,64"
       id="guide4152" />
    <sodipodi:guide
       position="64,6.875e-05"
       orientation="-64,0"
       id="guide4154" />
    <sodipodi:guide
       position="64,64.000069"
       orientation="0,-64"
       id="guide4156" />
    <sodipodi:guide
       position="14,50.000071"
       orientation="36,0"
       id="guide4192" />
    <sodipodi:guide
       position="14,14.000069"
       orientation="0,36"
       id="guide4194" />
    <sodipodi:guide
       position="50,14.000069"
       orientation="-36,0"
       id="guide4196" />
    <sodipodi:guide
       position="50,50.000071"
       orientation="0,-36"
       id="guide4198" />
  </sodipodi:namedview>
  <metadata
     id="metadata7">
    <rdf:RDF>
      <cc:Work
         rdf:about="">
        <dc:format>image/svg+xml</dc:format>
        <dc:type
           rdf:resource="http://purl.org/dc/dcmitype/StillImage" />
        <dc:title />
      </cc:Work>
    </rdf:RDF>
  </metadata>
  <g
     inkscape:label="Capa 1"
     inkscape:groupmode="layer"
     id="layer1"
     transform="translate(0,-1058.5196)">
    <path
       style="opacity:1;fill:#dadfe1;fill-opacity:1;stroke:none;stroke-width:1;stroke-linecap:round;stroke-linejoin:miter;stroke-miterlimit:4;stroke-dasharray:none;stroke-opacity:0.29943501"
       d="m 5,49 0,9 c 0,0.554039 0.4459612,1 1,1 l 52,0 c 0.554039,0 1,-0.445961 1,-1 l 0,-9 z"
       id="rect4153"
       transform="translate(0,1058.5196)"
       inkscape:connector-curvature="0"
       sodipodi:nodetypes="csssscc" />
    <path
       style="fill:#2c3e50;fill-opacity:1;stroke:none"
       d="M 6,5 C 5.4459612,5 5,5.4459612 5,6 l 0,44.00005 54,0 L 59,6 C 59,5.4459612 58.554039,5 58,5 Z"
       transform="translate(0,1058.5196)"
       id="rect4148"
       inkscape:connector-curvature="0"
       sodipodi:nodetypes="ssccsss" />
    <path
       style="fill:#6c7a89;fill-opacity:1;fill-rule:evenodd;stroke:none;stroke-width:1px;stroke-linecap:butt;stroke-linejoin:miter;stroke-opacity:1"
       d="m 10,1114.5196 0,-4 3,1.9 z"
       id="path4155"
       inkscape:connector-curvature="0"
       sodipodi:nodetypes="cccc" />
    <path
       style="opacity:1;fill:#d4dad0;fill-opacity:1;stroke:none;stroke-width:1;stroke-linecap:round;stroke-linejoin:miter;stroke-miterlimit:4;stroke-dasharray:none;stroke-opacity:0.29943501"
       d="m 6,1064.5197 52,0 0,42.9999 -52,0 z"
       id="rect4157"
       inkscape:connector-curvature="0"
       sodipodi:nodetypes="ccccc" />
    <path
       style="opacity:1;fill:#424242;fill-opacity:1;stroke:none;stroke-width:1;stroke-linecap:round;stroke-linejoin:miter;stroke-miterlimit:4;stroke-dasharray:none;stroke-opacity:0.29943501"
       d="m 54,1098.5196 c -1.104569,0 -2,0.8954 -2,2 0,1.1046 2,4 2,4 0,0 2,-2.8954 2,-4 0,-1.1046 -0.895431,-2 -2,-2 z m 0,1 a 1,1 0 0 1 1,1 1,1 0 0 1 -1,1 1,1 0 0 1 -1,-1 1,1 0 0 1 1,-1 z"
       id="path4199"
       inkscape:connector-curvature="0" />
    <rect
       style="opacity:1;fill:#424242;fill-opacity:1;stroke:none;stroke-width:1;stroke-linecap:round;stroke-linejoin:miter;stroke-miterlimit:4;stroke-dasharray:none;stroke-opacity:0.29943501"
       id="rect4205"
       width="44"
       height="1"
       x="10"
       y="1104.5199" />
    <path
       inkscape:connector-curvature="0"
       id="path4207"
       d="m 10,1098.5196 c -1.104569,0 -2,0.8954 -2,2 0,1.1046 2,4 2,4 0,0 2,-2.8954 2,-4 0,-1.1046 -0.895431,-2 -2,-2 z m 0,1 a 1,1 0 0 1 1,1 1,1 0 0 1 -1,1 1,1 0 0 1 -1,-1 1,1 0 0 1 1,-1 z"
       style="opacity:1;fill:#424242;fill-opacity:1;stroke:none;stroke-width:1;stroke-linecap:round;stroke-linejoin:miter;stroke-miterlimit:4;stroke-dasharray:none;stroke-opacity:0.29943501" />
    <path
       style="fill:#6c7a89;fill-opacity:1;fill-rule:evenodd;stroke:none;stroke-width:1px;stroke-linecap:butt;stroke-linejoin:miter;stroke-opacity:1"
       d="m 47,1114.5196 9,-3 0,3 z"
       id="path4209"
       inkscape:connector-curvature="0" />
    <path
       sodipodi:nodetypes="cccc"
       inkscape:connector-curvature="0"
       id="path4211"
       d="m 20,1113.5196 0,-2 -1,1 z"
       style="fill:#6c7a89;fill-opacity:1;fill-rule:evenodd;stroke:none;stroke-width:1px;stroke-linecap:butt;stroke-linejoin:miter;stroke-opacity:1" />
    <path
       style="fill:#6c7a89;fill-opacity:1;fill-rule:evenodd;stroke:none;stroke-width:1px;stroke-linecap:butt;stroke-linejoin:miter;stroke-opacity:1"
       d="m 19,1113.5196 0,-2 -1,1 z"
       id="path4213"
       inkscape:connector-curvature="0"
       sodipodi:nodetypes="cccc" />
    <path
       style="fill:#6c7a89;fill-opacity:1;fill-rule:evenodd;stroke:none;stroke-width:1px;stroke-linecap:butt;stroke-linejoin:miter;stroke-opacity:1"
       d="m 24,1113.5196 0,-2 -1,1 z"
       id="path4215"
       inkscape:connector-curvature="0"
       sodipodi:nodetypes="cccc" />
    <path
       sodipodi:nodetypes="cccc"
       inkscape:connector-curvature="0"
       id="path4217"
       d="m 23,1113.5196 0,-2 -1,1 z"
       style="fill:#6c7a89;fill-opacity:1;fill-rule:evenodd;stroke:none;stroke-width:1px;stroke-linecap:butt;stroke-linejoin:miter;stroke-opacity:1" />
    <path
       style="opacity:1;fill:#424242;fill-opacity:1;stroke:none;stroke-width:1;stroke-linecap:round;stroke-linejoin:miter;stroke-miterlimit:4;stroke-dasharray:none;stroke-opacity:0.29943501"
       d="m 11,1066.5196 -2,2 -1,0 0,2 1,0 2,2 1,0 0,-5 0,-1 -1,0 z"
       id="rect4245"
       inkscape:connector-curvature="0" />
    <path
       style="opacity:1;fill:#424242;fill-opacity:1;stroke:none;stroke-width:1;stroke-linecap:round;stroke-linejoin:miter;stroke-miterlimit:4;stroke-dasharray:none;stroke-opacity:0.29943501"
       d="m 13,1067.2891 0,2.2305 0,2.2324 c 0.635355,-0.5683 0.998963,-1.38 1,-2.2324 -0.0016,-0.8517 -0.365152,-1.6626 -1,-2.2305 z"
       id="path4254"
       inkscape:connector-curvature="0"
       sodipodi:nodetypes="ccccc" />
    <path
       style="opacity:1;fill:#424242;fill-opacity:1;stroke:none;stroke-width:1;stroke-linecap:round;stroke-linejoin:miter;stroke-miterlimit:4;stroke-dasharray:none;stroke-opacity:0.29943501"
       d="m 19,1072.5196 0,26 26,0 0,-26 -26,0 z m 2,2 4,0 0,4 -4,0 0,-4 z m 6,0 10,0 0,10 -10,0 0,-10 z m 12,0 4,0 0,4 -4,0 0,-4 z m -18,6 4,0 0,4 -4,0 0,-4 z m 18,0 4,0 0,4 -4,0 0,-4 z m -18,6 4,0 0,4 -4,0 0,-4 z m 18,0 4,0 0,4 -4,0 0,-4 z m -12,1 10,0 0,9 -10,0 0,-9 z m -6,5 4,0 0,4 -4,0 0,-4 z m 18,0 4,0 0,4 -4,0 0,-4 z"
       id="rect4167"
       inkscape:connector-curvature="0" />
    <path
       style="opacity:1;fill:#c7cfd2;fill-opacity:1;stroke:none;stroke-width:0.1;stroke-linecap:square;stroke-linejoin:miter;stroke-miterlimit:4;stroke-dasharray:none;stroke-dashoffset:0;stroke-opacity:1"
       d="M 5 58 C 5 58.554039 5.4459612 59 6 59 L 58 59 C 58.554039 59 59 58.554039 59 58 L 5 58 z "
       transform="translate(0,1058.5196)"
       id="rect4175" />
  </g>
</svg>
