<?xml version="1.0" encoding="UTF-8" standalone="no"?>
<!-- Created with Inkscape (http://www.inkscape.org/) -->

<svg
   xmlns:dc="http://purl.org/dc/elements/1.1/"
   xmlns:cc="http://creativecommons.org/ns#"
   xmlns:rdf="http://www.w3.org/1999/02/22-rdf-syntax-ns#"
   xmlns:svg="http://www.w3.org/2000/svg"
   xmlns="http://www.w3.org/2000/svg"
   xmlns:sodipodi="http://sodipodi.sourceforge.net/DTD/sodipodi-0.dtd"
   xmlns:inkscape="http://www.inkscape.org/namespaces/inkscape"
   width="64"
   height="64"
   viewBox="0 0 64 64.000003"
   id="svg2"
   version="1.1"
   inkscape:version="0.91+devel r"
   sodipodi:docname="pinta.svg">
  <defs
     id="defs4" />
  <sodipodi:namedview
     id="base"
     pagecolor="#ffffff"
     bordercolor="#666666"
     borderopacity="1.0"
     inkscape:pageopacity="0.0"
     inkscape:pageshadow="2"
     inkscape:zoom="7.9999996"
     inkscape:cx="14.629063"
     inkscape:cy="34.511612"
     inkscape:document-units="px"
     inkscape:current-layer="layer1"
     showgrid="true"
     units="px"
     inkscape:showpageshadow="false"
     borderlayer="true"
     inkscape:window-width="2560"
     inkscape:window-height="957"
     inkscape:window-x="-4"
     inkscape:window-y="29"
     inkscape:window-maximized="1">
    <inkscape:grid
       type="xygrid"
       id="grid4136"
       empspacing="2" />
    <sodipodi:guide
       position="5,59.000069"
       orientation="54,0"
       id="guide4142" />
    <sodipodi:guide
       position="5,5.0000688"
       orientation="0,54"
       id="guide4144" />
    <sodipodi:guide
       position="59,5.0000688"
       orientation="-54,0"
       id="guide4146" />
    <sodipodi:guide
       position="59,59.000069"
       orientation="0,-54"
       id="guide4148" />
    <sodipodi:guide
       position="0,64.000069"
       orientation="64,0"
       id="guide4150" />
    <sodipodi:guide
       position="0,6.875e-05"
       orientation="0,64"
       id="guide4152" />
    <sodipodi:guide
       position="64,6.875e-05"
       orientation="-64,0"
       id="guide4154" />
    <sodipodi:guide
       position="64,64.000069"
       orientation="0,-64"
       id="guide4156" />
  </sodipodi:namedview>
  <metadata
     id="metadata7">
    <rdf:RDF>
      <cc:Work
         rdf:about="">
        <dc:format>image/svg+xml</dc:format>
        <dc:type
           rdf:resource="http://purl.org/dc/dcmitype/StillImage" />
        <dc:title />
      </cc:Work>
    </rdf:RDF>
  </metadata>
  <g
     inkscape:label="Capa 1"
     inkscape:groupmode="layer"
     id="layer1"
     transform="translate(0,-1058.5196)">
    <rect
       style="opacity:1;fill:#bc672b;fill-opacity:1;stroke:none;stroke-width:1;stroke-linecap:round;stroke-linejoin:miter;stroke-miterlimit:4;stroke-dasharray:none;stroke-opacity:0.29943501"
       id="rect4152"
       width="58"
       height="53.999996"
       x="3"
       y="1063.5195"
       ry="1.0000688" />
    <rect
       style="opacity:1;fill:#884b1f;fill-opacity:1;stroke:none;stroke-width:1;stroke-linecap:round;stroke-linejoin:miter;stroke-miterlimit:4;stroke-dasharray:none;stroke-opacity:0.29943501"
       id="rect4198"
       width="54"
       height="49.999947"
       x="5"
       y="1065.5197" />
    <rect
       y="1066.5197"
       x="6"
       height="48.000053"
       width="52"
       id="rect4200"
       style="opacity:1;fill:#ecf0f1;fill-opacity:1;stroke:none;stroke-width:1;stroke-linecap:round;stroke-linejoin:miter;stroke-miterlimit:4;stroke-dasharray:none;stroke-opacity:0.29943501" />
    <path
       style="fill:#3ecdf6;fill-rule:evenodd;stroke:none;stroke-width:1px;stroke-linecap:butt;stroke-linejoin:miter;stroke-opacity:1;fill-opacity:1"
       d="M 17 10 L 8 20 C 8 20 11 18 12 17 C 13 16 17 10 17 10 z M 21 10 L 15.763672 15.818359 C 16.268411 15.073562 17 14 17 14 L 8 24 C 8 24 9.5456294 22.964657 10.789062 22.011719 L 9 24 C 9 24 10.098384 23.258672 11.189453 22.457031 L 8 26 C 8 26 9.5440373 24.966156 10.787109 24.013672 L 9 26 C 9 26 11.349279 24.420425 12.568359 23.367188 L 12 24 C 12 24 12.595324 23.587359 13.060547 23.265625 L 7 30 C 7 30 8.5456289 28.964657 9.7890625 28.011719 L 8 30 C 8 30 8.75 29.5 9.625 28.875 C 9.8094299 28.743264 9.9958628 28.600268 10.185547 28.460938 L 7 32 C 7 32 8.5456289 30.964657 9.7890625 30.011719 L 8 32 C 8 32 10.349279 30.420425 11.568359 29.367188 L 11 30 C 11 30 11.595324 29.587359 12.060547 29.265625 L 6 36 C 6 36 9 34 10 33 C 10.316249 32.683751 10.951559 31.827838 11.646484 30.859375 C 12.023837 30.589589 12.417076 30.296801 12.789062 30.011719 L 11 32 C 11 32 11.595324 31.587359 12.060547 31.265625 L 6 38 C 6 38 8.3492788 36.420426 9.5683594 35.367188 L 9 36 C 9 36 9.75 35.5 10.625 34.875 C 10.80943 34.743264 10.995863 34.600268 11.185547 34.460938 L 8 38 C 8 38 9.5456294 36.964657 10.789062 36.011719 L 9 38 C 9 38 10.54563 36.964657 11.789062 36.011719 L 10 38 C 10 38 12.354499 36.41645 13.572266 35.363281 L 13 36 C 13 36 14.098384 35.258672 15.189453 34.457031 L 12 38 C 12 38 12.740083 37.505395 13.591797 36.898438 L 9 42 C 9 42 10.54563 40.964657 11.789062 40.011719 L 10 42 C 10 42 10.432164 41.697836 10.611328 41.576172 C 9.7587191 42.567834 9 43.56611 9 44 C 9 44 9.3389362 43.766559 9.5996094 43.587891 C 8.75342 44.570827 8 45.560402 8 46 L 9 45 L 10 44 C 10 44 10.405837 43.715972 10.615234 43.572266 C 9.7611438 44.565305 9 45.565499 9 46 L 9.4335938 45.783203 C 8.6564031 46.703952 8 47.596402 8 48 L 9 47 L 10 46 L 12 44 C 12 44 12.103663 43.927702 12.115234 43.919922 C 10.940916 45.156293 9 47.297128 9 48 L 9.765625 47.615234 C 9.3201958 48.205536 9 48.722371 9 49 L 10 48 L 11 47 L 12 46 L 13 45 L 13.671875 44.328125 L 13.658203 44.351562 C 13.482845 44.5304 13.300651 44.726948 12.976562 45.070312 L 13 45 L 12.921875 45.128906 C 12.890355 45.162386 12.856549 45.199876 12.824219 45.234375 L 13 45 C 13 45 9 49 9 50 L 10 49 L 11 48 L 11.5 47.5 L 11.480469 47.53125 C 10.437754 48.608103 8 51.207559 8 52 L 9 51 L 10 50 L 12 48 L 13 47 L 14 46 L 14.333984 45.666016 L 14.300781 45.800781 C 13.946994 46.190078 13.605434 46.568909 13.269531 46.974609 L 14 46 C 14 46 13.540019 46.473346 12.976562 47.070312 L 13 47 L 12.921875 47.128906 C 12.890955 47.161746 12.857862 47.198596 12.826172 47.232422 L 13 47 C 13 47 9 51 9 52 L 9.4335938 51.783203 C 8.6564031 52.703952 8 53.596402 8 54 L 9 53 L 10 52 L 12 50 L 13 49 L 13.666016 48.333984 L 13.654297 48.353516 C 13.451804 48.560065 13.207685 48.824751 12.820312 49.238281 L 13 49 C 13 49 9 53 9 54 L 9.765625 53.615234 C 9.3201958 54.205536 9 54.722371 9 55 L 10 54 L 11 53 L 12 52 L 13 51 L 13.671875 50.328125 L 13.658203 50.351562 C 12.842086 51.183865 10 54.136963 10 55 L 11 54 L 12 53 L 12.333984 52.666016 L 11 55 L 12 54 L 13 53 L 14 52 L 14.333984 51.666016 L 14.300781 51.800781 C 13.204741 53.006828 12 54.445357 12 55 L 13 54 L 14 53 L 14.332031 52.667969 L 13 55 L 15 53 L 16 52 L 16.333984 51.666016 L 16.25 51.998047 C 15.671587 52.698521 15.189996 53.362208 15.044922 53.779297 C 15.015625 53.863525 15 53.9375 15 54 L 15.765625 53.615234 C 15.320196 54.205536 15 54.722371 15 55 L 16 54 L 17 53 L 18 52 L 19 51 L 19.666016 50.333984 L 19.654297 50.353516 C 18.833512 51.190745 16 54.138115 16 55 L 17 54 L 18 53 L 18.332031 52.667969 L 17 55 L 19 53 L 20 52 L 20.333984 51.666016 L 20.298828 51.800781 C 19.203039 53.006632 18 54.445521 18 55 L 19 54 L 19.765625 53.615234 C 19.320196 54.205536 19 54.722371 19 55 L 20 54 L 21 53 L 22 52 L 22.333984 51.666016 L 22.298828 51.800781 C 21.203039 53.006632 20 54.445521 20 55 L 21 54 L 22 53 L 22.333984 52.666016 L 21 55 L 22 54 L 23 53 L 24 52 L 24.333984 51.666016 L 24.300781 51.800781 C 23.204741 53.006828 22 54.445357 22 55 L 23 54 L 24 53 L 24.332031 52.667969 L 23 55 L 25 53 L 26 52 L 26.333984 51.666016 L 26.25 51.998047 C 25.671587 52.698521 25.189996 53.362208 25.044922 53.779297 C 25.015625 53.863525 25 53.9375 25 54 L 25.765625 53.615234 C 25.320196 54.205536 25 54.722371 25 55 L 26 54 L 27 53 L 28 52 L 29 51 L 29.671875 50.328125 L 29.658203 50.351562 C 28.842086 51.183865 26 54.136963 26 55 L 27 54 L 28 53 L 28.333984 52.666016 L 27 55 L 28 54 L 29 53 L 30 52 L 30.333984 51.666016 L 30.300781 51.800781 C 29.204741 53.006828 28 54.445357 28 55 L 29 54 L 30 53 L 30.332031 52.667969 L 29 55 L 32 52 L 32.332031 51.667969 L 32.25 52 C 31.555267 52.841458 31 53.628193 31 54 L 32 53 L 33.451172 51.064453 C 33.190174 51.454156 33 51.797776 33 52 L 33.433594 51.783203 C 32.656403 52.703952 32 53.596402 32 54 L 33 53 L 34 52 L 36 50 L 37 49 C 37 49 33 53 33 54 L 33.765625 53.615234 C 33.320196 54.205536 33 54.722371 33 55 L 34 54 L 35 53 L 36 52 L 37 51 L 37.664062 50.335938 L 37.654297 50.353516 C 36.833546 51.190741 34 54.138115 34 55 L 35 54 L 36 53 L 36.333984 52.666016 L 35 55 L 36 54 L 37 53 L 38 52 L 38.333984 51.666016 L 38.300781 51.800781 C 37.204741 53.006828 36 54.445357 36 55 L 37 54 L 38 53 L 38.332031 52.667969 L 37 55 L 39 53 L 40 52 L 40.333984 51.666016 L 40.25 51.998047 C 39.671587 52.698521 39.189996 53.362208 39.044922 53.779297 C 39.015625 53.863525 39 53.9375 39 54 L 39.765625 53.615234 C 39.320196 54.205536 39 54.722371 39 55 L 40 54 L 41 53 L 42 52 L 43 51 L 43.671875 50.328125 L 43.658203 50.351562 C 42.842086 51.183865 40 54.136963 40 55 L 41 54 L 42 53 L 42.333984 52.666016 L 41 55 L 42 54 L 43 53 L 44 52 L 44.333984 51.666016 L 44.300781 51.800781 C 43.204741 53.006828 42 54.445357 42 55 L 43 54 L 44 53 L 44.332031 52.667969 L 43 55 L 46 52 L 46.332031 51.667969 L 46.25 52 C 45.555267 52.841458 45 53.628193 45 54 L 46 53 L 48.25 50 L 48.125 50.5 L 47 52 C 47 52 47.455803 51.53041 48.015625 50.9375 L 48 51 L 48.068359 50.880859 C 48.102219 50.844909 48.139039 50.804709 48.173828 50.767578 L 48 51 C 48 51 48.540699 50.443858 49.179688 49.761719 L 49 50 C 49 50 49.502984 49.480866 50.107422 48.837891 L 50 49 L 50.5 48.5 L 50.199219 49.400391 L 49 51 C 49 51 49.459981 50.526654 50.023438 49.929688 L 50 50 L 50.078125 49.871094 C 50.109045 49.838254 50.142138 49.801404 50.173828 49.767578 L 50 50 C 50 50 54 46 54 45 L 53.566406 45.216797 C 54.343597 44.296048 55 43.403598 55 43 L 54 44 L 53 45 L 51 47 L 50 48 L 48.802734 49.597656 L 49.345703 48.646484 C 49.548196 48.439935 49.792316 48.175249 50.179688 47.761719 L 50 48 C 50 48 54 44 54 43 L 53.234375 43.384766 C 53.679804 42.794464 54 42.277629 54 42 L 54.625 39.5 L 55 39 C 55 39 54.788905 39.216489 54.664062 39.34375 L 55 38 L 54.111328 39.554688 L 54.25 39 L 55 38 C 55 38 54.723524 38.278658 54.326172 38.693359 L 54.625 37.5 L 55 37 C 55 37 54.788905 37.216489 54.664062 37.34375 L 55 36 L 54.111328 37.554688 L 54.25 37 L 55 36 C 55 36 54.723524 36.278658 54.326172 36.693359 L 54.417969 36.326172 C 55.165313 35.230937 56 34 56 34 L 54.615234 35.539062 L 54.625 35.5 L 55 35 C 55 35 54.789575 35.21775 54.664062 35.345703 L 55 34 L 53.65625 36.351562 C 53.453809 36.558034 53.209502 36.824742 52.820312 37.240234 L 53 37 C 53 37 52.88616 37.115679 52.798828 37.205078 C 53.939178 35.563236 55 34 55 34 L 53.503906 35.660156 L 54 35 C 54 35 53.839845 35.166977 53.810547 35.197266 C 54.890519 33.63638 56 32 56 32 L 54.462891 33.707031 C 55.7463 31.870506 57 30 57 30 L 51.763672 35.818359 C 52.268411 35.073562 53 34 53 34 C 53 34 51.544493 35.459667 50.388672 36.835938 L 50.400391 36.798828 L 51 36 C 51 36 50.75499 36.248467 50.494141 36.517578 L 50.623047 36.132812 C 51.171524 35.719097 51.68903 35.31097 52 35 C 53 34 57 28 57 28 L 52.71875 32.757812 C 54.208401 30.675729 56 28 56 28 L 54.460938 29.710938 C 55.745227 27.873268 57 26 57 26 L 54.386719 28.900391 C 54.531963 28.684022 55 28 55 28 L 50.720703 32.753906 C 52.209885 30.672274 54 28 54 28 L 53.828125 28.189453 C 54.97195 26.538834 56 25 56 25 L 52.080078 29.353516 C 52.38409 28.902574 53 28 53 28 L 48.720703 32.753906 C 49.413733 31.785164 49.855527 31.153505 50.472656 30.248047 C 51.079646 29.794021 51.659441 29.340559 52 29 C 53 28 57 22 57 22 L 52.71875 26.757812 C 54.208401 24.675729 56 22 56 22 L 51.720703 26.753906 C 53.209885 24.672274 55 22 55 22 L 50.71875 26.757812 C 52.208401 24.675729 54 22 54 22 L 49.720703 26.753906 C 50.118561 26.197766 50.50132 25.662715 50.904297 25.080078 C 50.928995 25.056387 50.977304 25.022696 51 25 C 52 24 56 18 56 18 L 51.716797 22.757812 C 53.206571 20.675611 55 18 55 18 L 53.458984 19.712891 C 54.74383 17.8745 56 16 56 16 L 51.724609 20.75 C 53.213196 18.668941 55 16 55 16 L 53.462891 17.707031 C 54.7463 15.870506 56 14 56 14 L 51.716797 18.757812 C 53.206571 16.675611 55 14 55 14 L 53.458984 15.712891 C 54.74383 13.8745 56 12 56 12 L 51.724609 16.75 C 53.213196 14.668941 55 12 55 12 L 52.380859 14.908203 C 52.528525 14.688242 53 14 53 14 L 48.71875 18.757812 C 50.208401 16.675729 52 14 52 14 L 50.462891 15.707031 C 51.7463 13.870506 53 12 53 12 L 50.380859 14.910156 C 50.528928 14.689598 51 14 51 14 L 48.382812 16.908203 C 48.530206 16.688648 49 16 49 16 L 47.464844 17.703125 C 48.747372 15.867746 50 14 50 14 L 45.726562 18.744141 C 46.106777 18.212526 46.488856 17.682763 46.875 17.125 C 48 15.5 49 14 49 14 L 47.460938 15.708984 C 48.744903 13.871737 50 12 50 12 L 47.380859 14.910156 C 47.528928 14.689598 48 14 48 14 L 46.458984 15.712891 C 47.74383 13.8745 49 12 49 12 L 46.386719 14.900391 C 46.531963 14.684022 47 14 47 14 L 44.380859 16.908203 C 44.528525 16.688242 45 16 45 16 L 39.763672 21.818359 C 40.268411 21.073562 41 20 41 20 L 39.458984 21.712891 C 39.617478 21.486113 39.748756 21.304964 39.904297 21.080078 C 39.928995 21.056387 39.977304 21.022696 40 21 C 40.182104 20.817896 40.483462 20.435578 40.822266 19.988281 C 41.295146 19.624858 41.725308 19.274692 42 19 C 43 18 47 12 47 12 L 44.380859 14.912109 C 44.529331 14.690954 45 14 45 14 L 43.458984 15.710938 C 44.743505 13.872968 46 12 46 12 L 41.716797 16.757812 C 43.206571 14.675611 45 12 45 12 L 39.763672 17.818359 C 40.268411 17.073562 41 16 41 16 L 39.462891 17.707031 C 40.7463 15.870506 42 14 42 14 L 40.458984 15.710938 C 41.743505 13.872967 43 12 43 12 L 40.386719 14.900391 C 40.531963 14.684022 41 14 41 14 L 39.464844 15.703125 C 40.747372 13.867746 42 12 42 12 L 37.722656 16.751953 C 38.104343 16.218385 38.487177 15.685189 38.875 15.125 C 40 13.5 41 12 41 12 L 38.380859 14.908203 C 38.528525 14.688242 39 14 39 14 L 36.382812 16.90625 C 36.529803 16.687291 37 16 37 16 L 35.457031 17.714844 C 35.616066 17.487302 35.748228 17.305728 35.904297 17.080078 C 35.928995 17.056387 35.977304 17.022696 36 17 C 37 16 41 10 41 10 L 38.380859 12.908203 C 38.528525 12.688242 39 12 39 12 L 36.380859 14.912109 C 36.529331 14.690954 37 14 37 14 L 35.458984 15.710938 C 36.743505 13.872968 38 12 38 12 L 35.380859 14.908203 C 35.528525 14.688242 36 14 36 14 L 34.46875 15.699219 C 34.607701 15.500355 34.738173 15.322639 34.875 15.125 C 36 13.5 37 12 37 12 L 34.380859 14.908203 C 34.528525 14.688242 35 14 35 14 L 33.464844 15.703125 C 34.747372 13.867746 36 12 36 12 L 31.732422 16.738281 C 32.11124 16.20852 32.490445 15.680468 32.875 15.125 C 34 13.5 35 12 35 12 L 32.380859 14.908203 C 32.528525 14.688242 33 14 33 14 L 30.380859 16.912109 C 30.529331 16.690954 31 16 31 16 L 29.462891 17.707031 C 29.603777 17.505426 29.736274 17.325382 29.875 17.125 C 29.890963 17.101943 29.888387 17.103081 29.904297 17.080078 C 29.928995 17.056387 29.977304 17.022696 30 17 C 31 16 35 10 35 10 L 32.386719 12.900391 C 32.531963 12.684022 33 12 33 12 L 30.386719 14.900391 C 30.531963 14.684022 31 14 31 14 L 29.458984 15.710938 C 30.743505 13.872967 32 12 32 12 L 27.716797 16.757812 C 29.206571 14.675611 31 12 31 12 L 28.380859 14.908203 C 28.528525 14.688242 29 14 29 14 L 26.386719 16.904297 C 26.532763 16.686741 27 16 27 16 L 25.458984 17.710938 C 25.617163 17.484607 25.749064 17.304518 25.904297 17.080078 C 25.928995 17.056387 25.977304 17.022696 26 17 C 27 16 31 10 31 10 L 28.380859 12.908203 C 28.528525 12.688242 29 12 29 12 L 26.380859 14.908203 C 26.528525 14.688242 27 14 27 14 L 24.380859 16.908203 C 24.528525 16.688242 25 16 25 16 L 20.71875 20.757812 C 21.117339 20.200706 21.500483 19.663925 21.904297 19.080078 C 21.928995 19.056387 21.977304 19.022696 22 19 C 23 18 27 12 27 12 L 24.380859 14.908203 C 24.528525 14.688242 25 14 25 14 L 22.380859 16.912109 C 22.529331 16.690954 23 16 23 16 L 21.458984 17.710938 C 21.617163 17.484607 21.749064 17.304518 21.904297 17.080078 C 21.928995 17.056387 21.977304 17.022696 22 17 C 23 16 27 10 27 10 L 21.763672 15.818359 C 22.268411 15.073562 23 14 23 14 L 20.380859 16.908203 C 20.528525 16.688242 21 16 21 16 L 19.458984 17.712891 C 20.74383 15.8745 22 14 22 14 L 20.458984 15.710938 C 21.743505 13.872967 23 12 23 12 L 20.380859 14.908203 C 20.528525 14.688242 21 14 21 14 L 13.882812 21.90625 C 14.478677 21.114695 15.200065 20.098279 15.904297 19.080078 C 15.928995 19.056387 15.977304 19.022696 16 19 C 16.182399 18.817601 16.484683 18.434668 16.824219 17.986328 C 17.296245 17.623492 17.725721 17.274279 18 17 C 19 16 23 10 23 10 L 20.380859 12.908203 C 20.528525 12.688242 21 12 21 12 L 18.386719 14.900391 C 18.531963 14.684022 19 14 19 14 L 16.386719 16.904297 C 16.532763 16.686741 17 16 17 16 L 15.458984 17.710938 C 15.617163 17.484607 15.749064 17.304518 15.904297 17.080078 C 15.928995 17.056387 15.977304 17.022696 16 17 C 17 16 21 10 21 10 z M 17 12 L 8 22 C 8 22 11 20 12 19 C 13 18 17 12 17 12 z M 25.183594 20.460938 L 23.882812 21.90625 C 24.116554 21.595744 24.375795 21.236613 24.646484 20.859375 C 24.823867 20.732556 25.001566 20.594635 25.183594 20.460938 z M 28.591797 20.898438 L 27.763672 21.818359 C 27.94572 21.549728 28.078262 21.356378 28.208984 21.162109 C 28.390122 21.035923 28.387279 21.044183 28.591797 20.898438 z M 48.0625 21.263672 L 46.71875 22.757812 C 46.978018 22.395435 47.23443 22.035535 47.501953 21.652344 C 47.641299 21.558074 47.816177 21.434039 48.0625 21.263672 z M 27.574219 21.363281 L 27 22 C 27 22 27.392905 21.726496 27.53125 21.632812 L 24.71875 24.757812 C 25.117338 24.200706 25.500483 23.663925 25.904297 23.080078 C 25.928995 23.056387 25.977304 23.022696 26 23 C 26.182104 22.817896 26.483462 22.435578 26.822266 21.988281 C 27.119893 21.759545 27.339886 21.565997 27.574219 21.363281 z M 14.785156 22.015625 L 14.144531 22.726562 C 14.309104 22.486964 14.31828 22.470761 14.46875 22.25 C 14.574904 22.170616 14.682142 22.094543 14.785156 22.015625 z M 24.785156 22.015625 L 24.144531 22.726562 C 24.309104 22.486964 24.31828 22.470761 24.46875 22.25 C 24.574904 22.170616 24.682142 22.094543 24.785156 22.015625 z M 42.591797 22.898438 L 41.763672 23.818359 C 41.94572 23.549728 42.078262 23.356378 42.208984 23.162109 C 42.390122 23.035923 42.387279 23.044182 42.591797 22.898438 z M 23.060547 23.265625 L 21.71875 24.757812 C 21.978018 24.395435 22.23443 24.035535 22.501953 23.652344 C 22.640744 23.55845 22.815529 23.435072 23.060547 23.265625 z M 41.574219 23.363281 L 41 24 C 41 24 41.390701 23.727285 41.527344 23.634766 L 40.380859 24.908203 C 40.528525 24.688242 41 24 41 24 L 39.462891 25.707031 C 39.619988 25.482229 39.75012 25.302991 39.904297 25.080078 C 39.928995 25.056387 39.977304 25.022696 40 25 C 40.182104 24.817896 40.483462 24.435578 40.822266 23.988281 C 41.119893 23.759545 41.339886 23.565997 41.574219 23.363281 z M 31.787109 24.013672 L 31.46875 24.369141 L 31.150391 24.722656 C 31.314064 24.484344 31.323008 24.467612 31.472656 24.248047 C 31.578365 24.168977 31.684535 24.092268 31.787109 24.013672 z M 28.785156 24.015625 L 28.144531 24.726562 C 28.309104 24.486964 28.31828 24.470761 28.46875 24.25 C 28.574904 24.170616 28.682142 24.094543 28.785156 24.015625 z M 48.060547 25.265625 L 46.720703 26.753906 C 46.978686 26.393289 47.233861 26.035491 47.5 25.654297 C 47.638817 25.560392 47.814548 25.43575 48.060547 25.265625 z M 15.054688 29.269531 L 13.726562 30.744141 C 13.982533 30.386245 14.236103 30.032279 14.5 29.654297 C 14.637384 29.561361 14.812064 29.437277 15.054688 29.269531 z M 18.787109 34.013672 L 17 36 C 17 36 17.392905 35.726496 17.53125 35.632812 L 14.71875 38.757812 C 15.795899 37.252282 16.601809 36.064423 17.208984 35.162109 C 17.742913 34.790157 18.187624 34.473018 18.787109 34.013672 z M 19.787109 34.013672 L 19.46875 34.369141 L 19.152344 34.71875 C 19.3147 34.48234 19.324137 34.465955 19.472656 34.248047 C 19.578365 34.168977 19.684535 34.092268 19.787109 34.013672 z M 20.785156 34.015625 L 20.144531 34.726562 C 20.309104 34.486964 20.31828 34.470761 20.46875 34.25 C 20.574904 34.170616 20.682142 34.094543 20.785156 34.015625 z M 19.054688 35.269531 L 17.726562 36.744141 C 17.982532 36.386245 18.236103 36.032279 18.5 35.654297 C 18.637384 35.561361 18.812064 35.437277 19.054688 35.269531 z M 19.527344 35.634766 L 19.458984 35.712891 C 19.473652 35.691904 19.487293 35.673343 19.501953 35.652344 C 19.508257 35.648079 19.520771 35.639216 19.527344 35.634766 z M 43.787109 36.013672 L 43.46875 36.369141 L 43.152344 36.71875 C 43.3147 36.48234 43.324137 36.465955 43.472656 36.248047 C 43.578365 36.168977 43.684535 36.092268 43.787109 36.013672 z M 46.787109 36.013672 L 45 38 L 44.667969 38.332031 L 45.027344 37.703125 C 45.229502 37.429629 45.423472 37.17017 45.646484 36.859375 C 46.023112 36.590107 46.415731 36.298235 46.787109 36.013672 z M 49.787109 36.013672 L 49.148438 36.724609 C 49.312936 36.485104 49.3223 36.46865 49.472656 36.248047 C 49.578365 36.168977 49.684535 36.092268 49.787109 36.013672 z M 42.785156 36.015625 L 42.144531 36.726562 C 42.309104 36.486964 42.31828 36.470761 42.46875 36.25 C 42.574904 36.170616 42.682142 36.094543 42.785156 36.015625 z M 44.785156 36.015625 L 44.144531 36.726562 C 44.309104 36.486964 44.31828 36.470761 44.46875 36.25 C 44.574904 36.170616 44.682142 36.094543 44.785156 36.015625 z M 47.785156 36.015625 L 47.144531 36.726562 C 47.309104 36.486964 47.31828 36.470761 47.46875 36.25 C 47.574904 36.170616 47.682142 36.094543 47.785156 36.015625 z M 35.185547 36.460938 L 33.144531 38.728516 C 33.684593 37.942267 33.896783 37.626067 34.208984 37.162109 C 34.405959 37.024891 34.401219 37.034844 34.625 36.875 C 34.80943 36.743264 34.995863 36.600268 35.185547 36.460938 z M 37.572266 37.363281 L 37 38 C 37 38 37.119976 37.917254 37.138672 37.904297 C 37.018868 38.030518 37.026779 38.019352 36.892578 38.162109 L 37 38 L 36.5 38.5 L 36.564453 38.304688 C 36.661298 38.180826 36.717434 38.127333 36.824219 37.986328 C 37.12058 37.758522 37.33872 37.56526 37.572266 37.363281 z M 53.666016 38.333984 L 53.658203 38.349609 L 53.65625 38.351562 C 53.54947 38.460468 53.543984 38.4646 53.375 38.640625 C 53.224636 38.797254 53.006719 39.041531 52.824219 39.236328 L 53 39 C 53 39 52.788905 39.216489 52.664062 39.34375 L 52.666016 39.333984 L 53 39 L 53.666016 38.333984 z M 35.570312 39.384766 L 35.501953 39.498047 L 35 40 L 35.287109 39.619141 C 35.386691 39.538784 35.480982 39.460572 35.570312 39.384766 z M 52.597656 40.205078 L 52.333984 40.666016 L 52.375 40.5 L 52.597656 40.205078 z M 51.667969 40.332031 L 51.654297 40.355469 C 51.274583 40.742814 50.578485 41.467267 49.787109 42.373047 L 50 42 L 51 41 L 51.667969 40.332031 z M 53.666016 40.333984 L 53.654297 40.353516 C 53.27511 40.740298 52.579262 41.466378 51.787109 42.373047 L 52 42 L 53.666016 40.333984 z M 15.115234 40.511719 L 14.998047 40.669922 L 14.769531 40.923828 L 14.816406 40.734375 C 14.915835 40.660754 15.014226 40.586588 15.115234 40.511719 z M 12.076172 40.542969 L 12.001953 40.666016 L 10.5 42.333984 L 11.560547 40.919922 C 11.594894 40.895497 11.590219 40.899844 11.625 40.875 C 11.773249 40.769108 11.924686 40.65566 12.076172 40.542969 z M 13.568359 41.367188 L 13 42 C 13 42 13.128158 41.911332 13.138672 41.904297 C 13.018868 42.030518 13.026779 42.019352 12.892578 42.162109 L 13 42 L 12.5 42.5 L 12.626953 42.117188 C 12.966426 41.857714 13.300931 41.598235 13.568359 41.367188 z M 14.197266 41.402344 L 13.953125 41.830078 L 13.496094 42.337891 L 14.197266 41.402344 z M 20.179688 41.761719 L 20 42 L 19.335938 42.664062 L 19.345703 42.646484 C 19.548196 42.439935 19.792316 42.175249 20.179688 41.761719 z M 23.033203 41.835938 C 23.016744 41.89463 23 41.95355 23 42 L 22.5 42.5 L 22.544922 42.367188 C 22.717095 42.179609 22.856195 42.035581 23.033203 41.835938 z M 33.033203 41.835938 C 33.016744 41.89463 33 41.95355 33 42 L 32 43 L 31.498047 43.501953 L 31.517578 43.46875 C 31.909837 43.063678 32.436253 42.509225 33.033203 41.835938 z M 52.599609 42.201172 L 52.333984 42.666016 L 52 43 L 52.599609 42.201172 z M 18.666016 42.335938 L 18.664062 42.34375 C 18.661162 42.34665 18.65915 42.348562 18.65625 42.351562 L 18.666016 42.335938 z M 12.001953 42.664062 L 11.501953 43.498047 L 11 44 L 12.001953 42.664062 z M 33.298828 43.298828 C 33.284668 43.322248 33.265153 43.350287 33.251953 43.373047 L 33.236328 43.380859 C 33.256208 43.354499 33.279518 43.324848 33.298828 43.298828 z M 47.298828 43.298828 C 47.284668 43.322248 47.265153 43.350287 47.251953 43.373047 L 47.236328 43.380859 C 47.256208 43.354499 47.279518 43.324848 47.298828 43.298828 z M 47.765625 43.615234 C 47.745195 43.642304 47.721002 43.672509 47.701172 43.699219 C 47.715752 43.675089 47.73644 43.646467 47.75 43.623047 L 47.765625 43.615234 z M 18.335938 43.65625 L 18.333984 43.666016 L 18 44 L 18.015625 43.9375 C 18.067745 43.88231 18.125229 43.817904 18.179688 43.759766 L 18 44 C 18 44 18.211096 43.783511 18.335938 43.65625 z M 42.179688 43.759766 L 42 44 L 42.015625 43.9375 C 42.067745 43.88231 42.125229 43.817904 42.179688 43.759766 z M 43.179688 43.761719 L 43 44 L 42.669922 44.330078 L 42.695312 44.285156 C 42.831828 44.142564 43.019158 43.933089 43.179688 43.761719 z M 30.173828 43.767578 L 30 44 L 29 45 L 28.666016 45.333984 L 28.701172 45.199219 C 29.044952 44.82091 29.376335 44.451577 29.703125 44.058594 C 29.706626 44.055901 29.709394 44.053473 29.712891 44.050781 L 29 45 C 29 45 29.459982 44.526654 30.023438 43.929688 L 30 44 L 30.078125 43.871094 C 30.109045 43.838254 30.142138 43.801404 30.173828 43.767578 z M 44.173828 43.767578 L 44 44 L 43 45 L 42.666016 45.333984 L 42.701172 45.199219 C 43.053731 44.81125 43.393636 44.433622 43.728516 44.029297 L 43 45 C 43 45 43.459981 44.526654 44.023438 43.929688 L 44 44 L 44.078125 43.871094 C 44.109045 43.838254 44.142138 43.801404 44.173828 43.767578 z M 32.033203 43.835938 C 32.016744 43.89463 32 43.95355 32 44 L 31 45 L 30 46 L 29.333984 46.666016 L 29.34375 46.648438 C 29.519157 46.469538 29.700014 46.272346 30.023438 45.929688 L 30 46 L 30.078125 45.871094 C 30.110565 45.836634 30.144444 45.797254 30.177734 45.761719 L 30 46 C 30 46 31.021951 44.976506 32.033203 43.835938 z M 46.033203 43.835938 C 46.016744 43.89463 46 43.95355 46 44 L 45 45 L 44 46 L 43.333984 46.666016 L 43.34375 46.648438 C 43.519157 46.469538 43.700013 46.272346 44.023438 45.929688 L 44 46 L 44.078125 45.871094 C 44.110565 45.836634 44.144444 45.797254 44.177734 45.761719 L 44 46 C 44 46 45.021951 44.976506 46.033203 43.835938 z M 19.011719 43.941406 C 19.009556 43.959605 19 43.983419 19 44 L 18.666016 44.333984 L 18.695312 44.283203 C 18.784513 44.190033 18.911479 44.047552 19.011719 43.941406 z M 47.300781 44.296875 C 47.12724 44.583649 47 44.839226 47 45 L 46.666016 45.333984 L 46.75 45.001953 C 46.951115 44.758398 47.133353 44.522535 47.300781 44.296875 z M 15.666016 44.333984 L 15.654297 44.353516 C 15.5349 44.475304 15.495427 44.517353 15.300781 44.720703 L 15.330078 44.669922 L 15.666016 44.333984 z M 51.212891 44.626953 L 51 45 L 50 46 L 49.332031 46.667969 L 49.341797 46.650391 C 49.718874 46.265858 50.417669 45.537136 51.212891 44.626953 z M 49.212891 44.628906 L 49 45 L 48.666016 45.333984 L 48.701172 45.199219 C 48.880228 45.002179 49.032629 44.83521 49.212891 44.628906 z M 16.345703 44.646484 L 16.332031 44.669922 L 16.335938 44.65625 C 16.339537 44.65255 16.342003 44.650284 16.345703 44.646484 z M 40.345703 44.646484 L 40.332031 44.669922 L 40.335938 44.65625 C 40.339537 44.65255 40.342003 44.650284 40.345703 44.646484 z M 55 45 L 54 46 L 53 47 L 51 49 L 48 53 C 48 53 49.455507 51.540333 50.611328 50.164062 L 50.599609 50.201172 L 50 51 C 50 51 50.24501 50.751533 50.505859 50.482422 L 50 52 L 51.517578 49.46875 C 52.559379 48.392919 55 45.792822 55 45 z M 50 52 C 50 52 54 48 54 47 L 53 48 L 50 52 z M 31.814453 46.076172 L 31.666016 46.333984 L 31 47 L 30.666016 47.333984 L 30.673828 47.306641 C 30.681928 47.298141 30.694895 47.283991 30.703125 47.275391 C 31.017273 46.947145 31.412274 46.522254 31.814453 46.076172 z M 45.814453 46.076172 L 45.666016 46.333984 L 45 47 L 44.666016 47.333984 L 44.673828 47.306641 C 44.681928 47.298141 44.694895 47.283991 44.703125 47.275391 C 45.017273 46.947145 45.412274 46.522254 45.814453 46.076172 z M 17.695312 46.283203 L 17.666016 46.333984 L 17.333984 46.666016 L 17.345703 46.646484 C 17.46445 46.525359 17.502049 46.48508 17.695312 46.283203 z M 27.695312 46.283203 L 27.666016 46.333984 L 27.333984 46.666016 L 27.345703 46.646484 C 27.46445 46.525359 27.502049 46.48508 27.695312 46.283203 z M 41.695312 46.283203 L 41.666016 46.333984 L 41.333984 46.666016 L 41.345703 46.646484 C 41.46445 46.525359 41.502049 46.48508 41.695312 46.283203 z M 47.695312 46.283203 L 47.666016 46.333984 L 47.333984 46.666016 L 47.345703 46.646484 C 47.46445 46.525359 47.502049 46.48508 47.695312 46.283203 z M 16.667969 46.332031 L 16.666016 46.34375 C 16.662816 46.34705 16.65955 46.348263 16.65625 46.351562 L 16.667969 46.332031 z M 40.667969 46.332031 L 40.666016 46.34375 C 40.662816 46.34705 40.65955 46.348263 40.65625 46.351562 L 40.667969 46.332031 z M 14.332031 46.667969 L 14.302734 46.716797 C 14.168221 46.857309 13.984004 47.06398 13.826172 47.232422 L 14 47 C 14 47 13.497016 47.519134 12.892578 48.162109 L 13 48 L 14 47 L 14.332031 46.667969 z M 15 47 L 14.984375 47.0625 C 14.932255 47.11769 14.874771 47.182096 14.820312 47.240234 L 15 47 z M 15 47 C 15 47 14.788905 47.216489 14.664062 47.34375 L 14.666016 47.333984 L 15 47 z M 38 47 C 38 47 37.753393 47.249284 37.478516 47.533203 L 37.498047 47.501953 L 38 47 z M 52 47 L 50.998047 48.335938 L 51.498047 47.501953 L 52 47 z M 36 48 L 35.822266 48.238281 C 35.68977 48.379718 35.563942 48.514819 35.421875 48.669922 C 35.339505 48.759852 35.273404 48.826832 35.189453 48.919922 L 35.335938 48.664062 L 36 48 z M 29.693359 48.287109 L 29.654297 48.353516 C 29.535718 48.474469 29.497593 48.513349 29.304688 48.714844 L 29.345703 48.646484 C 29.463957 48.525862 29.501143 48.487869 29.693359 48.287109 z M 43.693359 48.287109 L 43.654297 48.353516 C 43.535718 48.474469 43.497593 48.513349 43.304688 48.714844 L 43.345703 48.646484 C 43.463957 48.525862 43.501143 48.487869 43.693359 48.287109 z M 19.666016 48.333984 L 19.654297 48.353516 C 19.535718 48.474469 19.497594 48.513349 19.304688 48.714844 L 19.333984 48.666016 L 19.666016 48.333984 z M 34.666016 48.335938 L 34.664062 48.34375 C 34.661163 48.34665 34.65915 48.348562 34.65625 48.351562 L 34.666016 48.335938 z M 48.666016 48.335938 L 48.664062 48.34375 C 48.661163 48.34665 48.65915 48.348562 48.65625 48.351562 L 48.666016 48.335938 z M 14.345703 48.646484 L 14.333984 48.667969 L 14.335938 48.65625 C 14.339538 48.65255 14.342003 48.650284 14.345703 48.646484 z M 38.345703 48.646484 L 38.333984 48.667969 L 38.335938 48.65625 C 38.339537 48.65255 38.342003 48.650284 38.345703 48.646484 z M 12.001953 48.664062 L 11.501953 49.498047 L 11 50 L 12.001953 48.664062 z M 35.519531 49.466797 L 35.498047 49.501953 L 35 50 C 35 50 35.245527 49.749794 35.519531 49.466797 z M 48.335938 49.65625 L 48.326172 49.693359 C 48.008232 50.025182 47.599871 50.466471 47.1875 50.923828 L 47.333984 50.666016 L 48 50 L 48.015625 49.9375 C 48.067745 49.88231 48.125228 49.817904 48.179688 49.759766 L 48 50 C 48 50 48.211095 49.783511 48.335938 49.65625 z M 18.333984 49.666016 L 18.326172 49.693359 C 18.318072 49.701859 18.305105 49.716009 18.296875 49.724609 C 17.982728 50.052855 17.587726 50.477746 17.185547 50.923828 L 17.333984 50.666016 L 18 50 L 18.333984 49.666016 z M 28.333984 49.666016 L 28.326172 49.693359 C 28.318072 49.701859 28.305105 49.716009 28.296875 49.724609 C 27.982728 50.052855 27.587726 50.477746 27.185547 50.923828 L 27.333984 50.666016 L 28 50 L 28.333984 49.666016 z M 34.333984 49.666016 L 34.326172 49.693359 C 34.008232 50.025182 33.599871 50.466471 33.1875 50.923828 L 33.333984 50.666016 L 34 50 L 34.333984 49.666016 z M 42.333984 49.666016 L 42.326172 49.693359 C 42.318072 49.701859 42.305105 49.716009 42.296875 49.724609 C 41.982728 50.052855 41.587726 50.477746 41.185547 50.923828 L 41.333984 50.666016 L 42 50 L 42.333984 49.666016 z M 23.671875 50.328125 L 23.658203 50.351562 C 23.5392 50.472927 23.499737 50.513055 23.304688 50.716797 L 23.333984 50.666016 L 23.671875 50.328125 z M 15.666016 50.333984 L 15.654297 50.353516 C 15.535875 50.47431 15.499215 50.513703 15.306641 50.714844 L 15.333984 50.666016 L 15.666016 50.333984 z M 21.666016 50.333984 L 21.654297 50.353516 C 21.53555 50.474641 21.497951 50.51492 21.304688 50.716797 L 21.333984 50.666016 L 21.666016 50.333984 z M 25.666016 50.333984 L 25.654297 50.353516 C 25.535875 50.47431 25.499215 50.513703 25.306641 50.714844 L 25.333984 50.666016 L 25.666016 50.333984 z M 31.666016 50.333984 L 31.654297 50.353516 C 31.5349 50.475304 31.495427 50.517353 31.300781 50.720703 L 31.330078 50.669922 L 31.666016 50.333984 z M 39.666016 50.333984 L 39.654297 50.353516 C 39.535875 50.47431 39.499215 50.513703 39.306641 50.714844 L 39.333984 50.666016 L 39.666016 50.333984 z M 45.666016 50.333984 L 45.654297 50.353516 C 45.5349 50.475304 45.495427 50.517353 45.300781 50.720703 L 45.330078 50.669922 L 45.666016 50.333984 z M 32.345703 50.646484 L 32.332031 50.669922 L 32.335938 50.65625 C 32.339537 50.65255 32.342003 50.650284 32.345703 50.646484 z M 46.345703 50.646484 L 46.332031 50.669922 L 46.335938 50.65625 C 46.339537 50.65255 46.342003 50.650284 46.345703 50.646484 z "
       transform="translate(0,1058.5196)"
       id="path4256" />
    <path
       style="opacity:1;fill:#884b1f;fill-opacity:1;stroke:none;stroke-width:0.1;stroke-linecap:square;stroke-linejoin:miter;stroke-miterlimit:4;stroke-dasharray:none;stroke-dashoffset:0;stroke-opacity:1"
       d="M 3 58 C 3 58.554038 3.4459619 59 4 59 L 60 59 C 60.554038 59 61 58.554038 61 58 L 3 58 z "
       transform="translate(0,1058.5196)"
       id="rect4157" />
    <path
       style="fill:#1c3867;fill-rule:evenodd;stroke:none;stroke-width:1px;stroke-linecap:butt;stroke-linejoin:miter;stroke-opacity:1;fill-opacity:1"
       d="m 7,1113.5196 11,-14 c 0,0 -6,11 -8,12 -2,1 -3,2 -3,2 z"
       id="path4194"
       inkscape:connector-curvature="0" />
    <path
       inkscape:connector-curvature="0"
       id="path4196"
       d="m 9,1109.5196 11,-14 c 0,0 -6,11 -8,12 -2,1 -3,2 -3,2 z"
       style="fill:#1c3867;fill-opacity:1;fill-rule:evenodd;stroke:none;stroke-width:1px;stroke-linecap:butt;stroke-linejoin:miter;stroke-opacity:1" />
    <path
       style="fill:#1c3867;fill-opacity:1;fill-rule:evenodd;stroke:none;stroke-width:1px;stroke-linecap:butt;stroke-linejoin:miter;stroke-opacity:1"
       d="m 11,1109.5196 11,-14 c 0,0 -6,11 -8,12 -2,1 -3,2 -3,2 z"
       id="path4198"
       inkscape:connector-curvature="0" />
    <path
       inkscape:connector-curvature="0"
       id="path4200"
       d="m 11,1111.5196 11,-14 c 0,0 -6,11 -8,12 -2,1 -3,2 -3,2 z"
       style="fill:#1c3867;fill-opacity:1;fill-rule:evenodd;stroke:none;stroke-width:1px;stroke-linecap:butt;stroke-linejoin:miter;stroke-opacity:1" />
    <path
       style="fill:#1c3867;fill-opacity:1;fill-rule:evenodd;stroke:none;stroke-width:1px;stroke-linecap:butt;stroke-linejoin:miter;stroke-opacity:1"
       d="m 9,1113.5196 11,-14 c 0,0 -6,11 -8,12 -2,1 -3,2 -3,2 z"
       id="path4203"
       inkscape:connector-curvature="0" />
    <path
       inkscape:connector-curvature="0"
       id="path4205"
       d="m 13,1111.5196 11,-14 c 0,0 -6,11 -8,12 -2,1 -3,2 -3,2 z"
       style="fill:#1c3867;fill-opacity:1;fill-rule:evenodd;stroke:none;stroke-width:1px;stroke-linecap:butt;stroke-linejoin:miter;stroke-opacity:1" />
    <path
       style="fill:#1c3867;fill-opacity:1;fill-rule:evenodd;stroke:none;stroke-width:1px;stroke-linecap:butt;stroke-linejoin:miter;stroke-opacity:1"
       d="m 13,1111.5196 11,-14 c 0,0 -6,11 -8,12 -2,1 -3,2 -3,2 z"
       id="path4207"
       inkscape:connector-curvature="0" />
    <path
       inkscape:connector-curvature="0"
       id="path4209"
       d="m 13,1105.5196 11,-14 c 0,0 -6,11 -8,12 -2,1 -3,2 -3,2 z"
       style="fill:#1c3867;fill-opacity:1;fill-rule:evenodd;stroke:none;stroke-width:1px;stroke-linecap:butt;stroke-linejoin:miter;stroke-opacity:1" />
    <path
       style="fill:#1c3867;fill-opacity:1;fill-rule:evenodd;stroke:none;stroke-width:1px;stroke-linecap:butt;stroke-linejoin:miter;stroke-opacity:1"
       d="m 17,1101.5196 11,-14 c 0,0 -6,11 -8,12 -2,1 -3,2 -3,2 z"
       id="path4211"
       inkscape:connector-curvature="0" />
    <path
       inkscape:connector-curvature="0"
       id="path4213"
       d="m 17,1105.5196 11,-14 c 0,0 -6,11 -8,12 -2,1 -3,2 -3,2 z"
       style="fill:#1c3867;fill-opacity:1;fill-rule:evenodd;stroke:none;stroke-width:1px;stroke-linecap:butt;stroke-linejoin:miter;stroke-opacity:1" />
    <path
       style="fill:#1c3867;fill-opacity:1;fill-rule:evenodd;stroke:none;stroke-width:1px;stroke-linecap:butt;stroke-linejoin:miter;stroke-opacity:1"
       d="m 13,1107.5196 11,-14 c 0,0 -6,11 -8,12 -2,1 -3,2 -3,2 z"
       id="path4215"
       inkscape:connector-curvature="0" />
    <path
       inkscape:connector-curvature="0"
       id="path4217"
       d="m 15,1105.5196 11,-14 c 0,0 -6,11 -8,12 -2,1 -3,2 -3,2 z"
       style="fill:#1c3867;fill-opacity:1;fill-rule:evenodd;stroke:none;stroke-width:1px;stroke-linecap:butt;stroke-linejoin:miter;stroke-opacity:1" />
    <path
       style="fill:#1c3867;fill-opacity:1;fill-rule:evenodd;stroke:none;stroke-width:1px;stroke-linecap:butt;stroke-linejoin:miter;stroke-opacity:1"
       d="m 17,1103.5196 11,-14 c 0,0 -6,11 -8,12 -2,1 -3,2 -3,2 z"
       id="path4219"
       inkscape:connector-curvature="0" />
    <path
       inkscape:connector-curvature="0"
       id="path4221"
       d="m 17,1111.5196 11,-14 c 0,0 -6,11 -8,12 -2,1 -3,2 -3,2 z"
       style="fill:#1c3867;fill-opacity:1;fill-rule:evenodd;stroke:none;stroke-width:1px;stroke-linecap:butt;stroke-linejoin:miter;stroke-opacity:1" />
    <path
       style="fill:#1c3867;fill-opacity:1;fill-rule:evenodd;stroke:none;stroke-width:1px;stroke-linecap:butt;stroke-linejoin:miter;stroke-opacity:1"
       d="m 13,1111.5196 11,-14 c 0,0 -6,11 -8,12 -2,1 -3,2 -3,2 z"
       id="path4223"
       inkscape:connector-curvature="0" />
    <path
       inkscape:connector-curvature="0"
       id="path4225"
       d="m 15,1113.5196 11,-14 c 0,0 -6,11 -8,12 -2,1 -3,2 -3,2 z"
       style="fill:#1c3867;fill-opacity:1;fill-rule:evenodd;stroke:none;stroke-width:1px;stroke-linecap:butt;stroke-linejoin:miter;stroke-opacity:1" />
    <path
       style="fill:#1c3867;fill-opacity:1;fill-rule:evenodd;stroke:none;stroke-width:1px;stroke-linecap:butt;stroke-linejoin:miter;stroke-opacity:1"
       d="m 13,1113.5196 11,-14 c 0,0 -6,11 -8,12 -2,1 -3,2 -3,2 z"
       id="path4227"
       inkscape:connector-curvature="0" />
    <path
       inkscape:connector-curvature="0"
       id="path4229"
       d="m 15,1111.5196 11,-14 c 0,0 -6,11 -8,12 -2,1 -3,2 -3,2 z"
       style="fill:#1c3867;fill-opacity:1;fill-rule:evenodd;stroke:none;stroke-width:1px;stroke-linecap:butt;stroke-linejoin:miter;stroke-opacity:1" />
    <path
       style="fill:#1c3867;fill-opacity:1;fill-rule:evenodd;stroke:none;stroke-width:1px;stroke-linecap:butt;stroke-linejoin:miter;stroke-opacity:1"
       d="m 17,1109.5196 11,-14 c 0,0 -6,11 -8,12 -2,1 -3,2 -3,2 z"
       id="path4232"
       inkscape:connector-curvature="0" />
    <path
       inkscape:connector-curvature="0"
       id="path4234"
       d="m 17,1109.5196 11,-14 c 0,0 -6,11 -8,12 -2,1 -3,2 -3,2 z"
       style="fill:#1c3867;fill-opacity:1;fill-rule:evenodd;stroke:none;stroke-width:1px;stroke-linecap:butt;stroke-linejoin:miter;stroke-opacity:1" />
    <path
       style="fill:#172f55;fill-opacity:1;fill-rule:evenodd;stroke:none;stroke-width:1px;stroke-linecap:butt;stroke-linejoin:miter;stroke-opacity:1"
       d="M 41.125 19 C 41.125 19 41.652161 19.947703 42.378906 21.220703 L 41.839844 21.908203 L 41.125 21 C 41.125 21 41.473151 21.6218 41.71875 22.0625 L 40.839844 23.181641 L 39.125 21 C 39.125 21 39.746463 22.110103 40.5625 23.533203 L 40.052734 24.181641 L 39.708984 23.744141 C 39.834759 23.516841 40.125 23 40.125 23 L 39.625 23.636719 L 39.125 23 C 39.125 23 39.415241 23.516841 39.541016 23.744141 L 37.839844 25.908203 L 37.125 25 C 37.125 25 37.473151 25.6218 37.71875 26.0625 L 37.625 26.181641 L 35.125 23 C 35.125 23 36.074219 24.693388 37.234375 26.679688 L 36.052734 28.181641 L 35.708984 27.744141 C 35.834759 27.516841 36.125 27 36.125 27 L 35.625 27.636719 L 35.125 27 C 35.125 27 35.415241 27.516841 35.541016 27.744141 L 34.625 28.908203 L 33.125 27 C 33.125 27 33.652161 27.947703 34.378906 29.220703 L 33.837891 29.908203 L 33.125 29 C 33.125 29 33.473151 29.6218 33.71875 30.0625 L 29.990234 34.806641 L 27 31 C 27 31 28.105443 33.020162 29.521484 35.404297 L 25.125 41 C 25.125 41 25.984751 40.179556 27.615234 39.285156 L 23.125 45 C 23.125 45 24.125 44 26.125 43 C 26.457021 42.834003 26.906401 42.371651 27.416016 41.740234 C 27.447559 41.797074 27.490202 41.871245 27.529297 41.941406 L 25.125 45 C 25.125 45 26.125 44 28.125 43 C 28.420952 43.518405 28.857188 44.236567 29.228516 44.869141 L 29.125 45 C 29.125 45 29.23299 44.911011 29.246094 44.898438 C 29.676766 45.631734 30.040113 46.274857 30.523438 47.060547 L 29 49 C 29 49 29.64179 48.377583 30.878906 47.626953 C 30.929974 47.708718 30.980043 47.789686 31.03125 47.871094 L 27 53 C 27 53 28 52 30 51 C 30.441845 50.779078 31.08412 50.054609 31.808594 49.083984 C 31.850777 49.148217 31.889601 49.204091 31.931641 49.267578 L 29 53 C 29 53 30 52 32 51 C 32.197125 50.901437 32.441764 50.682903 32.707031 50.410156 C 32.827614 50.581087 32.949503 50.756771 33.066406 50.916016 L 33 51 C 33 51 33.074401 50.93912 33.080078 50.933594 C 33.350671 51.301565 33.606722 51.62945 33.849609 51.917969 L 33 53 C 33 53 33.379886 52.645935 34.056641 52.166016 C 34.42225 52.576953 34.744276 52.872138 35 53 C 37 54 38 55 38 55 L 35.873047 52.291016 C 35.925157 52.252788 35.999748 52.206361 36.056641 52.166016 C 36.243537 52.376083 36.419226 52.559469 36.580078 52.701172 C 36.733887 52.83667 36.875 52.9375 37 53 C 39 54 40 55 40 55 L 37.207031 51.443359 C 37.301803 51.388817 37.398997 51.334606 37.5 51.279297 C 39.137325 52.175896 40 53 40 53 L 38.275391 50.804688 C 38.348575 50.748198 38.419931 50.693299 38.5 50.619141 C 38.683577 50.789165 38.854775 50.927388 39 51 C 39.084889 51.042445 39.14137 51.082632 39.222656 51.125 C 39.934317 52.074377 40.564458 52.782229 41 53 C 43 54 44 55 44 55 L 40.675781 50.769531 C 40.78975 50.86195 40.903524 50.951762 41 51 C 41.084889 51.042445 41.14137 51.082632 41.222656 51.125 C 41.934317 52.074377 42.564458 52.782229 43 53 C 45 54 46 55 46 55 L 42.675781 50.769531 C 42.78975 50.86195 42.903524 50.951762 43 51 C 45 52 46 53 46 53 L 41.267578 46.974609 C 41.346179 46.854348 41.421133 46.743451 41.5 46.621094 C 42.878986 48.76051 44.233306 50.616653 45 51 C 45.084889 51.042445 45.14137 51.082632 45.222656 51.125 C 45.934317 52.074377 46.564458 52.782229 47 53 C 49 54 50 55 50 55 L 46.679688 50.771484 C 46.792243 50.862452 46.904571 50.952285 47 51 C 47.084889 51.042445 47.14137 51.082632 47.222656 51.125 C 47.934317 52.074377 48.564458 52.782229 49 53 C 51 54 52 55 52 55 L 48.675781 50.769531 C 48.78975 50.86195 48.903524 50.951762 49 51 C 51 52 52 53 52 53 L 48.675781 48.769531 C 48.78975 48.86195 48.903524 48.951762 49 49 C 51 50 52 51 52 51 L 46.175781 43.587891 C 46.637713 43.865083 47.038817 44.125965 47.333984 44.345703 C 48.768241 46.601511 50.193707 48.596854 51 49 C 51.084889 49.042445 51.14137 49.082632 51.222656 49.125 C 51.934317 50.074377 52.564458 50.782229 53 51 C 55 52 56 53 56 53 L 51.511719 47.285156 C 51.75155 47.416749 52.004453 47.549971 52.208984 47.675781 C 53.325149 49.327816 54.367576 50.683788 55 51 C 57 52 58 53 58 53 L 53.509766 47.285156 C 55.140249 48.179552 56 49 56 49 L 51.412109 43.160156 C 53.199491 44.102685 54.125 45 54.125 45 L 49.634766 39.285156 C 49.87547 39.417156 50.128815 39.551534 50.333984 39.677734 C 51.449799 41.329134 52.492748 42.6839 53.125 43 C 54.125 43.5 54.875 44 55.375 44.375 C 55.875 44.75 56.125 45 56.125 45 L 52.800781 40.769531 C 52.91475 40.861531 53.028524 40.9518 53.125 41 C 55.125 42 56.125 43 56.125 43 L 50.400391 35.712891 C 50.992991 36.081191 51.289878 36.308969 51.576172 36.542969 C 52.972082 38.714569 54.34918 40.6121 55.125 41 C 57.125 42 58.125 43 58.125 43 L 54.800781 38.769531 C 54.91475 38.861531 55.028524 38.9518 55.125 39 C 57.125 40 58.125 41 58.125 41 L 52.400391 33.712891 C 53.546873 34.425391 54.125 35 54.125 35 L 43.708984 21.744141 C 43.834759 21.516841 44.125 21 44.125 21 L 43.625 21.636719 L 43.125 21 C 43.125 21 43.415241 21.516841 43.541016 21.744141 L 43.410156 21.910156 L 42.871094 21.222656 C 43.598248 19.948856 44.125 19 44.125 19 L 42.625 20.908203 L 41.125 19 z M 42.625 21.640625 C 42.75331 21.864025 42.910773 22.126188 43.050781 22.367188 L 42.625 22.910156 L 42.199219 22.367188 C 42.339227 22.126188 42.49669 21.864025 42.625 21.640625 z M 43.625 21.894531 C 43.807595 22.223431 43.871184 22.338003 44.195312 22.908203 L 43.53125 22.0625 C 43.57006 21.9925 43.59156 21.954831 43.625 21.894531 z M 42.039062 22.638672 C 42.142094 22.820772 42.263843 23.017656 42.380859 23.222656 L 41.839844 23.910156 L 41.708984 23.744141 C 41.834759 23.516841 42.125 23 42.125 23 L 41.625 23.636719 L 41.527344 23.511719 C 41.712779 23.199219 41.866186 22.934872 42.039062 22.638672 z M 43.210938 22.638672 C 43.383814 22.934872 43.537221 23.199219 43.722656 23.511719 L 43.410156 23.908203 L 42.871094 23.222656 C 42.987953 23.017956 43.10803 22.820572 43.210938 22.638672 z M 41.466797 23.613281 C 41.485387 23.647281 41.518816 23.704341 41.541016 23.744141 L 41.410156 23.910156 L 41.34375 23.824219 C 41.38938 23.748219 41.42175 23.688981 41.466797 23.613281 z M 43.78125 23.613281 C 44.536349 24.883081 45.295312 26.119338 46.103516 27.335938 L 43.53125 24.0625 C 43.634986 23.8764 43.717627 23.728581 43.78125 23.613281 z M 42.625 23.640625 C 42.75331 23.864025 42.910773 24.126188 43.050781 24.367188 L 42.625 24.908203 L 42.199219 24.367188 C 42.339227 24.126188 42.49669 23.864025 42.625 23.640625 z M 39.625 23.894531 C 39.72181 24.068931 39.756832 24.132159 39.896484 24.380859 L 39.267578 25.181641 L 39.125 25 C 39.125 25 39.233271 25.191137 39.244141 25.210938 L 38.267578 26.453125 L 38.199219 26.367188 C 38.876902 25.200687 39.312913 24.456731 39.625 23.894531 z M 41.625 23.894531 C 41.65844 23.954531 41.67994 23.9925 41.71875 24.0625 L 41.625 24.181641 L 41.53125 24.0625 C 41.57006 23.9925 41.59156 23.954831 41.625 23.894531 z M 41.039062 24.345703 C 41.043163 24.355703 41.046761 24.359187 41.050781 24.367188 L 40.953125 24.490234 C 40.985575 24.437234 41.006802 24.399203 41.039062 24.345703 z M 41.210938 24.638672 C 41.219037 24.652672 41.226275 24.665688 41.234375 24.679688 L 41.054688 24.908203 C 41.116057 24.800203 41.153967 24.739372 41.210938 24.638672 z M 42.039062 24.638672 C 42.096032 24.739372 42.133943 24.800203 42.195312 24.908203 L 42.015625 24.679688 C 42.023725 24.665688 42.030992 24.652672 42.039062 24.638672 z M 43.210938 24.638672 C 44.101571 26.164572 45.068181 27.777825 46.097656 29.328125 L 42.871094 25.220703 C 42.987685 25.016503 43.108244 24.820172 43.210938 24.638672 z M 41.625 25.345703 C 41.725063 25.514903 41.801105 25.649466 41.904297 25.822266 L 41.837891 25.908203 L 41.527344 25.511719 C 41.562634 25.451719 41.59011 25.404703 41.625 25.345703 z M 41.466797 25.613281 C 41.530457 25.728581 41.614822 25.876 41.71875 26.0625 L 41.625 26.181641 L 41.34375 25.824219 C 41.38938 25.748219 41.42175 25.688981 41.466797 25.613281 z M 41.039062 26.345703 C 41.103243 26.456203 41.168025 26.566087 41.234375 26.679688 L 40.839844 27.181641 L 40.666016 26.960938 C 40.798772 26.744637 40.909104 26.560703 41.039062 26.345703 z M 42.210938 26.345703 C 42.243198 26.398703 42.264415 26.436734 42.296875 26.490234 L 42.199219 26.367188 C 42.203319 26.357188 42.206918 26.353703 42.210938 26.345703 z M 38.039062 26.636719 C 38.059582 26.672719 38.053109 26.662219 38.074219 26.699219 L 38.052734 26.726562 L 38.015625 26.675781 C 38.023434 26.662284 38.031336 26.650149 38.039062 26.636719 z M 42.039062 26.636719 C 42.096032 26.737419 42.133943 26.79825 42.195312 26.90625 L 42.015625 26.677734 C 42.023725 26.663734 42.030992 26.650719 42.039062 26.636719 z M 40.4375 27.320312 C 40.47318 27.382312 40.52569 27.46705 40.5625 27.53125 L 40.052734 28.179688 L 39.96875 28.070312 C 40.126349 27.821312 40.281334 27.572412 40.4375 27.320312 z M 41.625 27.34375 C 41.866027 27.75135 42.040038 28.068888 42.296875 28.492188 L 41.527344 27.509766 C 41.562634 27.449766 41.59011 27.40275 41.625 27.34375 z M 41.46875 27.611328 C 41.638426 27.918828 41.770494 28.160297 42.193359 28.904297 L 41.34375 27.822266 C 41.38956 27.745266 41.42352 27.687328 41.46875 27.611328 z M 35.625 27.894531 C 35.72181 28.068931 35.756832 28.132159 35.896484 28.380859 L 35.267578 29.181641 L 35.125 29 C 35.125 29 35.233119 29.192791 35.244141 29.212891 L 35.052734 29.455078 L 34.960938 29.337891 L 34.921875 29.287109 L 34.871094 29.220703 C 35.264601 28.531403 35.414655 28.273431 35.625 27.894531 z M 39.839844 28.279297 C 39.867254 28.328297 39.867324 28.329259 39.896484 28.380859 L 39.839844 28.455078 L 39.779297 28.376953 C 39.799787 28.344953 39.819354 28.312297 39.839844 28.279297 z M 41.039062 28.345703 C 41.263278 28.731803 41.474979 29.094319 41.722656 29.511719 L 41.410156 29.908203 L 40.666016 28.960938 C 40.798772 28.744637 40.909104 28.560703 41.039062 28.345703 z M 41.78125 29.613281 C 41.82648 29.689281 41.86044 29.747519 41.90625 29.824219 L 41.625 30.181641 L 41.53125 30.0625 C 41.634986 29.8764 41.717627 29.728581 41.78125 29.613281 z M 34.625 29.640625 C 34.66129 29.703625 34.70881 29.781003 34.746094 29.845703 L 34.267578 30.455078 L 34.199219 30.367188 C 34.339227 30.126188 34.49669 29.864025 34.625 29.640625 z M 42.210938 30.345703 C 42.340612 30.560203 42.451523 30.743084 42.583984 30.958984 L 42.410156 31.181641 L 42.015625 30.679688 C 42.081975 30.566088 42.146756 30.456203 42.210938 30.345703 z M 34.039062 30.636719 C 34.059582 30.672719 34.053109 30.660266 34.074219 30.697266 L 33.791016 31.058594 C 33.877767 30.911102 33.955517 30.779846 34.039062 30.636719 z M 48.800781 30.769531 C 48.91475 30.861531 49.028524 30.9518 49.125 31 C 49.20989 31.042 49.26637 31.083 49.347656 31.125 C 49.549342 31.3941 49.742281 31.638628 49.927734 31.861328 C 50.2376 32.379728 50.504798 32.827569 50.832031 33.355469 L 48.800781 30.769531 z M 39.400391 30.962891 C 39.512307 31.153491 39.606031 31.315219 39.722656 31.511719 L 39.5625 31.714844 L 39.201172 31.255859 C 39.267031 31.160474 39.332645 31.066617 39.400391 30.962891 z M 39.171875 31.298828 C 39.193297 31.336964 39.418811 31.727233 39.474609 31.826172 L 39.410156 31.908203 L 39.060547 31.462891 C 39.098091 31.406712 39.134973 31.352374 39.171875 31.298828 z M 42.8125 31.322266 C 42.95283 31.548836 43.092728 31.75586 43.232422 31.976562 L 43.134766 32.101562 L 42.6875 31.533203 C 42.72431 31.469203 42.77682 31.384666 42.8125 31.322266 z M 39.78125 31.613281 C 39.82648 31.689281 39.86044 31.747519 39.90625 31.824219 L 39.777344 31.988281 L 39.65625 31.835938 C 39.697488 31.761925 39.74965 31.670548 39.78125 31.613281 z M 39.570312 31.994141 C 39.588877 32.027014 39.635282 32.105497 39.65625 32.142578 L 39.625 32.181641 L 39.53125 32.0625 C 39.547136 32.034001 39.555409 32.020864 39.570312 31.994141 z M 43.347656 32.15625 C 43.5442 32.464862 43.740529 32.778801 43.9375 33.078125 L 43.919922 33.101562 L 43.275391 32.283203 C 43.304023 32.232371 43.321303 32.203106 43.347656 32.15625 z M 48.802734 32.769531 C 48.916182 32.861531 49.02891 32.952 49.125 33 C 49.293328 33.084 49.412245 33.164547 49.566406 33.248047 C 49.99111 33.967647 50.363204 34.596409 50.830078 35.349609 L 48.802734 32.769531 z M 38.138672 32.810547 C 38.154102 32.837547 38.181556 32.882156 38.197266 32.910156 L 38.128906 32.824219 C 38.132306 32.824219 38.135172 32.814547 38.138672 32.810547 z M 43.947266 33.09375 C 43.998657 33.171803 44.050071 33.256465 44.101562 33.333984 L 43.933594 33.119141 C 43.935308 33.116078 43.945891 33.096205 43.947266 33.09375 z M 35.673828 33.429688 C 35.713078 33.495688 35.743468 33.548434 35.783203 33.615234 L 35.632812 33.806641 L 35.501953 33.640625 C 35.558866 33.571226 35.614125 33.50662 35.673828 33.429688 z M 35.417969 33.742188 C 35.456944 33.811729 35.481456 33.854421 35.529297 33.939453 L 34.632812 35.080078 L 34.605469 35.042969 C 34.848402 34.646546 35.077043 34.271553 35.322266 33.861328 C 35.353973 33.823254 35.386299 33.780298 35.417969 33.742188 z M 51.316406 34.335938 C 51.470774 34.450538 51.466639 34.453469 51.576172 34.542969 C 51.755382 34.821769 51.926141 35.068938 52.103516 35.335938 L 51.316406 34.335938 z M 36.625 35.023438 C 36.669481 35.095917 36.714921 35.166311 36.759766 35.238281 L 36.609375 35.046875 C 36.614411 35.038687 36.619964 35.031632 36.625 35.023438 z M 36.376953 35.412109 C 36.413712 35.476006 36.458228 35.551535 36.496094 35.617188 L 35.990234 36.261719 L 35.904297 36.150391 C 36.06179 35.903972 36.219885 35.664193 36.376953 35.412109 z M 34.625 35.861328 C 34.64021 35.887618 34.654561 35.914888 34.669922 35.941406 L 32.777344 38.351562 L 32.611328 38.140625 C 32.957964 37.639366 33.314792 37.101516 33.673828 36.542969 C 33.9144 36.34634 34.200299 36.136243 34.625 35.861328 z M 35.765625 36.367188 C 35.793597 36.416967 35.796553 36.420056 35.826172 36.472656 L 35.777344 36.535156 L 35.710938 36.451172 C 35.728954 36.423265 35.747611 36.395168 35.765625 36.367188 z M 35.322266 37.060547 C 35.327832 37.069971 35.334266 37.080406 35.339844 37.089844 L 35.146484 37.335938 C 35.205241 37.247498 35.263502 37.149777 35.322266 37.060547 z M 31.865234 39.166016 C 31.907729 39.23042 31.947901 39.287948 31.990234 39.351562 L 31.632812 39.806641 L 31.5 39.634766 C 31.619599 39.485353 31.739491 39.333114 31.865234 39.166016 z M 29.615234 39.287109 L 29.419922 39.535156 L 29.34375 39.4375 C 29.437322 39.386586 29.522091 39.338219 29.615234 39.287109 z M 29.269531 39.480469 C 29.285451 39.509347 29.329292 39.588247 29.349609 39.625 L 27.634766 41.806641 L 27.498047 41.632812 C 27.938119 41.07893 28.416398 40.417166 28.916016 39.677734 C 29.019594 39.614048 29.148995 39.54661 29.269531 39.480469 z M 31.419922 39.728516 C 31.436594 39.758276 31.514281 39.894449 31.535156 39.931641 L 30.632812 41.080078 L 30.417969 40.804688 C 30.701833 40.579634 31.04912 40.183924 31.419922 39.728516 z M 32.449219 40.769531 L 32.419922 40.806641 L 32.412109 40.796875 C 32.425282 40.786286 32.436014 40.780249 32.449219 40.769531 z M 42.949219 40.875 C 42.950414 40.875889 42.951931 40.876069 42.953125 40.876953 L 42.927734 40.910156 C 42.935831 40.895914 42.941808 40.887819 42.949219 40.875 z M 44.949219 40.875 C 45.008977 40.919451 45.072687 40.973864 45.125 41 C 45.130801 41.002901 45.13484 41.004912 45.140625 41.007812 C 45.369051 41.31397 45.593543 41.610034 45.802734 41.861328 C 45.967476 42.136907 46.144635 42.41599 46.314453 42.695312 L 44.921875 40.921875 C 44.930378 40.907233 44.941197 40.888923 44.949219 40.875 z M 32.142578 40.988281 C 32.162108 41.022672 32.178944 41.052231 32.199219 41.087891 L 31.419922 42.080078 L 31.044922 41.603516 C 31.371653 41.406552 31.713674 41.205663 32.125 41 C 32.130122 40.997452 32.137362 40.99106 32.142578 40.988281 z M 30.125 41 C 30.191358 41.116439 30.298282 41.29238 30.369141 41.416016 L 29.847656 42.080078 L 29.492188 41.626953 C 29.631532 41.453313 29.755008 41.321555 29.902344 41.125 C 29.983634 41.083 30.040111 41.042 30.125 41 z M 43.5 41.345703 C 43.600547 41.515718 43.677545 41.650601 43.78125 41.824219 L 43.705078 41.919922 L 43.394531 41.525391 C 43.428296 41.467564 43.462257 41.409523 43.5 41.345703 z M 33.560547 41.542969 C 33.605176 41.599207 33.655511 41.670957 33.699219 41.724609 L 33.634766 41.806641 L 33.492188 41.626953 C 33.515466 41.597946 33.537022 41.572667 33.560547 41.542969 z M 29.410156 41.726562 C 29.517687 41.918189 29.538775 41.95771 29.708984 42.257812 L 29.125 43 C 29.125 43 29.393439 42.750935 29.806641 42.431641 C 29.954677 42.691747 30.197238 43.101171 30.375 43.410156 L 29.632812 44.353516 L 28.414062 42.798828 C 28.694869 42.576004 29.043586 42.175873 29.410156 41.726562 z M 33.40625 41.730469 C 33.442651 41.796309 33.481827 41.861418 33.527344 41.943359 L 33.419922 42.080078 L 33.273438 41.892578 C 33.316852 41.840952 33.361818 41.78489 33.40625 41.730469 z M 30.630859 41.859375 C 30.757734 42.079327 30.905876 42.325524 31.042969 42.560547 L 30.634766 43.080078 L 30.007812 42.283203 C 30.185514 42.153085 30.398107 42.010495 30.630859 41.859375 z M 32.914062 42.330078 C 32.977424 42.439463 32.979289 42.443802 33.044922 42.556641 L 32.419922 43.353516 L 32.136719 42.992188 C 32.353518 42.880678 32.616284 42.650022 32.914062 42.330078 z M 44.085938 42.345703 C 44.144319 42.442283 44.205243 42.534614 44.263672 42.630859 L 44.066406 42.378906 C 44.072809 42.367911 44.079547 42.356707 44.085938 42.345703 z M 38.796875 42.542969 C 38.935731 42.738043 39.071545 42.922989 39.205078 43.101562 L 38.714844 43.726562 L 38.349609 43.263672 C 38.501199 43.018535 38.648328 42.787514 38.796875 42.542969 z M 31.503906 43.347656 C 31.643558 43.583679 31.752931 43.773087 31.898438 44.015625 L 31.634766 44.351562 L 31.044922 43.603516 C 31.18369 43.519862 31.349879 43.433782 31.503906 43.347656 z M 33.390625 43.410156 L 32.927734 44 L 32.751953 43.775391 C 32.937308 43.658052 33.173377 43.533968 33.390625 43.410156 z M 30.634766 43.855469 C 30.831265 44.195124 31.006817 44.502065 31.224609 44.873047 L 31.125 45 C 31.125 45 31.22998 44.914074 31.242188 44.902344 C 31.395694 45.1637 31.497487 45.346931 31.658203 45.617188 L 31.142578 46.273438 L 29.740234 44.488281 C 29.980245 44.297453 30.223277 44.122391 30.634766 43.855469 z M 37.886719 44.003906 C 37.984004 44.166129 38.047148 44.285302 38.146484 44.449219 L 37.927734 44.726562 L 37.652344 44.376953 C 37.730899 44.254052 37.808245 44.128161 37.886719 44.003906 z M 45.046875 44.150391 C 45.135178 44.212753 45.251115 44.28647 45.328125 44.34375 C 45.416383 44.482352 45.500572 44.625882 45.589844 44.763672 C 45.721899 44.967497 45.845678 45.13694 45.976562 45.333984 L 45.046875 44.150391 z M 32.041016 44.261719 C 32.150381 44.443007 32.222459 44.575165 32.333984 44.757812 L 32.142578 45 L 31.740234 44.488281 C 31.85041 44.400682 31.894705 44.368214 32.041016 44.261719 z M 35.808594 47.083984 C 35.851295 47.149006 35.89104 47.205274 35.933594 47.269531 L 35.714844 47.546875 L 35.585938 47.380859 C 35.658352 47.286976 35.734221 47.183627 35.808594 47.083984 z M 32.876953 47.626953 C 32.927727 47.708249 32.978385 47.788198 33.029297 47.869141 L 32.712891 48.271484 L 32.537109 48.048828 C 32.620942 47.927289 32.706074 47.801504 32.791016 47.675781 C 32.81631 47.660223 32.851119 47.642632 32.876953 47.626953 z M 33.818359 49.101562 C 33.924312 49.26278 34.025987 49.404403 34.130859 49.560547 L 33.927734 49.818359 L 33.585938 49.380859 C 33.64829 49.300021 33.713527 49.210134 33.777344 49.125 C 33.792382 49.117162 33.803198 49.109405 33.818359 49.101562 z M 37.5 49.496094 C 37.544786 49.553345 37.584997 49.599529 37.628906 49.654297 L 37.5 49.818359 L 37.371094 49.654297 C 37.415003 49.599529 37.455214 49.553345 37.5 49.496094 z M 34.388672 49.939453 C 34.485188 50.080267 34.584916 50.232473 34.679688 50.367188 C 34.738731 50.451116 34.801141 50.553482 34.859375 50.634766 L 34.714844 50.818359 L 34.150391 50.101562 C 34.227391 50.047922 34.303619 49.996004 34.388672 49.939453 z M 36.677734 50.769531 C 36.694507 50.783116 36.708195 50.792017 36.724609 50.804688 L 36.714844 50.818359 L 36.677734 50.769531 z M 35.386719 51.34375 C 35.547672 51.55333 35.699963 51.740207 35.849609 51.917969 L 35.714844 52.089844 L 35.207031 51.445312 C 35.265276 51.411787 35.32612 51.377591 35.386719 51.34375 z "
       transform="translate(0,1058.5196)"
       id="path4237" />
    <path
       style="fill:#1c3867;fill-opacity:1;fill-rule:evenodd;stroke:none;stroke-width:1px;stroke-linecap:butt;stroke-linejoin:miter;stroke-opacity:1"
       d="m 36,1109.5196 -11,-14 c 0,0 6,11 8,12 2,1 3,2 3,2 z"
       id="path4239"
       inkscape:connector-curvature="0" />
    <path
       inkscape:connector-curvature="0"
       id="path4241"
       d="m 34,1109.5196 -11,-14 c 0,0 6,11 8,12 2,1 3,2 3,2 z"
       style="fill:#1c3867;fill-opacity:1;fill-rule:evenodd;stroke:none;stroke-width:1px;stroke-linecap:butt;stroke-linejoin:miter;stroke-opacity:1" />
    <path
       style="fill:#1c3867;fill-opacity:1;fill-rule:evenodd;stroke:none;stroke-width:1px;stroke-linecap:butt;stroke-linejoin:miter;stroke-opacity:1"
       d="m 34,1111.5196 -11,-14 c 0,0 6,11 8,12 2,1 3,2 3,2 z"
       id="path4243"
       inkscape:connector-curvature="0" />
    <path
       inkscape:connector-curvature="0"
       id="path4245"
       d="m 36,1113.5196 -11,-14 c 0,0 6,11 8,12 2,1 3,2 3,2 z"
       style="fill:#1c3867;fill-opacity:1;fill-rule:evenodd;stroke:none;stroke-width:1px;stroke-linecap:butt;stroke-linejoin:miter;stroke-opacity:1" />
    <path
       style="fill:#1c3867;fill-opacity:1;fill-rule:evenodd;stroke:none;stroke-width:1px;stroke-linecap:butt;stroke-linejoin:miter;stroke-opacity:1"
       d="m 32,1111.5196 -11,-14 c 0,0 6,11 8,12 2,1 3,2 3,2 z"
       id="path4247"
       inkscape:connector-curvature="0" />
    <path
       inkscape:connector-curvature="0"
       id="path4249"
       d="m 32,1111.5196 -11,-14 c 0,0 6,11 8,12 2,1 3,2 3,2 z"
       style="fill:#1c3867;fill-opacity:1;fill-rule:evenodd;stroke:none;stroke-width:1px;stroke-linecap:butt;stroke-linejoin:miter;stroke-opacity:1" />
    <path
       inkscape:connector-curvature="0"
       id="path4253"
       d="m 30,1105.5196 -11,-14 c 0,0 6,11 8,12 2,1 3,2 3,2 z"
       style="fill:#1c3867;fill-opacity:1;fill-rule:evenodd;stroke:none;stroke-width:1px;stroke-linecap:butt;stroke-linejoin:miter;stroke-opacity:1" />
    <path
       style="fill:#1c3867;fill-opacity:1;fill-rule:evenodd;stroke:none;stroke-width:1px;stroke-linecap:butt;stroke-linejoin:miter;stroke-opacity:1"
       d="m 28,1109.5196 -11,-14 c 0,0 6,11 8,12 2,1 3,2 3,2 z"
       id="path4255"
       inkscape:connector-curvature="0" />
    <path
       inkscape:connector-curvature="0"
       id="path4257"
       d="m 32,1107.5196 -11,-14 c 0,0 6,11 8,12 2,1 3,2 3,2 z"
       style="fill:#1c3867;fill-opacity:1;fill-rule:evenodd;stroke:none;stroke-width:1px;stroke-linecap:butt;stroke-linejoin:miter;stroke-opacity:1" />
    <path
       style="fill:#1c3867;fill-opacity:1;fill-rule:evenodd;stroke:none;stroke-width:1px;stroke-linecap:butt;stroke-linejoin:miter;stroke-opacity:1"
       d="m 30,1109.5196 -11,-14 c 0,0 6,11 8,12 2,1 3,2 3,2 z"
       id="path4259"
       inkscape:connector-curvature="0" />
    <path
       inkscape:connector-curvature="0"
       id="path4261"
       d="m 30,1109.5196 -11,-14 c 0,0 6,11 8,12 2,1 3,2 3,2 z"
       style="fill:#1c3867;fill-opacity:1;fill-rule:evenodd;stroke:none;stroke-width:1px;stroke-linecap:butt;stroke-linejoin:miter;stroke-opacity:1" />
    <path
       style="fill:#1c3867;fill-opacity:1;fill-rule:evenodd;stroke:none;stroke-width:1px;stroke-linecap:butt;stroke-linejoin:miter;stroke-opacity:1"
       d="m 28,1111.5196 -11,-14 c 0,0 6,11 8,12 2,1 3,2 3,2 z"
       id="path4263"
       inkscape:connector-curvature="0" />
    <path
       inkscape:connector-curvature="0"
       id="path4265"
       d="m 32,1111.5196 -11,-14 c 0,0 6,11 8,12 2,1 3,2 3,2 z"
       style="fill:#1c3867;fill-opacity:1;fill-rule:evenodd;stroke:none;stroke-width:1px;stroke-linecap:butt;stroke-linejoin:miter;stroke-opacity:1" />
    <path
       style="fill:#1c3867;fill-opacity:1;fill-rule:evenodd;stroke:none;stroke-width:1px;stroke-linecap:butt;stroke-linejoin:miter;stroke-opacity:1"
       d="m 30,1113.5196 -11,-14 c 0,0 6,11 8,12 2,1 3,2 3,2 z"
       id="path4267"
       inkscape:connector-curvature="0" />
    <path
       inkscape:connector-curvature="0"
       id="path4269"
       d="m 32,1113.5196 -11,-14 c 0,0 6,11 8,12 2,1 3,2 3,2 z"
       style="fill:#1c3867;fill-opacity:1;fill-rule:evenodd;stroke:none;stroke-width:1px;stroke-linecap:butt;stroke-linejoin:miter;stroke-opacity:1" />
    <path
       style="fill:#1c3867;fill-opacity:1;fill-rule:evenodd;stroke:none;stroke-width:1px;stroke-linecap:butt;stroke-linejoin:miter;stroke-opacity:1"
       d="m 30,1111.5196 -11,-14 c 0,0 6,11 8,12 2,1 3,2 3,2 z"
       id="path4271"
       inkscape:connector-curvature="0" />
    <path
       inkscape:connector-curvature="0"
       id="path4273"
       d="m 28,1109.5196 -11,-14 c 0,0 6,11 8,12 2,1 3,2 3,2 z"
       style="fill:#1c3867;fill-opacity:1;fill-rule:evenodd;stroke:none;stroke-width:1px;stroke-linecap:butt;stroke-linejoin:miter;stroke-opacity:1" />
    <path
       style="fill:#1c3867;fill-opacity:1;fill-rule:evenodd;stroke:none;stroke-width:1px;stroke-linecap:butt;stroke-linejoin:miter;stroke-opacity:1"
       d="m 28,1109.5196 -11,-14 c 0,0 6,11 8,12 2,1 3,2 3,2 z"
       id="path4275"
       inkscape:connector-curvature="0" />
    <path
       inkscape:connector-curvature="0"
       id="path4277"
       d="m 36,1105.5196 -11,-14 c 0,0 6,11 8,12 2,1 3,2 3,2 z"
       style="fill:#1c3867;fill-opacity:1;fill-rule:evenodd;stroke:none;stroke-width:1px;stroke-linecap:butt;stroke-linejoin:miter;stroke-opacity:1" />
    <path
       style="fill:#1c3867;fill-opacity:1;fill-rule:evenodd;stroke:none;stroke-width:1px;stroke-linecap:butt;stroke-linejoin:miter;stroke-opacity:1"
       d="m 36,1103.5196 -11,-14 c 0,0 6,11 8,12 2,1 3,2 3,2 z"
       id="path4279"
       inkscape:connector-curvature="0" />
    <path
       inkscape:connector-curvature="0"
       id="path4281"
       d="m 36,1101.5196 -11,-14 c 0,0 6,11 8,12 2,1 3,2 3,2 z"
       style="fill:#1c3867;fill-opacity:1;fill-rule:evenodd;stroke:none;stroke-width:1px;stroke-linecap:butt;stroke-linejoin:miter;stroke-opacity:1" />
    <path
       style="fill:#1c3867;fill-opacity:1;fill-rule:evenodd;stroke:none;stroke-width:1px;stroke-linecap:butt;stroke-linejoin:miter;stroke-opacity:1"
       d="m 36,1107.5196 -11,-14 c 0,0 6,11 8,12 2,1 3,2 3,2 z"
       id="path4283"
       inkscape:connector-curvature="0" />
    <path
       inkscape:connector-curvature="0"
       id="path4285"
       d="m 34,1103.5196 -11,-14 c 0,0 6,11 8,12 2,1 3,2 3,2 z"
       style="fill:#1c3867;fill-opacity:1;fill-rule:evenodd;stroke:none;stroke-width:1px;stroke-linecap:butt;stroke-linejoin:miter;stroke-opacity:1" />
    <path
       style="fill:#1c3867;fill-opacity:1;fill-rule:evenodd;stroke:none;stroke-width:1px;stroke-linecap:butt;stroke-linejoin:miter;stroke-opacity:1"
       d="m 34,1105.5196 -11,-14 c 0,0 6,11 8,12 2,1 3,2 3,2 z"
       id="path4287"
       inkscape:connector-curvature="0" />
    <path
       inkscape:connector-curvature="0"
       id="path4289"
       d="m 34,1107.5196 -11,-14 c 0,0 6,11 8,12 2,1 3,2 3,2 z"
       style="fill:#1c3867;fill-opacity:1;fill-rule:evenodd;stroke:none;stroke-width:1px;stroke-linecap:butt;stroke-linejoin:miter;stroke-opacity:1" />
    <path
       style="fill:#1c3867;fill-opacity:1;fill-rule:evenodd;stroke:none;stroke-width:1px;stroke-linecap:butt;stroke-linejoin:miter;stroke-opacity:1"
       d="m 34,1111.5196 -11,-14 c 0,0 6,11 8,12 2,1 3,2 3,2 z"
       id="path4291"
       inkscape:connector-curvature="0" />
    <path
       inkscape:connector-curvature="0"
       id="path4293"
       d="m 32,1111.5196 -11,-14 c 0,0 6,11 8,12 2,1 3,2 3,2 z"
       style="fill:#1c3867;fill-opacity:1;fill-rule:evenodd;stroke:none;stroke-width:1px;stroke-linecap:butt;stroke-linejoin:miter;stroke-opacity:1" />
    <path
       style="fill:#1c3867;fill-opacity:1;fill-rule:evenodd;stroke:none;stroke-width:1px;stroke-linecap:butt;stroke-linejoin:miter;stroke-opacity:1"
       d="m 32,1109.5196 -11,-14 c 0,0 6,11 8,12 2,1 3,2 3,2 z"
       id="path4295"
       inkscape:connector-curvature="0" />
    <g
       id="g4502">
      <path
         sodipodi:nodetypes="ccccccccc"
         inkscape:connector-curvature="0"
         id="rect7994"
         d="m 50,1100.5197 2,0 2,0 0,2.5 0,1.4999 -2,1 -2,-1 0,-1.4999 z"
         style="opacity:1;fill:#485f43;fill-opacity:1;stroke:none;stroke-width:1;stroke-linecap:round;stroke-linejoin:miter;stroke-miterlimit:4;stroke-dasharray:none;stroke-opacity:0.29943501" />
      <path
         sodipodi:nodetypes="ccccc"
         inkscape:connector-curvature="0"
         id="rect7996"
         d="m 50,1104.5197 4,0 -1,6 -2,0 z"
         style="opacity:1;fill:#cecccb;fill-opacity:1;stroke:none;stroke-width:1;stroke-linecap:round;stroke-linejoin:miter;stroke-miterlimit:4;stroke-dasharray:none;stroke-opacity:0.29943501" />
      <rect
         y="1100.5197"
         x="51"
         height="4"
         width="1"
         id="rect8000"
         style="opacity:1;fill:#577351;fill-opacity:1;stroke:none;stroke-width:1;stroke-linecap:round;stroke-linejoin:miter;stroke-miterlimit:4;stroke-dasharray:none;stroke-opacity:0.29943501" />
      <rect
         y="1104.5197"
         x="52"
         height="5.9999466"
         width="1"
         id="rect8002"
         style="opacity:1;fill:#dfdedd;fill-opacity:1;stroke:none;stroke-width:1;stroke-linecap:round;stroke-linejoin:miter;stroke-miterlimit:4;stroke-dasharray:none;stroke-opacity:0.29943501" />
      <rect
         y="1110.5197"
         x="51"
         height="5.9999466"
         width="2"
         id="rect8006"
         style="opacity:1;fill:#cc8e02;fill-opacity:1;stroke:none;stroke-width:1;stroke-linecap:round;stroke-linejoin:miter;stroke-miterlimit:4;stroke-dasharray:none;stroke-opacity:0.29943501" />
    </g>
    <path
       style="fill:#f1f2f4;fill-rule:evenodd;stroke:none;stroke-width:1px;stroke-linecap:butt;stroke-linejoin:miter;stroke-opacity:1;fill-opacity:1"
       d="m 27,1089.5196 c -1,1 -6,6 -6,6 0,0 4,-3 5,-4 1,-1 1,-2 1,-2 z"
       id="path4511"
       inkscape:connector-curvature="0" />
    <path
       inkscape:connector-curvature="0"
       id="path4513"
       d="m 25,1091.5196 c -1,1 -6,6 -6,6 0,0 4,-3 5,-4 1,-1 1,-2 1,-2 z"
       style="fill:#f1f2f4;fill-opacity:1;fill-rule:evenodd;stroke:none;stroke-width:1px;stroke-linecap:butt;stroke-linejoin:miter;stroke-opacity:1" />
    <path
       style="fill:#f1f2f4;fill-opacity:1;fill-rule:evenodd;stroke:none;stroke-width:1px;stroke-linecap:butt;stroke-linejoin:miter;stroke-opacity:1"
       d="m 27,1089.5196 c 1,1 6,6 6,6 0,0 -4,-3 -5,-4 -1,-1 -1,-2 -1,-2 z"
       id="path4515"
       inkscape:connector-curvature="0" />
    <path
       inkscape:connector-curvature="0"
       id="path4517"
       d="m 26,1089.5196 c 1,1 6,6 6,6 0,0 -4,-3 -5,-4 -1,-1 -1,-2 -1,-2 z"
       style="fill:#f1f2f4;fill-opacity:1;fill-rule:evenodd;stroke:none;stroke-width:1px;stroke-linecap:butt;stroke-linejoin:miter;stroke-opacity:1" />
    <path
       style="fill:#f1f2f4;fill-opacity:1;fill-rule:evenodd;stroke:none;stroke-width:1px;stroke-linecap:butt;stroke-linejoin:miter;stroke-opacity:1"
       d="m 26,1090.5196 c 1,1 6,6 6,6 0,0 -4,-3 -5,-4 -1,-1 -1,-2 -1,-2 z"
       id="path4519"
       inkscape:connector-curvature="0" />
    <path
       inkscape:connector-curvature="0"
       id="path4521"
       d="m 27,1090.5196 c 1,1 6,6 6,6 0,0 -4,-3 -5,-4 -1,-1 -1,-2 -1,-2 z"
       style="fill:#f1f2f4;fill-opacity:1;fill-rule:evenodd;stroke:none;stroke-width:1px;stroke-linecap:butt;stroke-linejoin:miter;stroke-opacity:1" />
    <path
       style="fill:#f1f2f4;fill-opacity:1;fill-rule:evenodd;stroke:none;stroke-width:1px;stroke-linecap:butt;stroke-linejoin:miter;stroke-opacity:1"
       d="m 25,1090.5196 c 1,1 6,6 6,6 0,0 -4,-3 -5,-4 -1,-1 -1,-2 -1,-2 z"
       id="path4523"
       inkscape:connector-curvature="0" />
    <path
       inkscape:connector-curvature="0"
       id="path4525"
       d="m 27,1090.5196 c -1,1 -6,6 -6,6 0,0 4,-3 5,-4 1,-1 1,-2 1,-2 z"
       style="fill:#f1f2f4;fill-opacity:1;fill-rule:evenodd;stroke:none;stroke-width:1px;stroke-linecap:butt;stroke-linejoin:miter;stroke-opacity:1" />
    <path
       style="fill:#f1f2f4;fill-rule:evenodd;stroke:none;stroke-width:1px;stroke-linecap:butt;stroke-linejoin:miter;stroke-opacity:1;fill-opacity:1"
       d="M 26 31 C 26 31 26.023266 31.334867 26.205078 31.794922 L 25.5 32.5 L 25 32 C 25 32 25.023266 32.334867 25.205078 32.794922 L 21 37 L 19 39 C 19 39 23 36 24 35 C 24.277531 34.722469 24.466468 34.451467 24.611328 34.195312 C 24.991693 33.886718 25.250639 33.654963 25.523438 33.414062 C 25.531672 33.42638 25.540328 33.438791 25.548828 33.451172 L 24 35 L 21 38 C 21 38 25 35 26 34 C 27 35 31 38 31 38 L 27 34 L 26.451172 33.451172 C 26.467658 33.427157 26.484506 33.402675 26.5 33.378906 C 26.63128 33.580298 26.789247 33.789247 27 34 C 28 35 32 38 32 38 L 28 34 L 27 33 L 26.794922 32.794922 C 26.796999 32.789665 26.802657 32.784517 26.804688 32.779297 C 26.86811 32.85285 26.926042 32.926042 27 33 C 27.123704 33.123704 27.393434 33.342128 27.595703 33.517578 C 27.709767 33.675969 27.837302 33.837302 28 34 C 29 35 33 38 33 38 L 28 33 L 27 32 L 26.794922 31.794922 C 26.976734 31.334867 27 31 27 31 L 26.5 31.5 L 26 31 z M 27 31 C 27 31 27 32 28 33 C 29 34 33 37 33 37 L 27 31 z M 26.5 32.378906 C 26.515494 32.402675 26.532342 32.427157 26.548828 32.451172 L 26.5 32.5 L 26.451172 32.451172 C 26.467658 32.427157 26.484506 32.402675 26.5 32.378906 z M 26.195312 32.779297 C 26.197448 32.784789 26.200937 32.791343 26.203125 32.796875 L 26 33 C 26.073958 32.926042 26.13189 32.85285 26.195312 32.779297 z "
       transform="translate(0,1058.5196)"
       id="path4527" />
    <path
       inkscape:connector-curvature="0"
       style="fill:#f1f2f4;fill-opacity:1;fill-rule:evenodd;stroke:none;stroke-width:1px;stroke-linecap:butt;stroke-linejoin:miter;stroke-opacity:1"
       d="m 41.9,1078.5196 c 0,0 0.02327,0.3349 0.205078,0.7949 l -0.705078,0.7051 -0.5,-0.5 c 0,0 0.02327,0.3349 0.205078,0.7949 l -4.205078,4.2051 -2,2 c 0,0 4,-3 5,-4 0.277531,-0.2775 0.466468,-0.5485 0.611328,-0.8047 0.380365,-0.3086 0.639311,-0.5403 0.91211,-0.7812 0.0082,0.012 0.01689,0.025 0.02539,0.037 l -1.548828,1.5489 -3,3 c 0,0 4,-3 5,-4 1,1 5,4 5,4 l -4,-4 -0.548828,-0.5488 c 0.01649,-0.024 0.03333,-0.049 0.04883,-0.072 0.13128,0.2014 0.289247,0.4103 0.5,0.6211 1,1 5,4 5,4 l -4,-4 -1,-1 -0.205078,-0.2051 c 0.0021,-0.01 0.0077,-0.01 0.0098,-0.016 0.06339,0.074 0.121318,0.1467 0.195276,0.2207 0.123704,0.1237 0.393434,0.3421 0.595703,0.5176 0.114064,0.1584 0.241599,0.3197 0.404297,0.4824 1,1 5,4 5,4 l -5,-5 -1,-1 -0.205078,-0.2051 C 42.876734,1078.8545 42.9,1078.5196 42.9,1078.5196 l -0.5,0.5 -0.5,-0.5 z m 1,0 c 0,0 0,1 1,2 1,1 5,4 5,4 l -6,-6 z m -0.5,1.3789 c 0.01549,0.024 0.03234,0.048 0.04883,0.072 l -0.04883,0.049 -0.04883,-0.049 c 0.01649,-0.024 0.03333,-0.049 0.04883,-0.072 z m -0.304688,0.4004 c 0.0021,0.01 0.0056,0.012 0.0078,0.018 L 41.9,1080.5196 c 0.07396,-0.074 0.13189,-0.1471 0.195312,-0.2207 z"
       id="path4527-8" />
  </g>
</svg>
