<?xml version="1.0" encoding="UTF-8" standalone="no"?>
<!-- Created with Inkscape (http://www.inkscape.org/) -->

<svg
   xmlns:dc="http://purl.org/dc/elements/1.1/"
   xmlns:cc="http://creativecommons.org/ns#"
   xmlns:rdf="http://www.w3.org/1999/02/22-rdf-syntax-ns#"
   xmlns:svg="http://www.w3.org/2000/svg"
   xmlns="http://www.w3.org/2000/svg"
   xmlns:sodipodi="http://sodipodi.sourceforge.net/DTD/sodipodi-0.dtd"
   xmlns:inkscape="http://www.inkscape.org/namespaces/inkscape"
   width="64"
   height="64"
   viewBox="0 0 64 64.000003"
   id="svg2"
   version="1.1"
   inkscape:version="0.91+devel r"
   sodipodi:docname="preferences-desktop-keyboard-shortcuts.svg">
  <defs
     id="defs4" />
  <sodipodi:namedview
     id="base"
     pagecolor="#ffffff"
     bordercolor="#666666"
     borderopacity="1.0"
     inkscape:pageopacity="0.0"
     inkscape:pageshadow="2"
     inkscape:zoom="19.843184"
     inkscape:cx="39.967935"
     inkscape:cy="45.899112"
     inkscape:document-units="px"
     inkscape:current-layer="layer1"
     showgrid="true"
     units="px"
     inkscape:showpageshadow="false"
     borderlayer="true"
     inkscape:window-width="1366"
     inkscape:window-height="670"
     inkscape:window-x="-4"
     inkscape:window-y="29"
     inkscape:window-maximized="1"
     showguides="true">
    <inkscape:grid
       type="xygrid"
       id="grid4136"
       empspacing="2" />
    <sodipodi:guide
       position="5,59.000069"
       orientation="54,0"
       id="guide4142" />
    <sodipodi:guide
       position="5,5.0000688"
       orientation="0,54"
       id="guide4144" />
    <sodipodi:guide
       position="59,5.0000688"
       orientation="-54,0"
       id="guide4146" />
    <sodipodi:guide
       position="59,59.000069"
       orientation="0,-54"
       id="guide4148" />
    <sodipodi:guide
       position="0,64.000069"
       orientation="64,0"
       id="guide4150" />
    <sodipodi:guide
       position="0,6.875e-05"
       orientation="0,64"
       id="guide4152" />
    <sodipodi:guide
       position="64,6.875e-05"
       orientation="-64,0"
       id="guide4154" />
    <sodipodi:guide
       position="64,64.000069"
       orientation="0,-64"
       id="guide4156" />
    <sodipodi:guide
       position="13,50.999947"
       orientation="38,0"
       id="guide4155" />
    <sodipodi:guide
       position="13,12.999947"
       orientation="0,38"
       id="guide4157" />
    <sodipodi:guide
       position="51,12.999947"
       orientation="-38,0"
       id="guide4159" />
    <sodipodi:guide
       position="51,50.999947"
       orientation="0,-38"
       id="guide4161" />
  </sodipodi:namedview>
  <metadata
     id="metadata7">
    <rdf:RDF>
      <cc:Work
         rdf:about="">
        <dc:format>image/svg+xml</dc:format>
        <dc:type
           rdf:resource="http://purl.org/dc/dcmitype/StillImage" />
        <dc:title />
      </cc:Work>
    </rdf:RDF>
  </metadata>
  <g
     inkscape:label="Capa 1"
     inkscape:groupmode="layer"
     id="layer1"
     transform="translate(0,-1058.5196)">
    <rect
       style="opacity:1;fill:#bdc3c7;fill-opacity:1;stroke:none;stroke-width:1;stroke-linecap:round;stroke-linejoin:miter;stroke-miterlimit:4;stroke-dasharray:none;stroke-opacity:0.29943501"
       id="rect4204"
       width="54"
       height="53.999996"
       x="5"
       y="1063.5195"
       ry="0" />
    <rect
       ry="2.0000687"
       y="1066.5195"
       x="8"
       height="47.999996"
       width="48"
       id="rect4206"
       style="opacity:1;fill:#7e8991;fill-opacity:1;stroke:none;stroke-width:0.88888896;stroke-linecap:round;stroke-linejoin:miter;stroke-miterlimit:4;stroke-dasharray:none;stroke-opacity:0.29943501" />
    <path
       style="opacity:1;fill:#ecf0f1;fill-opacity:1;stroke:none;stroke-width:0.85185194;stroke-linecap:round;stroke-linejoin:miter;stroke-miterlimit:4;stroke-dasharray:none;stroke-opacity:0.29943501"
       d="M 10.916016 9 C 9.8541455 9 9 9.8541156 9 10.916016 L 9 49.083984 C 9 50.145884 9.8541455 51 10.916016 51 L 53.083984 51 C 54.145854 51 55 50.145884 55 49.083984 L 55 10.916016 C 55 9.8541156 54.145854 9 53.083984 9 L 10.916016 9 z "
       transform="translate(0,1058.5196)"
       id="path4233" />
    <path
       style="opacity:1;fill:#c1cacd;fill-opacity:1;stroke:none;stroke-width:0.85185194;stroke-linecap:round;stroke-linejoin:miter;stroke-miterlimit:4;stroke-dasharray:none;stroke-opacity:0.29943501"
       d="m 9,1108.6856 0,2.918 c 0,1.0619 0.8541455,1.916 1.916016,1.916 l 42.167968,0 c 1.06187,0 1.916016,-0.8541 1.916016,-1.916 l 0,-2.918 c 0,1.0157 -0.818283,1.834 -1.833984,1.834 l -42.332032,0 C 9.8182834,1110.5196 9,1109.7013 9,1108.6856 Z"
       id="rect4208" />
    <rect
       ry="1.8333962"
       y="1068.5195"
       x="10"
       height="40.000069"
       width="44"
       id="rect4210"
       style="opacity:1;fill:#dadfe1;fill-opacity:1;stroke:none;stroke-width:0.81481493;stroke-linecap:round;stroke-linejoin:miter;stroke-miterlimit:4;stroke-dasharray:none;stroke-opacity:0.29943501" />
    <path
       style="opacity:1;fill:#7e8991;fill-opacity:1;stroke:none;stroke-width:0.81481493;stroke-linecap:round;stroke-linejoin:miter;stroke-miterlimit:4;stroke-dasharray:none;stroke-opacity:0.29943501"
       d="m 9.000008,49.166016 0,1 C 9.000008,51.181717 9.818291,52 10.833992,52 l 42.332016,0 c 1.015701,0 1.833984,-0.818283 1.833984,-1.833984 l 0,-1 C 54.999992,50.181717 54.181709,51 53.166008,51 L 10.833992,51 C 9.818291,51 9.000008,50.181717 9.000008,49.166016 Z"
       id="rect4223"
       inkscape:connector-curvature="0"
       sodipodi:nodetypes="csssscssc"
       transform="translate(0,1058.5196)" />
    <path
       style="opacity:1;fill:#a1adb3;fill-opacity:1;stroke:none;stroke-width:1;stroke-linecap:round;stroke-linejoin:miter;stroke-miterlimit:4;stroke-dasharray:none;stroke-opacity:0.29943501"
       d="M 14 39 L 14 48 L 15 48 L 15 44 L 18 44 L 18 43 L 15 43 L 15 40 L 20 40 L 20 39 L 15 39 L 14 39 z M 21 43 L 21 45 L 21 48 L 22 48 L 22 45.5 C 22 44.669 22.669 44 23.5 44 C 24.331 44 25 44.669 25 45.5 L 25 48 L 26 48 L 26 45 C 26 43.89203 25.10797 43 24 43 L 23 43 C 22.63308 43 22.295001 43.104288 22 43.275391 L 22 43 L 21 43 z "
       transform="translate(0,1058.5196)"
       id="rect4247" />
    <path
       style="fill:#a1adb3;fill-opacity:1;fill-rule:evenodd;stroke:none;stroke-width:1px;stroke-linecap:butt;stroke-linejoin:miter;stroke-opacity:1"
       d="M 46 13 L 41 18 L 44 18 L 44 22 L 48 22 L 48 18 L 51 18 L 46 13 z M 44 23 L 44 24 L 48 24 L 48 23 L 44 23 z "
       transform="translate(0,1058.5196)"
       id="path4158" />
  </g>
</svg>
