<?xml version="1.0" encoding="UTF-8" standalone="no"?>
<!-- Created with Inkscape (http://www.inkscape.org/) -->

<svg
   xmlns:dc="http://purl.org/dc/elements/1.1/"
   xmlns:cc="http://creativecommons.org/ns#"
   xmlns:rdf="http://www.w3.org/1999/02/22-rdf-syntax-ns#"
   xmlns:svg="http://www.w3.org/2000/svg"
   xmlns="http://www.w3.org/2000/svg"
   xmlns:sodipodi="http://sodipodi.sourceforge.net/DTD/sodipodi-0.dtd"
   xmlns:inkscape="http://www.inkscape.org/namespaces/inkscape"
   width="64"
   height="64"
   viewBox="0 0 64 64.000003"
   id="svg2"
   version="1.1"
   inkscape:version="0.91+devel r"
   sodipodi:docname="preferences-system-network.svg">
  <defs
     id="defs4" />
  <sodipodi:namedview
     id="base"
     pagecolor="#ffffff"
     bordercolor="#666666"
     borderopacity="1.0"
     inkscape:pageopacity="0.0"
     inkscape:pageshadow="2"
     inkscape:zoom="11.313709"
     inkscape:cx="30.923494"
     inkscape:cy="16.790001"
     inkscape:document-units="px"
     inkscape:current-layer="layer1"
     showgrid="true"
     units="px"
     inkscape:showpageshadow="false"
     borderlayer="true"
     inkscape:window-width="2560"
     inkscape:window-height="957"
     inkscape:window-x="-4"
     inkscape:window-y="29"
     inkscape:window-maximized="1"
     showguides="true">
    <inkscape:grid
       type="xygrid"
       id="grid4136" />
    <sodipodi:guide
       position="5,59.000069"
       orientation="54,0"
       id="guide4142" />
    <sodipodi:guide
       position="5,5.0000688"
       orientation="0,54"
       id="guide4144" />
    <sodipodi:guide
       position="59,5.0000688"
       orientation="-54,0"
       id="guide4146" />
    <sodipodi:guide
       position="59,59.000069"
       orientation="0,-54"
       id="guide4148" />
    <sodipodi:guide
       position="0,64.000069"
       orientation="64,0"
       id="guide4150" />
    <sodipodi:guide
       position="0,6.875e-05"
       orientation="0,64"
       id="guide4152" />
    <sodipodi:guide
       position="64,6.875e-05"
       orientation="-64,0"
       id="guide4154" />
    <sodipodi:guide
       position="64,64.000069"
       orientation="0,-64"
       id="guide4156" />
    <sodipodi:guide
       position="13,50.999947"
       orientation="38,0"
       id="guide4155" />
    <sodipodi:guide
       position="13,12.999947"
       orientation="0,38"
       id="guide4157" />
    <sodipodi:guide
       position="51,12.999947"
       orientation="-38,0"
       id="guide4159" />
    <sodipodi:guide
       position="51,50.999947"
       orientation="0,-38"
       id="guide4161" />
  </sodipodi:namedview>
  <metadata
     id="metadata7">
    <rdf:RDF>
      <cc:Work
         rdf:about="">
        <dc:format>image/svg+xml</dc:format>
        <dc:type
           rdf:resource="http://purl.org/dc/dcmitype/StillImage" />
        <dc:title />
      </cc:Work>
    </rdf:RDF>
  </metadata>
  <g
     inkscape:label="Capa 1"
     inkscape:groupmode="layer"
     id="layer1"
     transform="translate(0,-1058.5196)">
    <rect
       style="fill:#dadfe1;fill-opacity:1;stroke:none"
       id="rect4148"
       width="54"
       height="54"
       x="5"
       y="1063.5195"
       ry="1.0000688" />
    <path
       style="fill:#22313f;fill-opacity:1;fill-rule:evenodd;stroke:none;stroke-width:1px;stroke-linecap:butt;stroke-linejoin:miter;stroke-opacity:1"
       d="m 18,1076.5196 c 0,0 28,0 28,0 l 0,21 -6,0 0,3 -3,0 0,4 -10,0 0,-4 -3,0 0,-3 -6,0 z"
       id="path4220"
       inkscape:connector-curvature="0" />
    <path
       style="fill:#f1cb6d;fill-opacity:1;stroke:none;stroke-width:2.74939442"
       d="m 22,1076.5196 0,5 2,0 0,-5 z m 6,0 0,5 2,0 0,-5 z m 6,0 0,5 2,0 0,-5 z m 6,0 0,5 2,0 0,-5 z"
       id="rect4144"
       inkscape:connector-curvature="0"
       sodipodi:nodetypes="cccccccccccccccccccc" />
    <path
       style="opacity:1;fill:#95a5a6;fill-opacity:1;stroke:none;stroke-width:1;stroke-linecap:round;stroke-linejoin:miter;stroke-miterlimit:4;stroke-dasharray:none;stroke-opacity:0.29943501"
       d="m 15,1073.5196 0,3 0,23 0,1 7,0 0,4 3,0 0,3 14,0 0,-3 3,0 0,-4 7,0 0,-1 0,-2 0,-24 -34,0 z m 3,3 28,0 0,21 -6,0 0,3 -3,0 0,4 -10,0 0,-4 -3,0 0,-3 -6,0 0,-21 z"
       id="rect4201"
       inkscape:connector-curvature="0" />
    <path
       sodipodi:nodetypes="cccccccccccccccccccc"
       inkscape:connector-curvature="0"
       id="path4305"
       d="m 22,1076.5196 0,1 2,0 0,-1 z m 6,0 0,1 2,0 0,-1 z m 6,0 0,1 2,0 0,-1 z m 6,0 0,1 2,0 0,-1 z"
       style="fill:#f7dea3;fill-opacity:1;stroke:none;stroke-width:2.74939442" />
    <path
       style="fill:#edbc44;fill-opacity:1;stroke:none;stroke-width:2.74939442"
       d="m 22,1080.5196 0,1 2,0 0,-1 z m 6,0 0,1 2,0 0,-1 z m 6,0 0,1 2,0 0,-1 z m 6,0 0,1 2,0 0,-1 z"
       id="path4307"
       inkscape:connector-curvature="0"
       sodipodi:nodetypes="cccccccccccccccccccc" />
    <path
       style="opacity:1;fill:#c1cace;fill-opacity:1;stroke:none;stroke-width:0.1;stroke-linecap:square;stroke-linejoin:miter;stroke-miterlimit:4;stroke-dasharray:none;stroke-dashoffset:0;stroke-opacity:1"
       d="M 5 58 C 5 58.554038 5.4459619 59 6 59 L 58 59 C 58.554038 59 59 58.554038 59 58 L 5 58 z "
       transform="translate(0,1058.5196)"
       id="rect4157" />
  </g>
</svg>
