<?xml version="1.0" encoding="UTF-8" standalone="no"?>
<!-- Created with Inkscape (http://www.inkscape.org/) -->

<svg
   xmlns:dc="http://purl.org/dc/elements/1.1/"
   xmlns:cc="http://creativecommons.org/ns#"
   xmlns:rdf="http://www.w3.org/1999/02/22-rdf-syntax-ns#"
   xmlns:svg="http://www.w3.org/2000/svg"
   xmlns="http://www.w3.org/2000/svg"
   xmlns:sodipodi="http://sodipodi.sourceforge.net/DTD/sodipodi-0.dtd"
   xmlns:inkscape="http://www.inkscape.org/namespaces/inkscape"
   width="64"
   height="64"
   viewBox="0 0 64 64.000003"
   id="svg2"
   version="1.1"
   inkscape:version="0.91+devel r"
   sodipodi:docname="preferences-web-browser-cookies.svg">
  <defs
     id="defs4" />
  <sodipodi:namedview
     id="base"
     pagecolor="#ffffff"
     bordercolor="#666666"
     borderopacity="1.0"
     inkscape:pageopacity="0.0"
     inkscape:pageshadow="2"
     inkscape:zoom="5.7894368"
     inkscape:cx="25.750637"
     inkscape:cy="26.479502"
     inkscape:document-units="px"
     inkscape:current-layer="layer1"
     showgrid="true"
     units="px"
     inkscape:showpageshadow="false"
     borderlayer="true"
     inkscape:window-width="1366"
     inkscape:window-height="670"
     inkscape:window-x="-4"
     inkscape:window-y="29"
     inkscape:window-maximized="1"
     showguides="true">
    <inkscape:grid
       type="xygrid"
       id="grid4136"
       empspacing="2" />
    <sodipodi:guide
       position="5,59.000069"
       orientation="54,0"
       id="guide4142" />
    <sodipodi:guide
       position="5,5.0000688"
       orientation="0,54"
       id="guide4144" />
    <sodipodi:guide
       position="59,5.0000688"
       orientation="-54,0"
       id="guide4146" />
    <sodipodi:guide
       position="59,59.000069"
       orientation="0,-54"
       id="guide4148" />
    <sodipodi:guide
       position="0,64.000069"
       orientation="64,0"
       id="guide4150" />
    <sodipodi:guide
       position="0,6.875e-05"
       orientation="0,64"
       id="guide4152" />
    <sodipodi:guide
       position="64,6.875e-05"
       orientation="-64,0"
       id="guide4154" />
    <sodipodi:guide
       position="64,64.000069"
       orientation="0,-64"
       id="guide4156" />
    <sodipodi:guide
       position="13,50.999947"
       orientation="38,0"
       id="guide4155" />
    <sodipodi:guide
       position="10,13.000001"
       orientation="0,38"
       id="guide4157" />
    <sodipodi:guide
       position="51,12.999947"
       orientation="-38,0"
       id="guide4159" />
    <sodipodi:guide
       position="51,50.999947"
       orientation="0,-38"
       id="guide4161" />
  </sodipodi:namedview>
  <metadata
     id="metadata7">
    <rdf:RDF>
      <cc:Work
         rdf:about="">
        <dc:format>image/svg+xml</dc:format>
        <dc:type
           rdf:resource="http://purl.org/dc/dcmitype/StillImage" />
        <dc:title></dc:title>
      </cc:Work>
    </rdf:RDF>
  </metadata>
  <g
     inkscape:label="Capa 1"
     inkscape:groupmode="layer"
     id="layer1"
     transform="translate(0,-1058.5196)">
    <path
       style="opacity:1;fill:#cf8d3f;fill-opacity:1;stroke:none;stroke-width:1;stroke-linecap:round;stroke-linejoin:miter;stroke-miterlimit:4;stroke-dasharray:none;stroke-opacity:0.29943501"
       d="M 32,5 C 17.088311,5 4.9999989,17.088312 5,32 5.0111372,35.900781 5.8673704,39.752831 7.5097656,43.291016 7.9833741,43.099754 8.4892309,44.00097 9,44 c 0.7600771,0.0016 1.503958,-0.780223 2.144531,-0.371094 1.170724,-1.046728 2.685437,-1.626476 4.25586,-1.628906 3.534927,-2.15e-4 6.400605,2.865464 6.40039,6.400391 -0.0019,1.095514 -0.285067,2.17219 -0.822265,3.126953 C 22.227045,52.237912 21.998649,53.563432 22,55 c -5.34e-4,0.775524 0.773501,1.534169 0.349609,2.183594 C 25.428333,58.373862 28.699217,58.98951 32,59 46.911689,59 59.000001,46.911688 59,32 59.000001,17.088312 46.911689,5 32,5 Z"
       transform="translate(0,1058.5196)"
       id="path4155"
       inkscape:connector-curvature="0"
       sodipodi:nodetypes="sccccccccccss" />
    <path
       style="opacity:1;fill:#d49852;fill-opacity:1;stroke:none;stroke-width:0.92592597;stroke-linecap:round;stroke-linejoin:miter;stroke-miterlimit:4;stroke-dasharray:none;stroke-opacity:0.29943501"
       d="M 32 7 A 25 24.999998 0 0 0 7 32 A 25 24.999998 0 0 0 9.5898438 43.048828 A 3.9999993 3.9999993 0 0 1 11.144531 43.628906 A 6.4000015 6.4000015 0 0 1 15.400391 42 A 6.4000015 6.4000015 0 0 1 21.800781 48.400391 A 6.4000015 6.4000015 0 0 1 20.978516 51.527344 A 3.9999983 3.9999983 0 0 1 23 55 A 3.9999983 3.9999983 0 0 1 22.988281 55.291016 A 25 24.999998 0 0 0 32 57 A 25 24.999998 0 0 0 57 32 A 25 24.999998 0 0 0 32 7 z "
       transform="translate(0,1058.5196)"
       id="ellipse4179" />
    <path
       style="opacity:1;fill:#bd7c2f;fill-opacity:1;stroke:none;stroke-width:0.80000061;stroke-linecap:round;stroke-linejoin:miter;stroke-miterlimit:4;stroke-dasharray:none;stroke-opacity:0.29943501"
       d="M 15.400391 42 A 6.4000015 6.4000015 0 0 0 11.144531 43.628906 A 3.9999993 3.9999993 0 0 0 9 43 A 3.9999993 3.9999993 0 0 0 7.5097656 43.292969 A 27 26.999966 0 0 0 8.3828125 45.021484 A 3.9999993 3.9999993 0 0 1 10.144531 45.628906 A 6.4000015 6.4000015 0 0 1 14.400391 44 A 6.4000015 6.4000015 0 0 1 20.800781 50.400391 A 6.4000015 6.4000015 0 0 1 19.978516 53.527344 A 3.9999983 3.9999983 0 0 1 22 57 A 3.9999983 3.9999983 0 0 1 21.996094 57.054688 A 27 26.999966 0 0 0 22.34375 57.181641 A 3.9999983 3.9999983 0 0 0 23 55 A 3.9999983 3.9999983 0 0 0 20.978516 51.527344 A 6.4000015 6.4000015 0 0 0 21.800781 48.400391 A 6.4000015 6.4000015 0 0 0 15.400391 42 z "
       transform="translate(0,1058.5196)"
       id="path4181" />
    <circle
       style="opacity:1;fill:#87553c;fill-opacity:1;stroke:none;stroke-width:1;stroke-linecap:round;stroke-linejoin:miter;stroke-miterlimit:4;stroke-dasharray:none;stroke-opacity:0.29943501"
       id="path4201"
       cx="15.5"
       cy="1085.0197"
       r="3.5" />
    <circle
       style="opacity:1;fill:#87553c;fill-opacity:1;stroke:none;stroke-width:0.42857143;stroke-linecap:round;stroke-linejoin:miter;stroke-miterlimit:4;stroke-dasharray:none;stroke-opacity:0.29943501"
       id="path4201-3"
       cx="28.5"
       cy="1073.0197"
       r="1.5" />
    <circle
       style="opacity:1;fill:#87553c;fill-opacity:1;stroke:none;stroke-width:0.71428573;stroke-linecap:round;stroke-linejoin:miter;stroke-miterlimit:4;stroke-dasharray:none;stroke-opacity:0.29943501"
       id="path4201-0"
       cx="31.5"
       cy="1085.0197"
       r="2.5" />
    <circle
       style="opacity:1;fill:#87553c;fill-opacity:1;stroke:none;stroke-width:1;stroke-linecap:round;stroke-linejoin:miter;stroke-miterlimit:4;stroke-dasharray:none;stroke-opacity:0.29943501"
       id="path4201-1"
       cx="40.5"
       cy="1092.0197"
       r="3.5" />
    <circle
       style="opacity:1;fill:#87553c;fill-opacity:1;stroke:none;stroke-width:1;stroke-linecap:round;stroke-linejoin:miter;stroke-miterlimit:4;stroke-dasharray:none;stroke-opacity:0.29943501"
       id="path4201-2"
       cx="43.5"
       cy="1076.0197"
       r="3.5" />
    <circle
       style="opacity:1;fill:#87553c;fill-opacity:1;stroke:none;stroke-width:1;stroke-linecap:round;stroke-linejoin:miter;stroke-miterlimit:4;stroke-dasharray:none;stroke-opacity:0.29943501"
       id="path4201-01"
       cx="34.5"
       cy="1109.0197"
       r="3.5" />
    <circle
       style="opacity:1;fill:#87553c;fill-opacity:1;stroke:none;stroke-width:0.42857143;stroke-linecap:round;stroke-linejoin:miter;stroke-miterlimit:4;stroke-dasharray:none;stroke-opacity:0.29943501"
       id="path4201-5"
       cx="47.5"
       cy="1103.0197"
       r="1.5" />
    <circle
       style="opacity:1;fill:#87553c;fill-opacity:1;stroke:none;stroke-width:0.71428573;stroke-linecap:round;stroke-linejoin:miter;stroke-miterlimit:4;stroke-dasharray:none;stroke-opacity:0.29943501"
       id="path4201-17"
       cx="50.5"
       cy="1090.0197"
       r="2.5" />
    <circle
       style="opacity:1;fill:#87553c;fill-opacity:1;stroke:none;stroke-width:0.42857143;stroke-linecap:round;stroke-linejoin:miter;stroke-miterlimit:4;stroke-dasharray:none;stroke-opacity:0.29943501"
       id="path4201-014"
       cx="26.5"
       cy="1098.0197"
       r="1.5" />
  </g>
</svg>
