<?xml version="1.0" encoding="UTF-8" standalone="no"?>
<!-- Created with Inkscape (http://www.inkscape.org/) -->

<svg
   xmlns:dc="http://purl.org/dc/elements/1.1/"
   xmlns:cc="http://creativecommons.org/ns#"
   xmlns:rdf="http://www.w3.org/1999/02/22-rdf-syntax-ns#"
   xmlns:svg="http://www.w3.org/2000/svg"
   xmlns="http://www.w3.org/2000/svg"
   xmlns:sodipodi="http://sodipodi.sourceforge.net/DTD/sodipodi-0.dtd"
   xmlns:inkscape="http://www.inkscape.org/namespaces/inkscape"
   width="64"
   height="64"
   viewBox="0 0 64 64.000003"
   id="svg2"
   version="1.1"
   inkscape:version="0.91+devel r"
   sodipodi:docname="system-lock-screen.svg">
  <defs
     id="defs4" />
  <sodipodi:namedview
     id="base"
     pagecolor="#ffffff"
     bordercolor="#666666"
     borderopacity="1.0"
     inkscape:pageopacity="0.0"
     inkscape:pageshadow="2"
     inkscape:zoom="7.90625"
     inkscape:cx="22.041954"
     inkscape:cy="34.518956"
     inkscape:document-units="px"
     inkscape:current-layer="layer1"
     showgrid="true"
     units="px"
     inkscape:showpageshadow="false"
     borderlayer="true"
     inkscape:window-width="2560"
     inkscape:window-height="957"
     inkscape:window-x="-4"
     inkscape:window-y="29"
     inkscape:window-maximized="1">
    <inkscape:grid
       type="xygrid"
       id="grid4136" />
    <sodipodi:guide
       position="5,59.000069"
       orientation="54,0"
       id="guide4142" />
    <sodipodi:guide
       position="5,5.0000688"
       orientation="0,54"
       id="guide4144" />
    <sodipodi:guide
       position="59,5.0000688"
       orientation="-54,0"
       id="guide4146" />
    <sodipodi:guide
       position="59,59.000069"
       orientation="0,-54"
       id="guide4148" />
    <sodipodi:guide
       position="0,64.000069"
       orientation="64,0"
       id="guide4150" />
    <sodipodi:guide
       position="0,6.875e-05"
       orientation="0,64"
       id="guide4152" />
    <sodipodi:guide
       position="64,64.000069"
       orientation="0,-64"
       id="guide4156" />
  </sodipodi:namedview>
  <metadata
     id="metadata7">
    <rdf:RDF>
      <cc:Work
         rdf:about="">
        <dc:format>image/svg+xml</dc:format>
        <dc:type
           rdf:resource="http://purl.org/dc/dcmitype/StillImage" />
        <dc:title />
      </cc:Work>
    </rdf:RDF>
  </metadata>
  <g
     inkscape:label="Capa 1"
     inkscape:groupmode="layer"
     id="layer1"
     transform="translate(0,-1058.5196)">
    <path
       inkscape:connector-curvature="0"
       style="opacity:1;fill:#1a1a1a;fill-opacity:1;stroke:none;stroke-opacity:1"
       d="m 3,1063.5196 c -0.5540388,0 -1,0.446 -1,1 l 0,42 c 0,0.554 0.4459612,1 1,1 l 23.755859,0 c -0.263086,2.082 -0.752336,4.1166 -1.539062,6.0293 -0.676468,0.1596 -3.216797,2.436 -3.216797,2.9707 0,0.554 0.446,1 1,1 l 2,0 16,0 c 0.554,0 1,-0.446 1,-1 0,-0.5347 -2.540329,-2.8111 -3.216797,-2.9707 -0.786726,-1.9127 -1.275976,-3.9473 -1.539062,-6.0293 l 23.755859,0 c 0.554039,0 1,-0.446 1,-1 l 0,-42 c 0,-0.554 -0.445961,-1 -1,-1 l -58,0 z"
       id="rect4214" />
    <path
       inkscape:connector-curvature="0"
       style="opacity:1;fill:#050505;fill-opacity:1;stroke:none;stroke-width:0.1;stroke-linecap:square;stroke-linejoin:miter;stroke-miterlimit:4;stroke-dasharray:none;stroke-dashoffset:0;stroke-opacity:1"
       d="m 22,1116.5196 c 0,0.554 0.446,1 1,1 l 18,0 c 0.554,0 1,-0.446 1,-1 l -20,0 z"
       id="rect4163" />
    <rect
       style="opacity:1;fill:#2c3e50;fill-opacity:1;stroke:none;stroke-opacity:1"
       id="rect4228"
       width="58"
       height="40.999878"
       x="3"
       y="1064.5197"
       ry="0" />
    <path
       inkscape:connector-curvature="0"
       style="opacity:1;fill:#c1cede;fill-opacity:1;stroke:none;stroke-width:0.1;stroke-linecap:round;stroke-linejoin:miter;stroke-miterlimit:4;stroke-dasharray:none;stroke-opacity:0.29943501"
       d="m 32,1074.5196 c -2.216,0 -4,1.784 -4,4 l 0,4 -2,0 0,8 6,0 6,0 0,-8 -2,0 -2,0 -2,0 -2,0 0,-4 c 0,-1.108 0.892,-2 2,-2 1.108,0 2,0.892 2,2 l 2,0 c 0,-2.216 -1.784,-4 -4,-4 z"
       id="rect4152" />
    <rect
       style="opacity:1;fill:#7996b8;fill-opacity:1;stroke:none;stroke-width:1;stroke-linecap:round;stroke-linejoin:miter;stroke-miterlimit:4;stroke-dasharray:none;stroke-opacity:0.29943501"
       id="rect4172"
       width="16"
       height="3"
       x="24"
       y="1095.5197" />
    <circle
       style="opacity:1;fill:#2c3e50;fill-opacity:1;stroke:none;stroke-width:1;stroke-linecap:round;stroke-linejoin:miter;stroke-miterlimit:4;stroke-dasharray:none;stroke-opacity:0.29943501"
       id="path4174"
       cx="25.5"
       cy="1097.0197"
       r="0.5" />
    <circle
       r="0.5"
       cy="1097.0197"
       cx="27.5"
       id="circle4176"
       style="opacity:1;fill:#2c3e50;fill-opacity:1;stroke:none;stroke-width:1;stroke-linecap:round;stroke-linejoin:miter;stroke-miterlimit:4;stroke-dasharray:none;stroke-opacity:0.29943501" />
    <circle
       style="opacity:1;fill:#2c3e50;fill-opacity:1;stroke:none;stroke-width:1;stroke-linecap:round;stroke-linejoin:miter;stroke-miterlimit:4;stroke-dasharray:none;stroke-opacity:0.29943501"
       id="circle4178"
       cx="29.5"
       cy="1097.0197"
       r="0.5" />
  </g>
</svg>
