<?xml version="1.0" encoding="UTF-8" standalone="no"?>
<!-- Created with Inkscape (http://www.inkscape.org/) -->

<svg
   xmlns:dc="http://purl.org/dc/elements/1.1/"
   xmlns:cc="http://creativecommons.org/ns#"
   xmlns:rdf="http://www.w3.org/1999/02/22-rdf-syntax-ns#"
   xmlns:svg="http://www.w3.org/2000/svg"
   xmlns="http://www.w3.org/2000/svg"
   xmlns:sodipodi="http://sodipodi.sourceforge.net/DTD/sodipodi-0.dtd"
   xmlns:inkscape="http://www.inkscape.org/namespaces/inkscape"
   width="64"
   height="64"
   viewBox="0 0 64 64.000003"
   id="svg2"
   version="1.1"
   inkscape:version="0.91+devel r"
   sodipodi:docname="preferences-desktop-locale.svg">
  <defs
     id="defs4" />
  <sodipodi:namedview
     id="base"
     pagecolor="#ffffff"
     bordercolor="#666666"
     borderopacity="1.0"
     inkscape:pageopacity="0.0"
     inkscape:pageshadow="2"
     inkscape:zoom="11.313708"
     inkscape:cx="24.235922"
     inkscape:cy="30.63074"
     inkscape:document-units="px"
     inkscape:current-layer="layer1"
     showgrid="true"
     units="px"
     inkscape:showpageshadow="false"
     borderlayer="true"
     inkscape:window-width="1366"
     inkscape:window-height="670"
     inkscape:window-x="-4"
     inkscape:window-y="29"
     inkscape:window-maximized="1">
    <inkscape:grid
       type="xygrid"
       id="grid4136" />
    <sodipodi:guide
       position="5,59.000069"
       orientation="54,0"
       id="guide4142" />
    <sodipodi:guide
       position="5,5.0000688"
       orientation="0,54"
       id="guide4144" />
    <sodipodi:guide
       position="59,5.0000688"
       orientation="-54,0"
       id="guide4146" />
    <sodipodi:guide
       position="59,59.000069"
       orientation="0,-54"
       id="guide4148" />
    <sodipodi:guide
       position="0,64.000069"
       orientation="64,0"
       id="guide4150" />
    <sodipodi:guide
       position="0,6.875e-05"
       orientation="0,64"
       id="guide4152" />
    <sodipodi:guide
       position="64,6.875e-05"
       orientation="-64,0"
       id="guide4154" />
    <sodipodi:guide
       position="64,64.000069"
       orientation="0,-64"
       id="guide4156" />
    <sodipodi:guide
       position="13,50.999947"
       orientation="38,0"
       id="guide4155" />
    <sodipodi:guide
       position="13,12.999947"
       orientation="0,38"
       id="guide4157" />
    <sodipodi:guide
       position="51,12.999947"
       orientation="-38,0"
       id="guide4159" />
    <sodipodi:guide
       position="51,50.999947"
       orientation="0,-38"
       id="guide4161" />
    <sodipodi:guide
       position="17,46.999949"
       orientation="30,0"
       id="guide4151" />
    <sodipodi:guide
       position="17,16.999947"
       orientation="0,30"
       id="guide4153" />
    <sodipodi:guide
       position="47,16.999947"
       orientation="-30,0"
       id="guide4158" />
    <sodipodi:guide
       position="47,46.999949"
       orientation="0,-30"
       id="guide4160" />
  </sodipodi:namedview>
  <metadata
     id="metadata7">
    <rdf:RDF>
      <cc:Work
         rdf:about="">
        <dc:format>image/svg+xml</dc:format>
        <dc:type
           rdf:resource="http://purl.org/dc/dcmitype/StillImage" />
        <dc:title />
      </cc:Work>
    </rdf:RDF>
  </metadata>
  <g
     inkscape:label="Capa 1"
     inkscape:groupmode="layer"
     id="layer1"
     transform="translate(0,-1058.5196)">
    <rect
       style="fill:#22a7f0;fill-opacity:1;stroke:none"
       id="rect4158"
       width="54"
       height="54"
       x="5"
       y="1063.5197"
       ry="27" />
    <path
       style="fill:#3fb3f2;fill-opacity:1;fill-rule:nonzero;stroke:none"
       d="M 26.269531 5.8925781 C 25.177787 6.1240781 24.119961 6.438775 23.082031 6.796875 C 23.055931 6.871875 23.021156 6.9487469 23.035156 6.9980469 C 23.107856 7.2564469 23.585277 7.0718531 23.712891 7.3144531 C 23.683571 7.6144531 23.359578 7.7636781 23.105469 7.8925781 C 22.868529 8.0116781 22.564532 8.3135563 22.308594 8.1601562 C 22.208521 7.8993562 22.598561 7.8986812 22.503906 7.6757812 C 22.433626 7.5091812 22.130481 7.6193844 21.996094 7.4589844 C 21.936184 7.3849844 21.922498 7.3043969 21.923828 7.2167969 C 13.980049 10.375157 7.9153035 17.1714 5.7695312 25.576172 C 5.694302 25.886566 5.6191443 26.197167 5.5546875 26.511719 C 5.5504063 26.532611 5.5452488 26.553308 5.5410156 26.574219 C 5.3372036 27.58097 5.196565 28.61148 5.1074219 29.65625 C 5.2051327 29.68001 5.3125198 29.699324 5.4023438 29.740234 C 5.5751643 29.818234 5.7103086 29.999963 5.9082031 30.101562 C 6.1531191 30.227163 6.4825007 30.301553 6.7792969 30.439453 C 7.0651645 30.571753 7.4479518 30.754759 7.6757812 30.755859 C 7.9048188 30.755859 8.1495338 30.520772 8.4023438 30.513672 C 8.9954168 30.494672 9.2535196 31.268159 9.7324219 31.505859 C 9.8526571 31.564859 10.012843 31.566469 10.167969 31.605469 C 10.293777 31.632469 10.387479 31.683656 10.507812 31.722656 C 10.763744 31.807656 11.076675 31.801125 11.28125 31.890625 C 11.589669 32.027525 11.814941 32.606719 12.080078 32.761719 C 12.092958 32.918019 12.051546 33.130947 12.103516 33.248047 C 12.228732 33.417947 12.404934 33.377781 12.611328 33.488281 C 12.858066 33.621581 12.933984 33.965213 13.167969 34.070312 C 13.247929 34.104313 13.448553 34.101531 13.576172 34.144531 C 13.89683 34.244531 14.002494 34.61235 14.277344 34.53125 C 14.457541 34.47825 14.443936 34.293194 14.472656 34.121094 C 14.591751 33.991394 14.722542 33.78475 14.908203 33.78125 C 15.208725 33.78125 15.23444 34.096672 15.34375 34.388672 C 15.40546 34.553572 15.569247 34.696894 15.611328 34.871094 C 15.685198 35.171494 15.647647 36.068347 15.585938 36.248047 C 15.510227 36.468547 15.213223 36.562341 15.029297 36.806641 C 14.943257 36.919441 14.903932 37.087569 14.837891 37.167969 C 14.720111 37.312169 14.537789 37.349322 14.449219 37.482422 C 14.399159 37.558422 14.352968 37.719112 14.304688 37.820312 C 14.158672 38.128213 13.963873 38.345244 14.085938 38.714844 C 14.136067 38.866944 14.374392 38.973144 14.375 39.152344 C 14.37552 39.363044 13.927368 39.546444 13.892578 39.777344 C 13.866328 39.948144 14.031629 40.258822 14.085938 40.482422 C 14.126907 40.651722 14.44532 40.758594 14.544922 40.871094 C 14.714708 41.061594 14.850735 41.331113 15.005859 41.570312 C 15.312459 42.041213 15.55099 42.612259 15.849609 43.068359 C 16.006648 43.307259 16.230876 43.525437 16.335938 43.773438 C 16.389617 43.899537 16.383574 44.045603 16.433594 44.158203 C 16.606498 44.548403 17.369712 44.956791 17.763672 45.150391 C 17.94812 45.238391 18.151137 45.274941 18.320312 45.369141 C 18.576774 45.512141 19.085403 45.892488 19.214844 46.117188 C 19.330922 46.319387 19.398946 46.813566 19.455078 47.134766 C 19.529538 47.559466 19.459576 47.882097 19.478516 48.341797 C 19.489096 48.590597 19.573172 48.842597 19.576172 49.091797 C 19.577972 49.177797 19.532297 49.244884 19.529297 49.333984 C 19.518597 49.635784 19.601832 49.975697 19.576172 50.279297 C 19.562102 50.444797 19.517097 50.572937 19.529297 50.710938 C 19.542177 50.861238 19.611387 50.9935 19.623047 51.125 C 19.635347 51.2666 19.588039 51.448494 19.599609 51.558594 C 19.632579 51.863794 19.856153 52.101959 19.916016 52.380859 C 19.963646 52.603459 19.991461 53.059872 19.962891 53.326172 C 19.948151 53.465872 19.86315 53.608419 19.841797 53.761719 C 19.825817 53.884519 19.858937 54.009447 19.841797 54.123047 C 19.817317 54.292347 19.71101 54.426284 19.720703 54.583984 C 19.742153 54.910184 20.104977 55.175753 20.15625 55.501953 C 20.17399 55.611053 20.127903 55.734044 20.132812 55.839844 C 20.141558 56.019567 20.213417 56.17427 20.259766 56.337891 C 21.513237 56.941033 22.822582 57.447101 24.175781 57.853516 C 24.195377 57.822545 24.214555 57.790021 24.222656 57.75 C 24.251966 57.6059 24.178585 57.546506 24.171875 57.316406 C 24.226255 57.079906 24.483752 57.047241 24.533203 56.806641 C 24.432393 56.634341 24.202867 56.752462 24.050781 56.664062 C 23.903033 56.580062 23.836085 56.383672 23.857422 56.201172 C 24.109717 56.094272 24.594674 56.460075 24.775391 56.109375 C 24.865321 55.942475 24.676189 55.529728 24.800781 55.361328 C 24.885731 55.248528 25.34641 55.244491 25.525391 55.212891 C 25.781932 55.166891 26.081766 55.111331 26.226562 55.019531 C 26.384723 54.914731 26.619213 54.616159 26.591797 54.318359 C 26.578297 54.175859 26.481803 54.129706 26.373047 54.003906 C 26.282027 53.898006 26.245724 53.766216 26.179688 53.666016 C 26.066744 53.496116 25.89194 53.521597 25.841797 53.279297 C 26.188739 53.214297 26.716683 53.564828 27.21875 53.423828 C 27.4569 53.354828 27.785956 52.8485 27.896484 52.625 C 27.931964 52.552 27.92961 52.447328 27.96875 52.361328 C 28.01096 52.271328 28.099325 52.193431 28.113281 52.144531 C 28.150651 52.012131 28.130276 51.911325 28.160156 51.828125 C 28.248126 51.582725 28.477638 51.501812 28.623047 51.320312 C 28.732973 51.183712 28.784216 51.019612 28.888672 50.882812 C 29.002331 50.733813 29.104555 50.605909 29.179688 50.474609 C 29.251137 50.032909 29.002227 49.724491 29.105469 49.337891 C 29.221547 48.903491 29.821414 48.635453 30.242188 48.439453 C 30.38699 48.375453 30.536395 48.265509 30.654297 48.224609 C 30.945545 48.120809 31.305919 48.174325 31.572266 48.078125 C 32.025491 47.912625 32.075341 47.428625 32.298828 47.015625 C 32.405115 46.820225 32.543629 46.621722 32.564453 46.482422 C 32.583363 46.356322 32.517733 46.245556 32.539062 46.097656 C 32.560392 45.952256 32.696599 45.820756 32.736328 45.660156 C 32.788798 45.450556 32.806641 45.143456 32.806641 44.910156 C 32.806641 44.718556 32.717574 44.551706 32.708984 44.378906 C 32.677894 43.751506 32.935896 43.679491 33.167969 43.337891 C 33.283413 43.168091 33.327003 42.976869 33.408203 42.855469 C 33.79792 42.273969 34.476661 41.992181 34.427734 41.113281 C 34.411904 40.822481 34.230007 40.167019 34.015625 40.074219 C 33.893485 40.021219 33.612619 40.074 33.435547 40 C 32.863813 39.7869 32.529883 39.07675 31.9375 39.03125 C 31.81101 39.01825 31.691197 39.082078 31.548828 39.080078 C 31.314321 39.080078 30.96075 38.914666 30.701172 38.884766 C 30.536245 38.863766 30.317736 38.934766 30.21875 38.884766 C 30.06727 38.809766 30.052452 38.536025 29.929688 38.453125 C 29.831377 38.390125 29.641888 38.366894 29.494141 38.308594 C 29.255903 38.219594 29.065867 38.106891 28.791016 38.087891 C 28.706146 38.087891 28.600252 38.126281 28.501953 38.113281 C 28.34987 38.088281 28.230302 37.909619 28.089844 37.824219 C 27.914505 37.717319 27.754262 37.662466 27.681641 37.509766 C 27.840408 36.988766 27.397901 36.843969 27.291016 36.542969 C 27.240966 36.401969 27.26272 36.231269 27.21875 36.105469 C 27.15584 35.925169 26.978667 35.824228 26.783203 35.673828 C 26.433221 35.404428 26.123294 35.151544 25.623047 35.089844 C 25.403206 35.062844 25.187527 35.158625 24.921875 35.140625 C 24.640345 35.120625 24.286817 34.873412 24.076172 34.632812 C 23.871509 34.397712 23.770169 34.190525 23.591797 34.078125 C 23.422618 33.970125 23.197423 33.969275 23.082031 33.859375 C 23.030811 33.809375 23.039345 33.728334 22.984375 33.615234 C 22.899505 33.439534 22.7595 33.343413 22.865234 33.132812 C 22.672198 33.032113 22.665899 33.315797 22.455078 33.279297 C 22.266988 33.012597 22.108576 32.882738 21.681641 32.960938 C 21.486786 32.994938 21.376261 33.247906 21.148438 33.253906 C 20.961558 33.253906 20.815097 33.047019 20.568359 33.011719 C 20.38209 32.985719 20.169673 33.063109 20.037109 33.037109 C 19.830708 32.993109 19.764872 32.823319 19.576172 32.699219 C 19.438142 32.611219 19.171313 32.454431 19.09375 32.457031 C 18.850741 32.471031 18.679067 32.972622 18.34375 32.794922 C 18.180122 32.588522 18.607104 32.480009 18.414062 32.287109 C 18.26744 32.140409 18.146511 32.350394 18.029297 32.433594 C 17.895509 32.522594 17.76554 32.620581 17.617188 32.675781 C 17.284907 32.800581 17.07802 32.733641 16.818359 32.869141 C 16.577779 32.993841 16.569806 33.201719 16.433594 33.449219 C 16.321856 33.651819 16.067746 33.946384 15.900391 33.958984 C 15.697638 33.976984 15.502199 33.67335 15.318359 33.59375 C 14.76441 33.35375 14.497095 33.804247 14.037109 33.810547 C 13.610174 33.810547 13.000052 33.124056 13.021484 32.722656 C 13.034984 32.477656 13.162082 32.107687 13.191406 31.804688 C 13.215156 31.563887 13.380468 31.419019 13.382812 31.199219 C 13.386012 30.905319 12.993342 30.679331 12.802734 30.644531 C 12.350813 30.561531 11.726926 30.826541 11.208984 30.619141 C 11.110024 30.455541 11.323415 30.340941 11.378906 30.181641 C 11.410066 30.093641 11.388101 29.968741 11.425781 29.869141 C 11.483201 29.715841 11.644613 29.594641 11.716797 29.431641 C 11.771137 29.306741 11.779056 29.127256 11.833984 28.972656 C 11.896864 28.796956 12.015849 28.684147 12.029297 28.560547 C 12.047027 28.397047 11.986979 28.209163 11.859375 28.101562 C 11.457512 28.123562 11.193275 28.147847 10.964844 28.248047 C 10.441435 28.486247 10.544371 29.194028 10.021484 29.361328 C 9.8406803 29.418328 9.5936411 29.419125 9.3945312 29.453125 C 9.222924 29.483125 9.0149628 29.578619 8.8378906 29.574219 C 8.6283606 29.574219 8.2593497 29.370128 8.1347656 29.236328 C 8.0236466 29.116128 7.7551477 28.519763 7.7246094 28.414062 C 7.5187317 27.701163 7.7424874 27.046081 8.0136719 26.550781 C 8.0711049 26.444881 8.1662146 26.348881 8.2089844 26.238281 C 8.2736974 26.070381 8.230513 25.814012 8.28125 25.632812 C 8.373982 25.295513 8.8147975 25.092188 9.1269531 24.929688 C 9.4805763 24.745688 9.7796561 24.451328 10.191406 24.423828 C 10.39659 24.406828 10.695379 24.479438 10.892578 24.523438 C 11.07468 24.558438 11.22135 24.681659 11.378906 24.693359 C 11.825967 24.725359 11.932144 24.378294 12.296875 24.183594 C 12.673663 24.236594 12.925363 24.122203 13.265625 24.158203 C 13.497701 24.185203 13.664902 24.435219 13.845703 24.449219 C 13.997789 24.466219 14.130204 24.305125 14.277344 24.328125 C 14.420231 24.352125 14.668157 24.661038 14.691406 24.835938 C 14.720066 25.053138 14.531418 25.249581 14.59375 25.488281 C 14.821576 25.720281 15.236989 25.766491 15.5625 25.900391 C 15.774451 25.725491 15.59115 25.403391 15.5625 25.150391 C 15.5502 25.039091 15.57388 24.938438 15.5625 24.835938 C 15.54359 24.661838 15.465434 24.500662 15.464844 24.351562 C 15.461744 23.663362 16.018743 23.340159 16.480469 23.068359 C 16.680183 22.952159 16.838291 22.744803 17.011719 22.658203 C 17.256636 22.534603 17.439826 22.506578 17.642578 22.392578 C 18.009041 22.186678 18.320948 22.020109 18.607422 21.787109 C 18.739902 21.474909 18.615319 21.054694 18.630859 20.746094 C 18.763419 20.665094 18.881023 20.780484 19.021484 20.771484 C 19.242629 20.722484 19.257537 20.413663 19.382812 20.289062 C 19.454773 20.215062 19.657646 20.16425 19.748047 20.09375 C 19.968586 19.92075 20.038041 19.664344 20.230469 19.589844 C 20.299429 19.562844 20.459654 19.568062 20.568359 19.539062 C 20.712466 19.503062 20.915149 19.328147 21.148438 19.248047 C 21.299916 19.196047 21.647039 19.188453 21.705078 19.126953 C 21.776458 19.051953 21.705361 18.851688 21.728516 18.742188 C 21.84578 18.196087 22.670062 18.078231 23.15625 17.894531 C 23.497034 17.764931 23.848213 17.532769 24.222656 17.605469 C 24.149376 17.865069 23.798255 17.772691 23.857422 18.087891 C 23.939952 18.525191 24.523218 17.958531 24.677734 17.894531 C 24.972799 17.769631 25.478034 17.695087 25.865234 17.554688 C 26.204803 17.431288 26.814192 17.243869 26.494141 16.855469 C 26.22719 16.837469 26.097916 17.166125 25.865234 17.265625 C 25.704559 17.290625 25.736339 17.132041 25.599609 17.119141 C 25.470077 17.102141 25.395501 17.24025 25.261719 17.21875 C 25.128633 17.19475 24.942697 16.989584 24.921875 16.833984 C 24.868805 16.430284 25.262421 16.264091 25.429688 15.962891 C 25.319164 15.597691 24.815152 15.884788 24.509766 15.742188 C 24.539076 15.524887 24.76542 15.373631 25.019531 15.332031 C 25.22775 15.300031 25.694383 15.318688 25.818359 15.429688 C 25.891059 15.488687 25.827101 15.642641 25.939453 15.744141 C 26.062856 15.855441 26.213065 15.846012 26.373047 15.820312 C 26.431177 15.544713 26.013394 15.614241 26.058594 15.431641 C 26.385322 15.217741 26.914415 15.399938 27.314453 15.335938 C 27.544709 15.303938 27.788133 15.136584 27.992188 15.021484 C 28.186349 14.912284 28.440606 14.716384 28.646484 14.896484 C 28.702734 15.093684 28.465392 15.161566 28.355469 15.259766 C 27.985363 15.588866 27.602139 15.967709 27.314453 16.349609 C 27.491008 16.521909 27.814662 16.431797 28.113281 16.466797 C 28.229957 16.484797 28.378495 16.518969 28.501953 16.542969 C 28.646055 16.568969 28.797202 16.563797 28.910156 16.591797 C 29.113602 16.642797 29.172033 16.861328 29.373047 16.861328 C 29.704031 16.860628 29.705062 16.500944 29.517578 16.277344 C 29.576878 16.048844 29.66851 15.931784 29.587891 15.771484 C 29.438838 15.473784 28.891401 15.772566 28.863281 15.384766 C 28.845541 15.143666 29.064987 15.153456 29.152344 14.972656 C 29.112544 14.506656 29.539256 14.472388 29.494141 14.054688 C 29.475231 13.879788 29.325886 13.880097 29.203125 13.716797 C 29.139585 13.633797 29.107515 13.467044 29.03125 13.402344 C 28.778351 13.188844 28.26552 13.230066 28.234375 12.822266 C 28.222995 12.581366 28.291422 12.378588 28.257812 12.117188 C 28.226733 11.873687 28.060819 11.198744 27.847656 11.152344 C 27.577665 11.095344 27.300257 11.555684 26.976562 11.708984 C 26.800618 11.791984 26.549597 11.886916 26.373047 11.853516 C 26.25825 11.830516 26.029417 11.661053 26.011719 11.439453 C 25.992129 11.185053 26.179535 11.181556 26.226562 10.910156 C 26.186183 10.750356 26.02218 10.785116 25.865234 10.666016 C 25.687472 10.531016 25.545008 10.242384 25.308594 10.208984 C 25.190788 10.189984 25.039167 10.295594 24.921875 10.308594 C 24.562094 10.333594 24.250192 10.076972 23.976562 10.138672 C 23.649826 10.214672 23.665413 10.719306 23.349609 10.816406 C 23.392409 11.052806 23.070548 11.207631 23.035156 11.394531 C 23.011336 11.520631 23.074711 11.670756 23.082031 11.785156 C 23.154731 12.941856 22.203062 13.484225 21.076172 13.453125 C 20.855114 13.664525 20.907441 14.057856 20.787109 14.347656 C 20.685737 14.591556 20.327691 14.850778 20.083984 14.830078 C 19.903794 14.813078 19.697873 14.566238 19.697266 14.398438 C 19.696653 14.191337 19.997344 14.074291 19.818359 13.837891 C 19.844009 13.677491 20.200238 13.587931 20.15625 13.332031 C 20.11105 13.066031 19.738534 13.201756 19.40625 13.160156 C 19.164376 13.130156 18.845241 12.991447 18.630859 12.873047 C 18.347508 12.716147 18.105825 12.409181 17.736328 12.363281 C 17.526205 12.337281 17.32946 12.436453 17.230469 12.314453 C 17.12186 12.184753 17.2751 11.991444 17.28125 11.902344 C 17.27405 11.755344 17.000601 11.708453 16.988281 11.564453 C 16.978481 11.461653 17.24832 11.143887 17.351562 11.054688 C 17.54269 10.888287 17.891405 10.713675 18.199219 10.546875 C 18.500354 10.383575 18.848678 10.211081 19.140625 10.113281 C 19.265286 10.070281 19.407618 10.086063 19.527344 10.039062 C 19.833342 9.9264625 20.03471 9.7097 20.324219 9.625 C 20.475095 9.578 20.641979 9.5927813 20.810547 9.5507812 C 21.211808 9.4627813 21.508218 9.1734344 21.849609 9.1152344 C 21.773899 9.3937344 21.463327 9.4382031 21.390625 9.7207031 C 21.683173 10.253103 22.18413 9.5954563 22.527344 9.5976562 C 22.838891 9.5976562 23.150973 10.039647 23.347656 9.6230469 C 23.276246 9.3976469 23.066167 9.270025 22.865234 9.140625 C 22.679578 9.021425 22.386734 8.9131969 22.40625 8.6542969 C 22.629221 8.5535969 22.714253 8.8249719 22.914062 8.8261719 C 23.022762 8.8267719 23.164996 8.6919969 23.277344 8.6542969 C 23.529027 8.5692969 23.949851 8.5433875 24.148438 8.3671875 C 24.268083 8.2613875 24.246993 8.0913781 24.339844 7.9550781 C 24.419284 7.8399781 24.616844 7.8067531 24.701172 7.6894531 C 24.803831 7.5465531 24.7183 7.4268625 24.849609 7.3515625 C 25.131829 7.2255625 25.482251 7.3805625 25.794922 7.3515625 C 25.94276 7.3375625 26.040437 7.2188156 26.179688 7.2285156 C 26.450281 7.2515156 26.593816 7.6849937 26.783203 7.8085938 C 26.921848 7.8965937 27.171457 7.8933656 27.195312 8.0722656 C 27.242293 8.4251656 26.732683 8.4544125 26.419922 8.6328125 C 26.264194 8.7198125 26.202325 8.9215406 26.011719 8.9941406 C 25.499932 9.1896406 24.720349 8.7760781 24.556641 9.3300781 C 24.79305 9.6781781 25.226683 9.3076406 25.525391 9.3066406 C 25.738554 9.3066406 25.99825 9.5041313 26.128906 9.6445312 C 26.241931 9.7660312 26.282494 10.002631 26.419922 10.082031 C 26.511532 10.135031 26.672073 10.11725 26.783203 10.15625 C 27.138043 10.26425 27.435806 10.455447 27.824219 10.373047 C 27.957399 10.139047 27.550582 10.072272 27.705078 9.8886719 C 27.965345 9.9116719 28.131702 10.028075 28.332031 10.109375 C 28.611824 9.904675 28.800821 9.8793813 28.791016 9.5507812 C 28.783316 9.2758813 28.424823 9.2630125 28.429688 8.9453125 C 28.432688 8.7665125 28.557838 8.6871406 28.693359 8.6816406 C 29.004815 8.6666406 29.095699 9.1325156 29.324219 9.1660156 C 29.462171 9.1880156 29.870608 8.9857125 29.953125 8.9453125 C 30.069673 8.8893125 30.424011 8.6804469 30.435547 8.5605469 C 30.453347 8.3821469 30.062145 8.1493188 29.878906 8.0742188 C 29.618118 7.9672188 29.358274 7.9866656 29.253906 7.7597656 C 29.198336 7.6362656 29.284077 7.5119812 29.179688 7.4257812 C 29.167388 7.2949813 29.339245 7.2086313 29.300781 7.0820312 C 29.261661 6.9533313 29.120734 6.9756781 28.9375 6.8925781 C 28.808655 6.8345781 28.688442 6.7007281 28.576172 6.6738281 C 28.424614 6.6398281 28.275631 6.674 28.160156 6.625 C 27.735049 6.4675 27.81669 6.1113125 27.535156 5.9453125 C 27.169903 5.9923125 26.854423 5.8159031 26.591797 5.9707031 C 26.510107 5.9237031 26.414849 5.9103906 26.316406 5.9003906 L 26.316406 5.8925781 C 26.301376 5.8916781 26.284851 5.8925781 26.269531 5.8925781 z M 26.279297 7.875 C 26.045087 7.845 25.728608 8.0443375 25.767578 8.2109375 C 25.832878 8.4890375 26.521367 8.2110875 26.470703 7.9921875 C 26.426863 7.9191875 26.357388 7.8850531 26.279297 7.8769531 L 26.279297 7.875 z M 27.59375 8.4746094 C 27.6221 8.4741094 27.654721 8.49 27.681641 8.5 C 27.698741 8.6215 27.628751 8.6571781 27.509766 8.6425781 C 27.438296 8.5545781 27.50834 8.4763094 27.59375 8.4746094 z M 22.117188 9.9863281 C 22.070142 9.9908281 22.02832 10.003391 21.996094 10.025391 C 21.901484 10.081391 21.88989 10.171497 21.898438 10.216797 C 21.950267 10.473997 22.434539 10.250187 22.429688 10.117188 C 22.426787 10.055188 22.353855 10.008534 22.261719 9.9902344 L 22.261719 9.9941406 C 22.215649 9.9841406 22.164233 9.9818281 22.117188 9.9863281 z M 47.925781 10.542969 C 47.892441 10.796569 47.991711 10.995594 48.019531 11.183594 C 48.039691 11.319094 47.999732 11.442766 48.044922 11.572266 C 48.124362 11.798666 48.444347 12.03125 48.746094 12.03125 C 48.999357 12.03125 49.219911 11.861144 49.429688 11.714844 C 48.945501 11.303844 48.438652 10.919569 47.925781 10.542969 z M 44.925781 11.646484 C 44.801786 11.807884 44.5804 11.742653 44.369141 11.814453 C 44.198662 11.872453 43.879921 12.167184 43.835938 12.271484 C 43.763238 12.443884 43.853678 12.637244 43.835938 12.902344 C 43.973967 12.960344 44.059117 13.233881 44.294922 13.363281 C 44.384112 13.413281 44.506467 13.3905 44.585938 13.4375 C 44.723971 13.5155 44.832784 13.683966 44.804688 13.822266 C 44.763787 14.020466 44.504045 13.968434 44.369141 14.115234 C 44.392301 14.397234 44.171754 14.433194 44.101562 14.621094 C 44.143783 14.739094 44.322892 14.721128 44.341797 14.861328 C 44.314907 15.015328 44.041694 15.040425 44.101562 15.203125 C 44.360538 15.405325 44.630077 15.158906 44.875 15.128906 C 45.416107 15.059906 45.970453 15.190894 46.302734 14.933594 C 46.257514 14.675394 46.573032 14.584416 46.544922 14.353516 C 46.523442 14.179616 46.23453 14.159163 46.107422 14.039062 C 46.039702 13.978063 46.024555 13.826372 45.941406 13.701172 C 45.846206 13.557672 45.659014 13.454353 45.552734 13.314453 C 45.410452 13.125753 45.116677 12.852684 45.117188 12.708984 C 45.119588 12.543984 45.320808 12.497584 45.357422 12.271484 C 45.315352 12.063984 44.932184 12.200875 44.902344 11.984375 C 44.918174 11.847575 45.043693 11.822622 45.044922 11.669922 C 45.016852 11.647922 44.981399 11.640484 44.925781 11.646484 z M 49.761719 12.220703 L 49.761719 12.224609 C 49.395856 12.398809 49.136494 12.347866 49.035156 12.634766 C 48.906839 12.998766 49.256961 13.265716 49.205078 13.603516 C 49.150118 13.958316 48.4161 13.835231 48.091797 13.894531 C 47.849312 13.941531 47.760265 14.235209 47.560547 14.474609 C 47.421915 14.641409 47.160951 14.821556 46.955078 14.910156 C 46.854309 14.956156 46.732835 14.943766 46.640625 15.009766 C 46.504414 15.096766 46.457242 15.315222 46.302734 15.419922 C 46.19148 15.495922 45.767687 15.706784 45.650391 15.708984 C 45.512967 15.708984 45.38601 15.583434 45.287109 15.615234 C 45.141787 15.663234 45.159828 15.944253 44.996094 16.001953 C 44.675434 16.114753 44.141037 15.717412 44.029297 16.195312 C 44.166718 16.471712 44.515886 16.403641 44.755859 16.556641 C 44.906737 16.650641 45.223935 17.072475 45.263672 17.234375 C 45.297252 17.371175 45.245623 17.913194 45.189453 18.058594 C 45.039797 18.444394 44.692069 18.309428 44.248047 18.298828 C 44.126509 18.298828 43.999071 18.330219 43.886719 18.324219 C 43.137912 18.272219 42.385231 18.011622 42.046875 18.544922 C 42.074175 18.955422 42.16069 19.227284 42.070312 19.583984 C 42.003763 19.845884 41.769709 20.083547 41.78125 20.310547 C 41.78665 20.425747 41.921027 20.536912 41.949219 20.695312 C 41.963959 20.778313 41.910079 20.958956 41.949219 21.035156 C 42.072005 21.273656 42.408237 21.069375 42.626953 21.109375 C 42.840723 21.142375 43.088384 21.450053 43.085938 21.689453 C 43.083638 21.856353 42.924031 22.134222 42.818359 22.294922 C 42.607104 22.615622 42.323839 22.631734 42.021484 22.802734 C 41.769282 22.945634 41.661507 23.183141 41.513672 23.431641 C 41.353602 23.700441 41.25633 23.863053 41.322266 24.251953 C 41.106064 24.680753 40.777836 24.944437 40.330078 25.148438 C 40.1976 25.206437 40.01608 25.230559 39.894531 25.318359 C 39.798091 25.391359 39.740941 25.575869 39.603516 25.730469 C 39.434341 25.919769 39.257152 25.996525 39.167969 26.140625 C 39.099009 26.252125 39.075778 26.473347 39 26.623047 C 38.896749 26.825947 38.672709 26.927013 38.537109 27.132812 C 38.474799 27.231812 38.438169 27.418169 38.369141 27.542969 C 38.215836 27.821269 37.956257 28.022678 37.984375 28.267578 C 38.012375 28.504578 38.276608 28.547406 38.294922 28.753906 C 38.305622 28.869006 38.219749 28.939306 38.224609 29.066406 C 38.232809 29.252006 38.354481 29.382591 38.369141 29.525391 C 38.405791 29.884591 38.243553 30.029991 38.175781 30.275391 C 38.143391 30.391691 38.159436 30.523434 38.128906 30.615234 C 38.069606 30.794634 37.81935 30.957322 37.814453 31.169922 C 37.811453 31.321422 37.971536 31.44445 37.984375 31.65625 C 37.994175 31.80215 37.907954 31.953491 37.933594 32.087891 C 37.984894 32.351191 38.455585 32.658681 38.660156 32.863281 C 38.933789 33.136881 39.290299 33.348419 39.408203 33.636719 C 39.507733 33.881519 39.510671 34.204172 39.701172 34.388672 C 39.842242 34.524172 40.075055 34.6082 40.255859 34.75 C 40.424342 34.8809 40.608951 34.998172 40.789062 35.138672 C 41.083517 35.368972 41.526992 35.824462 41.996094 35.789062 C 42.241009 35.769063 42.491652 35.572938 42.769531 35.523438 C 43.055398 35.472438 43.42655 35.445609 43.714844 35.474609 C 43.935988 35.498609 44.160975 35.630241 44.390625 35.619141 C 44.633026 35.608141 44.914002 35.424987 45.189453 35.304688 C 45.66645 35.097088 46.37934 34.817822 47.076172 34.919922 C 47.606962 34.997922 47.579582 35.604891 47.947266 35.837891 C 48.3742 35.870891 48.722802 35.680019 49.060547 35.761719 C 49.315871 35.822719 49.616246 36.211863 49.640625 36.414062 C 49.665685 36.623863 49.526646 36.938959 49.496094 37.068359 C 49.429464 37.350559 49.423702 37.686434 49.373047 37.865234 C 49.333907 38.003734 49.226068 38.093722 49.228516 38.232422 C 49.231416 38.359722 49.389476 38.667884 49.519531 38.833984 C 49.678384 39.038184 49.931961 39.194916 50.125 39.416016 C 50.479229 39.821116 50.630078 40.30995 50.875 40.84375 C 50.96419 41.03745 51.134443 41.339069 51.138672 41.542969 C 51.141672 41.693769 51.054309 41.826616 51.068359 41.978516 C 51.098839 42.302816 51.2998 42.445369 51.333984 42.730469 C 51.413434 43.403169 50.80501 43.601397 50.681641 44.154297 C 50.652491 44.286697 50.683247 44.424369 50.65625 44.542969 C 50.61469 44.722369 50.487226 44.855591 50.460938 45.025391 C 50.434697 45.198591 50.397492 45.527225 50.414062 45.703125 C 50.438542 45.962325 50.715438 46.201288 50.851562 46.429688 C 50.996358 46.672887 51.112809 47.081331 51.283203 47.394531 C 51.377813 47.567931 51.537128 47.715622 51.576172 47.857422 C 51.626802 48.041122 51.574823 48.284913 51.601562 48.507812 C 51.622892 48.688512 51.721623 48.845134 51.746094 48.990234 C 51.814894 49.398217 51.84161 49.803391 52.015625 50.154297 C 55.422747 46.397885 57.77629 41.671722 58.634766 36.427734 C 58.839729 35.087488 58.951172 33.714624 58.951172 32.314453 C 58.951172 29.358853 58.465121 26.524788 57.595703 23.867188 C 57.277608 23.796188 56.942798 23.587675 56.582031 23.546875 C 56.474513 23.531875 56.351896 23.569875 56.267578 23.546875 C 56.155817 23.518875 56.06912 23.389363 55.953125 23.351562 C 55.752104 23.289563 55.598342 23.326344 55.421875 23.277344 C 55.183643 22.857644 53.976199 22.829766 53.873047 23.447266 C 53.827167 23.719666 54.014359 24.101537 53.609375 24.148438 C 53.352223 24.177437 53.086784 23.886747 52.734375 23.810547 C 52.590269 23.779547 52.387744 23.793766 52.275391 23.759766 C 52.011561 23.671766 52.043543 23.414006 51.816406 23.253906 C 51.684454 23.162906 51.346976 23.034319 51.138672 23.011719 C 51.009231 22.994719 50.890725 23.046156 50.753906 23.035156 C 50.591409 23.015156 50.358115 22.904313 50.220703 22.820312 C 50.089436 22.740313 49.818733 22.618706 49.785156 22.503906 C 49.733856 22.325506 50.11216 22.124256 50.125 21.972656 C 50.1348 21.860056 49.983202 21.785175 49.955078 21.609375 C 49.938578 21.502475 50.000649 21.391013 49.980469 21.320312 C 49.945059 21.195512 49.737732 21.057687 49.542969 21.054688 C 49.37066 21.054688 49.207767 21.194219 49.060547 21.199219 C 48.847986 21.213219 48.50346 21.081709 48.240234 21.099609 C 48.078953 21.114609 47.927603 21.209503 47.777344 21.220703 C 47.355871 21.252703 47.017525 21.199703 46.691406 21.220703 C 46.453864 21.237703 46.041373 21.308409 45.820312 21.412109 C 45.707968 21.464109 45.625177 21.579644 45.480469 21.652344 C 45.415169 21.683344 45.322993 21.685516 45.236328 21.728516 C 45.098898 21.788516 44.958785 21.937903 44.828125 21.970703 C 44.638736 22.020703 44.345907 21.937266 44.003906 21.947266 C 43.75838 21.963266 43.357194 21.963197 43.353516 21.654297 C 43.347616 21.206497 44.112477 21.371969 44.535156 21.292969 C 44.694535 21.263969 44.782134 21.114753 44.972656 21.001953 C 45.063756 20.947953 45.178124 20.940159 45.263672 20.880859 C 45.410202 20.778059 45.628961 20.538675 45.650391 20.421875 C 45.669311 20.313875 45.588832 20.163984 45.601562 20.083984 C 45.618203 19.980184 45.735926 19.873741 45.867188 19.744141 C 46.071154 19.542541 46.29454 19.272625 46.544922 19.140625 C 46.716006 19.052625 46.950519 19.060428 47.029297 18.923828 C 47.047037 18.768928 47.000226 18.680163 47.003906 18.539062 C 47.109006 18.441063 47.183515 18.360797 47.271484 18.341797 C 47.532272 18.285797 47.788237 18.524419 48.091797 18.511719 C 48.223062 18.511719 48.337442 18.408906 48.478516 18.316406 C 48.597008 18.237406 48.725713 18.184 48.841797 18.125 C 48.969431 18.061 49.100734 17.917903 49.255859 17.908203 C 49.636378 17.883203 49.782169 18.309863 49.955078 18.539062 C 50.099793 18.729562 50.516365 19.054 50.753906 19.1875 C 50.887681 19.2645 51.065662 19.269037 51.212891 19.335938 C 51.526867 19.476938 52.143847 19.945906 52.154297 20.253906 C 52.159597 20.407806 52.011317 20.524416 52.035156 20.666016 C 52.272702 20.707016 52.538805 20.445231 52.544922 20.207031 C 52.548022 20.058131 52.394992 19.975459 52.423828 19.818359 C 52.534947 19.579059 52.858372 19.81885 53.001953 19.71875 C 52.974473 19.44795 52.60391 19.425456 52.373047 19.285156 C 52.248449 19.208156 52.164599 19.045187 52.035156 18.992188 C 51.847668 18.914188 51.649919 18.938119 51.503906 18.824219 C 51.367083 18.718319 51.297103 18.475153 51.162109 18.314453 C 50.966036 18.080453 50.538345 18.045178 50.65625 17.517578 C 50.71495 17.437578 50.856259 17.315909 50.947266 17.349609 C 51.12685 17.395609 51.103767 17.545972 51.236328 17.638672 C 51.332768 17.709672 51.468073 17.692166 51.576172 17.759766 C 51.70319 17.839766 51.77056 18.048922 51.914062 18.169922 C 52.116903 18.340122 52.475932 18.471322 52.761719 18.607422 C 53.02927 18.734822 53.459239 18.907872 53.511719 19.138672 C 53.541029 19.268472 53.469178 19.412491 53.486328 19.525391 C 53.507658 19.669091 53.610603 19.814956 53.679688 19.910156 C 53.866557 20.168056 54.128106 20.398338 54.333984 20.710938 C 54.328084 21.136037 54.485802 21.399297 54.962891 21.341797 C 55.135105 21.252797 55.046694 21.120063 55.181641 20.976562 C 55.308644 20.841463 55.587399 20.860909 55.589844 20.662109 C 55.592844 20.358609 54.867548 20.310381 54.962891 19.863281 C 54.990951 19.720381 55.148376 19.788063 55.275391 19.789062 C 55.383978 19.662863 55.554277 19.526056 55.732422 19.472656 C 54.588112 17.347056 53.153407 15.408381 51.503906 13.675781 C 51.471356 13.675781 51.43887 13.697266 51.40625 13.697266 C 51.226057 13.697266 51.040386 13.476016 50.753906 13.478516 C 50.606071 13.478516 50.49388 13.585863 50.341797 13.601562 C 50.150063 13.622562 49.845408 13.540166 49.859375 13.384766 C 49.880855 13.145966 50.204967 13.340594 50.390625 13.308594 C 50.624008 13.264594 50.571703 13.070816 50.730469 13.041016 C 50.797629 13.031016 50.865541 13.063844 50.943359 13.089844 C 50.821576 12.968344 50.688507 12.861941 50.564453 12.744141 C 50.427013 12.873741 50.092701 12.923475 49.90625 12.921875 C 49.88675 12.703375 49.93828 12.345803 49.761719 12.220703 z M 43.263672 13.150391 L 43.263672 13.152344 C 43.164782 13.162344 43.069054 13.188281 42.988281 13.238281 C 42.804444 13.349681 42.743931 13.523825 42.601562 13.578125 C 42.40549 13.654125 42.269466 13.593884 42.240234 13.771484 C 42.216364 13.920484 42.36559 13.993013 42.361328 14.132812 C 42.289878 14.310612 42.080319 14.355812 42.044922 14.570312 C 42.289839 14.970112 42.87942 14.608531 43.183594 14.519531 C 43.320416 14.476531 43.519832 14.488553 43.59375 14.376953 C 43.67811 14.248353 43.601552 14.026897 43.664062 13.841797 C 43.734192 13.638597 43.933931 13.613041 43.910156 13.431641 C 43.886756 13.251441 43.56016 13.120891 43.263672 13.150391 z M 13.626953 13.84375 C 14.079487 13.73785 13.896864 14.538928 13.626953 14.548828 C 13.250692 14.562828 13.323913 13.91455 13.626953 13.84375 z M 16.673828 15.976562 C 16.893071 16.033563 17.47022 16.663941 16.988281 16.869141 C 16.942551 16.890141 16.278317 16.957359 16.164062 16.943359 C 15.996787 16.915359 15.901597 16.684297 15.732422 16.654297 C 15.398319 16.597297 14.945835 17.055034 14.716797 16.677734 C 14.774767 16.462634 15.014295 16.457972 15.269531 16.388672 C 15.722757 16.265372 16.281692 15.877969 16.673828 15.980469 L 16.673828 15.976562 z M 17.59375 17.130859 L 17.59375 17.134766 C 17.706692 17.144766 17.843646 17.269097 17.980469 17.279297 C 18.109908 17.296297 18.217491 17.214469 18.296875 17.230469 C 18.499032 17.283469 18.580644 17.590534 18.390625 17.740234 C 18.232461 17.761234 18.171854 17.668406 18.052734 17.691406 C 17.72418 17.747406 17.59709 18.386634 17.351562 18.365234 C 17.120006 18.343234 16.995346 17.785187 17.230469 17.617188 C 17.239469 17.470587 17.125369 17.445581 17.132812 17.300781 C 17.203682 17.212781 17.400799 17.114359 17.59375 17.130859 z M 16.503906 17.210938 C 16.571296 17.210938 16.625332 17.229766 16.650391 17.259766 C 16.618011 17.517766 16.413959 17.503047 16.214844 17.623047 C 15.870936 17.831047 15.6719 18.148097 15.5625 18.591797 C 15.53073 18.721397 15.193007 19.057838 15.029297 19.023438 C 14.645747 18.942438 15.13524 18.236506 15.222656 18.128906 C 15.319106 18.011406 15.448325 17.905078 15.5625 17.767578 C 15.673023 17.634278 15.742724 17.455259 15.849609 17.380859 C 15.966391 17.300859 16.301816 17.207044 16.503906 17.214844 L 16.503906 17.210938 z M 19.367188 18.080078 L 19.367188 18.082031 C 19.489904 18.082031 19.596073 18.103437 19.646484 18.148438 C 19.567684 18.467938 18.882551 18.385584 18.630859 18.271484 C 18.647359 18.152384 18.837848 18.117662 18.996094 18.101562 C 19.108203 18.091563 19.244415 18.079078 19.367188 18.080078 z M 17.800781 18.666016 L 17.800781 18.671875 C 17.883331 18.671875 17.966769 18.671078 18.052734 18.705078 C 17.829854 18.891278 17.589372 18.996388 17.207031 19.117188 C 17.023188 19.174188 16.704979 19.248116 16.673828 19.041016 C 16.635348 18.789516 16.941411 18.846719 17.109375 18.824219 C 17.320588 18.796219 17.553209 18.674016 17.800781 18.666016 z M 49.318359 18.671875 C 49.161523 18.723875 49.086859 19.053503 49.326172 19.095703 C 49.437278 19.032703 49.523601 18.939075 49.496094 18.734375 C 49.434724 18.670375 49.372601 18.653828 49.320312 18.673828 L 49.318359 18.673828 L 49.318359 18.671875 z M 49.257812 19.345703 C 49.180262 19.368703 49.094791 19.423012 49.011719 19.507812 C 49.017619 19.777812 49.041411 19.950847 48.988281 20.185547 C 49.144097 20.483447 49.486944 20.213272 49.566406 20.013672 C 49.659846 19.510172 49.490205 19.282303 49.257812 19.345703 z M 51.320312 20.677734 C 51.105027 20.663734 50.903485 20.694763 50.777344 20.789062 C 50.954503 21.079262 51.326257 21.176547 51.722656 21.248047 C 51.86554 21.141047 51.872176 20.899744 51.9375 20.714844 C 51.763724 20.714844 51.535603 20.687641 51.320312 20.681641 L 51.320312 20.677734 z M 18.246094 33.246094 C 18.47816 33.139094 18.535035 33.576322 18.34375 33.607422 C 18.16295 33.635422 18.070683 33.327294 18.246094 33.246094 z "
       transform="translate(0,1058.5196)"
       id="path34" />
    <path
       id="path4186"
       d="m 17,1075.5196 0,14 3,0 0,6 6.5,-6 10.5,0 0,-14 z"
       style="fill:#e4f1fe;fill-opacity:1;fill-rule:evenodd;stroke:none;stroke-width:1px;stroke-linecap:butt;stroke-linejoin:miter;stroke-opacity:1"
       inkscape:connector-curvature="0"
       sodipodi:nodetypes="cccccccc" />
    <path
       sodipodi:nodetypes="cccccccc"
       inkscape:connector-curvature="0"
       style="fill:#e4f1fe;fill-opacity:1;fill-rule:evenodd;stroke:none;stroke-width:1px;stroke-linecap:butt;stroke-linejoin:miter;stroke-opacity:1"
       d="m 29.088388,1089.5196 0,14 3,0 0,6 6.5,-6 10.5,0 0,-14 z"
       id="path4159" />
  </g>
</svg>
