<?xml version="1.0" encoding="UTF-8" standalone="no"?>
<!-- Created with Inkscape (http://www.inkscape.org/) -->

<svg
   xmlns:dc="http://purl.org/dc/elements/1.1/"
   xmlns:cc="http://creativecommons.org/ns#"
   xmlns:rdf="http://www.w3.org/1999/02/22-rdf-syntax-ns#"
   xmlns:svg="http://www.w3.org/2000/svg"
   xmlns="http://www.w3.org/2000/svg"
   xmlns:sodipodi="http://sodipodi.sourceforge.net/DTD/sodipodi-0.dtd"
   xmlns:inkscape="http://www.inkscape.org/namespaces/inkscape"
   width="64"
   height="64"
   viewBox="0 0 64 64.000003"
   id="svg2"
   version="1.1"
   inkscape:version="0.91+devel r"
   sodipodi:docname="kmix.svg">
  <defs
     id="defs4" />
  <sodipodi:namedview
     id="base"
     pagecolor="#ffffff"
     bordercolor="#666666"
     borderopacity="1.0"
     inkscape:pageopacity="0.0"
     inkscape:pageshadow="2"
     inkscape:zoom="5.6568539"
     inkscape:cx="-18.824958"
     inkscape:cy="23.962867"
     inkscape:document-units="px"
     inkscape:current-layer="layer1"
     showgrid="true"
     units="px"
     inkscape:showpageshadow="false"
     borderlayer="true"
     inkscape:window-width="2560"
     inkscape:window-height="957"
     inkscape:window-x="-4"
     inkscape:window-y="29"
     inkscape:window-maximized="1"
     showguides="true">
    <inkscape:grid
       type="xygrid"
       id="grid4136" />
    <sodipodi:guide
       position="5,59.000069"
       orientation="54,0"
       id="guide4142" />
    <sodipodi:guide
       position="5,5.0000688"
       orientation="0,54"
       id="guide4144" />
    <sodipodi:guide
       position="59,5.0000688"
       orientation="-54,0"
       id="guide4146" />
    <sodipodi:guide
       position="59,59.000069"
       orientation="0,-54"
       id="guide4148" />
    <sodipodi:guide
       position="0,64.000069"
       orientation="64,0"
       id="guide4150" />
    <sodipodi:guide
       position="0,6.875e-05"
       orientation="0,64"
       id="guide4152" />
    <sodipodi:guide
       position="64,6.875e-05"
       orientation="-64,0"
       id="guide4154" />
    <sodipodi:guide
       position="64,64.000069"
       orientation="0,-64"
       id="guide4156" />
    <sodipodi:guide
       position="13,50.999947"
       orientation="38,0"
       id="guide4155" />
    <sodipodi:guide
       position="13,12.999947"
       orientation="0,38"
       id="guide4157" />
    <sodipodi:guide
       position="51,12.999947"
       orientation="-38,0"
       id="guide4159" />
    <sodipodi:guide
       position="51,50.999947"
       orientation="0,-38"
       id="guide4161" />
  </sodipodi:namedview>
  <metadata
     id="metadata7">
    <rdf:RDF>
      <cc:Work
         rdf:about="">
        <dc:format>image/svg+xml</dc:format>
        <dc:type
           rdf:resource="http://purl.org/dc/dcmitype/StillImage" />
        <dc:title />
      </cc:Work>
    </rdf:RDF>
  </metadata>
  <g
     inkscape:label="Capa 1"
     inkscape:groupmode="layer"
     id="layer1"
     transform="translate(0,-1058.5196)">
    <rect
       style="opacity:1;fill:#bc672b;fill-opacity:1;stroke:none;stroke-opacity:1"
       id="rect4155"
       width="48"
       height="54.000122"
       x="8"
       y="1063.5195"
       ry="1.0000688" />
    <rect
       style="opacity:1;fill:#222222;fill-opacity:1;stroke:none;stroke-opacity:1"
       id="rect4186"
       width="44"
       height="49.999947"
       x="10"
       y="1065.5197"
       ry="2.08832" />
    <path
       style="opacity:1;fill:#121212;fill-opacity:1;stroke:none;stroke-opacity:1"
       d="M 21 15 A 4 4 0 0 0 17 19 A 4 4 0 0 0 18.310547 21.953125 A 17 17 0 0 0 15 32 A 17 17 0 0 0 18.310547 42.044922 A 4 4 0 0 0 17 45 A 4 4 0 0 0 21 49 A 4 4 0 0 0 24.357422 47.164062 A 17 17 0 0 0 32 49 A 17 17 0 0 0 39.646484 47.179688 A 4 4 0 0 0 43 49 A 4 4 0 0 0 47 45 A 4 4 0 0 0 45.689453 42.046875 A 17 17 0 0 0 49 32 A 17 17 0 0 0 45.689453 21.955078 A 4 4 0 0 0 47 19 A 4 4 0 0 0 43 15 A 4 4 0 0 0 39.640625 16.835938 A 17 17 0 0 0 32 15 A 17 17 0 0 0 24.353516 16.820312 A 4 4 0 0 0 21 15 z M 32 17 A 15 15 0 0 1 47 32 A 15 15 0 0 1 32 47 A 15 15 0 0 1 17 32 A 15 15 0 0 1 32 17 z "
       transform="translate(0,1058.5196)"
       id="circle4221" />
    <circle
       style="opacity:1;fill:#bdc3c7;fill-opacity:1;stroke:none;stroke-opacity:1"
       id="path4188"
       cx="12"
       cy="1067.5197"
       r="1" />
    <circle
       style="opacity:1;fill:#bdc3c7;fill-opacity:1;stroke:none;stroke-opacity:1"
       id="path4188-9"
       cx="52"
       cy="1067.5197"
       r="1" />
    <circle
       r="1"
       cy="1113.5197"
       cx="12"
       id="circle4205"
       style="opacity:1;fill:#bdc3c7;fill-opacity:1;stroke:none;stroke-opacity:1" />
    <circle
       r="1"
       cy="1113.5197"
       cx="52"
       id="circle4207"
       style="opacity:1;fill:#bdc3c7;fill-opacity:1;stroke:none;stroke-opacity:1" />
    <path
       style="opacity:1;fill:#292929;fill-opacity:1;stroke:none;stroke-opacity:1"
       d="M 32 18 A 14 14 0 0 0 18 32 A 14 14 0 0 0 32 46 A 14 14 0 0 0 46 32 A 14 14 0 0 0 32 18 z M 32 21 A 11 11 0 0 1 43 32 A 11 11 0 0 1 32 43 A 11 11 0 0 1 21 32 A 11 11 0 0 1 32 21 z "
       id="circle4211"
       transform="translate(0,1058.5196)" />
    <path
       style="opacity:1;fill:#2c2f2f;fill-opacity:1;stroke:none;stroke-opacity:1"
       d="M 32 21 A 11 11 0 0 0 21 32 A 11 11 0 0 0 32 43 A 11 11 0 0 0 43 32 A 11 11 0 0 0 32 21 z M 32 28 A 4 4 0 0 1 36 32 A 4 4 0 0 1 32 36 A 4 4 0 0 1 28 32 A 4 4 0 0 1 32 28 z "
       id="circle4215"
       transform="translate(0,1058.5196)" />
    <circle
       style="opacity:1;fill:#bdc3c7;fill-opacity:1;stroke:none;stroke-opacity:1"
       id="circle4213"
       cx="32"
       cy="1090.5197"
       r="4" />
    <path
       style="opacity:1;fill:#bdc3c7;fill-opacity:1;stroke:none;stroke-opacity:1"
       d="M 20 17 A 1 1 0 0 0 19 18 A 1 1 0 0 0 20 19 A 1 1 0 0 0 21 18 A 1 1 0 0 0 20 17 z M 44 17 A 1 1 0 0 0 43 18 A 1 1 0 0 0 44 19 A 1 1 0 0 0 45 18 A 1 1 0 0 0 44 17 z M 20 45 A 1 1 0 0 0 19 46 A 1 1 0 0 0 20 47 A 1 1 0 0 0 21 46 A 1 1 0 0 0 20 45 z M 44 45 A 1 1 0 0 0 43 46 A 1 1 0 0 0 44 47 A 1 1 0 0 0 45 46 A 1 1 0 0 0 44 45 z "
       transform="translate(0,1058.5196)"
       id="circle4207-1" />
    <path
       style="opacity:1;fill:#9a5423;fill-opacity:1;stroke:none;stroke-width:0.1;stroke-linecap:square;stroke-linejoin:miter;stroke-miterlimit:4;stroke-dasharray:none;stroke-dashoffset:0;stroke-opacity:1"
       d="M 8 58 C 8 58.554038 8.4459619 59 9 59 L 55 59 C 55.554038 59 56 58.554038 56 58 L 8 58 z "
       transform="translate(0,1058.5196)"
       id="rect4162" />
  </g>
</svg>
