<?xml version="1.0" encoding="UTF-8" standalone="no"?>
<!-- Created with Inkscape (http://www.inkscape.org/) -->

<svg
   xmlns:dc="http://purl.org/dc/elements/1.1/"
   xmlns:cc="http://creativecommons.org/ns#"
   xmlns:rdf="http://www.w3.org/1999/02/22-rdf-syntax-ns#"
   xmlns:svg="http://www.w3.org/2000/svg"
   xmlns="http://www.w3.org/2000/svg"
   xmlns:sodipodi="http://sodipodi.sourceforge.net/DTD/sodipodi-0.dtd"
   xmlns:inkscape="http://www.inkscape.org/namespaces/inkscape"
   width="64"
   height="64"
   viewBox="0 0 64 64.000003"
   id="svg2"
   version="1.1"
   inkscape:version="0.91+devel r"
   sodipodi:docname="qtcreator.svg">
  <defs
     id="defs4" />
  <sodipodi:namedview
     id="base"
     pagecolor="#ffffff"
     bordercolor="#666666"
     borderopacity="1.0"
     inkscape:pageopacity="0.0"
     inkscape:pageshadow="2"
     inkscape:zoom="11.313708"
     inkscape:cx="20.839408"
     inkscape:cy="31.433818"
     inkscape:document-units="px"
     inkscape:current-layer="layer1"
     showgrid="true"
     units="px"
     inkscape:showpageshadow="false"
     borderlayer="true"
     inkscape:window-width="2560"
     inkscape:window-height="957"
     inkscape:window-x="-4"
     inkscape:window-y="29"
     inkscape:window-maximized="1"
     showguides="true">
    <inkscape:grid
       type="xygrid"
       id="grid4136" />
    <sodipodi:guide
       position="5,59.000069"
       orientation="54,0"
       id="guide4142" />
    <sodipodi:guide
       position="5,5.0000688"
       orientation="0,54"
       id="guide4144" />
    <sodipodi:guide
       position="59,5.0000688"
       orientation="-54,0"
       id="guide4146" />
    <sodipodi:guide
       position="59,59.000069"
       orientation="0,-54"
       id="guide4148" />
    <sodipodi:guide
       position="0,64.000069"
       orientation="64,0"
       id="guide4150" />
    <sodipodi:guide
       position="0,6.875e-05"
       orientation="0,64"
       id="guide4152" />
    <sodipodi:guide
       position="64,6.875e-05"
       orientation="-64,0"
       id="guide4154" />
    <sodipodi:guide
       position="64,64.000069"
       orientation="0,-64"
       id="guide4156" />
    <sodipodi:guide
       position="13,50.999947"
       orientation="38,0"
       id="guide4155" />
    <sodipodi:guide
       position="13,12.999947"
       orientation="0,38"
       id="guide4157" />
    <sodipodi:guide
       position="51,12.999947"
       orientation="-38,0"
       id="guide4159" />
    <sodipodi:guide
       position="51,50.999947"
       orientation="0,-38"
       id="guide4161" />
  </sodipodi:namedview>
  <metadata
     id="metadata7">
    <rdf:RDF>
      <cc:Work
         rdf:about="">
        <dc:format>image/svg+xml</dc:format>
        <dc:type
           rdf:resource="http://purl.org/dc/dcmitype/StillImage" />
        <dc:title />
      </cc:Work>
    </rdf:RDF>
  </metadata>
  <g
     inkscape:label="Capa 1"
     inkscape:groupmode="layer"
     id="layer1"
     transform="translate(0,-1058.5196)">
    <rect
       style="fill:#202b33;fill-opacity:1;stroke:none"
       id="rect4148-2"
       width="56"
       height="52.000175"
       x="3.999999"
       y="1064.5197" />
    <path
       inkscape:connector-curvature="0"
       style="opacity:1;fill:#34495e;fill-opacity:1;stroke:none;stroke-opacity:1"
       d="m 4,1063.5196 c -0.554038,0 -1,0.446 -1,1 l 0,51 0,1 c 0,0.554 0.445962,1 1,1 l 1,0 55,0 c 0.554038,0 1,-0.446 1,-1 l 0,-52 c 0,-0.554 -0.445962,-1 -1,-1 l -55,0 -1,0 z m 1,4 54,0 0,48 -54,0 0,-48 z"
       id="rect4151-3" />
    <circle
       style="opacity:1;fill:#ecf0f1;fill-opacity:1;stroke:none;stroke-opacity:1"
       id="path4155-0"
       cx="57.999981"
       cy="1065.5197"
       r="1" />
    <rect
       style="opacity:1;fill:#03c9a9;fill-opacity:1;stroke:none;stroke-opacity:1"
       id="rect4153-5"
       width="54"
       height="1.018868"
       x="4.999999"
       y="1067.5197" />
    <path
       inkscape:connector-curvature="0"
       style="opacity:1;fill:#2c3e4f;fill-opacity:1;stroke:none;stroke-width:0.1;stroke-linecap:square;stroke-linejoin:miter;stroke-miterlimit:4;stroke-dasharray:none;stroke-dashoffset:0;stroke-opacity:1"
       d="m 3,1116.5196 c 0,0.554 0.445962,1 1,1 l 56,0 c 0.554038,0 1,-0.446 1,-1 l -58,0 z"
       id="rect4171" />
    <rect
       style="opacity:1;fill:#3498db;fill-opacity:1;stroke:none;stroke-width:1;stroke-linecap:round;stroke-linejoin:miter;stroke-miterlimit:4;stroke-dasharray:none;stroke-opacity:0.29943501"
       id="rect4215"
       width="6"
       height="0.99994463"
       x="10"
       y="1071.5197" />
    <rect
       style="opacity:1;fill:#f4b350;fill-opacity:1;stroke:none;stroke-width:1;stroke-linecap:round;stroke-linejoin:miter;stroke-miterlimit:4;stroke-dasharray:none;stroke-opacity:0.29943501"
       id="rect4217"
       width="8"
       height="0.99994463"
       x="17"
       y="1071.5197" />
    <rect
       style="opacity:1;fill:#2abb9b;fill-opacity:1;stroke:none;stroke-width:1;stroke-linecap:round;stroke-linejoin:miter;stroke-miterlimit:4;stroke-dasharray:none;stroke-opacity:0.29943501"
       id="rect4219"
       width="2"
       height="0.99994463"
       x="27"
       y="1071.5197" />
    <rect
       style="opacity:1;fill:#3498db;fill-opacity:1;stroke:none;stroke-width:1;stroke-linecap:round;stroke-linejoin:miter;stroke-miterlimit:4;stroke-dasharray:none;stroke-opacity:0.29943501"
       id="rect4221"
       width="1"
       height="0.99994463"
       x="31"
       y="1071.5197" />
    <rect
       style="opacity:1;fill:#3498db;fill-opacity:1;stroke:none;stroke-width:1;stroke-linecap:round;stroke-linejoin:miter;stroke-miterlimit:4;stroke-dasharray:none;stroke-opacity:0.29943501"
       id="rect4223"
       width="7"
       height="0.99994463"
       x="34"
       y="1071.5197" />
    <rect
       style="opacity:1;fill:#3498db;fill-opacity:1;stroke:none;stroke-width:1;stroke-linecap:round;stroke-linejoin:miter;stroke-miterlimit:4;stroke-dasharray:none;stroke-opacity:0.29943501"
       id="rect4225"
       width="8"
       height="1"
       x="43"
       y="1071.5197" />
    <rect
       style="opacity:1;fill:#f4b350;fill-opacity:1;stroke:none;stroke-width:1;stroke-linecap:round;stroke-linejoin:miter;stroke-miterlimit:4;stroke-dasharray:none;stroke-opacity:0.29943501"
       id="rect4227"
       width="3"
       height="1"
       x="12"
       y="1073.5197" />
    <rect
       style="opacity:1;fill:#f64747;fill-opacity:1;stroke:none;stroke-width:1;stroke-linecap:round;stroke-linejoin:miter;stroke-miterlimit:4;stroke-dasharray:none;stroke-opacity:0.29943501"
       id="rect4229"
       width="3"
       height="1"
       x="17"
       y="1073.5197" />
    <rect
       style="opacity:1;fill:#f4b350;fill-opacity:1;stroke:none;stroke-width:1;stroke-linecap:round;stroke-linejoin:miter;stroke-miterlimit:4;stroke-dasharray:none;stroke-opacity:0.29943501"
       id="rect4231"
       width="5"
       height="1"
       x="22"
       y="1073.5197" />
    <rect
       style="opacity:1;fill:#bf55ec;fill-opacity:1;stroke:none;stroke-width:1;stroke-linecap:round;stroke-linejoin:miter;stroke-miterlimit:4;stroke-dasharray:none;stroke-opacity:0.29943501"
       id="rect4233"
       width="12"
       height="1"
       x="30"
       y="1073.5197" />
    <rect
       style="opacity:1;fill:#00ffff;fill-opacity:1;stroke:none;stroke-width:1;stroke-linecap:round;stroke-linejoin:miter;stroke-miterlimit:4;stroke-dasharray:none;stroke-opacity:0.29943501"
       id="rect4235"
       width="2"
       height="1"
       x="44"
       y="1073.5197" />
    <rect
       style="opacity:1;fill:#00ffff;fill-opacity:1;stroke:none;stroke-width:1;stroke-linecap:round;stroke-linejoin:miter;stroke-miterlimit:4;stroke-dasharray:none;stroke-opacity:0.29943501"
       id="rect4237"
       width="1"
       height="1"
       x="48"
       y="1073.5197" />
    <rect
       style="opacity:1;fill:#f64747;fill-opacity:1;stroke:none;stroke-width:1;stroke-linecap:round;stroke-linejoin:miter;stroke-miterlimit:4;stroke-dasharray:none;stroke-opacity:0.29943501"
       id="rect4239"
       width="2"
       height="1"
       x="13"
       y="1076.5197" />
    <rect
       style="opacity:1;fill:#2abb9b;fill-opacity:1;stroke:none;stroke-width:1;stroke-linecap:round;stroke-linejoin:miter;stroke-miterlimit:4;stroke-dasharray:none;stroke-opacity:0.29943501"
       id="rect4241"
       width="4"
       height="1"
       x="16"
       y="1076.5197" />
    <rect
       style="opacity:1;fill:#f64747;fill-opacity:1;stroke:none;stroke-width:1;stroke-linecap:round;stroke-linejoin:miter;stroke-miterlimit:4;stroke-dasharray:none;stroke-opacity:0.29943501"
       id="rect4243"
       width="4"
       height="1"
       x="22"
       y="1076.5197" />
    <rect
       style="opacity:1;fill:#2abb9b;fill-opacity:1;stroke:none;stroke-width:1;stroke-linecap:round;stroke-linejoin:miter;stroke-miterlimit:4;stroke-dasharray:none;stroke-opacity:0.29943501"
       id="rect4245"
       width="2"
       height="1"
       x="27"
       y="1076.5197" />
    <rect
       style="opacity:1;fill:#f64747;fill-opacity:1;stroke:none;stroke-width:1;stroke-linecap:round;stroke-linejoin:miter;stroke-miterlimit:4;stroke-dasharray:none;stroke-opacity:0.29943501"
       id="rect4247"
       width="8"
       height="1"
       x="10"
       y="1083.5197" />
    <rect
       style="opacity:1;fill:#f4b350;fill-opacity:1;stroke:none;stroke-width:1;stroke-linecap:round;stroke-linejoin:miter;stroke-miterlimit:4;stroke-dasharray:none;stroke-opacity:0.29943501"
       id="rect4249"
       width="2"
       height="1"
       x="19"
       y="1083.5197" />
    <rect
       style="opacity:1;fill:#f64747;fill-opacity:1;stroke:none;stroke-width:1;stroke-linecap:round;stroke-linejoin:miter;stroke-miterlimit:4;stroke-dasharray:none;stroke-opacity:0.29943501"
       id="rect4251"
       width="1"
       height="1"
       x="22"
       y="1083.5197" />
    <rect
       style="opacity:1;fill:#f4b350;fill-opacity:1;stroke:none;stroke-width:1;stroke-linecap:round;stroke-linejoin:miter;stroke-miterlimit:4;stroke-dasharray:none;stroke-opacity:0.29943501"
       id="rect4253"
       width="2"
       height="1"
       x="14"
       y="1086.5197" />
    <rect
       style="opacity:1;fill:#f4b350;fill-opacity:1;stroke:none;stroke-width:1;stroke-linecap:round;stroke-linejoin:miter;stroke-miterlimit:4;stroke-dasharray:none;stroke-opacity:0.29943501"
       id="rect4255"
       width="2"
       height="1"
       x="20"
       y="1086.5197" />
    <rect
       style="opacity:1;fill:#bf55ec;fill-opacity:1;stroke:none;stroke-width:1;stroke-linecap:round;stroke-linejoin:miter;stroke-miterlimit:4;stroke-dasharray:none;stroke-opacity:0.29943501"
       id="rect4257"
       width="14"
       height="1"
       x="25"
       y="1086.5197" />
    <rect
       style="opacity:1;fill:#f64747;fill-opacity:1;stroke:none;stroke-width:1;stroke-linecap:round;stroke-linejoin:miter;stroke-miterlimit:4;stroke-dasharray:none;stroke-opacity:0.29943501"
       id="rect4259"
       width="1"
       height="1"
       x="11"
       y="1089.5197" />
    <rect
       style="opacity:1;fill:#2abb9b;fill-opacity:1;stroke:none;stroke-width:1;stroke-linecap:round;stroke-linejoin:miter;stroke-miterlimit:4;stroke-dasharray:none;stroke-opacity:0.29943501"
       id="rect4261"
       width="6"
       height="1"
       x="14"
       y="1089.5197" />
    <rect
       style="opacity:1;fill:#bf55ec;fill-opacity:1;stroke:none;stroke-width:1;stroke-linecap:round;stroke-linejoin:miter;stroke-miterlimit:4;stroke-dasharray:none;stroke-opacity:0.29943501"
       id="rect4263"
       width="9"
       height="1"
       x="21"
       y="1089.5197" />
    <rect
       style="opacity:1;fill:#f64747;fill-opacity:1;stroke:none;stroke-width:1;stroke-linecap:round;stroke-linejoin:miter;stroke-miterlimit:4;stroke-dasharray:none;stroke-opacity:0.29943501"
       id="rect4270"
       width="3"
       height="1"
       x="13"
       y="1096.5197" />
    <rect
       style="opacity:1;fill:#f64747;fill-opacity:1;stroke:none;stroke-width:1;stroke-linecap:round;stroke-linejoin:miter;stroke-miterlimit:4;stroke-dasharray:none;stroke-opacity:0.29943501"
       id="rect4272"
       width="6"
       height="1"
       x="22"
       y="1096.5197" />
    <rect
       style="opacity:1;fill:#00ffff;fill-opacity:1;stroke:none;stroke-width:1;stroke-linecap:round;stroke-linejoin:miter;stroke-miterlimit:4;stroke-dasharray:none;stroke-opacity:0.29943501"
       id="rect4274"
       width="1"
       height="1"
       x="33"
       y="1096.5197" />
    <rect
       style="opacity:1;fill:#f64747;fill-opacity:1;stroke:none;stroke-width:1;stroke-linecap:round;stroke-linejoin:miter;stroke-miterlimit:4;stroke-dasharray:none;stroke-opacity:0.29943501"
       id="rect4276"
       width="5"
       height="1"
       x="35"
       y="1096.5197" />
    <rect
       style="opacity:1;fill:#f4b350;fill-opacity:1;stroke:none;stroke-width:1;stroke-linecap:round;stroke-linejoin:miter;stroke-miterlimit:4;stroke-dasharray:none;stroke-opacity:0.29943501"
       id="rect4278"
       width="2"
       height="1"
       x="29"
       y="1096.5197" />
    <rect
       style="opacity:1;fill:#f4b350;fill-opacity:1;stroke:none;stroke-width:1;stroke-linecap:round;stroke-linejoin:miter;stroke-miterlimit:4;stroke-dasharray:none;stroke-opacity:0.29943501"
       id="rect4280"
       width="3"
       height="1"
       x="17"
       y="1096.5197" />
    <rect
       style="opacity:1;fill:#bf55ec;fill-opacity:1;stroke:none;stroke-width:1;stroke-linecap:round;stroke-linejoin:miter;stroke-miterlimit:4;stroke-dasharray:none;stroke-opacity:0.29943501"
       id="rect4282"
       width="18"
       height="1"
       x="13"
       y="1098.5197" />
    <rect
       style="opacity:1;fill:#2abb9b;fill-opacity:1;stroke:none;stroke-width:1;stroke-linecap:round;stroke-linejoin:miter;stroke-miterlimit:4;stroke-dasharray:none;stroke-opacity:0.29943501"
       id="rect4284"
       width="3"
       height="1"
       x="33"
       y="1098.5197" />
    <rect
       style="opacity:1;fill:#00ffff;fill-opacity:1;stroke:none;stroke-width:1;stroke-linecap:round;stroke-linejoin:miter;stroke-miterlimit:4;stroke-dasharray:none;stroke-opacity:0.29943501"
       id="rect4286"
       width="1"
       height="1"
       x="38"
       y="1098.5197" />
    <rect
       style="opacity:1;fill:#2abb9b;fill-opacity:1;stroke:none;stroke-width:1;stroke-linecap:round;stroke-linejoin:miter;stroke-miterlimit:4;stroke-dasharray:none;stroke-opacity:0.29943501"
       id="rect4288"
       width="3"
       height="1"
       x="11"
       y="1101.5197" />
    <rect
       style="opacity:1;fill:#f4b350;fill-opacity:1;stroke:none;stroke-width:1;stroke-linecap:round;stroke-linejoin:miter;stroke-miterlimit:4;stroke-dasharray:none;stroke-opacity:0.29943501"
       id="rect4290"
       width="2"
       height="1"
       x="18"
       y="1101.5197" />
    <rect
       style="opacity:1;fill:#2abb9b;fill-opacity:1;stroke:none;stroke-width:1;stroke-linecap:round;stroke-linejoin:miter;stroke-miterlimit:4;stroke-dasharray:none;stroke-opacity:0.29943501"
       id="rect4292"
       width="2"
       height="1"
       x="11"
       y="1105.5197" />
    <path
       style="fill:#307759;fill-opacity:1;stroke-width:0.51475877;opacity:1"
       inkscape:connector-curvature="0"
       id="path2400"
       d="m 48.166116,1112.4551 c 0.283561,0 0.298481,-0.037 0.298481,-0.7524 0,-0.6693 -0.02709,-0.7524 -0.245459,-0.7524 -0.46551,0 -0.861149,-0.2595 -1.08125,-0.709 -0.121452,-0.2481 -0.197794,-0.4673 -0.169704,-0.4871 0.02808,-0.02 0.318324,-0.177 0.644946,-0.3494 1.621672,-0.8551 2.348635,-2.7737 2.353296,-6.2105 0.0051,-4.1338 -1.124481,-6.0935 -3.803863,-6.5965 -0.842506,-0.1581 -1.798113,-0.073 -2.547911,0.2263 -1.120007,0.4476 -1.973035,1.6456 -2.392829,3.3604 -0.298535,1.2196 -0.294921,4.5581 0.0059,5.8459 0.441959,1.8893 1.484968,3.2891 2.737032,3.6734 0.463688,0.1424 0.528332,0.2128 0.723236,0.7882 0.303108,0.8948 0.573951,1.329 1.005585,1.6121 0.431731,0.2832 1.286461,0.472 1.812268,0.4002 0.198702,-0.027 0.495631,-0.049 0.659826,-0.049 z m -2.841526,-4.3184 c -0.383203,-0.176 -0.84324,-0.7914 -1.003442,-1.3424 -0.523775,-1.8016 -0.479913,-6.262 0.07414,-7.5374 0.251498,-0.5789 0.832307,-1.0403 1.309607,-1.0403 0.528165,0 1.192394,0.5866 1.439195,1.271 0.436405,1.2101 0.509914,5.2727 0.126313,6.9802 -0.305003,1.3577 -1.113462,2.0511 -1.945814,1.6689 z m 8.418624,0.84 c 1.189263,-0.2433 1.256838,-0.2971 1.256838,-1.0002 0,-0.5462 -0.02938,-0.6223 -0.219942,-0.5703 -0.753773,0.2063 -0.929421,0.2077 -1.167603,0.01 -0.232517,-0.1938 -0.246314,-0.3729 -0.246314,-3.1972 l 0,-2.9918 0.754091,0 0.754041,0 0,-0.6796 0,-0.6796 -0.754041,-0.079 -0.754091,-0.079 0,-1.0871 c 0,-0.5979 -0.0424,-1.1109 -0.09424,-1.14 -0.05183,-0.03 -0.372791,-0.071 -0.713056,-0.094 l -0.618842,-0.04 -0.215717,0.8103 c -0.118451,0.4457 -0.251136,0.9536 -0.294685,1.1287 -0.06769,0.2724 -0.142311,0.3184 -0.516604,0.3184 l -0.437527,0 0,0.7524 0,0.7525 0.377069,0 0.377021,0 0,3.3616 c 0,4.1075 0.05015,4.2653 1.445379,4.548 0.401205,0.081 0.471931,0.078 1.068258,-0.043 z" />
  </g>
</svg>
