<?xml version="1.0" encoding="UTF-8" standalone="no"?>
<!-- Created with Inkscape (http://www.inkscape.org/) -->

<svg
   xmlns:dc="http://purl.org/dc/elements/1.1/"
   xmlns:cc="http://creativecommons.org/ns#"
   xmlns:rdf="http://www.w3.org/1999/02/22-rdf-syntax-ns#"
   xmlns:svg="http://www.w3.org/2000/svg"
   xmlns="http://www.w3.org/2000/svg"
   xmlns:sodipodi="http://sodipodi.sourceforge.net/DTD/sodipodi-0.dtd"
   xmlns:inkscape="http://www.inkscape.org/namespaces/inkscape"
   width="64"
   height="64"
   viewBox="0 0 64 64.000003"
   id="svg2"
   version="1.1"
   inkscape:version="0.91+devel r"
   sodipodi:docname="qtdbusviewer.svg">
  <defs
     id="defs4" />
  <sodipodi:namedview
     id="base"
     pagecolor="#ffffff"
     bordercolor="#666666"
     borderopacity="1.0"
     inkscape:pageopacity="0.0"
     inkscape:pageshadow="2"
     inkscape:zoom="7.015625"
     inkscape:cx="5.3317422"
     inkscape:cy="26.133337"
     inkscape:document-units="px"
     inkscape:current-layer="layer1"
     showgrid="true"
     units="px"
     inkscape:showpageshadow="false"
     borderlayer="true"
     inkscape:window-width="2560"
     inkscape:window-height="957"
     inkscape:window-x="-4"
     inkscape:window-y="29"
     inkscape:window-maximized="1"
     showguides="true">
    <inkscape:grid
       type="xygrid"
       id="grid4136"
       empspacing="2" />
    <sodipodi:guide
       position="5,59.000069"
       orientation="54,0"
       id="guide4142" />
    <sodipodi:guide
       position="5,5.0000688"
       orientation="0,54"
       id="guide4144" />
    <sodipodi:guide
       position="59,5.0000688"
       orientation="-54,0"
       id="guide4146" />
    <sodipodi:guide
       position="59,59.000069"
       orientation="0,-54"
       id="guide4148" />
    <sodipodi:guide
       position="0,64.000069"
       orientation="64,0"
       id="guide4150" />
    <sodipodi:guide
       position="0,6.875e-05"
       orientation="0,64"
       id="guide4152" />
    <sodipodi:guide
       position="64,6.875e-05"
       orientation="-64,0"
       id="guide4154" />
    <sodipodi:guide
       position="64,64.000069"
       orientation="0,-64"
       id="guide4156" />
    <sodipodi:guide
       position="13,50.999947"
       orientation="38,0"
       id="guide4155" />
    <sodipodi:guide
       position="13,12.999947"
       orientation="0,38"
       id="guide4157" />
    <sodipodi:guide
       position="51,12.999947"
       orientation="-38,0"
       id="guide4159" />
    <sodipodi:guide
       position="51,50.999947"
       orientation="0,-38"
       id="guide4161" />
  </sodipodi:namedview>
  <metadata
     id="metadata7">
    <rdf:RDF>
      <cc:Work
         rdf:about="">
        <dc:format>image/svg+xml</dc:format>
        <dc:type
           rdf:resource="http://purl.org/dc/dcmitype/StillImage" />
        <dc:title />
      </cc:Work>
    </rdf:RDF>
  </metadata>
  <g
     inkscape:label="Capa 1"
     inkscape:groupmode="layer"
     id="layer1"
     transform="translate(0,-1058.5196)">
    <rect
       style="opacity:1;fill:#bdc3c7;fill-opacity:1;stroke:none;stroke-width:1;stroke-linecap:round;stroke-linejoin:miter;stroke-miterlimit:4;stroke-dasharray:none;stroke-opacity:0.29943501"
       id="rect4204"
       width="54"
       height="53.999996"
       x="5"
       y="1063.5195"
       ry="1.0000688" />
    <rect
       ry="2.0000687"
       y="1066.5195"
       x="8"
       height="47.999996"
       width="48"
       id="rect4206"
       style="opacity:1;fill:#7e8991;fill-opacity:1;stroke:none;stroke-width:0.88888896;stroke-linecap:round;stroke-linejoin:miter;stroke-miterlimit:4;stroke-dasharray:none;stroke-opacity:0.29943501" />
    <path
       style="opacity:1;fill:#ecf0f1;fill-opacity:1;stroke:none;stroke-width:0.85185194;stroke-linecap:round;stroke-linejoin:miter;stroke-miterlimit:4;stroke-dasharray:none;stroke-opacity:0.29943501"
       d="M 10.916016 9 C 9.8541455 9 9 9.8541156 9 10.916016 L 9 49.083984 C 9 50.145884 9.8541455 51 10.916016 51 L 53.083984 51 C 54.145854 51 55 50.145884 55 49.083984 L 55 10.916016 C 55 9.8541156 54.145854 9 53.083984 9 L 10.916016 9 z "
       transform="translate(0,1058.5196)"
       id="path4233" />
    <path
       style="opacity:1;fill:#c1cacd;fill-opacity:1;stroke:none;stroke-width:0.85185194;stroke-linecap:round;stroke-linejoin:miter;stroke-miterlimit:4;stroke-dasharray:none;stroke-opacity:0.29943501"
       d="m 9,1108.6856 0,2.918 c 0,1.0619 0.8541455,1.916 1.916016,1.916 l 42.167968,0 c 1.06187,0 1.916016,-0.8541 1.916016,-1.916 l 0,-2.918 c 0,1.0157 -0.818283,1.834 -1.833984,1.834 l -42.332032,0 C 9.8182834,1110.5196 9,1109.7013 9,1108.6856 Z"
       id="rect4208" />
    <rect
       ry="1.8333962"
       y="1068.5195"
       x="10"
       height="40.000069"
       width="44"
       id="rect4210"
       style="opacity:1;fill:#dadfe1;fill-opacity:1;stroke:none;stroke-width:0.81481493;stroke-linecap:round;stroke-linejoin:miter;stroke-miterlimit:4;stroke-dasharray:none;stroke-opacity:0.29943501" />
    <path
       style="opacity:1;fill:#7e8991;fill-opacity:1;stroke:none;stroke-width:0.81481493;stroke-linecap:round;stroke-linejoin:miter;stroke-miterlimit:4;stroke-dasharray:none;stroke-opacity:0.29943501"
       d="m 9.000008,49.166016 0,1 C 9.000008,51.181717 9.818291,52 10.833992,52 l 42.332016,0 c 1.015701,0 1.833984,-0.818283 1.833984,-1.833984 l 0,-1 C 54.999992,50.181717 54.181709,51 53.166008,51 L 10.833992,51 C 9.818291,51 9.000008,50.181717 9.000008,49.166016 Z"
       id="rect4223"
       inkscape:connector-curvature="0"
       sodipodi:nodetypes="csssscssc"
       transform="translate(0,1058.5196)" />
    <path
       style="opacity:1;fill:#a1adb3;fill-opacity:1;stroke:none;stroke-width:1;stroke-linecap:round;stroke-linejoin:miter;stroke-miterlimit:4;stroke-dasharray:none;stroke-opacity:0.29943501"
       d="M 14 39 L 14 48 L 15 48 L 15 44 L 18 44 L 18 43 L 15 43 L 15 40 L 20 40 L 20 39 L 15 39 L 14 39 z M 21 43 L 21 45 L 21 48 L 22 48 L 22 45.5 C 22 44.669 22.669 44 23.5 44 C 24.331 44 25 44.669 25 45.5 L 25 48 L 26 48 L 26 45 C 26 43.89203 25.10797 43 24 43 L 23 43 C 22.63308 43 22.295001 43.104288 22 43.275391 L 22 43 L 21 43 z "
       transform="translate(0,1058.5196)"
       id="rect4247" />
    <path
       style="fill:#a1adb3;fill-opacity:1;stroke-width:0.51475877"
       inkscape:connector-curvature="0"
       id="path2400"
       d="m 45.166116,1086.4551 c 0.283561,0 0.298481,-0.037 0.298481,-0.7524 0,-0.6693 -0.02709,-0.7524 -0.245459,-0.7524 -0.46551,0 -0.861149,-0.2595 -1.08125,-0.709 -0.121452,-0.2481 -0.197794,-0.4673 -0.169704,-0.4871 0.02808,-0.02 0.318324,-0.177 0.644946,-0.3494 1.621672,-0.8551 2.348635,-2.7737 2.353296,-6.2105 0.0051,-4.1338 -1.124481,-6.0935 -3.803863,-6.5965 -0.842506,-0.1581 -1.798113,-0.073 -2.547911,0.2263 -1.120007,0.4476 -1.973035,1.6456 -2.392829,3.3604 -0.298535,1.2196 -0.294921,4.5581 0.0059,5.8459 0.441959,1.8893 1.484968,3.2891 2.737032,3.6734 0.463688,0.1424 0.528332,0.2128 0.723236,0.7882 0.303108,0.8948 0.573951,1.329 1.005585,1.6121 0.431731,0.2832 1.286461,0.472 1.812268,0.4002 0.198702,-0.027 0.495631,-0.049 0.659826,-0.049 z m -2.841526,-4.3184 c -0.383203,-0.176 -0.84324,-0.7914 -1.003442,-1.3424 -0.523775,-1.8016 -0.479913,-6.262 0.07414,-7.5374 0.251498,-0.5789 0.832307,-1.0403 1.309607,-1.0403 0.528165,0 1.192394,0.5866 1.439195,1.271 0.436405,1.2101 0.509914,5.2727 0.126313,6.9802 -0.305003,1.3577 -1.113462,2.0511 -1.945814,1.6689 z m 8.418624,0.84 c 1.189263,-0.2433 1.256838,-0.2971 1.256838,-1.0002 0,-0.5462 -0.02938,-0.6223 -0.219942,-0.5703 -0.753773,0.2063 -0.929421,0.2077 -1.167603,0.01 -0.232517,-0.1938 -0.246314,-0.3729 -0.246314,-3.1972 l 0,-2.9918 0.754091,0 0.754041,0 0,-0.6796 0,-0.6796 -0.754041,-0.079 -0.754091,-0.079 0,-1.0871 c 0,-0.5979 -0.0424,-1.1109 -0.09424,-1.14 -0.05183,-0.03 -0.372791,-0.071 -0.713056,-0.094 l -0.618842,-0.04 -0.215717,0.8103 c -0.118451,0.4457 -0.251136,0.9536 -0.294685,1.1287 -0.06769,0.2724 -0.142311,0.3184 -0.516604,0.3184 l -0.437527,0 0,0.7524 0,0.7525 0.377069,0 0.377021,0 0,3.3616 c 0,4.1075 0.05015,4.2653 1.445379,4.548 0.401205,0.081 0.471931,0.078 1.068258,-0.043 z" />
    <path
       style="opacity:1;fill:#a8b0b5;fill-opacity:1;stroke:none;stroke-width:1;stroke-linecap:round;stroke-linejoin:miter;stroke-miterlimit:4;stroke-dasharray:none;stroke-opacity:0.29943501"
       d="M 5 57 L 5 58 C 5 58.554038 5.4459619 59 6 59 L 58 59 C 58.554038 59 59 58.554038 59 58 L 59 57 C 59 57.554038 58.554038 58 58 58 L 6 58 C 5.4459619 58 5 57.554038 5 57 z "
       transform="translate(0,1058.5196)"
       id="rect4159" />
  </g>
</svg>
