<?xml version="1.0" encoding="UTF-8" standalone="no"?>
<!-- Created with Inkscape (http://www.inkscape.org/) -->

<svg
   xmlns:dc="http://purl.org/dc/elements/1.1/"
   xmlns:cc="http://creativecommons.org/ns#"
   xmlns:rdf="http://www.w3.org/1999/02/22-rdf-syntax-ns#"
   xmlns:svg="http://www.w3.org/2000/svg"
   xmlns="http://www.w3.org/2000/svg"
   xmlns:sodipodi="http://sodipodi.sourceforge.net/DTD/sodipodi-0.dtd"
   xmlns:inkscape="http://www.inkscape.org/namespaces/inkscape"
   width="64"
   height="64"
   viewBox="0 0 64 64.000003"
   id="svg2"
   version="1.1"
   inkscape:version="0.91+devel r"
   sodipodi:docname="sublime-text.svg">
  <defs
     id="defs4" />
  <sodipodi:namedview
     id="base"
     pagecolor="#ffffff"
     bordercolor="#666666"
     borderopacity="1.0"
     inkscape:pageopacity="0.0"
     inkscape:pageshadow="2"
     inkscape:zoom="8.0000001"
     inkscape:cx="31.772785"
     inkscape:cy="34.730399"
     inkscape:document-units="px"
     inkscape:current-layer="layer1"
     showgrid="true"
     units="px"
     inkscape:showpageshadow="false"
     borderlayer="true"
     inkscape:window-width="1366"
     inkscape:window-height="670"
     inkscape:window-x="-4"
     inkscape:window-y="29"
     inkscape:window-maximized="1">
    <inkscape:grid
       type="xygrid"
       id="grid4136" />
    <sodipodi:guide
       position="5,59.000069"
       orientation="54,0"
       id="guide4142" />
    <sodipodi:guide
       position="5,5.0000688"
       orientation="0,54"
       id="guide4144" />
    <sodipodi:guide
       position="59,5.0000688"
       orientation="-54,0"
       id="guide4146" />
    <sodipodi:guide
       position="59,59.000069"
       orientation="0,-54"
       id="guide4148" />
    <sodipodi:guide
       position="0,64.000069"
       orientation="64,0"
       id="guide4150" />
    <sodipodi:guide
       position="0,6.875e-05"
       orientation="0,64"
       id="guide4152" />
    <sodipodi:guide
       position="64,6.875e-05"
       orientation="-64,0"
       id="guide4154" />
    <sodipodi:guide
       position="64,64.000069"
       orientation="0,-64"
       id="guide4156" />
    <sodipodi:guide
       position="13,50.999947"
       orientation="38,0"
       id="guide4155" />
    <sodipodi:guide
       position="13,12.999947"
       orientation="0,38"
       id="guide4157" />
    <sodipodi:guide
       position="51,12.999947"
       orientation="-38,0"
       id="guide4159" />
    <sodipodi:guide
       position="51,50.999947"
       orientation="0,-38"
       id="guide4161" />
  </sodipodi:namedview>
  <metadata
     id="metadata7">
    <rdf:RDF>
      <cc:Work
         rdf:about="">
        <dc:format>image/svg+xml</dc:format>
        <dc:type
           rdf:resource="http://purl.org/dc/dcmitype/StillImage" />
        <dc:title />
      </cc:Work>
    </rdf:RDF>
  </metadata>
  <g
     inkscape:label="Capa 1"
     inkscape:groupmode="layer"
     id="layer1"
     transform="translate(0,-1058.5196)">
    <rect
       style="fill:#ecf0f1;fill-opacity:1;stroke:none"
       id="rect4158"
       width="54"
       height="54"
       x="5"
       y="1063.3947"
       ry="27" />
    <rect
       ry="23"
       y="1067.3947"
       x="9"
       height="46"
       width="46"
       id="rect4186"
       style="fill:#34495e;fill-opacity:1;stroke:none;stroke-width:0.85185194" />
    <path
       d="m 39.994596,1084.588 -3.36616,0.1345 q -0.336626,-1.481 -1.750405,-2.2552 -1.380128,-0.7743 -3.063209,-0.7406 -2.928564,0.069 -4.275029,1.7841 -0.67323,0.8752 -0.572246,2.1881 0.03356,0.7068 0.403948,1.2117 0.370264,0.505 0.807881,0.8078 0.437588,0.3029 1.245478,0.505 0.807881,0.2018 1.346465,0.2693 0.572246,0.069 1.548435,0.1682 1.447453,0.1681 2.524623,0.4375 1.110832,0.2692 2.356315,0.8079 1.279142,0.5051 2.087021,1.4811 0.841542,0.9427 1.178157,2.2891 0.16829,0.8414 0.16829,1.5484 0,3.2314 -2.659268,5.2175 -2.659269,1.9523 -6.092754,1.9523 -1.885055,0 -3.702782,-0.6732 -1.817729,-0.7068 -3.197856,-2.1879 -1.380129,-1.515 -1.5821,-3.5009 l -0.03356,-0.6396 3.433485,-0.067 0.03356,0.5049 0,-0.1348 q 0.168289,1.5485 1.716742,2.4574 1.548436,0.8751 3.366162,0.8751 2.053363,0 3.669119,-1.0435 1.61576,-1.0771 1.61576,-2.7938 0,-0.337 -0.100955,-0.808 -0.134653,-0.6396 -0.605909,-1.0771 -0.471272,-0.4376 -1.312806,-0.6732 -0.807875,-0.2359 -1.48111,-0.3365 -0.67323,-0.1347 -1.784068,-0.2357 -1.312803,-0.1346 -2.288992,-0.3028 -0.942525,-0.1683 -2.120683,-0.5722 -1.144493,-0.4376 -1.918712,-1.0437 -0.774218,-0.6396 -1.346464,-1.683 -0.572248,-1.0771 -0.67323,-2.4908 l 0,0.034 q -0.201975,-2.5247 1.279139,-4.4771 1.144496,-1.4814 3.06321,-2.2892 1.952373,-0.8414 4.073057,-0.8414 2.995882,0 5.284879,1.5819 2.288989,1.5824 2.726588,4.6119 z"
       style="font-style:normal;font-variant:normal;font-weight:bold;font-stretch:normal;font-size:7.12482548px;line-height:125%;font-family:'Code Bold';-inkscape-font-specification:'Code Bold, Bold';letter-spacing:0px;word-spacing:0px;fill:#e67e22;fill-opacity:1;stroke:none;stroke-width:4.72455549"
       id="path4127-8"
       inkscape:connector-curvature="0" />
  </g>
</svg>
