<?xml version="1.0" standalone="no"?>
<!DOCTYPE svg PUBLIC "-//W3C//DTD SVG 20010904//EN" "http://www.w3.org/TR/2001/REC-SVG-20010904/DTD/svg10.dtd">
<!-- Created using Karbon, part of Calligra: http://www.calligra.org/karbon -->
<svg xmlns="http://www.w3.org/2000/svg" xmlns:xlink="http://www.w3.org/1999/xlink" width="38.4pt" height="38.4pt">
<defs/>
<g id="layer1">
  <rect id="rect4118" transform="matrix(3.54331 0 0 3.54331 7.41583 6.69095)" fill="#3498db" width="7.67644728000pt" height="7.67644728000pt" rx="7.67644728000pt" ry="7.67644728000pt"/>
  <g id="g4147" transform="translate(12.7854, 12.7855)" fill="none">
   <rect id="rect4124" transform="matrix(3.54331 0 0 3.54331 2.21457 2.21457)" fill="#ecf0f1" width="2.03200016000pt" height="1.58044464000pt"/>
   <rect id="rect4126" transform="matrix(3.54331 0 0 3.54331 6.09049 9.21455)" fill="#ecf0f1" width="0.22577820000pt" height="1.80622576000pt"/>
   <rect id="rect4130" transform="matrix(0 3.54331 -3.54331 0 17.0905 16.2146)" fill="#ecf0f1" width="0.22577779200pt" height="2.48355576000pt"/>
   <rect id="rect4143" transform="matrix(3.54331 0 0 3.54331 14.2146 2.21457)" fill="#9b59b6" width="1.12888888000pt" height="0.90311120000pt"/>
   <rect id="rect4145" transform="matrix(3.54331 0 0 3.54331 16.2146 6.2145)" fill="#ecf0f1" width="0.22577820000pt" height="1.80622576000pt"/>
   <rect id="rect4128" transform="matrix(3.54331 0 0 3.54331 13.2146 13.2145)" fill="#34495e" width="1.58044464000pt" height="1.58044464000pt" rx="0.79022231200pt" ry="0.79022231200pt"/>
  </g>
 </g>
</svg>
