<?xml version="1.0" encoding="UTF-8" standalone="no"?>
<!-- Created with Inkscape (http://www.inkscape.org/) -->

<svg
   xmlns:dc="http://purl.org/dc/elements/1.1/"
   xmlns:cc="http://creativecommons.org/ns#"
   xmlns:rdf="http://www.w3.org/1999/02/22-rdf-syntax-ns#"
   xmlns:svg="http://www.w3.org/2000/svg"
   xmlns="http://www.w3.org/2000/svg"
   xmlns:sodipodi="http://sodipodi.sourceforge.net/DTD/sodipodi-0.dtd"
   xmlns:inkscape="http://www.inkscape.org/namespaces/inkscape"
   width="64"
   height="64"
   viewBox="0 0 64 64.000003"
   id="svg2"
   version="1.1"
   inkscape:version="0.91+devel r"
   sodipodi:docname="appset.svg">
  <defs
     id="defs4" />
  <sodipodi:namedview
     id="base"
     pagecolor="#ffffff"
     bordercolor="#666666"
     borderopacity="1.0"
     inkscape:pageopacity="0.0"
     inkscape:pageshadow="2"
     inkscape:zoom="11.181126"
     inkscape:cx="28.525981"
     inkscape:cy="25.201229"
     inkscape:document-units="px"
     inkscape:current-layer="layer1"
     showgrid="true"
     units="px"
     inkscape:showpageshadow="false"
     borderlayer="true"
     inkscape:window-width="2560"
     inkscape:window-height="957"
     inkscape:window-x="-4"
     inkscape:window-y="29"
     inkscape:window-maximized="1">
    <inkscape:grid
       type="xygrid"
       id="grid4136" />
    <sodipodi:guide
       position="5,59.000069"
       orientation="54,0"
       id="guide4142" />
    <sodipodi:guide
       position="5,5.0000688"
       orientation="0,54"
       id="guide4144" />
    <sodipodi:guide
       position="59,5.0000688"
       orientation="-54,0"
       id="guide4146" />
    <sodipodi:guide
       position="59,59.000069"
       orientation="0,-54"
       id="guide4148" />
    <sodipodi:guide
       position="0,64.000069"
       orientation="64,0"
       id="guide4150" />
    <sodipodi:guide
       position="0,6.875e-05"
       orientation="0,64"
       id="guide4152" />
    <sodipodi:guide
       position="64,6.875e-05"
       orientation="-64,0"
       id="guide4154" />
    <sodipodi:guide
       position="64,64.000069"
       orientation="0,-64"
       id="guide4156" />
    <sodipodi:guide
       position="17,35"
       orientation="38,0"
       id="guide4155" />
    <sodipodi:guide
       position="34,11"
       orientation="0,38"
       id="guide4157" />
    <sodipodi:guide
       position="47,37"
       orientation="-38,0"
       id="guide4159" />
    <sodipodi:guide
       position="33,41"
       orientation="0,-38"
       id="guide4161" />
    <sodipodi:guide
       position="17,31.999947"
       orientation="15,0"
       id="guide4164" />
    <sodipodi:guide
       position="17,16.999947"
       orientation="0,15"
       id="guide4166" />
    <sodipodi:guide
       position="32,20"
       orientation="-15,0"
       id="guide4168" />
    <sodipodi:guide
       position="33,26"
       orientation="0,-15"
       id="guide4170" />
  </sodipodi:namedview>
  <metadata
     id="metadata7">
    <rdf:RDF>
      <cc:Work
         rdf:about="">
        <dc:format>image/svg+xml</dc:format>
        <dc:type
           rdf:resource="http://purl.org/dc/dcmitype/StillImage" />
        <dc:title />
      </cc:Work>
    </rdf:RDF>
  </metadata>
  <g
     inkscape:label="Capa 1"
     inkscape:groupmode="layer"
     id="layer1"
     transform="translate(0,-1058.5196)">
    <path
       style="fill:#dbad85;fill-opacity:1;stroke:none;stroke-opacity:1"
       d="m 13,5 -8,8 8,0 38,0 8,0 -8,-8 z"
       transform="translate(0,1058.5196)"
       id="rect4176"
       inkscape:connector-curvature="0"
       sodipodi:nodetypes="ccccccc" />
    <path
       style="fill:#c7976b;fill-opacity:1;stroke:none;stroke-opacity:1"
       d="M 5 14 L 5 15 L 5 58 C 5 58.554039 5.4459612 59 6 59 L 58 59 C 58.554039 59 59 58.554039 59 58 L 59 15 L 59 14 L 58 14 L 6 14 L 5 14 z "
       transform="translate(0,1058.5196)"
       id="rect4153" />
    <rect
       style="fill:#e2c7a8;fill-opacity:1;stroke:none;stroke-opacity:1"
       id="rect4166"
       width="10"
       height="7.9999466"
       x="27"
       y="1063.5197" />
    <rect
       y="1109.5197"
       x="27"
       height="7.9999313"
       width="10"
       id="rect4168"
       style="fill:#d7bc9d;fill-opacity:1;stroke:none;stroke-opacity:1" />
    <rect
       style="fill:#735536;fill-opacity:1;stroke:none;stroke-opacity:1"
       id="rect4185"
       width="54"
       height="1"
       x="5"
       y="1071.5197" />
    <rect
       y="1072.5197"
       x="5"
       height="1"
       width="54"
       id="rect4187"
       style="fill:#885c33;fill-opacity:1;stroke:none;stroke-opacity:1" />
    <rect
       y="1071.5197"
       x="27"
       height="12.000053"
       width="10"
       id="rect4183"
       style="fill:#d7bc9d;fill-opacity:1;stroke:none;stroke-opacity:1" />
    <rect
       y="1110.5197"
       x="31"
       height="7.0000534"
       width="2"
       id="rect4191"
       style="fill:#c7976b;fill-opacity:1;stroke:none;stroke-opacity:1" />
    <path
       style="fill:#4e453d;fill-opacity:1;stroke:none"
       d="m 32,1111.5196 c -8.31,0 -15,-6.69 -15,-15 0,-8.31 6.69,-15 15,-15 8.31,0 15,6.69 15,15 0,8.31 -6.69,15 -15,15 z m 0,-3 c 6.648,0 12,-5.352 12,-12 0,-6.648 -5.352,-12 -12,-12 -6.648,0 -12,5.352 -12,12 0,6.648 5.352,12 12,12 z m 0,-5 -7,-7 4,0 0,-7 6,0 0,7 4,0 -7,7 z"
       id="rect4149"
       inkscape:connector-curvature="0" />
    <rect
       style="fill:#c7976b;fill-opacity:1;stroke:none;stroke-opacity:1"
       id="rect4189"
       width="2"
       height="18.000069"
       x="31"
       y="1063.5195" />
    <path
       style="fill:#885c33;fill-opacity:1;stroke:none;stroke-opacity:1"
       d="M 5 58 C 5 58.554039 5.4459612 59 6 59 L 58 59 C 58.554039 59 59 58.554039 59 58 L 5 58 z "
       transform="translate(0,1058.5196)"
       id="rect4193" />
  </g>
</svg>
