<?xml version="1.0" encoding="UTF-8" standalone="no"?>
<!-- Created with Inkscape (http://www.inkscape.org/) -->

<svg
   xmlns:dc="http://purl.org/dc/elements/1.1/"
   xmlns:cc="http://creativecommons.org/ns#"
   xmlns:rdf="http://www.w3.org/1999/02/22-rdf-syntax-ns#"
   xmlns:svg="http://www.w3.org/2000/svg"
   xmlns="http://www.w3.org/2000/svg"
   xmlns:sodipodi="http://sodipodi.sourceforge.net/DTD/sodipodi-0.dtd"
   xmlns:inkscape="http://www.inkscape.org/namespaces/inkscape"
   width="64"
   height="64"
   viewBox="0 0 64 64.000003"
   id="svg2"
   version="1.1"
   inkscape:version="0.91+devel r"
   sodipodi:docname="latexila.svg">
  <defs
     id="defs4" />
  <sodipodi:namedview
     id="base"
     pagecolor="#ffffff"
     bordercolor="#666666"
     borderopacity="1.0"
     inkscape:pageopacity="0.0"
     inkscape:pageshadow="2"
     inkscape:zoom="11.313708"
     inkscape:cx="29.350226"
     inkscape:cy="21.81256"
     inkscape:document-units="px"
     inkscape:current-layer="layer1"
     showgrid="true"
     units="px"
     inkscape:showpageshadow="false"
     borderlayer="true"
     inkscape:window-width="2560"
     inkscape:window-height="957"
     inkscape:window-x="-4"
     inkscape:window-y="29"
     inkscape:window-maximized="1">
    <inkscape:grid
       type="xygrid"
       id="grid4136" />
    <sodipodi:guide
       position="5,59.000069"
       orientation="54,0"
       id="guide4142" />
    <sodipodi:guide
       position="5,5.0000688"
       orientation="0,54"
       id="guide4144" />
    <sodipodi:guide
       position="59,5.0000688"
       orientation="-54,0"
       id="guide4146" />
    <sodipodi:guide
       position="59,59.000069"
       orientation="0,-54"
       id="guide4148" />
    <sodipodi:guide
       position="0,64.000069"
       orientation="64,0"
       id="guide4150" />
    <sodipodi:guide
       position="0,6.875e-05"
       orientation="0,64"
       id="guide4152" />
    <sodipodi:guide
       position="64,6.875e-05"
       orientation="-64,0"
       id="guide4154" />
    <sodipodi:guide
       position="64,64.000069"
       orientation="0,-64"
       id="guide4156" />
    <sodipodi:guide
       position="10,35"
       orientation="38,0"
       id="guide4155" />
    <sodipodi:guide
       position="54,37"
       orientation="-38,0"
       id="guide4159" />
    <sodipodi:guide
       position="51,50.999947"
       orientation="0,-38"
       id="guide4161" />
  </sodipodi:namedview>
  <metadata
     id="metadata7">
    <rdf:RDF>
      <cc:Work
         rdf:about="">
        <dc:format>image/svg+xml</dc:format>
        <dc:type
           rdf:resource="http://purl.org/dc/dcmitype/StillImage" />
        <dc:title />
      </cc:Work>
    </rdf:RDF>
  </metadata>
  <g
     inkscape:label="Capa 1"
     inkscape:groupmode="layer"
     id="layer1"
     transform="translate(0,-1058.5196)">
    <rect
       style="fill:#fdf9ee;fill-opacity:1;stroke:none"
       id="rect4148-4"
       width="44"
       height="43.999947"
       x="10.000002"
       y="1071.5197" />
    <path
       inkscape:connector-curvature="0"
       style="fill:#90675a;fill-opacity:1;stroke:none"
       d="m 10.999999,1063.5196 c 0,0 -1.0000004,0 -1.0000004,1 l 0,2 0,5 44.0000004,0 0,-5 0,-2 c -1e-6,-1 -1,-1 -1,-1 l -1,0 -39,0 -2,0 z"
       id="rect4149-4" />
    <path
       inkscape:connector-curvature="0"
       style="fill:#bfb8a7;fill-opacity:1;stroke:none"
       d="m 9.9999986,1116.5196 c 0,0.554 0.4460304,1 1.0000004,1 l 42,0 c 0.55397,0 1,-0.446 1,-1 l -44.0000004,0 z"
       id="rect4308-4" />
    <rect
       y="1115.5199"
       x="10.000002"
       height="1"
       width="44"
       id="rect4310-5"
       style="fill:#dbd7ce;fill-opacity:1;stroke:none" />
    <path
       inkscape:connector-curvature="0"
       style="fill:#eceae4;fill-opacity:1;stroke:none"
       d="m 9.9999986,1073.5196 0,1 44.0000004,0 0,-1 -44.0000004,0 z m 0,4 0,1 44.0000004,0 0,-1 -44.0000004,0 z m 0,4 0,1 44.0000004,0 0,-1 -44.0000004,0 z m 0,4 0,1 44.0000004,0 0,-1 -44.0000004,0 z m 0,4 0,1 44.0000004,0 0,-1 -44.0000004,0 z m 0,4 0,1 44.0000004,0 0,-1 -44.0000004,0 z m 0,4 0,1 44.0000004,0 0,-1 -44.0000004,0 z m 0,4 0,1 44.0000004,0 0,-1 -44.0000004,0 z m 0,4 0,1 44.0000004,0 0,-1 -44.0000004,0 z m 0,4 0,1 44.0000004,0 0,-1 -44.0000004,0 z m 0,4 0,1 44.0000004,0 0,-1 -44.0000004,0 z"
       id="rect4338-8" />
    <rect
       style="fill:#ffdbdb;fill-opacity:1;stroke:none"
       id="rect4336-3"
       width="1"
       height="43.999947"
       x="16.999998"
       y="1071.5197" />
    <g
       id="g3044"
       transform="matrix(0.0295302,0,0,0.02940419,16.863968,1085.8423)"
       style="fill:#b5ac96;fill-opacity:1">
      <path
         id="path14"
         d="m 364.09375,23.888705 -349.2775,0 -10.20965,133.775725 10.869125,0 c 7.816,-100.19135 16.4136,-117.7285 110.205605,-117.7285 10.86912,4.89e-4 28.52839,4.89e-4 33.38897,4.89e-4 11.55302,1.808183 11.55302,9.158886 11.55302,23.081136 l 0,329.249005 c 0,21.86037 -1.83187,28.5284 -52.78242,28.5284 l -17.17077,0 0,14.60615 c 29.01689,-0.56178 59.25504,-1.14798 88.93142,-1.14798 29.57867,0 59.91452,0.5862 88.907,1.14798 l 0,-14.60615 -16.87768,0 c -50.19337,0 -52.00082,-6.66803 -52.00082,-28.5284 l 0,-329.249005 c 0,-13.360475 0,-20.613967 10.89355,-23.081136 l 33.19357,0 c 92.54633,0 101.608,17.438961 109.42401,117.728501 l 10.89355,0"
         inkscape:connector-curvature="0"
         style="fill:#b5ac96;fill-opacity:1" />
      <path
         id="path16"
         d="m 667.5988,414.3215 -10.86913,0 C 643.4669,504.0101 635.6509,552.7624 529.2556,552.7624 l -83.94873,0 c -24.15632,0 -25.3043,-3.05313 -25.3043,-23.86322 l 0,-169.06986 57.0568,0 c 57.0568,0 62.50358,20.9078 62.50358,71.95605 l 9.72115,0 0,-157.34585 -9.72115,0 c 0,50.19338 -5.44677,70.71038 -62.50358,70.71038 l -57.05679,0 0,-149.89622 c 0,-20.41931 1.14797,-23.47243 25.3043,-23.47243 l 82.70305,0 c 93.5966,0 104.49015,37.19927 112.96562,117.16673 l 10.89355,0 -14.50845,-133.77573 -306.26507,0 0,16.609 c 42.84144,0 49.70487,0 49.70487,27.18502 l 0,326.4157 c 0,27.18503 -6.76572,27.18503 -49.70487,27.18503 l 0,14.60615 314.76497,0"
         inkscape:connector-curvature="0"
         style="fill:#b5ac96;fill-opacity:1" />
      <path
         id="path18"
         d="M 830.6601,206.5136 920.1533,77.134375 c 8.96397,-12.701 27.18503,-38.83575 76.81663,-39.495225 l 0,-14.60615 c -13.84898,1.147902 -36.8329,1.147902 -51.34135,1.147902 -19.9308,0 -44.7466,0 -59.81683,-1.147902 l 0,14.606639 c 19.36903,1.806961 24.1319,13.921761 24.1319,23.667336 0,7.2298 -2.95542,12.1148 -7.25422,18.12335 L 822.8441,195.25368 733.3509,64.2624 c -4.2011,-6.59475 -4.7873,-8.4999 -4.7873,-10.30735 0,-5.446775 6.59475,-15.753392 26.62325,-16.315411 l 0,-14.606639 c -19.36902,1.147902 -48.9477,1.147902 -68.8785,1.147902 -15.65643,0 -45.89458,0 -60.50072,-1.147902 l 0,14.606639 c 33.21799,0 44.08712,1.246407 57.44759,20.028011 l 116.67823,171.3658 -105.2229,153.70653 c -25.96378,37.59007 -65.2636,38.24955 -76.81663,38.24955 l 0,14.60614 c 13.82455,-1.14797 36.8329,-1.14797 51.34135,-1.14797 16.3159,0 44.74661,0 59.81683,1.14797 l 0,-14.60614 c -18.70955,-1.80746 -24.1319,-13.92226 -24.1319,-23.66783 0,-7.816 2.95542,-12.1148 6.00855,-16.4136 l 96.74742,-141.20093 105.2229,154.6591 c 4.76288,6.69246 4.76288,8.4999 4.76288,10.30736 0,4.76287 -5.42235,15.16792 -26.59882,16.4136 l 0,14.60614 c 19.36902,-1.14797 48.94769,-1.14797 68.8785,-1.14797 15.65642,0 45.89457,0 60.57397,1.14797 l 0,-14.60614 c -38.73803,0 -44.84427,-2.95543 -56.86138,-20.0285"
         inkscape:connector-curvature="0"
         style="fill:#b5ac96;fill-opacity:1" />
    </g>
    <g
       id="g4166">
      <rect
         ry="0"
         y="1085.5197"
         x="44"
         height="19.000053"
         width="4"
         id="rect4312"
         style="fill:#7eceae;fill-opacity:1;stroke:none" />
      <path
         inkscape:connector-curvature="0"
         id="path4316"
         d="m 46,1110.5196 -2,-6 4,0 z"
         style="fill:#e8bb3e;fill-rule:evenodd;stroke:none;stroke-width:1px;stroke-linecap:butt;stroke-linejoin:miter;stroke-opacity:1;fill-opacity:1" />
      <path
         id="path4318"
         transform="translate(0,1058.5196)"
         d="M 45.333984 50 L 46 52 L 46.666016 50 L 45.333984 50 z "
         style="fill:#5b450b;fill-rule:evenodd;stroke:none;stroke-width:1px;stroke-linecap:butt;stroke-linejoin:miter;stroke-opacity:1;fill-opacity:1" />
      <path
         id="rect4325"
         transform="translate(0,1058.5196)"
         d="M 46 24 C 44.892015 24 44 24.892015 44 26 L 48 26 C 48 24.892015 47.107985 24 46 24 z "
         style="fill:#ffaaaa;fill-opacity:1;stroke:none" />
      <rect
         y="1084.5197"
         x="44"
         height="1"
         width="4"
         id="rect4332"
         style="fill:#bdc3c7;fill-opacity:1;stroke:none" />
    </g>
  </g>
</svg>
