<?xml version="1.0" encoding="UTF-8" standalone="no"?>
<!-- Created with Inkscape (http://www.inkscape.org/) -->

<svg
   xmlns:dc="http://purl.org/dc/elements/1.1/"
   xmlns:cc="http://creativecommons.org/ns#"
   xmlns:rdf="http://www.w3.org/1999/02/22-rdf-syntax-ns#"
   xmlns:svg="http://www.w3.org/2000/svg"
   xmlns="http://www.w3.org/2000/svg"
   xmlns:sodipodi="http://sodipodi.sourceforge.net/DTD/sodipodi-0.dtd"
   xmlns:inkscape="http://www.inkscape.org/namespaces/inkscape"
   width="64"
   height="64"
   viewBox="0 0 64 64.000003"
   id="svg2"
   version="1.1"
   inkscape:version="0.91+devel r"
   sodipodi:docname="gnome-note.svg">
  <defs
     id="defs4" />
  <sodipodi:namedview
     id="base"
     pagecolor="#ffffff"
     bordercolor="#666666"
     borderopacity="1.0"
     inkscape:pageopacity="0.0"
     inkscape:pageshadow="2"
     inkscape:zoom="7.9999995"
     inkscape:cx="-38.35712"
     inkscape:cy="36.010167"
     inkscape:document-units="px"
     inkscape:current-layer="layer1"
     showgrid="true"
     units="px"
     inkscape:showpageshadow="false"
     borderlayer="true"
     inkscape:window-width="2560"
     inkscape:window-height="957"
     inkscape:window-x="-4"
     inkscape:window-y="29"
     inkscape:window-maximized="1">
    <inkscape:grid
       type="xygrid"
       id="grid4136" />
    <sodipodi:guide
       position="5,59.000069"
       orientation="54,0"
       id="guide4142" />
    <sodipodi:guide
       position="5,5.0000688"
       orientation="0,54"
       id="guide4144" />
    <sodipodi:guide
       position="59,5.0000688"
       orientation="-54,0"
       id="guide4146" />
    <sodipodi:guide
       position="59,59.000069"
       orientation="0,-54"
       id="guide4148" />
    <sodipodi:guide
       position="0,64.000069"
       orientation="64,0"
       id="guide4150" />
    <sodipodi:guide
       position="0,6.875e-05"
       orientation="0,64"
       id="guide4152" />
    <sodipodi:guide
       position="64,6.875e-05"
       orientation="-64,0"
       id="guide4154" />
    <sodipodi:guide
       position="64,64.000069"
       orientation="0,-64"
       id="guide4156" />
    <sodipodi:guide
       position="10,35"
       orientation="38,0"
       id="guide4155" />
    <sodipodi:guide
       position="54,37"
       orientation="-38,0"
       id="guide4159" />
    <sodipodi:guide
       position="51,50.999947"
       orientation="0,-38"
       id="guide4161" />
  </sodipodi:namedview>
  <metadata
     id="metadata7">
    <rdf:RDF>
      <cc:Work
         rdf:about="">
        <dc:format>image/svg+xml</dc:format>
        <dc:type
           rdf:resource="http://purl.org/dc/dcmitype/StillImage" />
        <dc:title />
      </cc:Work>
    </rdf:RDF>
  </metadata>
  <g
     inkscape:label="Capa 1"
     inkscape:groupmode="layer"
     id="layer1"
     transform="translate(0,-1058.5196)">
    <rect
       style="fill:#fdf4a9;fill-opacity:1;stroke:none"
       id="rect4148-5"
       width="44"
       height="43.999947"
       x="10"
       y="1071.5197" />
    <path
       inkscape:connector-curvature="0"
       style="fill:#90675a;fill-opacity:1;stroke:none"
       d="m 11,1063.5196 c 0,0 -1,0 -1,1 l 0,2 0,5 44,0 0,-5 0,-2 c -10e-7,-1 -1,-1 -1,-1 l -1,0 -39,0 -2,0 z"
       id="rect4149" />
    <path
       inkscape:connector-curvature="0"
       style="fill:#867a01;fill-opacity:1;stroke:none"
       d="m 10,1116.5196 c 0,0.554 0.44603,1 1,1 l 42,0 c 0.55397,0 1,-0.446 1,-1 l -44,0 z"
       id="rect4308-3" />
    <rect
       y="1115.5199"
       x="10"
       height="1"
       width="44"
       id="rect4310-7"
       style="fill:#c0ad04;fill-opacity:1;stroke:none" />
    <path
       inkscape:connector-curvature="0"
       style="fill:#fbef82;fill-opacity:1;stroke:none"
       d="m 10,1073.5196 0,1 44,0 0,-1 -44,0 z m 0,4 0,1 44,0 0,-1 -44,0 z m 0,4 0,1 44,0 0,-1 -44,0 z m 0,4 0,1 44,0 0,-1 -44,0 z m 0,4 0,1 44,0 0,-1 -44,0 z m 0,4 0,1 44,0 0,-1 -44,0 z m 0,4 0,1 44,0 0,-1 -44,0 z m 0,4 0,1 44,0 0,-1 -44,0 z m 0,4 0,1 44,0 0,-1 -44,0 z m 0,4 0,1 44,0 0,-1 -44,0 z m 0,4 0,1 44,0 0,-1 -44,0 z"
       id="rect4338-6" />
    <rect
       style="fill:#ed8484;fill-opacity:1;stroke:none"
       id="rect4336-2"
       width="1"
       height="43.999947"
       x="17"
       y="1071.5197" />
  </g>
</svg>
