<?xml version="1.0" encoding="UTF-8" standalone="no"?>
<!-- Created with Inkscape (http://www.inkscape.org/) -->

<svg
   xmlns:dc="http://purl.org/dc/elements/1.1/"
   xmlns:cc="http://creativecommons.org/ns#"
   xmlns:rdf="http://www.w3.org/1999/02/22-rdf-syntax-ns#"
   xmlns:svg="http://www.w3.org/2000/svg"
   xmlns="http://www.w3.org/2000/svg"
   xmlns:sodipodi="http://sodipodi.sourceforge.net/DTD/sodipodi-0.dtd"
   xmlns:inkscape="http://www.inkscape.org/namespaces/inkscape"
   width="64"
   height="64"
   viewBox="0 0 64 64.000003"
   id="svg2"
   version="1.1"
   inkscape:version="0.91+devel r"
   sodipodi:docname="twitter-logo.svg">
  <defs
     id="defs4" />
  <sodipodi:namedview
     id="base"
     pagecolor="#ffffff"
     bordercolor="#666666"
     borderopacity="1.0"
     inkscape:pageopacity="0.0"
     inkscape:pageshadow="2"
     inkscape:zoom="7.9054538"
     inkscape:cx="28.788655"
     inkscape:cy="26.269056"
     inkscape:document-units="px"
     inkscape:current-layer="layer1"
     showgrid="true"
     units="px"
     inkscape:showpageshadow="false"
     borderlayer="true"
     inkscape:window-width="1366"
     inkscape:window-height="670"
     inkscape:window-x="-4"
     inkscape:window-y="29"
     inkscape:window-maximized="1">
    <inkscape:grid
       type="xygrid"
       id="grid4136" />
    <sodipodi:guide
       position="5,59.000069"
       orientation="54,0"
       id="guide4142" />
    <sodipodi:guide
       position="5,5.0000688"
       orientation="0,54"
       id="guide4144" />
    <sodipodi:guide
       position="59,5.0000688"
       orientation="-54,0"
       id="guide4146" />
    <sodipodi:guide
       position="59,59.000069"
       orientation="0,-54"
       id="guide4148" />
    <sodipodi:guide
       position="0,64.000069"
       orientation="64,0"
       id="guide4150" />
    <sodipodi:guide
       position="0,6.875e-05"
       orientation="0,64"
       id="guide4152" />
    <sodipodi:guide
       position="64,6.875e-05"
       orientation="-64,0"
       id="guide4154" />
    <sodipodi:guide
       position="64,64.000069"
       orientation="0,-64"
       id="guide4156" />
    <sodipodi:guide
       position="15,48.999949"
       orientation="34,0"
       id="guide4168" />
    <sodipodi:guide
       position="15,14.999947"
       orientation="0,34"
       id="guide4170" />
    <sodipodi:guide
       position="49,14.999947"
       orientation="-34,0"
       id="guide4172" />
    <sodipodi:guide
       position="49,48.999949"
       orientation="0,-34"
       id="guide4174" />
    <sodipodi:guide
       position="15,32.000436"
       orientation="17,0"
       id="guide4175" />
    <sodipodi:guide
       position="15,15.000436"
       orientation="0,17"
       id="guide4177" />
    <sodipodi:guide
       position="32,15.000436"
       orientation="-17,0"
       id="guide4179" />
    <sodipodi:guide
       position="32,32.000436"
       orientation="0,-17"
       id="guide4181" />
  </sodipodi:namedview>
  <metadata
     id="metadata7">
    <rdf:RDF>
      <cc:Work
         rdf:about="">
        <dc:format>image/svg+xml</dc:format>
        <dc:type
           rdf:resource="http://purl.org/dc/dcmitype/StillImage" />
        <dc:title />
      </cc:Work>
    </rdf:RDF>
  </metadata>
  <g
     inkscape:label="Capa 1"
     inkscape:groupmode="layer"
     id="layer1"
     transform="translate(0,-1058.5196)">
    <ellipse
       style="opacity:1;fill:#3498db;fill-opacity:1;stroke:none;stroke-width:0.1;stroke-linecap:round;stroke-linejoin:miter;stroke-miterlimit:4;stroke-dasharray:none;stroke-opacity:0.29943501"
       id="path4154"
       cx="32.000008"
       cy="1090.5195"
       rx="27.000008"
       ry="27.000032" />
    <path
       inkscape:connector-curvature="0"
       id="path14-1"
       style="fill:#e4f1fe;fill-opacity:1;fill-rule:nonzero;stroke:none"
       d="m 49,1079.8342 c -1.25086,0.5621 -2.59539,0.9421 -4.00622,1.1131 1.439902,-0.875 2.546091,-2.2603 3.06697,-3.9111 -1.347928,0.8099 -2.840698,1.3983 -4.42969,1.7153 -1.27228,-1.3739 -3.08516,-2.2321 -5.091501,-2.2321 -3.852199,0 -6.975574,3.165 -6.975574,7.0691 0,0.5539 0.0617,1.0938 0.180624,1.611 -5.797272,-0.2947 -10.937256,-3.1095 -14.377563,-7.3862 -0.600507,1.0441 -0.944489,2.2583 -0.944489,3.5539 0,2.4526 1.231432,4.6164 3.103234,5.8842 -1.143454,-0.037 -2.219096,-0.3548 -3.159483,-0.884 -6.64e-4,0.032 -6.64e-4,0.056 -6.64e-4,0.088 0,3.4253 2.404497,6.2821 5.595465,6.9316 -0.585242,0.1617 -1.201492,0.2482 -1.837667,0.2482 -0.449496,0 -0.886464,-0.047 -1.31245,-0.1265 0.887655,2.8083 3.46375,4.8521 6.516168,4.909 -2.387293,1.8964 -5.394967,3.0266 -8.663151,3.0266 -0.563057,0 -1.118346,-0.034 -1.664009,-0.1004 3.086963,2.0057 6.75359,3.176 10.692796,3.176 12.830443,0 19.846855,-10.7718 19.846855,-20.1141 0,-0.3062 -0.0069,-0.6111 -0.0204,-0.9141 1.363059,-0.9972 2.545579,-2.242 3.480749,-3.6596" />
  </g>
</svg>
