<?xml version="1.0" encoding="UTF-8" standalone="no"?>
<!-- Created with Inkscape (http://www.inkscape.org/) -->

<svg
   xmlns:dc="http://purl.org/dc/elements/1.1/"
   xmlns:cc="http://creativecommons.org/ns#"
   xmlns:rdf="http://www.w3.org/1999/02/22-rdf-syntax-ns#"
   xmlns:svg="http://www.w3.org/2000/svg"
   xmlns="http://www.w3.org/2000/svg"
   xmlns:sodipodi="http://sodipodi.sourceforge.net/DTD/sodipodi-0.dtd"
   xmlns:inkscape="http://www.inkscape.org/namespaces/inkscape"
   width="64"
   height="64"
   viewBox="0 0 64 64.000003"
   id="svg2"
   version="1.1"
   inkscape:version="0.91+devel r"
   sodipodi:docname="typecatcher.svg">
  <defs
     id="defs4" />
  <sodipodi:namedview
     id="base"
     pagecolor="#ffffff"
     bordercolor="#666666"
     borderopacity="1.0"
     inkscape:pageopacity="0.0"
     inkscape:pageshadow="2"
     inkscape:zoom="8.0000001"
     inkscape:cx="29.030303"
     inkscape:cy="23.860985"
     inkscape:document-units="px"
     inkscape:current-layer="layer1"
     showgrid="true"
     units="px"
     inkscape:showpageshadow="false"
     borderlayer="true"
     inkscape:window-width="1366"
     inkscape:window-height="670"
     inkscape:window-x="-4"
     inkscape:window-y="29"
     inkscape:window-maximized="1">
    <inkscape:grid
       type="xygrid"
       id="grid4136" />
    <sodipodi:guide
       position="5,59.000069"
       orientation="54,0"
       id="guide4142" />
    <sodipodi:guide
       position="5,5.0000688"
       orientation="0,54"
       id="guide4144" />
    <sodipodi:guide
       position="59,5.0000688"
       orientation="-54,0"
       id="guide4146" />
    <sodipodi:guide
       position="59,59.000069"
       orientation="0,-54"
       id="guide4148" />
    <sodipodi:guide
       position="0,64.000069"
       orientation="64,0"
       id="guide4150" />
    <sodipodi:guide
       position="0,6.875e-05"
       orientation="0,64"
       id="guide4152" />
    <sodipodi:guide
       position="64,6.875e-05"
       orientation="-64,0"
       id="guide4154" />
    <sodipodi:guide
       position="64,64.000069"
       orientation="0,-64"
       id="guide4156" />
  </sodipodi:namedview>
  <metadata
     id="metadata7">
    <rdf:RDF>
      <cc:Work
         rdf:about="">
        <dc:format>image/svg+xml</dc:format>
        <dc:type
           rdf:resource="http://purl.org/dc/dcmitype/StillImage" />
        <dc:title />
      </cc:Work>
    </rdf:RDF>
  </metadata>
  <g
     inkscape:label="Capa 1"
     inkscape:groupmode="layer"
     id="layer1"
     transform="translate(0,-1058.5196)">
    <path
       inkscape:connector-curvature="0"
       style="fill:#ecf0f1;fill-opacity:1;stroke:none"
       d="m 15,1063.5196 0,54 30,0 0,-14 14,0 0,-40 -44,0 z"
       id="rect4148" />
    <path
       style="fill:#6c7a89;fill-opacity:1;fill-rule:evenodd;stroke:none;stroke-width:1px;stroke-linecap:butt;stroke-linejoin:miter;stroke-opacity:1"
       d="m 45,1117.5196 14,-14 -13,0 -1,0 z"
       id="path4159"
       inkscape:connector-curvature="0" />
    <path
       style="opacity:1;fill:#baebfc;fill-opacity:1;stroke:none;stroke-width:1.99993753;stroke-opacity:1"
       d="m 19,1101.5196 c -1.721852,0 -3.359404,0.7458 -4.496094,2.0388 -1.256492,0.156 -2.364868,0.898 -2.988282,2 -0.17086,-0.024 -0.343086,-0.038 -0.515624,-0.038 -2.209138,0 -4,1.7906 -4,3.9996 0.0017,0.174 0.0148,0.3474 0.03906,0.5196 -1.25773,0.7074 -2.036932,2.0374 -2.03906,3.4802 0,2.2092 1.790862,3.9998 4,3.9998 l 18,0 c 3.313708,0 6,-2.686 6,-5.9996 0,-3.3136 -2.686292,-5.9996 -6,-5.9996 -0.1748,0 -0.34944,0.02 -0.523438,0.028 -0.62443,-1.098 -1.730828,-1.8366 -2.984374,-1.9922 -1.136504,-1.2908 -2.772314,-2.0318 -4.492188,-2.035 z"
       id="rect4249"
       inkscape:connector-curvature="0"
       sodipodi:nodetypes="cccccccssscccc" />
    <g
       transform="translate(13.000001,1066.5196)"
       style="font-style:normal;font-variant:normal;font-weight:normal;font-stretch:normal;font-size:24.42192841px;line-height:125%;font-family:serif;-inkscape-font-specification:serif;letter-spacing:0px;word-spacing:0px;fill:#bdc3c7;fill-opacity:1;stroke:none;stroke-width:1px;stroke-linecap:butt;stroke-linejoin:miter;stroke-opacity:1"
       id="text4225">
      <path
         inkscape:connector-curvature="0"
         d="m 16.199835,26.35238 6.534774,0 -3.267387,-8.466587 -3.267387,8.466587 z m -5.032253,6.4513 0,-1.264025 1.562145,0 6.343978,-16.539656 2.003361,0 6.355902,16.539656 1.752941,0 0,1.264025 -6.47515,0 0,-1.264025 1.979512,0 -1.490596,-3.911325 -7.488756,0 -1.490596,3.911325 1.955662,0 0,1.264025 -5.008403,0 z"
         style="fill:#bdc3c7;fill-opacity:1"
         id="path4236" />
      <path
         inkscape:connector-curvature="0"
         d="m 34.476586,30.542624 0,-1.523166 -1.604402,0 q -0.927439,0 -1.381004,0.399408 -0.453566,0.399408 -0.453566,1.225303 0,0.751429 0.460335,1.191454 0.460335,0.440026 1.245612,0.440026 0.778507,0 1.252381,-0.480643 0.480644,-0.480644 0.480644,-1.252382 z m 1.245612,-2.233977 0,3.777453 1.110219,0 0,0.71758 -2.355831,0 0,-0.778507 q -0.412947,0.500953 -0.954518,0.73789 Q 32.980498,33 32.256148,33 31.057923,33 30.353882,32.363655 29.64984,31.727309 29.64984,30.644169 q 0,-1.116989 0.805586,-1.733025 0.805586,-0.616037 2.274596,-0.616037 l 1.746564,0 0,-0.494183 q 0,-0.819125 -0.500953,-1.26592 -0.494183,-0.453565 -1.394543,-0.453565 -0.744659,0 -1.184685,0.338481 -0.440026,0.338482 -0.54834,1.001905 l -0.643115,0 0,-1.45547 q 0.649884,-0.277555 1.259151,-0.412947 0.616036,-0.142163 1.198224,-0.142163 1.496088,0 2.274596,0.74466 0.785277,0.737889 0.785277,2.152742 z"
         style="font-size:13.86420059px;fill:#bdc3c7;fill-opacity:1"
         id="path4238" />
    </g>
    <path
       style="opacity:1;fill:#5ad1fa;fill-opacity:1;stroke:none;stroke-width:1;stroke-linecap:round;stroke-linejoin:miter;stroke-miterlimit:4;stroke-dasharray:none;stroke-opacity:0.29943501"
       d="M 18 49 L 18 52 L 16 52 L 19 55 L 22 52 L 20 52 L 20 49 L 18 49 z "
       transform="translate(0,1058.5196)"
       id="rect4301" />
  </g>
</svg>
