<?xml version="1.0" encoding="UTF-8" standalone="no"?>
<!-- Created with Inkscape (http://www.inkscape.org/) -->

<svg
   xmlns:dc="http://purl.org/dc/elements/1.1/"
   xmlns:cc="http://creativecommons.org/ns#"
   xmlns:rdf="http://www.w3.org/1999/02/22-rdf-syntax-ns#"
   xmlns:svg="http://www.w3.org/2000/svg"
   xmlns="http://www.w3.org/2000/svg"
   xmlns:sodipodi="http://sodipodi.sourceforge.net/DTD/sodipodi-0.dtd"
   xmlns:inkscape="http://www.inkscape.org/namespaces/inkscape"
   width="64"
   height="64"
   viewBox="0 0 64 64.000003"
   id="svg2"
   version="1.1"
   inkscape:version="0.91+devel r"
   sodipodi:docname="usb-creator-kde.svg">
  <defs
     id="defs4" />
  <sodipodi:namedview
     id="base"
     pagecolor="#ffffff"
     bordercolor="#666666"
     borderopacity="1.0"
     inkscape:pageopacity="0.0"
     inkscape:pageshadow="2"
     inkscape:zoom="31.999999"
     inkscape:cx="20.929594"
     inkscape:cy="9.3098628"
     inkscape:document-units="px"
     inkscape:current-layer="layer1"
     showgrid="true"
     units="px"
     inkscape:showpageshadow="false"
     borderlayer="true"
     inkscape:window-width="2560"
     inkscape:window-height="957"
     inkscape:window-x="-4"
     inkscape:window-y="29"
     inkscape:window-maximized="1">
    <inkscape:grid
       type="xygrid"
       id="grid4136"
       empspacing="2" />
    <sodipodi:guide
       position="5,59.000069"
       orientation="54,0"
       id="guide4142" />
    <sodipodi:guide
       position="5,5.0000688"
       orientation="0,54"
       id="guide4144" />
    <sodipodi:guide
       position="59,5.0000688"
       orientation="-54,0"
       id="guide4146" />
    <sodipodi:guide
       position="59,59.000069"
       orientation="0,-54"
       id="guide4148" />
    <sodipodi:guide
       position="0,64.000069"
       orientation="64,0"
       id="guide4150" />
    <sodipodi:guide
       position="0,6.875e-05"
       orientation="0,64"
       id="guide4152" />
    <sodipodi:guide
       position="64,6.875e-05"
       orientation="-64,0"
       id="guide4154" />
    <sodipodi:guide
       position="64,64.000069"
       orientation="0,-64"
       id="guide4156" />
  </sodipodi:namedview>
  <metadata
     id="metadata7">
    <rdf:RDF>
      <cc:Work
         rdf:about="">
        <dc:format>image/svg+xml</dc:format>
        <dc:type
           rdf:resource="http://purl.org/dc/dcmitype/StillImage" />
        <dc:title />
      </cc:Work>
    </rdf:RDF>
  </metadata>
  <g
     inkscape:label="Capa 1"
     inkscape:groupmode="layer"
     id="layer1"
     transform="translate(0,-1058.5196)">
    <rect
       y="1099.5197"
       x="14"
       height="17.999931"
       width="20"
       id="rect4163"
       style="fill:#c4cbcf;fill-opacity:1;stroke:none"
       ry="0" />
    <rect
       style="fill:#52b3d9;fill-opacity:1;stroke:none"
       id="rect4148-5"
       width="25.999973"
       height="38.000069"
       x="11.000019"
       y="1063.5195"
       ry="3.0000687" />
    <rect
       style="fill:#4c545a;fill-opacity:1;stroke:none;stroke-opacity:1"
       id="rect4154-8"
       width="6"
       height="5.9999466"
       x="16"
       y="1107.5194"
       ry="0.99994665" />
    <rect
       y="1107.5194"
       x="26"
       height="6.0000534"
       width="5.9999809"
       id="rect4156-9"
       style="fill:#4c545a;fill-opacity:1;stroke:none;stroke-opacity:1"
       ry="0.99994665" />
    <rect
       y="1107.5194"
       x="18"
       height="5.9999466"
       width="2"
       id="rect4158-1"
       style="fill:#f39c12;fill-opacity:1;stroke:none;stroke-opacity:1" />
    <rect
       y="1107.5194"
       x="28"
       height="6.0001755"
       width="1.999979"
       id="rect4158-0-4"
       style="fill:#f39c12;fill-opacity:1;stroke:none;stroke-opacity:1" />
    <path
       style="fill:#ecf0f1;fill-opacity:1;stroke:none;stroke-opacity:1"
       d="m 24.000005,1067.5195 -2,4 1,0 0,17.8087 c -0.895426,-0.8385 -2.101536,-1.7924 -3,-2.6094 -0.593936,-0.6564 -1,-1.25 -1,-2 l 0,-2.1992 0,-1.2717 c 0.617705,-0.3566 0.998733,-1.0152 1,-1.7285 0,-1.1046 -0.895431,-2 -2,-2 -1.104569,0 -2,0.8954 -2,2 5.54e-4,0.714 0.381677,1.3735 1,1.7305 l 0,1.2697 0,3 c 0,0.75 0.406064,1.3436 1,2 2.13887,1.945 5.021632,3.9339 5,6 l 0,0.2715 c -0.617705,0.3566 -0.998733,1.0152 -1,1.7285 0,1.1046 0.895431,2 2,2 1.104569,0 2,-0.8954 2,-2 -5.54e-4,-0.714 -0.381677,-1.3735 -1,-1.7305 l 0,-4.2695 c -0.02163,-2.0661 2.86113,-4.055 5,-6 0.593936,-0.6564 1,-1.25 1,-2 l 0,-2.0003 0,-1.9998 1,0 0,-4 -4,0 0,4 1,0 0,1.9998 0,1.1995 c 0,0.75 -0.406064,1.3436 -1,2 -0.898464,0.817 -2.104574,1.7709 -3,2.6094 l 0,-13.8088 1,0 z"
       id="path4192-0"
       inkscape:connector-curvature="0"
       sodipodi:nodetypes="cccccscccscccsccccsccccsccccccccsccccc" />
    <circle
       style="fill:#87d37c;fill-opacity:1;stroke:none;stroke-width:1.125;stroke-opacity:1"
       id="path4231"
       cx="43.999981"
       cy="1093.5195"
       r="9" />
    <path
       style="fill:#ecf0f1;fill-opacity:1;stroke:none;stroke-opacity:1"
       d="m 43.000019,1088.5196 0,4 -4,0 0,2 4,0 0,4 2,0 0,-4 4,0 0,-2 -4,0 0,-4 z"
       id="rect4233"
       inkscape:connector-curvature="0"
       sodipodi:nodetypes="ccccccccccccc" />
    <rect
       style="opacity:1;fill:#f2b011;fill-opacity:1;stroke:none;stroke-width:1;stroke-linecap:round;stroke-linejoin:miter;stroke-miterlimit:4;stroke-dasharray:none;stroke-opacity:0.29943501"
       id="rect4158"
       width="1"
       height="6"
       x="18"
       y="1107.5194" />
    <rect
       style="opacity:1;fill:#f2b011;fill-opacity:1;stroke:none;stroke-width:1;stroke-linecap:round;stroke-linejoin:miter;stroke-miterlimit:4;stroke-dasharray:none;stroke-opacity:0.29943501"
       id="rect4160"
       width="1"
       height="6"
       x="28.000004"
       y="1107.5194" />
    <rect
       style="opacity:1;fill:#aab5bb;fill-opacity:1;stroke:none;stroke-width:1;stroke-linecap:round;stroke-linejoin:miter;stroke-miterlimit:4;stroke-dasharray:none;stroke-opacity:0.29943501"
       id="rect4159"
       width="4"
       height="1"
       x="17"
       y="1104.5192"
       ry="0.5" />
    <rect
       ry="0.5"
       y="1104.5192"
       x="26.99999"
       height="1"
       width="4"
       id="rect4161"
       style="opacity:1;fill:#aab5bb;fill-opacity:1;stroke:none;stroke-width:1;stroke-linecap:round;stroke-linejoin:miter;stroke-miterlimit:4;stroke-dasharray:none;stroke-opacity:0.29943501" />
    <path
       inkscape:connector-curvature="0"
       style="opacity:1;fill:#aab5bb;fill-opacity:1;stroke:none;stroke-width:0.1;stroke-linecap:square;stroke-linejoin:miter;stroke-miterlimit:4;stroke-dasharray:none;stroke-dashoffset:0;stroke-opacity:1"
       d="m 14,1116.5196 0,1 20,0 0,-1 -20,0 z"
       id="rect4162" />
  </g>
</svg>
