<?xml version="1.0" encoding="UTF-8" standalone="no"?>
<!-- Created with Inkscape (http://www.inkscape.org/) -->

<svg
   xmlns:dc="http://purl.org/dc/elements/1.1/"
   xmlns:cc="http://creativecommons.org/ns#"
   xmlns:rdf="http://www.w3.org/1999/02/22-rdf-syntax-ns#"
   xmlns:svg="http://www.w3.org/2000/svg"
   xmlns="http://www.w3.org/2000/svg"
   xmlns:sodipodi="http://sodipodi.sourceforge.net/DTD/sodipodi-0.dtd"
   xmlns:inkscape="http://www.inkscape.org/namespaces/inkscape"
   width="64"
   height="64"
   viewBox="0 0 64 64.000003"
   id="svg2"
   version="1.1"
   inkscape:version="0.91+devel r"
   sodipodi:docname="vbam.svg">
  <defs
     id="defs4" />
  <sodipodi:namedview
     id="base"
     pagecolor="#ffffff"
     bordercolor="#666666"
     borderopacity="1.0"
     inkscape:pageopacity="0.0"
     inkscape:pageshadow="2"
     inkscape:zoom="4.09375"
     inkscape:cx="-42.002681"
     inkscape:cy="44.685987"
     inkscape:document-units="px"
     inkscape:current-layer="layer1"
     showgrid="true"
     units="px"
     inkscape:showpageshadow="false"
     borderlayer="true"
     inkscape:window-width="2560"
     inkscape:window-height="957"
     inkscape:window-x="-4"
     inkscape:window-y="29"
     inkscape:window-maximized="1">
    <inkscape:grid
       type="xygrid"
       id="grid4136" />
    <sodipodi:guide
       position="5,59.000069"
       orientation="54,0"
       id="guide4142" />
    <sodipodi:guide
       position="5,5.0000688"
       orientation="0,54"
       id="guide4144" />
    <sodipodi:guide
       position="59,5.0000688"
       orientation="-54,0"
       id="guide4146" />
    <sodipodi:guide
       position="59,59.000069"
       orientation="0,-54"
       id="guide4148" />
    <sodipodi:guide
       position="0,64.000069"
       orientation="64,0"
       id="guide4150" />
    <sodipodi:guide
       position="0,6.875e-05"
       orientation="0,64"
       id="guide4152" />
    <sodipodi:guide
       position="64,6.875e-05"
       orientation="-64,0"
       id="guide4154" />
    <sodipodi:guide
       position="64,64.000069"
       orientation="0,-64"
       id="guide4156" />
    <sodipodi:guide
       position="10,35"
       orientation="38,0"
       id="guide4155" />
    <sodipodi:guide
       position="54,37"
       orientation="-38,0"
       id="guide4159" />
    <sodipodi:guide
       position="51,50.999947"
       orientation="0,-38"
       id="guide4161" />
  </sodipodi:namedview>
  <metadata
     id="metadata7">
    <rdf:RDF>
      <cc:Work
         rdf:about="">
        <dc:format>image/svg+xml</dc:format>
        <dc:type
           rdf:resource="http://purl.org/dc/dcmitype/StillImage" />
        <dc:title />
      </cc:Work>
    </rdf:RDF>
  </metadata>
  <g
     inkscape:label="Capa 1"
     inkscape:groupmode="layer"
     id="layer1"
     transform="translate(0,-1058.5196)">
    <path
       style="opacity:1;fill:#503096;fill-opacity:1;stroke:none;stroke-width:1;stroke-linecap:round;stroke-linejoin:miter;stroke-miterlimit:4;stroke-dasharray:none;stroke-opacity:0.29943501"
       d="M 13 5 L 13 11 L 13 48 L 13 53 C 13 56.324038 15.675962 59 19 59 L 45 59 C 48.324038 59 51 56.324038 51 53 L 51 48 L 51 11 L 51 5 L 45 5 L 19 5 L 13 5 z "
       transform="translate(0,1058.5196)"
       id="rect4167" />
    <rect
       style="opacity:1;fill:#353533;fill-opacity:1;stroke:none;stroke-width:1;stroke-linecap:round;stroke-linejoin:miter;stroke-miterlimit:4;stroke-dasharray:none;stroke-opacity:0.29943501"
       id="rect4169"
       width="34"
       height="29"
       x="15"
       y="1065.5197" />
    <rect
       style="opacity:1;fill:#d1d6be;fill-opacity:1;stroke:none;stroke-width:1;stroke-linecap:round;stroke-linejoin:miter;stroke-miterlimit:4;stroke-dasharray:none;stroke-opacity:0.29943501"
       id="rect4171"
       width="24"
       height="19.999947"
       x="20"
       y="1069.5197" />
    <path
       style="opacity:1;fill:#323232;fill-opacity:1;stroke:none;stroke-width:1;stroke-linecap:round;stroke-linejoin:miter;stroke-miterlimit:4;stroke-dasharray:none;stroke-opacity:0.29943501"
       d="m 19,1098.5196 0,3 -3,0 0,2 3,0 0,3 2,0 0,-3 3,0 0,-2 -3,0 0,-3 -2,0 z"
       id="rect4178"
       inkscape:connector-curvature="0" />
    <circle
       style="opacity:1;fill:#c70f2b;fill-opacity:1;stroke:none;stroke-width:1;stroke-linecap:round;stroke-linejoin:miter;stroke-miterlimit:4;stroke-dasharray:none;stroke-opacity:0.29943501"
       id="path4197"
       cx="17"
       cy="1076.5197"
       r="1" />
    <circle
       style="opacity:1;fill:#323232;fill-opacity:1;stroke:none;stroke-width:1;stroke-linecap:round;stroke-linejoin:miter;stroke-miterlimit:4;stroke-dasharray:none;stroke-opacity:0.29943501"
       id="path4202"
       cx="41.499985"
       cy="1104.0199"
       r="1.5" />
    <circle
       r="1.5"
       cy="1101.0197"
       cx="46.5"
       id="circle4204"
       style="opacity:1;fill:#323232;fill-opacity:1;stroke:none;stroke-width:1;stroke-linecap:round;stroke-linejoin:miter;stroke-miterlimit:4;stroke-dasharray:none;stroke-opacity:0.29943501" />
    <rect
       style="opacity:1;fill:#323232;fill-opacity:1;stroke:none;stroke-width:1;stroke-linecap:round;stroke-linejoin:miter;stroke-miterlimit:4;stroke-dasharray:none;stroke-opacity:0.29943501"
       id="rect4206"
       width="3"
       height="1"
       x="27"
       y="1109.5197"
       ry="0.5" />
    <rect
       ry="0.5"
       y="1109.5197"
       x="33"
       height="1"
       width="3"
       id="rect4208"
       style="opacity:1;fill:#323232;fill-opacity:1;stroke:none;stroke-width:1;stroke-linecap:round;stroke-linejoin:miter;stroke-miterlimit:4;stroke-dasharray:none;stroke-opacity:0.29943501" />
    <path
       style="opacity:1;fill:#323232;fill-opacity:1;stroke:none;stroke-width:1;stroke-linecap:round;stroke-linejoin:miter;stroke-miterlimit:4;stroke-dasharray:none;stroke-opacity:0.29943501"
       d="M 43.5 49 A 0.5 0.5 0 0 0 43 49.5 A 0.5 0.5 0 0 0 43.5 50 A 0.5 0.5 0 0 0 44 49.5 A 0.5 0.5 0 0 0 43.5 49 z M 45.5 49 A 0.5 0.5 0 0 0 45 49.5 A 0.5 0.5 0 0 0 45.5 50 A 0.5 0.5 0 0 0 46 49.5 A 0.5 0.5 0 0 0 45.5 49 z M 47.5 49 A 0.5 0.5 0 0 0 47 49.5 A 0.5 0.5 0 0 0 47.5 50 A 0.5 0.5 0 0 0 48 49.5 A 0.5 0.5 0 0 0 47.5 49 z M 42.5 50 A 0.5 0.5 0 0 0 42 50.5 A 0.5 0.5 0 0 0 42.5 51 A 0.5 0.5 0 0 0 43 50.5 A 0.5 0.5 0 0 0 42.5 50 z M 44.5 50 A 0.5 0.5 0 0 0 44 50.5 A 0.5 0.5 0 0 0 44.5 51 A 0.5 0.5 0 0 0 45 50.5 A 0.5 0.5 0 0 0 44.5 50 z M 46.5 50 A 0.5 0.5 0 0 0 46 50.5 A 0.5 0.5 0 0 0 46.5 51 A 0.5 0.5 0 0 0 47 50.5 A 0.5 0.5 0 0 0 46.5 50 z M 48.5 50 A 0.5 0.5 0 0 0 48 50.5 A 0.5 0.5 0 0 0 48.5 51 A 0.5 0.5 0 0 0 49 50.5 A 0.5 0.5 0 0 0 48.5 50 z M 43.5 51 A 0.5 0.5 0 0 0 43 51.5 A 0.5 0.5 0 0 0 43.5 52 A 0.5 0.5 0 0 0 44 51.5 A 0.5 0.5 0 0 0 43.5 51 z M 45.5 51 A 0.5 0.5 0 0 0 45 51.5 A 0.5 0.5 0 0 0 45.5 52 A 0.5 0.5 0 0 0 46 51.5 A 0.5 0.5 0 0 0 45.5 51 z M 47.5 51 A 0.5 0.5 0 0 0 47 51.5 A 0.5 0.5 0 0 0 47.5 52 A 0.5 0.5 0 0 0 48 51.5 A 0.5 0.5 0 0 0 47.5 51 z M 42.5 52 A 0.5 0.5 0 0 0 42 52.5 A 0.5 0.5 0 0 0 42.5 53 A 0.5 0.5 0 0 0 43 52.5 A 0.5 0.5 0 0 0 42.5 52 z M 44.5 52 A 0.5 0.5 0 0 0 44 52.5 A 0.5 0.5 0 0 0 44.5 53 A 0.5 0.5 0 0 0 45 52.5 A 0.5 0.5 0 0 0 44.5 52 z M 46.5 52 A 0.5 0.5 0 0 0 46 52.5 A 0.5 0.5 0 0 0 46.5 53 A 0.5 0.5 0 0 0 47 52.5 A 0.5 0.5 0 0 0 46.5 52 z M 48.5 52 A 0.5 0.5 0 0 0 48 52.5 A 0.5 0.5 0 0 0 48.5 53 A 0.5 0.5 0 0 0 49 52.5 A 0.5 0.5 0 0 0 48.5 52 z M 43.5 53 A 0.5 0.5 0 0 0 43 53.5 A 0.5 0.5 0 0 0 43.5 54 A 0.5 0.5 0 0 0 44 53.5 A 0.5 0.5 0 0 0 43.5 53 z M 45.5 53 A 0.5 0.5 0 0 0 45 53.5 A 0.5 0.5 0 0 0 45.5 54 A 0.5 0.5 0 0 0 46 53.5 A 0.5 0.5 0 0 0 45.5 53 z M 47.5 53 A 0.5 0.5 0 0 0 47 53.5 A 0.5 0.5 0 0 0 47.5 54 A 0.5 0.5 0 0 0 48 53.5 A 0.5 0.5 0 0 0 47.5 53 z M 42.5 54 A 0.5 0.5 0 0 0 42 54.5 A 0.5 0.5 0 0 0 42.5 55 A 0.5 0.5 0 0 0 43 54.5 A 0.5 0.5 0 0 0 42.5 54 z M 44.5 54 A 0.5 0.5 0 0 0 44 54.5 A 0.5 0.5 0 0 0 44.5 55 A 0.5 0.5 0 0 0 45 54.5 A 0.5 0.5 0 0 0 44.5 54 z M 46.5 54 A 0.5 0.5 0 0 0 46 54.5 A 0.5 0.5 0 0 0 46.5 55 A 0.5 0.5 0 0 0 47 54.5 A 0.5 0.5 0 0 0 46.5 54 z M 48.5 54 A 0.5 0.5 0 0 0 48 54.5 A 0.5 0.5 0 0 0 48.5 55 A 0.5 0.5 0 0 0 49 54.5 A 0.5 0.5 0 0 0 48.5 54 z M 43.5 55 A 0.5 0.5 0 0 0 43 55.5 A 0.5 0.5 0 0 0 43.5 56 A 0.5 0.5 0 0 0 44 55.5 A 0.5 0.5 0 0 0 43.5 55 z M 45.5 55 A 0.5 0.5 0 0 0 45 55.5 A 0.5 0.5 0 0 0 45.5 56 A 0.5 0.5 0 0 0 46 55.5 A 0.5 0.5 0 0 0 45.5 55 z M 47.5 55 A 0.5 0.5 0 0 0 47 55.5 A 0.5 0.5 0 0 0 47.5 56 A 0.5 0.5 0 0 0 48 55.5 A 0.5 0.5 0 0 0 47.5 55 z "
       transform="translate(0,1058.5196)"
       id="path4210-8" />
    <path
       style="opacity:1;fill:#42277b;fill-opacity:1;stroke:none;stroke-width:1;stroke-linecap:round;stroke-linejoin:miter;stroke-miterlimit:4;stroke-dasharray:none;stroke-opacity:0.29943501"
       d="M 13 52 L 13 53 C 13 56.324038 15.675962 59 19 59 L 45 59 C 48.324038 59 51 56.324038 51 53 L 51 52 C 51 55.324 48.324038 58 45 58 L 19 58 C 15.675962 58 13 55.324 13 52 z "
       transform="translate(0,1058.5196)"
       id="path4160" />
  </g>
</svg>
