<?xml version="1.0" encoding="UTF-8" standalone="no"?>
<!-- Created with Inkscape (http://www.inkscape.org/) -->

<svg
   xmlns:dc="http://purl.org/dc/elements/1.1/"
   xmlns:cc="http://creativecommons.org/ns#"
   xmlns:rdf="http://www.w3.org/1999/02/22-rdf-syntax-ns#"
   xmlns:svg="http://www.w3.org/2000/svg"
   xmlns="http://www.w3.org/2000/svg"
   xmlns:sodipodi="http://sodipodi.sourceforge.net/DTD/sodipodi-0.dtd"
   xmlns:inkscape="http://www.inkscape.org/namespaces/inkscape"
   width="64"
   height="64"
   viewBox="0 0 64 64.000003"
   id="svg2"
   version="1.1"
   inkscape:version="0.91+devel r"
   sodipodi:docname="wxmaxima.svg">
  <defs
     id="defs4" />
  <sodipodi:namedview
     id="base"
     pagecolor="#ffffff"
     bordercolor="#666666"
     borderopacity="1.0"
     inkscape:pageopacity="0.0"
     inkscape:pageshadow="2"
     inkscape:zoom="11.18"
     inkscape:cx="38.43594"
     inkscape:cy="32.87973"
     inkscape:document-units="px"
     inkscape:current-layer="layer1"
     showgrid="true"
     units="px"
     inkscape:showpageshadow="false"
     borderlayer="true"
     inkscape:window-width="1366"
     inkscape:window-height="670"
     inkscape:window-x="-4"
     inkscape:window-y="29"
     inkscape:window-maximized="1">
    <inkscape:grid
       type="xygrid"
       id="grid4136"
       empspacing="2" />
    <sodipodi:guide
       position="5,59.000069"
       orientation="54,0"
       id="guide4142" />
    <sodipodi:guide
       position="5,5.0000688"
       orientation="0,54"
       id="guide4144" />
    <sodipodi:guide
       position="59,5.0000688"
       orientation="-54,0"
       id="guide4146" />
    <sodipodi:guide
       position="59,59.000069"
       orientation="0,-54"
       id="guide4148" />
    <sodipodi:guide
       position="0,64.000069"
       orientation="64,0"
       id="guide4150" />
    <sodipodi:guide
       position="0,6.875e-05"
       orientation="0,64"
       id="guide4152" />
    <sodipodi:guide
       position="64,6.875e-05"
       orientation="-64,0"
       id="guide4154" />
    <sodipodi:guide
       position="64,64.000069"
       orientation="0,-64"
       id="guide4156" />
    <sodipodi:guide
       position="15,48.999949"
       orientation="34,0"
       id="guide4168" />
    <sodipodi:guide
       position="15,14.999947"
       orientation="0,34"
       id="guide4170" />
    <sodipodi:guide
       position="49,14.999947"
       orientation="-34,0"
       id="guide4172" />
    <sodipodi:guide
       position="49,48.999949"
       orientation="0,-34"
       id="guide4174" />
    <sodipodi:guide
       position="15,32.000436"
       orientation="17,0"
       id="guide4175" />
    <sodipodi:guide
       position="15,15.000436"
       orientation="0,17"
       id="guide4177" />
    <sodipodi:guide
       position="32,15.000436"
       orientation="-17,0"
       id="guide4179" />
    <sodipodi:guide
       position="32,32.000436"
       orientation="0,-17"
       id="guide4181" />
  </sodipodi:namedview>
  <metadata
     id="metadata7">
    <rdf:RDF>
      <cc:Work
         rdf:about="">
        <dc:format>image/svg+xml</dc:format>
        <dc:type
           rdf:resource="http://purl.org/dc/dcmitype/StillImage" />
        <dc:title></dc:title>
      </cc:Work>
    </rdf:RDF>
  </metadata>
  <g
     inkscape:label="Capa 1"
     inkscape:groupmode="layer"
     id="layer1"
     transform="translate(0,-1058.5196)">
    <ellipse
       style="opacity:1;fill:#3498db;fill-opacity:1;stroke:none;stroke-width:0.1;stroke-linecap:round;stroke-linejoin:miter;stroke-miterlimit:4;stroke-dasharray:none;stroke-opacity:0.29943501"
       id="path4154"
       cx="32.000008"
       cy="1090.5195"
       rx="27.000008"
       ry="27.000032" />
    <path
       style="opacity:1;fill:#eaeff7;fill-opacity:1;stroke:none;stroke-width:1;stroke-linecap:round;stroke-linejoin:miter;stroke-miterlimit:4;stroke-dasharray:none;stroke-opacity:0.29943501"
       d="M 16 14 A 2 2 0 0 0 14 16 A 2 2 0 0 0 16 18 L 16 46 A 2 2 0 0 0 14 48 A 2 2 0 0 0 16 50 A 2 2 0 0 0 18 48 L 46 48 A 2 2 0 0 0 48 50 A 2 2 0 0 0 50 48 A 2 2 0 0 0 48 46 L 48 18 A 2 2 0 0 0 50 16 A 2 2 0 0 0 48 14 A 2 2 0 0 0 46 16 L 18 16 A 2 2 0 0 0 16 14 z M 18 18 L 46 18 L 46 46 L 32 46 L 32 35 L 32 34 L 31 34 L 18 34 L 18 18 z M 18 35 L 31 35 L 31 46 L 18 46 L 18 35 z "
       transform="translate(0,1058.5196)"
       id="rect4159" />
    <path
       style="opacity:1;fill:#86e2d5;fill-opacity:1;stroke:none;stroke-width:1;stroke-linecap:round;stroke-linejoin:miter;stroke-miterlimit:4;stroke-dasharray:none;stroke-opacity:0.29943501"
       d="M 19 19 L 19 33 L 32 33 L 33 33 L 33 34 L 33 45 L 45 45 L 45 19 L 19 19 z M 19 36 L 19 45 L 30 45 L 30 36 L 19 36 z "
       transform="translate(0,1058.5196)"
       id="rect4177" />
    <circle
       style="opacity:1;fill:#86e2d5;fill-opacity:1;stroke:none;stroke-width:1;stroke-linecap:round;stroke-linejoin:miter;stroke-miterlimit:4;stroke-dasharray:none;stroke-opacity:0.29943501"
       id="path4198"
       cx="16"
       cy="1074.5197"
       r="1" />
    <ellipse
       style="opacity:1;fill:#86e2d5;fill-opacity:1;stroke:none;stroke-width:1;stroke-linecap:round;stroke-linejoin:miter;stroke-miterlimit:4;stroke-dasharray:none;stroke-opacity:0.29943501"
       id="path4200"
       cx="48"
       cy="1074.5197"
       rx="1"
       ry="0.99994671" />
    <circle
       r="1"
       cy="1106.5197"
       cx="16"
       id="circle4202"
       style="opacity:1;fill:#86e2d5;fill-opacity:1;stroke:none;stroke-width:1;stroke-linecap:round;stroke-linejoin:miter;stroke-miterlimit:4;stroke-dasharray:none;stroke-opacity:0.29943501" />
    <ellipse
       ry="0.99994671"
       rx="1"
       cy="1106.5197"
       cx="48"
       id="ellipse4204"
       style="opacity:1;fill:#86e2d5;fill-opacity:1;stroke:none;stroke-width:1;stroke-linecap:round;stroke-linejoin:miter;stroke-miterlimit:4;stroke-dasharray:none;stroke-opacity:0.29943501" />
  </g>
</svg>
