<?xml version="1.0" encoding="UTF-8" standalone="no"?>
<!-- Created with Inkscape (http://www.inkscape.org/) -->

<svg
   xmlns:dc="http://purl.org/dc/elements/1.1/"
   xmlns:cc="http://creativecommons.org/ns#"
   xmlns:rdf="http://www.w3.org/1999/02/22-rdf-syntax-ns#"
   xmlns:svg="http://www.w3.org/2000/svg"
   xmlns="http://www.w3.org/2000/svg"
   xmlns:sodipodi="http://sodipodi.sourceforge.net/DTD/sodipodi-0.dtd"
   xmlns:inkscape="http://www.inkscape.org/namespaces/inkscape"
   width="64"
   height="64"
   viewBox="0 0 64 64.000003"
   id="svg2"
   version="1.1"
   inkscape:version="0.91+devel r"
   sodipodi:docname="xfce4-panel-menu.svg">
  <defs
     id="defs4" />
  <sodipodi:namedview
     id="base"
     pagecolor="#ffffff"
     bordercolor="#666666"
     borderopacity="1.0"
     inkscape:pageopacity="0.0"
     inkscape:pageshadow="2"
     inkscape:zoom="5.59"
     inkscape:cx="32.374616"
     inkscape:cy="34.269996"
     inkscape:document-units="px"
     inkscape:current-layer="layer1"
     showgrid="true"
     units="px"
     inkscape:showpageshadow="false"
     borderlayer="true"
     inkscape:window-width="1366"
     inkscape:window-height="670"
     inkscape:window-x="-4"
     inkscape:window-y="29"
     inkscape:window-maximized="1">
    <inkscape:grid
       type="xygrid"
       id="grid4136" />
    <sodipodi:guide
       position="5,59.000069"
       orientation="54,0"
       id="guide4142" />
    <sodipodi:guide
       position="5,5.0000688"
       orientation="0,54"
       id="guide4144" />
    <sodipodi:guide
       position="59,5.0000688"
       orientation="-54,0"
       id="guide4146" />
    <sodipodi:guide
       position="59,59.000069"
       orientation="0,-54"
       id="guide4148" />
    <sodipodi:guide
       position="0,64.000069"
       orientation="64,0"
       id="guide4150" />
    <sodipodi:guide
       position="0,6.875e-05"
       orientation="0,64"
       id="guide4152" />
    <sodipodi:guide
       position="64,6.875e-05"
       orientation="-64,0"
       id="guide4154" />
    <sodipodi:guide
       position="64,64.000069"
       orientation="0,-64"
       id="guide4156" />
    <sodipodi:guide
       position="15,48.999949"
       orientation="34,0"
       id="guide4168" />
    <sodipodi:guide
       position="15,14.999947"
       orientation="0,34"
       id="guide4170" />
    <sodipodi:guide
       position="49,14.999947"
       orientation="-34,0"
       id="guide4172" />
    <sodipodi:guide
       position="49,48.999949"
       orientation="0,-34"
       id="guide4174" />
    <sodipodi:guide
       position="15,32.000436"
       orientation="17,0"
       id="guide4175" />
    <sodipodi:guide
       position="15,15.000436"
       orientation="0,17"
       id="guide4177" />
    <sodipodi:guide
       position="32,15.000436"
       orientation="-17,0"
       id="guide4179" />
    <sodipodi:guide
       position="32,32.000436"
       orientation="0,-17"
       id="guide4181" />
  </sodipodi:namedview>
  <metadata
     id="metadata7">
    <rdf:RDF>
      <cc:Work
         rdf:about="">
        <dc:format>image/svg+xml</dc:format>
        <dc:type
           rdf:resource="http://purl.org/dc/dcmitype/StillImage" />
        <dc:title />
      </cc:Work>
    </rdf:RDF>
  </metadata>
  <g
     inkscape:label="Capa 1"
     inkscape:groupmode="layer"
     id="layer1"
     transform="translate(0,-1058.5196)">
    <ellipse
       style="opacity:1;fill:#446cb3;fill-opacity:1;stroke:none;stroke-width:0.1;stroke-linecap:round;stroke-linejoin:miter;stroke-miterlimit:4;stroke-dasharray:none;stroke-opacity:0.29943501"
       id="path4154"
       cx="32.000008"
       cy="1090.5195"
       rx="27.000008"
       ry="27.000032" />
    <path
       style="fill:#c4d2e9;stroke-width:0.04241677;fill-opacity:1"
       d="m 24.819068,1100.4084 c -0.04688,-0.063 -0.08508,-0.1766 -0.08498,-0.2516 2.47e-4,-0.1904 0.124957,-0.7164 0.364022,-1.537 0.24793,-0.8511 0.283275,-1.0275 0.205744,-1.0269 -0.03079,0 -0.259556,0.09 -0.508373,0.201 -0.877548,0.3892 -1.150311,0.4451 -1.351603,0.2766 -0.09258,-0.078 -0.108355,-0.1242 -0.108355,-0.3216 0,-0.3855 0.153481,-0.6381 0.896252,-1.4753 0.538211,-0.6065 0.559768,-0.652 0.501543,-1.0562 -0.07264,-0.5042 -0.09969,-2.1762 -0.04372,-2.7006 0.137146,-1.2855 0.542761,-2.4968 1.159687,-3.4632 0.16798,-0.2631 0.169017,-0.2671 0.104939,-0.4101 -0.220944,-0.4929 -1.737793,-1.8302 -3.358941,-2.9614 -1.516129,-1.058 -2.515277,-1.6327 -4.094467,-2.3551 -2.652423,-1.2132 -4.500812,-2.3082 -4.500812,-2.6664 0,-0.045 0.03149,-0.1008 0.07008,-0.1236 0.08577,-0.052 0.197897,-0.01 1.163655,0.4756 1.577936,0.7857 2.829159,1.3171 3.753482,1.594 0.957595,0.2871 1.604714,0.554 2.500837,1.0314 1.625343,0.866 3.429859,2.2373 4.927668,3.7445 l 0.427606,0.4303 0.333218,-0.1911 c 0.766301,-0.4393 1.410063,-0.6592 1.931851,-0.6597 0.363933,0 0.83323,0.075 2.596193,0.4151 2.461159,0.4755 3.490935,0.6021 4.17099,0.513 0.647691,-0.085 0.742692,-0.1764 1.05075,-1.0126 0.175196,-0.4756 0.311829,-0.7192 0.504919,-0.9002 l 0.09337,-0.087 -0.147234,-0.6343 c -0.289216,-1.2461 -0.236529,-2.0069 0.172502,-2.4908 0.35883,-0.4246 0.661114,-0.498 1.045123,-0.254 0.385056,0.2446 0.75422,0.8541 1.291543,2.1323 0.126447,0.3008 0.26083,0.5714 0.298642,0.6016 0.09347,0.074 0.337936,0.07 0.365513,-0.011 0.01204,-0.034 -0.04323,-0.3142 -0.123131,-0.6235 -0.335694,-1.3007 -0.383259,-2.151 -0.151487,-2.7084 0.101061,-0.243 0.341429,-0.4809 0.569371,-0.5636 0.267166,-0.097 0.673956,-0.089 0.868546,0.017 0.58393,0.317 0.909508,1.4478 0.909508,3.1592 0,0.5748 0.0079,0.6462 0.07195,0.6674 0.03958,0.014 0.432847,0.084 0.873925,0.1576 3.039493,0.5072 4.687428,1.1529 5.622924,2.2029 0.448027,0.503 0.707682,1.1423 0.655222,1.6135 -0.05241,0.4704 -0.498938,1.0706 -1.212581,1.6298 -0.739001,0.5791 -2.232171,1.4459 -3.946691,2.2914 -0.34593,0.1705 -0.711551,0.3705 -0.812494,0.4444 -0.317602,0.2325 -0.441355,0.6144 -0.330493,1.0201 0.05488,0.2006 0.133672,0.3205 0.466593,0.7097 0.94201,1.1011 1.256652,1.5816 1.31078,2.0017 0.0225,0.1749 0.01273,0.2108 -0.08567,0.3155 -0.104387,0.1111 -0.126072,0.1163 -0.361643,0.088 -0.258866,-0.032 -0.652834,-0.1504 -1.872275,-0.5665 -0.820656,-0.28 -1.119881,-0.3406 -1.119881,-0.2268 0,0.1422 0.123101,0.3225 0.617045,0.9039 0.559007,0.6581 0.766113,0.9645 0.84846,1.2556 0.145526,0.5144 -0.04086,0.972 -0.395735,0.972 -0.36649,0 -1.613844,-0.5059 -3.633756,-1.4739 l -0.775027,-0.3715 -0.582123,0.09 c -1.595959,0.2488 -2.87933,0.3289 -4.786574,0.2986 -1.918872,-0.03 -3.082803,-0.1713 -4.4653,-0.5409 l -0.569045,-0.1521 -0.14675,0.119 c -0.08074,0.065 -0.54665,0.4937 -1.035402,0.9515 -1.307404,1.2247 -1.771233,1.6036 -1.962981,1.6036 -0.05044,0 -0.130129,-0.053 -0.177012,-0.1153 z m 19.963566,-8.4302 c 0.299915,-0.2153 0.707297,-0.6207 0.785637,-0.7817 0.130069,-0.2676 0.03721,-0.4003 -0.191906,-0.2742 -0.276721,0.1522 -1.311303,1.3177 -1.313031,1.4792 -4.93e-4,0.045 0.377703,-0.1781 0.7193,-0.4233 z m -0.843072,-1.0654 c 0.463356,-0.1815 1.221564,-0.5572 1.325033,-0.6569 0.297536,-0.2864 -0.335744,-0.1473 -1.038531,0.2282 -0.429422,0.2294 -1.053484,0.6171 -1.087477,0.6757 -0.03001,0.052 0.289246,-0.046 0.800975,-0.247 z m -0.583248,-2.1354 c 0.242796,-0.1203 0.247682,-0.1971 0.01253,-0.1971 -0.335606,0 -0.75807,-0.1997 -0.962609,-0.4552 -0.10193,-0.1273 -0.233489,-0.4 -0.318333,-0.6599 -0.06978,-0.2136 -0.07235,-0.2161 -0.102305,-0.096 -0.07709,0.311 0.08794,0.8642 0.353876,1.1863 0.274164,0.3322 0.634317,0.4106 1.016846,0.221 z m 0.270077,-0.9009 c 0.311464,-0.2606 0.312204,-0.8171 9.87e-4,-1.0673 -0.04343,-0.036 -0.162226,-0.064 -0.264017,-0.064 -0.200463,0 -0.301277,0.06 -0.417963,0.2481 -0.09209,0.1485 -0.09969,0.4912 -0.01471,0.6661 0.145239,0.2988 0.47443,0.4014 0.695236,0.2166 z m 4.927481,-1.4486 c -0.169422,-0.1802 0.09308,-0.9028 0.677104,-1.8642 0.367941,-0.6057 0.702224,-0.9291 0.76565,-0.741 0.07215,0.2141 -1.035194,2.4709 -1.281051,2.6108 -0.102146,0.058 -0.101702,0.058 -0.161703,-0.011 z m -0.752463,-0.3273 c -0.109312,-0.298 0.215634,-2.4418 0.399979,-2.6389 0.10648,-0.1137 0.179756,0.056 0.179756,0.4144 0,0.5714 -0.160706,1.7204 -0.299994,2.1449 -0.07353,0.2243 -0.212219,0.2638 -0.279741,0.08 z"
       id="path4168"
       inkscape:connector-curvature="0" />
  </g>
</svg>
