<?xml version="1.0" encoding="UTF-8" standalone="no"?>
<!-- Created with Inkscape (http://www.inkscape.org/) -->

<svg
   xmlns:dc="http://purl.org/dc/elements/1.1/"
   xmlns:cc="http://creativecommons.org/ns#"
   xmlns:rdf="http://www.w3.org/1999/02/22-rdf-syntax-ns#"
   xmlns:svg="http://www.w3.org/2000/svg"
   xmlns="http://www.w3.org/2000/svg"
   xmlns:sodipodi="http://sodipodi.sourceforge.net/DTD/sodipodi-0.dtd"
   xmlns:inkscape="http://www.inkscape.org/namespaces/inkscape"
   width="64"
   height="64"
   viewBox="0 0 64 64.000003"
   id="svg2"
   version="1.1"
   inkscape:version="0.91+devel r"
   sodipodi:docname="yakuake.svg">
  <defs
     id="defs4">
    <inkscape:perspective
       sodipodi:type="inkscape:persp3d"
       inkscape:vp_x="0 : 32.000002 : 1"
       inkscape:vp_y="0 : 1000 : 0"
       inkscape:vp_z="64 : 32.000002 : 1"
       inkscape:persp3d-origin="32 : 21.333334 : 1"
       id="perspective4156" />
  </defs>
  <sodipodi:namedview
     id="base"
     pagecolor="#ffffff"
     bordercolor="#666666"
     borderopacity="1.0"
     inkscape:pageopacity="0.0"
     inkscape:pageshadow="2"
     inkscape:zoom="11.181126"
     inkscape:cx="51.488071"
     inkscape:cy="27.160356"
     inkscape:document-units="px"
     inkscape:current-layer="layer1"
     showgrid="true"
     units="px"
     inkscape:showpageshadow="false"
     borderlayer="true"
     inkscape:window-width="2560"
     inkscape:window-height="957"
     inkscape:window-x="-4"
     inkscape:window-y="29"
     inkscape:window-maximized="1">
    <inkscape:grid
       type="xygrid"
       id="grid4136" />
    <sodipodi:guide
       position="5,59.000069"
       orientation="54,0"
       id="guide4142" />
    <sodipodi:guide
       position="5,5.0000688"
       orientation="0,54"
       id="guide4144" />
    <sodipodi:guide
       position="59,5.0000688"
       orientation="-54,0"
       id="guide4146" />
    <sodipodi:guide
       position="59,59.000069"
       orientation="0,-54"
       id="guide4148" />
    <sodipodi:guide
       position="0,64.000069"
       orientation="64,0"
       id="guide4150" />
    <sodipodi:guide
       position="0,6.875e-05"
       orientation="0,64"
       id="guide4152" />
    <sodipodi:guide
       position="64,6.875e-05"
       orientation="-64,0"
       id="guide4154" />
    <sodipodi:guide
       position="64,64.000069"
       orientation="0,-64"
       id="guide4156" />
    <sodipodi:guide
       position="10,35"
       orientation="38,0"
       id="guide4155" />
    <sodipodi:guide
       position="54,37"
       orientation="-38,0"
       id="guide4159" />
    <sodipodi:guide
       position="51,50.999947"
       orientation="0,-38"
       id="guide4161" />
  </sodipodi:namedview>
  <metadata
     id="metadata7">
    <rdf:RDF>
      <cc:Work
         rdf:about="">
        <dc:format>image/svg+xml</dc:format>
        <dc:type
           rdf:resource="http://purl.org/dc/dcmitype/StillImage" />
        <dc:title></dc:title>
      </cc:Work>
    </rdf:RDF>
  </metadata>
  <g
     inkscape:label="Capa 1"
     inkscape:groupmode="layer"
     id="layer1"
     transform="translate(0,-1058.5196)">
    <path
       style="fill:#3ecdf6;fill-opacity:1;stroke:none"
       d="M 4 5 C 3.4459619 5 3 5.4459619 3 6 L 3 57 L 3 58 C 3 58.554038 3.4459619 59 4 59 L 5 59 L 60 59 C 60.554038 59 61 58.554038 61 58 L 61 6 C 61 5.4459619 60.554038 5 60 5 L 5 5 L 4 5 z "
       transform="translate(0,1058.5196)"
       id="rect4148" />
    <path
       style="fill:#172f55;fill-opacity:1;fill-rule:evenodd;stroke:none;stroke-width:1px;stroke-linecap:butt;stroke-linejoin:miter;stroke-opacity:1"
       d="M 55 30 L 26 59 L 60 59 C 60.554038 59 61 58.554038 61 58 L 61 36 L 55 30 z "
       transform="translate(0,1058.5196)"
       id="path4202-5" />
    <path
       inkscape:connector-curvature="0"
       style="fill:#f1f2f4;fill-opacity:1;fill-rule:evenodd;stroke:none;stroke-width:1px;stroke-linecap:butt;stroke-linejoin:miter;stroke-opacity:1"
       d="m 55,1088.5196 -7.599609,7.5996 3.599609,-1.5996 4,3 1,-2 5,5 -2,-5 2,0 0,-1 -6,-6 z"
       id="path4236-1" />
    <path
       style="opacity:1;fill:#c5eff7;fill-opacity:1;stroke:none;stroke-opacity:1"
       d="m 3,55 0,3 c 0,0.554038 0.4459619,1 1,1 l 56,0 c 0.554038,0 1,-0.445962 1,-1 l 0,-3 z"
       transform="translate(0,1058.5196)"
       id="rect4230"
       inkscape:connector-curvature="0"
       sodipodi:nodetypes="csssscc" />
    <circle
       style="opacity:1;fill:#2c3e50;fill-opacity:1;stroke:none;stroke-opacity:1"
       id="path4323"
       cx="59.5"
       cy="1115.0197"
       r="0.5" />
    <circle
       style="opacity:1;fill:#2c3e50;fill-opacity:1;stroke:none;stroke-opacity:1"
       id="path4323-6"
       cx="56.5"
       cy="1115.0197"
       r="0.5" />
    <circle
       style="opacity:1;fill:#2c3e50;fill-opacity:1;stroke:none;stroke-opacity:1"
       id="path4323-8"
       cx="53.5"
       cy="1115.0197"
       r="0.5" />
    <path
       style="opacity:1;fill:#baebfc;fill-opacity:1;stroke:none;stroke-width:0.99996877;stroke-opacity:1"
       d="m 13,1065.0198 c -0.860926,0 -1.679702,0.3729 -2.248047,1.0194 -0.628246,0.078 -1.182434,0.449 -1.494141,1 -0.08543,-0.012 -0.171543,-0.019 -0.257812,-0.019 -1.104569,0 -2,0.8953 -2,1.9998 8.58e-4,0.087 0.0074,0.1737 0.01953,0.2598 -0.628865,0.3537 -1.018466,1.0187 -1.01953,1.7401 0,1.1046 0.895431,1.9999 2,1.9999 l 9,0 c 1.656854,0 3,-1.343 3,-2.9998 0,-1.6568 -1.343146,-2.9998 -3,-2.9998 -0.0874,7e-4 -0.17472,0.01 -0.261719,0.014 -0.312215,-0.549 -0.865414,-0.9183 -1.492187,-0.9961 -0.568252,-0.6454 -1.386157,-1.0159 -2.246094,-1.0175 z"
       id="rect4249"
       inkscape:connector-curvature="0"
       sodipodi:nodetypes="cccccccssscccc" />
    <path
       style="opacity:1;fill:#34495e;fill-opacity:1;stroke:none;stroke-width:0.1;stroke-linecap:square;stroke-linejoin:miter;stroke-miterlimit:4;stroke-dasharray:none;stroke-dashoffset:0;stroke-opacity:1"
       d="M 4 5 C 3.4459619 5 3 5.4459619 3 6 L 3 23 L 3 24 L 4 24 L 60 24 L 61 24 L 61 23 L 61 6 C 61 5.4459619 60.554038 5 60 5 L 4 5 z "
       transform="translate(0,1058.5196)"
       id="rect4189" />
    <rect
       style="opacity:1;fill:#f1f2f4;fill-opacity:1;stroke:none;stroke-width:0.1;stroke-linecap:square;stroke-linejoin:miter;stroke-miterlimit:4;stroke-dasharray:none;stroke-dashoffset:0;stroke-opacity:1"
       id="rect4194"
       width="58"
       height="3.0000534"
       x="3"
       y="1079.5197" />
    <rect
       style="opacity:1;fill:#34495e;fill-opacity:1;stroke:none;stroke-width:0.1;stroke-linecap:square;stroke-linejoin:miter;stroke-miterlimit:4;stroke-dasharray:none;stroke-dashoffset:0;stroke-opacity:1"
       id="rect4225"
       width="1.9999986"
       height="1"
       x="57"
       y="1080.5197" />
    <path
       style="opacity:1;fill:#f1f2f4;fill-opacity:1;stroke:none;stroke-width:0.1;stroke-linecap:square;stroke-linejoin:miter;stroke-miterlimit:4;stroke-dasharray:none;stroke-dashoffset:0;stroke-opacity:1"
       d="M 5 6 L 5 7 L 6 7 L 6 6 L 5 6 z M 6 7 L 6 8 L 7 8 L 7 7 L 6 7 z M 7 8 L 7 9 L 8 9 L 8 8 L 7 8 z M 7 9 L 6 9 L 6 10 L 7 10 L 7 9 z M 6 10 L 5 10 L 5 11 L 6 11 L 6 10 z M 8 11 L 8 12 L 11 12 L 11 11 L 8 11 z "
       transform="translate(0,1058.5196)"
       id="rect4227" />
    <path
       style="opacity:1;fill:#a6e7f3;fill-opacity:1;stroke:none;stroke-width:0.1;stroke-linecap:square;stroke-linejoin:miter;stroke-miterlimit:4;stroke-dasharray:none;stroke-dashoffset:0;stroke-opacity:1"
       d="M 3 58 C 3 58.554038 3.4459619 59 4 59 L 60 59 C 60.554038 59 61 58.554038 61 58 L 3 58 z "
       transform="translate(0,1058.5196)"
       id="rect4284" />
  </g>
</svg>
