<?xml version="1.0" encoding="UTF-8" standalone="no"?>
<!-- Created using Karbon, part of Calligra: http://www.calligra.org/karbon -->

<svg
   xmlns:dc="http://purl.org/dc/elements/1.1/"
   xmlns:cc="http://creativecommons.org/ns#"
   xmlns:rdf="http://www.w3.org/1999/02/22-rdf-syntax-ns#"
   xmlns:svg="http://www.w3.org/2000/svg"
   xmlns="http://www.w3.org/2000/svg"
   xmlns:sodipodi="http://sodipodi.sourceforge.net/DTD/sodipodi-0.dtd"
   xmlns:inkscape="http://www.inkscape.org/namespaces/inkscape"
   width="48"
   height="48"
   id="svg2"
   version="1.1"
   inkscape:version="0.91pre2 r"
   sodipodi:docname="application-rss+xml.svg">
  <metadata
     id="metadata13">
    <rdf:RDF>
      <cc:Work
         rdf:about="">
        <dc:format>image/svg+xml</dc:format>
        <dc:type
           rdf:resource="http://purl.org/dc/dcmitype/StillImage" />
        <dc:title></dc:title>
      </cc:Work>
    </rdf:RDF>
  </metadata>
  <sodipodi:namedview
     pagecolor="#ffffff"
     bordercolor="#666666"
     borderopacity="1"
     objecttolerance="10"
     gridtolerance="10"
     guidetolerance="10"
     inkscape:pageopacity="0"
     inkscape:pageshadow="2"
     inkscape:window-width="1366"
     inkscape:window-height="672"
     id="namedview11"
     showgrid="true"
     inkscape:showpageshadow="false"
     borderlayer="true"
     units="px"
     inkscape:zoom="8"
     inkscape:cx="13.769938"
     inkscape:cy="23.021769"
     inkscape:window-x="-4"
     inkscape:window-y="25"
     inkscape:window-maximized="1"
     inkscape:current-layer="svg2"
     fit-margin-top="0"
     fit-margin-left="0"
     fit-margin-right="0"
     fit-margin-bottom="0">
    <inkscape:grid
       type="xygrid"
       id="grid4176"
       originx="1.3580323e-08px"
       originy="-9.5062256e-08px" />
    <sodipodi:guide
       position="7.00001,43.99993"
       orientation="40,0"
       id="guide4187" />
    <sodipodi:guide
       position="7.00001,3.9999299"
       orientation="0,34"
       id="guide4189" />
    <sodipodi:guide
       position="41.00001,3.9999299"
       orientation="-29,0"
       id="guide4191" />
    <sodipodi:guide
       position="41.00001,32.99993"
       orientation="-11,-11"
       id="guide4193" />
    <sodipodi:guide
       position="30.00001,43.99993"
       orientation="0,-23"
       id="guide4195" />
    <sodipodi:guide
       position="1.3580323e-08,48"
       orientation="48,0"
       id="guide4201" />
    <sodipodi:guide
       position="1.3580323e-08,-9.5062256e-08"
       orientation="0,48"
       id="guide4203" />
    <sodipodi:guide
       position="48,-9.5062256e-08"
       orientation="-48,0"
       id="guide4205" />
    <sodipodi:guide
       position="48,48"
       orientation="0,-48"
       id="guide4207" />
    <sodipodi:guide
       position="15,33"
       orientation="18,0"
       id="guide4209" />
    <sodipodi:guide
       position="15,15"
       orientation="0,18"
       id="guide4211" />
    <sodipodi:guide
       position="33,15"
       orientation="-18,0"
       id="guide4213" />
    <sodipodi:guide
       position="33,33"
       orientation="0,-18"
       id="guide4215" />
  </sodipodi:namedview>
  <defs
     id="defs4" />
  <path
     inkscape:connector-curvature="0"
     style="fill:#f89406;fill-opacity:1;stroke:none"
     d="m 7.00001,4.0000701 0,39.9999999 34,0 0,-29 -11,-10.9999999 z"
     id="rect4090-6"
     sodipodi:nodetypes="cccccc" />
  <path
     style="fill:#ff9b37;fill-opacity:1;stroke:none;stroke-width:0.28222224px;stroke-linecap:butt;stroke-linejoin:miter;stroke-opacity:1"
     d="m 29.99994,3.9999301 0,11.0001599 11.00006,0 z"
     id="path4151-3"
     inkscape:connector-curvature="0" />
  <path
     inkscape:connector-curvature="0"
     id="path4252-6"
     d="m 41,26.00025 0,-11.00016 -11.00006,0 z"
     style="fill:#000000;fill-opacity:0.11764706;stroke:none" />
  <rect
     style="color:#000000;text-decoration:none;text-decoration-line:none;text-decoration-style:solid;text-decoration-color:#000000;clip-rule:nonzero;display:inline;overflow:visible;visibility:visible;opacity:1;isolation:auto;mix-blend-mode:normal;color-interpolation:sRGB;color-interpolation-filters:linearRGB;solid-color:#000000;solid-opacity:1;fill:#f89406;fill-opacity:1;fill-rule:nonzero;stroke:none;stroke-width:1;stroke-linecap:butt;stroke-linejoin:miter;stroke-miterlimit:4;stroke-dasharray:none;stroke-dashoffset:0;stroke-opacity:1;color-rendering:auto;image-rendering:auto;shape-rendering:auto;text-rendering:auto;enable-background:accumulate"
     id="rect4263"
     width="1"
     height="1"
     x="-6.9999967"
     y="19"
     ry="2.35182e-07" />
  <rect
     style="color:#000000;text-decoration:none;text-decoration-line:none;text-decoration-style:solid;text-decoration-color:#000000;clip-rule:nonzero;display:inline;overflow:visible;visibility:visible;opacity:1;isolation:auto;mix-blend-mode:normal;color-interpolation:sRGB;color-interpolation-filters:linearRGB;solid-color:#000000;solid-opacity:1;fill:#ff9b37;fill-opacity:1;fill-rule:nonzero;stroke:none;stroke-width:1;stroke-linecap:butt;stroke-linejoin:miter;stroke-miterlimit:4;stroke-dasharray:none;stroke-dashoffset:0;stroke-opacity:1;color-rendering:auto;image-rendering:auto;shape-rendering:auto;text-rendering:auto;enable-background:accumulate"
     id="rect4263-9"
     width="1"
     height="1"
     x="-6.9999967"
     y="21"
     ry="2.35182e-07" />
  <rect
     style="color:#000000;text-decoration:none;text-decoration-line:none;text-decoration-style:solid;text-decoration-color:#000000;clip-rule:nonzero;display:inline;overflow:visible;visibility:visible;opacity:1;isolation:auto;mix-blend-mode:normal;color-interpolation:sRGB;color-interpolation-filters:linearRGB;solid-color:#000000;solid-opacity:1;fill:#fee8c8;fill-opacity:1;fill-rule:nonzero;stroke:none;stroke-width:1;stroke-linecap:butt;stroke-linejoin:miter;stroke-miterlimit:4;stroke-dasharray:none;stroke-dashoffset:0;stroke-opacity:1;color-rendering:auto;image-rendering:auto;shape-rendering:auto;text-rendering:auto;enable-background:accumulate"
     id="rect4263-2"
     width="1"
     height="1"
     x="-6.9999967"
     y="23"
     ry="2.35182e-07" />
  <path
     style="color:#000000;text-decoration:none;text-decoration-line:none;text-decoration-style:solid;text-decoration-color:#000000;clip-rule:nonzero;display:inline;overflow:visible;visibility:visible;opacity:1;isolation:auto;mix-blend-mode:normal;color-interpolation:sRGB;color-interpolation-filters:linearRGB;solid-color:#000000;solid-opacity:1;fill:#fee8c8;fill-opacity:1;fill-rule:nonzero;stroke:none;stroke-width:1;stroke-linecap:butt;stroke-linejoin:miter;stroke-miterlimit:4;stroke-dasharray:none;stroke-dashoffset:0;stroke-opacity:1;color-rendering:auto;image-rendering:auto;shape-rendering:auto;text-rendering:auto;enable-background:accumulate"
     d="m 17,15 c -0.679075,0 -1.34364,0.05539 -2,0.136719 l 0,2.021484 C 15.654719,17.065063 16.318744,17 17,17 c 7.756,0 14,6.244 14,14 0,0.681256 -0.06506,1.345281 -0.158203,2 l 2.021484,0 C 32.944611,32.34364 33,31.679075 33,31 33,22.136 25.864,15 17,15 Z m 0,4 c -0.6834,0 -1.348396,0.06903 -2,0.177734 l 0,2.021485 C 15.646157,21.068995 16.31435,21 17,21 c 5.54,0 10,4.46 10,10 0,0.68565 -0.069,1.353843 -0.199219,2 l 2.021485,0 C 28.930973,32.348396 29,31.6834 29,31 29,24.352 23.648,19 17,19 Z m 0,4 c -0.692084,0 -1.360349,0.09605 -2,0.259766 l 0,2.08789 C 15.626106,25.127245 16.296656,25 17,25 c 3.324,0 6,2.676 6,6 0,0.703344 -0.127245,1.373894 -0.347656,2 l 2.08789,0 C 24.903948,32.360349 25,31.692084 25,31 25,26.568 21.432,23 17,23 Z m 0,6 c -1.108,0 -2,0.892 -2,2 0,1.108 0.892,2 2,2 1.108,0 2,-0.892 2,-2 0,-1.108 -0.892,-2 -2,-2 z"
     id="rect4217"
     inkscape:connector-curvature="0" />
</svg>
