<?xml version="1.0" encoding="UTF-8" standalone="no"?>
<!-- Created using Karbon, part of Calligra: http://www.calligra.org/karbon -->

<svg
   xmlns:dc="http://purl.org/dc/elements/1.1/"
   xmlns:cc="http://creativecommons.org/ns#"
   xmlns:rdf="http://www.w3.org/1999/02/22-rdf-syntax-ns#"
   xmlns:svg="http://www.w3.org/2000/svg"
   xmlns="http://www.w3.org/2000/svg"
   xmlns:sodipodi="http://sodipodi.sourceforge.net/DTD/sodipodi-0.dtd"
   xmlns:inkscape="http://www.inkscape.org/namespaces/inkscape"
   width="48"
   height="48"
   id="svg2"
   version="1.1"
   inkscape:version="0.91pre2 r"
   sodipodi:docname="application-vnd.sun.xml.math.svg">
  <metadata
     id="metadata29">
    <rdf:RDF>
      <cc:Work
         rdf:about="">
        <dc:format>image/svg+xml</dc:format>
        <dc:type
           rdf:resource="http://purl.org/dc/dcmitype/StillImage" />
        <dc:title></dc:title>
      </cc:Work>
    </rdf:RDF>
  </metadata>
  <sodipodi:namedview
     pagecolor="#ffffff"
     bordercolor="#666666"
     borderopacity="1"
     objecttolerance="10"
     gridtolerance="10"
     guidetolerance="10"
     inkscape:pageopacity="0"
     inkscape:pageshadow="2"
     inkscape:window-width="1366"
     inkscape:window-height="672"
     id="namedview27"
     showgrid="true"
     inkscape:showpageshadow="false"
     borderlayer="true"
     units="px"
     inkscape:zoom="13.906433"
     inkscape:cx="20.257761"
     inkscape:cy="28.047851"
     inkscape:window-x="-4"
     inkscape:window-y="25"
     inkscape:window-maximized="1"
     inkscape:current-layer="svg2">
    <sodipodi:guide
       position="7,44"
       orientation="40,0"
       id="guide4179" />
    <sodipodi:guide
       position="7,4"
       orientation="0,34"
       id="guide4181" />
    <sodipodi:guide
       position="41,4"
       orientation="-29,0"
       id="guide4183" />
    <sodipodi:guide
       position="41,33"
       orientation="-11,-11"
       id="guide4185" />
    <sodipodi:guide
       position="30,44"
       orientation="0,-23"
       id="guide4187" />
    <inkscape:grid
       type="xygrid"
       id="grid4189" />
    <sodipodi:guide
       position="0,48"
       orientation="48,0"
       id="guide4195" />
    <sodipodi:guide
       position="0,0"
       orientation="0,48"
       id="guide4197" />
    <sodipodi:guide
       position="48,0"
       orientation="-48,0"
       id="guide4199" />
    <sodipodi:guide
       position="48,48"
       orientation="0,-48"
       id="guide4201" />
    <sodipodi:guide
       position="15,33"
       orientation="18,0"
       id="guide4203" />
    <sodipodi:guide
       position="15,15"
       orientation="0,18"
       id="guide4205" />
    <sodipodi:guide
       position="33,15"
       orientation="-18,0"
       id="guide4207" />
    <sodipodi:guide
       position="33,33"
       orientation="0,-18"
       id="guide4209" />
  </sodipodi:namedview>
  <defs
     id="defs4" />
  <path
     inkscape:connector-curvature="0"
     style="fill:#4b77be;fill-opacity:1;stroke:none"
     d="m 6.9999982,4.0000694 0,39.9999996 33.9999998,0 0,-29 -11,-10.9999996 z"
     id="rect4090"
     sodipodi:nodetypes="cccccc" />
  <path
     style="color:#000000;text-decoration:none;text-decoration-line:none;text-decoration-style:solid;text-decoration-color:#000000;clip-rule:nonzero;display:inline;overflow:visible;visibility:visible;opacity:1;isolation:auto;mix-blend-mode:normal;color-interpolation:sRGB;color-interpolation-filters:linearRGB;solid-color:#000000;solid-opacity:1;fill:#dde5f3;fill-opacity:1;fill-rule:nonzero;stroke:none;stroke-width:1;stroke-linecap:butt;stroke-linejoin:miter;stroke-miterlimit:4;stroke-dasharray:none;stroke-dashoffset:0;stroke-opacity:1;color-rendering:auto;image-rendering:auto;shape-rendering:auto;text-rendering:auto;enable-background:accumulate"
     d="M 17.5 15 C 17.223 15 17 15.223 17 15.5 L 17 17.5 C 17 17.777 17.223 18 17.5 18 C 17.777 18 18 17.777 18 17.5 L 18 15.5 C 18 15.223 17.777 15 17.5 15 z M 19.5 15 C 19.223 15 19 15.223 19 15.5 L 19 17.5 C 19 17.777 19.223 18 19.5 18 C 19.777 18 20 17.777 20 17.5 L 20 15.5 C 20 15.223 19.777 15 19.5 15 z M 21.5 15 C 21.223 15 21 15.223 21 15.5 L 21 17.5 C 21 17.777 21.223 18 21.5 18 C 21.777 18 22 17.777 22 17.5 L 22 15.5 C 22 15.223 21.777 15 21.5 15 z M 15 16 L 15 17 L 16 17 L 16 16 L 15 16 z M 23 16 L 23 17 L 33 17 L 33 16 L 23 16 z M 17.5 21 C 17.223 21 17 21.223 17 21.5 L 17 23.5 C 17 23.777 17.223 24 17.5 24 C 17.777 24 18 23.777 18 23.5 L 18 21.5 C 18 21.223 17.777 21 17.5 21 z M 19.5 21 C 19.223 21 19 21.223 19 21.5 L 19 23.5 C 19 23.777 19.223 24 19.5 24 C 19.777 24 20 23.777 20 23.5 L 20 21.5 C 20 21.223 19.777 21 19.5 21 z M 15 22 L 15 23 L 16 23 L 16 22 L 15 22 z M 21 22 L 21 23 L 33 23 L 33 22 L 21 22 z M 30.5 25 C 30.223 25 30 25.223 30 25.5 L 30 27.5 C 30 27.777 30.223 28 30.5 28 C 30.777 28 31 27.777 31 27.5 L 31 25.5 C 31 25.223 30.777 25 30.5 25 z M 15 26 L 15 27 L 29 27 L 29 26 L 15 26 z M 32 26 L 32 27 L 33 27 L 33 26 L 32 26 z M 17.5 30 C 17.223 30 17 30.223 17 30.5 L 17 32.5 C 17 32.777 17.223 33 17.5 33 C 17.777 33 18 32.777 18 32.5 L 18 30.5 C 18 30.223 17.777 30 17.5 30 z M 19.5 30 C 19.223 30 19 30.223 19 30.5 L 19 32.5 C 19 32.777 19.223 33 19.5 33 C 19.777 33 20 32.777 20 32.5 L 20 30.5 C 20 30.223 19.777 30 19.5 30 z M 21.5 30 C 21.223 30 21 30.223 21 30.5 L 21 32.5 C 21 32.777 21.223 33 21.5 33 C 21.777 33 22 32.777 22 32.5 L 22 30.5 C 22 30.223 21.777 30 21.5 30 z M 15 31 L 15 32 L 16 32 L 16 31 L 15 31 z M 23 31 L 23 32 L 33 32 L 33 31 L 23 31 z "
     id="rect4253" />
  <path
     style="fill:#7396cd;fill-opacity:1;stroke:none;stroke-width:0.28222224px;stroke-linecap:butt;stroke-linejoin:miter;stroke-opacity:1"
     d="m 29.999936,3.9999311 0,11.0001599 11.000061,0 z"
     id="path4151"
     inkscape:connector-curvature="0" />
  <path
     inkscape:connector-curvature="0"
     id="path4252"
     d="m 40.999997,26.000252 0,-11.000161 -11.000061,0 z"
     style="fill:#000000;fill-opacity:0.11764706;stroke:none" />
  <rect
     style="color:#000000;text-decoration:none;text-decoration-line:none;text-decoration-style:solid;text-decoration-color:#000000;clip-rule:nonzero;display:inline;overflow:visible;visibility:visible;opacity:1;isolation:auto;mix-blend-mode:normal;color-interpolation:sRGB;color-interpolation-filters:linearRGB;solid-color:#000000;solid-opacity:1;fill:#4b77be;fill-opacity:1;fill-rule:nonzero;stroke:none;stroke-width:1;stroke-linecap:butt;stroke-linejoin:miter;stroke-miterlimit:4;stroke-dasharray:none;stroke-dashoffset:0;stroke-opacity:1;color-rendering:auto;image-rendering:auto;shape-rendering:auto;text-rendering:auto;enable-background:accumulate"
     id="rect4263"
     width="1"
     height="1"
     x="-6.9999981"
     y="19.000029"
     ry="2.35182e-07" />
  <rect
     style="color:#000000;text-decoration:none;text-decoration-line:none;text-decoration-style:solid;text-decoration-color:#000000;clip-rule:nonzero;display:inline;overflow:visible;visibility:visible;opacity:1;isolation:auto;mix-blend-mode:normal;color-interpolation:sRGB;color-interpolation-filters:linearRGB;solid-color:#000000;solid-opacity:1;fill:#7396cd;fill-opacity:1;fill-rule:nonzero;stroke:none;stroke-width:1;stroke-linecap:butt;stroke-linejoin:miter;stroke-miterlimit:4;stroke-dasharray:none;stroke-dashoffset:0;stroke-opacity:1;color-rendering:auto;image-rendering:auto;shape-rendering:auto;text-rendering:auto;enable-background:accumulate"
     id="rect4263-9"
     width="1"
     height="1"
     x="-6.9999981"
     y="21.000029"
     ry="2.35182e-07" />
  <rect
     style="color:#000000;text-decoration:none;text-decoration-line:none;text-decoration-style:solid;text-decoration-color:#000000;clip-rule:nonzero;display:inline;overflow:visible;visibility:visible;opacity:1;isolation:auto;mix-blend-mode:normal;color-interpolation:sRGB;color-interpolation-filters:linearRGB;solid-color:#000000;solid-opacity:1;fill:#dde5f3;fill-opacity:1;fill-rule:nonzero;stroke:none;stroke-width:1;stroke-linecap:butt;stroke-linejoin:miter;stroke-miterlimit:4;stroke-dasharray:none;stroke-dashoffset:0;stroke-opacity:1;color-rendering:auto;image-rendering:auto;shape-rendering:auto;text-rendering:auto;enable-background:accumulate"
     id="rect4263-2"
     width="1"
     height="1"
     x="-6.9999981"
     y="23.000029"
     ry="2.35182e-07" />
</svg>
