<?xml version="1.0" encoding="UTF-8" standalone="no"?>
<!-- Created using Karbon, part of Calligra: http://www.calligra.org/karbon -->

<svg
   xmlns:dc="http://purl.org/dc/elements/1.1/"
   xmlns:cc="http://creativecommons.org/ns#"
   xmlns:rdf="http://www.w3.org/1999/02/22-rdf-syntax-ns#"
   xmlns:svg="http://www.w3.org/2000/svg"
   xmlns="http://www.w3.org/2000/svg"
   xmlns:sodipodi="http://sodipodi.sourceforge.net/DTD/sodipodi-0.dtd"
   xmlns:inkscape="http://www.inkscape.org/namespaces/inkscape"
   width="48"
   height="48"
   id="svg2"
   version="1.1"
   inkscape:version="0.91pre2 r"
   sodipodi:docname="application-x-ms-dos-executable.svg">
  <metadata
     id="metadata17">
    <rdf:RDF>
      <cc:Work
         rdf:about="">
        <dc:format>image/svg+xml</dc:format>
        <dc:type
           rdf:resource="http://purl.org/dc/dcmitype/StillImage" />
        <dc:title></dc:title>
      </cc:Work>
    </rdf:RDF>
  </metadata>
  <sodipodi:namedview
     pagecolor="#ffffff"
     bordercolor="#666666"
     borderopacity="1"
     objecttolerance="10"
     gridtolerance="10"
     guidetolerance="10"
     inkscape:pageopacity="0"
     inkscape:pageshadow="2"
     inkscape:window-width="1366"
     inkscape:window-height="672"
     id="namedview15"
     showgrid="true"
     inkscape:zoom="13.906433"
     inkscape:cx="14.941436"
     inkscape:cy="26.322131"
     inkscape:window-x="-4"
     inkscape:window-y="25"
     inkscape:window-maximized="1"
     inkscape:current-layer="svg2"
     inkscape:showpageshadow="false"
     borderlayer="true"
     units="px">
    <inkscape:grid
       type="xygrid"
       id="grid4169" />
    <sodipodi:guide
       position="15,33"
       orientation="18,0"
       id="guide4178" />
    <sodipodi:guide
       position="15,15"
       orientation="0,18"
       id="guide4180" />
    <sodipodi:guide
       position="33,15"
       orientation="-18,0"
       id="guide4182" />
    <sodipodi:guide
       position="33,33"
       orientation="0,-18"
       id="guide4184" />
    <sodipodi:guide
       position="0,48"
       orientation="48,0"
       id="guide4186" />
    <sodipodi:guide
       position="0,0"
       orientation="0,48"
       id="guide4188" />
    <sodipodi:guide
       position="48,0"
       orientation="-48,0"
       id="guide4190" />
    <sodipodi:guide
       position="48,48"
       orientation="0,-48"
       id="guide4192" />
    <sodipodi:guide
       position="6.9999962,43.999931"
       orientation="40,0"
       id="guide4203" />
    <sodipodi:guide
       position="6.9999962,3.999931"
       orientation="0,34"
       id="guide4205" />
    <sodipodi:guide
       position="40.999996,3.999931"
       orientation="-29,0"
       id="guide4207" />
    <sodipodi:guide
       position="40.999996,32.999931"
       orientation="-11,-11"
       id="guide4209" />
    <sodipodi:guide
       position="29.999996,43.999931"
       orientation="0,-23"
       id="guide4211" />
  </sodipodi:namedview>
  <defs
     id="defs4" />
  <path
     inkscape:connector-curvature="0"
     style="fill:#ecf0f1;fill-opacity:1;stroke:none"
     d="m 6.9999962,4.0000694 0,39.9999996 33.9999998,0 0,-29 -11,-10.9999996 z"
     id="rect4090-9"
     sodipodi:nodetypes="cccccc" />
  <path
     style="fill:#6c7a89;fill-opacity:1;stroke:none;stroke-width:0.28222224px;stroke-linecap:butt;stroke-linejoin:miter;stroke-opacity:1"
     d="m 29.999934,3.9999311 0,11.0001599 11.000061,0 z"
     id="path4151-7"
     inkscape:connector-curvature="0" />
  <path
     inkscape:connector-curvature="0"
     id="path4252-4"
     d="m 40.999995,26.000252 0,-11.000161 -11.000061,0 z"
     style="fill:#000000;fill-opacity:0.11764706;stroke:none" />
  <rect
     style="color:#000000;text-decoration:none;text-decoration-line:none;text-decoration-style:solid;text-decoration-color:#000000;clip-rule:nonzero;display:inline;overflow:visible;visibility:visible;opacity:1;isolation:auto;mix-blend-mode:normal;color-interpolation:sRGB;color-interpolation-filters:linearRGB;solid-color:#000000;solid-opacity:1;fill:#ecf0f1;fill-opacity:1;fill-rule:nonzero;stroke:none;stroke-width:1;stroke-linecap:butt;stroke-linejoin:miter;stroke-miterlimit:4;stroke-dasharray:none;stroke-dashoffset:0;stroke-opacity:1;color-rendering:auto;image-rendering:auto;shape-rendering:auto;text-rendering:auto;enable-background:accumulate"
     id="rect4263"
     width="1"
     height="1"
     x="-7"
     y="19.000029"
     ry="2.35182e-07" />
  <rect
     style="color:#000000;text-decoration:none;text-decoration-line:none;text-decoration-style:solid;text-decoration-color:#000000;clip-rule:nonzero;display:inline;overflow:visible;visibility:visible;opacity:1;isolation:auto;mix-blend-mode:normal;color-interpolation:sRGB;color-interpolation-filters:linearRGB;solid-color:#000000;solid-opacity:1;fill:#6c7a89;fill-opacity:1;fill-rule:nonzero;stroke:none;stroke-width:1;stroke-linecap:butt;stroke-linejoin:miter;stroke-miterlimit:4;stroke-dasharray:none;stroke-dashoffset:0;stroke-opacity:1;color-rendering:auto;image-rendering:auto;shape-rendering:auto;text-rendering:auto;enable-background:accumulate"
     id="rect4263-9"
     width="1"
     height="1"
     x="-7"
     y="21.000029"
     ry="2.35182e-07" />
  <rect
     style="color:#000000;text-decoration:none;text-decoration-line:none;text-decoration-style:solid;text-decoration-color:#000000;clip-rule:nonzero;display:inline;overflow:visible;visibility:visible;opacity:1;isolation:auto;mix-blend-mode:normal;color-interpolation:sRGB;color-interpolation-filters:linearRGB;solid-color:#000000;solid-opacity:1;fill:#bdc3c7;fill-opacity:1;fill-rule:nonzero;stroke:none;stroke-width:1;stroke-linecap:butt;stroke-linejoin:miter;stroke-miterlimit:4;stroke-dasharray:none;stroke-dashoffset:0;stroke-opacity:1;color-rendering:auto;image-rendering:auto;shape-rendering:auto;text-rendering:auto;enable-background:accumulate"
     id="rect4263-2"
     width="1"
     height="1"
     x="-7"
     y="23.000029"
     ry="2.35182e-07" />
  <path
     style="color:#000000;text-decoration:none;text-decoration-line:none;text-decoration-style:solid;text-decoration-color:#000000;clip-rule:nonzero;display:inline;overflow:visible;visibility:visible;opacity:1;isolation:auto;mix-blend-mode:normal;color-interpolation:sRGB;color-interpolation-filters:linearRGB;solid-color:#000000;solid-opacity:1;fill:#bdc3c7;fill-opacity:1;fill-rule:nonzero;stroke:none;stroke-width:1;stroke-linecap:butt;stroke-linejoin:miter;stroke-miterlimit:4;stroke-dasharray:none;stroke-dashoffset:0;stroke-opacity:1;color-rendering:auto;image-rendering:auto;shape-rendering:auto;text-rendering:auto;enable-background:accumulate"
     d="M 13 20 L 13 29 L 14 29 L 16 29 C 18.216 29 20 27.216 20 25 L 20 24 C 20 21.784 18.216 20 16 20 L 14 20 L 13 20 z M 24.5 20 C 22.561 20 21 21.561 21 23.5 L 21 25.5 C 21 27.439 22.561 29 24.5 29 C 26.439 29 28 27.439 28 25.5 L 28 23.5 C 28 21.561 26.439 20 24.5 20 z M 32.285156 20 C 30.788467 20 29.265625 20.779297 29.265625 22.279297 C 29.265625 25.027297 34.074219 24.344719 34.074219 26.636719 C 34.074219 27.704719 32.615932 28.035156 31.728516 28.035156 C 30.947059 28.035156 30.059343 27.835187 29.476562 27.367188 L 29 28.351562 C 29.847682 28.747561 30.735811 29 31.689453 29 C 33.437797 29 35 28.208469 35 26.480469 C 35 23.600469 30.388672 24.244765 30.388672 22.384766 C 30.388672 21.460765 31.331086 20.951172 32.271484 20.951172 C 32.960226 20.951172 33.59648 21.079172 34.166016 21.451172 L 34.775391 20.648438 C 34.020424 20.228437 33.172574 20 32.285156 20 z M 14 21 L 16 21 C 17.662 21 19 22.338 19 24 L 19 25 C 19 26.662 17.662 28 16 28 L 14 28 L 14 21 z M 24.5 21 C 25.885 21 27 22.115 27 23.5 L 27 25.5 C 27 26.885 25.885 28 24.5 28 C 23.115 28 22 26.885 22 25.5 L 22 23.5 C 22 22.115 23.115 21 24.5 21 z "
     id="rect4213" />
</svg>
