<?xml version="1.0" encoding="UTF-8" standalone="no"?>
<!-- Created using Karbon, part of Calligra: http://www.calligra.org/karbon -->

<svg
   xmlns:dc="http://purl.org/dc/elements/1.1/"
   xmlns:cc="http://creativecommons.org/ns#"
   xmlns:rdf="http://www.w3.org/1999/02/22-rdf-syntax-ns#"
   xmlns:svg="http://www.w3.org/2000/svg"
   xmlns="http://www.w3.org/2000/svg"
   xmlns:sodipodi="http://sodipodi.sourceforge.net/DTD/sodipodi-0.dtd"
   xmlns:inkscape="http://www.inkscape.org/namespaces/inkscape"
   width="48"
   height="48"
   id="svg2"
   version="1.1"
   inkscape:version="0.91pre2 r"
   sodipodi:docname="application-x-executable-script.svg">
  <metadata
     id="metadata18">
    <rdf:RDF>
      <cc:Work
         rdf:about="">
        <dc:format>image/svg+xml</dc:format>
        <dc:type
           rdf:resource="http://purl.org/dc/dcmitype/StillImage" />
        <dc:title />
      </cc:Work>
    </rdf:RDF>
  </metadata>
  <sodipodi:namedview
     pagecolor="#ffffff"
     bordercolor="#666666"
     borderopacity="1"
     objecttolerance="10"
     gridtolerance="10"
     guidetolerance="10"
     inkscape:pageopacity="0"
     inkscape:pageshadow="2"
     inkscape:window-width="1366"
     inkscape:window-height="672"
     id="namedview16"
     showgrid="true"
     inkscape:showpageshadow="false"
     borderlayer="true"
     units="px"
     inkscape:zoom="19.666666"
     inkscape:cx="20.178136"
     inkscape:cy="20.26139"
     inkscape:window-x="-4"
     inkscape:window-y="25"
     inkscape:window-maximized="1"
     inkscape:current-layer="svg2">
    <inkscape:grid
       type="xygrid"
       id="grid4147" />
    <sodipodi:guide
       position="0,48"
       orientation="48,0"
       id="guide4203" />
    <sodipodi:guide
       position="0,0"
       orientation="0,48"
       id="guide4205" />
    <sodipodi:guide
       position="48,0"
       orientation="-48,0"
       id="guide4207" />
    <sodipodi:guide
       position="48,48"
       orientation="0,-48"
       id="guide4209" />
    <sodipodi:guide
       position="15,33"
       orientation="18,0"
       id="guide4211" />
    <sodipodi:guide
       position="15,15"
       orientation="0,18"
       id="guide4213" />
    <sodipodi:guide
       position="33,15"
       orientation="-18,0"
       id="guide4215" />
    <sodipodi:guide
       position="33,33"
       orientation="0,-18"
       id="guide4217" />
  </sodipodi:namedview>
  <defs
     id="defs4" />
  <path
     inkscape:connector-curvature="0"
     style="fill:#26a65b;fill-opacity:1;stroke:none"
     d="m 6.9999962,4.0000694 0,39.9999996 33.9999998,0 0,-29 -11,-10.9999996 z"
     id="rect4090-2"
     sodipodi:nodetypes="cccccc" />
  <path
     style="fill:#34d075;fill-opacity:1;stroke:none;stroke-width:0.28222224px;stroke-linecap:butt;stroke-linejoin:miter;stroke-opacity:1"
     d="m 29.999934,3.9999311 0,11.0001599 11.000061,0 z"
     id="path4151-1"
     inkscape:connector-curvature="0" />
  <path
     inkscape:connector-curvature="0"
     id="path4252-9"
     d="m 40.999995,26.000252 0,-11.000161 -11.000061,0 z"
     style="fill:#000000;fill-opacity:0.11764706;stroke:none" />
  <rect
     style="color:#000000;text-decoration:none;text-decoration-line:none;text-decoration-style:solid;text-decoration-color:#000000;clip-rule:nonzero;display:inline;overflow:visible;visibility:visible;opacity:1;isolation:auto;mix-blend-mode:normal;color-interpolation:sRGB;color-interpolation-filters:linearRGB;solid-color:#000000;solid-opacity:1;fill:#26a65b;fill-opacity:1;fill-rule:nonzero;stroke:none;stroke-width:1;stroke-linecap:butt;stroke-linejoin:miter;stroke-miterlimit:4;stroke-dasharray:none;stroke-dashoffset:0;stroke-opacity:1;color-rendering:auto;image-rendering:auto;shape-rendering:auto;text-rendering:auto;enable-background:accumulate"
     id="rect4263"
     width="1"
     height="1"
     x="-7"
     y="19.000029"
     ry="2.35182e-07" />
  <rect
     style="color:#000000;text-decoration:none;text-decoration-line:none;text-decoration-style:solid;text-decoration-color:#000000;clip-rule:nonzero;display:inline;overflow:visible;visibility:visible;opacity:1;isolation:auto;mix-blend-mode:normal;color-interpolation:sRGB;color-interpolation-filters:linearRGB;solid-color:#000000;solid-opacity:1;fill:#34d075;fill-opacity:1;fill-rule:nonzero;stroke:none;stroke-width:1;stroke-linecap:butt;stroke-linejoin:miter;stroke-miterlimit:4;stroke-dasharray:none;stroke-dashoffset:0;stroke-opacity:1;color-rendering:auto;image-rendering:auto;shape-rendering:auto;text-rendering:auto;enable-background:accumulate"
     id="rect4263-9"
     width="1"
     height="1"
     x="-7"
     y="21.000029"
     ry="2.35182e-07" />
  <rect
     style="color:#000000;text-decoration:none;text-decoration-line:none;text-decoration-style:solid;text-decoration-color:#000000;clip-rule:nonzero;display:inline;overflow:visible;visibility:visible;opacity:1;isolation:auto;mix-blend-mode:normal;color-interpolation:sRGB;color-interpolation-filters:linearRGB;solid-color:#000000;solid-opacity:1;fill:#a9ebc4;fill-opacity:1;fill-rule:nonzero;stroke:none;stroke-width:1;stroke-linecap:butt;stroke-linejoin:miter;stroke-miterlimit:4;stroke-dasharray:none;stroke-dashoffset:0;stroke-opacity:1;color-rendering:auto;image-rendering:auto;shape-rendering:auto;text-rendering:auto;enable-background:accumulate"
     id="rect4263-2"
     width="1"
     height="1"
     x="-7"
     y="23.000029"
     ry="2.35182e-07" />
  <path
     style="color:#000000;text-decoration:none;text-decoration-line:none;text-decoration-style:solid;text-decoration-color:#000000;clip-rule:nonzero;display:inline;overflow:visible;visibility:visible;opacity:1;isolation:auto;mix-blend-mode:normal;color-interpolation:sRGB;color-interpolation-filters:linearRGB;solid-color:#000000;solid-opacity:1;fill:#a9ebc4;fill-opacity:1;fill-rule:nonzero;stroke:none;stroke-width:1;stroke-linecap:butt;stroke-linejoin:miter;stroke-miterlimit:4;stroke-dasharray:none;stroke-dashoffset:0;stroke-opacity:1;color-rendering:auto;image-rendering:auto;shape-rendering:auto;text-rendering:auto;enable-background:accumulate"
     d="M 23 15 L 21.316406 17.523438 L 18.34375 16.929688 L 16.929688 18.34375 L 17.523438 21.316406 L 15 23 L 15 25 L 17.523438 26.683594 L 16.929688 29.65625 L 18.34375 31.070312 L 20.287109 30.681641 L 21.087891 29.242188 C 20.6333 28.988955 20.211923 28.682177 19.839844 28.324219 L 19.675781 28.160156 C 18.639256 27.082741 18 25.620051 18 24 C 18 22.379949 18.639256 20.917259 19.675781 19.839844 L 19.839844 19.675781 C 20.917259 18.639256 22.379949 18 24 18 C 25.620051 18 27.082741 18.639256 28.160156 19.675781 L 28.324219 19.839844 C 29.360744 20.917259 30 22.379949 30 24 L 33 24 L 33 23 L 30.476562 21.316406 L 31.070312 18.34375 L 29.65625 16.929688 L 26.683594 17.523438 L 25 15 L 23 15 z M 24 20 C 21.784 20 20 21.784 20 24 C 20 25.509265 20.836518 26.803023 22.064453 27.484375 L 22.548828 26.613281 C 21.627815 26.102285 21 25.131995 21 24 C 21 22.338 22.338 21 24 21 C 25.662 21 27 22.338 27 24 L 28 24 C 28 21.784 26.216 20 24 20 z M 25.736328 25 L 25.029297 25.707031 L 28.322266 29 L 25.695312 31.626953 L 25.951172 32.785156 L 29.029297 29.707031 L 29.736328 29 L 29.029297 28.292969 L 25.736328 25 z M 29.195312 32 L 29.195312 33 L 33 33 L 33 32 L 29.195312 32 z "
     id="rect4232" />
</svg>
