<?xml version="1.0" encoding="UTF-8" standalone="no"?>
<!-- Created using Karbon, part of Calligra: http://www.calligra.org/karbon -->

<svg
   xmlns:dc="http://purl.org/dc/elements/1.1/"
   xmlns:cc="http://creativecommons.org/ns#"
   xmlns:rdf="http://www.w3.org/1999/02/22-rdf-syntax-ns#"
   xmlns:svg="http://www.w3.org/2000/svg"
   xmlns="http://www.w3.org/2000/svg"
   xmlns:sodipodi="http://sodipodi.sourceforge.net/DTD/sodipodi-0.dtd"
   xmlns:inkscape="http://www.inkscape.org/namespaces/inkscape"
   width="48"
   height="48"
   id="svg2"
   version="1.1"
   inkscape:version="0.91pre2 r"
   sodipodi:docname="text-x-bibtex.svg">
  <metadata
     id="metadata15">
    <rdf:RDF>
      <cc:Work
         rdf:about="">
        <dc:format>image/svg+xml</dc:format>
        <dc:type
           rdf:resource="http://purl.org/dc/dcmitype/StillImage" />
        <dc:title />
      </cc:Work>
    </rdf:RDF>
  </metadata>
  <sodipodi:namedview
     pagecolor="#ffffff"
     bordercolor="#666666"
     borderopacity="1"
     objecttolerance="10"
     gridtolerance="10"
     guidetolerance="10"
     inkscape:pageopacity="0"
     inkscape:pageshadow="2"
     inkscape:window-width="1366"
     inkscape:window-height="672"
     id="namedview13"
     showgrid="true"
     inkscape:showpageshadow="false"
     borderlayer="true"
     units="px"
     inkscape:zoom="9.8333331"
     inkscape:cx="-12.913644"
     inkscape:cy="23.494704"
     inkscape:window-x="-4"
     inkscape:window-y="25"
     inkscape:window-maximized="1"
     inkscape:current-layer="svg2">
    <inkscape:grid
       type="xygrid"
       id="grid4144" />
    <sodipodi:guide
       position="0,48"
       orientation="48,0"
       id="guide4150" />
    <sodipodi:guide
       position="0,0"
       orientation="0,48"
       id="guide4152" />
    <sodipodi:guide
       position="48,0"
       orientation="-48,0"
       id="guide4154" />
    <sodipodi:guide
       position="48,48"
       orientation="0,-48"
       id="guide4156" />
    <sodipodi:guide
       position="15,33"
       orientation="18,0"
       id="guide4158" />
    <sodipodi:guide
       position="15,15"
       orientation="0,18"
       id="guide4160" />
    <sodipodi:guide
       position="33,15"
       orientation="-18,0"
       id="guide4162" />
    <sodipodi:guide
       position="33,33"
       orientation="0,-18"
       id="guide4164" />
    <sodipodi:guide
       position="6.9999962,43.999931"
       orientation="40,0"
       id="guide4210" />
    <sodipodi:guide
       position="6.9999962,3.999931"
       orientation="0,34"
       id="guide4212" />
    <sodipodi:guide
       position="40.999996,3.999931"
       orientation="-29,0"
       id="guide4214" />
    <sodipodi:guide
       position="40.999996,32.999931"
       orientation="-11,-11"
       id="guide4216" />
    <sodipodi:guide
       position="29.999996,43.999931"
       orientation="0,-23"
       id="guide4218" />
  </sodipodi:namedview>
  <defs
     id="defs4" />
  <path
     inkscape:connector-curvature="0"
     style="fill:#663399;fill-opacity:1;stroke:none"
     d="m 6.9999962,4.0000694 0,39.9999996 33.9999998,0 0,-29 -11,-10.9999996 z"
     id="rect4090-4"
     sodipodi:nodetypes="cccccc" />
  <path
     style="fill:#7f40c0;fill-opacity:1;stroke:none;stroke-width:0.28222224px;stroke-linecap:butt;stroke-linejoin:miter;stroke-opacity:1"
     d="m 29.999934,3.9999311 0,11.0001599 11.000061,0 z"
     id="path4151-6"
     inkscape:connector-curvature="0" />
  <path
     inkscape:connector-curvature="0"
     id="path4252-5"
     d="m 40.999995,26.000252 0,-11.000161 -11.000061,0 z"
     style="fill:#000000;fill-opacity:0.11764706;stroke:none" />
  <rect
     style="color:#000000;text-decoration:none;text-decoration-line:none;text-decoration-style:solid;text-decoration-color:#000000;clip-rule:nonzero;display:inline;overflow:visible;visibility:visible;opacity:1;isolation:auto;mix-blend-mode:normal;color-interpolation:sRGB;color-interpolation-filters:linearRGB;solid-color:#000000;solid-opacity:1;fill:#663399;fill-opacity:1;fill-rule:nonzero;stroke:none;stroke-width:1;stroke-linecap:butt;stroke-linejoin:miter;stroke-miterlimit:4;stroke-dasharray:none;stroke-dashoffset:0;stroke-opacity:1;color-rendering:auto;image-rendering:auto;shape-rendering:auto;text-rendering:auto;enable-background:accumulate"
     id="rect4263-3"
     width="1"
     height="1"
     x="-7"
     y="19.000029"
     ry="2.35182e-07" />
  <rect
     style="color:#000000;text-decoration:none;text-decoration-line:none;text-decoration-style:solid;text-decoration-color:#000000;clip-rule:nonzero;display:inline;overflow:visible;visibility:visible;opacity:1;isolation:auto;mix-blend-mode:normal;color-interpolation:sRGB;color-interpolation-filters:linearRGB;solid-color:#000000;solid-opacity:1;fill:#7f40c0;fill-opacity:1;fill-rule:nonzero;stroke:none;stroke-width:1;stroke-linecap:butt;stroke-linejoin:miter;stroke-miterlimit:4;stroke-dasharray:none;stroke-dashoffset:0;stroke-opacity:1;color-rendering:auto;image-rendering:auto;shape-rendering:auto;text-rendering:auto;enable-background:accumulate"
     id="rect4263-9-6"
     width="1"
     height="1"
     x="-7"
     y="21.000029"
     ry="2.35182e-07" />
  <rect
     style="color:#000000;text-decoration:none;text-decoration-line:none;text-decoration-style:solid;text-decoration-color:#000000;clip-rule:nonzero;display:inline;overflow:visible;visibility:visible;opacity:1;isolation:auto;mix-blend-mode:normal;color-interpolation:sRGB;color-interpolation-filters:linearRGB;solid-color:#000000;solid-opacity:1;fill:#caafe5;fill-opacity:1;fill-rule:nonzero;stroke:none;stroke-width:1;stroke-linecap:butt;stroke-linejoin:miter;stroke-miterlimit:4;stroke-dasharray:none;stroke-dashoffset:0;stroke-opacity:1;color-rendering:auto;image-rendering:auto;shape-rendering:auto;text-rendering:auto;enable-background:accumulate"
     id="rect4263-2-4"
     width="1"
     height="1"
     x="-7"
     y="23.000029"
     ry="2.35182e-07" />
  <path
     style="fill:#caafe5;fill-opacity:1"
     d="m 25.946547,18.999999 0,0.252176 c 0.593617,0 0.787064,0.02133 1.025822,0.345243 l 2.085691,2.955569 -1.881414,2.650857 c -0.463975,0.6483 -1.165748,0.658961 -1.372204,0.658961 l 0,0.252176 c 0.247049,-0.01975 0.658496,-0.01951 0.917763,-0.01951 0.291571,0 0.799441,-2.45e-4 1.068751,0.01951 l 0,-0.252176 c -0.334346,-0.03122 -0.430757,-0.240191 -0.430757,-0.408285 0,-0.13481 0.05203,-0.208058 0.106579,-0.282199 l 1.728947,-2.434705 1.879935,2.667369 c 0.08511,0.11545 0.08585,0.145974 0.08585,0.177124 0,0.0822 -0.09673,0.26221 -0.475164,0.283699 l 0,0.250675 c 0.34613,-0.01976 0.873933,-0.01951 1.2301,-0.01951 0.279761,0 0.821222,-2.53e-4 1.083552,0.01951 l 0,-0.250675 c -0.692313,0 -0.802206,-0.05233 -1.016941,-0.346743 l -2.375823,-3.35485 1.598686,-2.230562 c 0.160188,-0.219046 0.485247,-0.670104 1.372203,-0.681478 l 0,-0.252176 c -0.247506,0.01979 -0.657006,0.01951 -0.916283,0.01951 -0.356165,0 -0.800912,2.84e-4 -1.07023,-0.01951 l 0,0.252176 c 0.346131,0.03116 0.432237,0.240207 0.432237,0.408286 0,0.124683 -0.05344,0.208589 -0.130264,0.312219 l -1.426973,1.9979 -1.598684,-2.259082 c -0.07508,-0.113739 -0.08586,-0.147454 -0.08586,-0.178625 0,-0.09394 0.117249,-0.271005 0.475164,-0.280698 l 0,-0.252176 c -0.346129,0.01979 -0.873933,0.01951 -1.230098,0.01951 -0.279784,0 -0.819575,2.84e-4 -1.080592,-0.01951 z m -10.764474,0.01501 -0.182071,2.478235 0.193914,0 c 0.13884,-1.85569 0.290835,-2.181028 1.956909,-2.181028 l 0.593584,0 c 0.20523,0.03349 0.205757,0.169937 0.205757,0.4278 l 0,6.098771 c 0,0.404866 -0.03343,0.528371 -0.938486,0.528371 l -0.304935,0 0,0.270189 c 0.515445,-0.01042 1.05228,-0.02101 1.579441,-0.02101 0.525419,0 1.064436,0.01059 1.579441,0.02101 l 0,-0.270189 -0.299013,0 c -0.89161,0 -0.923684,-0.123505 -0.923684,-0.528371 l 0,-6.098771 c 0,-0.247459 -0.0011,-0.382104 0.192434,-0.4278 l 0.590625,0 c 1.600673,0 1.794453,0.318125 1.931743,2.048936 l -0.605427,0 0,0.307714 c 0.756205,0 0.876316,2.51e-4 0.876316,0.504354 l 0,6.052238 c 0,0.504076 -0.118391,0.504353 -0.876316,0.504353 l 0,0.27019 5.555427,0 0.383388,-2.833985 -0.190954,0 c -0.234106,1.66314 -0.37199,2.566798 -2.25,2.566798 l -1.481743,0 c -0.426392,0 -0.44704,-0.05544 -0.44704,-0.441309 l 0,-3.135696 1.006579,0 c 1.007121,0 1.104277,0.387818 1.104277,1.334434 l 0.17171,0 0,-2.918044 -0.17171,0 c 0,0.930754 -0.09716,1.311919 -1.104277,1.311919 l -1.006579,0 0,-2.779946 c 0,-0.378645 0.02065,-0.435305 0.44704,-0.435306 l 1.459539,0 c 1.652097,0 1.844313,0.68915 1.993915,2.172021 l 0.192434,0 -0.256087,-2.479735 -4.605097,0 -0.167271,-2.346143 -6.203783,0 z"
     id="path14-3"
     inkscape:connector-curvature="0" />
</svg>
